<svg width="59" height="59" viewBox="0 0 59 59" fill="none" xmlns="http://www.w3.org/2000/svg">
<circle cx="29.5" cy="29.5" r="29" fill="white" stroke="#003C8C"/>
<g clip-path="url(#clip0_2_1561)">
<path d="M44.8728 45.5283V27.2875L36.9406 24.2556L33.9086 25.4519V42.0867C33.3678 42.0211 32.8433 41.9556 32.2861 41.9064V26.0911L29.2542 27.2875V41.7425H28.8608C28.4511 41.7425 28.0414 41.7425 27.6317 41.7589V26.1894L36.8914 22.5183V16.5856L27.7956 13.1111L23.5181 14.7992V31.5486L25.5667 32.3353V41.89C25.0258 41.9392 24.485 42.0047 23.9442 42.0703V33.4497L18.3064 31.2864L16.2906 32.0895V43.9714C15.7333 44.1845 15.2089 44.3975 14.6681 44.6433V32.745L12.8653 33.4661V45.5283C11.8184 46.0782 10.8059 46.6912 9.83334 47.3639C15.7499 44.4545 22.2681 42.978 28.8608 43.0536C35.4532 42.9818 41.9705 44.4581 47.8883 47.3639C46.9276 46.6818 45.9199 46.0684 44.8728 45.5283Z" fill="#003C8C"/>
<path d="M21.912 15.4383L18.5522 16.7822V29.6475L21.912 30.9422V15.4383Z" fill="#003C8C"/>
</g>
<defs>
<clipPath id="clip0_2_1561">
<rect width="38.055" height="34.2528" fill="white" transform="translate(9.83334 13.1111)"/>
</clipPath>
</defs>
</svg>
