<svg width="1512" height="1512" viewBox="0 0 1512 1512" fill="none" xmlns="http://www.w3.org/2000/svg">
<path d="M429.519 927.828C482.609 927.129 512.164 953.709 526.153 996.355C494.38 996.355 462.605 996.355 430.832 996.355" stroke="black" stroke-width="0.96" stroke-miterlimit="22.9256"/>
<path d="M267.954 926.105H169.883V1167.39H267.954V926.105Z" stroke="black" stroke-width="0.639874" stroke-miterlimit="22.9256"/>
<path d="M169.725 1167.71L267.796 926.42" stroke="black" stroke-width="0.639874" stroke-miterlimit="22.9256"/>
<path d="M267.954 1167.39L172.291 927.983" stroke="black" stroke-width="0.639874" stroke-miterlimit="22.9256"/>
<path d="M596.836 1044.07H508.028V1134.67H596.836V1044.07Z" stroke="black" stroke-width="1.00006" stroke-miterlimit="22.9256" stroke-linejoin="round"/>
<path d="M576.441 1126.54C582.66 1126.54 587.701 1121.21 587.701 1114.64C587.701 1108.07 582.66 1102.74 576.441 1102.74C570.222 1102.74 565.181 1108.07 565.181 1114.64C565.181 1121.21 570.222 1126.54 576.441 1126.54Z" stroke="black" stroke-width="0.639874" stroke-miterlimit="22.9256" stroke-linejoin="round"/>
<path d="M577.253 1099.38H576.408V1129.71H577.253V1099.38Z" fill="black"/>
<path d="M591.187 1114.1L591.187 1114.99L562.478 1114.99L562.478 1114.1L591.187 1114.1Z" fill="black"/>
<path d="M531.747 1126.68C537.966 1126.68 543.007 1121.36 543.007 1114.79C543.007 1108.21 537.966 1102.89 531.747 1102.89C525.528 1102.89 520.486 1108.21 520.486 1114.79C520.486 1121.36 525.528 1126.68 531.747 1126.68Z" stroke="black" stroke-width="0.639874" stroke-miterlimit="22.9256" stroke-linejoin="round"/>
<path d="M532.558 1099.52H531.713V1129.86H532.558V1099.52Z" fill="black"/>
<path d="M546.49 1114.25L546.49 1115.14L517.781 1115.14L517.781 1114.25L546.49 1114.25Z" fill="black"/>
<path d="M532.025 1078.87C538.243 1078.87 543.285 1073.54 543.285 1066.97C543.285 1060.4 538.243 1055.07 532.025 1055.07C525.806 1055.07 520.764 1060.4 520.764 1066.97C520.764 1073.54 525.806 1078.87 532.025 1078.87Z" stroke="black" stroke-width="0.639874" stroke-miterlimit="22.9256" stroke-linejoin="round"/>
<path d="M532.836 1051.71H531.991V1082.05H532.836V1051.71Z" fill="black"/>
<path d="M546.766 1066.43L546.766 1067.32L518.057 1067.32L518.057 1066.43L546.766 1066.43Z" fill="black"/>
<path d="M576.631 1079.65C582.85 1079.65 587.892 1074.32 587.892 1067.75C587.892 1061.18 582.85 1055.85 576.631 1055.85C570.413 1055.85 565.371 1061.18 565.371 1067.75C565.371 1074.32 570.413 1079.65 576.631 1079.65Z" stroke="black" stroke-width="0.639874" stroke-miterlimit="22.9256" stroke-linejoin="round"/>
<path d="M577.443 1052.49H576.598V1082.82H577.443V1052.49Z" fill="black"/>
<path d="M591.375 1067.21L591.375 1068.1L562.667 1068.1L562.667 1067.21L591.375 1067.21Z" fill="black"/>
<path fill-rule="evenodd" clip-rule="evenodd" d="M638.265 1140.39H716.628C719.547 1140.39 721.915 1137.89 721.915 1134.81L721.914 1050.92C721.915 1047.83 719.547 1045.33 716.628 1045.33L638.265 1045.33C635.347 1045.33 632.979 1047.83 632.979 1050.92L632.979 1134.81C632.979 1137.89 635.347 1140.39 638.266 1140.39L638.265 1140.39Z" stroke="black" stroke-width="1.00006" stroke-miterlimit="22.9256" stroke-linecap="round" stroke-linejoin="round"/>
<path d="M714.203 1055.65H641.205V1124.09H714.203V1055.65Z" stroke="black" stroke-width="1.00006" stroke-miterlimit="22.9256" stroke-linecap="round" stroke-linejoin="round"/>
<path d="M694.668 1115.95C697.791 1115.95 700.323 1113.27 700.323 1109.97C700.323 1106.67 697.791 1104 694.668 1104C691.545 1104 689.013 1106.67 689.013 1109.97C689.013 1113.27 691.545 1115.95 694.668 1115.95Z" stroke="black" stroke-width="1.00006" stroke-miterlimit="22.9256"/>
<path d="M1233.15 1142.73H417.125V1170.34H1233.15V1142.73Z" fill="black"/>
<path d="M437.408 996.682H431.44C430.781 996.682 430.246 997.247 430.246 997.944V1005.57C430.246 1006.26 430.781 1006.83 431.44 1006.83H437.408C438.067 1006.83 438.602 1006.26 438.602 1005.57V997.944C438.602 997.247 438.067 996.682 437.408 996.682Z" stroke="black" stroke-width="1.00006" stroke-miterlimit="22.9256"/>
<path d="M1233.13 689.727H1209.04V1142.73H1233.13V689.727Z" fill="black"/>
<path d="M1225.91 582.941H1216.67C1216.02 582.941 1215.48 583.621 1215.48 584.459V588.49C1215.48 589.328 1216.02 590.008 1216.67 590.008H1225.91C1226.57 590.008 1227.1 589.328 1227.1 588.49V584.459C1227.1 583.621 1226.57 582.941 1225.91 582.941Z" stroke="black" stroke-width="0.666709" stroke-miterlimit="22.9256"/>
<path d="M1233.55 343.307H1209.04V582.941H1233.55V343.307Z" fill="black"/>
<path d="M1229.06 681.328H1219.82C1219.16 681.328 1218.63 682.054 1218.63 682.949V687.256C1218.63 688.151 1219.16 688.877 1219.82 688.877H1229.06C1229.72 688.877 1230.25 688.151 1230.25 687.256V682.949C1230.25 682.054 1229.72 681.328 1229.06 681.328Z" stroke="black" stroke-width="0.666709" stroke-miterlimit="22.9256"/>
<path d="M437.258 918.184H430.542C429.8 918.184 429.198 918.749 429.198 919.445V927.068C429.198 927.765 429.8 928.33 430.542 928.33H437.258C438 928.33 438.602 927.765 438.602 927.068V919.445C438.602 918.749 438 918.184 437.258 918.184Z" stroke="black" stroke-width="1.00006" stroke-miterlimit="22.9256"/>
<path d="M429 825.802H416.314V918.184H429V825.802Z" stroke="black" stroke-width="0.755906" stroke-miterlimit="22.9256"/>
<path d="M438.601 827.403H429V908.572H438.601V827.403Z" stroke="black" stroke-width="0.755906" stroke-miterlimit="22.9256"/>
<path d="M470.945 817.791H438.602V919.444H470.945V817.791Z" stroke="black" stroke-width="0.755906" stroke-miterlimit="22.9256"/>
<path d="M438.601 817.791H429V827.403H438.601V817.791Z" stroke="black" stroke-width="0.755906" stroke-miterlimit="22.9256"/>
<path d="M429 671.741H414.849V825.801H429V671.741Z" fill="black"/>
<path d="M470.945 678.085H429V817.792H470.945V678.085Z" fill="black" stroke="black" stroke-width="0.755906" stroke-miterlimit="22.9256"/>
<path d="M438.601 667.818H429V677.43H438.601V667.818Z" stroke="black" stroke-width="0.755906" stroke-miterlimit="22.9256"/>
<path d="M429 459.333H416.858V671.743H429V459.333Z" stroke="black" stroke-width="0.755906" stroke-miterlimit="22.9256"/>
<path d="M438.601 461.614H429V667.651H438.601V461.614Z" stroke="black" stroke-width="0.755906" stroke-miterlimit="22.9256"/>
<path d="M470.945 452H438.602V677.301H470.945V452Z" stroke="black" stroke-width="0.755906" stroke-miterlimit="22.9256"/>
<path d="M428.808 343.269H416.426V459.332H428.808V343.269Z" fill="black"/>
<path d="M472.714 343.357H426.511V452.001H472.714V343.357Z" fill="black"/>
<path d="M1233.55 343.357H469.935V371.494H1233.55V343.357Z" fill="black"/>
<path d="M936.39 901.1H922.997V1142.73H936.39V901.1Z" fill="black"/>
<path d="M1031.12 900.562H935.284C934.606 900.562 934.056 901.126 934.056 901.823V914.475C934.056 915.172 934.606 915.736 935.284 915.736H1031.12C1031.8 915.736 1032.35 915.172 1032.35 914.475V901.823C1032.35 901.126 1031.8 900.562 1031.12 900.562Z" fill="black"/>
<path d="M935.885 367.629H924.261V595.647H935.885V367.629Z" fill="black"/>
<path d="M936.391 748.079H470.945V762.764H936.391V748.079Z" fill="black"/>
<path d="M1227.32 900.562H1131.49C1130.81 900.562 1130.26 901.126 1130.26 901.823V914.475C1130.26 915.172 1130.81 915.736 1131.49 915.736H1227.32C1228 915.736 1228.55 915.172 1228.55 914.475V901.823C1228.55 901.126 1228 900.562 1227.32 900.562Z" fill="black"/>
<path d="M438.601 452H429V461.613H438.601V452Z" stroke="black" stroke-width="0.755906" stroke-miterlimit="22.9256"/>
<path d="M417.124 1149.88H269.245V1170.34H417.124V1149.88Z" fill="black"/>
<path d="M292.187 771.27H269.245V1149.88H292.187V771.27Z" fill="black"/>
<path d="M415.088 771.269H269.245V790.681H415.088V771.269Z" fill="black"/>
<path d="M1204.03 930.734H1118.1V1134.04H1204.03V930.734Z" stroke="black" stroke-width="1.00006" stroke-miterlimit="22.9256"/>
<path fill-rule="evenodd" clip-rule="evenodd" d="M1127.91 967.984C1126.1 1012.64 1127.27 1056.77 1126.96 1101.16C1126.74 1116.69 1127.29 1124.62 1142.85 1124.37C1155.73 1124.37 1168.61 1124.37 1181.49 1124.37C1192.43 1124.51 1196.54 1121.06 1195.71 1101.72C1195.39 1057.14 1196.06 1012.56 1194.75 967.984C1190.73 932.581 1133.92 928.984 1127.91 967.984Z" stroke="black" stroke-width="1.00006" stroke-miterlimit="22.9256"/>
<path d="M1161.77 1114.92C1163.97 1114.92 1165.75 1113.03 1165.75 1110.71C1165.75 1108.39 1163.97 1106.5 1161.77 1106.5C1159.57 1106.5 1157.79 1108.39 1157.79 1110.71C1157.79 1113.03 1159.57 1114.92 1161.77 1114.92Z" stroke="black" stroke-width="0.755906" stroke-miterlimit="22.9256"/>
<path d="M1031.37 1143.7C1031.62 1115.99 1023.62 1090.15 1055.72 1086.58C1066.17 1085.67 1076.15 1086.06 1086.41 1087.58C1112.7 1093.74 1104.44 1117.62 1104.88 1144.1" stroke="black" stroke-width="1.00006" stroke-miterlimit="22.9256" stroke-linecap="round" stroke-linejoin="round"/>
<path fill-rule="evenodd" clip-rule="evenodd" d="M1035.43 1123.29C1035.36 1126.94 1037.94 1130.48 1040.8 1132.15C1059.87 1132.15 1078.03 1132.15 1097.1 1132.15C1099.8 1131.52 1100.4 1129.55 1101.31 1125.27C1102.12 1112.82 1101.19 1098.14 1088.28 1094C1077.69 1093.93 1065.21 1094 1054.62 1093.93C1038.07 1095.66 1036.16 1108.21 1035.43 1123.29Z" stroke="black" stroke-width="1.00006" stroke-miterlimit="22.9256"/>
<path d="M1068.85 1130.4C1070.93 1130.4 1072.61 1128.62 1072.61 1126.42C1072.61 1124.23 1070.93 1122.45 1068.85 1122.45C1066.77 1122.45 1065.09 1124.23 1065.09 1126.42C1065.09 1128.62 1066.77 1130.4 1068.85 1130.4Z" stroke="black" stroke-width="1.11118" stroke-miterlimit="22.9256"/>
<path fill-rule="evenodd" clip-rule="evenodd" d="M1044.14 1125.07C1044.09 1127.99 1045.93 1130.81 1047.98 1132.15C1061.59 1132.15 1074.56 1132.15 1088.18 1132.15C1090.1 1131.65 1090.53 1130.07 1091.18 1126.66C1093.59 1095.97 1076.68 1101.76 1057.85 1101.63C1045.51 1101.87 1044.14 1113.55 1044.14 1125.07Z" stroke="black" stroke-width="1.00006" stroke-miterlimit="22.9256"/>
<path d="M964.336 1094.4L965.469 1105.18" stroke="black" stroke-width="1.00006" stroke-miterlimit="22.9256"/>
<path d="M999.404 1094.83L998.269 1105.6" stroke="black" stroke-width="1.00006" stroke-miterlimit="22.9256"/>
<path d="M947.927 1143.57C947.927 1135.02 947.925 1126.48 947.925 1117.94C947.908 1111.57 951.032 1106.96 958.694 1105.07C972.327 1105.17 985.962 1105.27 999.595 1105.37C1010.26 1104.78 1014.7 1109.66 1015.36 1117.94V1143.97" stroke="black" stroke-width="1.00006" stroke-miterlimit="22.9256"/>
<path fill-rule="evenodd" clip-rule="evenodd" d="M1007.25 1072.85C1008.56 1081.36 1006.75 1088.74 1000.16 1094.41C987.148 1099.66 975.312 1099.35 964.463 1094.41C958.661 1089.37 955.953 1082.8 956.684 1074.51C957.824 1062.15 962.043 1050.14 971.265 1038.73C977.708 1031.8 984.999 1031.23 993.363 1038.73C1000.93 1048.67 1005.44 1060.1 1007.25 1072.85Z" stroke="black" stroke-width="1.00006" stroke-miterlimit="22.9256"/>
<path d="M1012.01 915.736H936.391V988.578H1012.01V915.736Z" stroke="black" stroke-width="0.755906" stroke-miterlimit="22.9256"/>
<path d="M998.828 988.578H949.649V995.453H998.828V988.578Z" stroke="black" stroke-width="0.755906" stroke-miterlimit="22.9256"/>
<path d="M1218.65 590.376C1288.97 589.338 1328.54 617.1 1347.07 680.38C1304.98 680.38 1262.89 680.38 1220.8 680.38" stroke="black" stroke-width="0.96" stroke-miterlimit="22.9256"/>
<path d="M934.313 895.226H925.077C924.417 895.226 923.883 895.791 923.883 896.488V899.839C923.883 900.536 924.417 901.101 925.077 901.101H934.313C934.972 901.101 935.506 900.536 935.506 899.839V896.488C935.506 895.791 934.972 895.226 934.313 895.226Z" stroke="black" stroke-width="0.666709" stroke-miterlimit="22.9256"/>
<path d="M935.189 763.12H925.953C925.294 763.12 924.759 763.685 924.759 764.382V767.733C924.759 768.43 925.294 768.995 925.953 768.995H935.189C935.849 768.995 936.383 768.43 936.383 767.733V764.382C936.383 763.685 935.849 763.12 935.189 763.12Z" stroke="black" stroke-width="0.666709" stroke-miterlimit="22.9256"/>
<path d="M934.044 768.994C855.413 790.277 819.664 814.8 797.903 894.166C843.644 894.166 889.382 894.166 935.123 894.166" stroke="black" stroke-width="0.96" stroke-miterlimit="22.9256"/>
<path d="M911.762 927.937L911.762 996.586L867.882 996.586L867.882 927.937L911.762 927.937Z" stroke="black" stroke-width="5.69779" stroke-miterlimit="22.9256" stroke-linecap="round" stroke-linejoin="round"/>
<path d="M907.521 933.692L907.521 947.777L871.567 947.777L871.567 933.692L907.521 933.692Z" stroke="black" stroke-width="11.0752" stroke-miterlimit="22.9256"/>
<path d="M911.654 972.458H867.774" stroke="black" stroke-width="2.00013" stroke-miterlimit="22.9256"/>
<path d="M889.82 994.289V951.729" stroke="black" stroke-width="2.00013" stroke-miterlimit="22.9256"/>
<path d="M520.922 841.135V874.508H516.88V845.372H516.685L508.537 850.782V846.676L516.88 841.135H520.922ZM541.405 874.965C538.95 874.965 536.859 874.296 535.131 872.96C533.404 871.613 532.084 869.663 531.171 867.11C530.259 864.546 529.803 861.45 529.803 857.822C529.803 854.215 530.259 851.135 531.171 848.582C532.095 846.019 533.42 844.063 535.148 842.716C536.886 841.358 538.972 840.679 541.405 840.679C543.838 840.679 545.919 841.358 547.646 842.716C549.384 844.063 550.71 846.019 551.622 848.582C552.546 851.135 553.007 854.215 553.007 857.822C553.007 861.45 552.551 864.546 551.638 867.11C550.726 869.663 549.406 871.613 547.679 872.96C545.951 874.296 543.86 874.965 541.405 874.965ZM541.405 871.38C543.838 871.38 545.729 870.206 547.076 867.86C548.423 865.513 549.096 862.167 549.096 857.822C549.096 854.932 548.787 852.472 548.168 850.44C547.559 848.409 546.679 846.86 545.528 845.796C544.387 844.731 543.013 844.199 541.405 844.199C538.993 844.199 537.108 845.388 535.75 847.768C534.393 850.136 533.714 853.487 533.714 857.822C533.714 860.712 534.018 863.167 534.626 865.187C535.234 867.208 536.109 868.745 537.25 869.799C538.401 870.853 539.786 871.38 541.405 871.38ZM560.902 874.769C560.098 874.769 559.409 874.481 558.833 873.905C558.257 873.33 557.969 872.64 557.969 871.836C557.969 871.032 558.257 870.342 558.833 869.766C559.409 869.191 560.098 868.903 560.902 868.903C561.706 868.903 562.396 869.191 562.972 869.766C563.548 870.342 563.836 871.032 563.836 871.836C563.836 872.368 563.7 872.857 563.428 873.302C563.167 873.748 562.814 874.106 562.369 874.378C561.934 874.639 561.446 874.769 560.902 874.769ZM571.042 874.508L585.969 844.981V844.72H568.761V841.135H590.14V844.916L575.279 874.508H571.042ZM606.383 874.965C603.928 874.965 601.836 874.296 600.109 872.96C598.382 871.613 597.062 869.663 596.149 867.11C595.237 864.546 594.781 861.45 594.781 857.822C594.781 854.215 595.237 851.135 596.149 848.582C597.073 846.019 598.398 844.063 600.125 842.716C601.864 841.358 603.949 840.679 606.383 840.679C608.816 840.679 610.897 841.358 612.624 842.716C614.362 844.063 615.687 846.019 616.6 848.582C617.523 851.135 617.985 854.215 617.985 857.822C617.985 861.45 617.529 864.546 616.616 867.11C615.704 869.663 614.384 871.613 612.657 872.96C610.929 874.296 608.838 874.965 606.383 874.965ZM606.383 871.38C608.816 871.38 610.707 870.206 612.054 867.86C613.401 865.513 614.074 862.167 614.074 857.822C614.074 854.932 613.765 852.472 613.145 850.44C612.537 848.409 611.657 846.86 610.506 845.796C609.365 844.731 607.991 844.199 606.383 844.199C603.971 844.199 602.086 845.388 600.728 847.768C599.37 850.136 598.691 853.487 598.691 857.822C598.691 860.712 598.996 863.167 599.604 865.187C600.212 867.208 601.087 868.745 602.228 869.799C603.379 870.853 604.764 871.38 606.383 871.38Z" fill="black"/>
<path d="M313.39 994.718V991.622L325.016 978.895C326.381 977.404 327.504 976.109 328.387 975.008C329.27 973.896 329.924 972.852 330.348 971.878C330.784 970.892 331.002 969.86 331.002 968.782C331.002 967.543 330.703 966.471 330.107 965.566C329.522 964.66 328.72 963.96 327.699 963.467C326.679 962.974 325.532 962.728 324.26 962.728C322.907 962.728 321.726 963.009 320.717 963.57C319.719 964.121 318.945 964.895 318.395 965.892C317.856 966.89 317.586 968.059 317.586 969.401H313.527C313.527 967.337 314.003 965.525 314.955 963.966C315.907 962.407 317.202 961.191 318.842 960.32C320.493 959.448 322.345 959.013 324.397 959.013C326.461 959.013 328.29 959.448 329.884 960.32C331.477 961.191 332.727 962.367 333.633 963.846C334.539 965.325 334.992 966.97 334.992 968.782C334.992 970.077 334.757 971.344 334.287 972.583C333.828 973.81 333.025 975.18 331.879 976.693C330.744 978.195 329.167 980.03 327.149 982.197L319.237 990.659V990.934H335.611V994.718H313.39ZM345.741 994.993C344.893 994.993 344.164 994.689 343.557 994.081C342.949 993.474 342.645 992.746 342.645 991.897C342.645 991.049 342.949 990.321 343.557 989.713C344.164 989.105 344.893 988.801 345.741 988.801C346.59 988.801 347.318 989.105 347.925 989.713C348.533 990.321 348.837 991.049 348.837 991.897C348.837 992.459 348.694 992.975 348.407 993.445C348.132 993.915 347.759 994.294 347.289 994.58C346.83 994.855 346.314 994.993 345.741 994.993ZM366.934 959.013C368.379 959.024 369.824 959.299 371.269 959.838C372.713 960.377 374.032 961.272 375.224 962.521C376.417 963.76 377.374 965.451 378.097 967.595C378.819 969.739 379.18 972.428 379.18 975.661C379.18 978.792 378.882 981.572 378.286 984.003C377.701 986.422 376.852 988.463 375.74 990.126C374.64 991.788 373.298 993.049 371.716 993.909C370.145 994.769 368.368 995.199 366.384 995.199C364.412 995.199 362.652 994.81 361.104 994.03C359.568 993.239 358.306 992.144 357.32 990.745C356.346 989.335 355.721 987.701 355.446 985.843H359.642C360.02 987.46 360.771 988.796 361.895 989.85C363.03 990.894 364.527 991.416 366.384 991.416C369.101 991.416 371.246 990.229 372.816 987.855C374.399 985.482 375.19 982.128 375.19 977.794H374.915C374.273 978.757 373.51 979.588 372.627 980.288C371.744 980.987 370.764 981.526 369.686 981.905C368.608 982.283 367.462 982.472 366.246 982.472C364.228 982.472 362.377 981.973 360.691 980.976C359.017 979.967 357.676 978.585 356.667 976.831C355.669 975.065 355.17 973.047 355.17 970.777C355.17 968.621 355.652 966.649 356.615 964.86C357.59 963.06 358.954 961.627 360.708 960.561C362.474 959.494 364.55 958.978 366.934 959.013ZM366.934 962.797C365.49 962.797 364.188 963.158 363.03 963.88C361.884 964.591 360.972 965.554 360.296 966.769C359.631 967.973 359.298 969.309 359.298 970.777C359.298 972.244 359.619 973.58 360.261 974.784C360.915 975.977 361.803 976.928 362.927 977.639C364.062 978.339 365.352 978.688 366.797 978.688C367.886 978.688 368.901 978.476 369.841 978.052C370.781 977.616 371.601 977.026 372.3 976.281C373.011 975.524 373.567 974.67 373.969 973.718C374.37 972.755 374.571 971.751 374.571 970.708C374.571 969.332 374.238 968.042 373.573 966.838C372.92 965.634 372.014 964.66 370.856 963.914C369.709 963.169 368.402 962.797 366.934 962.797ZM397.432 995.199C394.841 995.199 392.634 994.494 390.811 993.084C388.988 991.662 387.595 989.604 386.632 986.909C385.668 984.203 385.187 980.936 385.187 977.106C385.187 973.299 385.668 970.049 386.632 967.354C387.606 964.648 389.005 962.584 390.828 961.163C392.663 959.729 394.864 959.013 397.432 959.013C400.001 959.013 402.197 959.729 404.02 961.163C405.854 962.584 407.253 964.648 408.216 967.354C409.191 970.049 409.678 973.299 409.678 977.106C409.678 980.936 409.197 984.203 408.233 986.909C407.27 989.604 405.877 991.662 404.054 993.084C402.231 994.494 400.024 995.199 397.432 995.199ZM397.432 991.416C400.001 991.416 401.996 990.177 403.418 987.701C404.839 985.224 405.55 981.692 405.55 977.106C405.55 974.056 405.224 971.459 404.57 969.315C403.928 967.171 402.999 965.537 401.784 964.413C400.58 963.29 399.129 962.728 397.432 962.728C394.887 962.728 392.898 963.983 391.464 966.494C390.031 968.994 389.315 972.531 389.315 977.106C389.315 980.156 389.636 982.747 390.278 984.88C390.92 987.013 391.843 988.635 393.047 989.747C394.262 990.859 395.724 991.416 397.432 991.416Z" fill="black"/>
<path opacity="0.9" d="M1070.73 473.614C1072.16 473.625 1073.59 473.898 1075.02 474.432C1076.45 474.966 1077.76 475.852 1078.94 477.091C1080.13 478.318 1081.07 479.994 1081.79 482.119C1082.51 484.244 1082.86 486.909 1082.86 490.114C1082.86 493.216 1082.57 495.972 1081.98 498.381C1081.4 500.778 1080.56 502.801 1079.45 504.449C1078.36 506.097 1077.03 507.347 1075.47 508.199C1073.91 509.051 1072.15 509.477 1070.18 509.477C1068.23 509.477 1066.48 509.091 1064.95 508.318C1063.43 507.534 1062.18 506.449 1061.2 505.062C1060.23 503.665 1059.61 502.045 1059.34 500.205H1063.5C1063.88 501.807 1064.62 503.131 1065.73 504.176C1066.86 505.21 1068.34 505.727 1070.18 505.727C1072.88 505.727 1075 504.551 1076.56 502.199C1078.13 499.847 1078.91 496.523 1078.91 492.227H1078.64C1078 493.182 1077.24 494.006 1076.37 494.699C1075.49 495.392 1074.52 495.926 1073.45 496.301C1072.39 496.676 1071.25 496.864 1070.05 496.864C1068.05 496.864 1066.21 496.369 1064.54 495.381C1062.88 494.381 1061.55 493.011 1060.55 491.273C1059.56 489.523 1059.07 487.523 1059.07 485.273C1059.07 483.136 1059.55 481.182 1060.5 479.409C1061.47 477.625 1062.82 476.205 1064.56 475.148C1066.31 474.091 1068.36 473.58 1070.73 473.614ZM1070.73 477.364C1069.3 477.364 1068.01 477.722 1066.86 478.438C1065.72 479.142 1064.82 480.097 1064.15 481.301C1063.49 482.494 1063.16 483.818 1063.16 485.273C1063.16 486.727 1063.48 488.051 1064.11 489.244C1064.76 490.426 1065.64 491.369 1066.76 492.074C1067.88 492.767 1069.16 493.114 1070.59 493.114C1071.67 493.114 1072.68 492.903 1073.61 492.483C1074.54 492.051 1075.35 491.466 1076.05 490.727C1076.75 489.977 1077.3 489.131 1077.7 488.188C1078.1 487.233 1078.3 486.239 1078.3 485.205C1078.3 483.841 1077.97 482.562 1077.31 481.369C1076.66 480.176 1075.76 479.21 1074.61 478.472C1073.48 477.733 1072.18 477.364 1070.73 477.364ZM1091.35 509.273C1090.51 509.273 1089.79 508.972 1089.18 508.369C1088.58 507.767 1088.28 507.045 1088.28 506.205C1088.28 505.364 1088.58 504.642 1089.18 504.04C1089.79 503.437 1090.51 503.136 1091.35 503.136C1092.19 503.136 1092.91 503.437 1093.51 504.04C1094.12 504.642 1094.42 505.364 1094.42 506.205C1094.42 506.761 1094.27 507.273 1093.99 507.739C1093.72 508.205 1093.35 508.58 1092.88 508.864C1092.43 509.136 1091.92 509.273 1091.35 509.273ZM1111.67 509.477C1109.33 509.477 1107.26 509.062 1105.47 508.233C1103.68 507.392 1102.29 506.239 1101.29 504.773C1100.29 503.295 1099.8 501.614 1099.81 499.727C1099.8 498.25 1100.09 496.886 1100.68 495.636C1101.27 494.375 1102.07 493.324 1103.1 492.483C1104.13 491.631 1105.28 491.091 1106.56 490.864V490.659C1104.89 490.227 1103.56 489.29 1102.57 487.847C1101.58 486.392 1101.09 484.739 1101.1 482.886C1101.09 481.114 1101.54 479.528 1102.45 478.131C1103.36 476.733 1104.61 475.631 1106.2 474.824C1107.8 474.017 1109.63 473.614 1111.67 473.614C1113.69 473.614 1115.5 474.017 1117.09 474.824C1118.68 475.631 1119.93 476.733 1120.84 478.131C1121.76 479.528 1122.23 481.114 1122.24 482.886C1122.23 484.739 1121.72 486.392 1120.72 487.847C1119.73 489.29 1118.42 490.227 1116.78 490.659V490.864C1118.05 491.091 1119.18 491.631 1120.19 492.483C1121.2 493.324 1122.01 494.375 1122.61 495.636C1123.22 496.886 1123.52 498.25 1123.53 499.727C1123.52 501.614 1123.01 503.295 1122 504.773C1121 506.239 1119.61 507.392 1117.82 508.233C1116.05 509.062 1114 509.477 1111.67 509.477ZM1111.67 505.727C1113.25 505.727 1114.61 505.472 1115.76 504.96C1116.91 504.449 1117.8 503.727 1118.42 502.795C1119.05 501.864 1119.36 500.773 1119.38 499.523C1119.36 498.205 1119.02 497.04 1118.35 496.028C1117.68 495.017 1116.77 494.222 1115.61 493.642C1114.46 493.062 1113.15 492.773 1111.67 492.773C1110.18 492.773 1108.85 493.062 1107.68 493.642C1106.52 494.222 1105.61 495.017 1104.94 496.028C1104.28 497.04 1103.95 498.205 1103.97 499.523C1103.95 500.773 1104.26 501.864 1104.87 502.795C1105.49 503.727 1106.39 504.449 1107.55 504.96C1108.7 505.472 1110.08 505.727 1111.67 505.727ZM1111.67 489.159C1112.92 489.159 1114.03 488.909 1114.99 488.409C1115.97 487.909 1116.74 487.21 1117.3 486.312C1117.85 485.415 1118.14 484.364 1118.15 483.159C1118.14 481.977 1117.86 480.949 1117.31 480.074C1116.77 479.187 1116.01 478.506 1115.05 478.028C1114.08 477.54 1112.95 477.295 1111.67 477.295C1110.36 477.295 1109.22 477.54 1108.24 478.028C1107.27 478.506 1106.51 479.187 1105.98 480.074C1105.44 480.949 1105.18 481.977 1105.19 483.159C1105.18 484.364 1105.45 485.415 1105.99 486.312C1106.55 487.21 1107.32 487.909 1108.3 488.409C1109.27 488.909 1110.4 489.159 1111.67 489.159ZM1141.45 509.477C1138.88 509.477 1136.7 508.778 1134.89 507.381C1133.08 505.972 1131.7 503.932 1130.75 501.261C1129.79 498.58 1129.32 495.341 1129.32 491.545C1129.32 487.773 1129.79 484.551 1130.75 481.881C1131.71 479.199 1133.1 477.153 1134.91 475.744C1136.73 474.324 1138.91 473.614 1141.45 473.614C1144 473.614 1146.17 474.324 1147.98 475.744C1149.8 477.153 1151.19 479.199 1152.14 481.881C1153.11 484.551 1153.59 487.773 1153.59 491.545C1153.59 495.341 1153.11 498.58 1152.16 501.261C1151.2 503.932 1149.82 505.972 1148.02 507.381C1146.21 508.778 1144.02 509.477 1141.45 509.477ZM1141.45 505.727C1144 505.727 1145.98 504.5 1147.38 502.045C1148.79 499.591 1149.5 496.091 1149.5 491.545C1149.5 488.523 1149.17 485.949 1148.53 483.824C1147.89 481.699 1146.97 480.08 1145.77 478.966C1144.57 477.852 1143.13 477.295 1141.45 477.295C1138.93 477.295 1136.96 478.54 1135.54 481.028C1134.12 483.506 1133.41 487.011 1133.41 491.545C1133.41 494.568 1133.73 497.136 1134.36 499.25C1135 501.364 1135.91 502.972 1137.11 504.074C1138.31 505.176 1139.76 505.727 1141.45 505.727Z" fill="black"/>
<path d="M1016.45 1034.18V1030.7L1031.79 1006.43H1034.31V1011.82H1032.61L1021.02 1030.16V1030.43H1041.68V1034.18H1016.45ZM1032.88 1041.34V1033.12V1031.5V1006.43H1036.9V1041.34H1032.88ZM1049.42 1041.61C1048.58 1041.61 1047.86 1041.31 1047.26 1040.71C1046.66 1040.11 1046.36 1039.38 1046.36 1038.54C1046.36 1037.7 1046.66 1036.98 1047.26 1036.38C1047.86 1035.78 1048.58 1035.48 1049.42 1035.48C1050.26 1035.48 1050.99 1035.78 1051.59 1036.38C1052.19 1036.98 1052.49 1037.7 1052.49 1038.54C1052.49 1039.1 1052.35 1039.61 1052.07 1040.08C1051.79 1040.54 1051.42 1040.92 1050.96 1041.2C1050.5 1041.48 1049.99 1041.61 1049.42 1041.61ZM1059.64 1041.34V1038.27L1071.17 1025.66C1072.52 1024.18 1073.63 1022.9 1074.51 1021.8C1075.38 1020.7 1076.03 1019.67 1076.45 1018.7C1076.88 1017.73 1077.1 1016.7 1077.1 1015.63C1077.1 1014.41 1076.8 1013.34 1076.21 1012.45C1075.63 1011.55 1074.84 1010.86 1073.82 1010.37C1072.81 1009.88 1071.68 1009.63 1070.42 1009.63C1069.07 1009.63 1067.9 1009.91 1066.9 1010.47C1065.92 1011.02 1065.15 1011.78 1064.6 1012.77C1064.07 1013.76 1063.8 1014.92 1063.8 1016.25H1059.78C1059.78 1014.2 1060.25 1012.41 1061.19 1010.86C1062.14 1009.32 1063.42 1008.11 1065.05 1007.25C1066.68 1006.38 1068.52 1005.95 1070.55 1005.95C1072.6 1005.95 1074.41 1006.38 1075.99 1007.25C1077.57 1008.11 1078.81 1009.28 1079.7 1010.74C1080.6 1012.21 1081.05 1013.84 1081.05 1015.63C1081.05 1016.92 1080.82 1018.17 1080.35 1019.4C1079.9 1020.62 1079.1 1021.98 1077.97 1023.48C1076.84 1024.96 1075.28 1026.78 1073.28 1028.93L1065.44 1037.32V1037.59H1081.67V1041.34H1059.64ZM1100.09 1041.82C1097.52 1041.82 1095.34 1041.12 1093.53 1039.72C1091.72 1038.31 1090.34 1036.27 1089.39 1033.6C1088.43 1030.92 1087.95 1027.68 1087.95 1023.88C1087.95 1020.11 1088.43 1016.89 1089.39 1014.22C1090.35 1011.54 1091.74 1009.49 1093.55 1008.08C1095.36 1006.66 1097.55 1005.95 1100.09 1005.95C1102.64 1005.95 1104.81 1006.66 1106.62 1008.08C1108.44 1009.49 1109.82 1011.54 1110.78 1014.22C1111.74 1016.89 1112.23 1020.11 1112.23 1023.88C1112.23 1027.68 1111.75 1030.92 1110.8 1033.6C1109.84 1036.27 1108.46 1038.31 1106.65 1039.72C1104.85 1041.12 1102.66 1041.82 1100.09 1041.82ZM1100.09 1038.07C1102.64 1038.07 1104.61 1036.84 1106.02 1034.38C1107.43 1031.93 1108.14 1028.43 1108.14 1023.88C1108.14 1020.86 1107.81 1018.29 1107.17 1016.16C1106.53 1014.04 1105.61 1012.42 1104.4 1011.3C1103.21 1010.19 1101.77 1009.63 1100.09 1009.63C1097.57 1009.63 1095.6 1010.88 1094.18 1013.37C1092.76 1015.84 1092.05 1019.35 1092.05 1023.88C1092.05 1026.91 1092.36 1029.48 1093 1031.59C1093.64 1033.7 1094.55 1035.31 1095.74 1036.41C1096.95 1037.52 1098.4 1038.07 1100.09 1038.07Z" fill="black"/>
<path d="M578.314 662.648V697.557H574.087V667.079H573.882L565.36 672.738V668.443L574.087 662.648H578.314ZM588.354 697.557V694.488L599.877 681.875C601.229 680.398 602.343 679.113 603.218 678.023C604.093 676.92 604.74 675.886 605.161 674.92C605.593 673.943 605.808 672.92 605.808 671.852C605.808 670.625 605.513 669.562 604.922 668.665C604.343 667.767 603.547 667.074 602.536 666.585C601.524 666.096 600.388 665.852 599.127 665.852C597.786 665.852 596.615 666.131 595.615 666.687C594.627 667.233 593.86 668 593.314 668.988C592.78 669.977 592.513 671.136 592.513 672.466H588.49C588.49 670.42 588.962 668.625 589.905 667.079C590.848 665.534 592.132 664.329 593.757 663.466C595.394 662.602 597.229 662.17 599.263 662.17C601.308 662.17 603.121 662.602 604.7 663.466C606.28 664.329 607.519 665.494 608.416 666.96C609.314 668.426 609.763 670.057 609.763 671.852C609.763 673.136 609.53 674.392 609.064 675.619C608.61 676.835 607.814 678.193 606.678 679.693C605.553 681.182 603.99 683 601.99 685.148L594.149 693.534V693.807H610.377V697.557H588.354ZM620.416 697.829C619.575 697.829 618.854 697.528 618.252 696.926C617.649 696.324 617.348 695.602 617.348 694.761C617.348 693.92 617.649 693.199 618.252 692.596C618.854 691.994 619.575 691.693 620.416 691.693C621.257 691.693 621.979 691.994 622.581 692.596C623.183 693.199 623.485 693.92 623.485 694.761C623.485 695.318 623.343 695.829 623.058 696.295C622.786 696.761 622.416 697.136 621.95 697.42C621.496 697.693 620.985 697.829 620.416 697.829ZM640.803 698.034C638.235 698.034 636.047 697.335 634.24 695.937C632.433 694.528 631.053 692.488 630.098 689.818C629.144 687.136 628.666 683.898 628.666 680.102C628.666 676.329 629.144 673.108 630.098 670.437C631.064 667.756 632.45 665.71 634.257 664.301C636.075 662.881 638.257 662.17 640.803 662.17C643.348 662.17 645.524 662.881 647.331 664.301C649.149 665.71 650.536 667.756 651.49 670.437C652.456 673.108 652.939 676.329 652.939 680.102C652.939 683.898 652.462 687.136 651.507 689.818C650.553 692.488 649.172 694.528 647.365 695.937C645.558 697.335 643.371 698.034 640.803 698.034ZM640.803 694.284C643.348 694.284 645.325 693.057 646.735 690.602C648.144 688.148 648.848 684.648 648.848 680.102C648.848 677.079 648.524 674.506 647.877 672.381C647.24 670.256 646.32 668.636 645.115 667.523C643.922 666.409 642.485 665.852 640.803 665.852C638.28 665.852 636.308 667.096 634.888 669.585C633.468 672.062 632.757 675.568 632.757 680.102C632.757 683.125 633.075 685.693 633.712 687.807C634.348 689.92 635.263 691.528 636.456 692.631C637.661 693.733 639.11 694.284 640.803 694.284ZM670.803 698.034C668.235 698.034 666.047 697.335 664.24 695.937C662.433 694.528 661.053 692.488 660.098 689.818C659.144 687.136 658.666 683.898 658.666 680.102C658.666 676.329 659.144 673.108 660.098 670.437C661.064 667.756 662.45 665.71 664.257 664.301C666.075 662.881 668.257 662.17 670.803 662.17C673.348 662.17 675.524 662.881 677.331 664.301C679.149 665.71 680.536 667.756 681.49 670.437C682.456 673.108 682.939 676.329 682.939 680.102C682.939 683.898 682.462 687.136 681.507 689.818C680.553 692.488 679.172 694.528 677.365 695.937C675.558 697.335 673.371 698.034 670.803 698.034ZM670.803 694.284C673.348 694.284 675.325 693.057 676.735 690.602C678.144 688.148 678.848 684.648 678.848 680.102C678.848 677.079 678.524 674.506 677.877 672.381C677.24 670.256 676.32 668.636 675.115 667.523C673.922 666.409 672.485 665.852 670.803 665.852C668.28 665.852 666.308 667.096 664.888 669.585C663.468 672.062 662.757 675.568 662.757 680.102C662.757 683.125 663.075 685.693 663.712 687.807C664.348 689.92 665.263 691.528 666.456 692.631C667.661 693.733 669.11 694.284 670.803 694.284Z" fill="black"/>
<path d="M935.885 715.76H924.261V758.059H935.885V715.76Z" fill="black"/>
<path d="M438.601 1148.69H429V1158.3H438.601V1148.69Z" stroke="black" stroke-width="0.755906" stroke-miterlimit="22.9256"/>
<path d="M430.727 1002.64H414.849V1156.7H430.727V1002.64Z" fill="black"/>
<path d="M470.945 1007.4H429V1147.1H470.945V1007.4Z" fill="black" stroke="black" stroke-width="0.755906" stroke-miterlimit="22.9256"/>
</svg>
