<?xml version="1.0" encoding="UTF-8"?>
<!DOCTYPE svg PUBLIC "-//W3C//DTD SVG 1.1//EN" "http://www.w3.org/Graphics/SVG/1.1/DTD/svg11.dtd">
<!-- Creator: CorelDRAW -->
<svg xmlns="http://www.w3.org/2000/svg" xml:space="preserve" width="400mm" height="400mm" version="1.1" style="shape-rendering:geometricPrecision; text-rendering:geometricPrecision; image-rendering:optimizeQuality; fill-rule:evenodd; clip-rule:evenodd"
viewBox="0 0 40000 40000"
 xmlns:xlink="http://www.w3.org/1999/xlink"
 xmlns:xodm="http://www.corel.com/coreldraw/odm/2003">
 <defs>
  <style type="text/css">
   <![CDATA[
    .str7 {stroke:#1F1B20;stroke-width:282.22;stroke-miterlimit:22.9256}
    .str13 {stroke:#2B2A29;stroke-width:26.46;stroke-miterlimit:22.9256}
    .str2 {stroke:#1F1B20;stroke-width:26.5;stroke-miterlimit:22.9256}
    .str9 {stroke:#3A3A3A;stroke-width:26.5;stroke-miterlimit:22.9256}
    .str5 {stroke:#1F1B20;stroke-width:29.4;stroke-miterlimit:22.9256}
    .str15 {stroke:#1F1B20;stroke-width:16.9;stroke-miterlimit:22.9256}
    .str8 {stroke:#1F1B20;stroke-width:52.92;stroke-miterlimit:22.9256}
    .str1 {stroke:#1F1B20;stroke-width:25;stroke-miterlimit:22.9256}
    .str3 {stroke:#1F1B20;stroke-width:20;stroke-miterlimit:22.9256}
    .str0 {stroke:black;stroke-width:20;stroke-miterlimit:22.9256}
    .str14 {stroke:#2B2A29;stroke-width:25.4;stroke-miterlimit:22.9256}
    .str10 {stroke:#2B2A29;stroke-width:26.46;stroke-linejoin:round;stroke-miterlimit:22.9256}
    .str11 {stroke:#2B2A29;stroke-width:16.93;stroke-linejoin:round;stroke-miterlimit:22.9256}
    .str6 {stroke:#1F1B20;stroke-width:141.11;stroke-linecap:round;stroke-linejoin:round;stroke-miterlimit:22.9256}
    .str12 {stroke:#2B2A29;stroke-width:26.46;stroke-linecap:round;stroke-linejoin:round;stroke-miterlimit:22.9256}
    .str4 {stroke:black;stroke-width:26.5;stroke-linecap:round;stroke-linejoin:round;stroke-miterlimit:22.9256}
    .fil1 {fill:none}
    .fil2 {fill:black}
    .fil0 {fill:black}
    .fnt0 {font-weight:normal;font-size:846.67px;font-family:'Arial'}
   ]]>
  </style>
 </defs>
 <g id="Слой_x0020_1">
  <metadata id="CorelCorpID_0Corel-Layer"/>
  <rect class="fil0" x="2743.14" y="15291.09" width="10493.42" height="960.46"/>
  <rect class="fil0" x="2743.98" y="16229.09" width="1015.36" height="581.25"/>
  <rect class="fil0" x="2744.35" y="16751.95" width="287.87" height="154.45"/>
  <rect class="fil1 str0" x="3195.53" y="16775.43" width="550.07" height="3496.9"/>
  <rect class="fil1 str0" x="2745.95" y="16902.31" width="277.56" height="3239.31"/>
  <rect class="fil1 str0" x="3023.5" y="16941.31" width="172.02" height="3178.19"/>
  <rect class="fil0" x="2752.08" y="20086.49" width="284.63" height="195.92"/>
  <rect class="fil0" x="2752.08" y="20274.45" width="1015.36" height="5704.36"/>
  <rect class="fil0" x="2752.08" y="25513.96" width="14195.29" height="464.9"/>
  <rect class="fil0" transform="matrix(1.63265E-14 0.28673 -1 1.23187E-14 16956.7 25513.4)" width="4506.54" height="464.9"/>
  <rect class="fil0" x="16495.14" y="26340.62" width="1421.63" height="464.9"/>
  <rect class="fil1 str0" x="17911.26" y="26598.17" width="66.41" height="183.36" rx="10" ry="10"/>
  <rect class="fil1 str0" x="19852.15" y="26598.17" width="66.41" height="183.36" rx="10" ry="10"/>
  <rect class="fil0" x="19913.46" y="26340.62" width="767.42" height="464.9"/>
  <rect class="fil0" transform="matrix(1.63265E-14 0.354556 -1 1.52327E-14 20685.6 25207.7)" width="4506.54" height="464.9"/>
  <rect class="fil0" x="20267.1" y="25513.96" width="13189.92" height="464.9"/>
  <rect class="fil0" transform="matrix(7.7516E-14 1.26681 -1 1.14631E-14 33459.8 20259.7)" width="4506.54" height="464.9"/>
  <rect class="fil1 str0" x="33240.06" y="20180.65" width="192.08" height="79.07" rx="10" ry="10"/>
  <rect class="fil1 str0" x="33240.06" y="18416.67" width="192.08" height="79.07" rx="10" ry="10"/>
  <rect class="fil0" transform="matrix(7.7516E-14 0.699115 -1 6.32619E-15 33459.8 15257.6)" width="4506.54" height="464.9"/>
  <rect class="fil1 str0" transform="matrix(2.82976E-14 0.792729 -1.06846 2.09951E-14 16835.6 15295.7)" width="277.56" height="3239.31"/>
  <rect class="fil0" x="13209.42" y="15291.08" width="158.12" height="244.47"/>
  <rect class="fil1 str0" x="13236.57" y="15701.47" width="3710.8" height="550.08"/>
  <rect class="fil0" x="16835.57" y="15291.08" width="240.92" height="244.47"/>
  <rect class="fil0" x="16935.57" y="15291.09" width="11353.79" height="960.46"/>
  <rect class="fil0" x="28168.91" y="15291.08" width="240.92" height="244.47"/>
  <rect class="fil1 str0" transform="matrix(2.83928E-14 0.89822 -1.07205 2.37889E-14 31882.5 15266.4)" width="277.56" height="3239.31"/>
  <rect class="fil1 str0" x="13369.3" y="15515.72" width="3455.6" height="185.74"/>
  <rect class="fil1 str0" x="28411.21" y="15515.72" width="3466.7" height="185.74"/>
  <rect class="fil1 str0" x="28266.44" y="15701.47" width="3787.81" height="515.72"/>
  <rect class="fil0" x="32024.66" y="15259.65" width="1415.42" height="960.46"/>
  <rect class="fil0" x="31882.54" y="15261.36" width="240.92" height="244.47"/>
  <rect class="fil0" x="10534.22" y="16055.08" width="231.37" height="6596.53"/>
  <rect class="fil0" x="10624.22" y="20547.01" width="1171.68" height="454.37"/>
  <rect class="fil0" x="19905.33" y="16055.08" width="231.37" height="6395.7"/>
  <rect class="fil0" x="10701.52" y="22182.32" width="2744.6" height="268.46"/>
  <rect class="fil0" x="15323.35" y="22182.32" width="4705.34" height="268.46"/>
  <rect class="fil1 str0" x="13446.11" y="22258.7" width="96.03" height="192.08" rx="10" ry="10"/>
  <rect class="fil1 str0" x="15229.27" y="22258.7" width="96.03" height="192.08" rx="10" ry="10"/>
  <rect class="fil0" x="20029.56" y="20547.01" width="958.68" height="454.37"/>
  <rect class="fil0" x="25691.13" y="20547.01" width="1080.53" height="454.37"/>
  <rect class="fil0" x="23720.64" y="16055.08" width="231.37" height="4782.87"/>
  <rect class="fil0" x="22849.76" y="20800.56" width="1222.5" height="200.82"/>
  <rect class="fil0" x="20972.51" y="20796.2" width="224.73" height="205.18"/>
  <rect class="fil1 str0" x="21197.25" y="20800.56" width="80.88" height="200.82" rx="10" ry="10"/>
  <rect class="fil1 str0" x="22768.89" y="20800.56" width="80.88" height="200.82" rx="10" ry="10"/>
  <rect class="fil1 str0" x="24072.27" y="20800.56" width="80.88" height="200.82" rx="10" ry="10"/>
  <rect class="fil1 str0" x="25601.56" y="20800.56" width="80.88" height="200.82" rx="10" ry="10"/>
  <rect class="fil0" x="26540.28" y="16055.08" width="231.37" height="4745.48"/>
  <rect class="fil0" x="26557.46" y="20998.4" width="213.63" height="209.56"/>
  <rect class="fil1 str0" x="26560.57" y="21210.94" width="183.36" height="104.77" rx="10" ry="10"/>
  <rect class="fil1 str0" x="26560.57" y="22983.4" width="183.36" height="104.77" rx="10" ry="10"/>
  <rect class="fil0" x="26540.28" y="23088.17" width="231.37" height="2654.33"/>
  <rect class="fil0" x="10528.49" y="24540.87" width="231.37" height="1201.63"/>
  <rect class="fil1 str0" x="10556.03" y="22651.6" width="209.55" height="104.77" rx="10" ry="10"/>
  <rect class="fil1 str0" x="10556.03" y="24424.08" width="209.55" height="104.77" rx="10" ry="10"/>
  <rect class="fil0" x="33430.48" y="25732.32" width="3073.42" height="244.47"/>
  <rect class="fil0" x="33432.14" y="17758.6" width="3073.42" height="244.47"/>
  <rect class="fil0" transform="matrix(2.64845E-14 2.60944 -1 6.91098E-14 36503.5 17752.1)" width="3073.42" height="244.47"/>
  <g id="_2233885165856">
   <rect class="fil1 str1" transform="matrix(-0.000108844 0.565215 -0.586226 -0.000104942 23723.3 16235.5)" width="2611.41" height="5846.68"/>
   <path class="fil1 str2" d="M20923.79 16403.59c752.8,-30.96 1496.76,-10.68 2245.15,-16.01 261.92,-3.59 395.62,5.74 391.32,273.05 -0.04,221.23 -0.08,442.44 -0.13,663.66 2.38,187.85 -55.9,258.51 -382,244.1 -751.51,-5.6 -1503.05,5.89 -2254.57,-16.79 -596.84,-69.26 -657.29,-1044.89 0.23,-1148.01z"/>
   <circle class="fil1 str3" transform="matrix(-0.000108844 0.565215 -0.586226 -0.000104942 23329.9 16985.6)" r="121.03"/>
  </g>
  <g id="_2233885167104">
   <path class="fil1 str4" d="M23797.34 18396.07c-451.75,4.27 -873.1,-133.65 -931.35,419.38 -14.86,180.1 -8.5,351.99 16.31,528.81 100.52,452.9 489.82,310.7 921.67,318.28"/>
   <path class="fil1 str2" d="M23464.6 18466.03c59.61,-1.25 117.18,43.13 144.42,92.46 0,328.57 0,641.46 0,970.03 -10.23,46.4 -42.37,56.81 -112.09,72.53 -634.55,23.75 -499.92,-410.47 -510.98,-804.39 28.17,-285.18 232.78,-318.13 478.65,-330.63z"/>
   <circle class="fil1 str5" transform="matrix(1.81768E-14 0.686318 -0.686318 1.81768E-14 23515.7 19041.7)" r="94.44"/>
   <path class="fil1 str2" d="M23493.68 18616.08c47.6,-0.89 93.59,30.8 115.34,66.03 0,234.59 0,458 0,692.59 -8.17,33.13 -33.84,40.57 -89.52,51.79 -500.37,41.5 -405.93,-249.79 -408.11,-574.34 3.95,-212.55 194.47,-236.07 382.29,-236.07z"/>
  </g>
  <rect class="fil1 str6" transform="matrix(2.29765E-14 -0.867548 -0.867548 -2.29765E-14 26559.8 20351.6)" width="1653.93" height="1117.08"/>
  <rect class="fil1 str7" transform="matrix(2.04554E-14 -0.820507 -0.820507 -2.30061E-14 26466.2 19331.4)" width="358.8" height="967.78"/>
  <line class="fil1 str8" x1="26557.49" y1="19847.26" x2="25588.36" y2= "19847.26" />
  <line class="fil1 str8" x1="26075.27" y1="20303.57" x2="26075.27" y2= "19413.98" />
  <g id="_2233885150448">
   <line class="fil1 str9" x1="25690.95" y1="16962.7" x2="25670.54" y2= "16778.8" />
   <line class="fil1 str2" x1="25058.86" y1="16955.34" x2="25079.32" y2= "16771.49" />
   <path class="fil1 str2" d="M25986.73 16123.91c0,145.71 0.02,291.44 0.02,437.14 0.31,108.67 -55.99,187.28 -194.1,219.61 -245.74,-1.71 -491.5,-3.42 -737.24,-5.14 -192.29,10.04 -272.25,-73.25 -284.14,-214.47l0 -444.06"/>
   <path class="fil1 str2" d="M24917.5 17330.13c-23.76,-145.14 9.01,-271.02 127.68,-367.69 47.98,-18.3 95.08,-32.64 141.29,-43.15 179.82,-40.88 346.63,-23.88 502.19,43.17 104.59,85.94 153.4,198.08 140.23,339.37 -20.56,210.97 -96.61,415.77 -262.82,610.5 -116.15,118.12 -247.57,127.8 -398.32,0 -136.46,-169.57 -217.6,-364.69 -250.25,-582.2z"/>
  </g>
  <g id="_2233885149200">
   <rect class="fil1 str10" transform="matrix(1.73493E-14 0.655071 -0.655071 1.73493E-14 32705.4 20778.8)" width="2892.48" height="2792.74"/>
   <circle class="fil1 str11" transform="matrix(1.73493E-14 0.655071 -0.655071 1.73493E-14 32301 22238.5)" r="366.75"/>
   <rect class="fil2" transform="matrix(1.73493E-14 0.655071 -0.655071 1.73493E-14 32605.3 22237.8)" width="27.51" height="935.03"/>
   <rect class="fil2" x="32290.07" y="21940.55" width="18.02" height="612.51"/>
   <circle class="fil1 str11" transform="matrix(1.73493E-14 0.655071 -0.655071 1.73493E-14 32303.9 21284.9)" r="366.75"/>
   <rect class="fil2" transform="matrix(1.73493E-14 0.655071 -0.655071 1.73493E-14 32608.3 21284.2)" width="27.51" height="935.03"/>
   <rect class="fil2" x="32293.02" y="20986.96" width="18.02" height="612.51"/>
   <circle class="fil1 str11" transform="matrix(1.73493E-14 0.655071 -0.655071 1.73493E-14 31338.5 21290.8)" r="366.75"/>
   <rect class="fil2" transform="matrix(1.73493E-14 0.655071 -0.655071 1.73493E-14 31642.9 21290.1)" width="27.51" height="935.03"/>
   <rect class="fil2" x="31327.57" y="20992.86" width="18.02" height="612.51"/>
   <circle class="fil1 str11" transform="matrix(1.73493E-14 0.655071 -0.655071 1.73493E-14 31354.2 22242.5)" r="366.75"/>
   <rect class="fil2" transform="matrix(1.73493E-14 0.655071 -0.655071 1.73493E-14 31658.5 22241.8)" width="27.51" height="935.03"/>
   <rect class="fil2" x="31343.23" y="21944.61" width="18.02" height="612.51"/>
  </g>
  <g id="_2233885150112">
   <path class="fil1 str12" d="M32746.19 23492.13l0 1671.92c0.01,62.29 -50.5,112.79 -112.77,112.79l-1693.86 0c-62.27,0 -112.77,-50.5 -112.77,-112.78l-0.01 -1671.93c0.01,-62.27 50.51,-112.77 112.79,-112.77l1693.84 -0.01c62.28,0.01 112.79,50.51 112.79,112.79z"/>
   <rect class="fil1 str12" transform="matrix(1.73766E-14 0.656104 -0.656104 1.73766E-14 32417.1 23554.8)" width="2373.81" height="2106.33"/>
   <circle class="fil1 str13" transform="matrix(1.73766E-14 0.656104 -0.656104 1.73766E-14 32132 24695.5)" r="183.89"/>
  </g>
  <text x="34118.53" y="21577.02"  class="fil2 fnt0">3.80</text>
  <text x="27496.51" y="17764.21"  class="fil2 fnt0">13.70</text>
  <text x="21072.39" y="19167.05"  class="fil2 fnt0">3.80</text>
  <text x="24191.19" y="18781.18"  class="fil2 fnt0">2.50</text>
  <text x="14312.97" y="19501.56"  class="fil2 fnt0">12.80</text>
  <text x="17643.52" y="24335.6"  class="fil2 fnt0">13.90</text>
  <text x="4563.4" y="17992.97"  class="fil2 fnt0">14.90</text>
  <path class="fil1 str14" d="M22768.88 20991.38c11.84,-847.89 -703.23,-1451.54 -1472.14,-1634.76 0,507.46 -10.05,1132.14 -10.05,1639.6"/>
  <path class="fil1 str14" d="M25611.56 21001.38c11.84,-847.89 -664.6,-1461.54 -1433.51,-1644.76 0,507.46 -10.05,1132.14 -10.05,1639.6"/>
  <path class="fil1 str14" d="M26557.2 21321.95c973.07,-13.58 1677.31,762.72 1887.58,1645.15 -582.38,0 -1299.28,11.53 -1881.66,11.53"/>
  <path class="fil1 str14" d="M33239.77 18523.18c973.07,-13.58 1677.31,762.72 1887.58,1645.15 -582.38,0 -1299.28,11.53 -1881.66,11.53"/>
  <path class="fil1 str14" d="M17977.69 26608.16c-13.72,982.47 957.97,1710.18 1848.92,1922.48 0,-588.01 11.65,-1311.84 11.65,-1899.84"/>
  <path class="fil1 str14" d="M13539.71 22397.19c-13.63,-976.13 809.59,-1671.08 1694.79,-1882.01 0,584.21 -5.22,1303.37 -5.22,1887.58"/>
  <path class="fil1 str14" d="M10765.59 24434.08c-976.13,13.63 -1700.48,-791.09 -1911.41,-1676.29 584.21,0 1303.37,5.22 1887.58,5.22"/>
  <g id="_2233885142720">
   <rect class="fil1 str15" x="36476.12" y="17768.8" width="1643.21" height="3826.1"/>
   <line class="fil1 str15" x1="38121.97" y1="21599.89" x2="36478.76" y2= "17773.79" />
   <line class="fil1 str15" x1="36476.11" y1="21594.88" x2="38078.99" y2= "17798.57" />
  </g>
 </g>
</svg>
