<svg width="1512" height="1512" viewBox="0 0 1512 1512" fill="none" xmlns="http://www.w3.org/2000/svg">
<path d="M1349.38 1047.25L1349.38 897.893L1315.39 897.893L1315.39 1047.25L1349.38 1047.25Z" fill="black"/>
<path d="M1325.56 1047.23L1325.56 1017.66L703.616 1017.66L703.616 1047.23L1325.56 1047.23Z" fill="black"/>
<path d="M718.923 1017.56H351.372V1047.16H718.923V1017.56Z" fill="black"/>
<path d="M1346.04 381.939L1346.04 352.666L286.809 352.666L286.809 381.939L1346.04 381.939Z" fill="black"/>
<path d="M1349.38 803.223L1349.38 352L1315.39 352L1315.39 803.223L1349.38 803.223Z" fill="black"/>
<path d="M1335.8 509.143L1346.04 509.15C1346.86 509.15 1347.52 508.485 1347.52 507.665L1347.53 503.087C1347.53 502.266 1346.86 501.6 1346.04 501.6L1335.8 501.593C1334.98 501.593 1334.31 502.258 1334.31 503.078L1334.31 507.656C1334.31 508.477 1334.98 509.143 1335.8 509.143Z" stroke="black" stroke-width="2.74182" stroke-miterlimit="22.9256"/>
<path d="M1335.28 649.249L1345.52 649.256C1346.34 649.256 1347.01 648.591 1347.01 647.771L1347.01 643.193C1347.01 642.372 1346.35 641.706 1345.53 641.706L1335.29 641.699C1334.46 641.699 1333.8 642.364 1333.8 643.184L1333.8 647.762C1333.79 648.583 1334.46 649.249 1335.28 649.249Z" stroke="black" stroke-width="2.74182" stroke-miterlimit="22.9256"/>
<path d="M1318.35 664.718L1318.35 649.617L1193.52 649.617L1193.52 664.718L1318.35 664.718Z" fill="black"/>
<path d="M1074.05 664.981L1074.05 649.88L549.953 649.88L549.953 664.981L1074.05 664.981Z" fill="black"/>
<path d="M918.554 659.334L918.554 372.224L900.707 372.224L900.707 659.334L918.554 659.334Z" fill="black"/>
<path d="M445.253 667.21L445.253 652.109L350.848 652.109L350.848 667.21L445.253 667.21Z" fill="black"/>
<path d="M646.336 648.273L646.336 642.437C646.336 641.617 645.671 640.951 644.85 640.951L512.546 640.951C511.725 640.951 511.059 641.617 511.059 642.437L511.059 648.273C511.059 649.094 511.725 649.759 512.546 649.759L644.85 649.759C645.671 649.759 646.336 649.094 646.336 648.273Z" stroke="black" stroke-width="2.74182" stroke-miterlimit="22.9256"/>
<path d="M356.196 547.816L356.196 352.666L286.809 352.666L286.809 547.816L356.196 547.816Z" fill="black"/>
<path d="M305.64 553.344L305.64 530.192L286.354 530.192L286.354 553.344L305.64 553.344Z" fill="black"/>
<path d="M307.61 654.572L307.61 643.421L288.885 643.421L288.885 654.572L307.61 654.572Z" fill="black"/>
<path d="M356.596 771.828L356.596 652.08L289.078 652.08L289.078 771.828L356.596 771.828Z" fill="black"/>
<path d="M307.482 784.478L307.482 769.81L288.928 769.81L288.928 784.478L307.482 784.478Z" fill="black"/>
<path d="M356.596 1047.59L356.596 943.774L288.967 943.774L288.967 1047.59L356.596 1047.59Z" fill="black"/>
<path d="M307.302 947.793L307.302 933.125L288.989 933.125L288.989 947.793L307.302 947.793Z" fill="black"/>
<path d="M341.886 648.634L341.886 644.056C341.886 643.235 341.22 642.57 340.399 642.57L330.159 642.57C329.338 642.57 328.672 643.235 328.672 644.056L328.672 648.634C328.672 649.455 329.338 650.12 330.159 650.12L340.399 650.12C341.22 650.12 341.886 649.455 341.886 648.634Z" stroke="black" stroke-width="2.74182" stroke-miterlimit="22.9256"/>
<path d="M343.111 554.068L343.111 549.491C343.111 548.67 342.445 548.004 341.625 548.004L331.384 548.004C330.563 548.004 329.898 548.67 329.898 549.491L329.898 554.068C329.898 554.889 330.563 555.555 331.384 555.555L341.625 555.555C342.445 555.555 343.111 554.889 343.111 554.068Z" stroke="black" stroke-width="2.74182" stroke-miterlimit="22.9256"/>
<path d="M286.537 434.397L286.537 419.218L108.733 419.218L108.733 434.397L286.537 434.397Z" fill="black"/>
<path d="M126.08 975.396L126.08 431.144L108.733 431.144L108.733 975.396L126.08 975.396Z" fill="black"/>
<path d="M294.387 975.319L294.387 960.218L116.322 960.218L116.322 975.319L294.387 975.319Z" fill="black"/>
<path d="M1347.88 803.223H1337.64C1336.82 803.223 1336.15 803.888 1336.15 804.709V809.287C1336.15 810.108 1336.82 810.773 1337.64 810.773H1347.88C1348.7 810.773 1349.37 810.108 1349.37 809.287V804.709C1349.37 803.888 1348.7 803.223 1347.88 803.223Z" stroke="black" stroke-width="0.755906" stroke-miterlimit="22.9256"/>
<path d="M1347.22 889.447H1336.98C1336.16 889.447 1335.49 890.113 1335.49 890.934V895.511C1335.49 896.332 1336.16 896.998 1336.98 896.998H1347.22C1348.04 896.998 1348.7 896.332 1348.7 895.511V890.934C1348.7 890.113 1348.04 889.447 1347.22 889.447Z" stroke="black" stroke-width="0.755906" stroke-miterlimit="22.9256"/>
<path d="M355.997 771.798H318.788V945.703H355.997V771.798Z" stroke="black" stroke-width="0.755906" stroke-miterlimit="22.9256"/>
<path d="M318.788 783.786H306.832V933.846H318.788V783.786Z" stroke="black" stroke-width="0.755906" stroke-miterlimit="22.9256"/>
<path d="M307.137 784.479H289.52V933.124H307.137V784.479Z" stroke="black" stroke-width="0.755906" stroke-miterlimit="22.9256"/>
<path d="M114.627 425.723H22L23.6957 636.051H116.322L114.627 425.723Z" stroke="black" stroke-width="0.639874" stroke-miterlimit="22.9256"/>
<path d="M110.832 632.563L22 425.723" stroke="black" stroke-width="0.639874" stroke-miterlimit="22.9256"/>
<path d="M24.7104 635.509L113.07 428.976" stroke="black" stroke-width="0.639874" stroke-miterlimit="22.9256"/>
<path d="M1342.76 810.774C1424.38 809.752 1454.58 829.286 1490.73 888.895C1441.88 888.895 1393.03 888.895 1344.18 888.895" stroke="black" stroke-width="0.96" stroke-miterlimit="22.9256"/>
<path d="M330.157 641.497C411.78 642.703 443.144 626.014 479.295 555.73C430.442 555.73 381.592 555.73 332.741 555.73" stroke="black" stroke-width="0.96" stroke-miterlimit="22.9256"/>
<path d="M1034.53 378.233H922.179V629.778H1034.53V378.233Z" stroke="black" stroke-width="1.00006" stroke-miterlimit="22.9256"/>
<path fill-rule="evenodd" clip-rule="evenodd" d="M935.011 583.688C932.644 528.439 934.178 473.84 933.762 418.915C933.485 399.693 934.194 389.88 954.541 390.192C971.381 390.192 988.219 390.192 1005.06 390.192C1019.36 390.015 1024.74 394.291 1023.64 418.224C1023.23 473.378 1024.11 528.534 1022.4 583.688C1017.13 627.492 942.87 631.943 935.011 583.688Z" stroke="black" stroke-width="1.00006" stroke-miterlimit="22.9256"/>
<path d="M979.28 412.303C982.155 412.303 984.487 409.972 984.487 407.096C984.487 404.22 982.155 401.889 979.28 401.889C976.404 401.889 974.072 404.22 974.072 407.096C974.072 409.972 976.404 412.303 979.28 412.303Z" stroke="black" stroke-width="0.755906" stroke-miterlimit="22.9256"/>
<path fill-rule="evenodd" clip-rule="evenodd" d="M1063.7 394.92C1063.6 390.408 1066.96 386.05 1070.7 383.988C1095.57 383.988 1119.25 383.988 1144.12 383.988C1147.63 384.763 1148.42 387.195 1149.61 392.473C1152.89 440.65 1124.75 430.932 1088.72 431.148C1067.14 429.016 1064.65 413.529 1063.7 394.92Z" stroke="black" stroke-width="1.00006" stroke-miterlimit="22.9256"/>
<path d="M1107.27 395.955C1109.98 395.955 1112.18 393.759 1112.18 391.05C1112.18 388.34 1109.98 386.144 1107.27 386.144C1104.56 386.144 1102.37 388.34 1102.37 391.05C1102.37 393.759 1104.56 395.955 1107.27 395.955Z" stroke="black" stroke-width="1.11118" stroke-miterlimit="22.9256"/>
<path fill-rule="evenodd" clip-rule="evenodd" d="M1075.06 392.719C1074.99 389.116 1077.39 385.634 1080.05 383.988C1097.81 383.988 1114.72 383.988 1132.48 383.988C1134.98 384.607 1135.55 386.55 1136.4 390.764C1139.54 428.637 1117.49 421.488 1092.92 421.654C1076.84 421.355 1075.06 406.934 1075.06 392.719Z" stroke="black" stroke-width="1.00006" stroke-miterlimit="22.9256"/>
<path d="M1203.26 439.308L1205 423.565" stroke="black" stroke-width="1.00006" stroke-miterlimit="22.9256"/>
<path d="M1257.37 438.678L1255.62 422.939" stroke="black" stroke-width="1.00006" stroke-miterlimit="22.9256"/>
<path fill-rule="evenodd" clip-rule="evenodd" d="M1269.47 470.764C1271.51 458.338 1268.7 447.562 1258.54 439.286C1238.46 431.626 1220.19 432.073 1203.45 439.288C1194.5 446.645 1190.32 456.245 1191.45 468.341C1193.21 486.402 1199.72 503.934 1213.95 520.604C1223.89 530.717 1235.14 531.546 1248.05 520.604C1259.73 506.088 1266.68 489.385 1269.47 470.764Z" stroke="black" stroke-width="1.00006" stroke-miterlimit="22.9256"/>
<path fill-rule="evenodd" clip-rule="evenodd" d="M1234.47 644.102V630.655V580.776V567.402H1304.38V644.102H1234.47Z" stroke="black" stroke-width="0.755906" stroke-miterlimit="22.9256"/>
<path d="M1227.87 580.774L1227.87 630.653L1234.47 630.653L1234.47 580.774L1227.87 580.774Z" stroke="black" stroke-width="2.23356" stroke-miterlimit="22.9256"/>
<path d="M1176.28 367.404C1176.28 379.878 1176.27 392.353 1176.27 404.827C1176.25 414.13 1181.07 420.859 1192.89 423.627C1213.93 423.481 1234.97 423.334 1256.01 423.187C1272.47 424.046 1279.31 416.917 1280.33 404.827V366.811" stroke="black" stroke-width="1.00006" stroke-miterlimit="22.9256"/>
<path d="M1059.39 376.226C1059.71 410.419 1049.27 442.31 1091.13 446.719C1104.76 447.844 1117.77 447.363 1131.16 445.484C1165.44 437.877 1154.67 408.411 1155.25 375.724" stroke="black" stroke-width="1.00006" stroke-miterlimit="22.9256" stroke-linecap="round" stroke-linejoin="round"/>
<path fill-rule="evenodd" clip-rule="evenodd" d="M510.125 397.556H578.847C581.407 397.556 583.483 399.632 583.483 402.191L583.482 471.814C583.483 474.374 581.407 476.45 578.847 476.45H510.125C507.566 476.45 505.49 474.374 505.49 471.814L505.49 402.192C505.49 399.632 507.566 397.556 510.126 397.556L510.125 397.556Z" stroke="black" stroke-width="1.00006" stroke-miterlimit="22.9256" stroke-linecap="round" stroke-linejoin="round"/>
<path d="M576.495 408.601H512.478V465.405H576.495V408.601Z" stroke="black" stroke-width="1.00006" stroke-miterlimit="22.9256" stroke-linecap="round" stroke-linejoin="round"/>
<path d="M559.364 425.28C562.102 425.28 564.323 423.06 564.323 420.321C564.323 417.582 562.102 415.362 559.364 415.362C556.625 415.362 554.405 417.582 554.405 420.321C554.405 423.06 556.625 425.28 559.364 425.28Z" stroke="black" stroke-width="1.00006" stroke-miterlimit="22.9256"/>
<path d="M409.734 399.909L409.734 476.628L483.807 476.628L483.807 399.909L409.734 399.909Z" stroke="black" stroke-width="0.647327" stroke-miterlimit="22.9256" stroke-linejoin="round"/>
<path d="M435.525 418.941C435.525 413.569 431.169 409.214 425.797 409.214C420.425 409.214 416.07 413.569 416.07 418.941C416.07 424.314 420.425 428.669 425.797 428.669C431.169 428.669 435.525 424.314 435.525 418.941Z" stroke="black" stroke-width="0.414182" stroke-miterlimit="22.9256" stroke-linejoin="round"/>
<path d="M413.996 418.477V419.207L438.796 419.207V418.477L413.996 418.477Z" fill="black"/>
<path d="M426.658 406.843H425.928V431.643H426.658V406.843Z" fill="black"/>
<path d="M435.717 456.14C435.717 450.767 431.362 446.412 425.99 446.412C420.617 446.412 416.262 450.767 416.262 456.14C416.262 461.512 420.617 465.867 425.99 465.867C431.362 465.867 435.717 461.512 435.717 456.14Z" stroke="black" stroke-width="0.414182" stroke-miterlimit="22.9256" stroke-linejoin="round"/>
<path d="M413.668 455.438V456.168L438.468 456.168V455.438L413.668 455.438Z" fill="black"/>
<path d="M426.434 443.987H425.704V468.787H426.434V443.987Z" fill="black"/>
<path d="M474.808 455.898C474.808 450.525 470.453 446.17 465.081 446.17C459.709 446.17 455.354 450.525 455.354 455.898C455.354 461.27 459.709 465.625 465.081 465.625C470.453 465.625 474.808 461.27 474.808 455.898Z" stroke="black" stroke-width="0.414182" stroke-miterlimit="22.9256" stroke-linejoin="round"/>
<path d="M452.759 455.197V455.926L477.56 455.926V455.197L452.759 455.197Z" fill="black"/>
<path d="M465.524 443.163H464.794V467.963H465.524V443.163Z" fill="black"/>
<path d="M474.173 418.941C474.173 413.569 469.818 409.214 464.446 409.214C459.074 409.214 454.718 413.569 454.718 418.941C454.718 424.314 459.074 428.669 464.446 428.669C469.818 428.669 474.173 424.314 474.173 418.941Z" stroke="black" stroke-width="0.414182" stroke-miterlimit="22.9256" stroke-linejoin="round"/>
<path d="M452.202 418.457V419.187L477.002 419.187V418.457L452.202 418.457Z" fill="black"/>
<path d="M464.89 407.09H464.16V431.89H464.89V407.09Z" fill="black"/>
<path d="M1082.82 537.853V534.376L1098.16 510.103H1100.68V515.489H1098.98L1087.39 533.83V534.103H1108.05V537.853H1082.82ZM1099.25 545.012V536.796V535.177V510.103H1103.28V545.012H1099.25ZM1115.8 545.285C1114.95 545.285 1114.23 544.984 1113.63 544.382C1113.03 543.779 1112.73 543.058 1112.73 542.217C1112.73 541.376 1113.03 540.654 1113.63 540.052C1114.23 539.45 1114.95 539.149 1115.8 539.149C1116.64 539.149 1117.36 539.45 1117.96 540.052C1118.56 540.654 1118.86 541.376 1118.86 542.217C1118.86 542.774 1118.72 543.285 1118.44 543.751C1118.16 544.217 1117.8 544.592 1117.33 544.876C1116.88 545.149 1116.36 545.285 1115.8 545.285ZM1136.22 545.489C1134.22 545.489 1132.42 545.092 1130.82 544.296C1129.21 543.501 1127.93 542.41 1126.96 541.024C1126 539.637 1125.47 538.058 1125.38 536.285H1129.47C1129.63 537.864 1130.35 539.171 1131.62 540.205C1132.9 541.228 1134.44 541.739 1136.22 541.739C1137.65 541.739 1138.92 541.404 1140.04 540.734C1141.16 540.063 1142.04 539.143 1142.68 537.972C1143.33 536.791 1143.65 535.455 1143.65 533.967C1143.65 532.444 1143.32 531.086 1142.65 529.893C1141.99 528.688 1141.08 527.739 1139.92 527.046C1138.76 526.353 1137.44 526.001 1135.95 525.989C1134.88 525.978 1133.78 526.143 1132.66 526.484C1131.53 526.813 1130.61 527.239 1129.88 527.762L1125.92 527.285L1128.04 510.103H1146.17V513.853H1131.58L1130.36 524.149H1130.56C1131.28 523.58 1132.17 523.109 1133.25 522.734C1134.33 522.359 1135.46 522.171 1136.63 522.171C1138.77 522.171 1140.67 522.683 1142.34 523.705C1144.02 524.717 1145.34 526.103 1146.29 527.864C1147.26 529.626 1147.74 531.637 1147.74 533.899C1147.74 536.126 1147.24 538.114 1146.24 539.864C1145.25 541.603 1143.89 542.978 1142.15 543.989C1140.41 544.989 1138.44 545.489 1136.22 545.489ZM1165.9 545.489C1163.33 545.489 1161.14 544.791 1159.34 543.393C1157.53 541.984 1156.15 539.944 1155.2 537.274C1154.24 534.592 1153.76 531.353 1153.76 527.558C1153.76 523.785 1154.24 520.563 1155.2 517.893C1156.16 515.211 1157.55 513.166 1159.36 511.757C1161.17 510.336 1163.36 509.626 1165.9 509.626C1168.45 509.626 1170.62 510.336 1172.43 511.757C1174.25 513.166 1175.63 515.211 1176.59 517.893C1177.55 520.563 1178.04 523.785 1178.04 527.558C1178.04 531.353 1177.56 534.592 1176.61 537.274C1175.65 539.944 1174.27 541.984 1172.46 543.393C1170.66 544.791 1168.47 545.489 1165.9 545.489ZM1165.9 541.739C1168.45 541.739 1170.42 540.512 1171.83 538.058C1173.24 535.603 1173.95 532.103 1173.95 527.558C1173.95 524.535 1173.62 521.961 1172.97 519.836C1172.34 517.711 1171.42 516.092 1170.21 514.978C1169.02 513.864 1167.58 513.308 1165.9 513.308C1163.38 513.308 1161.41 514.552 1159.99 517.041C1158.57 519.518 1157.86 523.024 1157.86 527.558C1157.86 530.58 1158.17 533.149 1158.81 535.262C1159.45 537.376 1160.36 538.984 1161.55 540.086C1162.76 541.188 1164.21 541.739 1165.9 541.739Z" fill="black"/>
<path d="M785.655 454.02C784.223 453.998 782.791 453.725 781.36 453.202C779.928 452.679 778.621 451.799 777.439 450.56C776.257 449.31 775.309 447.623 774.593 445.498C773.877 443.361 773.519 440.679 773.519 437.452C773.519 434.361 773.809 431.623 774.388 429.236C774.968 426.838 775.809 424.821 776.911 423.185C778.013 421.537 779.343 420.287 780.899 419.435C782.468 418.583 784.235 418.157 786.201 418.157C788.155 418.157 789.894 418.549 791.416 419.333C792.951 420.105 794.201 421.185 795.166 422.571C796.132 423.958 796.757 425.554 797.041 427.361H792.882C792.496 425.793 791.746 424.492 790.632 423.458C789.519 422.424 788.041 421.907 786.201 421.907C783.496 421.907 781.365 423.083 779.809 425.435C778.263 427.787 777.485 431.088 777.473 435.338H777.746C778.382 434.373 779.138 433.549 780.013 432.867C780.899 432.174 781.877 431.64 782.945 431.265C784.013 430.89 785.144 430.702 786.337 430.702C788.337 430.702 790.166 431.202 791.826 432.202C793.485 433.191 794.814 434.56 795.814 436.31C796.814 438.049 797.314 440.043 797.314 442.293C797.314 444.452 796.831 446.429 795.865 448.225C794.899 450.009 793.541 451.429 791.791 452.486C790.053 453.532 788.007 454.043 785.655 454.02ZM785.655 450.27C787.087 450.27 788.371 449.912 789.507 449.196C790.655 448.48 791.559 447.52 792.218 446.316C792.888 445.111 793.223 443.77 793.223 442.293C793.223 440.85 792.899 439.537 792.252 438.355C791.615 437.162 790.735 436.213 789.61 435.509C788.496 434.804 787.223 434.452 785.791 434.452C784.712 434.452 783.706 434.668 782.774 435.1C781.843 435.52 781.024 436.1 780.32 436.838C779.627 437.577 779.081 438.424 778.684 439.378C778.286 440.321 778.087 441.316 778.087 442.361C778.087 443.748 778.411 445.043 779.059 446.248C779.718 447.452 780.615 448.424 781.752 449.162C782.899 449.901 784.201 450.27 785.655 450.27ZM805.377 453.816C804.536 453.816 803.814 453.515 803.212 452.912C802.61 452.31 802.309 451.588 802.309 450.748C802.309 449.907 802.61 449.185 803.212 448.583C803.814 447.98 804.536 447.679 805.377 447.679C806.218 447.679 806.939 447.98 807.541 448.583C808.144 449.185 808.445 449.907 808.445 450.748C808.445 451.304 808.303 451.816 808.019 452.282C807.746 452.748 807.377 453.123 806.911 453.407C806.456 453.679 805.945 453.816 805.377 453.816ZM825.699 454.02C823.358 454.02 821.29 453.605 819.495 452.776C817.711 451.935 816.318 450.782 815.318 449.316C814.318 447.838 813.824 446.157 813.836 444.27C813.824 442.793 814.114 441.429 814.705 440.179C815.296 438.918 816.103 437.867 817.125 437.026C818.159 436.174 819.313 435.634 820.586 435.407V435.202C818.915 434.77 817.586 433.833 816.597 432.39C815.608 430.935 815.12 429.282 815.131 427.429C815.12 425.657 815.568 424.071 816.478 422.674C817.387 421.276 818.637 420.174 820.228 419.367C821.83 418.56 823.654 418.157 825.699 418.157C827.722 418.157 829.529 418.56 831.12 419.367C832.711 420.174 833.961 421.276 834.87 422.674C835.79 424.071 836.256 425.657 836.267 427.429C836.256 429.282 835.75 430.935 834.75 432.39C833.762 433.833 832.449 434.77 830.813 435.202V435.407C832.074 435.634 833.211 436.174 834.222 437.026C835.233 437.867 836.04 438.918 836.642 440.179C837.245 441.429 837.551 442.793 837.563 444.27C837.551 446.157 837.04 447.838 836.029 449.316C835.029 450.782 833.637 451.935 831.853 452.776C830.08 453.605 828.029 454.02 825.699 454.02ZM825.699 450.27C827.279 450.27 828.642 450.015 829.79 449.503C830.938 448.992 831.824 448.27 832.449 447.338C833.074 446.407 833.392 445.316 833.404 444.066C833.392 442.748 833.051 441.583 832.381 440.571C831.711 439.56 830.796 438.765 829.637 438.185C828.489 437.605 827.176 437.316 825.699 437.316C824.211 437.316 822.881 437.605 821.711 438.185C820.551 438.765 819.637 439.56 818.966 440.571C818.307 441.583 817.983 442.748 817.995 444.066C817.983 445.316 818.284 446.407 818.898 447.338C819.523 448.27 820.415 448.992 821.574 449.503C822.733 450.015 824.108 450.27 825.699 450.27ZM825.699 433.702C826.949 433.702 828.057 433.452 829.023 432.952C830 432.452 830.767 431.753 831.324 430.855C831.881 429.958 832.165 428.907 832.176 427.702C832.165 426.52 831.887 425.492 831.341 424.617C830.796 423.73 830.04 423.049 829.074 422.571C828.108 422.083 826.983 421.838 825.699 421.838C824.392 421.838 823.25 422.083 822.273 422.571C821.296 423.049 820.54 423.73 820.006 424.617C819.472 425.492 819.211 426.52 819.222 427.702C819.211 428.907 819.478 429.958 820.023 430.855C820.58 431.753 821.347 432.452 822.324 432.952C823.301 433.452 824.426 433.702 825.699 433.702ZM855.482 454.02C852.914 454.02 850.726 453.321 848.919 451.924C847.112 450.515 845.732 448.475 844.777 445.804C843.823 443.123 843.345 439.884 843.345 436.088C843.345 432.316 843.823 429.094 844.777 426.424C845.743 423.742 847.13 421.696 848.936 420.287C850.755 418.867 852.936 418.157 855.482 418.157C858.027 418.157 860.203 418.867 862.01 420.287C863.828 421.696 865.215 423.742 866.169 426.424C867.135 429.094 867.618 432.316 867.618 436.088C867.618 439.884 867.141 443.123 866.186 445.804C865.232 448.475 863.851 450.515 862.044 451.924C860.237 453.321 858.05 454.02 855.482 454.02ZM855.482 450.27C858.027 450.27 860.005 449.043 861.414 446.588C862.823 444.134 863.527 440.634 863.527 436.088C863.527 433.066 863.203 430.492 862.556 428.367C861.919 426.242 860.999 424.623 859.794 423.509C858.601 422.395 857.164 421.838 855.482 421.838C852.959 421.838 850.987 423.083 849.567 425.571C848.147 428.049 847.436 431.554 847.436 436.088C847.436 439.111 847.755 441.679 848.391 443.793C849.027 445.907 849.942 447.515 851.135 448.617C852.34 449.719 853.789 450.27 855.482 450.27Z" fill="black"/>
<path d="M1133.44 927.103V962.012H1129.21V931.535H1129L1120.48 937.194V932.899L1129.21 927.103H1133.44ZM1154.38 962.489C1152.38 962.489 1150.58 962.092 1148.98 961.296C1147.38 960.501 1146.09 959.41 1145.13 958.024C1144.16 956.637 1143.63 955.058 1143.54 953.285H1147.63C1147.79 954.864 1148.51 956.171 1149.78 957.205C1151.07 958.228 1152.6 958.739 1154.38 958.739C1155.82 958.739 1157.09 958.404 1158.2 957.734C1159.33 957.063 1160.21 956.143 1160.84 954.972C1161.49 953.791 1161.82 952.455 1161.82 950.967C1161.82 949.444 1161.48 948.086 1160.81 946.893C1160.15 945.688 1159.24 944.739 1158.08 944.046C1156.92 943.353 1155.6 943.001 1154.11 942.989C1153.04 942.978 1151.95 943.143 1150.82 943.484C1149.7 943.813 1148.77 944.239 1148.04 944.762L1144.09 944.285L1146.2 927.103H1164.34V930.853H1149.75L1148.52 941.149H1148.73C1149.44 940.58 1150.34 940.109 1151.42 939.734C1152.5 939.359 1153.62 939.171 1154.79 939.171C1156.93 939.171 1158.83 939.683 1160.5 940.705C1162.19 941.717 1163.5 943.103 1164.46 944.864C1165.42 946.626 1165.91 948.637 1165.91 950.899C1165.91 953.126 1165.41 955.114 1164.41 956.864C1163.42 958.603 1162.05 959.978 1160.32 960.989C1158.58 961.989 1156.6 962.489 1154.38 962.489ZM1174.37 962.285C1173.52 962.285 1172.8 961.984 1172.2 961.382C1171.6 960.779 1171.3 960.058 1171.3 959.217C1171.3 958.376 1171.6 957.654 1172.2 957.052C1172.8 956.45 1173.52 956.149 1174.37 956.149C1175.21 956.149 1175.93 956.45 1176.53 957.052C1177.13 957.654 1177.43 958.376 1177.43 959.217C1177.43 959.774 1177.29 960.285 1177.01 960.751C1176.74 961.217 1176.37 961.592 1175.9 961.876C1175.45 962.149 1174.93 962.285 1174.37 962.285ZM1184.58 962.012V958.944L1196.11 946.33C1197.46 944.853 1198.57 943.569 1199.45 942.478C1200.32 941.376 1200.97 940.342 1201.39 939.376C1201.82 938.399 1202.04 937.376 1202.04 936.308C1202.04 935.08 1201.74 934.018 1201.15 933.12C1200.57 932.222 1199.78 931.529 1198.77 931.041C1197.75 930.552 1196.62 930.308 1195.36 930.308C1194.02 930.308 1192.85 930.586 1191.85 931.143C1190.86 931.688 1190.09 932.455 1189.54 933.444C1189.01 934.433 1188.74 935.592 1188.74 936.921H1184.72C1184.72 934.876 1185.19 933.08 1186.14 931.535C1187.08 929.989 1188.36 928.785 1189.99 927.921C1191.62 927.058 1193.46 926.626 1195.49 926.626C1197.54 926.626 1199.35 927.058 1200.93 927.921C1202.51 928.785 1203.75 929.95 1204.65 931.416C1205.54 932.882 1205.99 934.512 1205.99 936.308C1205.99 937.592 1205.76 938.847 1205.29 940.075C1204.84 941.291 1204.04 942.649 1202.91 944.149C1201.78 945.637 1200.22 947.455 1198.22 949.603L1190.38 957.989V958.262H1206.61V962.012H1184.58ZM1225.03 962.489C1222.47 962.489 1220.28 961.791 1218.47 960.393C1216.66 958.984 1215.28 956.944 1214.33 954.274C1213.37 951.592 1212.9 948.353 1212.9 944.558C1212.9 940.785 1213.37 937.563 1214.33 934.893C1215.29 932.211 1216.68 930.166 1218.49 928.757C1220.31 927.336 1222.49 926.626 1225.03 926.626C1227.58 926.626 1229.75 927.336 1231.56 928.757C1233.38 930.166 1234.77 932.211 1235.72 934.893C1236.69 937.563 1237.17 940.785 1237.17 944.558C1237.17 948.353 1236.69 951.592 1235.74 954.274C1234.78 956.944 1233.4 958.984 1231.6 960.393C1229.79 961.791 1227.6 962.489 1225.03 962.489ZM1225.03 958.739C1227.58 958.739 1229.56 957.512 1230.97 955.058C1232.37 952.603 1233.08 949.103 1233.08 944.558C1233.08 941.535 1232.75 938.961 1232.11 936.836C1231.47 934.711 1230.55 933.092 1229.35 931.978C1228.15 930.864 1226.72 930.308 1225.03 930.308C1222.51 930.308 1220.54 931.552 1219.12 934.041C1217.7 936.518 1216.99 940.024 1216.99 944.558C1216.99 947.58 1217.31 950.149 1217.94 952.262C1218.58 954.376 1219.49 955.984 1220.69 957.086C1221.89 958.188 1223.34 958.739 1225.03 958.739Z" fill="black"/>
<path d="M154.895 704.165V700.688L170.236 676.415H172.759V681.801H171.055L159.464 700.142V700.415H180.123V704.165H154.895ZM171.327 711.324V703.108V701.489V676.415H175.35V711.324H171.327ZM187.87 711.597C187.029 711.597 186.307 711.296 185.705 710.694C185.103 710.091 184.802 709.37 184.802 708.529C184.802 707.688 185.103 706.966 185.705 706.364C186.307 705.762 187.029 705.461 187.87 705.461C188.711 705.461 189.432 705.762 190.035 706.364C190.637 706.966 190.938 707.688 190.938 708.529C190.938 709.086 190.796 709.597 190.512 710.063C190.239 710.529 189.87 710.904 189.404 711.188C188.949 711.461 188.438 711.597 187.87 711.597ZM208.572 711.801C206.322 711.801 204.316 711.415 202.555 710.642C200.805 709.87 199.412 708.796 198.378 707.421C197.356 706.034 196.799 704.426 196.708 702.597H201.003C201.094 703.722 201.481 704.694 202.162 705.512C202.844 706.319 203.736 706.944 204.839 707.387C205.941 707.83 207.162 708.051 208.503 708.051C210.003 708.051 211.333 707.79 212.492 707.267C213.651 706.745 214.56 706.017 215.219 705.086C215.878 704.154 216.208 703.074 216.208 701.847C216.208 700.563 215.89 699.432 215.253 698.455C214.617 697.466 213.685 696.694 212.458 696.137C211.231 695.58 209.731 695.301 207.958 695.301H205.162V691.551H207.958C209.344 691.551 210.56 691.301 211.606 690.801C212.662 690.301 213.486 689.597 214.077 688.688C214.68 687.779 214.981 686.711 214.981 685.483C214.981 684.301 214.719 683.273 214.197 682.398C213.674 681.523 212.935 680.841 211.981 680.353C211.037 679.864 209.924 679.62 208.64 679.62C207.435 679.62 206.299 679.841 205.231 680.284C204.174 680.716 203.31 681.347 202.64 682.176C201.969 682.995 201.606 683.983 201.549 685.142H197.458C197.526 683.313 198.077 681.711 199.111 680.336C200.145 678.949 201.498 677.87 203.168 677.097C204.85 676.324 206.697 675.938 208.708 675.938C210.867 675.938 212.719 676.375 214.265 677.25C215.81 678.114 216.998 679.256 217.827 680.676C218.657 682.097 219.072 683.631 219.072 685.279C219.072 687.245 218.555 688.921 217.52 690.307C216.498 691.694 215.106 692.654 213.344 693.188V693.461C215.549 693.824 217.27 694.762 218.509 696.273C219.748 697.773 220.367 699.631 220.367 701.847C220.367 703.745 219.85 705.449 218.816 706.961C217.793 708.461 216.395 709.642 214.623 710.506C212.85 711.37 210.833 711.801 208.572 711.801ZM238.725 711.801C236.157 711.801 233.969 711.103 232.162 709.705C230.356 708.296 228.975 706.256 228.02 703.586C227.066 700.904 226.589 697.665 226.589 693.87C226.589 690.097 227.066 686.875 228.02 684.205C228.986 681.523 230.373 679.478 232.18 678.069C233.998 676.648 236.18 675.938 238.725 675.938C241.27 675.938 243.447 676.648 245.253 678.069C247.072 679.478 248.458 681.523 249.412 684.205C250.378 686.875 250.861 690.097 250.861 693.87C250.861 697.665 250.384 700.904 249.43 703.586C248.475 706.256 247.094 708.296 245.287 709.705C243.481 711.103 241.293 711.801 238.725 711.801ZM238.725 708.051C241.27 708.051 243.248 706.824 244.657 704.37C246.066 701.915 246.77 698.415 246.77 693.87C246.77 690.847 246.447 688.273 245.799 686.148C245.162 684.023 244.242 682.404 243.037 681.29C241.844 680.176 240.407 679.62 238.725 679.62C236.202 679.62 234.231 680.864 232.81 683.353C231.39 685.83 230.68 689.336 230.68 693.87C230.68 696.892 230.998 699.461 231.634 701.574C232.27 703.688 233.185 705.296 234.378 706.398C235.583 707.5 237.032 708.051 238.725 708.051Z" fill="black"/>
</svg>
