<svg width="1512" height="1512" viewBox="0 0 1512 1512" fill="none" xmlns="http://www.w3.org/2000/svg">
<path d="M1011.97 1076.76C1012.66 1021.37 990.223 990.708 948.115 976.113C948.115 1009.26 948.115 1042.41 948.115 1075.57" stroke="black" stroke-width="0.96" stroke-miterlimit="22.9256"/>
<path d="M355.533 195.068V1099.88H387.3V195.068H355.533Z" fill="black"/>
<path fill-rule="evenodd" clip-rule="evenodd" d="M452.482 1083.33H460.181V1099.78H452.482H355.534V1039.83H452.482V1083.33Z" fill="black"/>
<path d="M935.796 1073.82V1081.07C935.796 1081.88 936.446 1082.53 937.247 1082.53H946.017C946.819 1082.53 947.468 1081.88 947.468 1081.07V1073.82C947.468 1073.02 946.819 1072.37 946.017 1072.37H937.247C936.446 1072.37 935.796 1073.02 935.796 1073.82Z" stroke="black" stroke-width="2" stroke-miterlimit="22.9256"/>
<path d="M355.534 188.684V217.968H625.515V188.684H355.534Z" fill="black"/>
<path d="M625.931 188.195V199.424C625.931 200.225 626.766 200.875 627.796 200.875H632.751C633.781 200.875 634.616 200.225 634.616 199.424V188.195C634.616 187.394 633.781 186.744 632.751 186.744H627.796C626.766 186.744 625.931 187.394 625.931 188.195Z" stroke="black" stroke-width="2.90195" stroke-miterlimit="22.9256"/>
<path d="M1012.68 1073.29V1081.45C1012.68 1082.36 1013.33 1083.09 1014.13 1083.09H1022.9C1023.7 1083.09 1024.35 1082.36 1024.35 1081.45V1073.29C1024.35 1072.39 1023.7 1071.66 1022.9 1071.66H1014.13C1013.33 1071.66 1012.68 1072.39 1012.68 1073.29Z" stroke="black" stroke-width="2" stroke-miterlimit="22.9256"/>
<path d="M460.278 1083.27V1098.69H672.744V1083.27H460.278Z" stroke="black" stroke-width="3.88558" stroke-miterlimit="22.9256"/>
<path d="M461.182 1073.86V1083.36H671.873V1073.86H461.182Z" stroke="black" stroke-width="3.9338" stroke-miterlimit="22.9256"/>
<path d="M452.553 1040.43V1073.85H679.729V1040.43H452.553Z" stroke="black" stroke-width="3.72956" stroke-miterlimit="22.9256"/>
<path d="M664.993 1083.1V1100.3H842.239V1083.1H664.993Z" fill="black"/>
<path d="M679.729 1037.39V1088.39H832.503V1037.39H679.729Z" fill="black" stroke="black" stroke-width="2.78806" stroke-miterlimit="22.9256"/>
<path d="M924.465 1074.29V1084.4H934.933V1074.29H924.465Z" stroke="black" stroke-width="2.62781" stroke-miterlimit="22.9256"/>
<path d="M841.387 1074.41V1084.4H924.463V1074.41H841.387Z" stroke="black" stroke-width="2.532" stroke-miterlimit="22.9256"/>
<path d="M832.505 1039.66V1074.23H934.733V1039.66H832.505Z" stroke="black" stroke-width="2.54452" stroke-miterlimit="22.9256"/>
<path d="M1015.88 1081.98V1097.03H1185.37V1081.98H1015.88Z" fill="black"/>
<path d="M1024.52 1040.96V1097.12L1185.04 1097.13V1040.96H1024.52Z" fill="black"/>
<path d="M1152.67 194.584V1097.12L1185.04 1097.13V194.584H1152.67Z" fill="black"/>
<path d="M738.958 479.887V496.169H785.115V479.887H738.958Z" fill="black"/>
<path d="M595.132 413.367V494.583C595.132 495.158 595.782 495.625 596.583 495.625H611.139C611.941 495.625 612.591 495.158 612.591 494.583V413.367C612.591 412.792 611.941 412.325 611.139 412.325H596.583C595.782 412.325 595.132 412.792 595.132 413.367Z" fill="black"/>
<path d="M903.636 212.874V295.379C903.636 295.963 904.286 296.437 905.087 296.437H919.643C920.445 296.437 921.095 295.963 921.095 295.379V212.874C921.095 212.29 920.445 211.816 919.643 211.816H905.087C904.286 211.816 903.636 212.29 903.636 212.874Z" fill="black"/>
<path d="M754.193 492.301V1058.14H771.089V492.301H754.193Z" fill="black"/>
<path d="M597.165 202.015V307.666C597.165 308.414 597.815 309.02 598.617 309.02H613.173C613.974 309.02 614.624 308.414 614.624 307.666V202.015C614.624 201.267 613.974 200.661 613.173 200.661H598.617C597.815 200.661 597.165 201.267 597.165 202.015Z" fill="black"/>
<path d="M777.226 1088.68V1267.02H800.771V1088.68H777.226Z" fill="black"/>
<path d="M777.226 1244.01V1267.02H1185.97V1244.01H777.226Z" fill="black"/>
<path d="M1163.64 1089.72V1267.02H1185.97V1089.72H1163.64Z" fill="black"/>
<path d="M634.615 196.727C633.888 127.091 700.459 92.9179 744.81 74.5698C744.81 116.247 744.81 157.923 744.81 199.6" stroke="black" stroke-width="0.96" stroke-miterlimit="22.9256"/>
<path d="M359.518 480.582V496.864H625.686V480.582H359.518Z" fill="black"/>
<path d="M753.596 188.684V217.968H1184.62V188.684H753.596Z" fill="black"/>
<path d="M744.911 189.236V200.464C744.911 201.266 745.746 201.916 746.776 201.916H751.73C752.76 201.916 753.595 201.266 753.595 200.464V189.236C753.595 188.434 752.76 187.785 751.73 187.785H746.776C745.746 187.785 744.911 188.434 744.911 189.236Z" stroke="black" stroke-width="2.90195" stroke-miterlimit="22.9256"/>
<path d="M897.615 480.582V496.864H1163.78V480.582H897.615Z" fill="black"/>
<path d="M904.702 400.944V494.426C904.702 495.088 905.351 495.625 906.153 495.625H920.709C921.511 495.625 922.16 495.088 922.16 494.426V400.944C922.16 400.282 921.511 399.746 920.709 399.746H906.153C905.351 399.746 904.702 400.282 904.702 400.944Z" fill="black"/>
<path d="M784.713 482.892V494.121C784.713 494.922 785.548 495.572 786.578 495.572H791.533C792.563 495.572 793.397 494.922 793.397 494.121V482.892C793.397 482.091 792.563 481.441 791.533 481.441H786.578C785.548 481.441 784.713 482.091 784.713 482.892Z" stroke="black" stroke-width="2.90195" stroke-miterlimit="22.9256"/>
<path d="M888.93 482.892V494.121C888.93 494.922 889.765 495.572 890.795 495.572H895.749C896.779 495.572 897.614 494.922 897.614 494.121V482.892C897.614 482.091 896.779 481.441 895.749 481.441H890.795C889.765 481.441 888.93 482.091 888.93 482.892Z" stroke="black" stroke-width="2.90195" stroke-miterlimit="22.9256"/>
<path d="M781.516 675.114H766.341V739.471H781.516V675.114Z" fill="black"/>
<path d="M840.193 1084.46V1098.31H934.61V1084.46H840.193Z" stroke="black" stroke-width="2.45438" stroke-miterlimit="22.9256"/>
<path d="M794.307 488.056C793.686 554.646 850.557 587.324 888.446 604.87C888.446 565.015 888.446 525.163 888.446 485.308" stroke="black" stroke-width="0.96" stroke-miterlimit="22.9256"/>
<path d="M1149.17 302.972V223.86H972.043V302.972H1149.17Z" stroke="black" stroke-width="0.801596" stroke-miterlimit="22.9256"/>
<path fill-rule="evenodd" clip-rule="evenodd" d="M1004.49 232.896C1043.4 231.23 1081.84 232.309 1120.52 232.016C1134.05 231.821 1140.96 232.321 1140.74 246.648C1140.74 258.506 1140.74 270.362 1140.74 282.219C1140.87 292.287 1137.86 296.075 1121 295.306C1082.17 295.013 1043.33 295.636 1004.49 294.428C973.65 290.721 970.517 238.43 1004.49 232.896Z" stroke="black" stroke-width="1.00006" stroke-miterlimit="22.9256"/>
<path d="M1125.17 264.067C1125.17 266.092 1126.81 267.734 1128.84 267.734C1130.86 267.734 1132.51 266.092 1132.51 264.067C1132.51 262.042 1130.86 260.4 1128.84 260.4C1126.81 260.4 1125.17 262.042 1125.17 264.067Z" stroke="black" stroke-width="0.605892" stroke-miterlimit="22.9256"/>
<path fill-rule="evenodd" clip-rule="evenodd" d="M1137.72 320.92C1140.81 320.855 1143.8 323.159 1145.22 325.72C1145.22 342.776 1145.22 359.018 1145.22 376.075C1144.69 378.483 1143.02 379.024 1139.4 379.84C1106.36 382.093 1113.02 362.791 1112.87 338.083C1114.33 323.279 1124.96 321.569 1137.72 320.92Z" stroke="black" stroke-width="1.00006" stroke-miterlimit="22.9256"/>
<path d="M1137.01 350.805C1137.01 352.663 1138.52 354.17 1140.37 354.17C1142.23 354.17 1143.74 352.663 1143.74 350.805C1143.74 348.947 1142.23 347.44 1140.37 347.44C1138.52 347.44 1137.01 348.947 1137.01 350.805Z" stroke="black" stroke-width="1.04743" stroke-miterlimit="22.9256"/>
<path fill-rule="evenodd" clip-rule="evenodd" d="M1139.23 328.709C1141.7 328.663 1144.09 330.308 1145.22 332.137C1145.22 344.315 1145.22 355.912 1145.22 368.09C1144.79 369.81 1143.46 370.195 1140.57 370.778C1114.59 372.932 1119.5 357.812 1119.38 340.964C1119.59 329.931 1129.48 328.709 1139.23 328.709Z" stroke="black" stroke-width="1.00006" stroke-miterlimit="22.9256"/>
<path d="M1154.99 317.289C1131.54 317.51 1109.67 310.351 1106.65 339.059C1105.87 348.408 1106.2 357.331 1107.49 366.51C1112.71 390.02 1132.92 382.638 1155.34 383.032" stroke="black" stroke-width="1.00006" stroke-miterlimit="22.9256" stroke-linecap="round" stroke-linejoin="round"/>
<path d="M1107.82 409.621L1117.44 410.688" stroke="black" stroke-width="1.00006" stroke-miterlimit="22.9256"/>
<path d="M1108.21 442.676L1117.82 441.606" stroke="black" stroke-width="1.00006" stroke-miterlimit="22.9256"/>
<path d="M1151.69 394.152C1144.07 394.152 1136.45 394.151 1128.83 394.151C1123.14 394.135 1119.03 397.08 1117.34 404.302C1117.43 417.153 1117.52 430.005 1117.61 442.857C1117.09 452.912 1121.44 457.094 1128.83 457.716H1152.05" stroke="black" stroke-width="1.00006" stroke-miterlimit="22.9256"/>
<path fill-rule="evenodd" clip-rule="evenodd" d="M1088.61 450.069C1096.2 451.311 1102.78 449.598 1107.84 443.391C1112.51 431.123 1112.24 419.967 1107.84 409.74C1103.34 404.27 1097.48 401.718 1090.09 402.407C1079.05 403.482 1068.34 407.459 1058.16 416.151C1051.98 422.225 1051.48 429.098 1058.16 436.982C1067.03 444.118 1077.23 448.361 1088.61 450.069Z" stroke="black" stroke-width="1.00006" stroke-miterlimit="22.9256"/>
<path fill-rule="evenodd" clip-rule="evenodd" d="M940.113 420.75H950.598H989.49H999.918V475.267H940.113V420.75Z" stroke="black" stroke-width="0.755906" stroke-miterlimit="22.9256"/>
<path d="M989.49 415.604H950.598V420.75H989.49V415.604Z" stroke="black" stroke-width="0.755906" stroke-miterlimit="22.9256"/>
<path d="M984.722 364.611V361.134L1000.06 336.861H1002.59V342.247H1000.88L989.291 360.588V360.861H1009.95V364.611H984.722ZM1001.15 371.77V363.554V361.935V336.861H1005.18V371.77H1001.15ZM1017.7 372.043C1016.86 372.043 1016.13 371.742 1015.53 371.139C1014.93 370.537 1014.63 369.815 1014.63 368.975C1014.63 368.134 1014.93 367.412 1015.53 366.81C1016.13 366.208 1016.86 365.906 1017.7 365.906C1018.54 365.906 1019.26 366.208 1019.86 366.81C1020.46 367.412 1020.76 368.134 1020.76 368.975C1020.76 369.531 1020.62 370.043 1020.34 370.509C1020.07 370.975 1019.7 371.35 1019.23 371.634C1018.78 371.906 1018.26 372.043 1017.7 372.043ZM1038.08 372.247C1035.51 372.247 1033.33 371.548 1031.52 370.151C1029.71 368.742 1028.33 366.702 1027.38 364.031C1026.42 361.35 1025.95 358.111 1025.95 354.315C1025.95 350.543 1026.42 347.321 1027.38 344.651C1028.34 341.969 1029.73 339.923 1031.54 338.514C1033.36 337.094 1035.54 336.384 1038.08 336.384C1040.63 336.384 1042.8 337.094 1044.61 338.514C1046.43 339.923 1047.82 341.969 1048.77 344.651C1049.74 347.321 1050.22 350.543 1050.22 354.315C1050.22 358.111 1049.74 361.35 1048.79 364.031C1047.83 366.702 1046.45 368.742 1044.65 370.151C1042.84 371.548 1040.65 372.247 1038.08 372.247ZM1038.08 368.497C1040.63 368.497 1042.61 367.27 1044.01 364.815C1045.42 362.361 1046.13 358.861 1046.13 354.315C1046.13 351.293 1045.8 348.719 1045.16 346.594C1044.52 344.469 1043.6 342.85 1042.4 341.736C1041.2 340.622 1039.76 340.065 1038.08 340.065C1035.56 340.065 1033.59 341.31 1032.17 343.798C1030.75 346.276 1030.04 349.781 1030.04 354.315C1030.04 357.338 1030.36 359.906 1030.99 362.02C1031.63 364.134 1032.54 365.742 1033.74 366.844C1034.94 367.946 1036.39 368.497 1038.08 368.497ZM1068.08 372.247C1065.51 372.247 1063.33 371.548 1061.52 370.151C1059.71 368.742 1058.33 366.702 1057.38 364.031C1056.42 361.35 1055.95 358.111 1055.95 354.315C1055.95 350.543 1056.42 347.321 1057.38 344.651C1058.34 341.969 1059.73 339.923 1061.54 338.514C1063.36 337.094 1065.54 336.384 1068.08 336.384C1070.63 336.384 1072.8 337.094 1074.61 338.514C1076.43 339.923 1077.82 341.969 1078.77 344.651C1079.74 347.321 1080.22 350.543 1080.22 354.315C1080.22 358.111 1079.74 361.35 1078.79 364.031C1077.83 366.702 1076.45 368.742 1074.65 370.151C1072.84 371.548 1070.65 372.247 1068.08 372.247ZM1068.08 368.497C1070.63 368.497 1072.61 367.27 1074.01 364.815C1075.42 362.361 1076.13 358.861 1076.13 354.315C1076.13 351.293 1075.8 348.719 1075.16 346.594C1074.52 344.469 1073.6 342.85 1072.4 341.736C1071.2 340.622 1069.76 340.065 1068.08 340.065C1065.56 340.065 1063.59 341.31 1062.17 343.798C1060.75 346.276 1060.04 349.781 1060.04 354.315C1060.04 357.338 1060.36 359.906 1060.99 362.02C1061.63 364.134 1062.54 365.742 1063.74 366.844C1064.94 367.946 1066.39 368.497 1068.08 368.497Z" fill="black"/>
<path d="M776.797 283.711V280.234L792.137 255.961H794.66V261.347H792.956L781.365 279.688V279.961H802.024V283.711H776.797ZM793.228 290.87V282.654V281.035V255.961H797.251V290.87H793.228ZM809.771 291.143C808.93 291.143 808.208 290.842 807.606 290.239C807.004 289.637 806.703 288.916 806.703 288.075C806.703 287.234 807.004 286.512 807.606 285.91C808.208 285.308 808.93 285.006 809.771 285.006C810.612 285.006 811.333 285.308 811.936 285.91C812.538 286.512 812.839 287.234 812.839 288.075C812.839 288.631 812.697 289.143 812.413 289.609C812.14 290.075 811.771 290.45 811.305 290.734C810.851 291.006 810.339 291.143 809.771 291.143ZM830.093 291.347C827.753 291.347 825.684 290.933 823.889 290.103C822.105 289.262 820.713 288.109 819.713 286.643C818.713 285.166 818.218 283.484 818.23 281.597C818.218 280.12 818.508 278.756 819.099 277.506C819.69 276.245 820.497 275.194 821.52 274.353C822.554 273.501 823.707 272.961 824.98 272.734V272.529C823.309 272.097 821.98 271.16 820.991 269.717C820.003 268.262 819.514 266.609 819.525 264.756C819.514 262.984 819.963 261.399 820.872 260.001C821.781 258.603 823.031 257.501 824.622 256.694C826.224 255.887 828.048 255.484 830.093 255.484C832.116 255.484 833.923 255.887 835.514 256.694C837.105 257.501 838.355 258.603 839.264 260.001C840.184 261.399 840.65 262.984 840.662 264.756C840.65 266.609 840.145 268.262 839.145 269.717C838.156 271.16 836.843 272.097 835.207 272.529V272.734C836.468 272.961 837.605 273.501 838.616 274.353C839.628 275.194 840.434 276.245 841.037 277.506C841.639 278.756 841.946 280.12 841.957 281.597C841.946 283.484 841.434 285.166 840.423 286.643C839.423 288.109 838.031 289.262 836.247 290.103C834.474 290.933 832.423 291.347 830.093 291.347ZM830.093 287.597C831.673 287.597 833.037 287.342 834.184 286.83C835.332 286.319 836.218 285.597 836.843 284.666C837.468 283.734 837.787 282.643 837.798 281.393C837.787 280.075 837.446 278.91 836.775 277.899C836.105 276.887 835.19 276.092 834.031 275.512C832.883 274.933 831.571 274.643 830.093 274.643C828.605 274.643 827.275 274.933 826.105 275.512C824.946 276.092 824.031 276.887 823.36 277.899C822.701 278.91 822.378 280.075 822.389 281.393C822.378 282.643 822.679 283.734 823.292 284.666C823.917 285.597 824.809 286.319 825.968 286.83C827.128 287.342 828.503 287.597 830.093 287.597ZM830.093 271.029C831.343 271.029 832.451 270.779 833.417 270.279C834.395 269.779 835.162 269.08 835.718 268.183C836.275 267.285 836.559 266.234 836.571 265.029C836.559 263.847 836.281 262.819 835.735 261.944C835.19 261.058 834.434 260.376 833.468 259.899C832.503 259.41 831.378 259.166 830.093 259.166C828.787 259.166 827.645 259.41 826.667 259.899C825.69 260.376 824.934 261.058 824.4 261.944C823.866 262.819 823.605 263.847 823.616 265.029C823.605 266.234 823.872 267.285 824.417 268.183C824.974 269.08 825.741 269.779 826.718 270.279C827.696 270.779 828.821 271.029 830.093 271.029ZM859.876 291.347C857.308 291.347 855.12 290.649 853.314 289.251C851.507 287.842 850.126 285.802 849.172 283.131C848.217 280.45 847.74 277.211 847.74 273.416C847.74 269.643 848.217 266.421 849.172 263.751C850.137 261.069 851.524 259.024 853.331 257.614C855.149 256.194 857.331 255.484 859.876 255.484C862.422 255.484 864.598 256.194 866.405 257.614C868.223 259.024 869.609 261.069 870.564 263.751C871.53 266.421 872.012 269.643 872.012 273.416C872.012 277.211 871.535 280.45 870.581 283.131C869.626 285.802 868.245 287.842 866.439 289.251C864.632 290.649 862.444 291.347 859.876 291.347ZM859.876 287.597C862.422 287.597 864.399 286.37 865.808 283.916C867.217 281.461 867.922 277.961 867.922 273.416C867.922 270.393 867.598 267.819 866.95 265.694C866.314 263.569 865.393 261.95 864.189 260.836C862.995 259.722 861.558 259.166 859.876 259.166C857.353 259.166 855.382 260.41 853.961 262.899C852.541 265.376 851.831 268.881 851.831 273.416C851.831 276.438 852.149 279.006 852.785 281.12C853.422 283.234 854.336 284.842 855.53 285.944C856.734 287.046 858.183 287.597 859.876 287.597Z" fill="black"/>
<path d="M461.249 374.714C458.999 374.714 456.993 374.327 455.232 373.555C453.482 372.782 452.09 371.708 451.056 370.333C450.033 368.947 449.476 367.339 449.385 365.509H453.681C453.772 366.634 454.158 367.606 454.84 368.424C455.522 369.231 456.414 369.856 457.516 370.299C458.618 370.742 459.84 370.964 461.181 370.964C462.681 370.964 464.01 370.702 465.169 370.18C466.329 369.657 467.238 368.93 467.897 367.998C468.556 367.066 468.885 365.986 468.885 364.759C468.885 363.475 468.567 362.344 467.931 361.367C467.294 360.378 466.363 359.606 465.135 359.049C463.908 358.492 462.408 358.214 460.635 358.214H457.84V354.464H460.635C462.022 354.464 463.238 354.214 464.283 353.714C465.34 353.214 466.164 352.509 466.755 351.6C467.357 350.691 467.658 349.623 467.658 348.395C467.658 347.214 467.397 346.185 466.874 345.31C466.351 344.435 465.613 343.753 464.658 343.265C463.715 342.776 462.601 342.532 461.317 342.532C460.113 342.532 458.976 342.753 457.908 343.197C456.851 343.628 455.988 344.259 455.317 345.089C454.647 345.907 454.283 346.895 454.226 348.055H450.135C450.204 346.225 450.755 344.623 451.789 343.248C452.823 341.861 454.175 340.782 455.846 340.009C457.527 339.236 459.374 338.85 461.385 338.85C463.544 338.85 465.397 339.287 466.942 340.162C468.488 341.026 469.675 342.168 470.505 343.589C471.334 345.009 471.749 346.543 471.749 348.191C471.749 350.157 471.232 351.833 470.198 353.219C469.175 354.606 467.783 355.566 466.022 356.1V356.373C468.226 356.736 469.948 357.674 471.186 359.185C472.425 360.685 473.044 362.543 473.044 364.759C473.044 366.657 472.527 368.361 471.493 369.873C470.471 371.373 469.073 372.555 467.3 373.418C465.527 374.282 463.51 374.714 461.249 374.714ZM481.938 374.509C481.097 374.509 480.375 374.208 479.773 373.606C479.171 373.003 478.87 372.282 478.87 371.441C478.87 370.6 479.171 369.878 479.773 369.276C480.375 368.674 481.097 368.373 481.938 368.373C482.779 368.373 483.5 368.674 484.103 369.276C484.705 369.878 485.006 370.6 485.006 371.441C485.006 371.998 484.864 372.509 484.58 372.975C484.307 373.441 483.938 373.816 483.472 374.1C483.017 374.373 482.506 374.509 481.938 374.509ZM502.363 374.714C500.363 374.714 498.561 374.316 496.959 373.52C495.357 372.725 494.073 371.634 493.107 370.248C492.141 368.861 491.613 367.282 491.522 365.509H495.613C495.772 367.089 496.488 368.395 497.76 369.43C499.044 370.452 500.579 370.964 502.363 370.964C503.794 370.964 505.067 370.628 506.181 369.958C507.306 369.287 508.186 368.367 508.823 367.197C509.471 366.015 509.794 364.68 509.794 363.191C509.794 361.668 509.459 360.31 508.789 359.117C508.13 357.912 507.221 356.964 506.061 356.27C504.902 355.577 503.579 355.225 502.09 355.214C501.022 355.202 499.925 355.367 498.8 355.708C497.675 356.037 496.749 356.464 496.022 356.986L492.067 356.509L494.181 339.327H512.317V343.077H497.726L496.499 353.373H496.704C497.419 352.805 498.317 352.333 499.397 351.958C500.476 351.583 501.601 351.395 502.772 351.395C504.908 351.395 506.811 351.907 508.482 352.93C510.164 353.941 511.482 355.327 512.436 357.089C513.402 358.85 513.885 360.861 513.885 363.123C513.885 365.35 513.385 367.339 512.385 369.089C511.397 370.827 510.033 372.202 508.294 373.214C506.556 374.214 504.579 374.714 502.363 374.714ZM532.043 374.714C529.475 374.714 527.287 374.015 525.48 372.617C523.674 371.208 522.293 369.168 521.338 366.498C520.384 363.816 519.907 360.577 519.907 356.782C519.907 353.009 520.384 349.787 521.338 347.117C522.304 344.435 523.691 342.39 525.498 340.981C527.316 339.56 529.498 338.85 532.043 338.85C534.588 338.85 536.765 339.56 538.571 340.981C540.39 342.39 541.776 344.435 542.73 347.117C543.696 349.787 544.179 353.009 544.179 356.782C544.179 360.577 543.702 363.816 542.748 366.498C541.793 369.168 540.412 371.208 538.605 372.617C536.799 374.015 534.611 374.714 532.043 374.714ZM532.043 370.964C534.588 370.964 536.566 369.736 537.975 367.282C539.384 364.827 540.088 361.327 540.088 356.782C540.088 353.759 539.765 351.185 539.117 349.06C538.481 346.935 537.56 345.316 536.355 344.202C535.162 343.089 533.725 342.532 532.043 342.532C529.52 342.532 527.549 343.776 526.128 346.265C524.708 348.742 523.998 352.248 523.998 356.782C523.998 359.805 524.316 362.373 524.952 364.486C525.588 366.6 526.503 368.208 527.696 369.31C528.901 370.412 530.35 370.964 532.043 370.964Z" fill="black"/>
<path d="M438.774 553.754V588.663H434.547V558.185H434.342L425.82 563.844V559.549L434.547 553.754H438.774ZM448.814 588.663V585.594L460.337 572.981C461.689 571.504 462.803 570.219 463.678 569.129C464.553 568.026 465.2 566.992 465.621 566.026C466.053 565.049 466.269 564.026 466.269 562.958C466.269 561.731 465.973 560.668 465.382 559.771C464.803 558.873 464.007 558.18 462.996 557.691C461.985 557.202 460.848 556.958 459.587 556.958C458.246 556.958 457.075 557.236 456.075 557.793C455.087 558.339 454.32 559.106 453.774 560.094C453.24 561.083 452.973 562.242 452.973 563.572H448.95C448.95 561.526 449.422 559.731 450.365 558.185C451.308 556.64 452.592 555.435 454.217 554.572C455.854 553.708 457.689 553.276 459.723 553.276C461.769 553.276 463.581 553.708 465.161 554.572C466.74 555.435 467.979 556.6 468.877 558.066C469.774 559.532 470.223 561.163 470.223 562.958C470.223 564.242 469.99 565.498 469.524 566.725C469.07 567.941 468.274 569.299 467.138 570.799C466.013 572.288 464.45 574.106 462.45 576.254L454.61 584.64V584.913H470.837V588.663H448.814ZM480.877 588.935C480.036 588.935 479.314 588.634 478.712 588.032C478.11 587.43 477.808 586.708 477.808 585.867C477.808 585.026 478.11 584.305 478.712 583.702C479.314 583.1 480.036 582.799 480.877 582.799C481.717 582.799 482.439 583.1 483.041 583.702C483.644 584.305 483.945 585.026 483.945 585.867C483.945 586.424 483.803 586.935 483.519 587.401C483.246 587.867 482.877 588.242 482.411 588.526C481.956 588.799 481.445 588.935 480.877 588.935ZM490.277 581.504V578.026L505.618 553.754H508.141V559.14H506.436L494.845 577.481V577.754H515.504V581.504H490.277ZM506.709 588.663V580.447V578.827V553.754H510.732V588.663H506.709ZM533.279 589.14C530.71 589.14 528.523 588.441 526.716 587.043C524.909 585.634 523.529 583.594 522.574 580.924C521.619 578.242 521.142 575.004 521.142 571.208C521.142 567.435 521.619 564.214 522.574 561.543C523.54 558.861 524.926 556.816 526.733 555.407C528.551 553.986 530.733 553.276 533.279 553.276C535.824 553.276 538 553.986 539.807 555.407C541.625 556.816 543.012 558.861 543.966 561.543C544.932 564.214 545.415 567.435 545.415 571.208C545.415 575.004 544.938 578.242 543.983 580.924C543.029 583.594 541.648 585.634 539.841 587.043C538.034 588.441 535.847 589.14 533.279 589.14ZM533.279 585.39C535.824 585.39 537.801 584.163 539.21 581.708C540.619 579.254 541.324 575.754 541.324 571.208C541.324 568.185 541 565.611 540.352 563.486C539.716 561.361 538.796 559.742 537.591 558.629C536.398 557.515 534.96 556.958 533.279 556.958C530.756 556.958 528.784 558.202 527.364 560.691C525.943 563.168 525.233 566.674 525.233 571.208C525.233 574.231 525.551 576.799 526.188 578.913C526.824 581.026 527.739 582.634 528.932 583.736C530.137 584.839 531.585 585.39 533.279 585.39Z" fill="black"/>
<path d="M935.407 1184.84V1181.77L946.93 1169.16C948.282 1167.68 949.396 1166.4 950.271 1165.31C951.146 1164.2 951.794 1163.17 952.214 1162.2C952.646 1161.23 952.862 1160.2 952.862 1159.14C952.862 1157.91 952.567 1156.85 951.976 1155.95C951.396 1155.05 950.601 1154.36 949.589 1153.87C948.578 1153.38 947.442 1153.14 946.18 1153.14C944.839 1153.14 943.669 1153.41 942.669 1153.97C941.68 1154.52 940.913 1155.28 940.368 1156.27C939.834 1157.26 939.567 1158.42 939.567 1159.75H935.544C935.544 1157.7 936.015 1155.91 936.959 1154.36C937.902 1152.82 939.186 1151.61 940.811 1150.75C942.447 1149.89 944.282 1149.45 946.317 1149.45C948.362 1149.45 950.175 1149.89 951.754 1150.75C953.334 1151.61 954.572 1152.78 955.47 1154.24C956.368 1155.71 956.817 1157.34 956.817 1159.14C956.817 1160.42 956.584 1161.68 956.118 1162.9C955.663 1164.12 954.868 1165.48 953.731 1166.98C952.606 1168.46 951.044 1170.28 949.044 1172.43L941.203 1180.82V1181.09H957.43V1184.84H935.407ZM967.47 1185.11C966.629 1185.11 965.907 1184.81 965.305 1184.21C964.703 1183.61 964.402 1182.89 964.402 1182.04C964.402 1181.2 964.703 1180.48 965.305 1179.88C965.907 1179.28 966.629 1178.98 967.47 1178.98C968.311 1178.98 969.032 1179.28 969.635 1179.88C970.237 1180.48 970.538 1181.2 970.538 1182.04C970.538 1182.6 970.396 1183.11 970.112 1183.58C969.839 1184.04 969.47 1184.42 969.004 1184.7C968.55 1184.98 968.038 1185.11 967.47 1185.11ZM988.474 1149.45C989.906 1149.46 991.338 1149.74 992.77 1150.27C994.202 1150.81 995.508 1151.69 996.69 1152.93C997.872 1154.16 998.821 1155.83 999.537 1157.96C1000.25 1160.08 1000.61 1162.75 1000.61 1165.95C1000.61 1169.06 1000.32 1171.81 999.724 1174.22C999.145 1176.62 998.304 1178.64 997.202 1180.29C996.111 1181.94 994.781 1183.19 993.213 1184.04C991.656 1184.89 989.895 1185.32 987.929 1185.32C985.974 1185.32 984.23 1184.93 982.696 1184.16C981.173 1183.37 979.923 1182.29 978.946 1180.9C977.98 1179.5 977.361 1177.89 977.088 1176.04H981.247C981.622 1177.65 982.366 1178.97 983.48 1180.02C984.605 1181.05 986.088 1181.57 987.929 1181.57C990.622 1181.57 992.747 1180.39 994.304 1178.04C995.872 1175.69 996.656 1172.36 996.656 1168.07H996.383C995.747 1169.02 994.991 1169.85 994.116 1170.54C993.241 1171.23 992.27 1171.77 991.202 1172.14C990.133 1172.52 988.997 1172.7 987.792 1172.7C985.792 1172.7 983.957 1172.21 982.287 1171.22C980.628 1170.22 979.298 1168.85 978.298 1167.11C977.309 1165.36 976.815 1163.36 976.815 1161.11C976.815 1158.98 977.292 1157.02 978.247 1155.25C979.213 1153.46 980.565 1152.04 982.304 1150.99C984.054 1149.93 986.111 1149.42 988.474 1149.45ZM988.474 1153.2C987.042 1153.2 985.753 1153.56 984.605 1154.28C983.469 1154.98 982.565 1155.94 981.895 1157.14C981.236 1158.33 980.906 1159.66 980.906 1161.11C980.906 1162.57 981.224 1163.89 981.861 1165.08C982.508 1166.27 983.389 1167.21 984.503 1167.91C985.628 1168.61 986.906 1168.95 988.338 1168.95C989.417 1168.95 990.423 1168.74 991.355 1168.32C992.287 1167.89 993.099 1167.31 993.792 1166.57C994.497 1165.82 995.048 1164.97 995.446 1164.03C995.844 1163.07 996.042 1162.08 996.042 1161.04C996.042 1159.68 995.713 1158.4 995.054 1157.21C994.406 1156.02 993.508 1155.05 992.361 1154.31C991.224 1153.57 989.929 1153.2 988.474 1153.2ZM1018.7 1185.32C1016.13 1185.32 1013.94 1184.62 1012.14 1183.22C1010.33 1181.81 1008.95 1179.77 1008 1177.1C1007.04 1174.42 1006.56 1171.18 1006.56 1167.39C1006.56 1163.61 1007.04 1160.39 1008 1157.72C1008.96 1155.04 1010.35 1152.99 1012.15 1151.58C1013.97 1150.16 1016.15 1149.45 1018.7 1149.45C1021.25 1149.45 1023.42 1150.16 1025.23 1151.58C1027.05 1152.99 1028.43 1155.04 1029.39 1157.72C1030.35 1160.39 1030.84 1163.61 1030.84 1167.39C1030.84 1171.18 1030.36 1174.42 1029.4 1177.1C1028.45 1179.77 1027.07 1181.81 1025.26 1183.22C1023.46 1184.62 1021.27 1185.32 1018.7 1185.32ZM1018.7 1181.57C1021.25 1181.57 1023.22 1180.34 1024.63 1177.89C1026.04 1175.43 1026.75 1171.93 1026.75 1167.39C1026.75 1164.36 1026.42 1161.79 1025.77 1159.66C1025.14 1157.54 1024.22 1155.92 1023.01 1154.81C1021.82 1153.69 1020.38 1153.14 1018.7 1153.14C1016.18 1153.14 1014.21 1154.38 1012.79 1156.87C1011.36 1159.35 1010.65 1162.85 1010.65 1167.39C1010.65 1170.41 1010.97 1172.98 1011.61 1175.09C1012.25 1177.2 1013.16 1178.81 1014.35 1179.91C1015.56 1181.02 1017.01 1181.57 1018.7 1181.57Z" fill="black"/>
<path d="M1184.37 1365.92V1266.15H952.058V1365.92H1184.37Z" stroke="black" stroke-width="0.676558" stroke-miterlimit="22.9256"/>
<path d="M1184.67 1265.98L952.359 1365.75" stroke="black" stroke-width="0.639874" stroke-miterlimit="22.9256"/>
<path d="M1184.37 1365.92L953.864 1268.59" stroke="black" stroke-width="0.639874" stroke-miterlimit="22.9256"/>
<path fill-rule="evenodd" clip-rule="evenodd" d="M859.468 947.69V1011.08C859.468 1013.44 857.553 1015.35 855.192 1015.35H790.974C788.614 1015.35 786.698 1013.44 786.698 1011.08V947.69C786.698 945.329 788.614 943.414 790.975 943.414H855.192C857.553 943.414 859.468 945.329 859.468 947.69Z" stroke="black" stroke-width="1.00006" stroke-miterlimit="22.9256" stroke-linecap="round" stroke-linejoin="round"/>
<path d="M849.279 1008.91V949.859H796.885V1008.91H849.279Z" stroke="black" stroke-width="0.658178" stroke-miterlimit="22.9256" stroke-linecap="round" stroke-linejoin="round"/>
<path d="M833.895 993.105C833.895 995.632 835.943 997.68 838.469 997.68C840.996 997.68 843.043 995.632 843.043 993.105C843.043 990.579 840.996 988.531 838.469 988.531C835.943 988.531 833.895 990.579 833.895 993.105Z" stroke="black" stroke-width="0.658178" stroke-miterlimit="22.9256"/>
<path d="M857.296 855.094H786.534V923.416H857.296V855.094Z" stroke="black" stroke-width="1.00006" stroke-miterlimit="22.9256" stroke-linejoin="round"/>
<path d="M839.741 878.879C844.696 878.879 848.713 874.862 848.713 869.907C848.713 864.952 844.696 860.935 839.741 860.935C834.786 860.935 830.769 864.952 830.769 869.907C830.769 874.862 834.786 878.879 839.741 878.879Z" stroke="black" stroke-width="0.639874" stroke-miterlimit="22.9256" stroke-linejoin="round"/>
<path d="M840.169 859.024H839.495V881.899H840.169V859.024Z" fill="black"/>
<path d="M850.9 870.701V870.028H828.025V870.701H850.9Z" fill="black"/>
<path d="M805.432 879.06C810.388 879.06 814.405 875.043 814.405 870.087C814.405 865.132 810.388 861.115 805.432 861.115C800.477 861.115 796.46 865.132 796.46 870.087C796.46 875.043 800.477 879.06 805.432 879.06Z" stroke="black" stroke-width="0.639874" stroke-miterlimit="22.9256" stroke-linejoin="round"/>
<path d="M806.079 858.722H805.406V881.597H806.079V858.722Z" fill="black"/>
<path d="M816.643 870.493V869.82H793.768V870.493H816.643Z" fill="black"/>
<path d="M805.654 915.114C810.61 915.114 814.627 911.097 814.627 906.142C814.627 901.187 810.61 897.17 805.654 897.17C800.699 897.17 796.682 901.187 796.682 906.142C796.682 911.097 800.699 915.114 805.654 915.114Z" stroke="black" stroke-width="0.639874" stroke-miterlimit="22.9256" stroke-linejoin="round"/>
<path d="M806.301 894.776H805.628V917.651H806.301V894.776Z" fill="black"/>
<path d="M817.402 906.55V905.877H794.527V906.55H817.402Z" fill="black"/>
<path d="M839.741 914.529C844.696 914.529 848.713 910.512 848.713 905.557C848.713 900.602 844.696 896.585 839.741 896.585C834.786 896.585 830.769 900.602 830.769 905.557C830.769 910.512 834.786 914.529 839.741 914.529Z" stroke="black" stroke-width="0.639874" stroke-miterlimit="22.9256" stroke-linejoin="round"/>
<path d="M840.189 894.262H839.515V917.137H840.189V894.262Z" fill="black"/>
<path d="M850.673 905.964V905.291H827.798V905.964H850.673Z" fill="black"/>
<path d="M1006.89 762.091V797H1002.66V766.523H1002.45L993.932 772.182V767.886L1002.66 762.091H1006.89ZM1016.93 797V793.932L1028.45 781.318C1029.8 779.841 1030.91 778.557 1031.79 777.466C1032.66 776.364 1033.31 775.33 1033.73 774.364C1034.16 773.386 1034.38 772.364 1034.38 771.295C1034.38 770.068 1034.09 769.006 1033.49 768.108C1032.91 767.21 1032.12 766.517 1031.11 766.028C1030.1 765.54 1028.96 765.295 1027.7 765.295C1026.36 765.295 1025.19 765.574 1024.19 766.131C1023.2 766.676 1022.43 767.443 1021.89 768.432C1021.35 769.42 1021.09 770.58 1021.09 771.909H1017.06C1017.06 769.864 1017.53 768.068 1018.48 766.523C1019.42 764.977 1020.7 763.773 1022.33 762.909C1023.97 762.045 1025.8 761.614 1027.84 761.614C1029.88 761.614 1031.69 762.045 1033.27 762.909C1034.85 763.773 1036.09 764.937 1036.99 766.403C1037.89 767.869 1038.34 769.5 1038.34 771.295C1038.34 772.58 1038.1 773.835 1037.64 775.062C1037.18 776.278 1036.39 777.636 1035.25 779.136C1034.12 780.625 1032.56 782.443 1030.56 784.591L1022.72 792.977V793.25H1038.95V797H1016.93ZM1048.99 797.273C1048.15 797.273 1047.43 796.972 1046.82 796.369C1046.22 795.767 1045.92 795.045 1045.92 794.205C1045.92 793.364 1046.22 792.642 1046.82 792.04C1047.43 791.437 1048.15 791.136 1048.99 791.136C1049.83 791.136 1050.55 791.437 1051.15 792.04C1051.76 792.642 1052.06 793.364 1052.06 794.205C1052.06 794.761 1051.91 795.273 1051.63 795.739C1051.36 796.205 1050.99 796.58 1050.52 796.864C1050.07 797.136 1049.56 797.273 1048.99 797.273ZM1069.58 797.477C1068.15 797.455 1066.72 797.182 1065.28 796.659C1063.85 796.136 1062.55 795.256 1061.36 794.017C1060.18 792.767 1059.23 791.08 1058.52 788.955C1057.8 786.818 1057.44 784.136 1057.44 780.909C1057.44 777.818 1057.73 775.08 1058.31 772.693C1058.89 770.295 1059.73 768.278 1060.84 766.642C1061.94 764.994 1063.27 763.744 1064.82 762.892C1066.39 762.04 1068.16 761.614 1070.12 761.614C1072.08 761.614 1073.82 762.006 1075.34 762.79C1076.88 763.562 1078.13 764.642 1079.09 766.028C1080.06 767.415 1080.68 769.011 1080.97 770.818H1076.81C1076.42 769.25 1075.67 767.949 1074.56 766.915C1073.44 765.881 1071.97 765.364 1070.12 765.364C1067.42 765.364 1065.29 766.54 1063.73 768.892C1062.19 771.244 1061.41 774.545 1061.4 778.795H1061.67C1062.31 777.83 1063.06 777.006 1063.94 776.324C1064.82 775.631 1065.8 775.097 1066.87 774.722C1067.94 774.347 1069.07 774.159 1070.26 774.159C1072.26 774.159 1074.09 774.659 1075.75 775.659C1077.41 776.648 1078.74 778.017 1079.74 779.767C1080.74 781.506 1081.24 783.5 1081.24 785.75C1081.24 787.909 1080.76 789.886 1079.79 791.682C1078.82 793.466 1077.47 794.886 1075.72 795.943C1073.98 796.989 1071.93 797.5 1069.58 797.477ZM1069.58 793.727C1071.01 793.727 1072.3 793.369 1073.43 792.653C1074.58 791.937 1075.48 790.977 1076.14 789.773C1076.81 788.568 1077.15 787.227 1077.15 785.75C1077.15 784.307 1076.82 782.994 1076.18 781.812C1075.54 780.619 1074.66 779.67 1073.53 778.966C1072.42 778.261 1071.15 777.909 1069.72 777.909C1068.64 777.909 1067.63 778.125 1066.7 778.557C1065.77 778.977 1064.95 779.557 1064.24 780.295C1063.55 781.034 1063.01 781.881 1062.61 782.835C1062.21 783.778 1062.01 784.773 1062.01 785.818C1062.01 787.205 1062.34 788.5 1062.98 789.705C1063.64 790.909 1064.54 791.881 1065.68 792.619C1066.82 793.358 1068.12 793.727 1069.58 793.727ZM1099.33 797.477C1096.76 797.477 1094.57 796.778 1092.77 795.381C1090.96 793.972 1089.58 791.932 1088.62 789.261C1087.67 786.58 1087.19 783.341 1087.19 779.545C1087.19 775.773 1087.67 772.551 1088.62 769.881C1089.59 767.199 1090.98 765.153 1092.78 763.744C1094.6 762.324 1096.78 761.614 1099.33 761.614C1101.87 761.614 1104.05 762.324 1105.86 763.744C1107.67 765.153 1109.06 767.199 1110.02 769.881C1110.98 772.551 1111.46 775.773 1111.46 779.545C1111.46 783.341 1110.99 786.58 1110.03 789.261C1109.08 791.932 1107.7 793.972 1105.89 795.381C1104.08 796.778 1101.9 797.477 1099.33 797.477ZM1099.33 793.727C1101.87 793.727 1103.85 792.5 1105.26 790.045C1106.67 787.591 1107.37 784.091 1107.37 779.545C1107.37 776.523 1107.05 773.949 1106.4 771.824C1105.77 769.699 1104.85 768.08 1103.64 766.966C1102.45 765.852 1101.01 765.295 1099.33 765.295C1096.81 765.295 1094.83 766.54 1093.41 769.028C1091.99 771.506 1091.28 775.011 1091.28 779.545C1091.28 782.568 1091.6 785.136 1092.24 787.25C1092.87 789.364 1093.79 790.972 1094.98 792.074C1096.19 793.176 1097.63 793.727 1099.33 793.727Z" fill="black"/>
</svg>
