<svg width="1512" height="1512" viewBox="0 0 1512 1512" fill="none" xmlns="http://www.w3.org/2000/svg">
<path d="M1005.63 203.786H105.064V233.103H1005.63V203.786Z" fill="black"/>
<path d="M157.473 231.827H105.004V277.864H157.473V231.827Z" fill="black"/>
<path d="M157.095 277.995H128.535C128.326 277.995 128.157 278.164 128.157 278.373V472.3C128.157 472.509 128.326 472.679 128.535 472.679H157.095C157.304 472.679 157.474 472.509 157.474 472.3V278.373C157.474 278.164 157.304 277.995 157.095 277.995Z" stroke="black" stroke-width="0.755906" stroke-miterlimit="22.9256"/>
<path d="M128.156 286.698H119.911V464.906H128.156V286.698Z" stroke="black" stroke-width="0.755906" stroke-miterlimit="22.9256"/>
<path d="M120.195 277.332H104.96V285.264H120.195V277.332Z" fill="black"/>
<path d="M119.534 285.265H105.586C105.377 285.265 105.207 285.434 105.207 285.643V465.429C105.207 465.638 105.377 465.807 105.586 465.807H119.534C119.743 465.807 119.912 465.638 119.912 465.429V285.643C119.912 285.434 119.743 285.265 119.534 285.265Z" stroke="black" stroke-width="0.755906" stroke-miterlimit="22.9256"/>
<path d="M158.346 471.046H105.737V678.358H158.346V471.046Z" fill="black"/>
<path d="M120.007 465.807H105.695V473.74H120.007V465.807Z" fill="black"/>
<path d="M120.101 678.065H105.885V685.997H120.101V678.065Z" fill="black"/>
<path d="M157.474 676.863H128.157V871.546H157.474V676.863Z" stroke="black" stroke-width="0.755906" stroke-miterlimit="22.9256"/>
<path d="M128.357 687.663H120.113V864.338H128.357V687.663Z" stroke="black" stroke-width="0.755906" stroke-miterlimit="22.9256"/>
<path d="M119.912 685.998H106.58V865.149H119.912V685.998Z" stroke="black" stroke-width="0.755906" stroke-miterlimit="22.9256"/>
<path d="M158.346 869.401H105.877V1028.57H158.346V869.401Z" fill="black"/>
<path d="M120.101 865.435H105.885V873.368H120.101V865.435Z" fill="black"/>
<path d="M491.669 976.75H149.551V1028.56H491.669V976.75Z" fill="black"/>
<path d="M501.493 1013.67H490.475V1028.54H501.493V1013.67Z" fill="black"/>
<path d="M495.617 986.646H492.008C491.739 986.646 491.522 986.863 491.522 987.131V997.154C491.522 997.422 491.739 997.64 492.008 997.64H495.617C495.885 997.64 496.103 997.422 496.103 997.154V987.131C496.103 986.863 495.885 986.646 495.617 986.646Z" stroke="black" stroke-width="0.755906" stroke-miterlimit="22.9256"/>
<path d="M590.332 986.646H586.722C586.454 986.646 586.236 986.863 586.236 987.131V997.154C586.236 997.422 586.454 997.64 586.722 997.64H590.332C590.6 997.64 590.817 997.422 590.817 997.154V987.131C590.817 986.863 590.6 986.646 590.332 986.646Z" stroke="black" stroke-width="0.755906" stroke-miterlimit="22.9256"/>
<path d="M698.517 976.75H591.276V1028.56H698.517V976.75Z" fill="black"/>
<path d="M591.667 1013.67H580.65V1028.54H591.667V1013.67Z" fill="black"/>
<path d="M698.467 1026.5H647.62V1183.62H698.467V1026.5Z" fill="black"/>
<path d="M748.665 1131.48H693.95V1183.19H748.665V1131.48Z" fill="black" stroke="black" stroke-width="0.755906" stroke-miterlimit="22.9256"/>
<path d="M942.167 1131.48H748.317V1162.09H942.167V1131.48Z" stroke="black" stroke-width="0.755906" stroke-miterlimit="22.9256"/>
<path d="M934.707 1162.09H756.186V1170.79H934.707V1162.09Z" stroke="black" stroke-width="0.755906" stroke-miterlimit="22.9256"/>
<path d="M755.915 1170.31H747.157V1183.53H755.915V1170.31Z" fill="black"/>
<path d="M934.576 1170.51H755.303V1182.89H934.576V1170.51Z" stroke="black" stroke-width="0.755906" stroke-miterlimit="22.9256"/>
<path d="M1112.57 1131.48H942.404V1183.51H1112.57V1131.48Z" fill="black"/>
<path d="M942.762 1170.31H934.004V1183.5H942.762V1170.31Z" fill="black"/>
<path d="M1119.74 1170.33H1110.99V1183.5H1119.74V1170.33Z" fill="black"/>
<path d="M1306.26 1131.48H1112.42V1162.09H1306.26V1131.48Z" stroke="black" stroke-width="0.755906" stroke-miterlimit="22.9256"/>
<path d="M1298.87 1162.09H1119.23V1170.79H1298.87V1162.09Z" stroke="black" stroke-width="0.755906" stroke-miterlimit="22.9256"/>
<path d="M1005.56 231.062H983.76V436.409H1005.56V231.062Z" fill="black"/>
<path d="M1066.31 411.414H967.933V436.409H1066.31V411.414Z" fill="black"/>
<path d="M1070.34 412.991H1066.81C1066.54 412.991 1066.32 413.208 1066.32 413.476V422.125C1066.32 422.393 1066.54 422.61 1066.81 422.61H1070.34C1070.61 422.61 1070.82 422.393 1070.82 422.125V413.476C1070.82 413.208 1070.61 412.991 1070.34 412.991Z" stroke="black" stroke-width="0.755906" stroke-miterlimit="22.9256"/>
<path d="M1176.51 413.519H1172.98C1172.71 413.519 1172.49 413.736 1172.49 414.004V422.653C1172.49 422.921 1172.71 423.138 1172.98 423.138H1176.51C1176.78 423.138 1176.99 422.921 1176.99 422.653V414.004C1176.99 413.736 1176.78 413.519 1176.51 413.519Z" stroke="black" stroke-width="0.755906" stroke-miterlimit="22.9256"/>
<path d="M969.193 424.122H834.06V434.658H969.193V424.122Z" fill="black"/>
<path d="M844.595 430.641H834.06V510.7H844.595V430.641Z" fill="black"/>
<path d="M835.658 499.706H823.066V510.699H835.658V499.706Z" fill="black"/>
<path d="M822.836 501.041H819.473C819.205 501.041 818.988 501.258 818.988 501.526V511.091C818.988 511.359 819.205 511.577 819.473 511.577H822.836C823.104 511.577 823.322 511.359 823.322 511.091V501.526C823.322 501.258 823.104 501.041 822.836 501.041Z" stroke="black" stroke-width="0.755906" stroke-miterlimit="22.9256"/>
<path d="M736.286 499.706H622.882V510.699H736.286V499.706Z" fill="black"/>
<path d="M526.708 499.706H481.426V510.699H526.708V499.706Z" fill="black"/>
<path d="M491.724 552.844L491.724 504.533L480.731 504.533L480.731 552.844L491.724 552.844Z" fill="black"/>
<path d="M492.208 556.691L492.208 553.328C492.208 553.06 491.991 552.843 491.722 552.843L482.157 552.843C481.889 552.843 481.672 553.06 481.672 553.328L481.672 556.691C481.672 556.959 481.889 557.176 482.157 557.176L491.722 557.176C491.991 557.176 492.208 556.959 492.208 556.691Z" stroke="black" stroke-width="0.970923" stroke-miterlimit="22.9256"/>
<path d="M492.208 637.1L492.208 633.738C492.208 633.47 491.991 633.252 491.722 633.252L482.157 633.252C481.889 633.252 481.672 633.47 481.672 633.738L481.672 637.1C481.672 637.369 481.889 637.586 482.157 637.586L491.722 637.586C491.991 637.586 492.208 637.369 492.208 637.1Z" stroke="black" stroke-width="0.970923" stroke-miterlimit="22.9256"/>
<path d="M482.261 531.405H158.13V542.398H482.261V531.405Z" fill="black"/>
<path d="M1436.67 411.414H1176.99V436.409H1436.67V411.414Z" fill="black"/>
<path d="M1436.86 1138L1436.86 432.329L1411.86 432.329L1411.86 1138L1436.86 1138Z" fill="black"/>
<path d="M736.283 652.137H471.254V663.13H736.283V652.137Z" fill="black"/>
<path d="M739.966 650.562H736.603C736.335 650.562 736.117 650.779 736.117 651.047V660.613C736.117 660.881 736.335 661.098 736.603 661.098H739.966C740.234 661.098 740.451 660.881 740.451 660.613V651.047C740.451 650.779 740.234 650.562 739.966 650.562Z" stroke="black" stroke-width="0.755906" stroke-miterlimit="22.9256"/>
<path d="M833.705 650.332H830.342C830.074 650.332 829.856 650.549 829.856 650.817V660.383C829.856 660.651 830.074 660.868 830.342 660.868H833.705C833.973 660.868 834.19 660.651 834.19 660.383V650.817C834.19 650.549 833.973 650.332 833.705 650.332Z" stroke="black" stroke-width="0.755906" stroke-miterlimit="22.9256"/>
<path d="M1017.75 652.137H834.144V663.13H1017.75V652.137Z" fill="black"/>
<path d="M1021.48 650.599H1018.12C1017.85 650.599 1017.63 650.816 1017.63 651.084V660.65C1017.63 660.918 1017.85 661.135 1018.12 661.135H1021.48C1021.75 661.135 1021.97 660.918 1021.97 660.65V651.084C1021.97 650.816 1021.75 650.599 1021.48 650.599Z" stroke="black" stroke-width="0.755906" stroke-miterlimit="22.9256"/>
<path d="M1115.75 650.47H1112.39C1112.12 650.47 1111.91 650.687 1111.91 650.955V660.521C1111.91 660.789 1112.12 661.006 1112.39 661.006H1115.75C1116.02 661.006 1116.24 660.789 1116.24 660.521V650.955C1116.24 650.687 1116.02 650.47 1115.75 650.47Z" stroke="black" stroke-width="0.755906" stroke-miterlimit="22.9256"/>
<path d="M1412.61 652.137H1116.3V663.13H1412.61V652.137Z" fill="black"/>
<path d="M1195.77 430.827H1185.23V553.029H1195.77V430.827Z" fill="black"/>
<path d="M1195.76 556.808V553.445C1195.76 553.177 1195.55 552.96 1195.28 552.96L1185.71 552.96C1185.44 552.96 1185.23 553.177 1185.23 553.445V556.808C1185.23 557.076 1185.44 557.294 1185.71 557.294L1195.28 557.294C1195.55 557.294 1195.76 557.076 1195.76 556.808Z" stroke="black" stroke-width="0.970923" stroke-miterlimit="22.9256"/>
<path d="M1195.77 639.47H1185.23V655.729H1195.77V639.47Z" fill="black"/>
<path d="M725.495 640.337H671.441V656.599H725.495V640.337Z" fill="black"/>
<path d="M491.586 652.137H469.598V706.52H491.586V652.137Z" fill="black"/>
<path d="M491.724 978.394L491.724 695.75L480.731 695.75L480.731 978.394L491.724 978.394Z" fill="black"/>
<path d="M1007.21 1140.09L1007.21 658.919L996.22 658.919L996.22 1140.09L1007.21 1140.09Z" fill="black"/>
<path d="M999.427 1100.25H985.226V1140.1H999.427V1100.25Z" fill="black"/>
<path d="M999.427 823.663H985.226V878.539H999.427V823.663Z" fill="black"/>
<path d="M708.642 402.13L708.642 229.068L697.649 229.068L697.649 402.13L708.642 402.13Z" fill="black"/>
<path d="M704.543 391.195H632.047V402.188H704.543V391.195Z" fill="black"/>
<path d="M643.128 507.251L643.128 396.034L632.135 396.034L632.135 507.251L643.128 507.251Z" fill="black"/>
<path d="M120.381 1026.5H105.877V1183.62H120.381V1026.5Z" fill="black"/>
<path d="M649.997 1170.79H105.877V1183.62H649.997V1170.79Z" fill="black"/>
<path d="M440.258 1323.62L440.258 1180.64L107.356 1180.64L107.356 1323.62L440.258 1323.62Z" stroke="black" stroke-width="0.967794" stroke-miterlimit="22.9256"/>
<path d="M440.694 1180.41L107.792 1323.39" stroke="black" stroke-width="0.63874" stroke-miterlimit="22.9256"/>
<path d="M440.258 1323.62L109.949 1184.15" stroke="black" stroke-width="0.63874" stroke-miterlimit="22.9256"/>
<path d="M1195.76 639.066V635.703C1195.76 635.435 1195.55 635.218 1195.28 635.218L1185.71 635.218C1185.44 635.218 1185.23 635.435 1185.23 635.703V639.066C1185.23 639.334 1185.44 639.551 1185.71 639.551L1195.28 639.551C1195.55 639.551 1195.76 639.334 1195.76 639.066Z" stroke="black" stroke-width="0.970923" stroke-miterlimit="22.9256"/>
<path d="M739.906 501.041H736.543C736.275 501.041 736.058 501.258 736.058 501.526V511.091C736.058 511.359 736.275 511.577 736.543 511.577H739.906C740.174 511.577 740.391 511.359 740.391 511.091V501.526C740.391 501.258 740.174 501.041 739.906 501.041Z" stroke="black" stroke-width="0.755906" stroke-miterlimit="22.9256"/>
<path d="M622.427 501.041H619.064C618.796 501.041 618.579 501.258 618.579 501.526V511.091C618.579 511.359 618.796 511.577 619.064 511.577H622.427C622.695 511.577 622.912 511.359 622.912 511.091V501.526C622.912 501.258 622.695 501.041 622.427 501.041Z" stroke="black" stroke-width="0.755906" stroke-miterlimit="22.9256"/>
<path d="M530.046 501.434H526.683C526.415 501.434 526.198 501.652 526.198 501.92V511.485C526.198 511.753 526.415 511.97 526.683 511.97H530.046C530.314 511.97 530.531 511.753 530.531 511.485V501.92C530.531 501.652 530.314 501.434 530.046 501.434Z" stroke="black" stroke-width="0.755906" stroke-miterlimit="22.9256"/>
<path d="M492.274 637.102H481.673V661.469H492.274V637.102Z" fill="black"/>
<path d="M1298.65 1170.55H1119.38V1182.93H1298.65V1170.55Z" stroke="black" stroke-width="0.755906" stroke-miterlimit="22.9256"/>
<path d="M1436.76 1131.48H1305.96V1183.51H1436.76V1131.48Z" fill="black"/>
<path d="M1307.18 1170.33H1298.42V1183.5H1307.18V1170.33Z" fill="black"/>
<path d="M1186.89 557.932C1252.77 557.012 1298.38 574.743 1312.62 634.48C1273.19 634.48 1224.66 635.261 1185.24 635.261" stroke="black" stroke-width="0.96" stroke-miterlimit="22.9256"/>
<path d="M1070.82 422.125C1069.9 356.252 1112.38 307.56 1172.12 293.327C1172.12 332.751 1172.9 381.283 1172.9 420.707" stroke="black" stroke-width="0.96" stroke-miterlimit="22.9256"/>
<path d="M740.391 509.464C739.666 457.493 770.841 419.491 817.97 408.261C817.97 439.365 818.586 477.654 818.586 508.758" stroke="black" stroke-width="0.96" stroke-miterlimit="22.9256"/>
<path d="M530.531 511.486C535.48 460.941 565.882 425.348 617.311 409C617.311 440.104 617.927 478.393 617.927 509.497" stroke="black" stroke-width="0.96" stroke-miterlimit="22.9256"/>
<path d="M829.765 651.048C830.49 703.018 788.187 740.141 741.057 751.37C741.057 720.266 740.442 681.977 740.442 650.873" stroke="black" stroke-width="0.96" stroke-miterlimit="22.9256"/>
<path d="M482.158 557.177C531.416 556.49 566.963 587.509 577.607 632.178C548.126 632.178 511.836 632.761 482.356 632.761" stroke="black" stroke-width="0.96" stroke-miterlimit="22.9256"/>
<path d="M495.617 997.64C505.211 943.288 544.573 906.803 585.163 897.083C585.163 928.187 585.779 966.476 585.779 997.58" stroke="black" stroke-width="0.96" stroke-miterlimit="22.9256"/>
<path d="M1111.91 650.956C1112.74 711.029 1077.4 757.056 1022.92 770.037C1022.92 734.083 1022.21 689.824 1022.21 653.87" stroke="black" stroke-width="0.96" stroke-miterlimit="22.9256"/>
<path d="M708.219 317.829L708.204 234.769L894.165 234.735L894.181 317.794L708.219 317.829Z" stroke="black" stroke-width="0.795157" stroke-miterlimit="22.9256"/>
<path fill-rule="evenodd" clip-rule="evenodd" d="M860.093 244.228C819.249 242.486 778.885 243.627 738.28 243.327C724.07 243.125 716.816 243.651 717.049 258.693C717.051 271.142 717.053 283.59 717.056 296.039C716.927 306.61 720.089 310.586 737.782 309.775C778.556 309.46 819.331 310.106 860.105 308.83C892.488 304.933 895.767 250.031 860.093 244.228Z" stroke="black" stroke-width="1.00157" stroke-miterlimit="22.9256"/>
<path d="M733.4 276.978C733.401 279.104 731.678 280.828 729.552 280.828C727.426 280.829 725.702 279.106 725.701 276.98C725.701 274.853 727.424 273.13 729.55 273.129C731.676 273.129 733.4 274.852 733.4 276.978Z" stroke="black" stroke-width="0.636126" stroke-miterlimit="22.9256"/>
<path d="M983.305 286.958L983.305 232.727L946.676 232.727L946.676 286.958L983.305 286.958Z" stroke="black" stroke-width="4.62689" stroke-miterlimit="22.9256" stroke-linecap="round" stroke-linejoin="round"/>
<path d="M979.767 282.412L979.767 271.285L949.755 271.285L949.755 282.412L979.767 282.412Z" stroke="black" stroke-width="8.75201" stroke-miterlimit="22.9256"/>
<path d="M983.218 251.789H946.589" stroke="black" stroke-width="2.00013" stroke-miterlimit="22.9256"/>
<path d="M964.992 234.543V268.165" stroke="black" stroke-width="2.00013" stroke-miterlimit="22.9256"/>
<path fill-rule="evenodd" clip-rule="evenodd" d="M934.597 410.74V400.885V364.332V354.531H985.835V410.74H934.597Z" stroke="black" stroke-width="0.944882" stroke-miterlimit="22.9256"/>
<path d="M929.76 364.334L929.76 400.887L934.596 400.887L934.596 364.334L929.76 364.334Z" stroke="black" stroke-width="2.21824" stroke-miterlimit="22.9256"/>
<path d="M704.145 324.144C729.653 324.385 753.445 316.598 756.734 347.825C757.573 357.995 757.214 367.701 755.813 377.685C750.137 403.258 728.155 395.229 703.77 395.657" stroke="black" stroke-width="1.00157" stroke-miterlimit="22.9256" stroke-linecap="round" stroke-linejoin="round"/>
<path fill-rule="evenodd" clip-rule="evenodd" d="M722.933 328.095C719.568 328.024 716.316 330.53 714.778 333.316C714.778 351.869 714.778 369.536 714.778 388.089C715.356 390.709 717.171 391.297 721.108 392.185C756.938 393.526 749.336 369.007 749.961 346.764C748.37 330.661 736.816 328.801 722.933 328.095Z" stroke="black" stroke-width="1.00157" stroke-miterlimit="22.9256"/>
<path d="M723.705 360.602C723.705 362.624 722.067 364.262 720.045 364.262C718.024 364.262 716.385 362.624 716.385 360.602C716.385 358.581 718.024 356.943 720.045 356.943C722.067 356.943 723.705 358.581 723.705 360.602Z" stroke="black" stroke-width="1.13935" stroke-miterlimit="22.9256"/>
<path fill-rule="evenodd" clip-rule="evenodd" d="M721.291 336.568C718.603 336.517 716.006 338.307 714.778 340.296C714.778 353.542 714.778 366.157 714.778 379.404C715.239 381.275 716.689 381.694 719.833 382.328C748.087 384.671 742.754 368.224 742.877 349.898C742.654 337.896 731.896 336.568 721.291 336.568Z" stroke="black" stroke-width="1.00157" stroke-miterlimit="22.9256"/>
<path d="M679.375 436.773L669.933 437.822" stroke="black" stroke-width="1.00157" stroke-miterlimit="22.9256"/>
<path d="M678.997 469.226L669.558 468.176" stroke="black" stroke-width="1.00157" stroke-miterlimit="22.9256"/>
<path d="M636.31 421.588C643.791 421.588 651.273 421.587 658.754 421.587C664.333 421.571 668.369 424.462 670.029 431.552C669.941 444.169 669.853 456.786 669.765 469.403C670.28 479.276 666.004 483.381 658.754 483.992H635.955" stroke="black" stroke-width="1.00157" stroke-miterlimit="22.9256"/>
<path fill-rule="evenodd" clip-rule="evenodd" d="M698.24 476.484C690.788 477.704 684.325 476.022 679.362 469.929C678.422 467.465 677.686 465.047 677.147 462.675C675.048 453.442 675.921 444.878 679.363 436.891C683.775 431.521 689.533 429.015 696.787 429.691C707.619 430.747 718.133 434.652 728.131 443.185C734.196 449.148 734.693 455.896 728.131 463.636C719.425 470.642 709.407 474.808 698.24 476.484Z" stroke="black" stroke-width="1.00157" stroke-miterlimit="22.9256"/>
<path fill-rule="evenodd" clip-rule="evenodd" d="M1322.55 520.815V441.093C1322.55 438.124 1324.96 435.716 1327.93 435.716H1408.7C1411.67 435.716 1414.07 438.124 1414.07 441.093L1414.07 520.815C1414.07 523.784 1411.67 526.193 1408.7 526.193H1327.93C1324.96 526.193 1322.55 523.784 1322.55 520.815L1322.55 520.815Z" stroke="black" stroke-width="1.00157" stroke-miterlimit="22.9256" stroke-linecap="round" stroke-linejoin="round"/>
<path d="M1329.83 440.043L1329.83 521.537L1407.2 521.537L1407.2 440.043L1329.83 440.043Z" stroke="black" stroke-width="0.941088" stroke-miterlimit="22.9256" stroke-linecap="round" stroke-linejoin="round"/>
<path d="M1348.74 507.473C1348.74 504.296 1346.17 501.72 1342.99 501.72C1339.81 501.72 1337.24 504.296 1337.24 507.473C1337.24 510.651 1339.81 513.226 1342.99 513.226C1346.17 513.226 1348.74 510.651 1348.74 507.473Z" stroke="black" stroke-width="0.829045" stroke-miterlimit="22.9256"/>
<path d="M1270.28 469.008L1269.39 460.973" stroke="black" stroke-width="1.00157" stroke-miterlimit="22.9256"/>
<path d="M1242.66 468.687L1243.56 460.654" stroke="black" stroke-width="1.00157" stroke-miterlimit="22.9256"/>
<path d="M1283.2 432.36C1283.2 438.726 1283.21 445.093 1283.21 451.46C1283.22 456.208 1280.76 459.642 1274.72 461.055C1263.99 460.98 1253.25 460.905 1242.51 460.83C1234.11 461.269 1230.62 457.63 1230.1 451.46V432.057" stroke="black" stroke-width="1.00157" stroke-miterlimit="22.9256"/>
<path fill-rule="evenodd" clip-rule="evenodd" d="M1236.49 485.063C1235.45 478.721 1236.88 473.221 1242.07 468.997C1244.16 468.198 1246.22 467.571 1248.24 467.112C1256.1 465.326 1263.38 466.069 1270.18 468.998C1274.75 472.753 1276.88 477.653 1276.31 483.826C1275.41 493.044 1272.09 501.992 1264.82 510.5C1259.75 515.661 1254.01 516.084 1247.42 510.5C1241.46 503.091 1237.91 494.566 1236.49 485.063Z" stroke="black" stroke-width="1.00157" stroke-miterlimit="22.9256"/>
<path d="M1411.39 611.987C1388.76 611.773 1367.66 618.681 1364.74 590.981C1364 581.961 1364.32 573.351 1365.56 564.495C1370.59 541.811 1390.09 548.933 1411.72 548.553" stroke="black" stroke-width="1.00157" stroke-miterlimit="22.9256" stroke-linecap="round" stroke-linejoin="round"/>
<path fill-rule="evenodd" clip-rule="evenodd" d="M1394.73 608.483C1397.71 608.546 1400.6 606.322 1401.96 603.852C1401.96 587.395 1401.96 571.723 1401.96 555.266C1401.45 552.942 1399.84 552.42 1396.34 551.633C1364.56 550.443 1371.31 572.192 1370.75 591.923C1372.16 606.206 1382.41 607.857 1394.73 608.483Z" stroke="black" stroke-width="1.00157" stroke-miterlimit="22.9256"/>
<path d="M1394.04 579.647C1394.04 577.854 1395.49 576.401 1397.29 576.401C1399.08 576.401 1400.53 577.854 1400.53 579.647C1400.53 581.44 1399.08 582.894 1397.29 582.894C1395.49 582.894 1394.04 581.44 1394.04 579.647Z" stroke="black" stroke-width="1.01065" stroke-miterlimit="22.9256"/>
<path fill-rule="evenodd" clip-rule="evenodd" d="M1396.18 600.967C1398.57 601.012 1400.87 599.425 1401.96 597.66C1401.96 585.91 1401.96 574.72 1401.96 562.97C1401.55 561.311 1400.26 560.938 1397.48 560.376C1372.41 558.298 1377.14 572.887 1377.03 589.143C1377.23 599.789 1386.78 600.967 1396.18 600.967Z" stroke="black" stroke-width="1.00157" stroke-miterlimit="22.9256"/>
<path d="M981.948 983.056L981.948 903.186L904.832 903.186L904.832 983.056L981.948 983.056Z" stroke="black" stroke-width="0.730637" stroke-miterlimit="22.9256" stroke-linejoin="round"/>
<path d="M954.775 964.713C954.775 970.306 959.309 974.84 964.902 974.84C970.495 974.84 975.029 970.306 975.029 964.713C975.029 959.12 970.495 954.586 964.902 954.586C959.309 954.586 954.775 959.12 954.775 964.713Z" stroke="black" stroke-width="0.467486" stroke-miterlimit="22.9256" stroke-linejoin="round"/>
<path d="M977.73 965.442V964.683L951.911 964.683V965.442L977.73 965.442Z" fill="black"/>
<path d="M965.201 952.154H964.442V977.973H965.201V952.154Z" fill="black"/>
<path d="M954.9 924.518C954.9 930.111 959.434 934.645 965.027 934.645C970.62 934.645 975.154 930.111 975.154 924.518C975.154 918.925 970.62 914.391 965.027 914.391C959.434 914.391 954.9 918.925 954.9 924.518Z" stroke="black" stroke-width="0.467486" stroke-miterlimit="22.9256" stroke-linejoin="round"/>
<path d="M977.854 925.247V924.487L952.036 924.487V925.247L977.854 925.247Z" fill="black"/>
<path d="M965.325 911.958H964.566V937.777H965.325V911.958Z" fill="black"/>
<path d="M914.205 924.767C914.205 930.36 918.74 934.894 924.333 934.894C929.926 934.894 934.46 930.36 934.46 924.767C934.46 919.174 929.926 914.64 924.333 914.64C918.74 914.64 914.205 919.174 914.205 924.767Z" stroke="black" stroke-width="0.467486" stroke-miterlimit="22.9256" stroke-linejoin="round"/>
<path d="M937.16 925.497V924.737L911.341 924.737V925.497L937.16 925.497Z" fill="black"/>
<path d="M924.63 912.206H923.87V938.025H924.63V912.206Z" fill="black"/>
<path d="M914.863 964.883C914.863 970.476 919.397 975.01 924.99 975.01C930.583 975.01 935.117 970.476 935.117 964.883C935.117 959.29 930.583 954.756 924.99 954.756C919.397 954.756 914.863 959.29 914.863 964.883Z" stroke="black" stroke-width="0.467486" stroke-miterlimit="22.9256" stroke-linejoin="round"/>
<path d="M937.822 965.612V964.853L912.003 964.853V965.612L937.822 965.612Z" fill="black"/>
<path d="M925.289 952.325H924.53V978.144H925.289V952.325Z" fill="black"/>
<path fill-rule="evenodd" clip-rule="evenodd" d="M983.668 1017.56V1088.03C983.668 1090.66 981.539 1092.79 978.914 1092.79H907.514C904.889 1092.79 902.76 1090.66 902.76 1088.03L902.76 1017.56C902.76 1014.93 904.889 1012.8 907.514 1012.8L978.914 1012.8C981.539 1012.8 983.668 1014.93 983.668 1017.56H983.668Z" stroke="black" stroke-width="1.00006" stroke-miterlimit="22.9256" stroke-linecap="round" stroke-linejoin="round"/>
<path d="M969.796 1085.85L969.796 1020.2L911.543 1020.2L911.543 1085.85L969.796 1085.85Z" stroke="black" stroke-width="0.731789" stroke-miterlimit="22.9256" stroke-linecap="round" stroke-linejoin="round"/>
<path d="M952.692 1068.28C952.692 1071.09 954.969 1073.37 957.778 1073.37C960.586 1073.37 962.863 1071.09 962.863 1068.28C962.863 1065.47 960.586 1063.2 957.778 1063.2C954.969 1063.2 952.692 1065.47 952.692 1068.28Z" stroke="black" stroke-width="0.731789" stroke-miterlimit="22.9256"/>
<path d="M356.966 1117.46C355.534 1117.44 354.102 1117.17 352.671 1116.64C351.239 1116.12 349.932 1115.24 348.75 1114C347.568 1112.75 346.619 1111.06 345.904 1108.94C345.188 1106.8 344.83 1104.12 344.83 1100.89C344.83 1097.8 345.119 1095.06 345.699 1092.68C346.279 1090.28 347.119 1088.26 348.222 1086.63C349.324 1084.98 350.654 1083.73 352.21 1082.88C353.779 1082.02 355.546 1081.6 357.511 1081.6C359.466 1081.6 361.205 1081.99 362.727 1082.77C364.261 1083.55 365.511 1084.63 366.477 1086.01C367.443 1087.4 368.068 1089 368.352 1090.8H364.193C363.807 1089.24 363.057 1087.93 361.943 1086.9C360.83 1085.87 359.352 1085.35 357.511 1085.35C354.807 1085.35 352.676 1086.52 351.119 1088.88C349.574 1091.23 348.796 1094.53 348.784 1098.78H349.057C349.693 1097.81 350.449 1096.99 351.324 1096.31C352.21 1095.62 353.188 1095.08 354.256 1094.71C355.324 1094.33 356.455 1094.14 357.648 1094.14C359.648 1094.14 361.477 1094.64 363.136 1095.64C364.796 1096.63 366.125 1098 367.125 1099.75C368.125 1101.49 368.625 1103.49 368.625 1105.74C368.625 1107.89 368.142 1109.87 367.176 1111.67C366.21 1113.45 364.852 1114.87 363.102 1115.93C361.364 1116.97 359.318 1117.49 356.966 1117.46ZM356.966 1113.71C358.398 1113.71 359.682 1113.35 360.818 1112.64C361.966 1111.92 362.869 1110.96 363.529 1109.76C364.199 1108.55 364.534 1107.21 364.534 1105.74C364.534 1104.29 364.21 1102.98 363.563 1101.8C362.926 1100.6 362.046 1099.66 360.921 1098.95C359.807 1098.25 358.534 1097.89 357.102 1097.89C356.023 1097.89 355.017 1098.11 354.085 1098.54C353.154 1098.96 352.335 1099.54 351.631 1100.28C350.938 1101.02 350.392 1101.87 349.994 1102.82C349.597 1103.76 349.398 1104.76 349.398 1105.8C349.398 1107.19 349.722 1108.49 350.369 1109.69C351.029 1110.89 351.926 1111.87 353.063 1112.6C354.21 1113.34 355.511 1113.71 356.966 1113.71ZM376.688 1117.26C375.847 1117.26 375.125 1116.96 374.523 1116.35C373.921 1115.75 373.619 1115.03 373.619 1114.19C373.619 1113.35 373.921 1112.63 374.523 1112.02C375.125 1111.42 375.847 1111.12 376.688 1111.12C377.529 1111.12 378.25 1111.42 378.852 1112.02C379.455 1112.63 379.756 1113.35 379.756 1114.19C379.756 1114.75 379.614 1115.26 379.33 1115.72C379.057 1116.19 378.688 1116.56 378.222 1116.85C377.767 1117.12 377.256 1117.26 376.688 1117.26ZM397.389 1117.46C395.139 1117.46 393.134 1117.08 391.372 1116.3C389.622 1115.53 388.23 1114.46 387.196 1113.08C386.173 1111.7 385.617 1110.09 385.526 1108.26H389.821C389.912 1109.38 390.298 1110.35 390.98 1111.17C391.662 1111.98 392.554 1112.6 393.656 1113.05C394.759 1113.49 395.98 1113.71 397.321 1113.71C398.821 1113.71 400.151 1113.45 401.31 1112.93C402.469 1112.41 403.378 1111.68 404.037 1110.75C404.696 1109.81 405.026 1108.74 405.026 1107.51C405.026 1106.22 404.707 1105.09 404.071 1104.12C403.435 1103.13 402.503 1102.35 401.276 1101.8C400.048 1101.24 398.548 1100.96 396.776 1100.96H393.98V1097.21H396.776C398.162 1097.21 399.378 1096.96 400.423 1096.46C401.48 1095.96 402.304 1095.26 402.895 1094.35C403.497 1093.44 403.798 1092.37 403.798 1091.14C403.798 1089.96 403.537 1088.93 403.014 1088.06C402.492 1087.18 401.753 1086.5 400.798 1086.01C399.855 1085.52 398.742 1085.28 397.457 1085.28C396.253 1085.28 395.117 1085.5 394.048 1085.95C392.992 1086.38 392.128 1087.01 391.457 1087.84C390.787 1088.66 390.423 1089.64 390.367 1090.8H386.276C386.344 1088.97 386.895 1087.37 387.929 1086C388.963 1084.61 390.315 1083.53 391.986 1082.76C393.668 1081.99 395.514 1081.6 397.526 1081.6C399.685 1081.6 401.537 1082.04 403.082 1082.91C404.628 1083.77 405.815 1084.92 406.645 1086.34C407.475 1087.76 407.889 1089.29 407.889 1090.94C407.889 1092.91 407.372 1094.58 406.338 1095.97C405.315 1097.35 403.923 1098.31 402.162 1098.85V1099.12C404.367 1099.49 406.088 1100.42 407.327 1101.93C408.565 1103.43 409.185 1105.29 409.185 1107.51C409.185 1109.41 408.668 1111.11 407.634 1112.62C406.611 1114.12 405.213 1115.3 403.44 1116.17C401.668 1117.03 399.651 1117.46 397.389 1117.46ZM427.543 1117.46C424.975 1117.46 422.787 1116.76 420.98 1115.37C419.173 1113.96 417.793 1111.92 416.838 1109.25C415.884 1106.56 415.406 1103.33 415.406 1099.53C415.406 1095.76 415.884 1092.54 416.838 1089.87C417.804 1087.18 419.19 1085.14 420.997 1083.73C422.815 1082.31 424.997 1081.6 427.543 1081.6C430.088 1081.6 432.264 1082.31 434.071 1083.73C435.889 1085.14 437.276 1087.18 438.23 1089.87C439.196 1092.54 439.679 1095.76 439.679 1099.53C439.679 1103.33 439.202 1106.56 438.247 1109.25C437.293 1111.92 435.912 1113.96 434.105 1115.37C432.298 1116.76 430.111 1117.46 427.543 1117.46ZM427.543 1113.71C430.088 1113.71 432.065 1112.49 433.475 1110.03C434.884 1107.58 435.588 1104.08 435.588 1099.53C435.588 1096.51 435.264 1093.93 434.617 1091.81C433.98 1089.68 433.06 1088.06 431.855 1086.95C430.662 1085.84 429.225 1085.28 427.543 1085.28C425.02 1085.28 423.048 1086.52 421.628 1089.01C420.207 1091.49 419.497 1095 419.497 1099.53C419.497 1102.55 419.815 1105.12 420.452 1107.24C421.088 1109.35 422.003 1110.96 423.196 1112.06C424.401 1113.16 425.85 1113.71 427.543 1113.71Z" fill="black"/>
<path d="M1258.93 1011.38V1046.29H1254.7V1015.81H1254.5L1245.97 1021.47V1017.18L1254.7 1011.38H1258.93ZM1280.56 1046.77C1279.13 1046.74 1277.69 1046.47 1276.26 1045.95C1274.83 1045.43 1273.52 1044.55 1272.34 1043.31C1271.16 1042.06 1270.21 1040.37 1269.5 1038.24C1268.78 1036.11 1268.42 1033.43 1268.42 1030.2C1268.42 1027.11 1268.71 1024.37 1269.29 1021.98C1269.87 1019.59 1270.71 1017.57 1271.81 1015.93C1272.92 1014.28 1274.25 1013.03 1275.8 1012.18C1277.37 1011.33 1279.14 1010.9 1281.1 1010.9C1283.06 1010.9 1284.8 1011.3 1286.32 1012.08C1287.85 1012.85 1289.1 1013.93 1290.07 1015.32C1291.04 1016.7 1291.66 1018.3 1291.94 1020.11H1287.79C1287.4 1018.54 1286.65 1017.24 1285.54 1016.2C1284.42 1015.17 1282.94 1014.65 1281.1 1014.65C1278.4 1014.65 1276.27 1015.83 1274.71 1018.18C1273.17 1020.53 1272.39 1023.84 1272.38 1028.09H1272.65C1273.29 1027.12 1274.04 1026.3 1274.92 1025.61C1275.8 1024.92 1276.78 1024.39 1277.85 1024.01C1278.92 1023.64 1280.05 1023.45 1281.24 1023.45C1283.24 1023.45 1285.07 1023.95 1286.73 1024.95C1288.39 1025.94 1289.72 1027.31 1290.72 1029.06C1291.72 1030.8 1292.22 1032.79 1292.22 1035.04C1292.22 1037.2 1291.73 1039.18 1290.77 1040.97C1289.8 1042.76 1288.44 1044.18 1286.69 1045.23C1284.96 1046.28 1282.91 1046.79 1280.56 1046.77ZM1280.56 1043.02C1281.99 1043.02 1283.27 1042.66 1284.41 1041.94C1285.56 1041.23 1286.46 1040.27 1287.12 1039.06C1287.79 1037.86 1288.13 1036.52 1288.13 1035.04C1288.13 1033.6 1287.8 1032.28 1287.15 1031.1C1286.52 1029.91 1285.64 1028.96 1284.51 1028.26C1283.4 1027.55 1282.13 1027.2 1280.69 1027.2C1279.62 1027.2 1278.61 1027.41 1277.68 1027.85C1276.75 1028.27 1275.93 1028.85 1275.22 1029.59C1274.53 1030.32 1273.98 1031.17 1273.59 1032.12C1273.19 1033.07 1272.99 1034.06 1272.99 1035.11C1272.99 1036.49 1273.31 1037.79 1273.96 1038.99C1274.62 1040.2 1275.52 1041.17 1276.65 1041.91C1277.8 1042.65 1279.1 1043.02 1280.56 1043.02ZM1300.28 1046.56C1299.44 1046.56 1298.72 1046.26 1298.12 1045.66C1297.51 1045.06 1297.21 1044.34 1297.21 1043.49C1297.21 1042.65 1297.51 1041.93 1298.12 1041.33C1298.72 1040.73 1299.44 1040.43 1300.28 1040.43C1301.12 1040.43 1301.84 1040.73 1302.44 1041.33C1303.05 1041.93 1303.35 1042.65 1303.35 1043.49C1303.35 1044.05 1303.21 1044.56 1302.92 1045.03C1302.65 1045.49 1302.28 1045.87 1301.81 1046.15C1301.36 1046.43 1300.85 1046.56 1300.28 1046.56ZM1320.98 1046.77C1318.73 1046.77 1316.73 1046.38 1314.96 1045.61C1313.21 1044.84 1311.82 1043.76 1310.79 1042.39C1309.77 1041 1309.21 1039.39 1309.12 1037.56H1313.41C1313.5 1038.69 1313.89 1039.66 1314.57 1040.48C1315.25 1041.28 1316.15 1041.91 1317.25 1042.35C1318.35 1042.8 1319.57 1043.02 1320.91 1043.02C1322.41 1043.02 1323.74 1042.76 1324.9 1042.23C1326.06 1041.71 1326.97 1040.98 1327.63 1040.05C1328.29 1039.12 1328.62 1038.04 1328.62 1036.81C1328.62 1035.53 1328.3 1034.4 1327.66 1033.42C1327.03 1032.43 1326.1 1031.66 1324.87 1031.1C1323.64 1030.55 1322.14 1030.27 1320.37 1030.27H1317.57V1026.52H1320.37C1321.75 1026.52 1322.97 1026.27 1324.02 1025.77C1325.07 1025.27 1325.9 1024.56 1326.49 1023.65C1327.09 1022.74 1327.39 1021.68 1327.39 1020.45C1327.39 1019.27 1327.13 1018.24 1326.61 1017.36C1326.08 1016.49 1325.35 1015.81 1324.39 1015.32C1323.45 1014.83 1322.33 1014.59 1321.05 1014.59C1319.85 1014.59 1318.71 1014.81 1317.64 1015.25C1316.58 1015.68 1315.72 1016.31 1315.05 1017.14C1314.38 1017.96 1314.02 1018.95 1313.96 1020.11H1309.87C1309.94 1018.28 1310.49 1016.68 1311.52 1015.3C1312.56 1013.91 1313.91 1012.84 1315.58 1012.06C1317.26 1011.29 1319.11 1010.9 1321.12 1010.9C1323.28 1010.9 1325.13 1011.34 1326.67 1012.22C1328.22 1013.08 1329.41 1014.22 1330.24 1015.64C1331.07 1017.06 1331.48 1018.6 1331.48 1020.24C1331.48 1022.21 1330.96 1023.89 1329.93 1025.27C1328.91 1026.66 1327.52 1027.62 1325.75 1028.15V1028.43C1327.96 1028.79 1329.68 1029.73 1330.92 1031.24C1332.16 1032.74 1332.78 1034.6 1332.78 1036.81C1332.78 1038.71 1332.26 1040.41 1331.23 1041.93C1330.2 1043.43 1328.81 1044.61 1327.03 1045.47C1325.26 1046.34 1323.24 1046.77 1320.98 1046.77ZM1351.14 1046.77C1348.57 1046.77 1346.38 1046.07 1344.57 1044.67C1342.77 1043.26 1341.39 1041.22 1340.43 1038.55C1339.48 1035.87 1339 1032.63 1339 1028.84C1339 1025.06 1339.48 1021.84 1340.43 1019.17C1341.4 1016.49 1342.78 1014.44 1344.59 1013.03C1346.41 1011.61 1348.59 1010.9 1351.14 1010.9C1353.68 1010.9 1355.86 1011.61 1357.66 1013.03C1359.48 1014.44 1360.87 1016.49 1361.82 1019.17C1362.79 1021.84 1363.27 1025.06 1363.27 1028.84C1363.27 1032.63 1362.79 1035.87 1361.84 1038.55C1360.89 1041.22 1359.5 1043.26 1357.7 1044.67C1355.89 1046.07 1353.7 1046.77 1351.14 1046.77ZM1351.14 1043.02C1353.68 1043.02 1355.66 1041.79 1357.07 1039.34C1358.48 1036.88 1359.18 1033.38 1359.18 1028.84C1359.18 1025.81 1358.86 1023.24 1358.21 1021.11C1357.57 1018.99 1356.65 1017.37 1355.45 1016.26C1354.25 1015.14 1352.82 1014.59 1351.14 1014.59C1348.61 1014.59 1346.64 1015.83 1345.22 1018.32C1343.8 1020.8 1343.09 1024.3 1343.09 1028.84C1343.09 1031.86 1343.41 1034.43 1344.04 1036.54C1344.68 1038.65 1345.6 1040.26 1346.79 1041.36C1347.99 1042.47 1349.44 1043.02 1351.14 1043.02Z" fill="black"/>
<path d="M579.572 712.983V747.892H575.345V717.415H575.14L566.618 723.074V718.779L575.345 712.983H579.572ZM590.703 747.892L606.317 717.006V716.733H588.317V712.983H610.68V716.938L595.135 747.892H590.703ZM614.034 748.165C613.193 748.165 612.471 747.864 611.869 747.262C611.267 746.659 610.966 745.938 610.966 745.097C610.966 744.256 611.267 743.534 611.869 742.932C612.471 742.33 613.193 742.029 614.034 742.029C614.875 742.029 615.596 742.33 616.199 742.932C616.801 743.534 617.102 744.256 617.102 745.097C617.102 745.654 616.96 746.165 616.676 746.631C616.403 747.097 616.034 747.472 615.568 747.756C615.113 748.029 614.602 748.165 614.034 748.165ZM632.354 712.983V747.892H628.126V717.415H627.922L619.399 723.074V718.779L628.126 712.983H632.354ZM653.78 748.369C651.211 748.369 649.024 747.671 647.217 746.273C645.41 744.864 644.03 742.824 643.075 740.154C642.121 737.472 641.643 734.233 641.643 730.438C641.643 726.665 642.121 723.443 643.075 720.773C644.041 718.091 645.427 716.046 647.234 714.637C649.052 713.216 651.234 712.506 653.78 712.506C656.325 712.506 658.501 713.216 660.308 714.637C662.126 716.046 663.513 718.091 664.467 720.773C665.433 723.443 665.916 726.665 665.916 730.438C665.916 734.233 665.439 737.472 664.484 740.154C663.53 742.824 662.149 744.864 660.342 746.273C658.535 747.671 656.348 748.369 653.78 748.369ZM653.78 744.619C656.325 744.619 658.302 743.392 659.711 740.938C661.121 738.483 661.825 734.983 661.825 730.438C661.825 727.415 661.501 724.841 660.854 722.716C660.217 720.591 659.297 718.972 658.092 717.858C656.899 716.744 655.461 716.188 653.78 716.188C651.257 716.188 649.285 717.432 647.865 719.921C646.444 722.398 645.734 725.904 645.734 730.438C645.734 733.46 646.052 736.029 646.689 738.142C647.325 740.256 648.24 741.864 649.433 742.966C650.638 744.068 652.086 744.619 653.78 744.619Z" fill="black"/>
<path d="M277.008 743.749V778.658H272.781V748.181H272.576L264.053 753.84V749.544L272.781 743.749H277.008ZM287.048 778.658V775.59L298.57 762.976C299.923 761.499 301.036 760.215 301.911 759.124C302.786 758.022 303.434 756.988 303.854 756.022C304.286 755.044 304.502 754.022 304.502 752.953C304.502 751.726 304.207 750.664 303.616 749.766C303.036 748.868 302.241 748.175 301.229 747.686C300.218 747.198 299.082 746.953 297.82 746.953C296.479 746.953 295.309 747.232 294.309 747.789C293.32 748.334 292.553 749.101 292.008 750.09C291.474 751.078 291.207 752.238 291.207 753.567H287.184C287.184 751.522 287.656 749.726 288.599 748.181C289.542 746.635 290.826 745.431 292.451 744.567C294.087 743.703 295.923 743.272 297.957 743.272C300.002 743.272 301.815 743.703 303.394 744.567C304.974 745.431 306.212 746.595 307.11 748.061C308.008 749.527 308.457 751.158 308.457 752.953C308.457 754.238 308.224 755.493 307.758 756.72C307.303 757.936 306.508 759.294 305.371 760.794C304.246 762.283 302.684 764.101 300.684 766.249L292.843 774.635V774.908H309.07V778.658H287.048ZM319.11 778.931C318.269 778.931 317.548 778.63 316.945 778.027C316.343 777.425 316.042 776.703 316.042 775.863C316.042 775.022 316.343 774.3 316.945 773.698C317.548 773.095 318.269 772.794 319.11 772.794C319.951 772.794 320.673 773.095 321.275 773.698C321.877 774.3 322.178 775.022 322.178 775.863C322.178 776.419 322.036 776.931 321.752 777.397C321.479 777.863 321.11 778.238 320.644 778.522C320.19 778.794 319.678 778.931 319.11 778.931ZM339.496 779.135C336.928 779.135 334.741 778.436 332.934 777.039C331.127 775.63 329.746 773.59 328.792 770.919C327.837 768.238 327.36 764.999 327.36 761.203C327.36 757.431 327.837 754.209 328.792 751.539C329.758 748.857 331.144 746.811 332.951 745.402C334.769 743.982 336.951 743.272 339.496 743.272C342.042 743.272 344.218 743.982 346.025 745.402C347.843 746.811 349.229 748.857 350.184 751.539C351.15 754.209 351.633 757.431 351.633 761.203C351.633 764.999 351.156 768.238 350.201 770.919C349.246 773.59 347.866 775.63 346.059 777.039C344.252 778.436 342.065 779.135 339.496 779.135ZM339.496 775.385C342.042 775.385 344.019 774.158 345.428 771.703C346.837 769.249 347.542 765.749 347.542 761.203C347.542 758.181 347.218 755.607 346.57 753.482C345.934 751.357 345.014 749.738 343.809 748.624C342.616 747.51 341.178 746.953 339.496 746.953C336.974 746.953 335.002 748.198 333.582 750.686C332.161 753.164 331.451 756.669 331.451 761.203C331.451 764.226 331.769 766.794 332.406 768.908C333.042 771.022 333.957 772.63 335.15 773.732C336.354 774.834 337.803 775.385 339.496 775.385ZM369.496 779.135C366.928 779.135 364.741 778.436 362.934 777.039C361.127 775.63 359.746 773.59 358.792 770.919C357.837 768.238 357.36 764.999 357.36 761.203C357.36 757.431 357.837 754.209 358.792 751.539C359.758 748.857 361.144 746.811 362.951 745.402C364.769 743.982 366.951 743.272 369.496 743.272C372.042 743.272 374.218 743.982 376.025 745.402C377.843 746.811 379.229 748.857 380.184 751.539C381.15 754.209 381.633 757.431 381.633 761.203C381.633 764.999 381.156 768.238 380.201 770.919C379.246 773.59 377.866 775.63 376.059 777.039C374.252 778.436 372.065 779.135 369.496 779.135ZM369.496 775.385C372.042 775.385 374.019 774.158 375.428 771.703C376.837 769.249 377.542 765.749 377.542 761.203C377.542 758.181 377.218 755.607 376.57 753.482C375.934 751.357 375.014 749.738 373.809 748.624C372.616 747.51 371.178 746.953 369.496 746.953C366.974 746.953 365.002 748.198 363.582 750.686C362.161 753.164 361.451 756.669 361.451 761.203C361.451 764.226 361.769 766.794 362.406 768.908C363.042 771.022 363.957 772.63 365.15 773.732C366.354 774.834 367.803 775.385 369.496 775.385Z" fill="black"/>
<path d="M248.252 286.383V321.292H244.025V290.814H243.821L235.298 296.473V292.178L244.025 286.383H248.252ZM258.292 321.292V318.223L269.815 305.61C271.167 304.133 272.281 302.848 273.156 301.758C274.031 300.655 274.679 299.621 275.099 298.655C275.531 297.678 275.747 296.655 275.747 295.587C275.747 294.36 275.451 293.297 274.86 292.4C274.281 291.502 273.485 290.809 272.474 290.32C271.463 289.831 270.326 289.587 269.065 289.587C267.724 289.587 266.554 289.865 265.554 290.422C264.565 290.968 263.798 291.735 263.252 292.723C262.718 293.712 262.451 294.871 262.451 296.201H258.429C258.429 294.155 258.9 292.36 259.843 290.814C260.787 289.269 262.071 288.064 263.696 287.201C265.332 286.337 267.167 285.905 269.201 285.905C271.247 285.905 273.059 286.337 274.639 287.201C276.218 288.064 277.457 289.229 278.355 290.695C279.252 292.161 279.701 293.792 279.701 295.587C279.701 296.871 279.468 298.127 279.002 299.354C278.548 300.57 277.752 301.928 276.616 303.428C275.491 304.917 273.929 306.735 271.929 308.883L264.088 317.269V317.542H280.315V321.292H258.292ZM290.355 321.564C289.514 321.564 288.792 321.263 288.19 320.661C287.588 320.059 287.287 319.337 287.287 318.496C287.287 317.655 287.588 316.934 288.19 316.331C288.792 315.729 289.514 315.428 290.355 315.428C291.196 315.428 291.917 315.729 292.519 316.331C293.122 316.934 293.423 317.655 293.423 318.496C293.423 319.053 293.281 319.564 292.997 320.03C292.724 320.496 292.355 320.871 291.889 321.155C291.434 321.428 290.923 321.564 290.355 321.564ZM310.677 321.769C308.336 321.769 306.268 321.354 304.473 320.525C302.689 319.684 301.296 318.53 300.296 317.064C299.296 315.587 298.802 313.905 298.814 312.019C298.802 310.542 299.092 309.178 299.683 307.928C300.274 306.667 301.081 305.615 302.103 304.775C303.137 303.922 304.291 303.383 305.564 303.155V302.951C303.893 302.519 302.564 301.581 301.575 300.138C300.586 298.684 300.098 297.03 300.109 295.178C300.098 293.405 300.546 291.82 301.456 290.422C302.365 289.025 303.615 287.922 305.206 287.115C306.808 286.309 308.632 285.905 310.677 285.905C312.7 285.905 314.507 286.309 316.098 287.115C317.689 287.922 318.939 289.025 319.848 290.422C320.768 291.82 321.234 293.405 321.245 295.178C321.234 297.03 320.728 298.684 319.728 300.138C318.74 301.581 317.427 302.519 315.791 302.951V303.155C317.052 303.383 318.189 303.922 319.2 304.775C320.211 305.615 321.018 306.667 321.62 307.928C322.223 309.178 322.529 310.542 322.541 312.019C322.529 313.905 322.018 315.587 321.007 317.064C320.007 318.53 318.615 319.684 316.831 320.525C315.058 321.354 313.007 321.769 310.677 321.769ZM310.677 318.019C312.257 318.019 313.62 317.763 314.768 317.252C315.916 316.74 316.802 316.019 317.427 315.087C318.052 314.155 318.37 313.064 318.382 311.814C318.37 310.496 318.029 309.331 317.359 308.32C316.689 307.309 315.774 306.513 314.615 305.934C313.467 305.354 312.154 305.064 310.677 305.064C309.189 305.064 307.859 305.354 306.689 305.934C305.529 306.513 304.615 307.309 303.944 308.32C303.285 309.331 302.961 310.496 302.973 311.814C302.961 313.064 303.262 314.155 303.876 315.087C304.501 316.019 305.393 316.74 306.552 317.252C307.711 317.763 309.086 318.019 310.677 318.019ZM310.677 301.451C311.927 301.451 313.035 301.201 314.001 300.701C314.978 300.201 315.745 299.502 316.302 298.604C316.859 297.706 317.143 296.655 317.154 295.451C317.143 294.269 316.865 293.24 316.319 292.365C315.774 291.479 315.018 290.797 314.052 290.32C313.086 289.831 311.961 289.587 310.677 289.587C309.37 289.587 308.228 289.831 307.251 290.32C306.274 290.797 305.518 291.479 304.984 292.365C304.45 293.24 304.189 294.269 304.2 295.451C304.189 296.655 304.456 297.706 305.001 298.604C305.558 299.502 306.325 300.201 307.302 300.701C308.279 301.201 309.404 301.451 310.677 301.451ZM340.46 321.769C337.892 321.769 335.704 321.07 333.897 319.672C332.091 318.263 330.71 316.223 329.755 313.553C328.801 310.871 328.323 307.633 328.323 303.837C328.323 300.064 328.801 296.843 329.755 294.172C330.721 291.49 332.108 289.445 333.914 288.036C335.733 286.615 337.914 285.905 340.46 285.905C343.005 285.905 345.181 286.615 346.988 288.036C348.806 289.445 350.193 291.49 351.147 294.172C352.113 296.843 352.596 300.064 352.596 303.837C352.596 307.633 352.119 310.871 351.164 313.553C350.21 316.223 348.829 318.263 347.022 319.672C345.216 321.07 343.028 321.769 340.46 321.769ZM340.46 318.019C343.005 318.019 344.983 316.792 346.392 314.337C347.801 311.883 348.505 308.383 348.505 303.837C348.505 300.814 348.181 298.24 347.534 296.115C346.897 293.99 345.977 292.371 344.772 291.258C343.579 290.144 342.142 289.587 340.46 289.587C337.937 289.587 335.966 290.831 334.545 293.32C333.125 295.797 332.414 299.303 332.414 303.837C332.414 306.86 332.733 309.428 333.369 311.542C334.005 313.655 334.92 315.263 336.113 316.365C337.318 317.468 338.767 318.019 340.46 318.019Z" fill="black"/>
<path d="M1280.73 573.168C1278.48 573.168 1276.47 572.782 1274.71 572.009C1272.96 571.237 1271.57 570.163 1270.54 568.788C1269.51 567.401 1268.96 565.793 1268.87 563.964H1273.16C1273.25 565.089 1273.64 566.06 1274.32 566.879C1275 567.685 1275.89 568.31 1277 568.754C1278.1 569.197 1279.32 569.418 1280.66 569.418C1282.16 569.418 1283.49 569.157 1284.65 568.634C1285.81 568.112 1286.72 567.384 1287.38 566.453C1288.04 565.521 1288.37 564.441 1288.37 563.214C1288.37 561.93 1288.05 560.799 1287.41 559.822C1286.77 558.833 1285.84 558.06 1284.62 557.504C1283.39 556.947 1281.89 556.668 1280.12 556.668H1277.32V552.918H1280.12C1281.5 552.918 1282.72 552.668 1283.76 552.168C1284.82 551.668 1285.64 550.964 1286.23 550.055C1286.84 549.146 1287.14 548.078 1287.14 546.85C1287.14 545.668 1286.88 544.64 1286.35 543.765C1285.83 542.89 1285.09 542.208 1284.14 541.72C1283.19 541.231 1282.08 540.987 1280.8 540.987C1279.59 540.987 1278.46 541.208 1277.39 541.651C1276.33 542.083 1275.47 542.714 1274.8 543.543C1274.13 544.362 1273.76 545.35 1273.71 546.509H1269.62C1269.68 544.68 1270.23 543.078 1271.27 541.703C1272.3 540.316 1273.65 539.237 1275.33 538.464C1277.01 537.691 1278.85 537.305 1280.87 537.305C1283.02 537.305 1284.88 537.742 1286.42 538.617C1287.97 539.481 1289.15 540.623 1289.98 542.043C1290.81 543.464 1291.23 544.998 1291.23 546.646C1291.23 548.612 1290.71 550.288 1289.68 551.674C1288.65 553.06 1287.26 554.021 1285.5 554.555V554.828C1287.71 555.191 1289.43 556.129 1290.67 557.64C1291.9 559.14 1292.52 560.998 1292.52 563.214C1292.52 565.112 1292.01 566.816 1290.97 568.328C1289.95 569.828 1288.55 571.009 1286.78 571.873C1285.01 572.737 1282.99 573.168 1280.73 573.168ZM1301.42 572.964C1300.58 572.964 1299.86 572.663 1299.25 572.06C1298.65 571.458 1298.35 570.737 1298.35 569.896C1298.35 569.055 1298.65 568.333 1299.25 567.731C1299.86 567.129 1300.58 566.828 1301.42 566.828C1302.26 566.828 1302.98 567.129 1303.58 567.731C1304.18 568.333 1304.49 569.055 1304.49 569.896C1304.49 570.453 1304.34 570.964 1304.06 571.43C1303.79 571.896 1303.42 572.271 1302.95 572.555C1302.5 572.828 1301.99 572.964 1301.42 572.964ZM1321.74 573.168C1319.4 573.168 1317.33 572.754 1315.54 571.924C1313.75 571.083 1312.36 569.93 1311.36 568.464C1310.36 566.987 1309.87 565.305 1309.88 563.418C1309.87 561.941 1310.15 560.578 1310.75 559.328C1311.34 558.066 1312.14 557.015 1313.17 556.174C1314.2 555.322 1315.35 554.782 1316.63 554.555V554.35C1314.96 553.918 1313.63 552.981 1312.64 551.538C1311.65 550.083 1311.16 548.43 1311.17 546.578C1311.16 544.805 1311.61 543.22 1312.52 541.822C1313.43 540.424 1314.68 539.322 1316.27 538.515C1317.87 537.708 1319.69 537.305 1321.74 537.305C1323.76 537.305 1325.57 537.708 1327.16 538.515C1328.75 539.322 1330 540.424 1330.91 541.822C1331.83 543.22 1332.3 544.805 1332.31 546.578C1332.3 548.43 1331.79 550.083 1330.79 551.538C1329.8 552.981 1328.49 553.918 1326.85 554.35V554.555C1328.12 554.782 1329.25 555.322 1330.26 556.174C1331.27 557.015 1332.08 558.066 1332.68 559.328C1333.29 560.578 1333.59 561.941 1333.6 563.418C1333.59 565.305 1333.08 566.987 1332.07 568.464C1331.07 569.93 1329.68 571.083 1327.89 571.924C1326.12 572.754 1324.07 573.168 1321.74 573.168ZM1321.74 569.418C1323.32 569.418 1324.68 569.163 1325.83 568.651C1326.98 568.14 1327.87 567.418 1328.49 566.487C1329.12 565.555 1329.43 564.464 1329.44 563.214C1329.43 561.896 1329.09 560.731 1328.42 559.72C1327.75 558.708 1326.84 557.913 1325.68 557.333C1324.53 556.754 1323.22 556.464 1321.74 556.464C1320.25 556.464 1318.92 556.754 1317.75 557.333C1316.59 557.913 1315.68 558.708 1315.01 559.72C1314.35 560.731 1314.02 561.896 1314.04 563.214C1314.02 564.464 1314.33 565.555 1314.94 566.487C1315.56 567.418 1316.46 568.14 1317.62 568.651C1318.77 569.163 1320.15 569.418 1321.74 569.418ZM1321.74 552.85C1322.99 552.85 1324.1 552.6 1325.06 552.1C1326.04 551.6 1326.81 550.901 1327.37 550.004C1327.92 549.106 1328.21 548.055 1328.22 546.85C1328.21 545.668 1327.93 544.64 1327.38 543.765C1326.84 542.879 1326.08 542.197 1325.12 541.72C1324.15 541.231 1323.02 540.987 1321.74 540.987C1320.43 540.987 1319.29 541.231 1318.31 541.72C1317.34 542.197 1316.58 542.879 1316.05 543.765C1315.51 544.64 1315.25 545.668 1315.26 546.85C1315.25 548.055 1315.52 549.106 1316.06 550.004C1316.62 550.901 1317.39 551.6 1318.37 552.1C1319.34 552.6 1320.47 552.85 1321.74 552.85ZM1351.52 573.168C1348.95 573.168 1346.77 572.47 1344.96 571.072C1343.15 569.663 1341.77 567.623 1340.82 564.953C1339.86 562.271 1339.39 559.032 1339.39 555.237C1339.39 551.464 1339.86 548.242 1340.82 545.572C1341.78 542.89 1343.17 540.845 1344.98 539.435C1346.8 538.015 1348.98 537.305 1351.52 537.305C1354.07 537.305 1356.24 538.015 1358.05 539.435C1359.87 540.845 1361.26 542.89 1362.21 545.572C1363.18 548.242 1363.66 551.464 1363.66 555.237C1363.66 559.032 1363.18 562.271 1362.23 564.953C1361.27 567.623 1359.89 569.663 1358.09 571.072C1356.28 572.47 1354.09 573.168 1351.52 573.168ZM1351.52 569.418C1354.07 569.418 1356.05 568.191 1357.45 565.737C1358.86 563.282 1359.57 559.782 1359.57 555.237C1359.57 552.214 1359.24 549.64 1358.6 547.515C1357.96 545.39 1357.04 543.771 1355.84 542.657C1354.64 541.543 1353.2 540.987 1351.52 540.987C1349 540.987 1347.03 542.231 1345.61 544.72C1344.19 547.197 1343.48 550.703 1343.48 555.237C1343.48 558.259 1343.8 560.828 1344.43 562.941C1345.07 565.055 1345.98 566.663 1347.18 567.765C1348.38 568.867 1349.83 569.418 1351.52 569.418Z" fill="black"/>
<path d="M899.427 526.028V560.938H895.2V530.46H894.995L886.473 536.119V531.824L895.2 526.028H899.427ZM920.853 561.415C918.285 561.415 916.098 560.716 914.291 559.318C912.484 557.909 911.103 555.869 910.149 553.199C909.194 550.517 908.717 547.278 908.717 543.483C908.717 539.71 909.194 536.489 910.149 533.818C911.115 531.136 912.501 529.091 914.308 527.682C916.126 526.261 918.308 525.551 920.853 525.551C923.399 525.551 925.575 526.261 927.382 527.682C929.2 529.091 930.586 531.136 931.541 533.818C932.507 536.489 932.99 539.71 932.99 543.483C932.99 547.278 932.512 550.517 931.558 553.199C930.603 555.869 929.223 557.909 927.416 559.318C925.609 560.716 923.422 561.415 920.853 561.415ZM920.853 557.665C923.399 557.665 925.376 556.437 926.785 553.983C928.194 551.528 928.899 548.028 928.899 543.483C928.899 540.46 928.575 537.886 927.927 535.761C927.291 533.636 926.37 532.017 925.166 530.903C923.973 529.79 922.535 529.233 920.853 529.233C918.331 529.233 916.359 530.477 914.939 532.966C913.518 535.443 912.808 538.949 912.808 543.483C912.808 546.506 913.126 549.074 913.762 551.188C914.399 553.301 915.314 554.909 916.507 556.011C917.711 557.114 919.16 557.665 920.853 557.665ZM941.248 561.21C940.407 561.21 939.686 560.909 939.083 560.307C938.481 559.705 938.18 558.983 938.18 558.142C938.18 557.301 938.481 556.58 939.083 555.977C939.686 555.375 940.407 555.074 941.248 555.074C942.089 555.074 942.811 555.375 943.413 555.977C944.015 556.58 944.316 557.301 944.316 558.142C944.316 558.699 944.174 559.21 943.89 559.676C943.618 560.142 943.248 560.517 942.782 560.801C942.328 561.074 941.816 561.21 941.248 561.21ZM961.673 561.415C959.673 561.415 957.872 561.017 956.27 560.222C954.667 559.426 953.383 558.335 952.417 556.949C951.451 555.562 950.923 553.983 950.832 552.21H954.923C955.082 553.79 955.798 555.097 957.071 556.131C958.355 557.153 959.889 557.665 961.673 557.665C963.105 557.665 964.377 557.33 965.491 556.659C966.616 555.989 967.497 555.068 968.133 553.898C968.781 552.716 969.105 551.381 969.105 549.892C969.105 548.369 968.77 547.011 968.099 545.818C967.44 544.614 966.531 543.665 965.372 542.972C964.213 542.278 962.889 541.926 961.4 541.915C960.332 541.903 959.235 542.068 958.11 542.409C956.985 542.739 956.059 543.165 955.332 543.688L951.377 543.21L953.491 526.028H971.627V529.778H957.037L955.809 540.074H956.014C956.73 539.506 957.627 539.034 958.707 538.659C959.787 538.284 960.912 538.097 962.082 538.097C964.218 538.097 966.122 538.608 967.792 539.631C969.474 540.642 970.792 542.028 971.747 543.79C972.713 545.551 973.196 547.562 973.196 549.824C973.196 552.051 972.696 554.04 971.696 555.79C970.707 557.528 969.343 558.903 967.605 559.915C965.866 560.915 963.889 561.415 961.673 561.415ZM991.353 561.415C988.785 561.415 986.598 560.716 984.791 559.318C982.984 557.909 981.603 555.869 980.649 553.199C979.694 550.517 979.217 547.278 979.217 543.483C979.217 539.71 979.694 536.489 980.649 533.818C981.615 531.136 983.001 529.091 984.808 527.682C986.626 526.261 988.808 525.551 991.353 525.551C993.899 525.551 996.075 526.261 997.882 527.682C999.7 529.091 1001.09 531.136 1002.04 533.818C1003.01 536.489 1003.49 539.71 1003.49 543.483C1003.49 547.278 1003.01 550.517 1002.06 553.199C1001.1 555.869 999.723 557.909 997.916 559.318C996.109 560.716 993.922 561.415 991.353 561.415ZM991.353 557.665C993.899 557.665 995.876 556.437 997.285 553.983C998.694 551.528 999.399 548.028 999.399 543.483C999.399 540.46 999.075 537.886 998.427 535.761C997.791 533.636 996.87 532.017 995.666 530.903C994.473 529.79 993.035 529.233 991.353 529.233C988.831 529.233 986.859 530.477 985.439 532.966C984.018 535.443 983.308 538.949 983.308 543.483C983.308 546.506 983.626 549.074 984.262 551.188C984.899 553.301 985.814 554.909 987.007 556.011C988.211 557.114 989.66 557.665 991.353 557.665Z" fill="black"/>
<path d="M822.972 379.296C820.972 379.296 819.17 378.898 817.568 378.103C815.966 377.307 814.682 376.216 813.716 374.83C812.75 373.444 812.222 371.864 812.131 370.091H816.222C816.381 371.671 817.097 372.978 818.369 374.012C819.653 375.035 821.187 375.546 822.972 375.546C824.403 375.546 825.676 375.211 826.79 374.54C827.915 373.87 828.795 372.949 829.432 371.779C830.08 370.597 830.403 369.262 830.403 367.773C830.403 366.251 830.068 364.893 829.398 363.699C828.739 362.495 827.83 361.546 826.67 360.853C825.511 360.16 824.187 359.807 822.699 359.796C821.631 359.785 820.534 359.949 819.409 360.29C818.284 360.62 817.358 361.046 816.631 361.569L812.676 361.091L814.79 343.91H832.926V347.66H818.335L817.108 357.955H817.312C818.028 357.387 818.926 356.915 820.006 356.54C821.085 356.165 822.21 355.978 823.381 355.978C825.517 355.978 827.42 356.489 829.091 357.512C830.773 358.523 832.091 359.91 833.045 361.671C834.011 363.432 834.494 365.444 834.494 367.705C834.494 369.932 833.994 371.921 832.994 373.671C832.006 375.41 830.642 376.785 828.903 377.796C827.165 378.796 825.187 379.296 822.972 379.296ZM842.953 379.091C842.112 379.091 841.391 378.79 840.788 378.188C840.186 377.586 839.885 376.864 839.885 376.023C839.885 375.182 840.186 374.461 840.788 373.858C841.391 373.256 842.112 372.955 842.953 372.955C843.794 372.955 844.516 373.256 845.118 373.858C845.72 374.461 846.021 375.182 846.021 376.023C846.021 376.58 845.879 377.091 845.595 377.557C845.322 378.023 844.953 378.398 844.487 378.682C844.033 378.955 843.521 379.091 842.953 379.091ZM853.56 378.819L869.173 347.932V347.66H851.173V343.91H873.537V347.864L857.991 378.819H853.56ZM890.527 379.296C887.959 379.296 885.771 378.597 883.964 377.199C882.158 375.79 880.777 373.751 879.822 371.08C878.868 368.398 878.391 365.16 878.391 361.364C878.391 357.591 878.868 354.37 879.822 351.699C880.788 349.018 882.175 346.972 883.982 345.563C885.8 344.143 887.982 343.432 890.527 343.432C893.072 343.432 895.249 344.143 897.055 345.563C898.874 346.972 900.26 349.018 901.214 351.699C902.18 354.37 902.663 357.591 902.663 361.364C902.663 365.16 902.186 368.398 901.232 371.08C900.277 373.751 898.896 375.79 897.089 377.199C895.283 378.597 893.095 379.296 890.527 379.296ZM890.527 375.546C893.072 375.546 895.05 374.319 896.459 371.864C897.868 369.41 898.572 365.91 898.572 361.364C898.572 358.341 898.249 355.768 897.601 353.643C896.964 351.518 896.044 349.898 894.839 348.785C893.646 347.671 892.209 347.114 890.527 347.114C888.004 347.114 886.033 348.358 884.612 350.847C883.192 353.324 882.482 356.83 882.482 361.364C882.482 364.387 882.8 366.955 883.436 369.069C884.072 371.182 884.987 372.79 886.18 373.893C887.385 374.995 888.834 375.546 890.527 375.546Z" fill="black"/>
</svg>
