<svg width="1512" height="1512" viewBox="0 0 1512 1512" fill="none" xmlns="http://www.w3.org/2000/svg">
<path d="M1269.53 142.499H295.137V173.93H1269.53V142.499Z" fill="black"/>
<path d="M322.233 173.93H295.138V429.722H322.233V173.93Z" fill="black"/>
<path d="M413.278 405.335H321.184V418.342H413.278V405.335Z" fill="black"/>
<path d="M306.864 429.722H298.044C297.337 429.722 296.764 430.295 296.764 431.002V434.945C296.764 435.652 297.337 436.225 298.044 436.225H306.864C307.571 436.225 308.144 435.652 308.144 434.945V431.002C308.144 430.295 307.571 429.722 306.864 429.722Z" stroke="black" stroke-width="0.755906" stroke-miterlimit="22.9256"/>
<path d="M306.864 552.2H298.044C297.337 552.2 296.764 552.773 296.764 553.48V557.423C296.764 558.13 297.337 558.703 298.044 558.703H306.864C307.571 558.703 308.144 558.13 308.144 557.423V553.48C308.144 552.773 307.571 552.2 306.864 552.2Z" stroke="black" stroke-width="0.755906" stroke-miterlimit="22.9256"/>
<path d="M324.213 557.422H296.763V618.083H324.213V557.422Z" fill="black"/>
<path d="M482.209 589.085H296.764V618.354H482.209V589.085Z" fill="black"/>
<path d="M482.104 618.354H456.632V1141.28H482.104V618.354Z" fill="black"/>
<path d="M1269.53 170.138H1209.38V276.898H1269.53V170.138Z" fill="black"/>
<path d="M1268.66 275.199H1254.73C1254.04 275.199 1253.49 275.772 1253.49 276.479V285.437C1253.49 286.144 1254.04 286.718 1254.73 286.718H1268.66C1269.34 286.718 1269.9 286.144 1269.9 285.437V276.479C1269.9 275.772 1269.34 275.199 1268.66 275.199Z" fill="black"/>
<path d="M1244.06 276.897H1209.38V507.76H1244.06V276.897Z" stroke="black" stroke-width="0.755906" stroke-miterlimit="22.9256"/>
<path d="M1254.36 287.737H1244.06V497.465H1254.36V287.737Z" stroke="black" stroke-width="0.755906" stroke-miterlimit="22.9256"/>
<path d="M1269.53 285.569H1254.36V499.632H1269.53V285.569Z" stroke="black" stroke-width="0.755906" stroke-miterlimit="22.9256"/>
<path d="M1269.53 507.603H1209.38V783.063H1269.53V507.603Z" fill="black"/>
<path d="M1268.66 499.085H1254.73C1254.04 499.085 1253.49 499.658 1253.49 500.365V509.324C1253.49 510.031 1254.04 510.604 1254.73 510.604H1268.66C1269.34 510.604 1269.9 510.031 1269.9 509.324V500.365C1269.9 499.658 1269.34 499.085 1268.66 499.085Z" fill="black"/>
<path d="M1268.7 781.335H1254.73C1254.05 781.335 1253.49 781.994 1253.49 782.807V793.109C1253.49 793.922 1254.05 794.581 1254.73 794.581H1268.7C1269.38 794.581 1269.94 793.922 1269.94 793.109V782.807C1269.94 781.994 1269.38 781.335 1268.7 781.335Z" fill="black"/>
<path d="M1244.06 782.581H1209.38V1013.44H1244.06V782.581Z" stroke="black" stroke-width="0.755906" stroke-miterlimit="22.9256"/>
<path d="M1254.36 792.898H1244.06V1002.63H1254.36V792.898Z" stroke="black" stroke-width="0.755906" stroke-miterlimit="22.9256"/>
<path d="M1269.53 788.707H1254.36V1002.77H1269.53V788.707Z" stroke="black" stroke-width="0.755906" stroke-miterlimit="22.9256"/>
<path d="M1269.53 1013.38H1209.38V1175.96H1269.53V1013.38Z" fill="black"/>
<path d="M1268.66 1002.63H1254.73C1254.04 1002.63 1253.49 1003.2 1253.49 1003.91V1012.86C1253.49 1013.57 1254.04 1014.14 1254.73 1014.14H1268.66C1269.34 1014.14 1269.9 1013.57 1269.9 1012.86V1003.91C1269.9 1003.2 1269.34 1002.63 1268.66 1002.63Z" fill="black"/>
<path d="M1216.53 1115.81H703.754V1175.96H1216.53V1115.81Z" fill="black"/>
<path d="M703.754 1115.81H697.251V1127.19H703.754V1115.81Z" stroke="black" stroke-width="0.755906" stroke-miterlimit="22.9256"/>
<path d="M620.237 1116.1H613.734V1127.48H620.237V1116.1Z" stroke="black" stroke-width="0.755906" stroke-miterlimit="22.9256"/>
<path d="M703.745 1162.32H697.242V1175.96H703.745V1162.32Z" fill="black"/>
<path d="M619.751 1162.32H613.248V1175.96H619.751V1162.32Z" fill="black"/>
<path d="M614.095 1115.81H456.908V1175.96H614.095V1115.81Z" fill="black"/>
<path d="M643.599 716.207H478.384V731.579H643.599V716.207Z" fill="black"/>
<path d="M649.614 718.231H644.88C644.173 718.231 643.599 718.805 643.599 719.512V730.169C643.599 730.876 644.173 731.449 644.88 731.449H649.614C650.321 731.449 650.894 730.876 650.894 730.169V719.512C650.894 718.805 650.321 718.231 649.614 718.231Z" stroke="black" stroke-width="0.755906" stroke-miterlimit="22.9256"/>
<path d="M758.835 718.231H754.101C753.394 718.231 752.821 718.805 752.821 719.512V730.169C752.821 730.876 753.394 731.449 754.101 731.449H758.835C759.542 731.449 760.116 730.876 760.116 730.169V719.512C760.116 718.805 759.542 718.231 758.835 718.231Z" stroke="black" stroke-width="0.755906" stroke-miterlimit="22.9256"/>
<path d="M1214.72 716.207H760.114V731.579H1214.72V716.207Z" fill="black"/>
<path d="M787.211 590.676H774.205V719.114H787.211V590.676Z" fill="black"/>
<path d="M776.655 590.676H761.198V655.166H776.655V590.676Z" fill="black"/>
<path d="M787.211 166.886H774.205V474.703H787.211V166.886Z" fill="black"/>
<path d="M777.569 405.335H762.824V419.746H777.569V405.335Z" fill="black"/>
<path d="M646.31 405.335H516.196V419.746H646.31V405.335Z" fill="black"/>
<path d="M629.308 166.886H616.302V415.244H629.308V166.886Z" fill="black"/>
<path d="M532.907 1168.33H522.669V1289.05H532.907V1168.33Z" fill="black"/>
<path d="M884.409 1277.11H522.669V1289.05H884.409V1277.11Z" fill="black"/>
<path d="M884.504 1168.6H874.266V1289.05H884.504V1168.6Z" fill="black"/>
<path d="M305.315 552.775C215.762 553.898 169.018 503.899 145.421 435.438C199.019 435.438 252.616 435.438 306.213 435.438" stroke="black" stroke-width="0.96" stroke-miterlimit="22.9256"/>
<path d="M752.821 723.201C753.771 798.878 708.587 837.625 650.734 857.565C650.734 812.272 650.734 766.98 650.734 721.688" stroke="black" stroke-width="0.96" stroke-miterlimit="22.9256"/>
<path d="M620.237 1123.54C619.49 1063.99 651.96 1033.76 697.483 1018.06C697.483 1053.7 697.483 1089.34 697.483 1124.98" stroke="black" stroke-width="0.96" stroke-miterlimit="22.9256"/>
<path d="M610.705 183.069H522.246V381.121H610.705V183.069Z" stroke="black" stroke-width="1.00006" stroke-miterlimit="22.9256"/>
<path fill-rule="evenodd" clip-rule="evenodd" d="M532.349 344.833C530.486 301.333 531.693 258.345 531.366 215.1C531.148 199.966 531.706 192.24 547.726 192.485C560.985 192.485 574.242 192.485 587.5 192.485C598.758 192.346 602.993 195.712 602.133 214.556C601.806 257.981 602.502 301.407 601.151 344.833C597.007 379.322 538.537 382.825 532.349 344.833Z" stroke="black" stroke-width="1.00006" stroke-miterlimit="22.9256"/>
<path d="M567.203 209.894C569.467 209.894 571.303 208.059 571.303 205.794C571.303 203.53 569.467 201.695 567.203 201.695C564.939 201.695 563.104 203.53 563.104 205.794C563.104 208.059 564.939 209.894 567.203 209.894Z" stroke="black" stroke-width="0.755906" stroke-miterlimit="22.9256"/>
<path fill-rule="evenodd" clip-rule="evenodd" d="M431.652 191.808C431.57 187.917 434.468 184.158 437.689 182.38C459.139 182.38 479.565 182.38 501.015 182.38C504.044 183.047 504.724 185.146 505.75 189.698C506.655 202.955 505.609 218.576 491.086 222.983C479.177 223.054 465.146 222.984 453.237 223.056C434.619 221.217 432.468 207.859 431.652 191.808Z" stroke="black" stroke-width="1.00006" stroke-miterlimit="22.9256"/>
<path d="M469.236 192.701C471.573 192.701 473.468 190.807 473.468 188.47C473.468 186.133 471.573 184.238 469.236 184.238C466.899 184.238 465.005 186.133 465.005 188.47C465.005 190.807 466.899 192.701 469.236 192.701Z" stroke="black" stroke-width="1.11118" stroke-miterlimit="22.9256"/>
<path fill-rule="evenodd" clip-rule="evenodd" d="M441.448 189.91C441.39 186.802 443.459 183.799 445.759 182.38C461.074 182.38 475.658 182.38 490.973 182.38C493.137 182.913 493.622 184.589 494.354 188.224C497.063 220.889 478.048 214.724 456.86 214.867C442.984 214.609 441.448 202.171 441.448 189.91Z" stroke="black" stroke-width="1.00006" stroke-miterlimit="22.9256"/>
<path d="M427.085 170.085C427.364 199.578 418.36 227.084 454.464 230.887C466.221 231.857 477.443 231.442 488.986 229.822C518.553 223.26 509.27 197.845 509.765 169.652" stroke="black" stroke-width="1.00006" stroke-miterlimit="22.9256" stroke-linecap="round" stroke-linejoin="round"/>
<path d="M374.923 369.725L361.989 368.29" stroke="black" stroke-width="1.00006" stroke-miterlimit="22.9256"/>
<path d="M374.405 325.269L361.475 326.708" stroke="black" stroke-width="1.00006" stroke-miterlimit="22.9256"/>
<path d="M315.93 390.527C326.177 390.527 336.427 390.529 346.674 390.529C354.317 390.551 359.846 386.591 362.12 376.877C361.999 359.595 361.879 342.31 361.758 325.026C362.464 311.502 356.607 305.878 346.674 305.042H315.442" stroke="black" stroke-width="1.00006" stroke-miterlimit="22.9256"/>
<path fill-rule="evenodd" clip-rule="evenodd" d="M400.766 315.327C390.557 313.656 381.704 315.96 374.905 324.307C368.612 340.806 368.979 355.81 374.906 369.564C380.95 376.92 388.838 380.353 398.775 379.427C413.613 377.981 428.016 372.632 441.712 360.942C450.02 352.773 450.701 343.53 441.712 332.928C429.786 323.329 416.063 317.623 400.766 315.327Z" stroke="black" stroke-width="1.00006" stroke-miterlimit="22.9256"/>
<path d="M385.998 174.59H319.904V219.231H385.998V174.59Z" stroke="black" stroke-width="5.33329" stroke-miterlimit="22.9256" stroke-linecap="round" stroke-linejoin="round"/>
<path d="M380.458 178.902H366.897V215.48H380.458V178.902Z" stroke="black" stroke-width="10.6666" stroke-miterlimit="22.9256"/>
<path d="M343.135 174.697V219.339" stroke="black" stroke-width="2.00013" stroke-miterlimit="22.9256"/>
<path d="M322.116 196.91H363.094" stroke="black" stroke-width="2.00013" stroke-miterlimit="22.9256"/>
<path fill-rule="evenodd" clip-rule="evenodd" d="M829.46 1033.74H897.981C900.533 1033.74 902.603 1035.81 902.603 1038.36L902.603 1107.78C902.603 1110.34 900.533 1112.41 897.981 1112.41H829.46C826.907 1112.41 824.838 1110.34 824.838 1107.78L824.837 1038.36C824.838 1035.81 826.907 1033.74 829.46 1033.74L829.46 1033.74Z" stroke="black" stroke-width="1.00006" stroke-miterlimit="22.9256" stroke-linecap="round" stroke-linejoin="round"/>
<path d="M895.635 1044.75H831.805V1101.39H895.635V1044.75Z" stroke="black" stroke-width="1.00006" stroke-miterlimit="22.9256" stroke-linecap="round" stroke-linejoin="round"/>
<path d="M878.554 1061.39C881.285 1061.39 883.499 1059.17 883.499 1056.44C883.499 1053.71 881.285 1051.5 878.554 1051.5C875.823 1051.5 873.609 1053.71 873.609 1056.44C873.609 1059.17 875.823 1061.39 878.554 1061.39Z" stroke="black" stroke-width="1.00006" stroke-miterlimit="22.9256"/>
<path d="M1024.65 1033.31H943.764V1111.41H1024.65V1033.31Z" stroke="black" stroke-width="1.00006" stroke-miterlimit="22.9256" stroke-linejoin="round"/>
<path d="M1004.58 1060.5C1010.25 1060.5 1014.84 1055.91 1014.84 1050.24C1014.84 1044.58 1010.25 1039.99 1004.58 1039.99C998.918 1039.99 994.327 1044.58 994.327 1050.24C994.327 1055.91 998.918 1060.5 1004.58 1060.5Z" stroke="black" stroke-width="0.639874" stroke-miterlimit="22.9256" stroke-linejoin="round"/>
<path d="M1005.07 1037.81H1004.3V1063.95H1005.07V1037.81Z" fill="black"/>
<path d="M1017.34 1051.15V1050.38L991.193 1050.38V1051.15L1017.34 1051.15Z" fill="black"/>
<path d="M965.366 1060.71C971.03 1060.71 975.622 1056.11 975.622 1050.45C975.622 1044.79 971.03 1040.19 965.366 1040.19C959.702 1040.19 955.11 1044.79 955.11 1050.45C955.11 1056.11 959.702 1060.71 965.366 1060.71Z" stroke="black" stroke-width="0.639874" stroke-miterlimit="22.9256" stroke-linejoin="round"/>
<path d="M966.105 1037.46H965.336V1063.61H966.105V1037.46Z" fill="black"/>
<path d="M978.18 1050.91V1050.15L952.033 1050.15V1050.91L978.18 1050.91Z" fill="black"/>
<path d="M965.62 1101.92C971.284 1101.92 975.875 1097.33 975.875 1091.66C975.875 1086 971.284 1081.41 965.62 1081.41C959.956 1081.41 955.364 1086 955.364 1091.66C955.364 1097.33 959.956 1101.92 965.62 1101.92Z" stroke="black" stroke-width="0.639874" stroke-miterlimit="22.9256" stroke-linejoin="round"/>
<path d="M966.358 1078.67H965.589V1104.82H966.358V1078.67Z" fill="black"/>
<path d="M979.045 1092.13V1091.36L952.898 1091.36V1092.13L979.045 1092.13Z" fill="black"/>
<path d="M1004.58 1101.25C1010.25 1101.25 1014.84 1096.66 1014.84 1090.99C1014.84 1085.33 1010.25 1080.74 1004.58 1080.74C998.918 1080.74 994.327 1085.33 994.327 1090.99C994.327 1096.66 998.918 1101.25 1004.58 1101.25Z" stroke="black" stroke-width="0.639874" stroke-miterlimit="22.9256" stroke-linejoin="round"/>
<path d="M1005.09 1078.08H1004.32V1104.23H1005.09V1078.08Z" fill="black"/>
<path d="M1017.08 1091.46V1090.69L990.932 1090.69V1091.46L1017.08 1091.46Z" fill="black"/>
<path d="M757.281 1386.66L757.281 1286.89L524.971 1286.89L524.971 1386.66L757.281 1386.66Z" stroke="black" stroke-width="0.676558" stroke-miterlimit="22.9256"/>
<path d="M757.584 1286.73L525.274 1386.5" stroke="black" stroke-width="0.639874" stroke-miterlimit="22.9256"/>
<path d="M757.281 1386.66L526.779 1289.34" stroke="black" stroke-width="0.639874" stroke-miterlimit="22.9256"/>
<path d="M543.679 669.758C542.247 669.735 540.815 669.462 539.383 668.939C537.951 668.417 536.644 667.536 535.463 666.297C534.281 665.047 533.332 663.36 532.616 661.235C531.9 659.098 531.542 656.417 531.542 653.189C531.542 650.098 531.832 647.36 532.411 644.973C532.991 642.576 533.832 640.559 534.934 638.922C536.036 637.275 537.366 636.025 538.923 635.172C540.491 634.32 542.258 633.894 544.224 633.894C546.179 633.894 547.917 634.286 549.44 635.07C550.974 635.843 552.224 636.922 553.19 638.309C554.156 639.695 554.781 641.292 555.065 643.098H550.906C550.519 641.53 549.769 640.229 548.656 639.195C547.542 638.161 546.065 637.644 544.224 637.644C541.519 637.644 539.389 638.82 537.832 641.172C536.286 643.525 535.508 646.826 535.497 651.076H535.769C536.406 650.11 537.161 649.286 538.036 648.604C538.923 647.911 539.9 647.377 540.968 647.002C542.036 646.627 543.167 646.439 544.36 646.439C546.36 646.439 548.19 646.939 549.849 647.939C551.508 648.928 552.838 650.297 553.838 652.047C554.838 653.786 555.338 655.78 555.338 658.03C555.338 660.189 554.855 662.167 553.889 663.962C552.923 665.746 551.565 667.167 549.815 668.223C548.076 669.269 546.031 669.78 543.679 669.758ZM543.679 666.008C545.11 666.008 546.394 665.65 547.531 664.934C548.679 664.218 549.582 663.258 550.241 662.053C550.911 660.848 551.247 659.508 551.247 658.03C551.247 656.587 550.923 655.275 550.275 654.093C549.639 652.9 548.758 651.951 547.633 651.246C546.519 650.542 545.247 650.189 543.815 650.189C542.735 650.189 541.73 650.405 540.798 650.837C539.866 651.258 539.048 651.837 538.343 652.576C537.65 653.314 537.105 654.161 536.707 655.116C536.309 656.059 536.11 657.053 536.11 658.098C536.11 659.485 536.434 660.78 537.082 661.985C537.741 663.189 538.639 664.161 539.775 664.9C540.923 665.638 542.224 666.008 543.679 666.008ZM563.4 669.553C562.559 669.553 561.838 669.252 561.235 668.65C560.633 668.047 560.332 667.326 560.332 666.485C560.332 665.644 560.633 664.922 561.235 664.32C561.838 663.718 562.559 663.417 563.4 663.417C564.241 663.417 564.963 663.718 565.565 664.32C566.167 664.922 566.468 665.644 566.468 666.485C566.468 667.042 566.326 667.553 566.042 668.019C565.769 668.485 565.4 668.86 564.934 669.144C564.48 669.417 563.968 669.553 563.4 669.553ZM574.007 669.28L589.62 638.394V638.121H571.62V634.371H593.984V638.326L578.438 669.28H574.007ZM610.974 669.758C608.406 669.758 606.218 669.059 604.411 667.661C602.605 666.252 601.224 664.212 600.269 661.542C599.315 658.86 598.838 655.621 598.838 651.826C598.838 648.053 599.315 644.831 600.269 642.161C601.235 639.479 602.622 637.434 604.429 636.025C606.247 634.604 608.429 633.894 610.974 633.894C613.519 633.894 615.696 634.604 617.502 636.025C619.321 637.434 620.707 639.479 621.661 642.161C622.627 644.831 623.11 648.053 623.11 651.826C623.11 655.621 622.633 658.86 621.679 661.542C620.724 664.212 619.343 666.252 617.536 667.661C615.73 669.059 613.542 669.758 610.974 669.758ZM610.974 666.008C613.519 666.008 615.497 664.78 616.906 662.326C618.315 659.871 619.019 656.371 619.019 651.826C619.019 648.803 618.696 646.229 618.048 644.104C617.411 641.979 616.491 640.36 615.286 639.246C614.093 638.133 612.656 637.576 610.974 637.576C608.451 637.576 606.48 638.82 605.059 641.309C603.639 643.786 602.929 647.292 602.929 651.826C602.929 654.848 603.247 657.417 603.883 659.53C604.519 661.644 605.434 663.252 606.627 664.354C607.832 665.456 609.281 666.008 610.974 666.008Z" fill="black"/>
<path d="M663.15 338.045V334.977L674.672 322.363C676.025 320.886 677.138 319.602 678.013 318.511C678.888 317.409 679.536 316.374 679.956 315.409C680.388 314.431 680.604 313.409 680.604 312.34C680.604 311.113 680.309 310.051 679.718 309.153C679.138 308.255 678.343 307.562 677.331 307.073C676.32 306.585 675.184 306.34 673.922 306.34C672.581 306.34 671.411 306.619 670.411 307.176C669.422 307.721 668.655 308.488 668.11 309.477C667.576 310.465 667.309 311.624 667.309 312.954H663.286C663.286 310.909 663.757 309.113 664.701 307.568C665.644 306.022 666.928 304.818 668.553 303.954C670.189 303.09 672.025 302.659 674.059 302.659C676.104 302.659 677.917 303.09 679.496 303.954C681.076 304.818 682.314 305.982 683.212 307.448C684.11 308.914 684.559 310.545 684.559 312.34C684.559 313.624 684.326 314.88 683.86 316.107C683.405 317.323 682.61 318.681 681.473 320.181C680.348 321.67 678.786 323.488 676.786 325.636L668.945 334.022V334.295H685.172V338.045H663.15ZM695.212 338.318C694.371 338.318 693.65 338.017 693.047 337.414C692.445 336.812 692.144 336.09 692.144 335.249C692.144 334.409 692.445 333.687 693.047 333.085C693.65 332.482 694.371 332.181 695.212 332.181C696.053 332.181 696.775 332.482 697.377 333.085C697.979 333.687 698.28 334.409 698.28 335.249C698.28 335.806 698.138 336.318 697.854 336.784C697.581 337.249 697.212 337.624 696.746 337.909C696.292 338.181 695.78 338.318 695.212 338.318ZM713.532 303.136V338.045H709.304V307.568H709.1L700.577 313.227V308.931L709.304 303.136H713.532ZM734.958 338.522C732.39 338.522 730.202 337.823 728.395 336.426C726.588 335.017 725.208 332.977 724.253 330.306C723.299 327.624 722.821 324.386 722.821 320.59C722.821 316.818 723.299 313.596 724.253 310.926C725.219 308.244 726.605 306.198 728.412 304.789C730.23 303.369 732.412 302.659 734.958 302.659C737.503 302.659 739.679 303.369 741.486 304.789C743.304 306.198 744.691 308.244 745.645 310.926C746.611 313.596 747.094 316.818 747.094 320.59C747.094 324.386 746.617 327.624 745.662 330.306C744.708 332.977 743.327 335.017 741.52 336.426C739.713 337.823 737.526 338.522 734.958 338.522ZM734.958 334.772C737.503 334.772 739.48 333.545 740.89 331.09C742.299 328.636 743.003 325.136 743.003 320.59C743.003 317.568 742.679 314.994 742.032 312.869C741.395 310.744 740.475 309.124 739.27 308.011C738.077 306.897 736.64 306.34 734.958 306.34C732.435 306.34 730.463 307.585 729.043 310.073C727.623 312.551 726.912 316.056 726.912 320.59C726.912 323.613 727.23 326.181 727.867 328.295C728.503 330.409 729.418 332.017 730.611 333.119C731.816 334.221 733.265 334.772 734.958 334.772Z" fill="black"/>
<path d="M408.143 287.351V283.873L423.484 259.601H426.006V264.987H424.302L412.711 283.328V283.601H433.37V287.351H408.143ZM424.574 294.51V286.294V284.675V259.601H428.597V294.51H424.574ZM441.117 294.782C440.276 294.782 439.555 294.481 438.952 293.879C438.35 293.277 438.049 292.555 438.049 291.714C438.049 290.873 438.35 290.152 438.952 289.55C439.555 288.947 440.276 288.646 441.117 288.646C441.958 288.646 442.68 288.947 443.282 289.55C443.884 290.152 444.185 290.873 444.185 291.714C444.185 292.271 444.043 292.782 443.759 293.248C443.486 293.714 443.117 294.089 442.651 294.373C442.197 294.646 441.685 294.782 441.117 294.782ZM459.437 259.601V294.51H455.209V264.032H455.005L446.482 269.692V265.396L455.209 259.601H459.437ZM480.863 294.987C478.295 294.987 476.107 294.288 474.3 292.89C472.493 291.481 471.113 289.442 470.158 286.771C469.204 284.089 468.726 280.851 468.726 277.055C468.726 273.282 469.204 270.061 470.158 267.39C471.124 264.709 472.511 262.663 474.317 261.254C476.136 259.834 478.317 259.123 480.863 259.123C483.408 259.123 485.584 259.834 487.391 261.254C489.209 262.663 490.596 264.709 491.55 267.39C492.516 270.061 492.999 273.282 492.999 277.055C492.999 280.851 492.522 284.089 491.567 286.771C490.613 289.442 489.232 291.481 487.425 292.89C485.618 294.288 483.431 294.987 480.863 294.987ZM480.863 291.237C483.408 291.237 485.386 290.01 486.795 287.555C488.204 285.101 488.908 281.601 488.908 277.055C488.908 274.032 488.584 271.459 487.937 269.334C487.3 267.209 486.38 265.589 485.175 264.476C483.982 263.362 482.545 262.805 480.863 262.805C478.34 262.805 476.368 264.05 474.948 266.538C473.528 269.015 472.817 272.521 472.817 277.055C472.817 280.078 473.136 282.646 473.772 284.76C474.408 286.873 475.323 288.481 476.516 289.584C477.721 290.686 479.17 291.237 480.863 291.237Z" fill="black"/>
<path d="M1067.24 617.711V652.62H1063.01V622.143H1062.81L1054.28 627.802V623.506L1063.01 617.711H1067.24ZM1076.46 645.461V641.984L1091.8 617.711H1094.32V623.097H1092.62L1081.03 641.438V641.711H1101.69V645.461H1076.46ZM1092.89 652.62V644.404V642.785V617.711H1096.91V652.62H1092.89ZM1109.43 652.893C1108.59 652.893 1107.87 652.592 1107.27 651.989C1106.67 651.387 1106.37 650.666 1106.37 649.825C1106.37 648.984 1106.67 648.262 1107.27 647.66C1107.87 647.058 1108.59 646.756 1109.43 646.756C1110.27 646.756 1111 647.058 1111.6 647.66C1112.2 648.262 1112.5 648.984 1112.5 649.825C1112.5 650.381 1112.36 650.893 1112.08 651.359C1111.8 651.825 1111.43 652.2 1110.97 652.484C1110.51 652.756 1110 652.893 1109.43 652.893ZM1119.65 652.62V649.552L1131.17 636.938C1132.53 635.461 1133.64 634.177 1134.52 633.086C1135.39 631.984 1136.04 630.95 1136.46 629.984C1136.89 629.006 1137.11 627.984 1137.11 626.916C1137.11 625.688 1136.81 624.626 1136.22 623.728C1135.64 622.83 1134.85 622.137 1133.83 621.649C1132.82 621.16 1131.69 620.916 1130.42 620.916C1129.08 620.916 1127.91 621.194 1126.91 621.751C1125.92 622.296 1125.16 623.063 1124.61 624.052C1124.08 625.041 1123.81 626.2 1123.81 627.529H1119.79C1119.79 625.484 1120.26 623.688 1121.2 622.143C1122.15 620.597 1123.43 619.393 1125.06 618.529C1126.69 617.666 1128.53 617.234 1130.56 617.234C1132.61 617.234 1134.42 617.666 1136 618.529C1137.58 619.393 1138.82 620.558 1139.71 622.024C1140.61 623.489 1141.06 625.12 1141.06 626.916C1141.06 628.2 1140.83 629.455 1140.36 630.683C1139.91 631.899 1139.11 633.256 1137.98 634.756C1136.85 636.245 1135.29 638.063 1133.29 640.211L1125.45 648.597V648.87H1141.67V652.62H1119.65ZM1160.1 653.097C1157.53 653.097 1155.35 652.399 1153.54 651.001C1151.73 649.592 1150.35 647.552 1149.4 644.881C1148.44 642.2 1147.96 638.961 1147.96 635.166C1147.96 631.393 1148.44 628.171 1149.4 625.501C1150.36 622.819 1151.75 620.774 1153.56 619.364C1155.37 617.944 1157.56 617.234 1160.1 617.234C1162.65 617.234 1164.82 617.944 1166.63 619.364C1168.45 620.774 1169.83 622.819 1170.79 625.501C1171.75 628.171 1172.24 631.393 1172.24 635.166C1172.24 638.961 1171.76 642.2 1170.81 644.881C1169.85 647.552 1168.47 649.592 1166.66 651.001C1164.86 652.399 1162.67 653.097 1160.1 653.097ZM1160.1 649.347C1162.65 649.347 1164.62 648.12 1166.03 645.666C1167.44 643.211 1168.15 639.711 1168.15 635.166C1168.15 632.143 1167.82 629.569 1167.17 627.444C1166.54 625.319 1165.62 623.7 1164.41 622.586C1163.22 621.472 1161.78 620.916 1160.1 620.916C1157.58 620.916 1155.61 622.16 1154.19 624.649C1152.77 627.126 1152.06 630.631 1152.06 635.166C1152.06 638.188 1152.37 640.756 1153.01 642.87C1153.65 644.984 1154.56 646.592 1155.75 647.694C1156.96 648.796 1158.41 649.347 1160.1 649.347Z" fill="black"/>
<path d="M1005.74 776.519V811.428H1001.51V780.951H1001.31L992.787 786.61V782.315L1001.51 776.519H1005.74ZM1016.87 811.428L1032.49 780.542V780.269H1014.49V776.519H1036.85V780.474L1021.3 811.428H1016.87ZM1040.2 811.701C1039.36 811.701 1038.64 811.4 1038.04 810.798C1037.44 810.195 1037.13 809.474 1037.13 808.633C1037.13 807.792 1037.44 807.07 1038.04 806.468C1038.64 805.866 1039.36 805.565 1040.2 805.565C1041.04 805.565 1041.77 805.866 1042.37 806.468C1042.97 807.07 1043.27 807.792 1043.27 808.633C1043.27 809.19 1043.13 809.701 1042.84 810.167C1042.57 810.633 1042.2 811.008 1041.74 811.292C1041.28 811.565 1040.77 811.701 1040.2 811.701ZM1060.59 811.905C1058.02 811.905 1055.83 811.207 1054.03 809.809C1052.22 808.4 1050.84 806.36 1049.88 803.69C1048.93 801.008 1048.45 797.769 1048.45 793.974C1048.45 790.201 1048.93 786.979 1049.88 784.309C1050.85 781.627 1052.24 779.582 1054.04 778.173C1055.86 776.752 1058.04 776.042 1060.59 776.042C1063.13 776.042 1065.31 776.752 1067.12 778.173C1068.94 779.582 1070.32 781.627 1071.28 784.309C1072.24 786.979 1072.73 790.201 1072.73 793.974C1072.73 797.769 1072.25 801.008 1071.29 803.69C1070.34 806.36 1068.96 808.4 1067.15 809.809C1065.34 811.207 1063.16 811.905 1060.59 811.905ZM1060.59 808.155C1063.13 808.155 1065.11 806.928 1066.52 804.474C1067.93 802.019 1068.63 798.519 1068.63 793.974C1068.63 790.951 1068.31 788.377 1067.66 786.252C1067.03 784.127 1066.11 782.508 1064.9 781.394C1063.71 780.28 1062.27 779.724 1060.59 779.724C1058.07 779.724 1056.09 780.968 1054.67 783.457C1053.25 785.934 1052.54 789.44 1052.54 793.974C1052.54 796.996 1052.86 799.565 1053.5 801.678C1054.13 803.792 1055.05 805.4 1056.24 806.502C1057.45 807.604 1058.9 808.155 1060.59 808.155ZM1090.59 811.905C1088.02 811.905 1085.83 811.207 1084.03 809.809C1082.22 808.4 1080.84 806.36 1079.88 803.69C1078.93 801.008 1078.45 797.769 1078.45 793.974C1078.45 790.201 1078.93 786.979 1079.88 784.309C1080.85 781.627 1082.24 779.582 1084.04 778.173C1085.86 776.752 1088.04 776.042 1090.59 776.042C1093.13 776.042 1095.31 776.752 1097.12 778.173C1098.94 779.582 1100.32 781.627 1101.28 784.309C1102.24 786.979 1102.73 790.201 1102.73 793.974C1102.73 797.769 1102.25 801.008 1101.29 803.69C1100.34 806.36 1098.96 808.4 1097.15 809.809C1095.34 811.207 1093.16 811.905 1090.59 811.905ZM1090.59 808.155C1093.13 808.155 1095.11 806.928 1096.52 804.474C1097.93 802.019 1098.63 798.519 1098.63 793.974C1098.63 790.951 1098.31 788.377 1097.66 786.252C1097.03 784.127 1096.11 782.508 1094.9 781.394C1093.71 780.28 1092.27 779.724 1090.59 779.724C1088.07 779.724 1086.09 780.968 1084.67 783.457C1083.25 785.934 1082.54 789.44 1082.54 793.974C1082.54 796.996 1082.86 799.565 1083.5 801.678C1084.13 803.792 1085.05 805.4 1086.24 806.502C1087.45 807.604 1088.9 808.155 1090.59 808.155Z" fill="black"/>
<path d="M635.542 1244.24C633.292 1244.24 631.286 1243.85 629.524 1243.08C627.774 1242.31 626.382 1241.23 625.348 1239.86C624.326 1238.47 623.769 1236.86 623.678 1235.03H627.973C628.064 1236.16 628.451 1237.13 629.132 1237.95C629.814 1238.76 630.706 1239.38 631.809 1239.82C632.911 1240.27 634.132 1240.49 635.473 1240.49C636.973 1240.49 638.303 1240.23 639.462 1239.71C640.621 1239.18 641.53 1238.46 642.189 1237.52C642.848 1236.59 643.178 1235.51 643.178 1234.28C643.178 1233 642.86 1231.87 642.223 1230.89C641.587 1229.9 640.655 1229.13 639.428 1228.57C638.201 1228.02 636.701 1227.74 634.928 1227.74H632.132V1223.99H634.928C636.314 1223.99 637.53 1223.74 638.576 1223.24C639.632 1222.74 640.456 1222.03 641.047 1221.13C641.649 1220.22 641.951 1219.15 641.951 1217.92C641.951 1216.74 641.689 1215.71 641.167 1214.84C640.644 1213.96 639.905 1213.28 638.951 1212.79C638.007 1212.3 636.894 1212.06 635.61 1212.06C634.405 1212.06 633.269 1212.28 632.201 1212.72C631.144 1213.15 630.28 1213.78 629.61 1214.61C628.939 1215.43 628.576 1216.42 628.519 1217.58H624.428C624.496 1215.75 625.047 1214.15 626.081 1212.77C627.115 1211.39 628.468 1210.31 630.138 1209.53C631.82 1208.76 633.667 1208.38 635.678 1208.38C637.837 1208.38 639.689 1208.81 641.235 1209.69C642.78 1210.55 643.968 1211.69 644.797 1213.11C645.627 1214.53 646.042 1216.07 646.042 1217.72C646.042 1219.68 645.524 1221.36 644.49 1222.75C643.468 1224.13 642.076 1225.09 640.314 1225.63V1225.9C642.519 1226.26 644.24 1227.2 645.479 1228.71C646.718 1230.21 647.337 1232.07 647.337 1234.28C647.337 1236.18 646.82 1237.89 645.786 1239.4C644.763 1240.9 643.365 1242.08 641.593 1242.94C639.82 1243.81 637.803 1244.24 635.542 1244.24ZM656.23 1244.03C655.39 1244.03 654.668 1243.73 654.066 1243.13C653.463 1242.53 653.162 1241.81 653.162 1240.97C653.162 1240.13 653.463 1239.4 654.066 1238.8C654.668 1238.2 655.39 1237.9 656.23 1237.9C657.071 1237.9 657.793 1238.2 658.395 1238.8C658.998 1239.4 659.299 1240.13 659.299 1240.97C659.299 1241.52 659.157 1242.03 658.873 1242.5C658.6 1242.97 658.23 1243.34 657.765 1243.63C657.31 1243.9 656.799 1244.03 656.23 1244.03ZM676.821 1244.24C675.39 1244.22 673.958 1243.94 672.526 1243.42C671.094 1242.9 669.787 1242.02 668.605 1240.78C667.424 1239.53 666.475 1237.84 665.759 1235.72C665.043 1233.58 664.685 1230.9 664.685 1227.67C664.685 1224.58 664.975 1221.84 665.554 1219.46C666.134 1217.06 666.975 1215.04 668.077 1213.4C669.179 1211.76 670.509 1210.51 672.066 1209.65C673.634 1208.8 675.401 1208.38 677.367 1208.38C679.321 1208.38 681.06 1208.77 682.583 1209.55C684.117 1210.32 685.367 1211.4 686.333 1212.79C687.299 1214.18 687.924 1215.77 688.208 1217.58H684.049C683.662 1216.01 682.912 1214.71 681.799 1213.68C680.685 1212.64 679.208 1212.13 677.367 1212.13C674.662 1212.13 672.532 1213.3 670.975 1215.65C669.429 1218.01 668.651 1221.31 668.64 1225.56H668.912C669.549 1224.59 670.304 1223.77 671.179 1223.09C672.066 1222.39 673.043 1221.86 674.111 1221.48C675.179 1221.11 676.31 1220.92 677.503 1220.92C679.503 1220.92 681.333 1221.42 682.992 1222.42C684.651 1223.41 685.98 1224.78 686.98 1226.53C687.98 1228.27 688.48 1230.26 688.48 1232.51C688.48 1234.67 687.998 1236.65 687.032 1238.44C686.066 1240.23 684.708 1241.65 682.958 1242.71C681.219 1243.75 679.174 1244.26 676.821 1244.24ZM676.821 1240.49C678.253 1240.49 679.537 1240.13 680.674 1239.42C681.821 1238.7 682.725 1237.74 683.384 1236.53C684.054 1235.33 684.39 1233.99 684.39 1232.51C684.39 1231.07 684.066 1229.76 683.418 1228.57C682.782 1227.38 681.901 1226.43 680.776 1225.73C679.662 1225.02 678.39 1224.67 676.958 1224.67C675.878 1224.67 674.873 1224.89 673.941 1225.32C673.009 1225.74 672.191 1226.32 671.486 1227.06C670.793 1227.8 670.248 1228.64 669.85 1229.6C669.452 1230.54 669.253 1231.53 669.253 1232.58C669.253 1233.97 669.577 1235.26 670.225 1236.47C670.884 1237.67 671.782 1238.64 672.918 1239.38C674.066 1240.12 675.367 1240.49 676.821 1240.49ZM706.57 1244.24C704.002 1244.24 701.814 1243.54 700.007 1242.14C698.201 1240.73 696.82 1238.69 695.865 1236.02C694.911 1233.34 694.434 1230.1 694.434 1226.31C694.434 1222.53 694.911 1219.31 695.865 1216.64C696.831 1213.96 698.218 1211.92 700.024 1210.51C701.843 1209.09 704.024 1208.38 706.57 1208.38C709.115 1208.38 711.292 1209.09 713.098 1210.51C714.917 1211.92 716.303 1213.96 717.257 1216.64C718.223 1219.31 718.706 1222.53 718.706 1226.31C718.706 1230.1 718.229 1233.34 717.274 1236.02C716.32 1238.69 714.939 1240.73 713.132 1242.14C711.326 1243.54 709.138 1244.24 706.57 1244.24ZM706.57 1240.49C709.115 1240.49 711.093 1239.26 712.502 1236.81C713.911 1234.35 714.615 1230.85 714.615 1226.31C714.615 1223.28 714.292 1220.71 713.644 1218.59C713.007 1216.46 712.087 1214.84 710.882 1213.73C709.689 1212.61 708.252 1212.06 706.57 1212.06C704.047 1212.06 702.076 1213.3 700.655 1215.79C699.235 1218.27 698.524 1221.77 698.524 1226.31C698.524 1229.33 698.843 1231.9 699.479 1234.01C700.115 1236.13 701.03 1237.73 702.223 1238.84C703.428 1239.94 704.877 1240.49 706.57 1240.49Z" fill="black"/>
<path d="M781.434 473.844C871.307 472.717 916.934 521.722 940.616 590.427C886.826 590.427 833.039 590.427 779.25 590.427" stroke="black" stroke-width="0.96" stroke-miterlimit="22.9256"/>
</svg>
