<svg width="1512" height="1512" viewBox="0 0 1512 1512" fill="none" xmlns="http://www.w3.org/2000/svg">
<path d="M499.997 1042.29C499.273 984.163 522.822 951.988 567.013 936.671C567.013 971.461 567.013 1006.25 567.013 1041.04" stroke="black" stroke-width="0.96" stroke-miterlimit="22.9256"/>
<path d="M1191.87 127.457V1058.59H1158.53V127.457H1191.87Z" fill="black"/>
<path fill-rule="evenodd" clip-rule="evenodd" d="M1096.4 1040.48H1088.82V1058.61H1096.4H1191.87V992.554H1096.4V1040.48Z" fill="black"/>
<path d="M577.695 1034.31V1041.92C577.695 1042.76 577.094 1043.44 576.352 1043.44H568.235C567.493 1043.44 566.892 1042.76 566.892 1041.92V1034.31C566.892 1033.47 567.493 1032.78 568.235 1032.78H576.352C577.094 1032.78 577.695 1033.47 577.695 1034.31Z" stroke="black" stroke-width="3.78454" stroke-miterlimit="22.9256"/>
<path d="M1191.87 122V152.731H958.842V122H1191.87Z" fill="black"/>
<path d="M958.842 124.723V136.506C958.842 137.347 957.965 138.029 956.885 138.029H951.685C950.604 138.029 949.728 137.347 949.728 136.506V124.723C949.728 123.881 950.604 123.2 951.685 123.2H956.885C957.965 123.2 958.842 123.881 958.842 124.723Z" stroke="black" stroke-width="3.04544" stroke-miterlimit="22.9256"/>
<path d="M500.343 1034.54V1043.11C500.343 1044.05 499.661 1044.82 498.82 1044.82H489.617C488.775 1044.82 488.094 1044.05 488.094 1043.11V1034.54C488.094 1033.59 488.775 1032.82 489.617 1032.82H498.82C499.661 1032.82 500.343 1033.59 500.343 1034.54Z" stroke="black" stroke-width="4.27523" stroke-miterlimit="22.9256"/>
<path d="M1092.09 1042V1058.18H869.114V1042H1092.09Z" stroke="black" stroke-width="4.07771" stroke-miterlimit="22.9256"/>
<path d="M1086.5 1032.02V1042H868.827V1032.02H1086.5Z" stroke="black" stroke-width="4.09611" stroke-miterlimit="22.9256"/>
<path d="M1098.81 997.089V1032.16H860.404V997.089H1098.81Z" stroke="black" stroke-width="3.91397" stroke-miterlimit="22.9256"/>
<path d="M869.365 1041.37V1059.43H681.994V1041.37H869.365Z" fill="black"/>
<path d="M860.404 995.668V1049.18H685.897V995.668H860.404Z" fill="black" stroke="black" stroke-width="3.05256" stroke-miterlimit="22.9256"/>
<path d="M590.307 1032.78V1043.39H577.694V1032.78H590.307Z" stroke="black" stroke-width="2.95492" stroke-miterlimit="22.9256"/>
<path d="M673.559 1032.76V1043.24H590.022V1032.76H673.559Z" stroke="black" stroke-width="2.60104" stroke-miterlimit="22.9256"/>
<path d="M685.895 995.951V1032.23H577.537V995.951H685.895Z" stroke="black" stroke-width="2.6837" stroke-miterlimit="22.9256"/>
<path d="M498.873 1044.57V1061.83H321V1044.57H498.873Z" fill="black"/>
<path d="M489.802 996.404V1055.35H321.346V996.404H489.802Z" fill="black"/>
<path d="M355.319 126.952V1061.83H321.346V126.952H355.319Z" fill="black"/>
<path d="M798.522 423.568V440.655H750.082V423.568H798.522Z" fill="black"/>
<path d="M996.799 344.66V429.893C996.799 430.496 996.117 430.985 995.276 430.985H980C979.158 430.985 978.477 430.496 978.477 429.893V344.66C978.477 344.057 979.158 343.568 980 343.568H995.276C996.117 343.568 996.799 344.057 996.799 344.66Z" fill="black"/>
<path d="M615.799 144.677V231.262C615.799 231.875 615.117 232.372 614.276 232.372H599C598.158 232.372 597.477 231.875 597.477 231.262V144.677C597.477 144.064 598.158 143.567 599 143.567H614.276C615.117 143.567 615.799 144.064 615.799 144.677Z" fill="black"/>
<path d="M773.501 439.388V1033.2H755.77V439.388H773.501Z" fill="black"/>
<path d="M996.301 135.864V246.738C996.301 247.523 995.619 248.16 994.778 248.16H979.502C978.66 248.16 977.979 247.523 977.979 246.738V135.864C977.979 135.079 978.66 134.442 979.502 134.442H994.778C995.619 134.442 996.301 135.079 996.301 135.864Z" fill="black"/>
<path d="M749.327 1058.79V1216.61H724.618V1058.79H749.327Z" fill="black"/>
<path d="M749.327 1196.03V1216.61H324.405V1196.03H749.327Z" fill="black"/>
<path d="M347.843 1054.36V1216.6H321.592V1054.36H347.843Z" fill="black"/>
<path d="M1187.69 427.09V444.177H908.363V427.09H1187.69Z" fill="black"/>
<path d="M836.842 125.219V137.003C836.842 137.844 835.966 138.526 834.885 138.526H829.685C828.605 138.526 827.728 137.844 827.728 137.003V125.219C827.728 124.378 828.605 123.696 829.685 123.696H834.885C835.966 123.696 836.842 124.378 836.842 125.219Z" stroke="black" stroke-width="3.04544" stroke-miterlimit="22.9256"/>
<path d="M622.989 427.09V444.177H343.66V427.09H622.989Z" fill="black"/>
<path d="M615.551 343.511V441.615C615.551 442.31 614.869 442.873 614.028 442.873H598.752C597.911 442.873 597.229 442.31 597.229 441.615V343.511C597.229 342.816 597.911 342.253 598.752 342.253H614.028C614.869 342.253 615.551 342.816 615.551 343.511Z" fill="black"/>
<path d="M749.819 425.7V437.484C749.819 438.325 748.942 439.007 747.862 439.007H742.662C741.581 439.007 740.705 438.325 740.705 437.484V425.7C740.705 424.859 741.581 424.177 742.662 424.177H747.862C748.942 424.177 749.819 424.859 749.819 425.7Z" stroke="black" stroke-width="3.04544" stroke-miterlimit="22.9256"/>
<path d="M632.328 427.091V438.874C632.328 439.716 631.452 440.397 630.371 440.397H625.171C624.091 440.397 623.214 439.716 623.214 438.874V427.091C623.214 426.25 624.091 425.568 625.171 425.568H630.371C631.452 425.568 632.328 426.25 632.328 427.091Z" stroke="black" stroke-width="3.04544" stroke-miterlimit="22.9256"/>
<path d="M760.753 631.24H744.828V698.78H760.753V631.24Z" fill="black"/>
<path d="M681.995 1043.24V1058.7H577.495V1043.24H681.995Z" stroke="black" stroke-width="2.72804" stroke-miterlimit="22.9256"/>
<path d="M739.678 432.372C740.382 507.828 675.939 544.857 633.005 564.738C633.005 519.577 633.005 474.419 633.005 429.258" stroke="black" stroke-width="0.96" stroke-miterlimit="22.9256"/>
<path d="M359 240.697V157.673H544.881V240.697H359Z" stroke="black" stroke-width="0.841231" stroke-miterlimit="22.9256"/>
<path fill-rule="evenodd" clip-rule="evenodd" d="M510.824 167.156C469.997 165.407 429.65 166.54 389.063 166.233C374.859 166.029 367.608 166.553 367.838 181.588C367.838 194.032 367.838 206.475 367.838 218.918C367.707 229.485 370.867 233.459 388.553 232.652C429.309 232.345 470.067 232.999 510.824 231.73C543.193 227.841 546.481 172.963 510.824 167.156Z" stroke="black" stroke-width="1.00006" stroke-miterlimit="22.9256"/>
<path d="M384.176 199.868C384.176 201.993 382.453 203.716 380.328 203.716C378.203 203.716 376.48 201.993 376.48 199.868C376.48 197.743 378.203 196.021 380.328 196.021C382.453 196.021 384.176 197.743 384.176 199.868Z" stroke="black" stroke-width="0.635851" stroke-miterlimit="22.9256"/>
<path fill-rule="evenodd" clip-rule="evenodd" d="M371.011 259.533C367.764 259.464 364.627 261.882 363.144 264.57C363.144 282.469 363.144 299.515 363.144 317.414C363.701 319.942 365.452 320.509 369.25 321.365C403.926 323.731 396.931 303.474 397.087 277.544C395.552 262.009 384.406 260.214 371.011 259.533Z" stroke="black" stroke-width="1.00006" stroke-miterlimit="22.9256"/>
<path d="M371.757 290.895C371.757 292.845 370.176 294.426 368.226 294.426C366.276 294.426 364.695 292.845 364.695 290.895C364.695 288.945 366.276 287.364 368.226 287.364C370.176 287.364 371.757 288.945 371.757 290.895Z" stroke="black" stroke-width="1.09923" stroke-miterlimit="22.9256"/>
<path fill-rule="evenodd" clip-rule="evenodd" d="M369.427 267.707C366.834 267.659 364.328 269.385 363.144 271.304C363.144 284.084 363.144 296.255 363.144 309.035C363.588 310.839 364.987 311.245 368.021 311.856C395.279 314.117 390.134 298.248 390.253 280.568C390.038 268.989 379.659 267.707 369.427 267.707Z" stroke="black" stroke-width="1.00006" stroke-miterlimit="22.9256"/>
<path d="M352.885 255.721C377.495 255.953 400.449 248.44 403.622 278.568C404.431 288.379 404.085 297.743 402.733 307.376C397.257 332.048 376.049 324.302 352.523 324.715" stroke="black" stroke-width="1.00006" stroke-miterlimit="22.9256" stroke-linecap="round" stroke-linejoin="round"/>
<path d="M402.386 352.619L392.293 353.739" stroke="black" stroke-width="1.00006" stroke-miterlimit="22.9256"/>
<path d="M401.983 387.309L391.892 386.186" stroke="black" stroke-width="1.00006" stroke-miterlimit="22.9256"/>
<path d="M356.352 336.386C364.349 336.386 372.347 336.384 380.343 336.384C386.307 336.367 390.621 339.457 392.395 347.037C392.302 360.523 392.208 374.011 392.114 387.498C392.665 398.051 388.094 402.44 380.343 403.093H355.972" stroke="black" stroke-width="1.00006" stroke-miterlimit="22.9256"/>
<path fill-rule="evenodd" clip-rule="evenodd" d="M422.552 395.067C414.586 396.371 407.678 394.573 402.372 388.06C397.462 375.185 397.748 363.477 402.373 352.744C407.09 347.004 413.244 344.325 420.999 345.048C432.577 346.176 443.817 350.35 454.504 359.472C460.987 365.847 461.518 373.06 454.504 381.333C445.197 388.822 434.489 393.275 422.552 395.067Z" stroke="black" stroke-width="1.00006" stroke-miterlimit="22.9256"/>
<path fill-rule="evenodd" clip-rule="evenodd" d="M578.389 364.298H567.385H526.57H515.626V421.511H578.389V364.298Z" stroke="black" stroke-width="0.755906" stroke-miterlimit="22.9256"/>
<path d="M567.386 358.898H526.57V364.298H567.386V358.898Z" stroke="black" stroke-width="0.755906" stroke-miterlimit="22.9256"/>
<path d="M826.796 122V152.731H321.348V122H826.796Z" fill="black"/>
<path d="M836.841 131.11C836.122 208.139 905.93 245.722 949.758 266.017C949.758 219.915 949.758 173.816 949.758 127.713" stroke="black" stroke-width="0.96" stroke-miterlimit="22.9256"/>
<path d="M554.716 1313.57V1213.8H322.405V1313.57H554.716Z" stroke="black" stroke-width="0.676558" stroke-miterlimit="22.9256"/>
<path d="M555.018 1213.64L322.707 1313.41" stroke="black" stroke-width="0.639874" stroke-miterlimit="22.9256"/>
<path d="M554.714 1313.58L324.212 1216.25" stroke="black" stroke-width="0.639874" stroke-miterlimit="22.9256"/>
<path fill-rule="evenodd" clip-rule="evenodd" d="M450.547 887.148V950.534C450.548 952.896 448.633 954.811 446.272 954.811L382.054 954.81C379.693 954.811 377.778 952.896 377.778 950.535V887.148C377.778 884.787 379.693 882.872 382.054 882.872H446.272C448.633 882.872 450.548 884.787 450.548 887.148H450.547Z" stroke="black" stroke-width="1.00006" stroke-miterlimit="22.9256" stroke-linecap="round" stroke-linejoin="round"/>
<path d="M440.358 948.366V889.318H387.965V948.366H440.358Z" stroke="black" stroke-width="0.658178" stroke-miterlimit="22.9256" stroke-linecap="round" stroke-linejoin="round"/>
<path d="M424.975 932.564C424.975 935.091 427.023 937.139 429.549 937.139C432.075 937.139 434.123 935.091 434.123 932.564C434.123 930.038 432.075 927.99 429.549 927.99C427.023 927.99 424.975 930.038 424.975 932.564Z" stroke="black" stroke-width="0.658178" stroke-miterlimit="22.9256"/>
<path d="M448.376 794.552H377.613V862.875H448.376V794.552Z" stroke="black" stroke-width="1.00006" stroke-miterlimit="22.9256" stroke-linejoin="round"/>
<path d="M430.821 818.338C435.776 818.338 439.793 814.321 439.793 809.366C439.793 804.411 435.776 800.394 430.821 800.394C425.866 800.394 421.849 804.411 421.849 809.366C421.849 814.321 425.866 818.338 430.821 818.338Z" stroke="black" stroke-width="0.639874" stroke-miterlimit="22.9256" stroke-linejoin="round"/>
<path d="M431.248 798.483H430.575V821.358H431.248V798.483Z" fill="black"/>
<path d="M441.98 810.16V809.487H419.105V810.16H441.98Z" fill="black"/>
<path d="M396.512 818.518C401.467 818.518 405.484 814.501 405.484 809.545C405.484 804.59 401.467 800.573 396.512 800.573C391.557 800.573 387.54 804.59 387.54 809.545C387.54 814.501 391.557 818.518 396.512 818.518Z" stroke="black" stroke-width="0.639874" stroke-miterlimit="22.9256" stroke-linejoin="round"/>
<path d="M397.159 798.18H396.486V821.055H397.159V798.18Z" fill="black"/>
<path d="M407.722 809.952V809.279H384.847V809.952H407.722Z" fill="black"/>
<path d="M396.734 854.573C401.689 854.573 405.706 850.556 405.706 845.601C405.706 840.646 401.689 836.629 396.734 836.629C391.779 836.629 387.762 840.646 387.762 845.601C387.762 850.556 391.779 854.573 396.734 854.573Z" stroke="black" stroke-width="0.639874" stroke-miterlimit="22.9256" stroke-linejoin="round"/>
<path d="M397.38 834.235H396.707V857.11H397.38V834.235Z" fill="black"/>
<path d="M408.482 846.009V845.336H385.607V846.009H408.482Z" fill="black"/>
<path d="M430.821 853.987C435.776 853.987 439.793 849.97 439.793 845.015C439.793 840.06 435.776 836.043 430.821 836.043C425.866 836.043 421.849 840.06 421.849 845.015C421.849 849.97 425.866 853.987 430.821 853.987Z" stroke="black" stroke-width="0.639874" stroke-miterlimit="22.9256" stroke-linejoin="round"/>
<path d="M431.268 833.721H430.595V856.595H431.268V833.721Z" fill="black"/>
<path d="M441.753 845.423V844.75H418.878V845.423H441.753Z" fill="black"/>
<path d="M1040.56 305.244V302.175L1052.09 289.562C1053.44 288.085 1054.55 286.8 1055.43 285.71C1056.3 284.607 1056.95 283.573 1057.37 282.607C1057.8 281.63 1058.02 280.607 1058.02 279.539C1058.02 278.312 1057.72 277.249 1057.13 276.352C1056.55 275.454 1055.76 274.761 1054.75 274.272C1053.73 273.783 1052.6 273.539 1051.34 273.539C1050 273.539 1048.83 273.818 1047.83 274.374C1046.84 274.92 1046.07 275.687 1045.52 276.675C1044.99 277.664 1044.72 278.823 1044.72 280.153H1040.7C1040.7 278.107 1041.17 276.312 1042.12 274.766C1043.06 273.221 1044.34 272.016 1045.97 271.153C1047.6 270.289 1049.44 269.857 1051.47 269.857C1053.52 269.857 1055.33 270.289 1056.91 271.153C1058.49 272.016 1059.73 273.181 1060.63 274.647C1061.52 276.113 1061.97 277.744 1061.97 279.539C1061.97 280.823 1061.74 282.079 1061.27 283.306C1060.82 284.522 1060.02 285.88 1058.89 287.38C1057.76 288.869 1056.2 290.687 1054.2 292.835L1046.36 301.221V301.494H1062.59V305.244H1040.56ZM1072.63 305.516C1071.79 305.516 1071.06 305.215 1070.46 304.613C1069.86 304.011 1069.56 303.289 1069.56 302.448C1069.56 301.607 1069.86 300.886 1070.46 300.283C1071.06 299.681 1071.79 299.38 1072.63 299.38C1073.47 299.38 1074.19 299.681 1074.79 300.283C1075.39 300.886 1075.7 301.607 1075.7 302.448C1075.7 303.005 1075.55 303.516 1075.27 303.982C1075 304.448 1074.63 304.823 1074.16 305.107C1073.71 305.38 1073.2 305.516 1072.63 305.516ZM1093.05 305.721C1091.05 305.721 1089.25 305.323 1087.65 304.528C1086.05 303.732 1084.76 302.641 1083.8 301.255C1082.83 299.869 1082.3 298.289 1082.21 296.516H1086.3C1086.46 298.096 1087.18 299.403 1088.45 300.437C1089.73 301.46 1091.27 301.971 1093.05 301.971C1094.48 301.971 1095.76 301.636 1096.87 300.965C1097.99 300.295 1098.88 299.374 1099.51 298.204C1100.16 297.022 1100.48 295.687 1100.48 294.198C1100.48 292.675 1100.15 291.318 1099.48 290.124C1098.82 288.92 1097.91 287.971 1096.75 287.278C1095.59 286.585 1094.27 286.232 1092.78 286.221C1091.71 286.21 1090.61 286.374 1089.49 286.715C1088.36 287.045 1087.44 287.471 1086.71 287.994L1082.76 287.516L1084.87 270.335H1103.01V274.085H1088.42L1087.19 284.38H1087.39C1088.11 283.812 1089.01 283.34 1090.09 282.965C1091.17 282.59 1092.29 282.403 1093.46 282.403C1095.6 282.403 1097.5 282.914 1099.17 283.937C1100.85 284.948 1102.17 286.335 1103.13 288.096C1104.09 289.857 1104.57 291.869 1104.57 294.13C1104.57 296.357 1104.07 298.346 1103.07 300.096C1102.09 301.835 1100.72 303.21 1098.98 304.221C1097.24 305.221 1095.27 305.721 1093.05 305.721ZM1122.73 305.721C1120.16 305.721 1117.98 305.022 1116.17 303.624C1114.36 302.215 1112.98 300.175 1112.03 297.505C1111.07 294.823 1110.6 291.585 1110.6 287.789C1110.6 284.016 1111.07 280.795 1112.03 278.124C1112.99 275.443 1114.38 273.397 1116.19 271.988C1118 270.568 1120.19 269.857 1122.73 269.857C1125.28 269.857 1127.45 270.568 1129.26 271.988C1131.08 273.397 1132.47 275.443 1133.42 278.124C1134.39 280.795 1134.87 284.016 1134.87 287.789C1134.87 291.585 1134.39 294.823 1133.44 297.505C1132.48 300.175 1131.1 302.215 1129.29 303.624C1127.49 305.022 1125.3 305.721 1122.73 305.721ZM1122.73 301.971C1125.28 301.971 1127.25 300.744 1128.66 298.289C1130.07 295.835 1130.78 292.335 1130.78 287.789C1130.78 284.766 1130.45 282.193 1129.81 280.068C1129.17 277.943 1128.25 276.323 1127.04 275.21C1125.85 274.096 1124.41 273.539 1122.73 273.539C1120.21 273.539 1118.24 274.783 1116.82 277.272C1115.4 279.749 1114.69 283.255 1114.69 287.789C1114.69 290.812 1115 293.38 1115.64 295.494C1116.28 297.607 1117.19 299.215 1118.39 300.318C1119.59 301.42 1121.04 301.971 1122.73 301.971Z" fill="black"/>
<path d="M754.999 314.045C752.999 314.045 751.198 313.647 749.596 312.851C747.994 312.056 746.71 310.965 745.744 309.579C744.778 308.192 744.249 306.613 744.158 304.84H748.249C748.408 306.42 749.124 307.726 750.397 308.761C751.681 309.783 753.215 310.295 754.999 310.295C756.431 310.295 757.704 309.959 758.817 309.289C759.942 308.619 760.823 307.698 761.46 306.528C762.107 305.346 762.431 304.011 762.431 302.522C762.431 300.999 762.096 299.641 761.425 298.448C760.766 297.244 759.857 296.295 758.698 295.601C757.539 294.908 756.215 294.556 754.727 294.545C753.658 294.533 752.562 294.698 751.437 295.039C750.312 295.369 749.386 295.795 748.658 296.317L744.704 295.84L746.817 278.658H764.954V282.408H750.363L749.136 292.704H749.34C750.056 292.136 750.954 291.664 752.033 291.289C753.113 290.914 754.238 290.726 755.408 290.726C757.545 290.726 759.448 291.238 761.119 292.261C762.8 293.272 764.119 294.658 765.073 296.42C766.039 298.181 766.522 300.192 766.522 302.454C766.522 304.681 766.022 306.67 765.022 308.42C764.033 310.158 762.67 311.533 760.931 312.545C759.192 313.545 757.215 314.045 754.999 314.045ZM774.981 313.84C774.14 313.84 773.418 313.539 772.816 312.937C772.214 312.334 771.913 311.613 771.913 310.772C771.913 309.931 772.214 309.209 772.816 308.607C773.418 308.005 774.14 307.704 774.981 307.704C775.822 307.704 776.543 308.005 777.146 308.607C777.748 309.209 778.049 309.931 778.049 310.772C778.049 311.329 777.907 311.84 777.623 312.306C777.35 312.772 776.981 313.147 776.515 313.431C776.06 313.704 775.549 313.84 774.981 313.84ZM795.985 278.181C797.417 278.192 798.849 278.465 800.281 278.999C801.712 279.533 803.019 280.42 804.201 281.658C805.383 282.886 806.332 284.562 807.048 286.687C807.763 288.812 808.121 291.476 808.121 294.681C808.121 297.783 807.826 300.539 807.235 302.948C806.656 305.346 805.815 307.369 804.712 309.016C803.621 310.664 802.292 311.914 800.724 312.766C799.167 313.619 797.406 314.045 795.44 314.045C793.485 314.045 791.741 313.658 790.207 312.886C788.684 312.101 787.434 311.016 786.457 309.63C785.491 308.232 784.871 306.613 784.599 304.772H788.758C789.133 306.374 789.877 307.698 790.991 308.744C792.116 309.778 793.599 310.295 795.44 310.295C798.133 310.295 800.258 309.119 801.815 306.766C803.383 304.414 804.167 301.09 804.167 296.795H803.894C803.258 297.749 802.502 298.573 801.627 299.266C800.752 299.959 799.781 300.494 798.712 300.869C797.644 301.244 796.508 301.431 795.303 301.431C793.303 301.431 791.468 300.937 789.798 299.948C788.138 298.948 786.809 297.579 785.809 295.84C784.82 294.09 784.326 292.09 784.326 289.84C784.326 287.704 784.803 285.749 785.758 283.976C786.724 282.192 788.076 280.772 789.815 279.715C791.565 278.658 793.621 278.147 795.985 278.181ZM795.985 281.931C794.553 281.931 793.263 282.289 792.116 283.005C790.979 283.709 790.076 284.664 789.406 285.869C788.746 287.062 788.417 288.386 788.417 289.84C788.417 291.295 788.735 292.619 789.371 293.812C790.019 294.994 790.9 295.937 792.013 296.641C793.138 297.334 794.417 297.681 795.849 297.681C796.928 297.681 797.934 297.471 798.866 297.05C799.798 296.619 800.61 296.033 801.303 295.295C802.008 294.545 802.559 293.698 802.957 292.755C803.354 291.8 803.553 290.806 803.553 289.772C803.553 288.408 803.224 287.13 802.565 285.937C801.917 284.744 801.019 283.778 799.871 283.039C798.735 282.3 797.44 281.931 795.985 281.931ZM826.211 314.045C823.643 314.045 821.455 313.346 819.648 311.948C817.842 310.539 816.461 308.499 815.506 305.829C814.552 303.147 814.075 299.908 814.075 296.113C814.075 292.34 814.552 289.119 815.506 286.448C816.472 283.766 817.859 281.721 819.665 280.312C821.484 278.891 823.665 278.181 826.211 278.181C828.756 278.181 830.933 278.891 832.739 280.312C834.558 281.721 835.944 283.766 836.898 286.448C837.864 289.119 838.347 292.34 838.347 296.113C838.347 299.908 837.87 303.147 836.915 305.829C835.961 308.499 834.58 310.539 832.773 311.948C830.967 313.346 828.779 314.045 826.211 314.045ZM826.211 310.295C828.756 310.295 830.734 309.067 832.143 306.613C833.552 304.158 834.256 300.658 834.256 296.113C834.256 293.09 833.933 290.516 833.285 288.391C832.648 286.266 831.728 284.647 830.523 283.533C829.33 282.42 827.893 281.863 826.211 281.863C823.688 281.863 821.717 283.107 820.296 285.596C818.876 288.073 818.165 291.579 818.165 296.113C818.165 299.136 818.484 301.704 819.12 303.817C819.756 305.931 820.671 307.539 821.864 308.641C823.069 309.744 824.518 310.295 826.211 310.295Z" fill="black"/>
<path d="M459.108 304.558V301.08L474.449 276.808H476.972V282.194H475.267L463.676 300.535V300.808H484.335V304.558H459.108ZM475.54 311.717V303.501V301.882V276.808H479.563V311.717H475.54ZM492.082 311.99C491.242 311.99 490.52 311.688 489.918 311.086C489.315 310.484 489.014 309.762 489.014 308.921C489.014 308.08 489.315 307.359 489.918 306.757C490.52 306.154 491.242 305.853 492.082 305.853C492.923 305.853 493.645 306.154 494.247 306.757C494.85 307.359 495.151 308.08 495.151 308.921C495.151 309.478 495.009 309.99 494.725 310.455C494.452 310.921 494.082 311.296 493.617 311.58C493.162 311.853 492.651 311.99 492.082 311.99ZM502.301 311.717V308.649L513.824 296.035C515.176 294.558 516.29 293.274 517.165 292.183C518.04 291.08 518.688 290.046 519.108 289.08C519.54 288.103 519.756 287.08 519.756 286.012C519.756 284.785 519.46 283.722 518.869 282.825C518.29 281.927 517.494 281.234 516.483 280.745C515.472 280.257 514.335 280.012 513.074 280.012C511.733 280.012 510.563 280.291 509.563 280.847C508.574 281.393 507.807 282.16 507.261 283.149C506.727 284.137 506.46 285.296 506.46 286.626H502.438C502.438 284.58 502.909 282.785 503.852 281.24C504.796 279.694 506.08 278.49 507.705 277.626C509.341 276.762 511.176 276.33 513.21 276.33C515.256 276.33 517.068 276.762 518.648 277.626C520.227 278.49 521.466 279.654 522.364 281.12C523.261 282.586 523.71 284.217 523.71 286.012C523.71 287.296 523.477 288.552 523.011 289.779C522.557 290.995 521.761 292.353 520.625 293.853C519.5 295.342 517.938 297.16 515.938 299.308L508.097 307.694V307.967H524.324V311.717H502.301ZM542.75 312.194C540.182 312.194 537.994 311.495 536.188 310.097C534.381 308.688 533 306.649 532.046 303.978C531.091 301.296 530.614 298.058 530.614 294.262C530.614 290.49 531.091 287.268 532.046 284.597C533.011 281.916 534.398 279.87 536.205 278.461C538.023 277.041 540.205 276.33 542.75 276.33C545.296 276.33 547.472 277.041 549.278 278.461C551.097 279.87 552.483 281.916 553.438 284.597C554.403 287.268 554.886 290.49 554.886 294.262C554.886 298.058 554.409 301.296 553.455 303.978C552.5 306.649 551.119 308.688 549.313 310.097C547.506 311.495 545.318 312.194 542.75 312.194ZM542.75 308.444C545.296 308.444 547.273 307.217 548.682 304.762C550.091 302.308 550.796 298.808 550.796 294.262C550.796 291.24 550.472 288.666 549.824 286.541C549.188 284.416 548.267 282.796 547.063 281.683C545.869 280.569 544.432 280.012 542.75 280.012C540.227 280.012 538.256 281.257 536.835 283.745C535.415 286.222 534.705 289.728 534.705 294.262C534.705 297.285 535.023 299.853 535.659 301.967C536.296 304.08 537.21 305.688 538.403 306.791C539.608 307.893 541.057 308.444 542.75 308.444Z" fill="black"/>
<path d="M1033.53 915.16V950.069H1029.31V919.592H1029.1L1020.58 925.251V920.956L1029.31 915.16H1033.53ZM1043.57 950.069V947.001L1055.1 934.388C1056.45 932.91 1057.56 931.626 1058.44 930.535C1059.31 929.433 1059.96 928.399 1060.38 927.433C1060.81 926.456 1061.03 925.433 1061.03 924.365C1061.03 923.138 1060.73 922.075 1060.14 921.177C1059.56 920.28 1058.77 919.586 1057.76 919.098C1056.74 918.609 1055.61 918.365 1054.35 918.365C1053.01 918.365 1051.84 918.643 1050.84 919.2C1049.85 919.745 1049.08 920.513 1048.53 921.501C1048 922.49 1047.73 923.649 1047.73 924.978H1043.71C1043.71 922.933 1044.18 921.138 1045.12 919.592C1046.07 918.047 1047.35 916.842 1048.98 915.978C1050.61 915.115 1052.45 914.683 1054.48 914.683C1056.53 914.683 1058.34 915.115 1059.92 915.978C1061.5 916.842 1062.74 918.007 1063.64 919.473C1064.53 920.939 1064.98 922.569 1064.98 924.365C1064.98 925.649 1064.75 926.905 1064.28 928.132C1063.83 929.348 1063.03 930.706 1061.9 932.206C1060.77 933.694 1059.21 935.513 1057.21 937.66L1049.37 946.047V946.319H1065.6V950.069H1043.57ZM1075.64 950.342C1074.8 950.342 1074.07 950.041 1073.47 949.439C1072.87 948.836 1072.57 948.115 1072.57 947.274C1072.57 946.433 1072.87 945.711 1073.47 945.109C1074.07 944.507 1074.8 944.206 1075.64 944.206C1076.48 944.206 1077.2 944.507 1077.8 945.109C1078.4 945.711 1078.7 946.433 1078.7 947.274C1078.7 947.831 1078.56 948.342 1078.28 948.808C1078.01 949.274 1077.64 949.649 1077.17 949.933C1076.72 950.206 1076.2 950.342 1075.64 950.342ZM1085.04 942.91V939.433L1100.38 915.16H1102.9V920.547H1101.2L1089.6 938.888V939.16H1110.26V942.91H1085.04ZM1101.47 950.069V941.853V940.234V915.16H1105.49V950.069H1101.47ZM1128.04 950.547C1125.47 950.547 1123.28 949.848 1121.48 948.45C1119.67 947.041 1118.29 945.001 1117.33 942.331C1116.38 939.649 1115.9 936.41 1115.9 932.615C1115.9 928.842 1116.38 925.62 1117.33 922.95C1118.3 920.268 1119.69 918.223 1121.49 916.814C1123.31 915.393 1125.49 914.683 1128.04 914.683C1130.58 914.683 1132.76 915.393 1134.57 916.814C1136.38 918.223 1137.77 920.268 1138.73 922.95C1139.69 925.62 1140.17 928.842 1140.17 932.615C1140.17 936.41 1139.7 939.649 1138.74 942.331C1137.79 945.001 1136.41 947.041 1134.6 948.45C1132.79 949.848 1130.61 950.547 1128.04 950.547ZM1128.04 946.797C1130.58 946.797 1132.56 945.569 1133.97 943.115C1135.38 940.66 1136.08 937.16 1136.08 932.615C1136.08 929.592 1135.76 927.018 1135.11 924.893C1134.48 922.768 1133.56 921.149 1132.35 920.035C1131.16 918.922 1129.72 918.365 1128.04 918.365C1125.52 918.365 1123.54 919.609 1122.12 922.098C1120.7 924.575 1119.99 928.081 1119.99 932.615C1119.99 935.638 1120.31 938.206 1120.95 940.319C1121.58 942.433 1122.5 944.041 1123.69 945.143C1124.9 946.245 1126.35 946.797 1128.04 946.797Z" fill="black"/>
<path d="M498.574 1135.24V1132.17L510.097 1119.56C511.449 1118.08 512.563 1116.8 513.438 1115.71C514.313 1114.6 514.96 1113.57 515.381 1112.6C515.813 1111.63 516.029 1110.6 516.029 1109.54C516.029 1108.31 515.733 1107.25 515.142 1106.35C514.563 1105.45 513.767 1104.76 512.756 1104.27C511.745 1103.78 510.608 1103.54 509.347 1103.54C508.006 1103.54 506.835 1103.81 505.835 1104.37C504.847 1104.92 504.08 1105.68 503.534 1106.67C503 1107.66 502.733 1108.82 502.733 1110.15H498.71C498.71 1108.1 499.182 1106.31 500.125 1104.76C501.068 1103.22 502.353 1102.01 503.978 1101.15C505.614 1100.29 507.449 1099.85 509.483 1099.85C511.529 1099.85 513.341 1100.29 514.921 1101.15C516.5 1102.01 517.739 1103.18 518.637 1104.64C519.534 1106.11 519.983 1107.74 519.983 1109.54C519.983 1110.82 519.75 1112.08 519.284 1113.3C518.83 1114.52 518.034 1115.88 516.898 1117.38C515.773 1118.87 514.21 1120.68 512.21 1122.83L504.37 1131.22V1131.49H520.597V1135.24H498.574ZM530.637 1135.51C529.796 1135.51 529.074 1135.21 528.472 1134.61C527.87 1134.01 527.568 1133.29 527.568 1132.44C527.568 1131.6 527.87 1130.88 528.472 1130.28C529.074 1129.68 529.796 1129.38 530.637 1129.38C531.478 1129.38 532.199 1129.68 532.801 1130.28C533.404 1130.88 533.705 1131.6 533.705 1132.44C533.705 1133 533.563 1133.51 533.279 1133.98C533.006 1134.44 532.637 1134.82 532.171 1135.1C531.716 1135.38 531.205 1135.51 530.637 1135.51ZM551.641 1099.85C553.073 1099.87 554.505 1100.14 555.936 1100.67C557.368 1101.21 558.675 1102.09 559.857 1103.33C561.039 1104.56 561.987 1106.23 562.703 1108.36C563.419 1110.48 563.777 1113.15 563.777 1116.35C563.777 1119.46 563.482 1122.21 562.891 1124.62C562.311 1127.02 561.47 1129.04 560.368 1130.69C559.277 1132.34 557.948 1133.59 556.38 1134.44C554.823 1135.29 553.061 1135.72 551.095 1135.72C549.141 1135.72 547.397 1135.33 545.862 1134.56C544.34 1133.77 543.09 1132.69 542.112 1131.3C541.147 1129.91 540.527 1128.29 540.255 1126.44H544.414C544.789 1128.05 545.533 1129.37 546.647 1130.42C547.772 1131.45 549.255 1131.97 551.095 1131.97C553.789 1131.97 555.914 1130.79 557.47 1128.44C559.039 1126.09 559.823 1122.76 559.823 1118.47H559.55C558.914 1119.42 558.158 1120.25 557.283 1120.94C556.408 1121.63 555.436 1122.17 554.368 1122.54C553.3 1122.92 552.164 1123.1 550.959 1123.1C548.959 1123.1 547.124 1122.61 545.453 1121.62C543.794 1120.62 542.465 1119.25 541.465 1117.51C540.476 1115.76 539.982 1113.76 539.982 1111.51C539.982 1109.38 540.459 1107.42 541.414 1105.65C542.38 1103.87 543.732 1102.44 545.47 1101.39C547.22 1100.33 549.277 1099.82 551.641 1099.85ZM551.641 1103.6C550.209 1103.6 548.919 1103.96 547.772 1104.68C546.635 1105.38 545.732 1106.34 545.061 1107.54C544.402 1108.73 544.073 1110.06 544.073 1111.51C544.073 1112.97 544.391 1114.29 545.027 1115.48C545.675 1116.67 546.556 1117.61 547.669 1118.31C548.794 1119.01 550.073 1119.35 551.505 1119.35C552.584 1119.35 553.59 1119.14 554.522 1118.72C555.453 1118.29 556.266 1117.71 556.959 1116.97C557.664 1116.22 558.215 1115.37 558.612 1114.43C559.01 1113.47 559.209 1112.48 559.209 1111.44C559.209 1110.08 558.88 1108.8 558.22 1107.61C557.573 1106.42 556.675 1105.45 555.527 1104.71C554.391 1103.97 553.095 1103.6 551.641 1103.6ZM581.867 1135.72C579.299 1135.72 577.111 1135.02 575.304 1133.62C573.497 1132.21 572.117 1130.17 571.162 1127.5C570.208 1124.82 569.73 1121.58 569.73 1117.79C569.73 1114.01 570.208 1110.79 571.162 1108.12C572.128 1105.44 573.514 1103.39 575.321 1101.98C577.139 1100.56 579.321 1099.85 581.867 1099.85C584.412 1099.85 586.588 1100.56 588.395 1101.98C590.213 1103.39 591.6 1105.44 592.554 1108.12C593.52 1110.79 594.003 1114.01 594.003 1117.79C594.003 1121.58 593.526 1124.82 592.571 1127.5C591.617 1130.17 590.236 1132.21 588.429 1133.62C586.622 1135.02 584.435 1135.72 581.867 1135.72ZM581.867 1131.97C584.412 1131.97 586.389 1130.74 587.799 1128.29C589.208 1125.83 589.912 1122.33 589.912 1117.79C589.912 1114.76 589.588 1112.19 588.941 1110.06C588.304 1107.94 587.384 1106.32 586.179 1105.21C584.986 1104.09 583.549 1103.54 581.867 1103.54C579.344 1103.54 577.372 1104.78 575.952 1107.27C574.532 1109.75 573.821 1113.25 573.821 1117.79C573.821 1120.81 574.139 1123.38 574.776 1125.49C575.412 1127.6 576.327 1129.21 577.52 1130.31C578.725 1131.42 580.174 1131.97 581.867 1131.97Z" fill="black"/>
<path d="M430.886 566.091V601H426.659V570.523H426.455L417.932 576.182V571.886L426.659 566.091H430.886ZM452.722 601.477C450.472 601.477 448.466 601.091 446.705 600.318C444.955 599.545 443.563 598.472 442.528 597.097C441.506 595.71 440.949 594.102 440.858 592.273H445.153C445.244 593.398 445.631 594.369 446.312 595.188C446.994 595.994 447.886 596.619 448.989 597.062C450.091 597.506 451.313 597.727 452.653 597.727C454.153 597.727 455.483 597.466 456.642 596.943C457.801 596.42 458.71 595.693 459.369 594.761C460.028 593.83 460.358 592.75 460.358 591.523C460.358 590.239 460.04 589.108 459.403 588.131C458.767 587.142 457.835 586.369 456.608 585.812C455.381 585.256 453.881 584.977 452.108 584.977H449.312V581.227H452.108C453.494 581.227 454.71 580.977 455.756 580.477C456.813 579.977 457.636 579.273 458.227 578.364C458.83 577.455 459.131 576.386 459.131 575.159C459.131 573.977 458.869 572.949 458.347 572.074C457.824 571.199 457.085 570.517 456.131 570.028C455.188 569.54 454.074 569.295 452.79 569.295C451.585 569.295 450.449 569.517 449.381 569.96C448.324 570.392 447.46 571.023 446.79 571.852C446.119 572.67 445.756 573.659 445.699 574.818H441.608C441.676 572.989 442.227 571.386 443.261 570.011C444.295 568.625 445.648 567.545 447.318 566.773C449 566 450.847 565.614 452.858 565.614C455.017 565.614 456.869 566.051 458.415 566.926C459.96 567.79 461.148 568.932 461.977 570.352C462.807 571.773 463.222 573.307 463.222 574.955C463.222 576.92 462.705 578.597 461.67 579.983C460.648 581.369 459.256 582.33 457.494 582.864V583.136C459.699 583.5 461.42 584.437 462.659 585.949C463.898 587.449 464.517 589.307 464.517 591.523C464.517 593.42 464 595.125 462.966 596.636C461.943 598.136 460.545 599.318 458.773 600.182C457 601.045 454.983 601.477 452.722 601.477ZM473.411 601.273C472.57 601.273 471.848 600.972 471.246 600.369C470.643 599.767 470.342 599.045 470.342 598.205C470.342 597.364 470.643 596.642 471.246 596.04C471.848 595.437 472.57 595.136 473.411 595.136C474.251 595.136 474.973 595.437 475.575 596.04C476.178 596.642 476.479 597.364 476.479 598.205C476.479 598.761 476.337 599.273 476.053 599.739C475.78 600.205 475.411 600.58 474.945 600.864C474.49 601.136 473.979 601.273 473.411 601.273ZM491.73 566.091V601H487.503V570.523H487.298L478.776 576.182V571.886L487.503 566.091H491.73ZM513.156 601.477C510.588 601.477 508.401 600.778 506.594 599.381C504.787 597.972 503.406 595.932 502.452 593.261C501.497 590.58 501.02 587.341 501.02 583.545C501.02 579.773 501.497 576.551 502.452 573.881C503.418 571.199 504.804 569.153 506.611 567.744C508.429 566.324 510.611 565.614 513.156 565.614C515.702 565.614 517.878 566.324 519.685 567.744C521.503 569.153 522.889 571.199 523.844 573.881C524.81 576.551 525.293 579.773 525.293 583.545C525.293 587.341 524.815 590.58 523.861 593.261C522.906 595.932 521.526 597.972 519.719 599.381C517.912 600.778 515.724 601.477 513.156 601.477ZM513.156 597.727C515.702 597.727 517.679 596.5 519.088 594.045C520.497 591.591 521.202 588.091 521.202 583.545C521.202 580.523 520.878 577.949 520.23 575.824C519.594 573.699 518.673 572.08 517.469 570.966C516.276 569.852 514.838 569.295 513.156 569.295C510.634 569.295 508.662 570.54 507.241 573.028C505.821 575.506 505.111 579.011 505.111 583.545C505.111 586.568 505.429 589.136 506.065 591.25C506.702 593.364 507.616 594.972 508.81 596.074C510.014 597.176 511.463 597.727 513.156 597.727Z" fill="black"/>
</svg>
