<svg width="1512" height="1512" viewBox="0 0 1512 1512" fill="none" xmlns="http://www.w3.org/2000/svg">
<path d="M201.025 514.69H183.776V1082.8H201.025V514.69Z" fill="black"/>
<path d="M545.13 514.897H200.163V554.568H545.13V514.897Z" fill="black"/>
<path d="M549.91 514.677H544.302V525.397H549.91V514.677Z" fill="black"/>
<path d="M612.074 514.718H549.785V524.932H612.074V514.718Z" stroke="black" stroke-width="0.639874" stroke-miterlimit="22.9256"/>
<path d="M550.684 525.492H544.96V531.889H550.684V525.492Z" stroke="black" stroke-width="0.639874" stroke-miterlimit="22.9256"/>
<path d="M605.34 524.707H550.346V531.889H605.34V524.707Z" stroke="black" stroke-width="0.639874" stroke-miterlimit="22.9256"/>
<path d="M612.188 524.931H605.79V531.441H612.188V524.931Z" stroke="black" stroke-width="0.639874" stroke-miterlimit="22.9256"/>
<path d="M617.503 524.819H612.954C612.778 524.819 612.636 524.988 612.636 525.197V531.287C612.636 531.496 612.778 531.665 612.954 531.665H617.503C617.678 531.665 617.82 531.496 617.82 531.287V525.197C617.82 524.988 617.678 524.819 617.503 524.819Z" stroke="black" stroke-width="0.639874" stroke-miterlimit="22.9256"/>
<path d="M899.647 514.897H671.201V554.568H899.647V514.897Z" fill="black"/>
<path d="M671.329 514.883H665.721V525.397H671.329V514.883Z" fill="black"/>
<path d="M904.535 514.677H898.927V525.397H904.535V514.677Z" fill="black"/>
<path d="M670.643 524.983H665.943C665.762 524.983 665.615 525.153 665.615 525.361V531.452C665.615 531.66 665.762 531.83 665.943 531.83H670.643C670.824 531.83 670.971 531.66 670.971 531.452V525.361C670.971 525.153 670.824 524.983 670.643 524.983Z" stroke="black" stroke-width="0.639874" stroke-miterlimit="22.9256"/>
<path d="M905.798 524.819H899.625V531.665H905.798V524.819Z" stroke="black" stroke-width="0.639874" stroke-miterlimit="22.9256"/>
<path d="M1047.92 514.718H903.885V524.932H1047.92V514.718Z" stroke="black" stroke-width="0.639874" stroke-miterlimit="22.9256"/>
<path d="M1045.3 524.707H905.673V531.889H1045.3V524.707Z" stroke="black" stroke-width="0.639874" stroke-miterlimit="22.9256"/>
<path d="M612.09 531.62H544.767V554.151H612.09V531.62Z" stroke="black" stroke-width="0.639874" stroke-miterlimit="22.9256"/>
<path d="M1053.76 531.62H899.319V555.18H1053.76V531.62Z" stroke="black" stroke-width="0.639874" stroke-miterlimit="22.9256"/>
<path d="M1416.55 514.897H1053.37V554.568H1416.55V514.897Z" fill="black"/>
<path d="M1055.33 514.981H1047.57V525.222H1055.33V514.981Z" fill="black"/>
<path d="M1416.07 546.57H1375.69V692.926H1416.07V546.57Z" fill="black"/>
<path d="M1416.08 687.292H1405.66V698.081H1416.08V687.292Z" fill="black"/>
<path d="M1398.3 692.358H1375.61V845.328H1398.3V692.358Z" stroke="black" stroke-width="0.639874" stroke-miterlimit="22.9256"/>
<path d="M1406.11 700.085H1398.59V839.371H1406.11V700.085Z" stroke="black" stroke-width="0.639874" stroke-miterlimit="22.9256"/>
<path d="M1416.17 697.852H1406.06V839.655H1416.17V697.852Z" stroke="black" stroke-width="0.639874" stroke-miterlimit="22.9256"/>
<path d="M1095.91 553.165H1077.41V580.546H1095.91V553.165Z" fill="black"/>
<path d="M1407.33 844.639H1375.15V930.867H1407.33V844.639Z" fill="black"/>
<path d="M1416.53 839.505H1406.25V930.576H1416.53V839.505Z" fill="black"/>
<path d="M1416.31 912.912H756.876V931.055H1416.31V912.912Z" fill="black"/>
<path d="M786.065 931H768.977V1082H786.065V931Z" fill="black"/>
<path d="M786.011 1066.07H474.558V1082.94H786.011V1066.07Z" fill="black"/>
<path d="M691.441 912.146H648.234V923.257H691.441V912.146Z" fill="black"/>
<path d="M675.397 922.022H666.754V1070.18H675.397V922.022Z" fill="black"/>
<path d="M572.097 912.557H549.462V923.258H572.097V912.557Z" fill="black"/>
<path d="M559.75 920.789H549.462V1072.24H559.75V920.789Z" fill="black"/>
<path d="M389.394 1066.07H184.315V1082.94H389.394V1066.07Z" fill="black"/>
<path d="M392.152 1075.74H390.355C389.885 1075.74 389.504 1076.12 389.504 1076.59V1083.63C389.504 1084.1 389.885 1084.48 390.355 1084.48H392.152C392.622 1084.48 393.003 1084.1 393.003 1083.63V1076.59C393.003 1076.12 392.622 1075.74 392.152 1075.74Z" stroke="black" stroke-width="0.639874" stroke-miterlimit="22.9256"/>
<path d="M473.712 1075.74H471.914C471.444 1075.74 471.063 1076.12 471.063 1076.59V1083.63C471.063 1084.1 471.444 1084.48 471.914 1084.48H473.712C474.182 1084.48 474.563 1084.1 474.563 1083.63V1076.59C474.563 1076.12 474.182 1075.74 473.712 1075.74Z" stroke="black" stroke-width="0.639874" stroke-miterlimit="22.9256"/>
<path d="M379.34 1006.29H369.064V1069.42H379.34V1006.29Z" fill="black"/>
<path d="M379.34 819.916H369.064V939.168H379.34V819.916Z" fill="black"/>
<path d="M381.09 825.301V815.025H198.294V825.301H381.09Z" fill="black"/>
<path d="M817.33 825.301V815.025H459.307V825.301H817.33Z" fill="black"/>
<path d="M1096.63 825.135V814.859H895.917V825.135H1096.63Z" fill="black"/>
<path d="M766.624 552.806H755.358V819.87H766.624V552.806Z" fill="black"/>
<path d="M1096.7 552.806H1085.43V819.87H1096.7V552.806Z" fill="black"/>
<path d="M517.692 807.197H475.75V819.89H517.692V807.197Z" fill="black"/>
<path d="M384.662 816.759H382.333C381.724 816.759 381.23 817.14 381.23 817.61V824.788C381.23 825.259 381.724 825.64 382.333 825.64H384.662C385.271 825.64 385.765 825.259 385.765 824.788V817.61C385.765 817.14 385.271 816.759 384.662 816.759Z" stroke="black" stroke-width="0.639874" stroke-miterlimit="22.9256"/>
<path d="M458.041 816.361H455.877C455.311 816.361 454.852 816.742 454.852 817.212V824.391C454.852 824.861 455.311 825.242 455.877 825.242H458.041C458.607 825.242 459.066 824.861 459.066 824.391V817.212C459.066 816.742 458.607 816.361 458.041 816.361Z" stroke="black" stroke-width="0.639874" stroke-miterlimit="22.9256"/>
<path d="M809.689 413H797V519.899H809.689V413Z" fill="black"/>
<path d="M490.961 412.752H478.271V519.651H490.961V412.752Z" fill="black"/>
<path d="M809 425V413H478V425H809Z" fill="black"/>
<path d="M393.235 1076.17C392.528 1134.51 427.131 1165.16 470.288 1180.53C470.288 1145.61 470.288 1110.7 470.288 1075.78" stroke="black" stroke-width="0.96" stroke-miterlimit="22.9256"/>
<path d="M617.601 526.258C616.966 567.039 626.461 589.541 665.176 600.286C665.176 575.878 665.176 551.471 665.176 527.064" stroke="black" stroke-width="0.96" stroke-miterlimit="22.9256"/>
<path d="M455.035 821.147C455.699 766.343 426.506 737.552 385.965 723.111C385.965 755.912 385.965 788.713 385.965 821.513" stroke="black" stroke-width="0.96" stroke-miterlimit="22.9256"/>
<path d="M711.239 1033.33L712.198 1041.97" stroke="black" stroke-width="1.00006" stroke-miterlimit="22.9256"/>
<path d="M740.954 1033.67L739.992 1042.32" stroke="black" stroke-width="1.00006" stroke-miterlimit="22.9256"/>
<path d="M697.334 1072.76C697.334 1065.91 697.333 1059.06 697.333 1052.21C697.319 1047.1 699.966 1043.4 706.458 1041.88C718.01 1041.97 729.563 1042.05 741.116 1042.13C750.155 1041.65 753.914 1045.57 754.473 1052.21V1073.08" stroke="black" stroke-width="1.00006" stroke-miterlimit="22.9256"/>
<path fill-rule="evenodd" clip-rule="evenodd" d="M747.599 1016.05C748.716 1022.88 747.176 1028.79 741.597 1033.34C730.569 1037.54 720.54 1037.3 711.346 1033.34C706.43 1029.3 704.135 1024.03 704.755 1017.38C705.721 1007.47 709.296 997.839 717.11 988.684C722.57 983.131 728.748 982.676 735.835 988.684C742.25 996.656 746.064 1005.83 747.599 1016.05Z" stroke="black" stroke-width="1.00006" stroke-miterlimit="22.9256"/>
<path d="M209.427 1061.05L209.415 996.117L354.804 996.09L354.816 1061.03L209.427 1061.05Z" stroke="black" stroke-width="0.657977" stroke-miterlimit="22.9256"/>
<path fill-rule="evenodd" clip-rule="evenodd" d="M328.167 1003.51C296.234 1002.15 264.676 1003.04 232.931 1002.81C221.82 1002.65 216.149 1003.06 216.331 1014.82C216.333 1024.56 216.335 1034.29 216.337 1044.02C216.236 1052.29 218.708 1055.39 232.541 1054.76C264.419 1054.51 296.298 1055.02 328.176 1054.02C353.494 1050.97 356.058 1008.05 328.167 1003.51Z" stroke="black" stroke-width="1.00006" stroke-miterlimit="22.9256"/>
<path d="M229.114 1029.12C229.114 1030.78 227.767 1032.13 226.105 1032.13C224.443 1032.13 223.095 1030.78 223.095 1029.12C223.094 1027.46 224.441 1026.11 226.104 1026.11C227.766 1026.11 229.114 1027.46 229.114 1029.12Z" stroke="black" stroke-width="0.497337" stroke-miterlimit="22.9256"/>
<path d="M199.387 914.323C223.537 914.551 246.062 907.178 249.176 936.742C249.97 946.37 249.63 955.559 248.303 965.012C242.93 989.223 222.119 981.621 199.033 982.026" stroke="black" stroke-width="1.00006" stroke-miterlimit="22.9256" stroke-linecap="round" stroke-linejoin="round"/>
<path fill-rule="evenodd" clip-rule="evenodd" d="M214.308 917.107C211.122 917.04 208.044 919.413 206.587 922.05C206.587 939.615 206.587 956.341 206.587 973.906C207.134 976.386 208.853 976.943 212.58 977.783C246.501 979.053 239.305 955.84 239.896 934.782C238.39 919.537 227.452 917.776 214.308 917.107Z" stroke="black" stroke-width="1.00006" stroke-miterlimit="22.9256"/>
<path d="M215.04 947.883C215.04 949.797 213.489 951.348 211.575 951.348C209.661 951.348 208.11 949.797 208.11 947.883C208.11 945.969 209.661 944.418 211.575 944.418C213.489 944.418 215.04 945.969 215.04 947.883Z" stroke="black" stroke-width="1.07866" stroke-miterlimit="22.9256"/>
<path fill-rule="evenodd" clip-rule="evenodd" d="M212.753 925.129C210.209 925.081 207.75 926.775 206.587 928.659C206.587 941.199 206.587 953.142 206.587 965.684C207.024 967.455 208.396 967.852 211.373 968.452C238.122 970.67 233.073 955.099 233.19 937.749C232.979 926.386 222.794 925.129 212.753 925.129Z" stroke="black" stroke-width="1.00006" stroke-miterlimit="22.9256"/>
<path fill-rule="evenodd" clip-rule="evenodd" d="M297.693 887.016H308.677H349.419H360.344V829.905H297.693V887.016Z" stroke="black" stroke-width="0.755906" stroke-miterlimit="22.9256"/>
<path d="M349.419 887.016H308.677V892.406H349.419V887.016Z" stroke="black" stroke-width="0.755906" stroke-miterlimit="22.9256"/>
<path d="M488.253 567.596H415.952V637.403H488.253V567.596Z" stroke="black" stroke-width="1.00006" stroke-miterlimit="22.9256" stroke-linejoin="round"/>
<path d="M432.556 592.195C437.618 592.195 441.723 588.091 441.723 583.028C441.723 577.965 437.618 573.86 432.556 573.86C427.493 573.86 423.388 577.965 423.388 583.028C423.388 588.091 427.493 592.195 432.556 592.195Z" stroke="black" stroke-width="0.639874" stroke-miterlimit="22.9256" stroke-linejoin="round"/>
<path d="M432.582 571.415H431.895V594.787H432.582V571.415Z" fill="black"/>
<path d="M420.552 583.446V582.758H443.924V583.446H420.552Z" fill="black"/>
<path d="M468.943 592.082C474.006 592.082 478.11 587.978 478.11 582.915C478.11 577.852 474.006 573.748 468.943 573.748C463.88 573.748 459.775 577.852 459.775 582.915C459.775 587.978 463.88 592.082 468.943 592.082Z" stroke="black" stroke-width="0.639874" stroke-miterlimit="22.9256" stroke-linejoin="round"/>
<path d="M468.969 571.302H468.282V594.674H468.969V571.302Z" fill="black"/>
<path d="M456.937 583.332V582.645H480.309V583.332H456.937Z" fill="black"/>
<path d="M468.716 628.921C473.779 628.921 477.883 624.817 477.883 619.754C477.883 614.691 473.779 610.586 468.716 610.586C463.653 610.586 459.549 614.691 459.549 619.754C459.549 624.817 463.653 628.921 468.716 628.921Z" stroke="black" stroke-width="0.639874" stroke-miterlimit="22.9256" stroke-linejoin="round"/>
<path d="M468.743 608.141H468.056V631.513H468.743V608.141Z" fill="black"/>
<path d="M456.714 620.171V619.483H480.086V620.171H456.714Z" fill="black"/>
<path d="M432.401 628.323C437.464 628.323 441.568 624.218 441.568 619.156C441.568 614.093 437.464 609.988 432.401 609.988C427.338 609.988 423.233 614.093 423.233 619.156C423.233 624.218 427.338 628.323 432.401 628.323Z" stroke="black" stroke-width="0.639874" stroke-miterlimit="22.9256" stroke-linejoin="round"/>
<path d="M432.428 607.543H431.74V630.915H432.428V607.543Z" fill="black"/>
<path d="M420.397 619.574V618.887H443.769V619.574H420.397Z" fill="black"/>
<path fill-rule="evenodd" clip-rule="evenodd" d="M382.223 563.835H318.426C316.049 563.834 314.122 565.762 314.122 568.138L314.123 632.772C314.122 635.148 316.049 637.075 318.426 637.075H382.223C384.599 637.075 386.526 635.148 386.526 632.772L386.527 568.138C386.526 565.762 384.599 563.834 382.222 563.834L382.223 563.835Z" stroke="black" stroke-width="1.00006" stroke-miterlimit="22.9256" stroke-linecap="round" stroke-linejoin="round"/>
<path d="M379.83 576.391H320.4V629.124H379.83V576.391Z" stroke="black" stroke-width="1.00006" stroke-miterlimit="22.9256" stroke-linecap="round" stroke-linejoin="round"/>
<path d="M336.304 591.875C338.847 591.875 340.908 589.814 340.908 587.271C340.908 584.729 338.847 582.667 336.304 582.667C333.762 582.667 331.7 584.729 331.7 587.271C331.7 589.814 333.762 591.875 336.304 591.875Z" stroke="black" stroke-width="1.00006" stroke-miterlimit="22.9256"/>
<path d="M705.267 318.886V415.646H479.968V318.886H705.267Z" stroke="black" stroke-width="0.65614" stroke-miterlimit="22.9256"/>
<path d="M706.299 414.322L480.999 317.562" stroke="black" stroke-width="0.639874" stroke-miterlimit="22.9256"/>
<path d="M706.004 317.405L482.458 411.791" stroke="black" stroke-width="0.639874" stroke-miterlimit="22.9256"/>
<path d="M601.112 761.203V758.134L612.635 745.521C613.987 744.044 615.101 742.759 615.976 741.669C616.851 740.566 617.498 739.532 617.919 738.566C618.351 737.589 618.566 736.566 618.566 735.498C618.566 734.271 618.271 733.208 617.68 732.311C617.101 731.413 616.305 730.72 615.294 730.231C614.282 729.742 613.146 729.498 611.885 729.498C610.544 729.498 609.373 729.776 608.373 730.333C607.385 730.879 606.618 731.646 606.072 732.634C605.538 733.623 605.271 734.782 605.271 736.112H601.248C601.248 734.066 601.72 732.271 602.663 730.725C603.606 729.18 604.89 727.975 606.515 727.112C608.152 726.248 609.987 725.816 612.021 725.816C614.066 725.816 615.879 726.248 617.459 727.112C619.038 727.975 620.277 729.14 621.174 730.606C622.072 732.072 622.521 733.703 622.521 735.498C622.521 736.782 622.288 738.038 621.822 739.265C621.368 740.481 620.572 741.839 619.436 743.339C618.311 744.828 616.748 746.646 614.748 748.794L606.907 757.18V757.453H623.135V761.203H601.112ZM641.561 761.68C638.993 761.68 636.805 760.981 634.998 759.583C633.191 758.174 631.811 756.134 630.856 753.464C629.902 750.782 629.424 747.544 629.424 743.748C629.424 739.975 629.902 736.754 630.856 734.083C631.822 731.401 633.209 729.356 635.015 727.947C636.834 726.526 639.015 725.816 641.561 725.816C644.106 725.816 646.282 726.526 648.089 727.947C649.907 729.356 651.294 731.401 652.248 734.083C653.214 736.754 653.697 739.975 653.697 743.748C653.697 747.544 653.22 750.782 652.265 753.464C651.311 756.134 649.93 758.174 648.123 759.583C646.316 760.981 644.129 761.68 641.561 761.68ZM641.561 757.93C644.106 757.93 646.084 756.703 647.493 754.248C648.902 751.794 649.606 748.294 649.606 743.748C649.606 740.725 649.282 738.151 648.635 736.026C647.998 733.901 647.078 732.282 645.873 731.169C644.68 730.055 643.243 729.498 641.561 729.498C639.038 729.498 637.066 730.742 635.646 733.231C634.226 735.708 633.515 739.214 633.515 743.748C633.515 746.771 633.834 749.339 634.47 751.453C635.106 753.566 636.021 755.174 637.214 756.277C638.419 757.379 639.868 757.93 641.561 757.93ZM661.956 761.475C661.115 761.475 660.393 761.174 659.791 760.572C659.189 759.97 658.887 759.248 658.887 758.407C658.887 757.566 659.189 756.845 659.791 756.242C660.393 755.64 661.115 755.339 661.956 755.339C662.797 755.339 663.518 755.64 664.12 756.242C664.723 756.845 665.024 757.566 665.024 758.407C665.024 758.964 664.882 759.475 664.598 759.941C664.325 760.407 663.956 760.782 663.49 761.066C663.035 761.339 662.524 761.475 661.956 761.475ZM682.342 761.68C679.774 761.68 677.586 760.981 675.78 759.583C673.973 758.174 672.592 756.134 671.637 753.464C670.683 750.782 670.206 747.544 670.206 743.748C670.206 739.975 670.683 736.754 671.637 734.083C672.603 731.401 673.99 729.356 675.797 727.947C677.615 726.526 679.797 725.816 682.342 725.816C684.887 725.816 687.064 726.526 688.87 727.947C690.689 729.356 692.075 731.401 693.03 734.083C693.995 736.754 694.478 739.975 694.478 743.748C694.478 747.544 694.001 750.782 693.047 753.464C692.092 756.134 690.711 758.174 688.905 759.583C687.098 760.981 684.91 761.68 682.342 761.68ZM682.342 757.93C684.887 757.93 686.865 756.703 688.274 754.248C689.683 751.794 690.387 748.294 690.387 743.748C690.387 740.725 690.064 738.151 689.416 736.026C688.78 733.901 687.859 732.282 686.655 731.169C685.461 730.055 684.024 729.498 682.342 729.498C679.819 729.498 677.848 730.742 676.427 733.231C675.007 735.708 674.297 739.214 674.297 743.748C674.297 746.771 674.615 749.339 675.251 751.453C675.887 753.566 676.802 755.174 677.995 756.277C679.2 757.379 680.649 757.93 682.342 757.93ZM712.342 761.68C709.774 761.68 707.586 760.981 705.78 759.583C703.973 758.174 702.592 756.134 701.637 753.464C700.683 750.782 700.206 747.544 700.206 743.748C700.206 739.975 700.683 736.754 701.637 734.083C702.603 731.401 703.99 729.356 705.797 727.947C707.615 726.526 709.797 725.816 712.342 725.816C714.887 725.816 717.064 726.526 718.87 727.947C720.689 729.356 722.075 731.401 723.03 734.083C723.995 736.754 724.478 739.975 724.478 743.748C724.478 747.544 724.001 750.782 723.047 753.464C722.092 756.134 720.711 758.174 718.905 759.583C717.098 760.981 714.91 761.68 712.342 761.68ZM712.342 757.93C714.887 757.93 716.865 756.703 718.274 754.248C719.683 751.794 720.387 748.294 720.387 743.748C720.387 740.725 720.064 738.151 719.416 736.026C718.78 733.901 717.859 732.282 716.655 731.169C715.461 730.055 714.024 729.498 712.342 729.498C709.819 729.498 707.848 730.742 706.427 733.231C705.007 735.708 704.297 739.214 704.297 743.748C704.297 746.771 704.615 749.339 705.251 751.453C705.887 753.566 706.802 755.174 707.995 756.277C709.2 757.379 710.649 757.93 712.342 757.93Z" fill="black"/>
<path d="M601.348 481.1C599.098 481.1 597.092 480.713 595.331 479.941C593.581 479.168 592.189 478.094 591.155 476.719C590.132 475.333 589.575 473.725 589.484 471.895H593.78C593.871 473.02 594.257 473.992 594.939 474.81C595.621 475.617 596.513 476.242 597.615 476.685C598.717 477.128 599.939 477.35 601.28 477.35C602.78 477.35 604.109 477.088 605.269 476.566C606.428 476.043 607.337 475.316 607.996 474.384C608.655 473.452 608.984 472.373 608.984 471.145C608.984 469.861 608.666 468.731 608.03 467.753C607.394 466.765 606.462 465.992 605.234 465.435C604.007 464.878 602.507 464.6 600.734 464.6H597.939V460.85H600.734C602.121 460.85 603.337 460.6 604.382 460.1C605.439 459.6 606.263 458.895 606.854 457.986C607.456 457.077 607.757 456.009 607.757 454.782C607.757 453.6 607.496 452.571 606.973 451.696C606.45 450.821 605.712 450.14 604.757 449.651C603.814 449.162 602.7 448.918 601.416 448.918C600.212 448.918 599.075 449.14 598.007 449.583C596.95 450.015 596.087 450.645 595.416 451.475C594.746 452.293 594.382 453.282 594.325 454.441H590.234C590.303 452.611 590.854 451.009 591.888 449.634C592.922 448.248 594.274 447.168 595.945 446.395C597.626 445.623 599.473 445.236 601.484 445.236C603.644 445.236 605.496 445.674 607.041 446.549C608.587 447.412 609.774 448.554 610.604 449.975C611.433 451.395 611.848 452.929 611.848 454.577C611.848 456.543 611.331 458.219 610.297 459.606C609.274 460.992 607.882 461.952 606.121 462.486V462.759C608.325 463.123 610.047 464.06 611.286 465.571C612.524 467.071 613.144 468.929 613.144 471.145C613.144 473.043 612.626 474.748 611.592 476.259C610.57 477.759 609.172 478.941 607.399 479.804C605.626 480.668 603.609 481.1 601.348 481.1ZM622.037 480.895C621.196 480.895 620.474 480.594 619.872 479.992C619.27 479.39 618.969 478.668 618.969 477.827C618.969 476.986 619.27 476.265 619.872 475.662C620.474 475.06 621.196 474.759 622.037 474.759C622.878 474.759 623.599 475.06 624.202 475.662C624.804 476.265 625.105 476.986 625.105 477.827C625.105 478.384 624.963 478.895 624.679 479.361C624.406 479.827 624.037 480.202 623.571 480.486C623.117 480.759 622.605 480.895 622.037 480.895ZM632.644 480.623L648.257 449.736V449.463H630.257V445.713H652.621V449.668L637.075 480.623H632.644ZM669.611 481.1C667.043 481.1 664.855 480.401 663.048 479.003C661.242 477.594 659.861 475.554 658.906 472.884C657.952 470.202 657.474 466.963 657.474 463.168C657.474 459.395 657.952 456.174 658.906 453.503C659.872 450.821 661.259 448.776 663.065 447.367C664.884 445.946 667.065 445.236 669.611 445.236C672.156 445.236 674.332 445.946 676.139 447.367C677.957 448.776 679.344 450.821 680.298 453.503C681.264 456.174 681.747 459.395 681.747 463.168C681.747 466.963 681.27 470.202 680.315 472.884C679.361 475.554 677.98 477.594 676.173 479.003C674.367 480.401 672.179 481.1 669.611 481.1ZM669.611 477.35C672.156 477.35 674.134 476.123 675.543 473.668C676.952 471.213 677.656 467.713 677.656 463.168C677.656 460.145 677.332 457.571 676.685 455.446C676.048 453.321 675.128 451.702 673.923 450.588C672.73 449.475 671.293 448.918 669.611 448.918C667.088 448.918 665.117 450.162 663.696 452.651C662.276 455.128 661.565 458.634 661.565 463.168C661.565 466.191 661.884 468.759 662.52 470.873C663.156 472.986 664.071 474.594 665.264 475.696C666.469 476.799 667.918 477.35 669.611 477.35Z" fill="black"/>
<path d="M422.886 871.091V906H418.659V875.523H418.455L409.932 881.182V876.886L418.659 871.091H422.886ZM432.926 906V902.932L444.449 890.318C445.801 888.841 446.915 887.557 447.79 886.466C448.665 885.364 449.313 884.33 449.733 883.364C450.165 882.386 450.381 881.364 450.381 880.295C450.381 879.068 450.085 878.006 449.494 877.108C448.915 876.21 448.119 875.517 447.108 875.028C446.097 874.54 444.96 874.295 443.699 874.295C442.358 874.295 441.188 874.574 440.188 875.131C439.199 875.676 438.432 876.443 437.886 877.432C437.352 878.42 437.085 879.58 437.085 880.909H433.062C433.062 878.864 433.534 877.068 434.477 875.523C435.42 873.977 436.705 872.773 438.33 871.909C439.966 871.045 441.801 870.614 443.835 870.614C445.881 870.614 447.693 871.045 449.273 871.909C450.852 872.773 452.091 873.937 452.989 875.403C453.886 876.869 454.335 878.5 454.335 880.295C454.335 881.58 454.102 882.835 453.636 884.062C453.182 885.278 452.386 886.636 451.25 888.136C450.125 889.625 448.562 891.443 446.562 893.591L438.722 901.977V902.25H454.949V906H432.926ZM464.989 906.273C464.148 906.273 463.426 905.972 462.824 905.369C462.222 904.767 461.92 904.045 461.92 903.205C461.92 902.364 462.222 901.642 462.824 901.04C463.426 900.437 464.148 900.136 464.989 900.136C465.83 900.136 466.551 900.437 467.153 901.04C467.756 901.642 468.057 902.364 468.057 903.205C468.057 903.761 467.915 904.273 467.631 904.739C467.358 905.205 466.989 905.58 466.523 905.864C466.068 906.136 465.557 906.273 464.989 906.273ZM474.389 898.841V895.364L489.73 871.091H492.253V876.477H490.548L478.957 894.818V895.091H499.616V898.841H474.389ZM490.821 906V897.784V896.165V871.091H494.844V906H490.821ZM517.391 906.477C514.822 906.477 512.635 905.778 510.828 904.381C509.021 902.972 507.641 900.932 506.686 898.261C505.732 895.58 505.254 892.341 505.254 888.545C505.254 884.773 505.732 881.551 506.686 878.881C507.652 876.199 509.038 874.153 510.845 872.744C512.663 871.324 514.845 870.614 517.391 870.614C519.936 870.614 522.112 871.324 523.919 872.744C525.737 874.153 527.124 876.199 528.078 878.881C529.044 881.551 529.527 884.773 529.527 888.545C529.527 892.341 529.05 895.58 528.095 898.261C527.141 900.932 525.76 902.972 523.953 904.381C522.146 905.778 519.959 906.477 517.391 906.477ZM517.391 902.727C519.936 902.727 521.913 901.5 523.322 899.045C524.732 896.591 525.436 893.091 525.436 888.545C525.436 885.523 525.112 882.949 524.464 880.824C523.828 878.699 522.908 877.08 521.703 875.966C520.51 874.852 519.072 874.295 517.391 874.295C514.868 874.295 512.896 875.54 511.476 878.028C510.055 880.506 509.345 884.011 509.345 888.545C509.345 891.568 509.663 894.136 510.3 896.25C510.936 898.364 511.851 899.972 513.044 901.074C514.249 902.176 515.697 902.727 517.391 902.727Z" fill="black"/>
<path d="M944.43 737.618V772.527H940.203V742.05H939.998L931.476 747.709V743.413L940.203 737.618H944.43ZM966.743 737.618V772.527H962.515V742.05H962.311L953.788 747.709V743.413L962.515 737.618H966.743ZM977.72 772.8C976.879 772.8 976.157 772.498 975.555 771.896C974.953 771.294 974.652 770.572 974.652 769.731C974.652 768.89 974.953 768.169 975.555 767.567C976.157 766.964 976.879 766.663 977.72 766.663C978.561 766.663 979.282 766.964 979.885 767.567C980.487 768.169 980.788 768.89 980.788 769.731C980.788 770.288 980.646 770.8 980.362 771.265C980.089 771.731 979.72 772.106 979.254 772.39C978.799 772.663 978.288 772.8 977.72 772.8ZM998.311 773.004C996.879 772.981 995.447 772.709 994.015 772.186C992.583 771.663 991.277 770.783 990.095 769.544C988.913 768.294 987.964 766.606 987.248 764.481C986.532 762.345 986.174 759.663 986.174 756.436C986.174 753.345 986.464 750.606 987.044 748.22C987.623 745.822 988.464 743.805 989.566 742.169C990.669 740.521 991.998 739.271 993.555 738.419C995.123 737.567 996.89 737.14 998.856 737.14C1000.81 737.14 1002.55 737.533 1004.07 738.317C1005.61 739.089 1006.86 740.169 1007.82 741.555C1008.79 742.942 1009.41 744.538 1009.7 746.345H1005.54C1005.15 744.777 1004.4 743.476 1003.29 742.442C1002.17 741.408 1000.7 740.89 998.856 740.89C996.152 740.89 994.021 742.067 992.464 744.419C990.919 746.771 990.14 750.072 990.129 754.322H990.402C991.038 753.356 991.794 752.533 992.669 751.851C993.555 751.158 994.532 750.623 995.601 750.248C996.669 749.873 997.799 749.686 998.993 749.686C1000.99 749.686 1002.82 750.186 1004.48 751.186C1006.14 752.175 1007.47 753.544 1008.47 755.294C1009.47 757.033 1009.97 759.027 1009.97 761.277C1009.97 763.436 1009.49 765.413 1008.52 767.209C1007.56 768.993 1006.2 770.413 1004.45 771.47C1002.71 772.515 1000.66 773.027 998.311 773.004ZM998.311 769.254C999.743 769.254 1001.03 768.896 1002.16 768.18C1003.31 767.464 1004.21 766.504 1004.87 765.3C1005.54 764.095 1005.88 762.754 1005.88 761.277C1005.88 759.834 1005.56 758.521 1004.91 757.339C1004.27 756.146 1003.39 755.197 1002.27 754.493C1001.15 753.788 999.879 753.436 998.447 753.436C997.368 753.436 996.362 753.652 995.43 754.084C994.498 754.504 993.68 755.084 992.976 755.822C992.282 756.561 991.737 757.408 991.339 758.362C990.941 759.305 990.743 760.3 990.743 761.345C990.743 762.731 991.066 764.027 991.714 765.231C992.373 766.436 993.271 767.408 994.407 768.146C995.555 768.885 996.856 769.254 998.311 769.254ZM1028.06 773.004C1025.49 773.004 1023.3 772.305 1021.5 770.908C1019.69 769.498 1018.31 767.459 1017.35 764.788C1016.4 762.106 1015.92 758.868 1015.92 755.072C1015.92 751.3 1016.4 748.078 1017.35 745.408C1018.32 742.726 1019.71 740.68 1021.51 739.271C1023.33 737.851 1025.51 737.14 1028.06 737.14C1030.6 737.14 1032.78 737.851 1034.59 739.271C1036.41 740.68 1037.79 742.726 1038.75 745.408C1039.71 748.078 1040.2 751.3 1040.2 755.072C1040.2 758.868 1039.72 762.106 1038.76 764.788C1037.81 767.459 1036.43 769.498 1034.62 770.908C1032.82 772.305 1030.63 773.004 1028.06 773.004ZM1028.06 769.254C1030.6 769.254 1032.58 768.027 1033.99 765.572C1035.4 763.118 1036.1 759.618 1036.1 755.072C1036.1 752.05 1035.78 749.476 1035.13 747.351C1034.5 745.226 1033.58 743.606 1032.37 742.493C1031.18 741.379 1029.74 740.822 1028.06 740.822C1025.54 740.822 1023.57 742.067 1022.14 744.555C1020.72 747.033 1020.01 750.538 1020.01 755.072C1020.01 758.095 1020.33 760.663 1020.97 762.777C1021.6 764.89 1022.52 766.498 1023.71 767.601C1024.92 768.703 1026.37 769.254 1028.06 769.254Z" fill="black"/>
<path d="M1218.9 830.189V865.098H1214.67V834.62H1214.47L1205.94 840.279V835.984L1214.67 830.189H1218.9ZM1240.73 865.575C1238.48 865.575 1236.48 865.189 1234.72 864.416C1232.97 863.643 1231.57 862.569 1230.54 861.194C1229.52 859.808 1228.96 858.2 1228.87 856.37H1233.16C1233.26 857.495 1233.64 858.467 1234.32 859.285C1235.01 860.092 1235.9 860.717 1237 861.16C1238.1 861.603 1239.32 861.825 1240.66 861.825C1242.16 861.825 1243.49 861.564 1244.65 861.041C1245.81 860.518 1246.72 859.791 1247.38 858.859C1248.04 857.927 1248.37 856.848 1248.37 855.62C1248.37 854.336 1248.05 853.206 1247.41 852.228C1246.78 851.24 1245.85 850.467 1244.62 849.91C1243.39 849.353 1241.89 849.075 1240.12 849.075H1237.32V845.325H1240.12C1241.51 845.325 1242.72 845.075 1243.77 844.575C1244.82 844.075 1245.65 843.37 1246.24 842.461C1246.84 841.552 1247.14 840.484 1247.14 839.257C1247.14 838.075 1246.88 837.047 1246.36 836.172C1245.84 835.297 1245.1 834.615 1244.14 834.126C1243.2 833.637 1242.09 833.393 1240.8 833.393C1239.6 833.393 1238.46 833.615 1237.39 834.058C1236.34 834.49 1235.47 835.12 1234.8 835.95C1234.13 836.768 1233.77 837.757 1233.71 838.916H1229.62C1229.69 837.086 1230.24 835.484 1231.27 834.109C1232.31 832.723 1233.66 831.643 1235.33 830.87C1237.01 830.098 1238.86 829.711 1240.87 829.711C1243.03 829.711 1244.88 830.149 1246.43 831.024C1247.97 831.887 1249.16 833.029 1249.99 834.45C1250.82 835.87 1251.23 837.404 1251.23 839.052C1251.23 841.018 1250.72 842.694 1249.68 844.081C1248.66 845.467 1247.27 846.427 1245.51 846.961V847.234C1247.71 847.598 1249.43 848.535 1250.67 850.047C1251.91 851.547 1252.53 853.404 1252.53 855.62C1252.53 857.518 1252.01 859.223 1250.98 860.734C1249.95 862.234 1248.56 863.416 1246.78 864.279C1245.01 865.143 1242.99 865.575 1240.73 865.575ZM1261.42 865.37C1260.58 865.37 1259.86 865.069 1259.26 864.467C1258.65 863.865 1258.35 863.143 1258.35 862.302C1258.35 861.461 1258.65 860.74 1259.26 860.137C1259.86 859.535 1260.58 859.234 1261.42 859.234C1262.26 859.234 1262.98 859.535 1263.59 860.137C1264.19 860.74 1264.49 861.461 1264.49 862.302C1264.49 862.859 1264.35 863.37 1264.06 863.836C1263.79 864.302 1263.42 864.677 1262.96 864.961C1262.5 865.234 1261.99 865.37 1261.42 865.37ZM1282.43 829.711C1283.86 829.723 1285.29 829.995 1286.72 830.529C1288.15 831.064 1289.46 831.95 1290.64 833.189C1291.82 834.416 1292.77 836.092 1293.49 838.217C1294.2 840.342 1294.56 843.007 1294.56 846.211C1294.56 849.314 1294.27 852.069 1293.68 854.478C1293.1 856.876 1292.26 858.899 1291.15 860.547C1290.06 862.194 1288.73 863.444 1287.16 864.297C1285.61 865.149 1283.85 865.575 1281.88 865.575C1279.93 865.575 1278.18 865.189 1276.65 864.416C1275.12 863.632 1273.87 862.547 1272.9 861.16C1271.93 859.762 1271.31 858.143 1271.04 856.302H1275.2C1275.57 857.904 1276.32 859.228 1277.43 860.274C1278.56 861.308 1280.04 861.825 1281.88 861.825C1284.57 861.825 1286.7 860.649 1288.26 858.297C1289.82 855.944 1290.61 852.62 1290.61 848.325H1290.34C1289.7 849.279 1288.94 850.103 1288.07 850.797C1287.19 851.49 1286.22 852.024 1285.15 852.399C1284.09 852.774 1282.95 852.961 1281.74 852.961C1279.74 852.961 1277.91 852.467 1276.24 851.478C1274.58 850.478 1273.25 849.109 1272.25 847.37C1271.26 845.62 1270.77 843.62 1270.77 841.37C1270.77 839.234 1271.24 837.279 1272.2 835.507C1273.16 833.723 1274.52 832.302 1276.26 831.245C1278.01 830.189 1280.06 829.677 1282.43 829.711ZM1282.43 833.461C1280.99 833.461 1279.7 833.819 1278.56 834.535C1277.42 835.24 1276.52 836.194 1275.85 837.399C1275.19 838.592 1274.86 839.916 1274.86 841.37C1274.86 842.825 1275.18 844.149 1275.81 845.342C1276.46 846.524 1277.34 847.467 1278.45 848.172C1279.58 848.865 1280.86 849.211 1282.29 849.211C1283.37 849.211 1284.37 849.001 1285.31 848.581C1286.24 848.149 1287.05 847.564 1287.74 846.825C1288.45 846.075 1289 845.228 1289.4 844.285C1289.8 843.331 1289.99 842.336 1289.99 841.302C1289.99 839.939 1289.66 838.66 1289.01 837.467C1288.36 836.274 1287.46 835.308 1286.31 834.569C1285.18 833.831 1283.88 833.461 1282.43 833.461ZM1312.65 865.575C1310.08 865.575 1307.9 864.876 1306.09 863.478C1304.28 862.069 1302.9 860.029 1301.95 857.359C1300.99 854.677 1300.52 851.439 1300.52 847.643C1300.52 843.87 1300.99 840.649 1301.95 837.978C1302.91 835.297 1304.3 833.251 1306.11 831.842C1307.92 830.422 1310.11 829.711 1312.65 829.711C1315.2 829.711 1317.37 830.422 1319.18 831.842C1321 833.251 1322.38 835.297 1323.34 837.978C1324.31 840.649 1324.79 843.87 1324.79 847.643C1324.79 851.439 1324.31 854.677 1323.36 857.359C1322.4 860.029 1321.02 862.069 1319.21 863.478C1317.41 864.876 1315.22 865.575 1312.65 865.575ZM1312.65 861.825C1315.2 861.825 1317.17 860.598 1318.58 858.143C1319.99 855.689 1320.7 852.189 1320.7 847.643C1320.7 844.62 1320.37 842.047 1319.73 839.922C1319.09 837.797 1318.17 836.177 1316.96 835.064C1315.77 833.95 1314.33 833.393 1312.65 833.393C1310.13 833.393 1308.16 834.637 1306.74 837.126C1305.32 839.603 1304.61 843.109 1304.61 847.643C1304.61 850.666 1304.92 853.234 1305.56 855.348C1306.2 857.461 1307.11 859.069 1308.31 860.172C1309.51 861.274 1310.96 861.825 1312.65 861.825Z" fill="black"/>
<path d="M690.762 936.76V971.669H686.535V941.192H686.33L677.807 946.851V942.556L686.535 936.76H690.762ZM701.739 971.942C700.898 971.942 700.177 971.641 699.574 971.039C698.972 970.436 698.671 969.715 698.671 968.874C698.671 968.033 698.972 967.311 699.574 966.709C700.177 966.107 700.898 965.806 701.739 965.806C702.58 965.806 703.302 966.107 703.904 966.709C704.506 967.311 704.807 968.033 704.807 968.874C704.807 969.431 704.665 969.942 704.381 970.408C704.108 970.874 703.739 971.249 703.273 971.533C702.819 971.806 702.307 971.942 701.739 971.942ZM712.346 971.669L727.959 940.783V940.51H709.959V936.76H732.323V940.715L716.777 971.669H712.346ZM749.313 972.147C746.745 972.147 744.557 971.448 742.75 970.05C740.944 968.641 739.563 966.601 738.608 963.931C737.654 961.249 737.177 958.01 737.177 954.215C737.177 950.442 737.654 947.221 738.608 944.55C739.574 941.868 740.961 939.823 742.768 938.414C744.586 936.993 746.768 936.283 749.313 936.283C751.858 936.283 754.035 936.993 755.841 938.414C757.66 939.823 759.046 941.868 760 944.55C760.966 947.221 761.449 950.442 761.449 954.215C761.449 958.01 760.972 961.249 760.018 963.931C759.063 966.601 757.682 968.641 755.875 970.05C754.069 971.448 751.881 972.147 749.313 972.147ZM749.313 968.397C751.858 968.397 753.836 967.169 755.245 964.715C756.654 962.26 757.358 958.76 757.358 954.215C757.358 951.192 757.035 948.618 756.387 946.493C755.75 944.368 754.83 942.749 753.625 941.635C752.432 940.522 750.995 939.965 749.313 939.965C746.79 939.965 744.819 941.209 743.398 943.698C741.978 946.175 741.268 949.681 741.268 954.215C741.268 957.238 741.586 959.806 742.222 961.919C742.858 964.033 743.773 965.641 744.966 966.743C746.171 967.846 747.62 968.397 749.313 968.397Z" fill="black"/>
<path d="M571.757 1006.16V1003.09L583.28 990.475C584.632 988.998 585.746 987.714 586.621 986.623C587.496 985.52 588.144 984.486 588.564 983.52C588.996 982.543 589.212 981.52 589.212 980.452C589.212 979.225 588.917 978.162 588.326 977.265C587.746 976.367 586.951 975.674 585.939 975.185C584.928 974.697 583.792 974.452 582.53 974.452C581.189 974.452 580.019 974.731 579.019 975.287C578.03 975.833 577.263 976.6 576.718 977.589C576.184 978.577 575.917 979.736 575.917 981.066H571.894C571.894 979.02 572.365 977.225 573.309 975.679C574.252 974.134 575.536 972.929 577.161 972.066C578.797 971.202 580.632 970.77 582.667 970.77C584.712 970.77 586.524 971.202 588.104 972.066C589.684 972.929 590.922 974.094 591.82 975.56C592.718 977.026 593.167 978.657 593.167 980.452C593.167 981.736 592.934 982.992 592.468 984.219C592.013 985.435 591.218 986.793 590.081 988.293C588.956 989.782 587.394 991.6 585.394 993.748L577.553 1002.13V1002.41H593.78V1006.16H571.757ZM603.82 1006.43C602.979 1006.43 602.257 1006.13 601.655 1005.53C601.053 1004.92 600.752 1004.2 600.752 1003.36C600.752 1002.52 601.053 1001.8 601.655 1001.2C602.257 1000.59 602.979 1000.29 603.82 1000.29C604.661 1000.29 605.382 1000.59 605.985 1001.2C606.587 1001.8 606.888 1002.52 606.888 1003.36C606.888 1003.92 606.746 1004.43 606.462 1004.9C606.189 1005.36 605.82 1005.74 605.354 1006.02C604.899 1006.29 604.388 1006.43 603.82 1006.43ZM614.039 1006.16V1003.09L625.561 990.475C626.914 988.998 628.027 987.714 628.902 986.623C629.777 985.52 630.425 984.486 630.846 983.52C631.277 982.543 631.493 981.52 631.493 980.452C631.493 979.225 631.198 978.162 630.607 977.265C630.027 976.367 629.232 975.674 628.221 975.185C627.209 974.697 626.073 974.452 624.811 974.452C623.471 974.452 622.3 974.731 621.3 975.287C620.311 975.833 619.544 976.6 618.999 977.589C618.465 978.577 618.198 979.736 618.198 981.066H614.175C614.175 979.02 614.647 977.225 615.59 975.679C616.533 974.134 617.817 972.929 619.442 972.066C621.078 971.202 622.914 970.77 624.948 970.77C626.993 970.77 628.806 971.202 630.385 972.066C631.965 972.929 633.203 974.094 634.101 975.56C634.999 977.026 635.448 978.657 635.448 980.452C635.448 981.736 635.215 982.992 634.749 984.219C634.294 985.435 633.499 986.793 632.363 988.293C631.238 989.782 629.675 991.6 627.675 993.748L619.834 1002.13V1002.41H636.061V1006.16H614.039ZM654.488 1006.63C651.919 1006.63 649.732 1005.94 647.925 1004.54C646.118 1003.13 644.738 1001.09 643.783 998.418C642.828 995.736 642.351 992.498 642.351 988.702C642.351 984.929 642.828 981.708 643.783 979.037C644.749 976.356 646.135 974.31 647.942 972.901C649.76 971.481 651.942 970.77 654.488 970.77C657.033 970.77 659.209 971.481 661.016 972.901C662.834 974.31 664.221 976.356 665.175 979.037C666.141 981.708 666.624 984.929 666.624 988.702C666.624 992.498 666.147 995.736 665.192 998.418C664.238 1001.09 662.857 1003.13 661.05 1004.54C659.243 1005.94 657.056 1006.63 654.488 1006.63ZM654.488 1002.88C657.033 1002.88 659.01 1001.66 660.419 999.202C661.828 996.748 662.533 993.248 662.533 988.702C662.533 985.679 662.209 983.106 661.561 980.981C660.925 978.856 660.005 977.236 658.8 976.123C657.607 975.009 656.169 974.452 654.488 974.452C651.965 974.452 649.993 975.697 648.573 978.185C647.152 980.662 646.442 984.168 646.442 988.702C646.442 991.725 646.76 994.293 647.397 996.407C648.033 998.52 648.948 1000.13 650.141 1001.23C651.346 1002.33 652.794 1002.88 654.488 1002.88Z" fill="black"/>
<path d="M272.523 966.477C270.523 966.477 268.722 966.08 267.119 965.284C265.517 964.489 264.233 963.398 263.267 962.011C262.301 960.625 261.773 959.045 261.682 957.273H265.773C265.932 958.852 266.648 960.159 267.92 961.193C269.205 962.216 270.739 962.727 272.523 962.727C273.955 962.727 275.227 962.392 276.341 961.722C277.466 961.051 278.347 960.131 278.983 958.96C279.631 957.778 279.955 956.443 279.955 954.955C279.955 953.432 279.619 952.074 278.949 950.881C278.29 949.676 277.381 948.727 276.222 948.034C275.063 947.341 273.739 946.989 272.25 946.977C271.182 946.966 270.085 947.131 268.96 947.472C267.835 947.801 266.909 948.227 266.182 948.75L262.227 948.273L264.341 931.091H282.477V934.841H267.886L266.659 945.136H266.864C267.58 944.568 268.477 944.097 269.557 943.722C270.636 943.347 271.761 943.159 272.932 943.159C275.068 943.159 276.972 943.67 278.642 944.693C280.324 945.705 281.642 947.091 282.597 948.852C283.562 950.614 284.045 952.625 284.045 954.886C284.045 957.114 283.545 959.102 282.545 960.852C281.557 962.591 280.193 963.966 278.455 964.977C276.716 965.977 274.739 966.477 272.523 966.477ZM292.504 966.273C291.663 966.273 290.942 965.972 290.339 965.369C289.737 964.767 289.436 964.045 289.436 963.205C289.436 962.364 289.737 961.642 290.339 961.04C290.942 960.437 291.663 960.136 292.504 960.136C293.345 960.136 294.067 960.437 294.669 961.04C295.271 961.642 295.572 962.364 295.572 963.205C295.572 963.761 295.43 964.273 295.146 964.739C294.874 965.205 294.504 965.58 294.038 965.864C293.584 966.136 293.072 966.273 292.504 966.273ZM310.824 931.091V966H306.597V935.523H306.392L297.869 941.182V936.886L306.597 931.091H310.824ZM332.25 966.477C329.682 966.477 327.494 965.778 325.688 964.381C323.881 962.972 322.5 960.932 321.545 958.261C320.591 955.58 320.114 952.341 320.114 948.545C320.114 944.773 320.591 941.551 321.545 938.881C322.511 936.199 323.898 934.153 325.705 932.744C327.523 931.324 329.705 930.614 332.25 930.614C334.795 930.614 336.972 931.324 338.778 932.744C340.597 934.153 341.983 936.199 342.938 938.881C343.903 941.551 344.386 944.773 344.386 948.545C344.386 952.341 343.909 955.58 342.955 958.261C342 960.932 340.619 962.972 338.812 964.381C337.006 965.778 334.818 966.477 332.25 966.477ZM332.25 962.727C334.795 962.727 336.773 961.5 338.182 959.045C339.591 956.591 340.295 953.091 340.295 948.545C340.295 945.523 339.972 942.949 339.324 940.824C338.688 938.699 337.767 937.08 336.562 935.966C335.369 934.852 333.932 934.295 332.25 934.295C329.727 934.295 327.756 935.54 326.335 938.028C324.915 940.506 324.205 944.011 324.205 948.545C324.205 951.568 324.523 954.136 325.159 956.25C325.795 958.364 326.71 959.972 327.903 961.074C329.108 962.176 330.557 962.727 332.25 962.727Z" fill="black"/>
</svg>
