<svg width="1512" height="1512" viewBox="0 0 1512 1512" fill="none" xmlns="http://www.w3.org/2000/svg">
<path d="M1082.47 208.174H698.783V238.444H1082.47V208.174Z" fill="black"/>
<path d="M1082.47 238.444H1056.13V779.258H1082.47V238.444Z" fill="black"/>
<path d="M1082.47 1098.17V770.764H1056.11V1098.17H1082.47Z" fill="black"/>
<path d="M460.343 210.988H434V1154.71H460.343V210.988Z" fill="black"/>
<path d="M568.581 208.174H434V238.444H568.581V208.174Z" fill="black"/>
<path d="M573.979 220.269L573.985 211.147C573.985 210.416 573.393 209.822 572.662 209.822L568.584 209.819C567.853 209.819 567.26 210.411 567.259 211.142L567.254 220.264C567.253 220.996 567.845 221.589 568.577 221.589L572.654 221.592C573.386 221.592 573.979 221 573.979 220.269Z" stroke="black" stroke-width="2.64789" stroke-miterlimit="22.9256"/>
<path d="M698.783 220.728L698.789 211.606C698.789 210.874 698.197 210.281 697.466 210.281L693.388 210.278C692.657 210.278 692.064 210.87 692.063 211.601L692.057 220.723C692.057 221.455 692.649 222.048 693.38 222.048L697.458 222.051C698.189 222.051 698.782 221.459 698.783 220.728Z" stroke="black" stroke-width="2.64789" stroke-miterlimit="22.9256"/>
<path d="M791.587 235.38H778.136V346.575H791.587V235.38Z" fill="black"/>
<path d="M791.587 451.912H778.136V894.716H791.587V451.912Z" fill="black"/>
<path d="M1069.58 578.049H783.11V593.947H1069.58V578.049Z" fill="black"/>
<path d="M791.678 1013.35H778.227V1099.32H791.678V1013.35Z" fill="black"/>
<path d="M798.108 834.186H792.911C792.18 834.186 791.587 834.778 791.587 835.509V953.362C791.587 954.093 792.18 954.686 792.911 954.686H798.108C798.84 954.686 799.432 954.093 799.432 953.362V835.509C799.432 834.778 798.84 834.186 798.108 834.186Z" stroke="black" stroke-width="0.755906" stroke-miterlimit="22.9256"/>
<path d="M502.076 1093.24V1126.19H701.349V1093.24H502.076Z" stroke="black" stroke-width="2.31857" stroke-miterlimit="22.9256"/>
<path d="M512.795 1126.19V1136.84H690.701V1126.19H512.795Z" stroke="black" stroke-width="2.39808" stroke-miterlimit="22.9256"/>
<path d="M511.521 1136.84V1150.76H694.398V1136.84H511.521Z" stroke="black" stroke-width="2.77942" stroke-miterlimit="22.9256"/>
<path d="M502.939 1092.51H434.299V1154.72H502.939V1092.51Z" fill="black"/>
<path d="M511.522 1136.72H502.786V1151.02H511.522V1136.72Z" fill="black"/>
<path d="M704.331 1136.53H694.398V1150.64H704.331V1136.53Z" fill="black"/>
<path d="M844.93 1092.51H701.303V1154.72H844.93V1092.51Z" fill="black"/>
<path d="M854.066 1138H841V1152.11H854.066V1138Z" fill="black"/>
<path d="M1120.28 1092.51H941.233V1154.72H1120.28V1092.51Z" fill="black"/>
<path d="M944.306 1137.76H931.24V1151.88H944.306V1137.76Z" fill="black"/>
<path d="M939.327 1104.35H935.249C934.518 1104.35 933.925 1104.95 933.925 1105.68V1114.8C933.925 1115.53 934.518 1116.12 935.249 1116.12H939.327C940.058 1116.12 940.651 1115.53 940.651 1114.8V1105.68C940.651 1104.95 940.058 1104.35 939.327 1104.35Z" stroke="black" stroke-width="0.755906" stroke-miterlimit="22.9256"/>
<path d="M850.53 1104.35H846.452C845.721 1104.35 845.128 1104.95 845.128 1105.68V1114.8C845.128 1115.53 845.721 1116.12 846.452 1116.12H850.53C851.261 1116.12 851.854 1115.53 851.854 1114.8V1105.68C851.854 1104.95 851.261 1104.35 850.53 1104.35Z" stroke="black" stroke-width="0.755906" stroke-miterlimit="22.9256"/>
<path d="M735.057 1152H721.606V1310.62H735.057V1152Z" fill="black"/>
<path d="M1118.34 1294.98H722.565V1310.67H1118.34V1294.98Z" fill="black"/>
<path d="M1120.27 1152.62H1107.27V1310.62H1120.27V1152.62Z" fill="black"/>
<path d="M932.693 1398.42V1307.97H722.098V1398.42H932.693Z" stroke="black" stroke-width="0.613316" stroke-miterlimit="22.9256"/>
<path d="M932.967 1307.83L722.372 1398.27" stroke="black" stroke-width="0.639874" stroke-miterlimit="22.9256"/>
<path d="M932.692 1398.42L723.737 1310.2" stroke="black" stroke-width="0.639874" stroke-miterlimit="22.9256"/>
<path d="M573.979 217.447C573.091 146.532 637.544 110.686 691.757 92C691.757 134.443 691.757 176.884 691.757 219.327" stroke="black" stroke-width="0.96" stroke-miterlimit="22.9256"/>
<path d="M1049.85 338.281V244.052H838.882V338.281H1049.85Z" stroke="black" stroke-width="0.95477" stroke-miterlimit="22.9256"/>
<path fill-rule="evenodd" clip-rule="evenodd" d="M877.536 254.815C923.873 252.83 969.666 254.116 1015.73 253.767C1031.85 253.535 1040.08 254.129 1039.82 271.194C1039.82 285.318 1039.82 299.44 1039.82 313.563C1039.97 325.555 1036.38 330.067 1016.31 329.15C970.053 328.802 923.794 329.544 877.536 328.104C840.798 323.689 837.066 261.406 877.536 254.815Z" stroke="black" stroke-width="1.00006" stroke-miterlimit="22.9256"/>
<path d="M1021.28 291.942C1021.28 294.354 1023.23 296.309 1025.64 296.309C1028.06 296.309 1030.01 294.354 1030.01 291.942C1030.01 289.53 1028.06 287.575 1025.64 287.575C1023.23 287.575 1021.28 289.53 1021.28 291.942Z" stroke="black" stroke-width="0.721671" stroke-miterlimit="22.9256"/>
<path fill-rule="evenodd" clip-rule="evenodd" d="M1034.46 374.586C1038.62 374.498 1042.64 377.597 1044.54 381.041C1044.54 403.979 1044.54 425.823 1044.54 448.762C1043.83 452.001 1041.58 452.728 1036.72 453.825C992.279 456.856 1001.24 430.898 1001.04 397.668C1003.01 377.759 1017.29 375.458 1034.46 374.586Z" stroke="black" stroke-width="1.00006" stroke-miterlimit="22.9256"/>
<path d="M1033.5 414.778C1033.5 417.277 1035.53 419.303 1038.03 419.303C1040.53 419.303 1042.55 417.277 1042.55 414.778C1042.55 412.279 1040.53 410.253 1038.03 410.253C1035.53 410.253 1033.5 412.279 1033.5 414.778Z" stroke="black" stroke-width="1.40868" stroke-miterlimit="22.9256"/>
<path fill-rule="evenodd" clip-rule="evenodd" d="M1036.49 385.061C1039.81 384.999 1043.02 387.212 1044.54 389.671C1044.54 406.049 1044.54 421.646 1044.54 438.023C1043.97 440.336 1042.18 440.855 1038.29 441.639C1003.36 444.536 1009.95 424.201 1009.8 401.543C1010.08 386.704 1023.38 385.061 1036.49 385.061Z" stroke="black" stroke-width="1.00006" stroke-miterlimit="22.9256"/>
<path d="M1057.69 369.702C1026.15 370 996.735 360.371 992.668 398.98C991.631 411.554 992.074 423.554 993.807 435.898C1000.82 467.516 1028 457.589 1058.15 458.118" stroke="black" stroke-width="1.00006" stroke-miterlimit="22.9256" stroke-linecap="round" stroke-linejoin="round"/>
<path d="M994.251 493.877L1007.19 495.312" stroke="black" stroke-width="1.00006" stroke-miterlimit="22.9256"/>
<path d="M994.769 538.333L1007.7 536.894" stroke="black" stroke-width="1.00006" stroke-miterlimit="22.9256"/>
<path d="M1053.24 473.074C1043 473.074 1032.75 473.072 1022.5 473.072C1014.86 473.05 1009.33 477.011 1007.05 486.724C1007.17 504.007 1007.3 521.292 1007.42 538.575C1006.71 552.1 1012.57 557.724 1022.5 558.56H1053.73" stroke="black" stroke-width="1.00006" stroke-miterlimit="22.9256"/>
<path fill-rule="evenodd" clip-rule="evenodd" d="M968.409 548.275C978.617 549.946 987.47 547.642 994.27 539.295C1000.56 522.796 1000.2 507.791 994.268 494.038C988.224 486.682 980.336 483.249 970.399 484.175C955.562 485.621 941.158 490.969 927.462 502.66C919.154 510.829 918.474 520.072 927.462 530.674C939.388 540.272 953.111 545.979 968.409 548.275Z" stroke="black" stroke-width="1.00006" stroke-miterlimit="22.9256"/>
<path fill-rule="evenodd" clip-rule="evenodd" d="M801.899 511.695H814.302H860.309H872.645V576.185H801.899V511.695Z" stroke="black" stroke-width="0.755906" stroke-miterlimit="22.9256"/>
<path d="M860.309 505.609H814.302V511.696H860.309V505.609Z" stroke="black" stroke-width="0.755906" stroke-miterlimit="22.9256"/>
<path d="M851.854 1112.11C851.171 1057.57 892.444 1029.19 934.138 1014.82C934.138 1047.46 934.138 1080.11 934.138 1112.75" stroke="black" stroke-width="0.96" stroke-miterlimit="22.9256"/>
<path d="M878.345 1240.32V1237.26L889.868 1224.64C891.22 1223.16 892.334 1221.88 893.209 1220.79C894.084 1219.69 894.731 1218.65 895.152 1217.69C895.584 1216.71 895.8 1215.69 895.8 1214.62C895.8 1213.39 895.504 1212.33 894.913 1211.43C894.334 1210.53 893.538 1209.84 892.527 1209.35C891.516 1208.86 890.379 1208.62 889.118 1208.62C887.777 1208.62 886.606 1208.9 885.606 1209.45C884.618 1210 883.851 1210.77 883.305 1211.76C882.771 1212.74 882.504 1213.9 882.504 1215.23H878.481C878.481 1213.19 878.953 1211.39 879.896 1209.85C880.839 1208.3 882.123 1207.1 883.748 1206.23C885.385 1205.37 887.22 1204.94 889.254 1204.94C891.3 1204.94 893.112 1205.37 894.692 1206.23C896.271 1207.1 897.51 1208.26 898.408 1209.73C899.305 1211.19 899.754 1212.82 899.754 1214.62C899.754 1215.9 899.521 1217.16 899.055 1218.39C898.601 1219.6 897.805 1220.96 896.669 1222.46C895.544 1223.95 893.981 1225.77 891.981 1227.91L884.141 1236.3V1236.57H900.368V1240.32H878.345ZM910.408 1240.6C909.567 1240.6 908.845 1240.29 908.243 1239.69C907.641 1239.09 907.339 1238.37 907.339 1237.53C907.339 1236.69 907.641 1235.97 908.243 1235.36C908.845 1234.76 909.567 1234.46 910.408 1234.46C911.248 1234.46 911.97 1234.76 912.572 1235.36C913.175 1235.97 913.476 1236.69 913.476 1237.53C913.476 1238.08 913.334 1238.6 913.05 1239.06C912.777 1239.53 912.408 1239.9 911.942 1240.19C911.487 1240.46 910.976 1240.6 910.408 1240.6ZM930.73 1240.8C928.389 1240.8 926.321 1240.39 924.525 1239.56C922.741 1238.72 921.349 1237.56 920.349 1236.1C919.349 1234.62 918.855 1232.94 918.866 1231.05C918.855 1229.57 919.145 1228.21 919.736 1226.96C920.327 1225.7 921.133 1224.65 922.156 1223.81C923.19 1222.95 924.344 1222.41 925.616 1222.19V1221.98C923.946 1221.55 922.616 1220.61 921.628 1219.17C920.639 1217.72 920.15 1216.06 920.162 1214.21C920.15 1212.44 920.599 1210.85 921.508 1209.45C922.418 1208.06 923.668 1206.95 925.258 1206.15C926.861 1205.34 928.685 1204.94 930.73 1204.94C932.753 1204.94 934.56 1205.34 936.15 1206.15C937.741 1206.95 938.991 1208.06 939.9 1209.45C940.821 1210.85 941.287 1212.44 941.298 1214.21C941.287 1216.06 940.781 1217.72 939.781 1219.17C938.793 1220.61 937.48 1221.55 935.844 1221.98V1222.19C937.105 1222.41 938.241 1222.95 939.253 1223.81C940.264 1224.65 941.071 1225.7 941.673 1226.96C942.275 1228.21 942.582 1229.57 942.594 1231.05C942.582 1232.94 942.071 1234.62 941.06 1236.1C940.06 1237.56 938.668 1238.72 936.883 1239.56C935.111 1240.39 933.06 1240.8 930.73 1240.8ZM930.73 1237.05C932.31 1237.05 933.673 1236.79 934.821 1236.28C935.969 1235.77 936.855 1235.05 937.48 1234.12C938.105 1233.19 938.423 1232.1 938.435 1230.85C938.423 1229.53 938.082 1228.36 937.412 1227.35C936.741 1226.34 935.827 1225.54 934.668 1224.97C933.52 1224.39 932.207 1224.1 930.73 1224.1C929.241 1224.1 927.912 1224.39 926.741 1224.97C925.582 1225.54 924.668 1226.34 923.997 1227.35C923.338 1228.36 923.014 1229.53 923.025 1230.85C923.014 1232.1 923.315 1233.19 923.929 1234.12C924.554 1235.05 925.446 1235.77 926.605 1236.28C927.764 1236.79 929.139 1237.05 930.73 1237.05ZM930.73 1220.48C931.98 1220.48 933.088 1220.23 934.054 1219.73C935.031 1219.23 935.798 1218.53 936.355 1217.64C936.912 1216.74 937.196 1215.69 937.207 1214.48C937.196 1213.3 936.918 1212.27 936.372 1211.4C935.827 1210.51 935.071 1209.83 934.105 1209.35C933.139 1208.86 932.014 1208.62 930.73 1208.62C929.423 1208.62 928.281 1208.86 927.304 1209.35C926.327 1209.83 925.571 1210.51 925.037 1211.4C924.503 1212.27 924.241 1213.3 924.253 1214.48C924.241 1215.69 924.508 1216.74 925.054 1217.64C925.611 1218.53 926.378 1219.23 927.355 1219.73C928.332 1220.23 929.457 1220.48 930.73 1220.48ZM960.513 1240.8C957.945 1240.8 955.757 1240.1 953.95 1238.7C952.143 1237.29 950.763 1235.26 949.808 1232.58C948.854 1229.9 948.376 1226.66 948.376 1222.87C948.376 1219.1 948.854 1215.87 949.808 1213.2C950.774 1210.52 952.16 1208.48 953.967 1207.07C955.785 1205.65 957.967 1204.94 960.513 1204.94C963.058 1204.94 965.234 1205.65 967.041 1207.07C968.859 1208.48 970.246 1210.52 971.2 1213.2C972.166 1215.87 972.649 1219.1 972.649 1222.87C972.649 1226.66 972.172 1229.9 971.217 1232.58C970.263 1235.26 968.882 1237.29 967.075 1238.7C965.268 1240.1 963.081 1240.8 960.513 1240.8ZM960.513 1237.05C963.058 1237.05 965.035 1235.82 966.445 1233.37C967.854 1230.91 968.558 1227.41 968.558 1222.87C968.558 1219.85 968.234 1217.27 967.587 1215.15C966.95 1213.02 966.03 1211.4 964.825 1210.29C963.632 1209.18 962.195 1208.62 960.513 1208.62C957.99 1208.62 956.018 1209.86 954.598 1212.35C953.177 1214.83 952.467 1218.33 952.467 1222.87C952.467 1225.89 952.785 1228.46 953.422 1230.57C954.058 1232.69 954.973 1234.29 956.166 1235.4C957.371 1236.5 958.82 1237.05 960.513 1237.05Z" fill="black"/>
<path d="M942.109 717.899L957.723 687.013V686.74H939.723V682.99H962.087V686.945L946.541 717.899H942.109ZM965.44 718.172C964.599 718.172 963.878 717.871 963.276 717.269C962.673 716.666 962.372 715.945 962.372 715.104C962.372 714.263 962.673 713.541 963.276 712.939C963.878 712.337 964.599 712.036 965.44 712.036C966.281 712.036 967.003 712.337 967.605 712.939C968.207 713.541 968.508 714.263 968.508 715.104C968.508 715.661 968.366 716.172 968.082 716.638C967.81 717.104 967.44 717.479 966.974 717.763C966.52 718.036 966.008 718.172 965.44 718.172ZM985.865 718.377C983.865 718.377 982.064 717.979 980.462 717.184C978.859 716.388 977.575 715.297 976.609 713.911C975.643 712.524 975.115 710.945 975.024 709.172H979.115C979.274 710.752 979.99 712.059 981.263 713.093C982.547 714.115 984.081 714.627 985.865 714.627C987.297 714.627 988.57 714.291 989.683 713.621C990.808 712.951 991.689 712.03 992.325 710.86C992.973 709.678 993.297 708.343 993.297 706.854C993.297 705.331 992.962 703.973 992.291 702.78C991.632 701.576 990.723 700.627 989.564 699.934C988.405 699.24 987.081 698.888 985.592 698.877C984.524 698.865 983.428 699.03 982.303 699.371C981.178 699.701 980.251 700.127 979.524 700.649L975.57 700.172L977.683 682.99H995.82V686.74H981.229L980.001 697.036H980.206C980.922 696.468 981.82 695.996 982.899 695.621C983.979 695.246 985.104 695.059 986.274 695.059C988.41 695.059 990.314 695.57 991.984 696.593C993.666 697.604 994.984 698.99 995.939 700.752C996.905 702.513 997.388 704.524 997.388 706.786C997.388 709.013 996.888 711.002 995.888 712.752C994.899 714.49 993.535 715.865 991.797 716.877C990.058 717.877 988.081 718.377 985.865 718.377ZM1015.55 718.377C1012.98 718.377 1010.79 717.678 1008.98 716.28C1007.18 714.871 1005.8 712.831 1004.84 710.161C1003.89 707.479 1003.41 704.24 1003.41 700.445C1003.41 696.672 1003.89 693.451 1004.84 690.78C1005.81 688.098 1007.19 686.053 1009 684.644C1010.82 683.223 1013 682.513 1015.55 682.513C1018.09 682.513 1020.27 683.223 1022.07 684.644C1023.89 686.053 1025.28 688.098 1026.23 690.78C1027.2 693.451 1027.68 696.672 1027.68 700.445C1027.68 704.24 1027.2 707.479 1026.25 710.161C1025.3 712.831 1023.91 714.871 1022.11 716.28C1020.3 717.678 1018.11 718.377 1015.55 718.377ZM1015.55 714.627C1018.09 714.627 1020.07 713.399 1021.48 710.945C1022.89 708.49 1023.59 704.99 1023.59 700.445C1023.59 697.422 1023.27 694.848 1022.62 692.723C1021.98 690.598 1021.06 688.979 1019.86 687.865C1018.66 686.752 1017.23 686.195 1015.55 686.195C1013.02 686.195 1011.05 687.439 1009.63 689.928C1008.21 692.405 1007.5 695.911 1007.5 700.445C1007.5 703.468 1007.82 706.036 1008.45 708.149C1009.09 710.263 1010.01 711.871 1011.2 712.973C1012.4 714.076 1013.85 714.627 1015.55 714.627Z" fill="black"/>
<path d="M851.795 429.841V426.364L867.136 402.091H869.659V407.477H867.955L856.364 425.818V426.091H877.023V429.841H851.795ZM868.227 437V428.784V427.165V402.091H872.25V437H868.227ZM884.77 437.273C883.929 437.273 883.207 436.972 882.605 436.369C882.003 435.767 881.702 435.045 881.702 434.205C881.702 433.364 882.003 432.642 882.605 432.04C883.207 431.437 883.929 431.136 884.77 431.136C885.611 431.136 886.332 431.437 886.935 432.04C887.537 432.642 887.838 433.364 887.838 434.205C887.838 434.761 887.696 435.273 887.412 435.739C887.139 436.205 886.77 436.58 886.304 436.864C885.849 437.136 885.338 437.273 884.77 437.273ZM905.361 437.477C903.929 437.455 902.497 437.182 901.065 436.659C899.634 436.136 898.327 435.256 897.145 434.017C895.963 432.767 895.014 431.08 894.298 428.955C893.582 426.818 893.224 424.136 893.224 420.909C893.224 417.818 893.514 415.08 894.094 412.693C894.673 410.295 895.514 408.278 896.616 406.642C897.719 404.994 899.048 403.744 900.605 402.892C902.173 402.04 903.94 401.614 905.906 401.614C907.861 401.614 909.599 402.006 911.122 402.79C912.656 403.562 913.906 404.642 914.872 406.028C915.838 407.415 916.463 409.011 916.747 410.818H912.588C912.202 409.25 911.452 407.949 910.338 406.915C909.224 405.881 907.747 405.364 905.906 405.364C903.202 405.364 901.071 406.54 899.514 408.892C897.969 411.244 897.19 414.545 897.179 418.795H897.452C898.088 417.83 898.844 417.006 899.719 416.324C900.605 415.631 901.582 415.097 902.651 414.722C903.719 414.347 904.849 414.159 906.043 414.159C908.043 414.159 909.872 414.659 911.531 415.659C913.19 416.648 914.52 418.017 915.52 419.767C916.52 421.506 917.02 423.5 917.02 425.75C917.02 427.909 916.537 429.886 915.571 431.682C914.605 433.466 913.247 434.886 911.497 435.943C909.759 436.989 907.713 437.5 905.361 437.477ZM905.361 433.727C906.793 433.727 908.077 433.369 909.213 432.653C910.361 431.937 911.264 430.977 911.923 429.773C912.594 428.568 912.929 427.227 912.929 425.75C912.929 424.307 912.605 422.994 911.957 421.812C911.321 420.619 910.44 419.67 909.315 418.966C908.202 418.261 906.929 417.909 905.497 417.909C904.418 417.909 903.412 418.125 902.48 418.557C901.548 418.977 900.73 419.557 900.026 420.295C899.332 421.034 898.787 421.881 898.389 422.835C897.991 423.778 897.793 424.773 897.793 425.818C897.793 427.205 898.116 428.5 898.764 429.705C899.423 430.909 900.321 431.881 901.457 432.619C902.605 433.358 903.906 433.727 905.361 433.727ZM935.109 437.477C932.541 437.477 930.354 436.778 928.547 435.381C926.74 433.972 925.359 431.932 924.405 429.261C923.45 426.58 922.973 423.341 922.973 419.545C922.973 415.773 923.45 412.551 924.405 409.881C925.371 407.199 926.757 405.153 928.564 403.744C930.382 402.324 932.564 401.614 935.109 401.614C937.655 401.614 939.831 402.324 941.638 403.744C943.456 405.153 944.842 407.199 945.797 409.881C946.763 412.551 947.246 415.773 947.246 419.545C947.246 423.341 946.768 426.58 945.814 429.261C944.859 431.932 943.479 433.972 941.672 435.381C939.865 436.778 937.678 437.477 935.109 437.477ZM935.109 433.727C937.655 433.727 939.632 432.5 941.041 430.045C942.45 427.591 943.155 424.091 943.155 419.545C943.155 416.523 942.831 413.949 942.183 411.824C941.547 409.699 940.626 408.08 939.422 406.966C938.229 405.852 936.791 405.295 935.109 405.295C932.587 405.295 930.615 406.54 929.195 409.028C927.774 411.506 927.064 415.011 927.064 419.545C927.064 422.568 927.382 425.136 928.018 427.25C928.655 429.364 929.57 430.972 930.763 432.074C931.967 433.176 933.416 433.727 935.109 433.727Z" fill="black"/>
<path d="M580.751 630.383V665.292H576.524V634.815H576.319L567.796 640.474V636.178L576.524 630.383H580.751ZM601.7 665.769C599.7 665.769 597.899 665.372 596.296 664.576C594.694 663.781 593.41 662.69 592.444 661.303C591.478 659.917 590.95 658.337 590.859 656.565H594.95C595.109 658.144 595.825 659.451 597.098 660.485C598.382 661.508 599.916 662.019 601.7 662.019C603.132 662.019 604.404 661.684 605.518 661.014C606.643 660.343 607.524 659.423 608.16 658.252C608.808 657.07 609.132 655.735 609.132 654.247C609.132 652.724 608.796 651.366 608.126 650.173C607.467 648.968 606.558 648.019 605.399 647.326C604.24 646.633 602.916 646.281 601.427 646.269C600.359 646.258 599.262 646.423 598.137 646.764C597.012 647.093 596.086 647.519 595.359 648.042L591.404 647.565L593.518 630.383H611.654V634.133H597.063L595.836 644.428H596.041C596.757 643.86 597.654 643.389 598.734 643.014C599.813 642.639 600.938 642.451 602.109 642.451C604.245 642.451 606.149 642.962 607.819 643.985C609.501 644.997 610.819 646.383 611.774 648.144C612.74 649.906 613.223 651.917 613.223 654.178C613.223 656.406 612.723 658.394 611.723 660.144C610.734 661.883 609.37 663.258 607.632 664.269C605.893 665.269 603.916 665.769 601.7 665.769ZM621.681 665.565C620.84 665.565 620.119 665.264 619.517 664.661C618.914 664.059 618.613 663.337 618.613 662.497C618.613 661.656 618.914 660.934 619.517 660.332C620.119 659.729 620.84 659.428 621.681 659.428C622.522 659.428 623.244 659.729 623.846 660.332C624.448 660.934 624.75 661.656 624.75 662.497C624.75 663.053 624.608 663.565 624.323 664.031C624.051 664.497 623.681 664.872 623.215 665.156C622.761 665.428 622.25 665.565 621.681 665.565ZM642.106 665.769C640.106 665.769 638.305 665.372 636.703 664.576C635.1 663.781 633.816 662.69 632.85 661.303C631.885 659.917 631.356 658.337 631.265 656.565H635.356C635.515 658.144 636.231 659.451 637.504 660.485C638.788 661.508 640.322 662.019 642.106 662.019C643.538 662.019 644.811 661.684 645.924 661.014C647.049 660.343 647.93 659.423 648.566 658.252C649.214 657.07 649.538 655.735 649.538 654.247C649.538 652.724 649.203 651.366 648.532 650.173C647.873 648.968 646.964 648.019 645.805 647.326C644.646 646.633 643.322 646.281 641.833 646.269C640.765 646.258 639.669 646.423 638.544 646.764C637.419 647.093 636.492 647.519 635.765 648.042L631.811 647.565L633.924 630.383H652.061V634.133H637.47L636.242 644.428H636.447C637.163 643.86 638.061 643.389 639.14 643.014C640.22 642.639 641.345 642.451 642.515 642.451C644.652 642.451 646.555 642.962 648.225 643.985C649.907 644.997 651.225 646.383 652.18 648.144C653.146 649.906 653.629 651.917 653.629 654.178C653.629 656.406 653.129 658.394 652.129 660.144C651.14 661.883 649.777 663.258 648.038 664.269C646.299 665.269 644.322 665.769 642.106 665.769ZM671.786 665.769C669.218 665.769 667.031 665.07 665.224 663.673C663.417 662.264 662.036 660.224 661.082 657.553C660.127 654.872 659.65 651.633 659.65 647.837C659.65 644.065 660.127 640.843 661.082 638.173C662.048 635.491 663.434 633.445 665.241 632.036C667.059 630.616 669.241 629.906 671.786 629.906C674.332 629.906 676.508 630.616 678.315 632.036C680.133 633.445 681.519 635.491 682.474 638.173C683.44 640.843 683.923 644.065 683.923 647.837C683.923 651.633 683.446 654.872 682.491 657.553C681.536 660.224 680.156 662.264 678.349 663.673C676.542 665.07 674.355 665.769 671.786 665.769ZM671.786 662.019C674.332 662.019 676.309 660.792 677.718 658.337C679.127 655.883 679.832 652.383 679.832 647.837C679.832 644.815 679.508 642.241 678.86 640.116C678.224 637.991 677.304 636.372 676.099 635.258C674.906 634.144 673.468 633.587 671.786 633.587C669.264 633.587 667.292 634.832 665.872 637.32C664.451 639.798 663.741 643.303 663.741 647.837C663.741 650.86 664.059 653.428 664.696 655.542C665.332 657.656 666.247 659.264 667.44 660.366C668.644 661.468 670.093 662.019 671.786 662.019Z" fill="black"/>
<path fill-rule="evenodd" clip-rule="evenodd" d="M475.009 1063.65V995.128C475.009 992.576 477.079 990.506 479.631 990.506H549.051C551.603 990.506 553.673 992.576 553.673 995.128V1063.65C553.673 1066.2 551.603 1068.27 549.051 1068.27H479.631C477.079 1068.27 475.009 1066.2 475.009 1063.65Z" stroke="black" stroke-width="1.00006" stroke-miterlimit="22.9256" stroke-linecap="round" stroke-linejoin="round"/>
<path d="M486.021 997.473V1061.3H542.659V997.473H486.021Z" stroke="black" stroke-width="0.711493" stroke-miterlimit="22.9256" stroke-linecap="round" stroke-linejoin="round"/>
<path d="M502.652 1014.55C502.652 1011.82 500.438 1009.61 497.707 1009.61C494.977 1009.61 492.763 1011.82 492.763 1014.55C492.763 1017.29 494.977 1019.5 497.707 1019.5C500.438 1019.5 502.652 1017.29 502.652 1014.55Z" stroke="black" stroke-width="0.711493" stroke-miterlimit="22.9256"/>
<path d="M474.58 868.459V949.343H552.675V868.459H474.58Z" stroke="black" stroke-width="0.739913" stroke-miterlimit="22.9256" stroke-linejoin="round"/>
<path d="M501.768 888.527C501.768 882.863 497.177 878.271 491.513 878.271C485.849 878.271 481.257 882.863 481.257 888.527C481.257 894.191 485.849 898.782 491.513 898.782C497.177 898.782 501.768 894.191 501.768 888.527Z" stroke="black" stroke-width="0.473421" stroke-miterlimit="22.9256" stroke-linejoin="round"/>
<path d="M479.074 888.036V888.806H505.221V888.036H479.074Z" fill="black"/>
<path d="M492.42 875.771H491.651V901.917H492.42V875.771Z" fill="black"/>
<path d="M501.972 927.742C501.972 922.078 497.381 917.487 491.717 917.487C486.053 917.487 481.461 922.078 481.461 927.742C481.461 933.406 486.053 937.998 491.717 937.998C497.381 937.998 501.972 933.406 501.972 927.742Z" stroke="black" stroke-width="0.473421" stroke-miterlimit="22.9256" stroke-linejoin="round"/>
<path d="M478.727 927.004V927.773H504.873V927.004H478.727Z" fill="black"/>
<path d="M492.184 914.931H491.415V941.077H492.184V914.931Z" fill="black"/>
<path d="M543.184 927.49C543.184 921.826 538.593 917.234 532.929 917.234C527.265 917.234 522.673 921.826 522.673 927.49C522.673 933.154 527.265 937.745 532.929 937.745C538.593 937.745 543.184 933.154 543.184 927.49Z" stroke="black" stroke-width="0.473421" stroke-miterlimit="22.9256" stroke-linejoin="round"/>
<path d="M519.938 926.75V927.52H546.085V926.75H519.938Z" fill="black"/>
<path d="M533.397 914.062H532.628V940.208H533.397V914.062Z" fill="black"/>
<path d="M542.515 888.527C542.515 882.863 537.924 878.271 532.26 878.271C526.596 878.271 522.004 882.863 522.004 888.527C522.004 894.191 526.596 898.782 532.26 898.782C537.924 898.782 542.515 894.191 542.515 888.527Z" stroke="black" stroke-width="0.473421" stroke-miterlimit="22.9256" stroke-linejoin="round"/>
<path d="M519.349 888.014V888.783H545.496V888.014H519.349Z" fill="black"/>
<path d="M532.729 876.03H531.959V902.177H532.729V876.03Z" fill="black"/>
</svg>
