<svg width="1512" height="1512" viewBox="0 0 1512 1512" fill="none" xmlns="http://www.w3.org/2000/svg">
<path d="M1340.46 422.259H321.392V451.449H1340.46V422.259Z" fill="black"/>
<path d="M391.131 451.156H338.985V506.446H391.131V451.156Z" fill="black"/>
<path d="M338.985 450.54H321.405V515.869H338.985V450.54Z" fill="black"/>
<path d="M350.261 506.445H338.324V516.568H350.261V506.445Z" stroke="black" stroke-width="0.755906" stroke-miterlimit="22.9256"/>
<path d="M338.985 515.869H321.393V719.431H338.985V515.869Z" stroke="black" stroke-width="0.755906" stroke-miterlimit="22.9256"/>
<path d="M349.979 517.041H338.984V716.917H349.979V517.041Z" stroke="black" stroke-width="0.755906" stroke-miterlimit="22.9256"/>
<path d="M391.131 506.446H349.979V728.856H391.131V506.446Z" stroke="black" stroke-width="0.755906" stroke-miterlimit="22.9256"/>
<path d="M338.985 719.431H321.393V831.551H338.985V719.431Z" fill="black"/>
<path d="M391.131 728.854H338.985V823.724H391.131V728.854Z" fill="black" stroke="black" stroke-width="0.755906" stroke-miterlimit="22.9256"/>
<path d="M373.313 823.725H362.458C361.638 823.725 360.974 824.389 360.974 825.209V829.78C360.974 830.599 361.638 831.264 362.458 831.264H373.313C374.132 831.264 374.797 830.599 374.797 829.78V825.209C374.797 824.389 374.132 823.725 373.313 823.725Z" stroke="black" stroke-width="0.755906" stroke-miterlimit="22.9256"/>
<path d="M321.391 731.996H142.96V749.588H321.391V731.996Z" fill="black" stroke="black" stroke-width="0.755906" stroke-miterlimit="22.9256"/>
<path d="M162.864 749.588H142.96V1141.2H162.864V749.588Z" fill="black" stroke="black" stroke-width="0.755906" stroke-miterlimit="22.9256"/>
<path d="M321.391 1128.36H142.471V1147.29H321.391V1128.36Z" fill="black"/>
<path d="M338.985 918.331H321.393V1146.95H338.985V918.331Z" fill="black"/>
<path d="M391.131 930.216H338.985V1146.37H391.131V930.216Z" fill="black" stroke="black" stroke-width="0.755906" stroke-miterlimit="22.9256"/>
<path d="M1340.46 451.449H1310.93V614.509H1340.46V451.449Z" fill="black" stroke="black" stroke-width="0.755906" stroke-miterlimit="22.9256"/>
<path d="M1340.46 765.903H1310.93V1141.77H1340.46V765.903Z" fill="black" stroke="black" stroke-width="0.755906" stroke-miterlimit="22.9256"/>
<path d="M1340.46 1113.53H321.394V1146.96H1340.46V1113.53Z" fill="black" stroke="black" stroke-width="0.755906" stroke-miterlimit="22.9256"/>
<path d="M1338.97 614.509H1328.75C1327.93 614.509 1327.26 615.173 1327.26 615.993V620.564C1327.26 621.384 1327.93 622.048 1328.75 622.048H1338.97C1339.79 622.048 1340.46 621.384 1340.46 620.564V615.993C1340.46 615.173 1339.79 614.509 1338.97 614.509Z" stroke="black" stroke-width="0.755906" stroke-miterlimit="22.9256"/>
<path d="M1338.97 757.625H1328.75C1327.93 757.625 1327.26 758.29 1327.26 759.11V763.681C1327.26 764.5 1327.93 765.165 1328.75 765.165H1338.97C1339.79 765.165 1340.46 764.5 1340.46 763.681V759.11C1340.46 758.29 1339.79 757.625 1338.97 757.625Z" stroke="black" stroke-width="0.755906" stroke-miterlimit="22.9256"/>
<path d="M1072.18 802.991H568.934V818.07H1072.18V802.991Z" fill="black" stroke="black" stroke-width="0.755906" stroke-miterlimit="22.9256"/>
<path d="M636.787 818.07H501.708V826.866H636.787V818.07Z" stroke="black" stroke-width="0.755906" stroke-miterlimit="22.9256"/>
<path d="M1310.58 802.991H1186.69V818.07H1310.58V802.991Z" fill="black" stroke="black" stroke-width="0.755906" stroke-miterlimit="22.9256"/>
<path fill-rule="evenodd" clip-rule="evenodd" d="M954.695 951.265H969.773V1026.03H954.695V1121.64H940.245V818.07H954.695V951.265Z" fill="black" stroke="black" stroke-width="0.755906" stroke-miterlimit="22.9256"/>
<path d="M1305.32 848.56H1190.69V1105.22H1305.32V848.56Z" stroke="black" stroke-width="1.00006" stroke-miterlimit="22.9256"/>
<path fill-rule="evenodd" clip-rule="evenodd" d="M1292.23 895.587C1294.64 951.96 1293.08 1007.67 1293.5 1063.71C1293.79 1083.33 1293.06 1093.34 1272.3 1093.02C1255.12 1093.02 1237.94 1093.02 1220.76 1093.02C1206.17 1093.2 1200.68 1088.84 1201.79 1064.42C1202.22 1008.14 1201.32 951.863 1203.07 895.587C1208.44 850.892 1284.21 846.351 1292.23 895.587Z" stroke="black" stroke-width="1.00006" stroke-miterlimit="22.9256"/>
<path d="M1247.06 1081.08C1250 1081.08 1252.37 1078.71 1252.37 1075.77C1252.37 1072.84 1250 1070.46 1247.06 1070.46C1244.13 1070.46 1241.75 1072.84 1241.75 1075.77C1241.75 1078.71 1244.13 1081.08 1247.06 1081.08Z" stroke="black" stroke-width="0.755906" stroke-miterlimit="22.9256"/>
<path d="M1170.85 1114.54C1170.49 1076.37 1182.14 1040.77 1135.42 1035.85C1120.2 1034.6 1105.68 1035.14 1090.74 1037.23C1052.48 1045.72 1064.49 1078.61 1063.85 1115.1" stroke="black" stroke-width="1.00006" stroke-miterlimit="22.9256" stroke-linecap="round" stroke-linejoin="round"/>
<path fill-rule="evenodd" clip-rule="evenodd" d="M1164.94 1086.43C1165.05 1091.46 1161.3 1096.33 1157.13 1098.63C1129.37 1098.63 1102.93 1098.63 1075.17 1098.63C1071.25 1097.76 1070.37 1095.05 1069.05 1089.16C1067.88 1072 1069.23 1051.79 1088.02 1046.08C1103.44 1045.99 1121.59 1046.08 1137.01 1045.99C1161.1 1048.37 1163.88 1065.65 1164.94 1086.43Z" stroke="black" stroke-width="1.00006" stroke-miterlimit="22.9256"/>
<path d="M1116.3 1096.22C1119.32 1096.22 1121.78 1093.77 1121.78 1090.75C1121.78 1087.72 1119.32 1085.27 1116.3 1085.27C1113.28 1085.27 1110.82 1087.72 1110.82 1090.75C1110.82 1093.77 1113.28 1096.22 1116.3 1096.22Z" stroke="black" stroke-width="1.11118" stroke-miterlimit="22.9256"/>
<path fill-rule="evenodd" clip-rule="evenodd" d="M1152.26 1088.88C1152.34 1092.91 1149.66 1096.79 1146.68 1098.63C1126.86 1098.63 1107.99 1098.63 1088.17 1098.63C1085.37 1097.94 1084.74 1095.77 1083.79 1091.07C1080.29 1048.79 1104.9 1056.77 1132.32 1056.59C1150.27 1056.92 1152.26 1073.02 1152.26 1088.88Z" stroke="black" stroke-width="1.00006" stroke-miterlimit="22.9256"/>
<path fill-rule="evenodd" clip-rule="evenodd" d="M971.188 1046.3H983.592H1029.6H1041.93V1110.79H971.188V1046.3Z" stroke="black" stroke-width="0.755906" stroke-miterlimit="22.9256"/>
<path d="M1029.6 1040.21H983.592V1046.3H1029.6V1040.21Z" stroke="black" stroke-width="0.755906" stroke-miterlimit="22.9256"/>
<path d="M1010.33 913.125L997.528 911.704" stroke="black" stroke-width="1.00006" stroke-miterlimit="22.9256"/>
<path d="M1009.82 869.107L997.02 870.532" stroke="black" stroke-width="1.00006" stroke-miterlimit="22.9256"/>
<path d="M951.923 933.723C962.069 933.723 972.218 933.725 982.364 933.725C989.933 933.747 995.406 929.825 997.658 920.208C997.539 903.095 997.419 885.98 997.3 868.867C997.999 855.476 992.199 849.907 982.364 849.079H951.44" stroke="black" stroke-width="1.00006" stroke-miterlimit="22.9256"/>
<path fill-rule="evenodd" clip-rule="evenodd" d="M1035.92 859.263C1025.82 857.608 1017.05 859.89 1010.32 868.154C1004.09 884.491 1004.45 899.348 1010.32 912.966C1016.3 920.25 1024.11 923.649 1033.95 922.731C1048.64 921.3 1062.91 916.004 1076.47 904.429C1084.69 896.34 1085.37 887.188 1076.47 876.69C1064.66 867.187 1051.07 861.536 1035.92 859.263Z" stroke="black" stroke-width="1.00006" stroke-miterlimit="22.9256"/>
<path d="M527.324 1019.2H436.976V1106.43H527.324V1019.2Z" stroke="black" stroke-width="1.00006" stroke-miterlimit="22.9256" stroke-linejoin="round"/>
<path d="M506.575 1049.94C512.902 1049.94 518.031 1044.81 518.031 1038.48C518.031 1032.16 512.902 1027.03 506.575 1027.03C500.249 1027.03 495.12 1032.16 495.12 1038.48C495.12 1044.81 500.249 1049.94 506.575 1049.94Z" stroke="black" stroke-width="0.639874" stroke-miterlimit="22.9256" stroke-linejoin="round"/>
<path d="M507.401 1023.97H506.542V1053.18H507.401V1023.97Z" fill="black"/>
<path d="M521.575 1039V1038.15L492.369 1038.15V1039L521.575 1039Z" fill="black"/>
<path d="M461.106 1049.8C467.432 1049.8 472.561 1044.67 472.561 1038.34C472.561 1032.02 467.432 1026.89 461.106 1026.89C454.779 1026.89 449.65 1032.02 449.65 1038.34C449.65 1044.67 454.779 1049.8 461.106 1049.8Z" stroke="black" stroke-width="0.639874" stroke-miterlimit="22.9256" stroke-linejoin="round"/>
<path d="M461.932 1023.83H461.072V1053.04H461.932V1023.83Z" fill="black"/>
<path d="M476.107 1038.86V1038.01L446.901 1038.01V1038.86L476.107 1038.86Z" fill="black"/>
<path d="M461.389 1095.83C467.716 1095.83 472.845 1090.7 472.845 1084.38C472.845 1078.05 467.716 1072.92 461.389 1072.92C455.062 1072.92 449.933 1078.05 449.933 1084.38C449.933 1090.7 455.062 1095.83 461.389 1095.83Z" stroke="black" stroke-width="0.639874" stroke-miterlimit="22.9256" stroke-linejoin="round"/>
<path d="M462.214 1069.87H461.355V1099.07H462.214V1069.87Z" fill="black"/>
<path d="M476.387 1084.9V1084.04L447.181 1084.04V1084.9L476.387 1084.9Z" fill="black"/>
<path d="M506.769 1095.09C513.096 1095.09 518.224 1089.96 518.224 1083.63C518.224 1077.3 513.096 1072.18 506.769 1072.18C500.442 1072.18 495.313 1077.3 495.313 1083.63C495.313 1089.96 500.442 1095.09 506.769 1095.09Z" stroke="black" stroke-width="0.639874" stroke-miterlimit="22.9256" stroke-linejoin="round"/>
<path d="M507.594 1069.12H506.735V1098.33H507.594V1069.12Z" fill="black"/>
<path d="M521.768 1084.16V1083.3L492.561 1083.3V1084.16L521.768 1084.16Z" fill="black"/>
<path fill-rule="evenodd" clip-rule="evenodd" d="M569.472 1013.69H649.193C652.163 1013.69 654.571 1016.1 654.571 1019.07V1099.84C654.571 1102.81 652.163 1105.21 649.194 1105.21L569.472 1105.21C566.503 1105.21 564.094 1102.81 564.094 1099.84V1019.07C564.094 1016.1 566.503 1013.69 569.472 1013.69L569.472 1013.69Z" stroke="black" stroke-width="1.00006" stroke-miterlimit="22.9256" stroke-linecap="round" stroke-linejoin="round"/>
<path d="M646.726 1029.38H572.462V1095.28H646.726V1029.38Z" stroke="black" stroke-width="1.00006" stroke-miterlimit="22.9256" stroke-linecap="round" stroke-linejoin="round"/>
<path d="M626.852 1048.73C630.03 1048.73 632.605 1046.16 632.605 1042.98C632.605 1039.8 630.03 1037.23 626.852 1037.23C623.675 1037.23 621.1 1039.8 621.1 1042.98C621.1 1046.16 623.675 1048.73 626.852 1048.73Z" stroke="black" stroke-width="1.00006" stroke-miterlimit="22.9256"/>
<path d="M372.564 922.46H361.709C360.89 922.46 360.225 923.124 360.225 923.944V928.515C360.225 929.335 360.89 929.999 361.709 929.999H372.564C373.384 929.999 374.048 929.335 374.048 928.515V923.944C374.048 923.124 373.384 922.46 372.564 922.46Z" stroke="black" stroke-width="0.755906" stroke-miterlimit="22.9256"/>
<path d="M140.355 913.616H40.5835V1145.93H140.355V913.616Z" stroke="black" stroke-width="0.639874" stroke-miterlimit="22.9256"/>
<path d="M40.4229 913.313L140.194 1145.62" stroke="black" stroke-width="0.639874" stroke-miterlimit="22.9256"/>
<path d="M140.355 913.617L43.0327 1144.12" stroke="black" stroke-width="0.639874" stroke-miterlimit="22.9256"/>
<path d="M1328.75 757.625C1421.91 758.926 1470.55 700.985 1495.09 621.647C1439.33 621.647 1383.57 621.647 1327.81 621.647" stroke="black" stroke-width="0.96" stroke-miterlimit="22.9256"/>
<path d="M361.709 922.459C424.798 923.34 460.442 885.99 477.066 832.265C439.307 832.265 401.548 832.265 363.789 832.265" stroke="black" stroke-width="0.96" stroke-miterlimit="22.9256"/>
<path d="M1112.99 530.281V565.19H1108.77V534.713H1108.56L1100.04 540.372V536.077L1108.77 530.281H1112.99ZM1122.22 558.031V554.554L1137.56 530.281H1140.08V535.668H1138.37L1126.78 554.009V554.281H1147.44V558.031H1122.22ZM1138.65 565.19V556.975V555.355V530.281H1142.67V565.19H1138.65ZM1155.19 565.463C1154.35 565.463 1153.63 565.162 1153.03 564.56C1152.42 563.957 1152.12 563.236 1152.12 562.395C1152.12 561.554 1152.42 560.832 1153.03 560.23C1153.63 559.628 1154.35 559.327 1155.19 559.327C1156.03 559.327 1156.75 559.628 1157.35 560.23C1157.96 560.832 1158.26 561.554 1158.26 562.395C1158.26 562.952 1158.12 563.463 1157.83 563.929C1157.56 564.395 1157.19 564.77 1156.72 565.054C1156.27 565.327 1155.76 565.463 1155.19 565.463ZM1175.78 565.668C1174.35 565.645 1172.92 565.372 1171.49 564.85C1170.05 564.327 1168.75 563.446 1167.56 562.207C1166.38 560.957 1165.43 559.27 1164.72 557.145C1164 555.009 1163.64 552.327 1163.64 549.1C1163.64 546.009 1163.93 543.27 1164.51 540.884C1165.09 538.486 1165.93 536.469 1167.04 534.832C1168.14 533.185 1169.47 531.935 1171.03 531.082C1172.59 530.23 1174.36 529.804 1176.33 529.804C1178.28 529.804 1180.02 530.196 1181.54 530.98C1183.08 531.753 1184.33 532.832 1185.29 534.219C1186.26 535.605 1186.88 537.202 1187.17 539.009H1183.01C1182.62 537.44 1181.87 536.139 1180.76 535.105C1179.64 534.071 1178.17 533.554 1176.33 533.554C1173.62 533.554 1171.49 534.73 1169.93 537.082C1168.39 539.435 1167.61 542.736 1167.6 546.986H1167.87C1168.51 546.02 1169.26 545.196 1170.14 544.514C1171.03 543.821 1172 543.287 1173.07 542.912C1174.14 542.537 1175.27 542.35 1176.46 542.35C1178.46 542.35 1180.29 542.85 1181.95 543.85C1183.61 544.838 1184.94 546.207 1185.94 547.957C1186.94 549.696 1187.44 551.69 1187.44 553.94C1187.44 556.1 1186.96 558.077 1185.99 559.872C1185.03 561.656 1183.67 563.077 1181.92 564.134C1180.18 565.179 1178.13 565.69 1175.78 565.668ZM1175.78 561.918C1177.21 561.918 1178.5 561.56 1179.63 560.844C1180.78 560.128 1181.68 559.168 1182.34 557.963C1183.01 556.759 1183.35 555.418 1183.35 553.94C1183.35 552.497 1183.03 551.185 1182.38 550.003C1181.74 548.81 1180.86 547.861 1179.74 547.156C1178.62 546.452 1177.35 546.1 1175.92 546.1C1174.84 546.1 1173.83 546.315 1172.9 546.747C1171.97 547.168 1171.15 547.747 1170.45 548.486C1169.75 549.225 1169.21 550.071 1168.81 551.026C1168.41 551.969 1168.21 552.963 1168.21 554.009C1168.21 555.395 1168.54 556.69 1169.18 557.895C1169.84 559.1 1170.74 560.071 1171.88 560.81C1173.03 561.548 1174.33 561.918 1175.78 561.918ZM1205.53 565.668C1202.96 565.668 1200.77 564.969 1198.97 563.571C1197.16 562.162 1195.78 560.122 1194.82 557.452C1193.87 554.77 1193.39 551.531 1193.39 547.736C1193.39 543.963 1193.87 540.742 1194.82 538.071C1195.79 535.389 1197.18 533.344 1198.98 531.935C1200.8 530.514 1202.98 529.804 1205.53 529.804C1208.07 529.804 1210.25 530.514 1212.06 531.935C1213.88 533.344 1215.26 535.389 1216.22 538.071C1217.18 540.742 1217.67 543.963 1217.67 547.736C1217.67 551.531 1217.19 554.77 1216.23 557.452C1215.28 560.122 1213.9 562.162 1212.09 563.571C1210.28 564.969 1208.1 565.668 1205.53 565.668ZM1205.53 561.918C1208.07 561.918 1210.05 560.69 1211.46 558.236C1212.87 555.781 1213.57 552.281 1213.57 547.736C1213.57 544.713 1213.25 542.139 1212.6 540.014C1211.97 537.889 1211.05 536.27 1209.84 535.156C1208.65 534.043 1207.21 533.486 1205.53 533.486C1203.01 533.486 1201.03 534.73 1199.61 537.219C1198.19 539.696 1197.48 543.202 1197.48 547.736C1197.48 550.759 1197.8 553.327 1198.44 555.44C1199.07 557.554 1199.99 559.162 1201.18 560.264C1202.39 561.367 1203.84 561.918 1205.53 561.918Z" fill="black"/>
<path d="M1067.99 974.25V970.773L1083.33 946.5H1085.85V951.887H1084.15L1072.56 970.228V970.5H1093.21V974.25H1067.99ZM1084.42 981.41V973.194V971.574V946.5H1088.44V981.41H1084.42ZM1100.96 981.682C1100.12 981.682 1099.4 981.381 1098.8 980.779C1098.19 980.177 1097.89 979.455 1097.89 978.614C1097.89 977.773 1098.19 977.052 1098.8 976.449C1099.4 975.847 1100.12 975.546 1100.96 975.546C1101.8 975.546 1102.52 975.847 1103.13 976.449C1103.73 977.052 1104.03 977.773 1104.03 978.614C1104.03 979.171 1103.89 979.682 1103.6 980.148C1103.33 980.614 1102.96 980.989 1102.5 981.273C1102.04 981.546 1101.53 981.682 1100.96 981.682ZM1111.57 981.41L1127.18 950.523V950.25H1109.18V946.5H1131.55V950.455L1116 981.41H1111.57ZM1148.54 981.887C1145.97 981.887 1143.78 981.188 1141.97 979.79C1140.17 978.381 1138.79 976.341 1137.83 973.671C1136.88 970.989 1136.4 967.75 1136.4 963.955C1136.4 960.182 1136.88 956.961 1137.83 954.29C1138.8 951.608 1140.18 949.563 1141.99 948.154C1143.81 946.733 1145.99 946.023 1148.54 946.023C1151.08 946.023 1153.26 946.733 1155.06 948.154C1156.88 949.563 1158.27 951.608 1159.22 954.29C1160.19 956.961 1160.67 960.182 1160.67 963.955C1160.67 967.75 1160.19 970.989 1159.24 973.671C1158.29 976.341 1156.9 978.381 1155.1 979.79C1153.29 981.188 1151.1 981.887 1148.54 981.887ZM1148.54 978.137C1151.08 978.137 1153.06 976.91 1154.47 974.455C1155.88 972 1156.58 968.5 1156.58 963.955C1156.58 960.932 1156.26 958.358 1155.61 956.233C1154.97 954.108 1154.05 952.489 1152.85 951.375C1151.65 950.262 1150.22 949.705 1148.54 949.705C1146.01 949.705 1144.04 950.949 1142.62 953.438C1141.2 955.915 1140.49 959.421 1140.49 963.955C1140.49 966.978 1140.81 969.546 1141.44 971.66C1142.08 973.773 1143 975.381 1144.19 976.483C1145.39 977.586 1146.84 978.137 1148.54 978.137Z" fill="black"/>
<path d="M790.399 1070.35C788.968 1070.33 787.536 1070.06 786.104 1069.53C784.672 1069.01 783.365 1068.13 782.183 1066.89C781.002 1065.64 780.053 1063.95 779.337 1061.83C778.621 1059.69 778.263 1057.01 778.263 1053.78C778.263 1050.69 778.553 1047.95 779.132 1045.57C779.712 1043.17 780.553 1041.15 781.655 1039.52C782.757 1037.87 784.087 1036.62 785.644 1035.77C787.212 1034.92 788.979 1034.49 790.945 1034.49C792.899 1034.49 794.638 1034.88 796.161 1035.67C797.695 1036.44 798.945 1037.52 799.911 1038.9C800.877 1040.29 801.502 1041.89 801.786 1043.69H797.627C797.24 1042.13 796.49 1040.82 795.377 1039.79C794.263 1038.76 792.786 1038.24 790.945 1038.24C788.24 1038.24 786.11 1039.42 784.553 1041.77C783.007 1044.12 782.229 1047.42 782.218 1051.67H782.49C783.127 1050.7 783.882 1049.88 784.757 1049.2C785.644 1048.51 786.621 1047.97 787.689 1047.6C788.757 1047.22 789.888 1047.03 791.081 1047.03C793.081 1047.03 794.911 1047.53 796.57 1048.53C798.229 1049.52 799.558 1050.89 800.558 1052.64C801.558 1054.38 802.058 1056.38 802.058 1058.63C802.058 1060.78 801.576 1062.76 800.61 1064.56C799.644 1066.34 798.286 1067.76 796.536 1068.82C794.797 1069.86 792.752 1070.38 790.399 1070.35ZM790.399 1066.6C791.831 1066.6 793.115 1066.24 794.252 1065.53C795.399 1064.81 796.303 1063.85 796.962 1062.65C797.632 1061.44 797.968 1060.1 797.968 1058.63C797.968 1057.18 797.644 1055.87 796.996 1054.69C796.36 1053.49 795.479 1052.55 794.354 1051.84C793.24 1051.14 791.968 1050.78 790.536 1050.78C789.456 1050.78 788.451 1051 787.519 1051.43C786.587 1051.85 785.769 1052.43 785.064 1053.17C784.371 1053.91 783.826 1054.76 783.428 1055.71C783.03 1056.65 782.831 1057.65 782.831 1058.69C782.831 1060.08 783.155 1061.38 783.803 1062.58C784.462 1063.78 785.36 1064.76 786.496 1065.49C787.644 1066.23 788.945 1066.6 790.399 1066.6ZM810.121 1070.15C809.28 1070.15 808.558 1069.85 807.956 1069.24C807.354 1068.64 807.053 1067.92 807.053 1067.08C807.053 1066.24 807.354 1065.52 807.956 1064.92C808.558 1064.31 809.28 1064.01 810.121 1064.01C810.962 1064.01 811.683 1064.31 812.286 1064.92C812.888 1065.52 813.189 1066.24 813.189 1067.08C813.189 1067.64 813.047 1068.15 812.763 1068.61C812.49 1069.08 812.121 1069.45 811.655 1069.74C811.201 1070.01 810.689 1070.15 810.121 1070.15ZM831.125 1034.49C832.557 1034.5 833.989 1034.77 835.421 1035.31C836.852 1035.84 838.159 1036.73 839.341 1037.97C840.523 1039.19 841.472 1040.87 842.188 1042.99C842.904 1045.12 843.262 1047.78 843.262 1050.99C843.262 1054.09 842.966 1056.85 842.375 1059.26C841.796 1061.65 840.955 1063.68 839.852 1065.32C838.762 1066.97 837.432 1068.22 835.864 1069.07C834.307 1069.93 832.546 1070.35 830.58 1070.35C828.625 1070.35 826.881 1069.97 825.347 1069.19C823.824 1068.41 822.574 1067.32 821.597 1065.94C820.631 1064.54 820.012 1062.92 819.739 1061.08H823.898C824.273 1062.68 825.017 1064.01 826.131 1065.05C827.256 1066.09 828.739 1066.6 830.58 1066.6C833.273 1066.6 835.398 1065.43 836.955 1063.07C838.523 1060.72 839.307 1057.4 839.307 1053.1H839.034C838.398 1054.06 837.642 1054.88 836.767 1055.57C835.892 1056.27 834.921 1056.8 833.852 1057.18C832.784 1057.55 831.648 1057.74 830.443 1057.74C828.443 1057.74 826.608 1057.24 824.938 1056.26C823.279 1055.26 821.949 1053.89 820.949 1052.15C819.96 1050.4 819.466 1048.4 819.466 1046.15C819.466 1044.01 819.943 1042.06 820.898 1040.28C821.864 1038.5 823.216 1037.08 824.955 1036.02C826.705 1034.97 828.762 1034.45 831.125 1034.49ZM831.125 1038.24C829.693 1038.24 828.404 1038.6 827.256 1039.31C826.12 1040.02 825.216 1040.97 824.546 1042.18C823.887 1043.37 823.557 1044.69 823.557 1046.15C823.557 1047.6 823.875 1048.93 824.512 1050.12C825.159 1051.3 826.04 1052.24 827.154 1052.95C828.279 1053.64 829.557 1053.99 830.989 1053.99C832.068 1053.99 833.074 1053.78 834.006 1053.36C834.938 1052.93 835.75 1052.34 836.443 1051.6C837.148 1050.85 837.699 1050.01 838.097 1049.06C838.495 1048.11 838.693 1047.11 838.693 1046.08C838.693 1044.72 838.364 1043.44 837.705 1042.24C837.057 1041.05 836.159 1040.09 835.012 1039.35C833.875 1038.61 832.58 1038.24 831.125 1038.24ZM861.351 1070.35C858.783 1070.35 856.595 1069.65 854.789 1068.26C852.982 1066.85 851.601 1064.81 850.647 1062.14C849.692 1059.45 849.215 1056.22 849.215 1052.42C849.215 1048.65 849.692 1045.43 850.647 1042.76C851.612 1040.07 852.999 1038.03 854.806 1036.62C856.624 1035.2 858.806 1034.49 861.351 1034.49C863.897 1034.49 866.073 1035.2 867.879 1036.62C869.698 1038.03 871.084 1040.07 872.039 1042.76C873.004 1045.43 873.487 1048.65 873.487 1052.42C873.487 1056.22 873.01 1059.45 872.056 1062.14C871.101 1064.81 869.72 1066.85 867.914 1068.26C866.107 1069.65 863.919 1070.35 861.351 1070.35ZM861.351 1066.6C863.897 1066.6 865.874 1065.38 867.283 1062.92C868.692 1060.47 869.397 1056.97 869.397 1052.42C869.397 1049.4 869.073 1046.82 868.425 1044.7C867.789 1042.57 866.868 1040.95 865.664 1039.84C864.47 1038.73 863.033 1038.17 861.351 1038.17C858.828 1038.17 856.857 1039.42 855.436 1041.9C854.016 1044.38 853.306 1047.89 853.306 1052.42C853.306 1055.44 853.624 1058.01 854.26 1060.13C854.897 1062.24 855.811 1063.85 857.004 1064.95C858.209 1066.05 859.658 1066.6 861.351 1066.6Z" fill="black"/>
<path d="M202.785 946.248V943.179L214.307 930.566C215.66 929.088 216.773 927.804 217.648 926.713C218.523 925.611 219.171 924.577 219.591 923.611C220.023 922.634 220.239 921.611 220.239 920.543C220.239 919.316 219.944 918.253 219.353 917.356C218.773 916.458 217.978 915.765 216.966 915.276C215.955 914.787 214.819 914.543 213.557 914.543C212.216 914.543 211.046 914.821 210.046 915.378C209.057 915.924 208.29 916.691 207.745 917.679C207.211 918.668 206.944 919.827 206.944 921.157H202.921C202.921 919.111 203.392 917.316 204.336 915.77C205.279 914.225 206.563 913.02 208.188 912.157C209.824 911.293 211.66 910.861 213.694 910.861C215.739 910.861 217.552 911.293 219.131 912.157C220.711 913.02 221.949 914.185 222.847 915.651C223.745 917.117 224.194 918.748 224.194 920.543C224.194 921.827 223.961 923.083 223.495 924.31C223.04 925.526 222.245 926.884 221.108 928.384C219.983 929.873 218.421 931.691 216.421 933.838L208.58 942.225V942.498H224.807V946.248H202.785ZM234.847 946.52C234.006 946.52 233.285 946.219 232.682 945.617C232.08 945.015 231.779 944.293 231.779 943.452C231.779 942.611 232.08 941.89 232.682 941.287C233.285 940.685 234.006 940.384 234.847 940.384C235.688 940.384 236.41 940.685 237.012 941.287C237.614 941.89 237.915 942.611 237.915 943.452C237.915 944.009 237.773 944.52 237.489 944.986C237.216 945.452 236.847 945.827 236.381 946.111C235.927 946.384 235.415 946.52 234.847 946.52ZM255.438 946.725C254.006 946.702 252.574 946.429 251.142 945.907C249.711 945.384 248.404 944.503 247.222 943.265C246.04 942.015 245.091 940.327 244.375 938.202C243.66 936.066 243.302 933.384 243.302 930.157C243.302 927.066 243.591 924.327 244.171 921.941C244.75 919.543 245.591 917.526 246.694 915.89C247.796 914.242 249.125 912.992 250.682 912.14C252.25 911.287 254.017 910.861 255.983 910.861C257.938 910.861 259.677 911.253 261.199 912.037C262.733 912.81 263.983 913.89 264.949 915.276C265.915 916.662 266.54 918.259 266.824 920.066H262.665C262.279 918.498 261.529 917.196 260.415 916.162C259.302 915.128 257.824 914.611 255.983 914.611C253.279 914.611 251.148 915.787 249.591 918.14C248.046 920.492 247.267 923.793 247.256 928.043H247.529C248.165 927.077 248.921 926.253 249.796 925.571C250.682 924.878 251.66 924.344 252.728 923.969C253.796 923.594 254.927 923.407 256.12 923.407C258.12 923.407 259.949 923.907 261.608 924.907C263.267 925.895 264.597 927.265 265.597 929.015C266.597 930.753 267.097 932.748 267.097 934.998C267.097 937.157 266.614 939.134 265.648 940.929C264.682 942.713 263.324 944.134 261.574 945.191C259.836 946.236 257.79 946.748 255.438 946.725ZM255.438 942.975C256.87 942.975 258.154 942.617 259.29 941.901C260.438 941.185 261.341 940.225 262 939.02C262.671 937.816 263.006 936.475 263.006 934.998C263.006 933.554 262.682 932.242 262.035 931.06C261.398 929.867 260.517 928.918 259.392 928.213C258.279 927.509 257.006 927.157 255.574 927.157C254.495 927.157 253.489 927.373 252.557 927.804C251.625 928.225 250.807 928.804 250.103 929.543C249.41 930.282 248.864 931.128 248.466 932.083C248.069 933.026 247.87 934.02 247.87 935.066C247.87 936.452 248.194 937.748 248.841 938.952C249.5 940.157 250.398 941.128 251.535 941.867C252.682 942.606 253.983 942.975 255.438 942.975ZM285.187 946.725C282.618 946.725 280.431 946.026 278.624 944.628C276.817 943.219 275.437 941.179 274.482 938.509C273.527 935.827 273.05 932.588 273.05 928.793C273.05 925.02 273.527 921.799 274.482 919.128C275.448 916.446 276.834 914.401 278.641 912.992C280.459 911.571 282.641 910.861 285.187 910.861C287.732 910.861 289.908 911.571 291.715 912.992C293.533 914.401 294.919 916.446 295.874 919.128C296.84 921.799 297.323 925.02 297.323 928.793C297.323 932.588 296.846 935.827 295.891 938.509C294.937 941.179 293.556 943.219 291.749 944.628C289.942 946.026 287.755 946.725 285.187 946.725ZM285.187 942.975C287.732 942.975 289.709 941.748 291.118 939.293C292.527 936.838 293.232 933.338 293.232 928.793C293.232 925.77 292.908 923.196 292.26 921.071C291.624 918.946 290.704 917.327 289.499 916.213C288.306 915.1 286.868 914.543 285.187 914.543C282.664 914.543 280.692 915.787 279.272 918.276C277.851 920.753 277.141 924.259 277.141 928.793C277.141 931.816 277.459 934.384 278.096 936.498C278.732 938.611 279.647 940.219 280.84 941.321C282.044 942.424 283.493 942.975 285.187 942.975Z" fill="black"/>
</svg>
