<?xml version="1.0" encoding="UTF-8"?>
<!DOCTYPE svg PUBLIC "-//W3C//DTD SVG 1.1//EN" "http://www.w3.org/Graphics/SVG/1.1/DTD/svg11.dtd">
<!-- Creator: CorelDRAW -->
<svg xmlns="http://www.w3.org/2000/svg" xml:space="preserve" width="400mm" height="400mm" version="1.1" style="shape-rendering:geometricPrecision; text-rendering:geometricPrecision; image-rendering:optimizeQuality; fill-rule:evenodd; clip-rule:evenodd"
viewBox="0 0 40000 40000"
 xmlns:xlink="http://www.w3.org/1999/xlink"
 xmlns:xodm="http://www.corel.com/coreldraw/odm/2003">
 <defs>
  <style type="text/css">
   <![CDATA[
    .str6 {stroke:#2B2A29;stroke-width:26.46;stroke-miterlimit:22.9256}
    .str8 {stroke:#2B2A29;stroke-width:29.4;stroke-miterlimit:22.9256}
    .str1 {stroke:#2B2A29;stroke-width:16.93;stroke-miterlimit:22.9256}
    .str2 {stroke:#1F1B20;stroke-width:16.93;stroke-miterlimit:22.9256}
    .str0 {stroke:black;stroke-width:16.93;stroke-miterlimit:22.9256}
    .str10 {stroke:#2B2A29;stroke-width:16.93;stroke-miterlimit:22.9256}
    .str7 {stroke:#2B2A29;stroke-width:20;stroke-miterlimit:22.9256}
    .str9 {stroke:#2B2A29;stroke-width:25.4;stroke-miterlimit:22.9256}
    .str3 {stroke:#2B2A29;stroke-width:26.46;stroke-linejoin:round;stroke-miterlimit:22.9256}
    .str4 {stroke:#2B2A29;stroke-width:16.93;stroke-linejoin:round;stroke-miterlimit:22.9256}
    .str5 {stroke:#2B2A29;stroke-width:26.46;stroke-linecap:round;stroke-linejoin:round;stroke-miterlimit:22.9256}
    .fil1 {fill:none}
    .fil3 {fill:#2B2A29}
    .fil2 {fill:black}
    .fil0 {fill:black}
    .fnt0 {font-weight:normal;font-size:1251.01px;font-family:'Arial'}
    .fnt1 {font-weight:normal;font-size:1270px;font-family:'Arial'}
   ]]>
  </style>
 </defs>
 <g id="Слой_x0020_1">
  <metadata id="CorelCorpID_0Corel-Layer"/>
  <rect class="fil0" x="6290.58" y="5824.02" width="22943.86" height="912.12" rx="34.42" ry="34.42"/>
  <rect class="fil1 str0" x="6311.3" y="19853.63" width="402.65" height="165.41" rx="34.42" ry="34.42"/>
  <rect class="fil0" x="27630.01" y="6677.53" width="1211.78" height="4623.01"/>
  <rect class="fil0" x="28790.68" y="6664.58" width="450.95" height="4850.14"/>
  <rect class="fil1 str0" x="28543.25" y="11341.11" width="318.25" height="234.11" rx="34.42" ry="34.42"/>
  <rect class="fil1 str0" x="28576.74" y="13473.22" width="318.25" height="234.11" rx="34.42" ry="34.42"/>
  <rect class="fil1 str1" x="27674.43" y="13701.87" width="926.37" height="3829.79"/>
  <rect class="fil1 str0" x="28864.97" y="13703.66" width="376.59" height="3586.43"/>
  <rect class="fil1 str2" x="28591.41" y="13966.18" width="276.46" height="3231.3"/>
  <rect class="fil0" x="27660.97" y="17479.41" width="1220.28" height="6178.51"/>
  <rect class="fil0" x="28851.88" y="17203.14" width="392.61" height="6697.37"/>
  <rect class="fil0" x="15502.13" y="18994.2" width="12217.48" height="425.89"/>
  <rect class="fil1 str1" x="27630.01" y="23640.79" width="926.37" height="6249.25"/>
  <rect class="fil1 str2" x="28560.03" y="23915.47" width="276.46" height="5617.3"/>
  <rect class="fil1 str0" x="28846.96" y="23916.07" width="394.09" height="5733.34"/>
  <rect class="fil0" x="28891.41" y="29504.49" width="353.08" height="4682.25"/>
  <rect class="fil0" x="27660.97" y="29900.97" width="1301.44" height="4298.14"/>
  <rect class="fil1 str0" x="6250.1" y="23180.78" width="402.65" height="165.41" rx="34.42" ry="34.42"/>
  <rect class="fil0" transform="matrix(9.11691E-14 9.40907 -3.44235 2.49195E-13 33438.8 7242.68)" width="1240.81" height="137.87"/>
  <rect class="fil0" x="29143.66" y="18561.65" width="4271.3" height="474.6"/>
  <rect class="fil0" x="6290.58" y="5824.02" width="22943.86" height="912.12" rx="34.42" ry="34.42"/>
  <rect class="fil0" x="27660.97" y="17479.41" width="1220.28" height="6178.51"/>
  <rect class="fil0" x="15517.19" y="23166.34" width="371.4" height="10816.48"/>
  <rect class="fil0" x="29143.66" y="5828.23" width="4298.16" height="474.6"/>
  <rect class="fil0" x="7018.72" y="12559.65" width="2581.75" height="401.55" rx="19.2" ry="34.42"/>
  <rect class="fil1 str0" x="9589.27" y="12578.15" width="183.89" height="362.51" rx="34.42" ry="34.42"/>
  <rect class="fil1 str0" x="28543.25" y="11341.11" width="318.25" height="234.11" rx="34.42" ry="34.42"/>
  <rect class="fil0" x="15522.66" y="18565.53" width="1713.57" height="610.46"/>
  <rect class="fil1 str1" x="27630.01" y="23640.79" width="926.37" height="6249.25"/>
  <rect class="fil0" x="28840.72" y="29504.49" width="403.77" height="4682.25"/>
  <rect class="fil0" transform="matrix(9.11691E-14 10.5159 -3.44235 2.78509E-13 33438.8 5869.29)" width="1240.81" height="137.87"/>
  <rect class="fil0" x="29143.66" y="18561.65" width="4296.74" height="474.6"/>
  <rect class="fil0" x="6289.51" y="5852.76" width="803.2" height="14004.77"/>
  <rect class="fil0" x="27660.97" y="17479.41" width="1220.28" height="6178.51"/>
  <rect class="fil0" x="15474.95" y="16759.92" width="371.4" height="3332.37"/>
  <rect class="fil0" x="6289.51" y="23311.77" width="803.2" height="5022.27"/>
  <rect class="fil1 str3" x="24649.28" y="7829.47" width="2312.54" height="2232.8"/>
  <circle class="fil1 str4" cx="25180.36" cy="8323.06" r="293.22"/>
  <rect class="fil2" x="25159.23" y="7951.64" width="21.99" height="747.56"/>
  <rect class="fil2" transform="matrix(-4.81874E-14 1.81941 1.81941 4.81874E-14 24796.4 8314.4)" width="12.09" height="410.88"/>
  <circle class="fil1 str4" cx="26344.21" cy="8319.46" r="293.22"/>
  <rect class="fil2" x="26323.07" y="7948.03" width="21.99" height="747.56"/>
  <rect class="fil2" transform="matrix(-4.81874E-14 1.81941 1.81941 4.81874E-14 25960.3 8310.8)" width="12.09" height="410.88"/>
  <circle class="fil1 str4" cx="26336.96" cy="9497.75" r="293.22"/>
  <rect class="fil2" x="26315.84" y="9126.31" width="21.99" height="747.56"/>
  <rect class="fil2" transform="matrix(-4.81874E-14 1.81941 1.81941 4.81874E-14 25953.1 9489.11)" width="12.09" height="410.88"/>
  <circle class="fil1 str4" cx="25175.41" cy="9478.62" r="293.22"/>
  <rect class="fil2" x="25154.29" y="9107.19" width="21.99" height="747.56"/>
  <rect class="fil2" transform="matrix(-4.81874E-14 1.81941 1.81941 4.81874E-14 24791.5 9470)" width="12.09" height="410.88"/>
  <path class="fil1 str5" d="M23570.47 7709.18l-2040.55 0c-76.01,-0.01 -137.66,61.64 -137.66,137.65l0.01 2067.31c-0.01,76 61.64,137.64 137.64,137.64l2040.56 0.01c76,-0.01 137.64,-61.65 137.64,-137.66l0.01 -2067.3c-0.01,-76.01 -61.65,-137.66 -137.66,-137.66z"/>
  <rect class="fil1 str5" x="21593.07" y="8110.79" width="1900.86" height="1686.67"/>
  <circle class="fil1 str6" cx="22101.76" cy="8458.81" r="147.25"/>
  <rect class="fil1 str6" transform="matrix(-1.0073 0.000187023 0.000187023 1.0073 9635.49 6625.51)" width="2611.41" height="5846.68"/>
  <path class="fil1 str6" d="M9335.94 11435.83c55.18,-1293.53 19.04,-2571.86 28.53,-3857.78 6.4,-450.06 -10.24,-679.79 -486.62,-672.41 -394.27,0.08 -788.49,0.15 -1182.75,0.22 -334.77,-4.08 -460.69,96.06 -435.01,656.39 9.98,1291.3 -10.5,2582.65 29.92,3873.96 123.44,1025.55 1862.15,1129.41 2045.93,-0.38z"/>
  <circle class="fil1 str7" transform="matrix(-1.0073 0.000187023 0.000187023 1.0073 8298.74 7301.53)" r="121.03"/>
  <path class="fil1 str5" d="M12643.66 6615.79c-8.02,848.99 251.18,1640.83 -788.15,1750.3 -338.47,27.92 -661.51,15.97 -993.81,-30.66 -851.13,-188.9 -583.9,-920.52 -598.14,-1732.11"/>
  <path class="fil1 str6" d="M12512.18 7241.11c2.36,-112.02 -81.06,-220.23 -173.77,-271.41 -617.48,0 -1205.5,0 -1822.99,0 -87.19,19.22 -106.77,79.63 -136.31,210.66 -44.64,1192.51 771.41,939.5 1511.72,960.29 535.94,-52.94 597.86,-437.48 621.35,-899.54z"/>
  <circle class="fil1 str8" cx="11430.24" cy="7145.03" r="121.81"/>
  <path class="fil1 str6" d="M12230.19 7186.46c1.67,-89.46 -57.88,-175.89 -124.09,-216.76 -440.87,0 -860.72,0 -1301.61,0 -62.26,15.34 -76.23,63.59 -97.32,168.24 -77.99,940.35 469.42,762.86 1079.36,766.97 399.45,-7.43 443.66,-365.48 443.66,-718.45z"/>
  <line class="fil1 str6" x1="14874.78" y1="8085.01" x2="14840.1" y2= "7772.53" />
  <line class="fil1 str6" x1="13800.72" y1="8072.51" x2="13835.49" y2= "7760.11" />
  <path class="fil1 str6" d="M15377.36 6659.74c0,247.58 0.05,495.2 0.05,742.79 0.53,184.66 -95.15,318.22 -329.83,373.16 -417.55,-2.91 -835.15,-5.82 -1252.72,-8.73 -326.74,17.05 -462.62,-124.47 -482.82,-364.43l0 -754.56"/>
  <path class="fil1 str6" d="M13560.52 8709.37c-40.38,-246.64 15.3,-460.53 216.96,-624.8 398.61,-152.02 761.11,-143.17 1093.41,0.04 177.72,146.03 260.66,336.58 238.27,576.67 -34.93,358.48 -164.15,706.47 -446.58,1037.36 -197.37,200.71 -420.68,217.16 -676.83,0 -231.89,-288.14 -369.76,-619.68 -425.23,-989.27z"/>
  <text x="9533.72" y="21502.24"  class="fil3 fnt0">10.40</text>
  <text x="22607.92" y="17311.86"  class="fil3 fnt0">11.90</text>
  <text x="29828.59" y="13523.52"  class="fil3 fnt0">3.</text>
  <text x="31567.7" y="13523.52"  class="fil3 fnt0">0</text>
  <text x="30871.93" y="13523.52"  class="fil3 fnt0">8</text>
  <text x="23146.88" y="31920.29"  class="fil3 fnt0">14.10</text>
  <path class="fil1 str9" d="M28847.6 13471.61c-1532.08,21.37 -2415.42,-605.01 -2819.12,-1909.68 916.97,0 1833.92,0 2750.87,0"/>
  <path class="fil1 str9" d="M9773.15 12906.27c219.91,-1370.88 1514.14,-2427.13 2778.38,-3007.08 0,981.95 0,1963.87 0,2945.8"/>
  <rect class="fil1 str10" x="33433.69" y="13123.85" width="2521.85" height="5871.97"/>
  <line class="fil1 str10" x1="35921.05" y1="13096.91" x2="33399.2" y2= "18968.88" />
  <line class="fil1 str10" x1="33395.13" y1="13104.6" x2="35855.08" y2= "18930.84" />
  <rect class="fil1 str0" x="12572.95" y="12578.15" width="183.89" height="362.51" rx="34.42" ry="34.42"/>
  <rect class="fil0" x="15517.19" y="6557.15" width="371.4" height="7046.41"/>
  <rect class="fil0" x="12756.84" y="12559.65" width="2918.68" height="401.55" rx="21.71" ry="34.42"/>
  <rect class="fil1 str0" x="15462.28" y="16594.5" width="402.65" height="165.41" rx="34.42" ry="34.42"/>
  <rect class="fil1 str0" x="15462.28" y="13603.54" width="402.65" height="165.41" rx="34.42" ry="34.42"/>
  <rect class="fil0" transform="matrix(1.70762E-13 3.44235 -2.4469 3.45991E-14 15702.9 27521.4)" width="233.33" height="3844.39"/>
  <rect class="fil0" transform="matrix(2.48956E-13 3.44235 -3.56737 3.45991E-14 29231.6 33434)" width="233.33" height="3844.39"/>
  <path class="fil1 str9" d="M15973.65 16532.12c-1716.74,23.95 -2769.57,-1295.58 -3221.93,-2757.51 1027.5,0 2054.97,0 3082.45,0"/>
  <path class="fil1 str9" d="M6596.74 23139.58c-1944.66,27.12 -3137.25,-1467.58 -3649.66,-3123.59 1163.9,0 2327.77,0 3491.65,0"/>
  <text x="10011.23" y="9872.71"  class="fil2 fnt1">4.30</text>
 </g>
</svg>
