<svg width="1512" height="1512" viewBox="0 0 1512 1512" fill="none" xmlns="http://www.w3.org/2000/svg">
<path d="M994.689 183.512H418.515V199.238H994.689V183.512Z" fill="black"/>
<path d="M438.985 199.238H418.533V494.364H438.985V199.238Z" fill="black"/>
<path d="M518.185 375.75H438.984V384.673H518.185V375.75Z" fill="black"/>
<path d="M667.29 375.75H589.205V384.673H667.29V375.75Z" fill="black"/>
<path fill-rule="evenodd" clip-rule="evenodd" d="M676.214 309.803H685.138V354.028H676.214V420.741H667.29V199.238H676.214V309.803Z" fill="black"/>
<path d="M994.688 191.582H965.5V379.653H994.688V191.582Z" fill="black"/>
<path d="M988.926 379.654H967.026V538.984H988.926V379.654Z" stroke="black" stroke-width="0.755906" stroke-miterlimit="22.9256"/>
<path d="M995.993 379.653H988.928V386.718H995.993V379.653Z" stroke="black" stroke-width="0.755906" stroke-miterlimit="22.9256"/>
<path d="M995.99 386.718H988.925V540.204H995.99V386.718Z" stroke="black" stroke-width="0.755906" stroke-miterlimit="22.9256"/>
<path d="M995.99 532.291H988.925V540.204H995.99V532.291Z" stroke="black" stroke-width="0.755906" stroke-miterlimit="22.9256"/>
<path d="M1005.74 387.263H995.99V533.407H1005.74V387.263Z" stroke="black" stroke-width="0.755906" stroke-miterlimit="22.9256"/>
<path d="M995.99 538.984H965.128V653.509H995.99V538.984Z" fill="black"/>
<path d="M1006.4 533.406H995.99V659.086H1006.4V533.406Z" fill="black"/>
<path d="M990.096 653.945H966.298V811.975H990.096V653.945Z" stroke="black" stroke-width="0.755906" stroke-miterlimit="22.9256"/>
<path d="M995.99 653.509H990.096V660.202H995.99V653.509Z" stroke="black" stroke-width="0.755906" stroke-miterlimit="22.9256"/>
<path d="M996.998 660.034H990.305V804.305H996.998V660.034Z" stroke="black" stroke-width="0.755906" stroke-miterlimit="22.9256"/>
<path d="M1005.95 659.926H997.67V806.428H1005.95V659.926Z" stroke="black" stroke-width="0.755906" stroke-miterlimit="22.9256"/>
<path d="M995.99 811.538H965.128V930.153H995.99V811.538Z" fill="black"/>
<path d="M1006.4 804.081H995.99V935.73H1006.4V804.081Z" fill="black"/>
<path d="M1007.7 183.512H994.688V386.904H1007.7V183.512Z" fill="black"/>
<path fill-rule="evenodd" clip-rule="evenodd" d="M676.958 583.233H685.138V627.109H667.29V625.993V583.233V500.686H676.958V583.233Z" fill="black"/>
<path d="M969.281 559.249H675.283V569.846H969.281V559.249Z" fill="black"/>
<path d="M428.438 494.364H422.386C421.901 494.364 421.508 494.758 421.508 495.243V497.948C421.508 498.433 421.901 498.826 422.386 498.826H428.438C428.923 498.826 429.316 498.433 429.316 497.948V495.243C429.316 494.758 428.923 494.364 428.438 494.364Z" stroke="black" stroke-width="0.755906" stroke-miterlimit="22.9256" stroke-linecap="round" stroke-linejoin="round"/>
<path d="M421.508 1066.99H263.478V1084.46H421.508V1066.99Z" fill="black"/>
<path d="M281.573 1084.46H263.478V1216.65H281.573V1084.46Z" fill="black"/>
<path d="M1213.88 1198.62H280.955V1216.65H1213.88V1198.62Z" fill="black"/>
<path d="M1213.76 866.94H1006.4V887.207H1213.76V866.94Z" fill="black"/>
<path d="M1213.8 886.851H1148.73V905.683H1213.8V886.851Z" fill="black"/>
<path d="M1213.78 904.182H1203.93V1210.19H1213.78V904.182Z" fill="black"/>
<path d="M965.128 877.354H938.729V894.086H965.128V877.354Z" fill="black"/>
<path d="M988.021 929.483H966.224V1025.79H988.021V929.483Z" stroke="black" stroke-width="0.755906" stroke-miterlimit="22.9256"/>
<path d="M995.99 930.182H988.925V935.76H995.99V930.182Z" stroke="black" stroke-width="0.755906" stroke-miterlimit="22.9256"/>
<path d="M996.529 935.618H988.021V1019.65H996.529V935.618Z" stroke="black" stroke-width="0.755906" stroke-miterlimit="22.9256"/>
<path d="M996.529 1019.5H988.469V1026.19H996.529V1019.5Z" stroke="black" stroke-width="0.755906" stroke-miterlimit="22.9256"/>
<path d="M1005.5 934.243H996.529V1023.48H1005.5V934.243Z" stroke="black" stroke-width="0.755906" stroke-miterlimit="22.9256"/>
<path d="M995.99 1088.18H965.128V1198.62H995.99V1088.18Z" fill="black"/>
<path d="M995.033 1082.07H989.725C989.24 1082.07 988.847 1082.47 988.847 1082.95V1086.89C988.847 1087.38 989.24 1087.77 989.725 1087.77H995.033C995.518 1087.77 995.911 1087.38 995.911 1086.89V1082.95C995.911 1082.47 995.518 1082.07 995.033 1082.07Z" stroke="black" stroke-width="0.755906" stroke-miterlimit="22.9256" stroke-linecap="round"/>
<path d="M938.729 877.353H633.082V885.346H938.729V877.353Z" fill="black"/>
<path d="M1007.6 1082.23H995.99V1198.62H1007.6V1082.23Z" fill="black"/>
<path d="M1204.03 1188.21H1007.6V1198.62H1204.03V1188.21Z" fill="black"/>
<path fill-rule="evenodd" clip-rule="evenodd" d="M430.99 1166.01H437.786C438.269 1166.01 438.664 1166.4 438.664 1166.89V1201.71H430.111V1166.89C430.111 1166.4 430.507 1166.01 430.99 1166.01Z" fill="black"/>
<path d="M553.137 877.354H438.984V885.162H553.137V877.354Z" fill="black"/>
<path d="M557.194 877.353H554.015C553.53 877.353 553.137 877.746 553.137 878.231V885.434C553.137 885.919 553.53 886.313 554.015 886.313H557.194C557.679 886.313 558.072 885.919 558.072 885.434V878.231C558.072 877.746 557.679 877.353 557.194 877.353Z" stroke="black" stroke-width="0.755906" stroke-miterlimit="22.9256" stroke-linecap="round" stroke-linejoin="round"/>
<path fill-rule="evenodd" clip-rule="evenodd" d="M654.276 885.347H698.152V893.95C698.152 894.433 697.757 894.828 697.274 894.828H655.154C654.671 894.828 654.276 894.433 654.276 893.95V885.347Z" fill="black"/>
<path d="M675.098 707.053H667.29V877.353H675.098V707.053Z" fill="black"/>
<path d="M534.598 703H444.402C440.866 703 438 703.353 438 703.787V709.213C438 709.647 440.866 710 444.402 710H534.598C538.134 710 541 709.647 541 709.213V703.787C541 703.353 538.134 703 534.598 703Z" fill="black"/>
<path d="M540.809 720.341V703.878C540.809 703.393 540.415 703 539.93 703H533.878C533.393 703 533 703.393 533 703.878V720.341C533 720.826 533.393 721.22 533.878 721.22H539.93C540.415 721.22 540.809 720.826 540.809 720.341Z" fill="black"/>
<path d="M541 788H532V877H541V788Z" fill="black"/>
<path d="M995.154 1026.19H989.846C989.361 1026.19 988.968 1026.59 988.968 1027.07V1031.01C988.968 1031.5 989.361 1031.89 989.846 1031.89H995.154C995.639 1031.89 996.032 1031.5 996.032 1031.01V1027.07C996.032 1026.59 995.639 1026.19 995.154 1026.19Z" stroke="black" stroke-width="0.755906" stroke-miterlimit="22.9256" stroke-linecap="round"/>
<path d="M632.202 876.942H629.024C628.539 876.942 628.146 877.336 628.146 877.821V885.024C628.146 885.509 628.539 885.903 629.024 885.903H632.202C632.688 885.903 633.081 885.509 633.081 885.024V877.821C633.081 877.336 632.688 876.942 632.202 876.942Z" stroke="black" stroke-width="0.755906" stroke-miterlimit="22.9256" stroke-linecap="round" stroke-linejoin="round"/>
<path d="M428.11 578.264H422.059C421.573 578.264 421.18 578.657 421.18 579.142V581.847C421.18 582.333 421.573 582.726 422.059 582.726H428.11C428.595 582.726 428.989 582.333 428.989 581.847V579.142C428.989 578.657 428.595 578.264 428.11 578.264Z" stroke="black" stroke-width="0.755906" stroke-miterlimit="22.9256" stroke-linecap="round" stroke-linejoin="round"/>
<path d="M1299.04 1017.12H1213.73V1215.76H1299.04V1017.12Z" stroke="black" stroke-width="0.639874" stroke-miterlimit="22.9256"/>
<path d="M1213.59 1016.86L1298.9 1215.5" stroke="black" stroke-width="0.639874" stroke-miterlimit="22.9256"/>
<path d="M1299.04 1017.12L1215.82 1214.21" stroke="black" stroke-width="0.639874" stroke-miterlimit="22.9256"/>
<path d="M427.195 577.501C381.859 577.812 343.561 537.309 331.873 498.988C384.555 499.049 401.317 499.007 428.439 499.271" stroke="black" stroke-width="0.96" stroke-miterlimit="22.9256"/>
<path d="M668.515 421.317C713.851 421.006 752.149 461.509 763.837 499.83C711.155 499.768 694.393 499.81 667.271 499.547" stroke="black" stroke-width="0.96" stroke-miterlimit="22.9256"/>
<path d="M668.718 627.698C714.054 627.387 752.353 667.889 764.041 706.211C711.359 706.149 694.596 706.191 667.475 705.928" stroke="black" stroke-width="0.96" stroke-miterlimit="22.9256"/>
<path d="M558.073 878.678C557.687 924.013 580.407 962.746 627.855 974.434C627.779 921.752 627.831 904.99 627.504 877.868" stroke="black" stroke-width="0.96" stroke-miterlimit="22.9256"/>
<path d="M992.379 1082.07C952.377 1081.98 931.291 1070.62 909.449 1033.08C962.131 1033.14 966.03 1032.71 993.152 1032.97" stroke="black" stroke-width="0.96" stroke-miterlimit="22.9256"/>
<path fill-rule="evenodd" clip-rule="evenodd" d="M656.042 1090.7H743.228C746.476 1090.7 749.109 1093.33 749.109 1096.58L749.109 1184.91C749.109 1188.16 746.476 1190.79 743.228 1190.79L656.042 1190.79C652.795 1190.79 650.161 1188.16 650.161 1184.91L650.161 1096.58C650.161 1093.33 652.795 1090.7 656.042 1090.7L656.042 1090.7Z" stroke="black" stroke-width="1.00006" stroke-miterlimit="22.9256" stroke-linecap="round" stroke-linejoin="round"/>
<path d="M740.244 1104.71H659.027V1176.78H740.244V1104.71Z" stroke="black" stroke-width="1.00006" stroke-miterlimit="22.9256" stroke-linecap="round" stroke-linejoin="round"/>
<path d="M718.51 1125.88C721.984 1125.88 724.801 1123.06 724.801 1119.58C724.801 1116.11 721.984 1113.29 718.51 1113.29C715.035 1113.29 712.218 1116.11 712.218 1119.58C712.218 1123.06 715.035 1125.88 718.51 1125.88Z" stroke="black" stroke-width="1.00006" stroke-miterlimit="22.9256"/>
<path d="M904.4 1090.15H801.483V1189.52H904.4V1090.15Z" stroke="black" stroke-width="1.00006" stroke-miterlimit="22.9256" stroke-linejoin="round"/>
<path d="M878.868 1124.75C886.074 1124.75 891.917 1118.91 891.917 1111.7C891.917 1104.49 886.074 1098.65 878.868 1098.65C871.661 1098.65 865.818 1104.49 865.818 1111.7C865.818 1118.91 871.661 1124.75 878.868 1124.75Z" stroke="black" stroke-width="0.639874" stroke-miterlimit="22.9256" stroke-linejoin="round"/>
<path d="M879.489 1095.87H878.51V1129.14H879.489V1095.87Z" fill="black"/>
<path d="M895.098 1112.86V1111.88L861.829 1111.88V1112.86L895.098 1112.86Z" fill="black"/>
<path d="M828.97 1125.01C836.176 1125.01 842.019 1119.17 842.019 1111.96C842.019 1104.75 836.176 1098.91 828.97 1098.91C821.763 1098.91 815.92 1104.75 815.92 1111.96C815.92 1119.17 821.763 1125.01 828.97 1125.01Z" stroke="black" stroke-width="0.639874" stroke-miterlimit="22.9256" stroke-linejoin="round"/>
<path d="M829.91 1095.43H828.931V1128.7H829.91V1095.43Z" fill="black"/>
<path d="M845.272 1112.55V1111.57L812.004 1111.57V1112.55L845.272 1112.55Z" fill="black"/>
<path d="M829.292 1177.45C836.499 1177.45 842.341 1171.6 842.341 1164.4C842.341 1157.19 836.499 1151.35 829.292 1151.35C822.085 1151.35 816.243 1157.19 816.243 1164.4C816.243 1171.6 822.085 1177.45 829.292 1177.45Z" stroke="black" stroke-width="0.639874" stroke-miterlimit="22.9256" stroke-linejoin="round"/>
<path d="M830.232 1147.87H829.253V1181.14H830.232V1147.87Z" fill="black"/>
<path d="M846.376 1164.99V1164.02L813.107 1164.02V1164.99L846.376 1164.99Z" fill="black"/>
<path d="M878.868 1176.6C886.074 1176.6 891.917 1170.75 891.917 1163.55C891.917 1156.34 886.074 1150.5 878.868 1150.5C871.661 1150.5 865.818 1156.34 865.818 1163.55C865.818 1170.75 871.661 1176.6 878.868 1176.6Z" stroke="black" stroke-width="0.639874" stroke-miterlimit="22.9256" stroke-linejoin="round"/>
<path d="M879.518 1147.12H878.539V1180.39H879.518V1147.12Z" fill="black"/>
<path d="M894.769 1164.14V1163.17L861.5 1163.17V1164.14L894.769 1164.14Z" fill="black"/>
<path d="M504.082 829.849L502.929 840.241" stroke="black" stroke-width="1.00006" stroke-miterlimit="22.9256"/>
<path d="M468.363 830.265L469.519 840.653" stroke="black" stroke-width="1.00006" stroke-miterlimit="22.9256"/>
<path d="M520.796 877.248C520.796 869.014 520.798 860.779 520.798 852.545C520.815 846.404 517.633 841.963 509.829 840.136C495.943 840.232 482.055 840.329 468.169 840.426C457.303 839.859 452.784 844.565 452.112 852.545V877.639" stroke="black" stroke-width="1.00006" stroke-miterlimit="22.9256"/>
<path fill-rule="evenodd" clip-rule="evenodd" d="M460.375 809.085C459.032 817.287 460.884 824.4 467.59 829.864C480.846 834.919 492.902 834.625 503.953 829.862C509.863 825.006 512.621 818.669 511.877 810.684C510.715 798.763 506.418 787.19 497.025 776.186C490.461 769.511 483.035 768.964 474.516 776.186C466.805 785.768 462.22 796.794 460.375 809.085Z" stroke="black" stroke-width="1.00006" stroke-miterlimit="22.9256"/>
<path d="M667.554 198.724H590.75V370.679H667.554V198.724Z" stroke="black" stroke-width="1.00006" stroke-miterlimit="22.9256"/>
<path fill-rule="evenodd" clip-rule="evenodd" d="M599.522 339.173C597.905 301.405 598.953 264.081 598.668 226.534C598.479 213.394 598.964 206.686 612.873 206.899C624.385 206.899 635.895 206.899 647.407 206.899C657.181 206.778 660.858 209.701 660.111 226.062C659.827 263.765 660.432 301.469 659.259 339.173C655.66 369.117 604.894 372.159 599.522 339.173Z" stroke="black" stroke-width="1.00006" stroke-miterlimit="22.9256"/>
<path d="M629.784 222.015C631.75 222.015 633.344 220.421 633.344 218.456C633.344 216.49 631.75 214.896 629.784 214.896C627.818 214.896 626.225 216.49 626.225 218.456C626.225 220.421 627.818 222.015 629.784 222.015Z" stroke="black" stroke-width="0.755906" stroke-miterlimit="22.9256"/>
<path d="M1081.91 1133.41L1094 1109.48V1109.27H1080.06V1106.36H1097.38V1109.43L1085.34 1133.41H1081.91ZM1099.98 1133.62C1099.33 1133.62 1098.77 1133.38 1098.3 1132.92C1097.84 1132.45 1097.6 1131.89 1097.6 1131.24C1097.6 1130.59 1097.84 1130.03 1098.3 1129.56C1098.77 1129.1 1099.33 1128.86 1099.98 1128.86C1100.63 1128.86 1101.19 1129.1 1101.66 1129.56C1102.12 1130.03 1102.36 1130.59 1102.36 1131.24C1102.36 1131.67 1102.25 1132.07 1102.03 1132.43C1101.82 1132.79 1101.53 1133.08 1101.17 1133.3C1100.82 1133.51 1100.42 1133.62 1099.98 1133.62ZM1115.93 1133.77C1114.82 1133.76 1113.71 1133.55 1112.6 1133.14C1111.49 1132.74 1110.48 1132.05 1109.57 1131.09C1108.65 1130.13 1107.92 1128.82 1107.36 1127.17C1106.81 1125.52 1106.53 1123.44 1106.53 1120.94C1106.53 1118.55 1106.75 1116.42 1107.2 1114.58C1107.65 1112.72 1108.3 1111.16 1109.16 1109.89C1110.01 1108.61 1111.04 1107.64 1112.25 1106.98C1113.46 1106.32 1114.83 1105.99 1116.35 1105.99C1117.87 1105.99 1119.21 1106.3 1120.39 1106.9C1121.58 1107.5 1122.55 1108.34 1123.3 1109.41C1124.05 1110.49 1124.53 1111.72 1124.75 1113.12H1121.53C1121.23 1111.91 1120.65 1110.9 1119.79 1110.1C1118.92 1109.3 1117.78 1108.9 1116.35 1108.9C1114.26 1108.9 1112.61 1109.81 1111.4 1111.63C1110.2 1113.45 1109.6 1116.01 1109.59 1119.3H1109.8C1110.3 1118.55 1110.88 1117.92 1111.56 1117.39C1112.25 1116.85 1113 1116.44 1113.83 1116.15C1114.66 1115.86 1115.53 1115.71 1116.46 1115.71C1118.01 1115.71 1119.43 1116.1 1120.71 1116.87C1122 1117.64 1123.03 1118.7 1123.8 1120.06C1124.58 1121.4 1124.96 1122.95 1124.96 1124.69C1124.96 1126.36 1124.59 1127.89 1123.84 1129.29C1123.09 1130.67 1122.04 1131.77 1120.68 1132.59C1119.34 1133.4 1117.75 1133.79 1115.93 1133.77ZM1115.93 1130.87C1117.04 1130.87 1118.03 1130.59 1118.92 1130.04C1119.8 1129.48 1120.5 1128.74 1121.01 1127.81C1121.53 1126.87 1121.79 1125.83 1121.79 1124.69C1121.79 1123.57 1121.54 1122.56 1121.04 1121.64C1120.55 1120.72 1119.87 1119.98 1118.99 1119.44C1118.13 1118.89 1117.15 1118.62 1116.04 1118.62C1115.2 1118.62 1114.42 1118.78 1113.7 1119.12C1112.98 1119.44 1112.34 1119.89 1111.8 1120.47C1111.26 1121.04 1110.84 1121.69 1110.53 1122.43C1110.22 1123.16 1110.07 1123.93 1110.07 1124.74C1110.07 1125.82 1110.32 1126.82 1110.82 1127.75C1111.33 1128.69 1112.03 1129.44 1112.91 1130.01C1113.8 1130.58 1114.8 1130.87 1115.93 1130.87ZM1138.98 1133.77C1136.99 1133.77 1135.29 1133.23 1133.89 1132.15C1132.49 1131.06 1131.42 1129.48 1130.68 1127.41C1129.94 1125.33 1129.57 1122.82 1129.57 1119.88C1129.57 1116.96 1129.94 1114.47 1130.68 1112.4C1131.43 1110.32 1132.51 1108.74 1133.91 1107.64C1135.31 1106.54 1137 1105.99 1138.98 1105.99C1140.95 1105.99 1142.63 1106.54 1144.03 1107.64C1145.44 1108.74 1146.52 1110.32 1147.25 1112.4C1148 1114.47 1148.38 1116.96 1148.38 1119.88C1148.38 1122.82 1148.01 1125.33 1147.27 1127.41C1146.53 1129.48 1145.46 1131.06 1144.06 1132.15C1142.66 1133.23 1140.96 1133.77 1138.98 1133.77ZM1138.98 1130.87C1140.95 1130.87 1142.48 1129.92 1143.57 1128.02C1144.66 1126.12 1145.21 1123.41 1145.21 1119.88C1145.21 1117.54 1144.96 1115.55 1144.46 1113.9C1143.96 1112.26 1143.25 1111 1142.32 1110.14C1141.39 1109.28 1140.28 1108.85 1138.98 1108.85C1137.02 1108.85 1135.49 1109.81 1134.39 1111.74C1133.29 1113.66 1132.74 1116.37 1132.74 1119.88C1132.74 1122.23 1132.99 1124.22 1133.48 1125.85C1133.98 1127.49 1134.68 1128.74 1135.61 1129.59C1136.54 1130.44 1137.66 1130.87 1138.98 1130.87Z" fill="black"/>
<path d="M866.128 482.944V509.986H862.853V486.377H862.695L856.092 490.761V487.434L862.853 482.944H866.128ZM883.042 510.356C881.299 510.356 879.746 510.057 878.381 509.458C877.025 508.86 875.947 508.028 875.146 506.963C874.354 505.889 873.922 504.643 873.852 503.226H877.179C877.25 504.097 877.549 504.85 878.077 505.484C878.606 506.109 879.297 506.593 880.15 506.936C881.004 507.279 881.951 507.451 882.989 507.451C884.151 507.451 885.181 507.249 886.079 506.844C886.977 506.439 887.681 505.875 888.192 505.154C888.702 504.432 888.958 503.596 888.958 502.645C888.958 501.65 888.711 500.774 888.218 500.017C887.725 499.251 887.003 498.653 886.053 498.221C885.102 497.79 883.94 497.574 882.567 497.574H880.401V494.669H882.567C883.641 494.669 884.583 494.476 885.393 494.088C886.211 493.701 886.849 493.155 887.307 492.451C887.774 491.747 888.007 490.919 888.007 489.969C888.007 489.053 887.804 488.257 887.4 487.579C886.995 486.901 886.422 486.373 885.683 485.994C884.952 485.616 884.09 485.427 883.095 485.427C882.162 485.427 881.282 485.598 880.454 485.942C879.635 486.276 878.966 486.765 878.447 487.407C877.928 488.041 877.646 488.807 877.602 489.705H874.433C874.486 488.287 874.913 487.046 875.714 485.981C876.515 484.907 877.562 484.071 878.856 483.472C880.159 482.874 881.59 482.574 883.148 482.574C884.82 482.574 886.255 482.913 887.452 483.591C888.65 484.26 889.569 485.145 890.212 486.245C890.855 487.346 891.176 488.534 891.176 489.81C891.176 491.333 890.775 492.632 889.974 493.706C889.182 494.78 888.104 495.523 886.739 495.937V496.148C888.447 496.43 889.781 497.156 890.74 498.327C891.7 499.489 892.179 500.928 892.179 502.645C892.179 504.115 891.779 505.435 890.978 506.606C890.186 507.768 889.103 508.684 887.73 509.353C886.356 510.022 884.794 510.356 883.042 510.356ZM899.069 510.198C898.417 510.198 897.858 509.964 897.392 509.498C896.925 509.031 896.692 508.472 896.692 507.821C896.692 507.169 896.925 506.61 897.392 506.144C897.858 505.677 898.417 505.444 899.069 505.444C899.72 505.444 900.279 505.677 900.746 506.144C901.212 506.61 901.445 507.169 901.445 507.821C901.445 508.252 901.335 508.648 901.115 509.009C900.904 509.37 900.618 509.661 900.257 509.881C899.905 510.092 899.509 510.198 899.069 510.198ZM906.351 504.441V501.747L918.235 482.944H920.189V487.117H918.868L909.89 501.324V501.536H925.893V504.441H906.351ZM919.08 509.986V503.622V502.368V482.944H922.196V509.986H919.08ZM939.662 510.356C937.672 510.356 935.978 509.815 934.578 508.732C933.178 507.64 932.109 506.06 931.369 503.992C930.63 501.914 930.26 499.405 930.26 496.465C930.26 493.543 930.63 491.047 931.369 488.978C932.118 486.901 933.192 485.317 934.591 484.225C936 483.125 937.69 482.574 939.662 482.574C941.634 482.574 943.319 483.125 944.719 484.225C946.127 485.317 947.201 486.901 947.941 488.978C948.689 491.047 949.063 493.543 949.063 496.465C949.063 499.405 948.693 501.914 947.954 503.992C947.215 506.06 946.145 507.64 944.745 508.732C943.346 509.815 941.651 510.356 939.662 510.356ZM939.662 507.451C941.634 507.451 943.165 506.5 944.257 504.599C945.348 502.698 945.894 499.986 945.894 496.465C945.894 494.124 945.643 492.13 945.141 490.484C944.648 488.838 943.935 487.583 943.002 486.721C942.078 485.858 940.965 485.427 939.662 485.427C937.707 485.427 936.18 486.39 935.08 488.318C933.98 490.237 933.429 492.953 933.429 496.465C933.429 498.807 933.676 500.796 934.169 502.434C934.662 504.071 935.37 505.316 936.295 506.17C937.228 507.024 938.35 507.451 939.662 507.451Z" fill="black"/>
<path d="M830.037 809.208V836.25H826.762V812.641H826.604L820.002 817.025V813.697L826.762 809.208H830.037ZM847.321 809.208V836.25H844.046V812.641H843.888L837.286 817.025V813.697L844.046 809.208H847.321ZM855.825 836.461C855.173 836.461 854.614 836.228 854.148 835.761C853.681 835.295 853.448 834.736 853.448 834.085C853.448 833.433 853.681 832.874 854.148 832.408C854.614 831.941 855.173 831.708 855.825 831.708C856.476 831.708 857.035 831.941 857.501 832.408C857.968 832.874 858.201 833.433 858.201 834.085C858.201 834.516 858.091 834.912 857.871 835.273C857.66 835.634 857.374 835.924 857.013 836.144C856.661 836.356 856.265 836.461 855.825 836.461ZM871.646 836.62C870.097 836.62 868.702 836.312 867.461 835.695C866.22 835.079 865.225 834.234 864.477 833.16C863.728 832.086 863.319 830.863 863.249 829.489H866.418C866.541 830.713 867.095 831.725 868.081 832.526C869.076 833.319 870.264 833.715 871.646 833.715C872.756 833.715 873.742 833.455 874.604 832.936C875.476 832.416 876.158 831.703 876.651 830.797C877.153 829.881 877.403 828.847 877.403 827.694C877.403 826.514 877.144 825.462 876.624 824.538C876.114 823.605 875.41 822.87 874.512 822.333C873.614 821.796 872.588 821.523 871.435 821.514C870.608 821.505 869.758 821.633 868.887 821.897C868.015 822.152 867.298 822.482 866.735 822.887L863.671 822.518L865.308 809.208H879.358V812.113H868.055L867.104 820.088H867.263C867.817 819.648 868.513 819.283 869.349 818.992C870.185 818.702 871.057 818.556 871.963 818.556C873.618 818.556 875.093 818.953 876.387 819.745C877.69 820.528 878.711 821.602 879.45 822.967C880.198 824.331 880.572 825.889 880.572 827.641C880.572 829.366 880.185 830.907 879.411 832.262C878.645 833.609 877.588 834.674 876.242 835.458C874.895 836.232 873.363 836.62 871.646 836.62ZM894.638 836.62C892.649 836.62 890.954 836.078 889.555 834.996C888.155 833.904 887.085 832.324 886.346 830.255C885.607 828.178 885.237 825.669 885.237 822.729C885.237 819.806 885.607 817.311 886.346 815.242C887.094 813.165 888.168 811.58 889.568 810.489C890.976 809.388 892.666 808.838 894.638 808.838C896.61 808.838 898.296 809.388 899.695 810.489C901.104 811.58 902.178 813.165 902.917 815.242C903.666 817.311 904.04 819.806 904.04 822.729C904.04 825.669 903.67 828.178 902.93 830.255C902.191 832.324 901.122 833.904 899.722 834.996C898.322 836.078 896.628 836.62 894.638 836.62ZM894.638 833.715C896.61 833.715 898.142 832.764 899.233 830.863C900.325 828.961 900.871 826.25 900.871 822.729C900.871 820.387 900.62 818.394 900.118 816.747C899.625 815.101 898.912 813.847 897.979 812.984C897.055 812.122 895.941 811.69 894.638 811.69C892.684 811.69 891.157 812.654 890.056 814.582C888.956 816.501 888.406 819.217 888.406 822.729C888.406 825.07 888.652 827.06 889.145 828.697C889.638 830.335 890.347 831.58 891.271 832.434C892.204 833.288 893.327 833.715 894.638 833.715Z" fill="black"/>
<path d="M493.175 198.813C493.45 227.914 484.566 255.056 520.191 258.808C531.792 259.765 542.865 259.356 554.256 257.757C583.43 251.282 574.27 226.205 574.758 198.386" stroke="black" stroke-width="1.00006" stroke-miterlimit="22.9256" stroke-linecap="round" stroke-linejoin="round"/>
<path fill-rule="evenodd" clip-rule="evenodd" d="M497.682 220.247C497.601 216.408 500.461 212.699 503.638 210.944C524.804 210.944 544.959 210.944 566.125 210.944C569.114 211.603 569.785 213.674 570.797 218.165C571.69 231.246 570.658 246.66 556.328 251.008C544.577 251.079 530.731 251.01 518.98 251.081C500.609 249.266 498.487 236.085 497.682 220.247Z" stroke="black" stroke-width="1.00006" stroke-miterlimit="22.9256"/>
<path d="M534.768 221.129C537.073 221.129 538.943 219.259 538.943 216.954C538.943 214.648 537.073 212.778 534.768 212.778C532.462 212.778 530.592 214.648 530.592 216.954C530.592 219.259 532.462 221.129 534.768 221.129Z" stroke="black" stroke-width="1.11118" stroke-miterlimit="22.9256"/>
<path fill-rule="evenodd" clip-rule="evenodd" d="M507.347 218.374C507.29 215.308 509.332 212.345 511.601 210.944C526.713 210.944 541.104 210.944 556.216 210.944C558.35 211.47 558.829 213.124 559.552 216.711C562.225 248.943 543.462 242.859 522.555 243C508.863 242.746 507.347 230.473 507.347 218.374Z" stroke="black" stroke-width="1.00006" stroke-miterlimit="22.9256"/>
<path d="M500.672 894.208H447.139V930.365H500.672V894.208Z" stroke="black" stroke-width="5.12013" stroke-miterlimit="22.9256" stroke-linecap="round" stroke-linejoin="round"/>
<path d="M496.185 895.962H485.201V927.327H496.185V895.962Z" stroke="black" stroke-width="5.12013" stroke-miterlimit="22.9256"/>
<path d="M467.342 894.509V930.666" stroke="black" stroke-width="2.00013" stroke-miterlimit="22.9256"/>
<path d="M450.326 912.287H483.202" stroke="black" stroke-width="2.00013" stroke-miterlimit="22.9256"/>
<path d="M499.39 311.587H438.984V366.633H499.39V311.587Z" stroke="black" stroke-width="1.28013" stroke-miterlimit="22.9256"/>
<path d="M504.777 318.822H499.39V359.076H504.777V318.822Z" stroke="black" stroke-width="0.755906" stroke-miterlimit="22.9256"/>
<path d="M519.193 313.581C517.644 313.581 516.249 313.273 515.008 312.657C513.766 312.041 512.772 311.196 512.023 310.122C511.275 309.048 510.866 307.824 510.795 306.451H513.964C514.088 307.674 514.642 308.687 515.628 309.488C516.623 310.28 517.811 310.676 519.193 310.676C520.302 310.676 521.288 310.417 522.151 309.897C523.023 309.378 523.705 308.665 524.198 307.758C524.699 306.843 524.95 305.808 524.95 304.655C524.95 303.476 524.691 302.424 524.171 301.499C523.661 300.566 522.957 299.831 522.059 299.294C521.161 298.757 520.135 298.484 518.982 298.476C518.155 298.467 517.305 298.594 516.434 298.858C515.562 299.114 514.845 299.444 514.281 299.849L511.218 299.479L512.855 286.169H526.905V289.074H515.602L514.651 297.05H514.81C515.364 296.609 516.06 296.244 516.896 295.954C517.732 295.663 518.604 295.518 519.51 295.518C521.165 295.518 522.64 295.914 523.934 296.706C525.236 297.49 526.258 298.564 526.997 299.928C527.745 301.292 528.119 302.851 528.119 304.602C528.119 306.328 527.732 307.868 526.957 309.224C526.192 310.571 525.135 311.636 523.788 312.419C522.442 313.194 520.91 313.581 519.193 313.581ZM534.672 313.423C534.021 313.423 533.462 313.189 532.995 312.723C532.528 312.256 532.295 311.697 532.295 311.046C532.295 310.395 532.528 309.836 532.995 309.369C533.462 308.902 534.021 308.669 534.672 308.669C535.323 308.669 535.882 308.902 536.349 309.369C536.815 309.836 537.049 310.395 537.049 311.046C537.049 311.477 536.939 311.873 536.719 312.234C536.507 312.595 536.221 312.886 535.86 313.106C535.508 313.317 535.112 313.423 534.672 313.423ZM550.464 313.581C548.475 313.581 546.78 313.04 545.381 311.957C543.981 310.865 542.911 309.285 542.172 307.217C541.432 305.139 541.063 302.63 541.063 299.69C541.063 296.768 541.432 294.272 542.172 292.204C542.92 290.126 543.994 288.542 545.394 287.45C546.802 286.35 548.492 285.8 550.464 285.8C552.436 285.8 554.122 286.35 555.521 287.45C556.93 288.542 558.004 290.126 558.743 292.204C559.491 294.272 559.866 296.768 559.866 299.69C559.866 302.63 559.496 305.139 558.756 307.217C558.017 309.285 556.947 310.865 555.548 311.957C554.148 313.04 552.454 313.581 550.464 313.581ZM550.464 310.676C552.436 310.676 553.968 309.726 555.059 307.824C556.151 305.923 556.697 303.211 556.697 299.69C556.697 297.349 556.446 295.355 555.944 293.709C555.451 292.063 554.738 290.808 553.805 289.946C552.881 289.083 551.767 288.652 550.464 288.652C548.51 288.652 546.983 289.616 545.882 291.543C544.782 293.462 544.232 296.178 544.232 299.69C544.232 302.032 544.478 304.021 544.971 305.659C545.464 307.296 546.173 308.542 547.097 309.395C548.03 310.249 549.153 310.676 550.464 310.676ZM573.704 313.581C571.714 313.581 570.02 313.04 568.62 311.957C567.22 310.865 566.151 309.285 565.411 307.217C564.672 305.139 564.302 302.63 564.302 299.69C564.302 296.768 564.672 294.272 565.411 292.204C566.16 290.126 567.233 288.542 568.633 287.45C570.042 286.35 571.732 285.8 573.704 285.8C575.675 285.8 577.361 286.35 578.761 287.45C580.169 288.542 581.243 290.126 581.983 292.204C582.731 294.272 583.105 296.768 583.105 299.69C583.105 302.63 582.735 305.139 581.996 307.217C581.256 309.285 580.187 310.865 578.787 311.957C577.387 313.04 575.693 313.581 573.704 313.581ZM573.704 310.676C575.675 310.676 577.207 309.726 578.299 307.824C579.39 305.923 579.936 303.211 579.936 299.69C579.936 297.349 579.685 295.355 579.183 293.709C578.69 292.063 577.977 290.808 577.044 289.946C576.12 289.083 575.006 288.652 573.704 288.652C571.749 288.652 570.222 289.616 569.122 291.543C568.021 293.462 567.471 296.178 567.471 299.69C567.471 302.032 567.718 304.021 568.211 305.659C568.704 307.296 569.412 308.542 570.336 309.395C571.27 310.249 572.392 310.676 573.704 310.676Z" fill="black"/>
<path d="M450.433 751.671V749.295L459.359 739.524C460.407 738.379 461.269 737.384 461.947 736.539C462.625 735.686 463.127 734.884 463.452 734.136C463.787 733.379 463.954 732.587 463.954 731.759C463.954 730.809 463.725 729.986 463.268 729.29C462.819 728.595 462.202 728.058 461.419 727.679C460.636 727.301 459.755 727.112 458.778 727.112C457.739 727.112 456.833 727.327 456.058 727.759C455.292 728.181 454.698 728.775 454.275 729.541C453.862 730.307 453.655 731.205 453.655 732.235H450.539C450.539 730.65 450.904 729.259 451.635 728.062C452.365 726.865 453.36 725.932 454.619 725.263C455.886 724.594 457.308 724.259 458.884 724.259C460.468 724.259 461.872 724.594 463.096 725.263C464.319 725.932 465.279 726.834 465.974 727.97C466.67 729.105 467.018 730.369 467.018 731.759C467.018 732.754 466.837 733.727 466.476 734.678C466.124 735.619 465.508 736.671 464.628 737.833C463.756 738.987 462.546 740.395 460.996 742.059L454.923 748.555V748.766H467.493V751.671H450.433ZM475.27 751.883C474.619 751.883 474.06 751.649 473.593 751.183C473.127 750.716 472.893 750.157 472.893 749.506C472.893 748.854 473.127 748.296 473.593 747.829C474.06 747.362 474.619 747.129 475.27 747.129C475.922 747.129 476.481 747.362 476.947 747.829C477.414 748.296 477.647 748.854 477.647 749.506C477.647 749.937 477.537 750.333 477.317 750.694C477.106 751.055 476.819 751.346 476.459 751.566C476.106 751.777 475.71 751.883 475.27 751.883ZM491.062 752.041C489.073 752.041 487.378 751.5 485.979 750.417C484.579 749.325 483.51 747.745 482.77 745.677C482.031 743.599 481.661 741.09 481.661 738.15C481.661 735.228 482.031 732.732 482.77 730.664C483.518 728.586 484.592 727.002 485.992 725.91C487.4 724.81 489.091 724.259 491.062 724.259C493.034 724.259 494.72 724.81 496.12 725.91C497.528 727.002 498.602 728.586 499.341 730.664C500.09 732.732 500.464 735.228 500.464 738.15C500.464 741.09 500.094 743.599 499.355 745.677C498.615 747.745 497.546 749.325 496.146 750.417C494.746 751.5 493.052 752.041 491.062 752.041ZM491.062 749.136C493.034 749.136 494.566 748.185 495.657 746.284C496.749 744.383 497.295 741.671 497.295 738.15C497.295 735.809 497.044 733.815 496.542 732.169C496.049 730.523 495.336 729.268 494.403 728.406C493.479 727.543 492.365 727.112 491.062 727.112C489.108 727.112 487.581 728.076 486.481 730.003C485.38 731.922 484.83 734.638 484.83 738.15C484.83 740.492 485.076 742.481 485.569 744.119C486.062 745.756 486.771 747.002 487.695 747.855C488.628 748.709 489.751 749.136 491.062 749.136ZM514.302 752.041C512.312 752.041 510.618 751.5 509.218 750.417C507.818 749.325 506.749 747.745 506.01 745.677C505.27 743.599 504.9 741.09 504.9 738.15C504.9 735.228 505.27 732.732 506.01 730.664C506.758 728.586 507.832 727.002 509.231 725.91C510.64 724.81 512.33 724.259 514.302 724.259C516.274 724.259 517.959 724.81 519.359 725.91C520.767 727.002 521.841 728.586 522.581 730.664C523.329 732.732 523.703 735.228 523.703 738.15C523.703 741.09 523.333 743.599 522.594 745.677C521.855 747.745 520.785 749.325 519.385 750.417C517.986 751.5 516.291 752.041 514.302 752.041ZM514.302 749.136C516.274 749.136 517.805 748.185 518.897 746.284C519.988 744.383 520.534 741.671 520.534 738.15C520.534 735.809 520.283 733.815 519.781 732.169C519.289 730.523 518.575 729.268 517.642 728.406C516.718 727.543 515.605 727.112 514.302 727.112C512.348 727.112 510.82 728.076 509.72 730.003C508.62 731.922 508.069 734.638 508.069 738.15C508.069 740.492 508.316 742.481 508.809 744.119C509.302 745.756 510.01 747.002 510.935 747.855C511.868 748.709 512.99 749.136 514.302 749.136Z" fill="black"/>
<path d="M680.649 1009.41V1007.03L689.575 997.263C690.623 996.118 691.486 995.124 692.163 994.279C692.841 993.425 693.343 992.624 693.669 991.875C694.003 991.118 694.17 990.326 694.17 989.499C694.17 988.548 693.942 987.725 693.484 987.03C693.035 986.334 692.419 985.797 691.635 985.419C690.852 985.04 689.972 984.851 688.994 984.851C687.956 984.851 687.049 985.067 686.274 985.498C685.509 985.92 684.914 986.515 684.492 987.28C684.078 988.046 683.871 988.944 683.871 989.974H680.755C680.755 988.39 681.12 986.999 681.851 985.802C682.582 984.604 683.576 983.671 684.835 983.002C686.103 982.333 687.524 981.999 689.1 981.999C690.685 981.999 692.089 982.333 693.312 983.002C694.536 983.671 695.495 984.574 696.191 985.709C696.886 986.845 697.234 988.108 697.234 989.499C697.234 990.493 697.053 991.466 696.692 992.417C696.34 993.359 695.724 994.411 694.844 995.573C693.972 996.726 692.762 998.134 691.213 999.798L685.139 1006.29V1006.51H697.709V1009.41H680.649ZM712.67 982.368V1009.41H709.395V985.802H709.236L702.634 990.185V986.858L709.395 982.368H712.67ZM721.173 1009.62C720.522 1009.62 719.963 1009.39 719.496 1008.92C719.03 1008.46 718.796 1007.9 718.796 1007.25C718.796 1006.59 719.03 1006.03 719.496 1005.57C719.963 1005.1 720.522 1004.87 721.173 1004.87C721.824 1004.87 722.383 1005.1 722.85 1005.57C723.317 1006.03 723.55 1006.59 723.55 1007.25C723.55 1007.68 723.44 1008.07 723.22 1008.43C723.008 1008.79 722.722 1009.08 722.361 1009.31C722.009 1009.52 721.613 1009.62 721.173 1009.62ZM736.965 1009.78C734.976 1009.78 733.281 1009.24 731.882 1008.16C730.482 1007.06 729.412 1005.48 728.673 1003.42C727.934 1001.34 727.564 998.83 727.564 995.89C727.564 992.967 727.934 990.471 728.673 988.403C729.421 986.325 730.495 984.741 731.895 983.649C733.303 982.549 734.993 981.999 736.965 981.999C738.937 981.999 740.623 982.549 742.022 983.649C743.431 984.741 744.505 986.325 745.244 988.403C745.993 990.471 746.367 992.967 746.367 995.89C746.367 998.83 745.997 1001.34 745.257 1003.42C744.518 1005.48 743.448 1007.06 742.049 1008.16C740.649 1009.24 738.955 1009.78 736.965 1009.78ZM736.965 1006.88C738.937 1006.88 740.469 1005.92 741.56 1004.02C742.652 1002.12 743.198 999.411 743.198 995.89C743.198 993.548 742.947 991.554 742.445 989.908C741.952 988.262 741.239 987.008 740.306 986.145C739.382 985.282 738.268 984.851 736.965 984.851C735.011 984.851 733.484 985.815 732.383 987.743C731.283 989.662 730.733 992.377 730.733 995.89C730.733 998.231 730.979 1000.22 731.472 1001.86C731.965 1003.5 732.674 1004.74 733.598 1005.59C734.531 1006.45 735.654 1006.88 736.965 1006.88ZM760.205 1009.78C758.215 1009.78 756.521 1009.24 755.121 1008.16C753.721 1007.06 752.652 1005.48 751.912 1003.42C751.173 1001.34 750.803 998.83 750.803 995.89C750.803 992.967 751.173 990.471 751.912 988.403C752.661 986.325 753.735 984.741 755.134 983.649C756.543 982.549 758.233 981.999 760.205 981.999C762.176 981.999 763.862 982.549 765.262 983.649C766.67 984.741 767.744 986.325 768.484 988.403C769.232 990.471 769.606 992.967 769.606 995.89C769.606 998.83 769.236 1001.34 768.497 1003.42C767.757 1005.48 766.688 1007.06 765.288 1008.16C763.889 1009.24 762.194 1009.78 760.205 1009.78ZM760.205 1006.88C762.176 1006.88 763.708 1005.92 764.8 1004.02C765.891 1002.12 766.437 999.411 766.437 995.89C766.437 993.548 766.186 991.554 765.684 989.908C765.191 988.262 764.478 987.008 763.545 986.145C762.621 985.282 761.507 984.851 760.205 984.851C758.25 984.851 756.723 985.815 755.623 987.743C754.522 989.662 753.972 992.377 753.972 995.89C753.972 998.231 754.219 1000.22 754.712 1001.86C755.205 1003.5 755.913 1004.74 756.838 1005.59C757.771 1006.45 758.893 1006.88 760.205 1006.88Z" fill="black"/>
<path d="M323.443 1155.96V1153.59L332.369 1143.81C333.417 1142.67 334.28 1141.67 334.957 1140.83C335.635 1139.98 336.137 1139.17 336.463 1138.43C336.797 1137.67 336.964 1136.88 336.964 1136.05C336.964 1135.1 336.736 1134.28 336.278 1133.58C335.829 1132.89 335.213 1132.35 334.429 1131.97C333.646 1131.59 332.765 1131.4 331.788 1131.4C330.75 1131.4 329.843 1131.62 329.068 1132.05C328.302 1132.47 327.708 1133.07 327.286 1133.83C326.872 1134.6 326.665 1135.5 326.665 1136.53H323.549C323.549 1134.94 323.914 1133.55 324.645 1132.35C325.376 1131.16 326.37 1130.22 327.629 1129.55C328.897 1128.88 330.318 1128.55 331.894 1128.55C333.479 1128.55 334.883 1128.88 336.106 1129.55C337.33 1130.22 338.289 1131.12 338.985 1132.26C339.68 1133.4 340.028 1134.66 340.028 1136.05C340.028 1137.04 339.847 1138.02 339.486 1138.97C339.134 1139.91 338.518 1140.96 337.638 1142.12C336.766 1143.28 335.556 1144.69 334.007 1146.35L327.933 1152.85V1153.06H340.503V1155.96H323.443ZM348.28 1156.17C347.629 1156.17 347.07 1155.94 346.603 1155.47C346.137 1155.01 345.904 1154.45 345.904 1153.8C345.904 1153.15 346.137 1152.59 346.603 1152.12C347.07 1151.65 347.629 1151.42 348.28 1151.42C348.932 1151.42 349.491 1151.65 349.957 1152.12C350.424 1152.59 350.657 1153.15 350.657 1153.8C350.657 1154.23 350.547 1154.62 350.327 1154.98C350.116 1155.35 349.83 1155.64 349.469 1155.86C349.117 1156.07 348.721 1156.17 348.28 1156.17ZM364.231 1156.33C363.122 1156.31 362.013 1156.1 360.904 1155.7C359.794 1155.29 358.782 1154.61 357.867 1153.65C356.951 1152.68 356.216 1151.38 355.662 1149.73C355.107 1148.07 354.83 1146 354.83 1143.5C354.83 1141.1 355.054 1138.98 355.503 1137.13C355.952 1135.28 356.603 1133.71 357.457 1132.45C358.311 1131.17 359.341 1130.2 360.547 1129.54C361.762 1128.88 363.131 1128.55 364.654 1128.55C366.168 1128.55 367.515 1128.85 368.694 1129.46C369.882 1130.06 370.851 1130.9 371.599 1131.97C372.347 1133.04 372.831 1134.28 373.051 1135.68H369.83C369.53 1134.47 368.949 1133.46 368.087 1132.66C367.224 1131.86 366.08 1131.45 364.654 1131.45C362.559 1131.45 360.908 1132.37 359.702 1134.19C358.505 1136.01 357.902 1138.57 357.893 1141.86H358.104C358.597 1141.11 359.183 1140.47 359.86 1139.95C360.547 1139.41 361.304 1138.99 362.132 1138.7C362.959 1138.41 363.835 1138.27 364.759 1138.27C366.309 1138.27 367.726 1138.66 369.011 1139.43C370.296 1140.2 371.326 1141.26 372.101 1142.61C372.875 1143.96 373.263 1145.5 373.263 1147.25C373.263 1148.92 372.889 1150.45 372.14 1151.84C371.392 1153.22 370.34 1154.32 368.985 1155.14C367.638 1155.95 366.053 1156.35 364.231 1156.33ZM364.231 1153.43C365.34 1153.43 366.335 1153.15 367.215 1152.59C368.104 1152.04 368.804 1151.3 369.315 1150.36C369.834 1149.43 370.094 1148.39 370.094 1147.25C370.094 1146.13 369.843 1145.11 369.341 1144.2C368.848 1143.27 368.166 1142.54 367.294 1141.99C366.432 1141.45 365.446 1141.17 364.337 1141.17C363.5 1141.17 362.721 1141.34 362 1141.67C361.278 1142 360.644 1142.45 360.098 1143.02C359.561 1143.59 359.139 1144.25 358.831 1144.99C358.522 1145.72 358.368 1146.49 358.368 1147.3C358.368 1148.37 358.619 1149.38 359.121 1150.31C359.632 1151.24 360.327 1152 361.207 1152.57C362.096 1153.14 363.104 1153.43 364.231 1153.43ZM387.276 1156.33C385.286 1156.33 383.592 1155.79 382.192 1154.71C380.792 1153.62 379.723 1152.04 378.983 1149.97C378.244 1147.89 377.874 1145.38 377.874 1142.44C377.874 1139.52 378.244 1137.02 378.983 1134.95C379.732 1132.88 380.806 1131.29 382.205 1130.2C383.614 1129.1 385.304 1128.55 387.276 1128.55C389.248 1128.55 390.933 1129.1 392.333 1130.2C393.741 1131.29 394.815 1132.88 395.555 1134.95C396.303 1137.02 396.677 1139.52 396.677 1142.44C396.677 1145.38 396.307 1147.89 395.568 1149.97C394.828 1152.04 393.759 1153.62 392.359 1154.71C390.96 1155.79 389.265 1156.33 387.276 1156.33ZM387.276 1153.43C389.248 1153.43 390.779 1152.48 391.871 1150.57C392.962 1148.67 393.508 1145.96 393.508 1142.44C393.508 1140.1 393.257 1138.11 392.755 1136.46C392.262 1134.81 391.549 1133.56 390.616 1132.7C389.692 1131.83 388.578 1131.4 387.276 1131.4C385.321 1131.4 383.794 1132.37 382.694 1134.29C381.593 1136.21 381.043 1138.93 381.043 1142.44C381.043 1144.78 381.29 1146.77 381.783 1148.41C382.276 1150.05 382.984 1151.29 383.909 1152.15C384.842 1153 385.964 1153.43 387.276 1153.43Z" fill="black"/>
<path d="M571.772 787.317V814.359H568.497V790.75H568.339L561.737 795.134V791.807L568.497 787.317H571.772ZM579.549 814.359V811.983L588.475 802.212C589.523 801.067 590.386 800.072 591.063 799.227C591.741 798.374 592.243 797.572 592.569 796.824C592.903 796.067 593.07 795.275 593.07 794.447C593.07 793.497 592.842 792.674 592.384 791.978C591.935 791.283 591.319 790.746 590.535 790.367C589.752 789.989 588.872 789.8 587.894 789.8C586.856 789.8 585.949 790.015 585.174 790.447C584.409 790.869 583.814 791.463 583.392 792.229C582.978 792.995 582.771 793.893 582.771 794.923H579.655C579.655 793.338 580.02 791.947 580.751 790.75C581.482 789.553 582.476 788.62 583.735 787.951C585.003 787.282 586.424 786.947 588 786.947C589.585 786.947 590.989 787.282 592.212 787.951C593.436 788.62 594.395 789.522 595.091 790.658C595.786 791.793 596.134 793.057 596.134 794.447C596.134 795.442 595.953 796.415 595.592 797.366C595.24 798.307 594.624 799.359 593.744 800.521C592.872 801.675 591.662 803.083 590.113 804.747L584.039 811.243V811.454H596.609V814.359H579.549ZM604.386 814.571C603.735 814.571 603.176 814.337 602.71 813.871C602.243 813.404 602.01 812.845 602.01 812.194C602.01 811.542 602.243 810.984 602.71 810.517C603.176 810.05 603.735 809.817 604.386 809.817C605.038 809.817 605.597 810.05 606.063 810.517C606.53 810.984 606.763 811.542 606.763 812.194C606.763 812.625 606.653 813.021 606.433 813.382C606.222 813.743 605.936 814.034 605.575 814.254C605.223 814.465 604.827 814.571 604.386 814.571ZM618.578 787.317V814.359H615.303V790.75H615.145L608.542 795.134V791.807L615.303 787.317H618.578ZM635.175 814.729C633.186 814.729 631.491 814.188 630.092 813.105C628.692 812.013 627.623 810.433 626.883 808.365C626.144 806.287 625.774 803.778 625.774 800.838C625.774 797.916 626.144 795.42 626.883 793.352C627.631 791.274 628.705 789.69 630.105 788.598C631.513 787.498 633.204 786.947 635.175 786.947C637.147 786.947 638.833 787.498 640.233 788.598C641.641 789.69 642.715 791.274 643.454 793.352C644.203 795.42 644.577 797.916 644.577 800.838C644.577 803.778 644.207 806.287 643.468 808.365C642.728 810.433 641.659 812.013 640.259 813.105C638.859 814.188 637.165 814.729 635.175 814.729ZM635.175 811.824C637.147 811.824 638.679 810.873 639.77 808.972C640.862 807.071 641.408 804.359 641.408 800.838C641.408 798.497 641.157 796.503 640.655 794.857C640.162 793.211 639.449 791.956 638.516 791.094C637.592 790.231 636.478 789.8 635.175 789.8C633.221 789.8 631.694 790.763 630.593 792.691C629.493 794.61 628.943 797.326 628.943 800.838C628.943 803.18 629.189 805.169 629.682 806.807C630.175 808.444 630.884 809.689 631.808 810.543C632.741 811.397 633.864 811.824 635.175 811.824Z" fill="black"/>
<path d="M439.33 582.596H418.878V1084.46H439.33V582.596Z" fill="black"/>
</svg>
