<svg width="1512" height="1512" viewBox="0 0 1512 1512" fill="none" xmlns="http://www.w3.org/2000/svg">
<path d="M338.779 958.527C392.269 957.853 423.954 985.609 438.048 1026.68C406.035 1026.68 374.021 1026.68 342.008 1026.68" stroke="black" stroke-width="0.96" stroke-miterlimit="22.9256"/>
<path fill-rule="evenodd" clip-rule="evenodd" d="M332.151 398.655V410.242H315.375V398.655V288.16H378.159V398.655H332.151Z" fill="black"/>
<path d="M1204.55 288.442H378.145V317.122H1204.55V288.442Z" fill="black"/>
<path d="M881.406 317.122H868.246V587.005H881.406V317.122Z" fill="black"/>
<path d="M1204.92 317.122H1177.23V578.507H1204.92V317.122Z" fill="black"/>
<path d="M1177.23 565.364H1082.09V578.524H1177.23V565.364Z" fill="black"/>
<path d="M1239.98 550.518H1204.92V578.428H1239.98V550.518Z" fill="black"/>
<path d="M329.123 410.241H314.209V628.296H329.123V410.241Z" stroke="black" stroke-width="0.755906" stroke-miterlimit="22.9256"/>
<path d="M341.304 410.241H329.123V623.194H341.304V410.241Z" stroke="black" stroke-width="0.755906" stroke-miterlimit="22.9256"/>
<path d="M377.768 398.654H341.304V636.521H377.768V398.654Z" stroke="black" stroke-width="0.755906" stroke-miterlimit="22.9256"/>
<path d="M977.123 566.336H881.406V579.496H977.123V566.336Z" fill="black"/>
<path fill-rule="evenodd" clip-rule="evenodd" d="M329.121 636.527H376.234V806.171H329.294V815.505H315.906V628.292H329.121V636.527Z" fill="black"/>
<path d="M331.31 1031.67H318.698V1193.6H331.31V1031.67Z" fill="black"/>
<path d="M377.526 1037.9H331.192V1193.59H377.526V1037.9Z" fill="black"/>
<path d="M974.928 719.868H376.233V732.48H974.928V719.868Z" fill="black"/>
<path d="M1192.07 719.634H1089.53V731.369H1192.07V719.634Z" fill="black"/>
<path d="M1192.07 731.369H1179.19V1012.56H1192.07V731.369Z" fill="black"/>
<path d="M1441.26 988.712H1192.07V1012.56H1441.26V988.712Z" fill="black"/>
<path d="M1408.54 552.608H1374.66V579.058H1408.54V552.608Z" fill="black"/>
<path d="M1441.21 552.626H1408.54V988.711H1441.21V552.626Z" fill="black"/>
<path d="M1204 1182H319V1209H1204V1182Z" fill="black"/>
<path d="M1204.08 1012.56H1179.18V1181.56H1204.08V1012.56Z" fill="black"/>
<path d="M341.303 623.194H329.122V636.521H341.303V623.194Z" stroke="black" stroke-width="0.755906" stroke-miterlimit="22.9256"/>
<path d="M1175.72 319.04H1077.02V540.017H1175.72V319.04Z" stroke="black" stroke-width="2" stroke-miterlimit="22.9256"/>
<path fill-rule="evenodd" clip-rule="evenodd" d="M1088.29 499.529C1086.21 450.994 1087.56 403.029 1087.19 354.779C1086.95 337.893 1087.57 329.273 1105.45 329.546C1120.24 329.546 1135.03 329.546 1149.83 329.546C1162.39 329.391 1167.11 333.147 1166.15 354.172C1165.79 402.624 1166.56 451.077 1165.06 499.529C1160.43 538.01 1095.19 541.919 1088.29 499.529Z" stroke="black" stroke-width="1.00006" stroke-miterlimit="22.9256"/>
<path d="M1127.18 348.971C1129.71 348.971 1131.75 346.923 1131.75 344.397C1131.75 341.87 1129.71 339.822 1127.18 339.822C1124.65 339.822 1122.6 341.87 1122.6 344.397C1122.6 346.923 1124.65 348.971 1127.18 348.971Z" stroke="black" stroke-width="0.755906" stroke-miterlimit="22.9256"/>
<path d="M1373.37 544.992H1366.99C1366.27 544.992 1365.69 545.572 1365.69 546.287V557.963C1365.69 558.678 1366.27 559.258 1366.99 559.258H1373.37C1374.08 559.258 1374.66 558.678 1374.66 557.963V546.287C1374.66 545.572 1374.08 544.992 1373.37 544.992Z" stroke="black" stroke-width="0.755906" stroke-miterlimit="22.9256"/>
<path d="M1247.65 545.332H1241.27C1240.56 545.332 1239.98 545.911 1239.98 546.627V558.303C1239.98 559.018 1240.56 559.598 1241.27 559.598H1247.65C1248.37 559.598 1248.95 559.018 1248.95 558.303V546.627C1248.95 545.911 1248.37 545.332 1247.65 545.332Z" stroke="black" stroke-width="0.755906" stroke-miterlimit="22.9256"/>
<path d="M319.714 730.878H163.989V1188.12H319.49" stroke="black" stroke-width="8.00013" stroke-miterlimit="22.9256" stroke-linejoin="round"/>
<path d="M1004.76 364.198L1005.85 354.326" stroke="black" stroke-width="1.00006" stroke-miterlimit="22.9256"/>
<path d="M1038.69 363.803L1037.59 353.933" stroke="black" stroke-width="1.00006" stroke-miterlimit="22.9256"/>
<path d="M988.879 319.168C988.879 326.99 988.878 334.814 988.878 342.636C988.861 348.47 991.884 352.69 999.298 354.425C1012.49 354.333 1025.68 354.242 1038.88 354.149C1049.2 354.688 1053.49 350.217 1054.13 342.636V318.796" stroke="black" stroke-width="1.00006" stroke-miterlimit="22.9256"/>
<path d="M982.967 720.047H976.588C975.872 720.047 975.292 720.627 975.292 721.342V733.018C975.292 733.733 975.872 734.313 976.588 734.313H982.967C983.682 734.313 984.262 733.733 984.262 733.018V721.342C984.262 720.627 983.682 720.047 982.967 720.047Z" stroke="black" stroke-width="0.755906" stroke-miterlimit="22.9256"/>
<path fill-rule="evenodd" clip-rule="evenodd" d="M1046.28 383.924C1047.56 376.132 1045.8 369.374 1039.43 364.184C1026.83 359.381 1015.38 359.661 1004.88 364.185C999.266 368.799 996.645 374.819 997.352 382.404C998.456 393.73 1002.54 404.724 1011.46 415.179C1017.7 421.52 1024.75 422.04 1032.85 415.179C1040.17 406.075 1044.53 395.601 1046.28 383.924Z" stroke="black" stroke-width="1.00006" stroke-miterlimit="22.9256"/>
<path d="M893.099 706.983H828.397V732.754H893.099V706.983Z" fill="black"/>
<path d="M953.829 517.06H891.318V559.28H953.829V517.06Z" stroke="black" stroke-width="8.00013" stroke-miterlimit="22.9256" stroke-linecap="round" stroke-linejoin="round"/>
<path d="M948.588 519.108H935.762V555.733H948.588V519.108Z" stroke="black" stroke-width="8.00013" stroke-miterlimit="22.9256"/>
<path d="M913.29 517.162V559.383" stroke="black" stroke-width="2.00013" stroke-miterlimit="22.9256"/>
<path d="M895.04 538.17H932.166" stroke="black" stroke-width="2.00013" stroke-miterlimit="22.9256"/>
<path d="M1261.45 937.216H1223.84C1223.22 937.216 1222.72 937.796 1222.72 938.511V979.849C1222.72 980.565 1223.22 981.144 1223.84 981.144H1261.45C1262.06 981.144 1262.56 980.565 1262.56 979.849V938.511C1262.56 937.796 1262.06 937.216 1261.45 937.216Z" stroke="black" stroke-width="8.00013" stroke-miterlimit="22.9256" stroke-linecap="round" stroke-linejoin="round"/>
<path d="M1190.05 934.871H1225.41" stroke="black" stroke-width="2.99981" stroke-miterlimit="22.9256"/>
<path d="M1188.64 983.342H1224" stroke="black" stroke-width="2.99981" stroke-miterlimit="22.9256"/>
<path d="M1212.93 943.597H1203.84C1199.91 943.597 1196.73 947.076 1196.73 951.368V965.048C1196.73 969.34 1199.91 972.819 1203.84 972.819H1212.93C1216.85 972.819 1220.04 969.34 1220.04 965.048V951.368C1220.04 947.076 1216.85 943.597 1212.93 943.597Z" stroke="black" stroke-width="8.00013" stroke-miterlimit="22.9256" stroke-linecap="round" stroke-linejoin="round"/>
<path d="M1193.3 940.562C1195.27 940.562 1196.87 939.145 1196.87 937.397C1196.87 935.649 1195.27 934.232 1193.3 934.232C1191.34 934.232 1189.74 935.649 1189.74 937.397C1189.74 939.145 1191.34 940.562 1193.3 940.562Z" fill="black"/>
<path d="M1193.85 982.887C1195.82 982.887 1197.41 981.47 1197.41 979.722C1197.41 977.974 1195.82 976.557 1193.85 976.557C1191.88 976.557 1190.29 977.974 1190.29 979.722C1190.29 981.47 1191.88 982.887 1193.85 982.887Z" fill="black"/>
<path d="M338.778 947.423H328.08V959.286H338.778V947.423Z" stroke="black" stroke-width="0.639874" stroke-miterlimit="22.9256"/>
<path d="M341.155 1025.97H331.31V1037.83H341.155V1025.97Z" stroke="black" stroke-width="0.639874" stroke-miterlimit="22.9256" stroke-linejoin="round"/>
<path d="M1088.23 718.491H1081.85C1081.14 718.491 1080.56 719.071 1080.56 719.786V731.462C1080.56 732.177 1081.14 732.757 1081.85 732.757H1088.23C1088.95 732.757 1089.53 732.177 1089.53 731.462V719.786C1089.53 719.071 1088.95 718.491 1088.23 718.491Z" stroke="black" stroke-width="0.755906" stroke-miterlimit="22.9256"/>
<path d="M581.585 493.757V530.312H577.158V498.398H576.944L568.019 504.324V499.826L577.158 493.757H581.585ZM604.949 493.757V530.312H600.523V498.398H600.309L591.384 504.324V499.826L600.523 493.757H604.949ZM616.444 530.598C615.564 530.598 614.808 530.283 614.178 529.652C613.547 529.021 613.232 528.266 613.232 527.385C613.232 526.505 613.547 525.749 614.178 525.118C614.808 524.488 615.564 524.172 616.444 524.172C617.325 524.172 618.081 524.488 618.711 525.118C619.342 525.749 619.657 526.505 619.657 527.385C619.657 527.968 619.509 528.504 619.211 528.992C618.925 529.48 618.539 529.872 618.051 530.17C617.575 530.455 617.039 530.598 616.444 530.598ZM627.551 530.312L643.901 497.97V497.684H625.052V493.757H648.47V497.898L632.192 530.312H627.551ZM666.262 530.812C663.572 530.812 661.282 530.08 659.39 528.617C657.498 527.141 656.052 525.005 655.052 522.209C654.053 519.401 653.553 516.009 653.553 512.035C653.553 508.084 654.053 504.711 655.052 501.914C656.064 499.106 657.516 496.964 659.408 495.489C661.312 494.001 663.596 493.257 666.262 493.257C668.927 493.257 671.206 494.001 673.098 495.489C675.002 496.964 676.454 499.106 677.453 501.914C678.465 504.711 678.97 508.084 678.97 512.035C678.97 516.009 678.471 519.401 677.471 522.209C676.472 525.005 675.026 527.141 673.134 528.617C671.242 530.08 668.951 530.812 666.262 530.812ZM666.262 526.885C668.927 526.885 670.998 525.6 672.473 523.03C673.949 520.46 674.687 516.795 674.687 512.035C674.687 508.87 674.347 506.174 673.669 503.949C673.003 501.724 672.039 500.028 670.778 498.862C669.528 497.696 668.023 497.113 666.262 497.113C663.62 497.113 661.555 498.416 660.068 501.022C658.581 503.616 657.837 507.287 657.837 512.035C657.837 515.2 658.17 517.889 658.836 520.103C659.503 522.316 660.461 524 661.71 525.154C662.971 526.308 664.489 526.885 666.262 526.885Z" fill="black"/>
<path d="M1259.81 827.167L1276.16 794.824V794.539H1257.31V790.612H1280.73V794.753L1264.45 827.167H1259.81ZM1284.24 827.453C1283.36 827.453 1282.61 827.137 1281.98 826.507C1281.35 825.876 1281.03 825.12 1281.03 824.24C1281.03 823.359 1281.35 822.604 1281.98 821.973C1282.61 821.342 1283.36 821.027 1284.24 821.027C1285.13 821.027 1285.88 821.342 1286.51 821.973C1287.14 822.604 1287.46 823.359 1287.46 824.24C1287.46 824.823 1287.31 825.358 1287.01 825.846C1286.73 826.334 1286.34 826.727 1285.85 827.024C1285.38 827.31 1284.84 827.453 1284.24 827.453ZM1294.09 819.67V816.029L1310.15 790.612H1312.79V796.252H1311.01L1298.87 815.458V815.743H1320.51V819.67H1294.09ZM1311.3 827.167V818.564V816.868V790.612H1315.51V827.167H1311.3ZM1339.12 827.667C1336.43 827.667 1334.14 826.935 1332.25 825.471C1330.35 823.996 1328.91 821.86 1327.91 819.063C1326.91 816.255 1326.41 812.864 1326.41 808.889C1326.41 804.939 1326.91 801.565 1327.91 798.769C1328.92 795.961 1330.37 793.819 1332.26 792.343C1334.17 790.856 1336.45 790.112 1339.12 790.112C1341.78 790.112 1344.06 790.856 1345.95 792.343C1347.86 793.819 1349.31 795.961 1350.31 798.769C1351.32 801.565 1351.83 804.939 1351.83 808.889C1351.83 812.864 1351.33 816.255 1350.33 819.063C1349.33 821.86 1347.88 823.996 1345.99 825.471C1344.1 826.935 1341.81 827.667 1339.12 827.667ZM1339.12 823.74C1341.78 823.74 1343.85 822.455 1345.33 819.884C1346.81 817.314 1347.54 813.649 1347.54 808.889C1347.54 805.724 1347.2 803.029 1346.53 800.804C1345.86 798.578 1344.9 796.883 1343.63 795.717C1342.38 794.55 1340.88 793.967 1339.12 793.967C1336.48 793.967 1334.41 795.27 1332.92 797.876C1331.44 800.47 1330.69 804.141 1330.69 808.889C1330.69 812.055 1331.03 814.744 1331.69 816.957C1332.36 819.171 1333.32 820.854 1334.57 822.009C1335.83 823.163 1337.34 823.74 1339.12 823.74Z" fill="black"/>
<path d="M918.24 1025.18V1021.97L930.306 1008.76C931.722 1007.22 932.888 1005.87 933.804 1004.73C934.721 1003.57 935.399 1002.49 935.839 1001.48C936.291 1000.46 936.518 999.386 936.518 998.267C936.518 996.982 936.208 995.87 935.589 994.93C934.982 993.989 934.15 993.264 933.09 992.752C932.031 992.24 930.841 991.984 929.521 991.984C928.116 991.984 926.891 992.276 925.844 992.859C924.808 993.43 924.005 994.233 923.434 995.269C922.875 996.304 922.595 997.518 922.595 998.91H918.383C918.383 996.768 918.876 994.888 919.864 993.27C920.852 991.651 922.196 990.39 923.898 989.486C925.612 988.581 927.533 988.129 929.663 988.129C931.805 988.129 933.703 988.581 935.357 989.486C937.011 990.39 938.308 991.61 939.248 993.145C940.189 994.68 940.659 996.387 940.659 998.267C940.659 999.612 940.415 1000.93 939.927 1002.21C939.451 1003.49 938.618 1004.91 937.428 1006.48C936.25 1008.04 934.614 1009.94 932.519 1012.19L924.309 1020.97V1021.26H941.301V1025.18H918.24ZM961.524 988.629V1025.18H957.098V993.27H956.884L947.959 999.196V994.698L957.098 988.629H961.524ZM973.019 1025.47C972.139 1025.47 971.383 1025.15 970.752 1024.52C970.122 1023.89 969.806 1023.14 969.806 1022.26C969.806 1021.38 970.122 1020.62 970.752 1019.99C971.383 1019.36 972.139 1019.04 973.019 1019.04C973.9 1019.04 974.655 1019.36 975.286 1019.99C975.917 1020.62 976.232 1021.38 976.232 1022.26C976.232 1022.84 976.083 1023.38 975.786 1023.86C975.5 1024.35 975.114 1024.74 974.626 1025.04C974.15 1025.33 973.614 1025.47 973.019 1025.47ZM994.407 1025.68C992.313 1025.68 990.427 1025.27 988.749 1024.43C987.071 1023.6 985.726 1022.46 984.715 1021.01C983.704 1019.56 983.15 1017.9 983.055 1016.05H987.339C987.505 1017.7 988.255 1019.07 989.588 1020.15C990.933 1021.22 992.539 1021.76 994.407 1021.76C995.907 1021.76 997.239 1021.41 998.405 1020.7C999.583 1020 1000.51 1019.04 1001.17 1017.81C1001.85 1016.57 1002.19 1015.18 1002.19 1013.62C1002.19 1012.02 1001.84 1010.6 1001.14 1009.35C1000.45 1008.09 999.494 1007.1 998.28 1006.37C997.067 1005.65 995.68 1005.28 994.122 1005.26C993.003 1005.25 991.855 1005.42 990.677 1005.78C989.499 1006.13 988.529 1006.57 987.767 1007.12L983.626 1006.62L985.84 988.629H1004.83V992.556H989.552L988.267 1003.34H988.481C989.231 1002.74 990.171 1002.25 991.301 1001.86C992.432 1001.46 993.61 1001.27 994.836 1001.27C997.073 1001.27 999.066 1001.8 1000.82 1002.87C1002.58 1003.93 1003.96 1005.38 1004.96 1007.23C1005.97 1009.07 1006.47 1011.18 1006.47 1013.55C1006.47 1015.88 1005.95 1017.96 1004.9 1019.79C1003.87 1021.61 1002.44 1023.05 1000.62 1024.11C998.798 1025.16 996.728 1025.68 994.407 1025.68ZM1025.49 1025.68C1022.8 1025.68 1020.51 1024.95 1018.62 1023.49C1016.72 1022.01 1015.28 1019.88 1014.28 1017.08C1013.28 1014.27 1012.78 1010.88 1012.78 1006.91C1012.78 1002.96 1013.28 999.582 1014.28 996.786C1015.29 993.978 1016.74 991.836 1018.63 990.36C1020.54 988.873 1022.82 988.129 1025.49 988.129C1028.15 988.129 1030.43 988.873 1032.32 990.36C1034.23 991.836 1035.68 993.978 1036.68 996.786C1037.69 999.582 1038.2 1002.96 1038.2 1006.91C1038.2 1010.88 1037.7 1014.27 1036.7 1017.08C1035.7 1019.88 1034.25 1022.01 1032.36 1023.49C1030.47 1024.95 1028.18 1025.68 1025.49 1025.68ZM1025.49 1021.76C1028.15 1021.76 1030.22 1020.47 1031.7 1017.9C1033.17 1015.33 1033.91 1011.67 1033.91 1006.91C1033.91 1003.74 1033.57 1001.05 1032.89 998.821C1032.23 996.595 1031.26 994.9 1030 993.734C1028.75 992.568 1027.25 991.984 1025.49 991.984C1022.85 991.984 1020.78 993.287 1019.29 995.893C1017.81 998.488 1017.06 1002.16 1017.06 1006.91C1017.06 1010.07 1017.4 1012.76 1018.06 1014.97C1018.73 1017.19 1019.69 1018.87 1020.94 1020.03C1022.2 1021.18 1023.71 1021.76 1025.49 1021.76Z" fill="black"/>
<path d="M216.511 988.186C214.155 988.186 212.055 987.782 210.21 986.973C208.378 986.163 206.92 985.039 205.837 983.599C204.766 982.147 204.183 980.464 204.088 978.548H208.586C208.681 979.726 209.086 980.743 209.8 981.6C210.514 982.445 211.448 983.099 212.602 983.563C213.756 984.027 215.036 984.259 216.44 984.259C218.011 984.259 219.403 983.986 220.617 983.438C221.83 982.891 222.782 982.129 223.472 981.154C224.163 980.178 224.508 979.047 224.508 977.762C224.508 976.418 224.175 975.234 223.508 974.21C222.842 973.175 221.866 972.366 220.581 971.783C219.296 971.2 217.725 970.908 215.869 970.908H212.941V966.981H215.869C217.32 966.981 218.594 966.72 219.688 966.196C220.795 965.672 221.658 964.935 222.277 963.983C222.907 963.031 223.223 961.912 223.223 960.627C223.223 959.389 222.949 958.313 222.401 957.396C221.854 956.48 221.081 955.766 220.081 955.254C219.093 954.743 217.927 954.487 216.583 954.487C215.321 954.487 214.131 954.719 213.013 955.183C211.906 955.635 211.002 956.296 210.3 957.164C209.598 958.021 209.217 959.056 209.157 960.27H204.874C204.945 958.354 205.522 956.676 206.605 955.237C207.688 953.785 209.104 952.654 210.853 951.845C212.614 951.036 214.548 950.631 216.654 950.631C218.915 950.631 220.855 951.09 222.473 952.006C224.091 952.91 225.335 954.106 226.203 955.594C227.072 957.081 227.506 958.687 227.506 960.413C227.506 962.471 226.965 964.227 225.882 965.678C224.811 967.13 223.353 968.136 221.509 968.695V968.98C223.818 969.361 225.62 970.343 226.917 971.926C228.214 973.496 228.863 975.442 228.863 977.762C228.863 979.75 228.322 981.534 227.239 983.117C226.168 984.688 224.704 985.925 222.848 986.83C220.991 987.734 218.879 988.186 216.511 988.186ZM238.176 987.972C237.295 987.972 236.54 987.657 235.909 987.026C235.278 986.395 234.963 985.64 234.963 984.759C234.963 983.879 235.278 983.123 235.909 982.492C236.54 981.862 237.295 981.546 238.176 981.546C239.056 981.546 239.812 981.862 240.443 982.492C241.073 983.123 241.389 983.879 241.389 984.759C241.389 985.342 241.24 985.878 240.942 986.366C240.657 986.854 240.27 987.246 239.782 987.544C239.306 987.829 238.771 987.972 238.176 987.972ZM259.564 988.186C257.469 988.186 255.583 987.77 253.905 986.937C252.228 986.104 250.883 984.962 249.872 983.51C248.86 982.058 248.307 980.404 248.212 978.548H252.495C252.662 980.202 253.412 981.57 254.744 982.653C256.089 983.724 257.695 984.259 259.564 984.259C261.063 984.259 262.396 983.908 263.562 983.206C264.74 982.504 265.662 981.54 266.329 980.315C267.007 979.077 267.346 977.679 267.346 976.12C267.346 974.526 266.995 973.104 266.293 971.854C265.603 970.593 264.651 969.599 263.437 968.873C262.223 968.148 260.837 967.779 259.278 967.767C258.16 967.755 257.011 967.927 255.833 968.284C254.655 968.629 253.685 969.076 252.924 969.623L248.783 969.123L250.996 951.131H269.988V955.058H254.709L253.424 965.839H253.638C254.387 965.244 255.327 964.75 256.458 964.358C257.588 963.965 258.766 963.768 259.992 963.768C262.229 963.768 264.222 964.304 265.972 965.375C267.733 966.434 269.113 967.886 270.113 969.73C271.124 971.575 271.63 973.681 271.63 976.049C271.63 978.381 271.106 980.464 270.059 982.296C269.024 984.117 267.596 985.557 265.775 986.616C263.955 987.663 261.884 988.186 259.564 988.186ZM290.644 988.186C287.954 988.186 285.664 987.454 283.772 985.991C281.88 984.515 280.434 982.379 279.434 979.583C278.435 976.775 277.935 973.383 277.935 969.409C277.935 965.458 278.435 962.085 279.434 959.288C280.446 956.48 281.898 954.338 283.79 952.863C285.694 951.375 287.978 950.631 290.644 950.631C293.309 950.631 295.588 951.375 297.48 952.863C299.384 954.338 300.836 956.48 301.835 959.288C302.847 962.085 303.352 965.458 303.352 969.409C303.352 973.383 302.853 976.775 301.853 979.583C300.854 982.379 299.408 984.515 297.516 985.991C295.624 987.454 293.333 988.186 290.644 988.186ZM290.644 984.259C293.309 984.259 295.38 982.974 296.855 980.404C298.331 977.834 299.069 974.169 299.069 969.409C299.069 966.244 298.729 963.548 298.051 961.323C297.385 959.098 296.421 957.402 295.16 956.236C293.91 955.07 292.405 954.487 290.644 954.487C288.002 954.487 285.937 955.79 284.45 958.396C282.963 960.99 282.219 964.661 282.219 969.409C282.219 972.574 282.552 975.263 283.218 977.477C283.885 979.69 284.843 981.374 286.092 982.528C287.354 983.682 288.871 984.259 290.644 984.259Z" fill="black"/>
<path d="M966.252 486.761V483.119L982.316 457.702H984.958V463.342H983.173L971.036 482.548V482.834H992.669V486.761H966.252ZM983.459 494.257V485.654V483.958V457.702H987.671V494.257H983.459ZM1000.78 494.543C999.901 494.543 999.145 494.228 998.515 493.597C997.884 492.966 997.569 492.211 997.569 491.33C997.569 490.449 997.884 489.694 998.515 489.063C999.145 488.433 999.901 488.117 1000.78 488.117C1001.66 488.117 1002.42 488.433 1003.05 489.063C1003.68 489.694 1003.99 490.449 1003.99 491.33C1003.99 491.913 1003.85 492.449 1003.55 492.936C1003.26 493.424 1002.88 493.817 1002.39 494.115C1001.91 494.4 1001.38 494.543 1000.78 494.543ZM1011.48 494.257V491.044L1023.55 477.836C1024.96 476.289 1026.13 474.944 1027.05 473.802C1027.96 472.648 1028.64 471.565 1029.08 470.553C1029.53 469.53 1029.76 468.459 1029.76 467.341C1029.76 466.055 1029.45 464.943 1028.83 464.003C1028.22 463.063 1027.39 462.337 1026.33 461.825C1025.27 461.314 1024.08 461.058 1022.76 461.058C1021.36 461.058 1020.13 461.349 1019.09 461.932C1018.05 462.503 1017.25 463.307 1016.68 464.342C1016.12 465.377 1015.84 466.591 1015.84 467.983H1011.62C1011.62 465.841 1012.12 463.961 1013.11 462.343C1014.09 460.724 1015.44 459.463 1017.14 458.559C1018.85 457.654 1020.78 457.202 1022.91 457.202C1025.05 457.202 1026.95 457.654 1028.6 458.559C1030.25 459.463 1031.55 460.683 1032.49 462.218C1033.43 463.753 1033.9 465.46 1033.9 467.341C1033.9 468.685 1033.66 470 1033.17 471.285C1032.69 472.559 1031.86 473.981 1030.67 475.551C1029.49 477.11 1027.86 479.014 1025.76 481.263L1017.55 490.045V490.33H1034.54V494.257H1011.48ZM1053.84 494.757C1051.15 494.757 1048.86 494.025 1046.97 492.562C1045.07 491.086 1043.63 488.95 1042.63 486.154C1041.63 483.345 1041.13 479.954 1041.13 475.98C1041.13 472.029 1041.63 468.656 1042.63 465.859C1043.64 463.051 1045.09 460.909 1046.98 459.433C1048.89 457.946 1051.17 457.202 1053.84 457.202C1056.5 457.202 1058.78 457.946 1060.67 459.433C1062.58 460.909 1064.03 463.051 1065.03 465.859C1066.04 468.656 1066.55 472.029 1066.55 475.98C1066.55 479.954 1066.05 483.345 1065.05 486.154C1064.05 488.95 1062.6 491.086 1060.71 492.562C1058.82 494.025 1056.53 494.757 1053.84 494.757ZM1053.84 490.83C1056.5 490.83 1058.57 489.545 1060.05 486.975C1061.53 484.405 1062.26 480.739 1062.26 475.98C1062.26 472.814 1061.92 470.119 1061.25 467.894C1060.58 465.669 1059.62 463.973 1058.35 462.807C1057.1 461.641 1055.6 461.058 1053.84 461.058C1051.2 461.058 1049.13 462.361 1047.64 464.967C1046.16 467.561 1045.41 471.232 1045.41 475.98C1045.41 479.145 1045.75 481.834 1046.41 484.048C1047.08 486.261 1048.04 487.945 1049.29 489.099C1050.55 490.253 1052.07 490.83 1053.84 490.83Z" fill="black"/>
<path d="M1080.56 731.462C1081.24 793.013 1023.78 838.801 982.07 855.018C982.07 818.182 982.452 771.364 982.452 734.527" stroke="black" stroke-width="0.96" stroke-miterlimit="22.9256"/>
<path d="M1247.19 545.958C1246.73 478.099 1310.71 429.72 1368.07 412.225C1367.79 452.831 1366.9 504.438 1366.62 545.044" stroke="black" stroke-width="0.96" stroke-miterlimit="22.9256"/>
<path d="M162.613 968.271H68.252V1187.99H162.613V968.271Z" stroke="black" stroke-width="0.639874" stroke-miterlimit="22.9256"/>
<path d="M68.1001 967.984L162.461 1187.7" stroke="black" stroke-width="0.639874" stroke-miterlimit="22.9256"/>
<path d="M162.613 968.272L70.5684 1186.28" stroke="black" stroke-width="0.639874" stroke-miterlimit="22.9256"/>
<path d="M337.914 934.587H328.658V946.45H337.914V934.587Z" stroke="black" stroke-width="0.639874" stroke-miterlimit="22.9256"/>
<path d="M375.277 805.944H338.216V946.606H375.277V805.944Z" stroke="black" stroke-width="0.755906" stroke-miterlimit="22.9256"/>
<path d="M328.96 815.383H338.216" stroke="black" stroke-width="0.639874" stroke-miterlimit="22.9256"/>
<path d="M328.086 815.26H321.118C320.983 815.26 320.874 815.398 320.874 815.569V946.143C320.874 946.313 320.983 946.451 321.118 946.451H328.086C328.221 946.451 328.331 946.313 328.331 946.143V815.569C328.331 815.398 328.221 815.26 328.086 815.26Z" stroke="black" stroke-width="0.755906" stroke-miterlimit="22.9256"/>
<path d="M554.749 1073.89H445.427V1179.44H554.749V1073.89Z" stroke="black" stroke-width="1.00006" stroke-miterlimit="22.9256" stroke-linejoin="round"/>
<path d="M529.643 1111.08C537.299 1111.08 543.505 1104.88 543.505 1097.22C543.505 1089.57 537.299 1083.36 529.643 1083.36C521.988 1083.36 515.782 1089.57 515.782 1097.22C515.782 1104.88 521.988 1111.08 529.643 1111.08Z" stroke="black" stroke-width="0.639874" stroke-miterlimit="22.9256" stroke-linejoin="round"/>
<path d="M530.642 1079.66H529.603V1115H530.642V1079.66Z" fill="black"/>
<path d="M547.793 1097.85V1096.81L512.453 1096.81V1097.85L547.793 1097.85Z" fill="black"/>
<path d="M474.624 1110.91C482.28 1110.91 488.486 1104.71 488.486 1097.05C488.486 1089.4 482.28 1083.19 474.624 1083.19C466.969 1083.19 460.763 1089.4 460.763 1097.05C460.763 1104.71 466.969 1110.91 474.624 1110.91Z" stroke="black" stroke-width="0.639874" stroke-miterlimit="22.9256" stroke-linejoin="round"/>
<path d="M475.623 1079.49H474.583V1114.83H475.623V1079.49Z" fill="black"/>
<path d="M492.774 1097.68V1096.64L457.435 1096.64V1097.68L492.774 1097.68Z" fill="black"/>
<path d="M474.966 1166.61C482.622 1166.61 488.828 1160.41 488.828 1152.75C488.828 1145.1 482.622 1138.89 474.966 1138.89C467.311 1138.89 461.105 1145.1 461.105 1152.75C461.105 1160.41 467.311 1166.61 474.966 1166.61Z" stroke="black" stroke-width="0.639874" stroke-miterlimit="22.9256" stroke-linejoin="round"/>
<path d="M475.965 1135.19H474.925V1170.53H475.965V1135.19Z" fill="black"/>
<path d="M493.115 1153.38V1152.34L457.775 1152.34V1153.38L493.115 1153.38Z" fill="black"/>
<path d="M529.877 1165.71C537.532 1165.71 543.738 1159.5 543.738 1151.85C543.738 1144.19 537.532 1137.99 529.877 1137.99C522.222 1137.99 516.016 1144.19 516.016 1151.85C516.016 1159.5 522.222 1165.71 529.877 1165.71Z" stroke="black" stroke-width="0.639874" stroke-miterlimit="22.9256" stroke-linejoin="round"/>
<path d="M530.876 1134.29H529.836V1169.63H530.876V1134.29Z" fill="black"/>
<path d="M548.027 1152.48V1151.44L512.688 1151.44V1152.48L548.027 1152.48Z" fill="black"/>
<path d="M722.808 1069.94H626.496C622.908 1069.94 619.999 1072.85 619.999 1076.44V1174.02C619.999 1177.6 622.908 1180.51 626.496 1180.51H722.808C726.396 1180.51 729.305 1177.6 729.305 1174.02V1076.44C729.305 1072.85 726.396 1069.94 722.808 1069.94Z" stroke="black" stroke-width="1.00006" stroke-miterlimit="22.9256" stroke-linecap="round" stroke-linejoin="round"/>
<path d="M719.827 1088.9H630.108V1168.51H719.827V1088.9Z" stroke="black" stroke-width="1.00006" stroke-miterlimit="22.9256" stroke-linecap="round" stroke-linejoin="round"/>
<path d="M695.817 1112.27C699.656 1112.27 702.768 1109.16 702.768 1105.32C702.768 1101.49 699.656 1098.37 695.817 1098.37C691.979 1098.37 688.867 1101.49 688.867 1105.32C688.867 1109.16 691.979 1112.27 695.817 1112.27Z" stroke="black" stroke-width="1.00006" stroke-miterlimit="22.9256"/>
<path d="M879.841 496.874C907.487 496.613 933.272 505.054 936.837 471.209C937.746 460.187 937.357 449.668 935.839 438.847C929.687 411.131 905.863 419.833 879.434 419.369" stroke="black" stroke-width="1.00006" stroke-miterlimit="22.9256" stroke-linecap="round" stroke-linejoin="round"/>
<path fill-rule="evenodd" clip-rule="evenodd" d="M900.203 492.593C896.555 492.67 893.032 489.953 891.365 486.934C891.365 466.827 891.365 447.678 891.365 427.571C891.991 424.731 893.958 424.094 898.225 423.132C910.653 422.284 925.296 423.264 929.427 436.879C929.494 448.042 929.429 461.196 929.496 472.359C927.772 489.812 915.25 491.828 900.203 492.593Z" stroke="black" stroke-width="1.00006" stroke-miterlimit="22.9256"/>
<path d="M901.041 457.361C901.041 455.17 899.265 453.394 897.074 453.394C894.884 453.394 893.108 455.17 893.108 457.361C893.108 459.551 894.884 461.327 897.074 461.327C899.265 461.327 901.041 459.551 901.041 457.361Z" stroke="black" stroke-width="1.11135" stroke-miterlimit="22.9256"/>
<path fill-rule="evenodd" clip-rule="evenodd" d="M898.424 483.41C895.51 483.465 892.696 481.525 891.365 479.37C891.365 465.013 891.365 451.341 891.365 436.984C891.865 434.957 893.436 434.502 896.843 433.815C927.465 431.275 921.685 449.101 921.819 468.963C921.577 481.971 909.918 483.41 898.424 483.41Z" stroke="black" stroke-width="1.00006" stroke-miterlimit="22.9256"/>
</svg>
