<svg width="1512" height="1512" viewBox="0 0 1512 1512" fill="none" xmlns="http://www.w3.org/2000/svg">
<path d="M380.594 581.125C437.935 581.84 469.857 554.645 484.965 511.013C450.648 511.013 416.33 511.013 382.012 511.013" stroke="black" stroke-width="0.96" stroke-miterlimit="22.9256"/>
<path d="M206.093 336.017H100.17V582.888H206.093V336.017Z" stroke="black" stroke-width="0.639874" stroke-miterlimit="22.9256"/>
<path d="M100 335.695L205.923 582.566" stroke="black" stroke-width="0.639874" stroke-miterlimit="22.9256"/>
<path d="M206.094 336.018L102.771 580.966" stroke="black" stroke-width="0.639874" stroke-miterlimit="22.9256"/>
<path d="M561.307 369.499H465.389V462.199H561.307V369.499Z" stroke="black" stroke-width="1.00006" stroke-miterlimit="22.9256" stroke-linejoin="round"/>
<path d="M539.28 402.165C545.997 402.165 551.442 396.715 551.442 389.992C551.442 383.268 545.997 377.818 539.28 377.818C532.563 377.818 527.118 383.268 527.118 389.992C527.118 396.715 532.563 402.165 539.28 402.165Z" stroke="black" stroke-width="0.639874" stroke-miterlimit="22.9256" stroke-linejoin="round"/>
<path d="M540.156 374.571H539.244V405.607H540.156V374.571Z" fill="black"/>
<path d="M555.202 390.547V389.634L524.195 389.634V390.547L555.202 390.547Z" fill="black"/>
<path d="M491.006 402.015C497.723 402.015 503.168 396.565 503.168 389.842C503.168 383.118 497.723 377.668 491.006 377.668C484.289 377.668 478.844 383.118 478.844 389.842C478.844 396.565 484.289 402.015 491.006 402.015Z" stroke="black" stroke-width="0.639874" stroke-miterlimit="22.9256" stroke-linejoin="round"/>
<path d="M491.883 374.421H490.97V405.457H491.883V374.421Z" fill="black"/>
<path d="M506.932 390.394V389.48L475.925 389.48V390.394L506.932 390.394Z" fill="black"/>
<path d="M491.307 450.935C498.024 450.935 503.469 445.484 503.469 438.761C503.469 432.038 498.024 426.587 491.307 426.587C484.59 426.587 479.145 432.038 479.145 438.761C479.145 445.484 484.59 450.935 491.307 450.935Z" stroke="black" stroke-width="0.639874" stroke-miterlimit="22.9256" stroke-linejoin="round"/>
<path d="M492.183 423.34H491.271V454.377H492.183V423.34Z" fill="black"/>
<path d="M507.228 439.314V438.4L476.221 438.4V439.314L507.228 439.314Z" fill="black"/>
<path d="M539.485 450.141C546.202 450.141 551.647 444.691 551.647 437.967C551.647 431.244 546.202 425.793 539.485 425.793C532.768 425.793 527.323 431.244 527.323 437.967C527.323 444.691 532.768 450.141 539.485 450.141Z" stroke="black" stroke-width="0.639874" stroke-miterlimit="22.9256" stroke-linejoin="round"/>
<path d="M540.362 422.546H539.449V453.583H540.362V422.546Z" fill="black"/>
<path d="M555.411 438.523V437.609L524.404 437.609V438.523L555.411 438.523Z" fill="black"/>
<path fill-rule="evenodd" clip-rule="evenodd" d="M606.054 363.645H690.691C693.843 363.645 696.4 366.204 696.4 369.359V455.188C696.4 458.344 693.843 460.903 690.691 460.903L606.054 460.903C602.902 460.903 600.345 458.344 600.345 455.188V369.36C600.345 366.204 602.902 363.645 606.054 363.645L606.054 363.645Z" stroke="black" stroke-width="1.00006" stroke-miterlimit="22.9256" stroke-linecap="round" stroke-linejoin="round"/>
<path d="M688.071 380.318H609.229V450.344H688.071V380.318Z" stroke="black" stroke-width="1.00006" stroke-miterlimit="22.9256" stroke-linecap="round" stroke-linejoin="round"/>
<path d="M666.973 400.881C670.346 400.881 673.08 398.143 673.08 394.767C673.08 391.391 670.346 388.654 666.973 388.654C663.6 388.654 660.865 391.391 660.865 394.767C660.865 398.143 663.6 400.881 666.973 400.881Z" stroke="black" stroke-width="1.00006" stroke-miterlimit="22.9256"/>
<path d="M1248.57 333H367.208V361.25H1248.57V333Z" fill="black"/>
<path fill-rule="evenodd" clip-rule="evenodd" d="M383.194 500.298V511.536H367.25V500.298V358.793H425.337V500.298H383.194Z" fill="black"/>
<path d="M389.115 500.298H382.669C381.957 500.298 381.38 500.876 381.38 501.588V509.388C381.38 510.1 381.957 510.678 382.669 510.678H389.115C389.827 510.678 390.404 510.1 390.404 509.388V501.588C390.404 500.876 389.827 500.298 389.115 500.298Z" stroke="black" stroke-width="1.00006" stroke-miterlimit="22.9256"/>
<path d="M1248.54 361.25H1222.52V727.582H1248.54V361.25Z" fill="black"/>
<path d="M1248.48 727.582H1238.51C1237.79 727.582 1237.22 728.277 1237.22 729.134V733.259C1237.22 734.116 1237.79 734.811 1238.51 734.811H1248.48C1249.19 734.811 1249.77 734.116 1249.77 733.259V729.134C1249.77 728.277 1249.19 727.582 1248.48 727.582Z" stroke="black" stroke-width="0.666709" stroke-miterlimit="22.9256"/>
<path d="M1249 857.14H1222.52V1179.17H1249V857.14Z" fill="black"/>
<path d="M1248.48 849.417H1238.51C1237.79 849.417 1237.22 850.16 1237.22 851.075V855.482C1237.22 856.398 1237.79 857.14 1238.51 857.14H1248.48C1249.19 857.14 1249.77 856.398 1249.77 855.482V851.075C1249.77 850.16 1249.19 849.417 1248.48 849.417Z" stroke="black" stroke-width="0.666709" stroke-miterlimit="22.9256"/>
<path d="M388.952 580.612H381.698C380.897 580.612 380.247 581.19 380.247 581.903V589.702C380.247 590.415 380.897 590.993 381.698 590.993H388.952C389.754 590.993 390.403 590.415 390.403 589.702V581.903C390.403 581.19 389.754 580.612 388.952 580.612Z" stroke="black" stroke-width="1.00006" stroke-miterlimit="22.9256"/>
<path d="M380.034 590.992H366.332V685.512H380.034V590.992Z" stroke="black" stroke-width="0.755906" stroke-miterlimit="22.9256"/>
<path d="M390.404 600.827H380.033V683.873H390.404V600.827Z" stroke="black" stroke-width="0.755906" stroke-miterlimit="22.9256"/>
<path d="M425.337 589.704H390.404V693.708H425.337V589.704Z" stroke="black" stroke-width="0.755906" stroke-miterlimit="22.9256"/>
<path d="M390.404 683.873H380.033V693.708H390.404V683.873Z" stroke="black" stroke-width="0.755906" stroke-miterlimit="22.9256"/>
<path d="M380.034 685.512H364.75V843.136H380.034V685.512Z" fill="black"/>
<path d="M425.336 693.707H380.033V836.645H425.336V693.707Z" fill="black" stroke="black" stroke-width="0.755906" stroke-miterlimit="22.9256"/>
<path d="M390.404 837.315H380.033V847.15H390.404V837.315Z" stroke="black" stroke-width="0.755906" stroke-miterlimit="22.9256"/>
<path d="M380.034 843.135H366.92V1060.46H380.034V843.135Z" stroke="black" stroke-width="0.755906" stroke-miterlimit="22.9256"/>
<path d="M390.404 847.321H380.033V1058.12H390.404V847.321Z" stroke="black" stroke-width="0.755906" stroke-miterlimit="22.9256"/>
<path d="M425.337 837.447H390.404V1067.96H425.337V837.447Z" stroke="black" stroke-width="0.755906" stroke-miterlimit="22.9256"/>
<path d="M379.827 1060.46H366.453V1180H379.827V1060.46Z" fill="black"/>
<path d="M427.248 1067.96H377.346V1179.12H427.248V1067.96Z" fill="black"/>
<path d="M1249 1150.33H424.246V1179.12H1249V1150.33Z" fill="black"/>
<path d="M928.047 728.486H913.582V787.596H928.047V728.486Z" fill="black"/>
<path d="M993.37 965.282H928.339C927.879 965.282 927.505 965.86 927.505 966.573V979.518C927.505 980.231 927.879 980.808 928.339 980.808H993.37C993.831 980.808 994.204 980.231 994.204 979.518V966.573C994.204 965.86 993.831 965.282 993.37 965.282Z" fill="black"/>
<path d="M1030.36 593.497H926.853C926.12 593.497 925.526 594.074 925.526 594.787V607.732C925.526 608.445 926.12 609.022 926.853 609.022H1030.36C1031.09 609.022 1031.69 608.445 1031.69 607.732V594.787C1031.69 594.074 1031.09 593.497 1030.36 593.497Z" fill="black"/>
<path d="M927.502 920.991H914.948V1154.28H927.502V920.991Z" fill="black"/>
<path d="M1224.06 965.282H1103.71C1102.86 965.282 1102.17 965.86 1102.17 966.573V979.518C1102.17 980.231 1102.86 980.808 1103.71 980.808H1224.06C1224.91 980.808 1225.6 980.231 1225.6 979.518V966.573C1225.6 965.86 1224.91 965.282 1224.06 965.282Z" fill="black"/>
<path d="M928.048 749.708H425.337V764.733H928.048V749.708Z" fill="black"/>
<path d="M1242.27 593.497H1138.77C1138.03 593.497 1137.44 594.074 1137.44 594.787V607.732C1137.44 608.445 1138.03 609.022 1138.77 609.022H1242.27C1243.01 609.022 1243.6 608.445 1243.6 607.732V594.787C1243.6 594.074 1243.01 593.497 1242.27 593.497Z" fill="black"/>
<path d="M390.404 1058.13H380.033V1067.96H390.404V1058.13Z" stroke="black" stroke-width="0.755906" stroke-miterlimit="22.9256"/>
<path d="M367.208 333H207.489V353.939H367.208V333Z" fill="black"/>
<path d="M232.268 353.938H207.489V741.304H232.268V353.938Z" fill="black"/>
<path d="M365.008 721.445H207.489V741.306H365.008V721.445Z" fill="black"/>
<path d="M1217.12 370.146H1124.3V578.152H1217.12V370.146Z" stroke="black" stroke-width="1.00006" stroke-miterlimit="22.9256"/>
<path fill-rule="evenodd" clip-rule="evenodd" d="M1134.9 540.039C1132.95 494.354 1134.21 449.204 1133.87 403.786C1133.64 387.891 1134.23 379.777 1151.04 380.034C1164.95 380.034 1178.86 380.034 1192.77 380.034C1204.58 379.888 1209.03 383.424 1208.12 403.215C1207.78 448.822 1208.51 494.431 1207.09 540.039C1202.75 576.262 1141.4 579.942 1134.9 540.039Z" stroke="black" stroke-width="1.00006" stroke-miterlimit="22.9256"/>
<path d="M1171.47 398.319C1173.85 398.319 1175.78 396.391 1175.78 394.013C1175.78 391.635 1173.85 389.707 1171.47 389.707C1169.1 389.707 1167.17 391.635 1167.17 394.013C1167.17 396.391 1169.1 398.319 1171.47 398.319Z" stroke="black" stroke-width="0.755906" stroke-miterlimit="22.9256"/>
<path d="M1030.64 360.264C1030.9 388.611 1022.26 415.05 1056.93 418.704C1068.22 419.637 1078.99 419.238 1090.08 417.681C1118.47 411.374 1109.55 386.946 1110.03 359.848" stroke="black" stroke-width="1.00006" stroke-miterlimit="22.9256" stroke-linecap="round" stroke-linejoin="round"/>
<path fill-rule="evenodd" clip-rule="evenodd" d="M1035.02 381.142C1034.94 377.402 1037.73 373.79 1040.82 372.081C1061.42 372.081 1081.03 372.081 1101.63 372.081C1104.54 372.722 1105.19 374.739 1106.17 379.114C1107.04 391.857 1106.04 406.871 1092.09 411.106C1080.66 411.175 1067.18 411.108 1055.75 411.177C1037.87 409.409 1035.81 396.57 1035.02 381.142Z" stroke="black" stroke-width="1.00006" stroke-miterlimit="22.9256"/>
<path d="M1071.11 382.002C1073.36 382.002 1075.18 380.181 1075.18 377.935C1075.18 375.689 1073.36 373.868 1071.11 373.868C1068.87 373.868 1067.05 375.689 1067.05 377.935C1067.05 380.181 1068.87 382.002 1071.11 382.002Z" stroke="black" stroke-width="1.11118" stroke-miterlimit="22.9256"/>
<path fill-rule="evenodd" clip-rule="evenodd" d="M1044.43 379.318C1044.37 376.331 1046.36 373.445 1048.57 372.081C1063.27 372.081 1077.28 372.081 1091.98 372.081C1094.06 372.593 1094.53 374.204 1095.23 377.698C1097.83 409.095 1079.57 403.169 1059.23 403.306C1045.9 403.058 1044.43 391.103 1044.43 379.318Z" stroke="black" stroke-width="1.00006" stroke-miterlimit="22.9256"/>
<path d="M958.231 410.705L959.454 399.675" stroke="black" stroke-width="1.00006" stroke-miterlimit="22.9256"/>
<path d="M996.107 410.263L994.881 399.236" stroke="black" stroke-width="1.00006" stroke-miterlimit="22.9256"/>
<path d="M940.508 360.396C940.508 369.135 940.506 377.876 940.506 386.615C940.488 393.133 943.862 397.847 952.138 399.786C966.862 399.684 981.588 399.581 996.313 399.478C1007.84 400.08 1012.63 395.085 1013.34 386.615V359.98" stroke="black" stroke-width="1.00006" stroke-miterlimit="22.9256"/>
<path fill-rule="evenodd" clip-rule="evenodd" d="M1004.58 432.743C1006 424.038 1004.04 416.488 996.926 410.69C982.869 405.323 970.086 405.636 958.368 410.691C952.101 415.845 949.176 422.572 949.966 431.046C951.197 443.699 955.755 455.983 965.714 467.662C972.674 474.747 980.549 475.328 989.582 467.662C997.759 457.491 1002.62 445.789 1004.58 432.743Z" stroke="black" stroke-width="1.00006" stroke-miterlimit="22.9256"/>
<path d="M1009.73 518.969H928.048V593.496H1009.73V518.969Z" stroke="black" stroke-width="0.755906" stroke-miterlimit="22.9256"/>
<path d="M995.485 511.936H942.368V518.97H995.485V511.936Z" stroke="black" stroke-width="0.755906" stroke-miterlimit="22.9256"/>
<path d="M1238.48 849.416C1334.81 850.763 1385.86 817.089 1411.24 734.981C1353.59 734.981 1295.93 734.981 1238.28 734.981" stroke="black" stroke-width="0.96" stroke-miterlimit="22.9256"/>
<path d="M925.804 608.471H915.828C915.116 608.471 914.539 609.048 914.539 609.761V613.19C914.539 613.903 915.116 614.481 915.828 614.481H925.804C926.516 614.481 927.094 613.903 927.094 613.19V609.761C927.094 609.048 926.516 608.471 925.804 608.471Z" stroke="black" stroke-width="0.666709" stroke-miterlimit="22.9256"/>
<path d="M925.091 722.476H915.115C914.403 722.476 913.826 723.053 913.826 723.766V727.195C913.826 727.908 914.403 728.486 915.115 728.486H925.091C925.803 728.486 926.38 727.908 926.38 727.195V723.766C926.38 723.053 925.803 722.476 925.091 722.476Z" stroke="black" stroke-width="0.666709" stroke-miterlimit="22.9256"/>
<path d="M920.103 722.475C838.155 723.567 800.064 682.148 778.472 615.566C827.519 615.566 876.562 615.566 925.608 615.566" stroke="black" stroke-width="0.96" stroke-miterlimit="22.9256"/>
<path d="M901.447 581.013L901.447 510.776L854.053 510.776L854.053 581.013L901.447 581.013Z" stroke="black" stroke-width="5.63905" stroke-miterlimit="22.9256" stroke-linecap="round" stroke-linejoin="round"/>
<path d="M896.868 575.123L896.868 560.712L858.035 560.712L858.035 575.123L896.868 575.123Z" stroke="black" stroke-width="10.961" stroke-miterlimit="22.9256"/>
<path d="M901.332 535.463H853.938" stroke="black" stroke-width="2.00013" stroke-miterlimit="22.9256"/>
<path d="M877.749 513.126V556.672" stroke="black" stroke-width="2.00013" stroke-miterlimit="22.9256"/>
<path d="M1117.76 1113.09C1115.55 1113.09 1113.58 1112.71 1111.85 1111.95C1110.13 1111.2 1108.77 1110.14 1107.75 1108.79C1106.75 1107.43 1106.2 1105.85 1106.11 1104.06H1110.33C1110.42 1105.16 1110.8 1106.11 1111.47 1106.92C1112.14 1107.71 1113.01 1108.32 1114.09 1108.76C1115.18 1109.19 1116.38 1109.41 1117.69 1109.41C1119.17 1109.41 1120.47 1109.15 1121.61 1108.64C1122.75 1108.13 1123.64 1107.41 1124.29 1106.5C1124.93 1105.58 1125.26 1104.52 1125.26 1103.32C1125.26 1102.06 1124.95 1100.95 1124.32 1099.99C1123.7 1099.02 1122.78 1098.26 1121.58 1097.71C1120.37 1097.17 1118.9 1096.89 1117.16 1096.89H1114.41V1093.21H1117.16C1118.52 1093.21 1119.71 1092.96 1120.74 1092.47C1121.78 1091.98 1122.59 1091.29 1123.17 1090.4C1123.76 1089.51 1124.05 1088.46 1124.05 1087.25C1124.05 1086.09 1123.8 1085.08 1123.28 1084.22C1122.77 1083.36 1122.04 1082.69 1121.11 1082.21C1120.18 1081.74 1119.09 1081.5 1117.83 1081.5C1116.64 1081.5 1115.53 1081.71 1114.48 1082.15C1113.44 1082.57 1112.59 1083.19 1111.94 1084.01C1111.28 1084.81 1110.92 1085.78 1110.86 1086.92H1106.85C1106.92 1085.12 1107.46 1083.55 1108.47 1082.2C1109.49 1080.84 1110.81 1079.78 1112.45 1079.02C1114.11 1078.26 1115.92 1077.88 1117.89 1077.88C1120.01 1077.88 1121.83 1078.31 1123.35 1079.17C1124.87 1080.02 1126.03 1081.14 1126.85 1082.53C1127.66 1083.93 1128.07 1085.43 1128.07 1087.05C1128.07 1088.98 1127.56 1090.63 1126.55 1091.99C1125.54 1093.35 1124.18 1094.29 1122.45 1094.82V1095.08C1124.61 1095.44 1126.3 1096.36 1127.52 1097.85C1128.73 1099.32 1129.34 1101.14 1129.34 1103.32C1129.34 1105.18 1128.83 1106.86 1127.82 1108.34C1126.81 1109.81 1125.44 1110.97 1123.7 1111.82C1121.96 1112.67 1119.98 1113.09 1117.76 1113.09ZM1138.07 1112.89C1137.25 1112.89 1136.54 1112.6 1135.95 1112C1135.36 1111.41 1135.06 1110.7 1135.06 1109.88C1135.06 1109.05 1135.36 1108.35 1135.95 1107.75C1136.54 1107.16 1137.25 1106.87 1138.07 1106.87C1138.9 1106.87 1139.61 1107.16 1140.2 1107.75C1140.79 1108.35 1141.09 1109.05 1141.09 1109.88C1141.09 1110.43 1140.95 1110.93 1140.67 1111.39C1140.4 1111.84 1140.04 1112.21 1139.58 1112.49C1139.13 1112.76 1138.63 1112.89 1138.07 1112.89ZM1156.06 1078.35V1112.62H1151.91V1082.7H1151.71L1143.34 1088.26V1084.04L1151.91 1078.35H1156.06ZM1177.1 1113.09C1174.58 1113.09 1172.43 1112.41 1170.65 1111.03C1168.88 1109.65 1167.52 1107.65 1166.59 1105.03C1165.65 1102.39 1165.18 1099.21 1165.18 1095.49C1165.18 1091.78 1165.65 1088.62 1166.59 1086C1167.54 1083.36 1168.9 1081.36 1170.67 1079.97C1172.46 1078.58 1174.6 1077.88 1177.1 1077.88C1179.6 1077.88 1181.73 1078.58 1183.51 1079.97C1185.29 1081.36 1186.65 1083.36 1187.59 1086C1188.54 1088.62 1189.01 1091.78 1189.01 1095.49C1189.01 1099.21 1188.54 1102.39 1187.61 1105.03C1186.67 1107.65 1185.31 1109.65 1183.54 1111.03C1181.77 1112.41 1179.62 1113.09 1177.1 1113.09ZM1177.1 1109.41C1179.6 1109.41 1181.54 1108.21 1182.92 1105.8C1184.31 1103.39 1185 1099.95 1185 1095.49C1185 1092.52 1184.68 1089.99 1184.04 1087.91C1183.42 1085.82 1182.51 1084.23 1181.33 1083.14C1180.16 1082.04 1178.75 1081.5 1177.1 1081.5C1174.62 1081.5 1172.68 1082.72 1171.29 1085.16C1169.9 1087.59 1169.2 1091.03 1169.2 1095.49C1169.2 1098.45 1169.51 1100.98 1170.14 1103.05C1170.76 1105.13 1171.66 1106.71 1172.83 1107.79C1174.01 1108.87 1175.44 1109.41 1177.1 1109.41Z" fill="black"/>
<path d="M1104.89 893.911C1103.48 893.889 1102.08 893.621 1100.67 893.108C1099.26 892.594 1097.98 891.73 1096.82 890.514C1095.66 889.286 1094.73 887.629 1094.03 885.543C1093.32 883.445 1092.97 880.812 1092.97 877.644C1092.97 874.609 1093.26 871.92 1093.82 869.577C1094.39 867.223 1095.22 865.242 1096.3 863.636C1097.38 862.018 1098.69 860.791 1100.22 859.954C1101.76 859.117 1103.49 858.699 1105.42 858.699C1107.34 858.699 1109.05 859.083 1110.54 859.853C1112.05 860.612 1113.28 861.672 1114.23 863.033C1115.17 864.394 1115.79 865.962 1116.07 867.736H1111.98C1111.6 866.196 1110.87 864.919 1109.77 863.903C1108.68 862.888 1107.23 862.38 1105.42 862.38C1102.77 862.38 1100.68 863.535 1099.15 865.845C1097.63 868.154 1096.87 871.396 1096.85 875.568H1097.12C1097.75 874.62 1098.49 873.811 1099.35 873.142C1100.22 872.461 1101.18 871.937 1102.23 871.568C1103.28 871.2 1104.39 871.016 1105.56 871.016C1107.52 871.016 1109.32 871.507 1110.95 872.489C1112.57 873.46 1113.88 874.804 1114.86 876.522C1115.84 878.229 1116.33 880.188 1116.33 882.397C1116.33 884.517 1115.86 886.458 1114.91 888.221C1113.96 889.972 1112.63 891.367 1110.91 892.405C1109.21 893.431 1107.2 893.933 1104.89 893.911ZM1104.89 890.229C1106.29 890.229 1107.55 889.878 1108.67 889.175C1109.8 888.472 1110.68 887.529 1111.33 886.346C1111.99 885.164 1112.32 883.847 1112.32 882.397C1112.32 880.98 1112 879.691 1111.36 878.531C1110.74 877.359 1109.87 876.427 1108.77 875.736C1107.68 875.044 1106.43 874.698 1105.02 874.698C1103.96 874.698 1102.97 874.91 1102.06 875.334C1101.14 875.747 1100.34 876.316 1099.65 877.041C1098.97 877.766 1098.43 878.598 1098.04 879.535C1097.65 880.461 1097.46 881.437 1097.46 882.464C1097.46 883.825 1097.77 885.097 1098.41 886.279C1099.06 887.462 1099.94 888.416 1101.05 889.141C1102.18 889.866 1103.46 890.229 1104.89 890.229ZM1124.25 893.71C1123.43 893.71 1122.72 893.414 1122.13 892.823C1121.53 892.232 1121.24 891.523 1121.24 890.698C1121.24 889.872 1121.53 889.164 1122.13 888.572C1122.72 887.981 1123.43 887.685 1124.25 887.685C1125.08 887.685 1125.79 887.981 1126.38 888.572C1126.97 889.164 1127.26 889.872 1127.26 890.698C1127.26 891.244 1127.12 891.746 1126.85 892.204C1126.58 892.661 1126.21 893.03 1125.76 893.308C1125.31 893.576 1124.81 893.71 1124.25 893.71ZM1133.48 886.413V882.999L1148.54 859.167H1151.02V864.456H1149.35L1137.97 882.464V882.731H1158.25V886.413H1133.48ZM1149.61 893.442V885.376V883.786V859.167H1153.56V893.442H1149.61ZM1175.7 893.911C1173.18 893.911 1171.03 893.225 1169.26 891.852C1167.48 890.469 1166.13 888.466 1165.19 885.844C1164.25 883.211 1163.79 880.031 1163.79 876.305C1163.79 872.601 1164.25 869.437 1165.19 866.815C1166.14 864.182 1167.5 862.174 1169.27 860.791C1171.06 859.396 1173.2 858.699 1175.7 858.699C1178.2 858.699 1180.34 859.396 1182.11 860.791C1183.9 862.174 1185.26 864.182 1186.19 866.815C1187.14 869.437 1187.62 872.601 1187.62 876.305C1187.62 880.031 1187.15 883.211 1186.21 885.844C1185.27 888.466 1183.92 890.469 1182.14 891.852C1180.37 893.225 1178.22 893.911 1175.7 893.911ZM1175.7 890.229C1178.2 890.229 1180.14 889.024 1181.53 886.614C1182.91 884.204 1183.6 880.768 1183.6 876.305C1183.6 873.337 1183.28 870.81 1182.65 868.723C1182.02 866.637 1181.12 865.047 1179.94 863.954C1178.76 862.86 1177.35 862.314 1175.7 862.314C1173.22 862.314 1171.29 863.535 1169.89 865.979C1168.5 868.411 1167.8 871.853 1167.8 876.305C1167.8 879.273 1168.11 881.794 1168.74 883.869C1169.36 885.945 1170.26 887.523 1171.43 888.606C1172.62 889.688 1174.04 890.229 1175.7 890.229Z" fill="black"/>
<path d="M497.777 1058.69V1092.97H493.627V1063.04H493.426L485.058 1068.6V1064.38L493.627 1058.69H497.777ZM519.684 1058.69V1092.97H515.534V1063.04H515.333L506.965 1068.6V1064.38L515.534 1058.69H519.684ZM530.462 1093.23C529.637 1093.23 528.928 1092.94 528.337 1092.35C527.746 1091.76 527.45 1091.05 527.45 1090.22C527.45 1089.4 527.746 1088.69 528.337 1088.1C528.928 1087.51 529.637 1087.21 530.462 1087.21C531.288 1087.21 531.997 1087.51 532.588 1088.1C533.179 1088.69 533.475 1089.4 533.475 1090.22C533.475 1090.77 533.335 1091.27 533.056 1091.73C532.789 1092.19 532.426 1092.55 531.969 1092.83C531.522 1093.1 531.02 1093.23 530.462 1093.23ZM539.692 1085.94V1082.52L554.755 1058.69H557.232V1063.98H555.558L544.178 1081.99V1082.26H564.462V1085.94H539.692ZM555.826 1092.97V1084.9V1083.31V1058.69H559.775V1092.97H555.826ZM581.913 1093.44C579.391 1093.44 577.244 1092.75 575.47 1091.38C573.696 1089.99 572.34 1087.99 571.403 1085.37C570.466 1082.74 569.997 1079.56 569.997 1075.83C569.997 1072.12 570.466 1068.96 571.403 1066.34C572.351 1063.71 573.712 1061.7 575.486 1060.31C577.271 1058.92 579.414 1058.22 581.913 1058.22C584.412 1058.22 586.549 1058.92 588.323 1060.31C590.108 1061.7 591.469 1063.71 592.406 1066.34C593.355 1068.96 593.829 1072.12 593.829 1075.83C593.829 1079.56 593.36 1082.74 592.423 1085.37C591.486 1087.99 590.13 1089.99 588.356 1091.38C586.582 1092.75 584.434 1093.44 581.913 1093.44ZM581.913 1089.75C584.412 1089.75 586.354 1088.55 587.737 1086.14C589.121 1083.73 589.812 1080.29 589.812 1075.83C589.812 1072.86 589.494 1070.33 588.858 1068.25C588.234 1066.16 587.33 1064.57 586.147 1063.48C584.976 1062.38 583.564 1061.84 581.913 1061.84C579.436 1061.84 577.5 1063.06 576.106 1065.5C574.711 1067.94 574.014 1071.38 574.014 1075.83C574.014 1078.8 574.326 1081.32 574.951 1083.39C575.576 1085.47 576.474 1087.05 577.645 1088.13C578.828 1089.21 580.25 1089.75 581.913 1089.75Z" fill="black"/>
<path d="M588.383 657.629V691.904H584.232V661.98H584.032L575.664 667.536V663.319L584.232 657.629H588.383ZM610.29 657.629V691.904H606.14V661.98H605.939L597.571 667.536V663.319L606.14 657.629H610.29ZM621.068 692.172C620.242 692.172 619.534 691.876 618.943 691.285C618.351 690.693 618.056 689.985 618.056 689.159C618.056 688.334 618.351 687.625 618.943 687.034C619.534 686.442 620.242 686.147 621.068 686.147C621.894 686.147 622.602 686.442 623.193 687.034C623.785 687.625 624.08 688.334 624.08 689.159C624.08 689.706 623.941 690.208 623.662 690.665C623.394 691.123 623.032 691.491 622.574 691.77C622.128 692.038 621.626 692.172 621.068 692.172ZM631.101 691.904V688.891L642.415 676.507C643.742 675.056 644.836 673.796 645.695 672.725C646.554 671.642 647.19 670.627 647.603 669.679C648.027 668.719 648.239 667.715 648.239 666.666C648.239 665.461 647.949 664.418 647.368 663.537C646.799 662.655 646.018 661.975 645.025 661.495C644.032 661.015 642.917 660.775 641.678 660.775C640.362 660.775 639.212 661.049 638.231 661.595C637.26 662.131 636.507 662.884 635.971 663.855C635.447 664.825 635.185 665.963 635.185 667.269H631.235C631.235 665.26 631.698 663.498 632.624 661.98C633.55 660.463 634.811 659.28 636.406 658.432C638.013 657.584 639.815 657.16 641.812 657.16C643.82 657.16 645.6 657.584 647.151 658.432C648.702 659.28 649.918 660.424 650.799 661.863C651.681 663.302 652.121 664.903 652.121 666.666C652.121 667.927 651.893 669.16 651.435 670.365C650.989 671.559 650.208 672.892 649.092 674.365C647.988 675.826 646.453 677.611 644.49 679.72L636.791 687.954V688.222H652.724V691.904H631.101ZM670.815 692.372C668.294 692.372 666.146 691.686 664.372 690.314C662.598 688.93 661.242 686.928 660.305 684.306C659.368 681.673 658.899 678.493 658.899 674.766C658.899 671.062 659.368 667.899 660.305 665.277C661.253 662.644 662.615 660.636 664.389 659.252C666.174 657.858 668.316 657.16 670.815 657.16C673.314 657.16 675.451 657.858 677.225 659.252C679.01 660.636 680.371 662.644 681.309 665.277C682.257 667.899 682.731 671.062 682.731 674.766C682.731 678.493 682.263 681.673 681.325 684.306C680.388 686.928 679.032 688.93 677.259 690.314C675.485 691.686 673.337 692.372 670.815 692.372ZM670.815 688.691C673.314 688.691 675.256 687.486 676.639 685.076C678.023 682.666 678.715 679.229 678.715 674.766C678.715 671.799 678.397 669.271 677.761 667.185C677.136 665.099 676.232 663.509 675.049 662.415C673.878 661.322 672.466 660.775 670.815 660.775C668.338 660.775 666.403 661.997 665.008 664.44C663.613 666.873 662.916 670.315 662.916 674.766C662.916 677.734 663.228 680.256 663.853 682.331C664.478 684.406 665.376 685.985 666.548 687.067C667.73 688.149 669.153 688.691 670.815 688.691Z" fill="black"/>
<path d="M1020.44 495.477V492.063L1035.51 468.231H1037.98V473.519H1036.31L1024.93 491.527V491.795H1045.21V495.477H1020.44ZM1036.58 502.506V494.439V492.849V468.231H1040.53V502.506H1036.58ZM1052.82 502.774C1051.99 502.774 1051.29 502.478 1050.7 501.887C1050.1 501.295 1049.81 500.587 1049.81 499.761C1049.81 498.936 1050.1 498.227 1050.7 497.636C1051.29 497.044 1051.99 496.749 1052.82 496.749C1053.65 496.749 1054.35 497.044 1054.95 497.636C1055.54 498.227 1055.83 498.936 1055.83 499.761C1055.83 500.308 1055.69 500.81 1055.41 501.267C1055.15 501.725 1054.78 502.093 1054.33 502.372C1053.88 502.64 1053.38 502.774 1052.82 502.774ZM1062.85 502.506V499.493L1074.17 487.109C1075.5 485.658 1076.59 484.398 1077.45 483.326C1078.31 482.244 1078.94 481.229 1079.36 480.281C1079.78 479.321 1079.99 478.317 1079.99 477.268C1079.99 476.063 1079.7 475.02 1079.12 474.138C1078.55 473.257 1077.77 472.576 1076.78 472.097C1075.79 471.617 1074.67 471.377 1073.43 471.377C1072.11 471.377 1070.97 471.65 1069.98 472.197C1069.01 472.733 1068.26 473.486 1067.72 474.456C1067.2 475.427 1066.94 476.565 1066.94 477.871H1062.99C1062.99 475.862 1063.45 474.099 1064.38 472.582C1065.3 471.065 1066.56 469.882 1068.16 469.034C1069.77 468.186 1071.57 467.762 1073.56 467.762C1075.57 467.762 1077.35 468.186 1078.9 469.034C1080.45 469.882 1081.67 471.026 1082.55 472.465C1083.43 473.904 1083.87 475.505 1083.87 477.268C1083.87 478.529 1083.65 479.762 1083.19 480.967C1082.74 482.161 1081.96 483.494 1080.84 484.967C1079.74 486.428 1078.21 488.213 1076.24 490.322L1068.54 498.556V498.824H1084.48V502.506H1062.85ZM1102.57 502.974C1100.05 502.974 1097.9 502.288 1096.12 500.916C1094.35 499.532 1093 497.53 1092.06 494.908C1091.12 492.275 1090.65 489.095 1090.65 485.368C1090.65 481.664 1091.12 478.501 1092.06 475.879C1093.01 473.246 1094.37 471.238 1096.14 469.854C1097.93 468.459 1100.07 467.762 1102.57 467.762C1105.07 467.762 1107.2 468.459 1108.98 469.854C1110.76 471.238 1112.12 473.246 1113.06 475.879C1114.01 478.501 1114.48 481.664 1114.48 485.368C1114.48 489.095 1114.02 492.275 1113.08 494.908C1112.14 497.53 1110.79 499.532 1109.01 500.916C1107.24 502.288 1105.09 502.974 1102.57 502.974ZM1102.57 499.293C1105.07 499.293 1107.01 498.088 1108.39 495.678C1109.78 493.268 1110.47 489.831 1110.47 485.368C1110.47 482.4 1110.15 479.873 1109.51 477.787C1108.89 475.7 1107.99 474.111 1106.8 473.017C1105.63 471.924 1104.22 471.377 1102.57 471.377C1100.09 471.377 1098.16 472.599 1096.76 475.042C1095.37 477.474 1094.67 480.916 1094.67 485.368C1094.67 488.336 1094.98 490.858 1095.61 492.933C1096.23 495.008 1097.13 496.587 1098.3 497.669C1099.48 498.751 1100.91 499.293 1102.57 499.293Z" fill="black"/>
<path d="M258.891 563.726V560.713L270.205 548.329C271.532 546.878 272.626 545.617 273.485 544.546C274.344 543.464 274.98 542.449 275.393 541.5C275.817 540.541 276.029 539.537 276.029 538.488C276.029 537.283 275.739 536.24 275.158 535.358C274.589 534.477 273.808 533.796 272.815 533.317C271.822 532.837 270.707 532.597 269.468 532.597C268.152 532.597 267.003 532.87 266.021 533.417C265.05 533.953 264.297 534.706 263.761 535.676C263.237 536.647 262.975 537.785 262.975 539.09H259.025C259.025 537.082 259.488 535.319 260.414 533.802C261.34 532.285 262.601 531.102 264.197 530.254C265.803 529.406 267.605 528.982 269.602 528.982C271.61 528.982 273.39 529.406 274.941 530.254C276.492 531.102 277.708 532.246 278.589 533.685C279.471 535.124 279.911 536.725 279.911 538.488C279.911 539.749 279.683 540.982 279.225 542.187C278.779 543.38 277.998 544.714 276.882 546.186C275.778 547.648 274.244 549.433 272.28 551.542L264.581 559.776V560.044H280.514V563.726H258.891ZM290.371 563.993C289.546 563.993 288.837 563.698 288.246 563.106C287.655 562.515 287.359 561.807 287.359 560.981C287.359 560.155 287.655 559.447 288.246 558.855C288.837 558.264 289.546 557.968 290.371 557.968C291.197 557.968 291.905 558.264 292.497 558.855C293.088 559.447 293.384 560.155 293.384 560.981C293.384 561.528 293.244 562.03 292.965 562.487C292.698 562.945 292.335 563.313 291.878 563.592C291.431 563.859 290.929 563.993 290.371 563.993ZM310.994 528.982C312.4 528.993 313.806 529.261 315.211 529.785C316.617 530.31 317.9 531.18 319.061 532.396C320.221 533.601 321.153 535.247 321.856 537.333C322.558 539.42 322.91 542.036 322.91 545.182C322.91 548.228 322.62 550.934 322.04 553.299C321.471 555.653 320.645 557.639 319.563 559.257C318.492 560.875 317.186 562.102 315.647 562.939C314.118 563.776 312.389 564.194 310.458 564.194C308.539 564.194 306.827 563.815 305.321 563.056C303.826 562.286 302.598 561.221 301.639 559.86C300.69 558.487 300.082 556.897 299.815 555.09H303.898C304.266 556.663 304.997 557.963 306.09 558.989C307.195 560.005 308.651 560.512 310.458 560.512C313.103 560.512 315.189 559.358 316.718 557.048C318.257 554.738 319.027 551.475 319.027 547.258H318.759C318.135 548.195 317.393 549.004 316.534 549.684C315.674 550.365 314.721 550.889 313.672 551.257C312.623 551.626 311.507 551.81 310.325 551.81C308.361 551.81 306.559 551.324 304.919 550.354C303.29 549.372 301.985 548.027 301.003 546.32C300.032 544.602 299.547 542.638 299.547 540.429C299.547 538.332 300.015 536.413 300.953 534.672C301.901 532.921 303.229 531.526 304.936 530.488C306.654 529.451 308.673 528.949 310.994 528.982ZM310.994 532.664C309.588 532.664 308.322 533.015 307.195 533.718C306.079 534.41 305.192 535.347 304.534 536.53C303.887 537.701 303.563 539.001 303.563 540.429C303.563 541.857 303.876 543.157 304.501 544.329C305.137 545.489 306.001 546.415 307.095 547.107C308.199 547.788 309.454 548.128 310.86 548.128C311.92 548.128 312.908 547.921 313.822 547.509C314.737 547.085 315.535 546.51 316.216 545.785C316.907 545.048 317.448 544.217 317.839 543.291C318.229 542.354 318.425 541.378 318.425 540.362C318.425 539.024 318.101 537.768 317.454 536.597C316.818 535.425 315.937 534.477 314.81 533.752C313.694 533.027 312.422 532.664 310.994 532.664ZM340.671 564.194C338.149 564.194 336.002 563.508 334.228 562.136C332.454 560.752 331.098 558.749 330.161 556.128C329.224 553.494 328.755 550.315 328.755 546.588C328.755 542.884 329.224 539.721 330.161 537.099C331.109 534.466 332.47 532.457 334.244 531.074C336.029 529.679 338.172 528.982 340.671 528.982C343.17 528.982 345.307 529.679 347.081 531.074C348.866 532.457 350.227 534.466 351.164 537.099C352.113 539.721 352.587 542.884 352.587 546.588C352.587 550.315 352.118 553.494 351.181 556.128C350.244 558.749 348.888 560.752 347.114 562.136C345.34 563.508 343.192 564.194 340.671 564.194ZM340.671 560.512C343.17 560.512 345.111 559.307 346.495 556.897C347.878 554.487 348.57 551.051 348.57 546.588C348.57 543.62 348.252 541.093 347.616 539.007C346.991 536.92 346.088 535.33 344.905 534.237C343.733 533.144 342.322 532.597 340.671 532.597C338.194 532.597 336.258 533.819 334.863 536.262C333.469 538.694 332.772 542.136 332.772 546.588C332.772 549.556 333.084 552.077 333.709 554.153C334.334 556.228 335.232 557.807 336.403 558.889C337.586 559.971 339.008 560.512 340.671 560.512Z" fill="black"/>
<path d="M928.047 357.515H913.582V608.471H928.047V357.515Z" fill="black"/>
</svg>
