<?xml version="1.0" encoding="UTF-8"?>
<!DOCTYPE svg PUBLIC "-//W3C//DTD SVG 1.1//EN" "http://www.w3.org/Graphics/SVG/1.1/DTD/svg11.dtd">
<!-- Creator: CorelDRAW -->
<svg xmlns="http://www.w3.org/2000/svg" xml:space="preserve" width="400mm" height="400mm" version="1.1" style="shape-rendering:geometricPrecision; text-rendering:geometricPrecision; image-rendering:optimizeQuality; fill-rule:evenodd; clip-rule:evenodd"
viewBox="0 0 40000 40000"
 xmlns:xlink="http://www.w3.org/1999/xlink"
 xmlns:xodm="http://www.corel.com/coreldraw/odm/2003">
 <defs>
  <style type="text/css">
   <![CDATA[
    .str17 {stroke:#1F1B20;stroke-width:16.9;stroke-miterlimit:22.9256}
    .str14 {stroke:#1F1B20;stroke-width:40;stroke-miterlimit:22.9256}
    .str13 {stroke:#3A3A3A;stroke-width:40;stroke-miterlimit:22.9256}
    .str16 {stroke:black;stroke-width:40;stroke-miterlimit:22.9256}
    .str12 {stroke:black;stroke-width:20;stroke-miterlimit:22.9256}
    .str18 {stroke:#2B2A29;stroke-width:25.4;stroke-miterlimit:22.9256}
    .str15 {stroke:black;stroke-width:40;stroke-linecap:round;stroke-linejoin:round;stroke-miterlimit:22.9256}
    .str4 {stroke:black;stroke-width:64.15;stroke-linecap:round;stroke-linejoin:round;stroke-miterlimit:10}
    .str9 {stroke:black;stroke-width:92.6;stroke-linecap:round;stroke-linejoin:round;stroke-miterlimit:10}
    .str0 {stroke:black;stroke-width:92.6;stroke-linecap:round;stroke-linejoin:round;stroke-miterlimit:10}
    .str6 {stroke:black;stroke-width:92.6;stroke-linecap:round;stroke-linejoin:round;stroke-miterlimit:10}
    .str5 {stroke:black;stroke-width:16.03;stroke-linecap:round;stroke-linejoin:round;stroke-miterlimit:10}
    .str3 {stroke:black;stroke-width:16.03;stroke-linecap:round;stroke-linejoin:round;stroke-miterlimit:10}
    .str8 {stroke:black;stroke-width:75;stroke-linecap:round;stroke-linejoin:round;stroke-miterlimit:10}
    .str2 {stroke:black;stroke-width:119.07;stroke-linecap:round;stroke-linejoin:round;stroke-miterlimit:10}
    .str11 {stroke:black;stroke-width:119.07;stroke-linecap:round;stroke-linejoin:round;stroke-miterlimit:10}
    .str7 {stroke:black;stroke-width:119.07;stroke-linecap:round;stroke-linejoin:round;stroke-miterlimit:10}
    .str21 {stroke:black;stroke-width:52.91;stroke-linecap:round;stroke-linejoin:round;stroke-miterlimit:10}
    .str1 {stroke:black;stroke-width:52.91;stroke-linecap:round;stroke-linejoin:round;stroke-miterlimit:10}
    .str10 {stroke:black;stroke-width:52.91;stroke-linecap:round;stroke-linejoin:round;stroke-miterlimit:10}
    .str19 {stroke:black;stroke-width:52.91;stroke-linecap:round;stroke-linejoin:round;stroke-miterlimit:10}
    .str20 {stroke:black;stroke-width:52.91;stroke-linecap:round;stroke-linejoin:round;stroke-miterlimit:10}
    .fil5 {fill:none}
    .fil2 {fill:none;fill-rule:nonzero}
    .fil3 {fill:black}
    .fil4 {fill:black}
    .fil1 {fill:black;fill-rule:nonzero}
    .fil0 {fill:black;fill-rule:nonzero}
    .fnt0 {font-weight:normal;font-size:882.12px;font-family:'Arial'}
   ]]>
  </style>
 </defs>
 <g id="Слой_x0020_1">
  <metadata id="CorelCorpID_0Corel-Layer"/>
  <g>
   <polygon class="fil0" points="32912.1,6653.04 30807.78,6653.04 30807.78,7155.78 32912.1,7155.78 "/>
   <path id="_1" class="fil1" d="M30807.78 6615.54l2104.32 0 0 75 -2104.32 0 -51.42 -37.5 51.42 -37.5zm0 75c-28.39,0 -51.42,-16.79 -51.42,-37.5 0,-20.71 23.03,-37.5 51.42,-37.5l0 75zm-51.42 465.24l0 -502.74 102.84 0 0 502.74 -51.42 37.5 -51.42 -37.5zm102.84 0c0,20.71 -23.03,37.5 -51.42,37.5 -28.39,0 -51.42,-16.79 -51.42,-37.5l102.84 0zm2052.9 37.5l-2104.32 0 0 -75 2104.32 0 51.42 37.5 -51.42 37.5zm0 -75c28.39,0 51.42,16.79 51.42,37.5 0,20.71 -23.03,37.5 -51.42,37.5l0 -75zm51.42 -465.24l0 502.74 -102.84 0 0 -502.74 51.42 -37.5 51.42 37.5zm-102.84 0c0,-20.71 23.03,-37.5 51.42,-37.5 28.39,0 51.42,16.79 51.42,37.5l-102.84 0z"/>
  </g>
  <g>
   <polygon class="fil0" points="26256.76,6653.04 24216.23,6653.04 24216.23,7155.78 26256.76,7155.78 "/>
   <path id="_1_0" class="fil1" d="M24216.23 6615.54l2040.53 0 0 75 -2040.53 0 -43.82 -37.5 43.82 -37.5zm0 75c-24.2,0 -43.82,-16.79 -43.82,-37.5 0,-20.71 19.62,-37.5 43.82,-37.5l0 75zm-43.82 465.24l0 -502.74 87.64 0 0 502.74 -43.82 37.5 -43.82 -37.5zm87.64 0c0,20.71 -19.62,37.5 -43.82,37.5 -24.2,0 -43.82,-16.79 -43.82,-37.5l87.64 0zm1996.71 37.5l-2040.53 0 0 -75 2040.53 0 43.82 37.5 -43.82 37.5zm0 -75c24.2,0 43.82,16.79 43.82,37.5 0,20.71 -19.62,37.5 -43.82,37.5l0 -75zm43.82 -465.24l0 502.74 -87.64 0 0 -502.74 43.82 -37.5 43.82 37.5zm-87.64 0c0,-20.71 19.62,-37.5 43.82,-37.5 24.2,0 43.82,16.79 43.82,37.5l-87.64 0z"/>
  </g>
  <g>
   <polygon class="fil0" points="24216.22,6653.04 22261.37,6653.04 22261.37,7155.78 24216.22,7155.78 "/>
   <path id="_1_1" class="fil1" d="M22261.37 6615.54l1954.85 0 0 75 -1954.85 0 -41.98 -37.5 41.98 -37.5zm0 75c-23.18,0 -41.98,-16.79 -41.98,-37.5 0,-20.71 18.8,-37.5 41.98,-37.5l0 75zm-41.98 465.24l0 -502.74 83.96 0 0 502.74 -41.98 37.5 -41.98 -37.5zm83.96 0c0,20.71 -18.8,37.5 -41.98,37.5 -23.18,0 -41.98,-16.79 -41.98,-37.5l83.96 0zm1912.87 37.5l-1954.85 0 0 -75 1954.85 0 41.98 37.5 -41.98 37.5zm0 -75c23.18,0 41.98,16.79 41.98,37.5 0,20.71 -18.8,37.5 -41.98,37.5l0 -75zm41.98 -465.24l0 502.74 -83.96 0 0 -502.74 41.98 -37.5 41.98 37.5zm-83.96 0c0,-20.71 18.8,-37.5 41.98,-37.5 23.18,0 41.98,16.79 41.98,37.5l-83.96 0z"/>
  </g>
  <g id="_2286459554688">
   <line class="fil2 str0" x1="30807.77" y1="7155.78" x2="26256.76" y2= "7155.78" />
   <polygon class="fil2 str0" points="26494.9,6282.62 30556.42,6282.62 30556.42,6454.6 26494.9,6454.6 "/>
   <polygon class="fil2 str0" points="30556.42,6282.62 30741.65,6282.62 30741.65,6454.6 30556.42,6454.6 "/>
   <polygon class="fil2 str0" points="26494.9,6282.62 26322.89,6282.62 26322.89,6454.6 26494.9,6454.6 "/>
   <line class="fil2 str0" x1="30675.49" y1="5978.32" x2="26375.83" y2= "5978.32" />
   <line class="fil2 str0" x1="22261.37" y1="7155.78" x2="17723.57" y2= "7155.78" />
   <polygon class="fil2 str0" points="17961.71,6282.62 22023.23,6282.62 22023.23,6454.6 17961.71,6454.6 "/>
   <polygon class="fil2 str0" points="22023.23,6282.62 22195.21,6282.62 22195.21,6454.6 22023.23,6454.6 "/>
   <polygon class="fil2 str0" points="17961.71,6282.62 17776.48,6282.62 17776.48,6454.6 17961.71,6454.6 "/>
   <line class="fil2 str0" x1="22142.3" y1="5978.32" x2="17842.64" y2= "5978.32" />
  </g>
  <g id="_2286465890240">
   <g>
    <polygon class="fil0" points="32845.19,13850.05 27698.79,13850.05 27698.79,15212.7 27977.36,15212.7 27977.36,14101.4 32845.19,14101.4 "/>
    <path id="_1_2" class="fil1" d="M27698.79 13790.52l5146.4 0 0 119.06 -5146.4 0 -65.98 -59.53 65.98 -59.53zm0 119.06c-36.43,0 -65.98,-26.66 -65.98,-59.53 0,-32.87 29.55,-59.53 65.98,-59.53l0 119.06zm-65.98 1303.12l0 -1362.65 131.96 0 0 1362.65 -65.98 59.53 -65.98 -59.53zm131.96 0c0,32.87 -29.55,59.53 -65.98,59.53 -36.43,0 -65.98,-26.66 -65.98,-59.53l131.96 0zm212.59 59.53l-278.57 0 0 -119.06 278.57 0 65.98 59.53 -65.98 59.53zm0 -119.06c36.43,0 65.98,26.66 65.98,59.53 0,32.87 -29.55,59.53 -65.98,59.53l0 -119.06zm65.98 -1051.77l0 1111.3 -131.96 0 0 -1111.3 65.98 -59.53 65.98 59.53zm-131.96 0c0,-32.87 29.55,-59.53 65.98,-59.53 36.43,0 65.98,26.66 65.98,59.53l-131.96 0zm4933.81 59.53l-4867.83 0 0 -119.06 4867.83 0 65.98 59.53 -65.98 59.53zm0 -119.06c36.43,0 65.98,26.66 65.98,59.53 0,32.87 -29.55,59.53 -65.98,59.53l0 -119.06zm65.98 -191.82l0 251.35 -131.96 0 0 -251.35 65.98 -59.53 65.98 59.53zm-131.96 0c0,-32.87 29.55,-59.53 65.98,-59.53 36.43,0 65.98,26.66 65.98,59.53l-131.96 0z"/>
   </g>
   <g>
    <polygon class="fil0" points="27977.36,19327.16 32845.19,19327.16 32845.19,19591.74 27977.36,19591.74 "/>
    <path id="_1_3" class="fil1" d="M32845.19 19386.69l-4867.83 0 0 -119.06 4867.83 0 65.98 59.53 -65.98 59.53zm0 -119.06c36.43,0 65.98,26.66 65.98,59.53 0,32.87 -29.55,59.53 -65.98,59.53l0 -119.06zm-65.98 324.11l0 -264.58 131.96 0 0 264.58 -65.98 59.53 -65.98 -59.53zm131.96 0c0,32.87 -29.55,59.53 -65.98,59.53 -36.43,0 -65.98,-26.66 -65.98,-59.53l131.96 0zm-4933.81 -59.53l4867.83 0 0 119.06 -4867.83 0 -65.98 -59.53 65.98 -59.53zm0 119.06c-36.43,0 -65.98,-26.66 -65.98,-59.53 0,-32.87 29.55,-59.53 65.98,-59.53l0 119.06zm65.98 -324.11l0 264.58 -131.96 0 0 -264.58 65.98 -59.53 65.98 59.53zm-131.96 0c0,-32.87 29.55,-59.53 65.98,-59.53 36.43,0 65.98,26.66 65.98,59.53l-131.96 0z"/>
   </g>
   <g>
    <polygon class="fil0" points="27698.79,17263.32 27977.36,17263.32 27977.36,19684.36 27698.79,19684.36 "/>
    <path id="_1_4" class="fil1" d="M27977.36 17322.85l-278.57 0 0 -119.06 278.57 0 65.98 59.53 -65.98 59.53zm0 -119.06c36.43,0 65.98,26.66 65.98,59.53 0,32.87 -29.55,59.53 -65.98,59.53l0 -119.06zm-65.98 2480.57l0 -2421.04 131.96 0 0 2421.04 -65.98 59.53 -65.98 -59.53zm131.96 0c0,32.87 -29.55,59.53 -65.98,59.53 -36.43,0 -65.98,-26.66 -65.98,-59.53l131.96 0zm-344.55 -59.53l278.57 0 0 119.06 -278.57 0 -65.98 -59.53 65.98 -59.53zm0 119.06c-36.43,0 -65.98,-26.66 -65.98,-59.53 0,-32.87 29.55,-59.53 65.98,-59.53l0 119.06zm65.98 -2480.57l0 2421.04 -131.96 0 0 -2421.04 65.98 -59.53 65.98 59.53zm-131.96 0c0,-32.87 29.55,-59.53 65.98,-59.53 36.43,0 65.98,26.66 65.98,59.53l-131.96 0z"/>
   </g>
   <g>
    <polygon class="fil0" points="32845.19,22568.43 27698.79,22568.43 27698.79,21734.96 27977.36,21734.96 27977.36,22317.07 32845.19,22317.07 "/>
    <path id="_1_5" class="fil1" d="M27698.79 22508.9l5146.4 0 0 119.06 -5146.4 0 -65.98 -59.53 65.98 -59.53zm0 119.06c-36.43,0 -65.98,-26.66 -65.98,-59.53 0,-32.87 29.55,-59.53 65.98,-59.53l0 119.06zm65.98 -893l0 833.47 -131.96 0 0 -833.47 65.98 -59.53 65.98 59.53zm-131.96 0c0,-32.87 29.55,-59.53 65.98,-59.53 36.43,0 65.98,26.66 65.98,59.53l-131.96 0zm344.55 59.53l-278.57 0 0 -119.06 278.57 0 65.98 59.53 -65.98 59.53zm0 -119.06c36.43,0 65.98,26.66 65.98,59.53 0,32.87 -29.55,59.53 -65.98,59.53l0 -119.06zm-65.98 641.64l0 -582.11 131.96 0 0 582.11 -65.98 59.53 -65.98 -59.53zm131.96 0c0,32.87 -29.55,59.53 -65.98,59.53 -36.43,0 -65.98,-26.66 -65.98,-59.53l131.96 0zm4801.85 59.53l-4867.83 0 0 -119.06 4867.83 0 65.98 59.53 -65.98 59.53zm0 -119.06c36.43,0 65.98,26.66 65.98,59.53 0,32.87 -29.55,59.53 -65.98,59.53l0 -119.06zm-65.98 310.89l0 -251.36 131.96 0 0 251.36 -65.98 59.53 -65.98 -59.53zm131.96 0c0,32.87 -29.55,59.53 -65.98,59.53 -36.43,0 -65.98,-26.66 -65.98,-59.53l131.96 0z"/>
   </g>
  </g>
  <polygon class="fil2 str1" points="27698.79,19816.65 27698.79,19684.36 27950.15,19684.36 27950.15,19816.65 "/>
  <polygon class="fil2 str1" points="27698.79,21734.96 27698.79,21602.67 27950.15,21602.67 27950.15,21734.96 "/>
  <polygon class="fil2 str1" points="27698.79,15344.99 27698.79,15212.7 27950.15,15212.7 27950.15,15344.99 "/>
  <polygon class="fil2 str1" points="27698.79,17263.32 27698.79,17131 27950.15,17131 27950.15,17263.32 "/>
  <polygon class="fil0 str2" points="27698.79,13850.05 27698.79,14101.4 27235.74,14101.4 27235.74,13850.05 "/>
  <polygon class="fil2 str1" points="27116.67,13850.05 27235.74,13850.05 27235.74,14101.4 27116.67,14101.4 "/>
  <polygon class="fil2 str1" points="24947.02,13850.05 25066.08,13850.05 25066.08,14101.4 24947.02,14101.4 "/>
  <g id="_2324163878992">
   <line class="fil2 str3" x1="30937.13" y1="28707.32" x2="30937.13" y2= "27167.47" />
   <polygon class="fil2 str4" points="32765.7,27167.47 32765.7,28707.32 30937.13,28707.32 30937.13,27167.47 "/>
   <polygon class="fil2 str4" points="31017.34,27263.71 31017.34,28611.08 32364.71,28611.08 32364.71,27263.71 "/>
   <line class="fil2 str3" x1="31017.34" y1="27263.71" x2="31225.85" y2= "27472.22" />
   <line class="fil2 str3" x1="31482.48" y1="27728.85" x2="31899.53" y2= "28145.9" />
   <line class="fil2 str3" x1="32156.16" y1="28402.53" x2="32364.71" y2= "28611.08" />
   <line class="fil2 str3" x1="32364.71" y1="27263.71" x2="32156.16" y2= "27472.22" />
   <line class="fil2 str3" x1="31899.53" y1="27728.85" x2="31482.48" y2= "28145.9" />
   <line class="fil2 str3" x1="31225.85" y1="28402.53" x2="31017.34" y2= "28611.08" />
   <line class="fil2 str3" x1="32364.71" y1="27937.39" x2="31017.34" y2= "27937.39" />
   <line class="fil2 str3" x1="31691.03" y1="27263.71" x2="31691.03" y2= "28611.08" />
   <line class="fil2 str3" x1="32364.71" y1="27937.39" x2="32156.16" y2= "28145.9" />
   <line class="fil2 str3" x1="31899.53" y1="28402.53" x2="31691.03" y2= "28611.08" />
   <line class="fil2 str3" x1="31691.03" y1="27263.71" x2="31482.48" y2= "27472.22" />
   <polyline class="fil2 str3" points="31225.85,27728.85 31017.34,27937.39 31225.85,28145.9 "/>
   <line class="fil2 str3" x1="31482.48" y1="28402.53" x2="31691.03" y2= "28611.08" />
   <line class="fil2 str3" x1="31691.03" y1="27263.71" x2="31899.53" y2= "27472.22" />
   <line class="fil2 str3" x1="32156.16" y1="27728.85" x2="32364.71" y2= "27937.39" />
   <path class="fil2 str5" d="M32075.99 27592.52c0,-30.99 -25.16,-56.15 -56.16,-56.15 -30.99,0 -56.15,25.16 -56.15,56.15 0,30.99 25.16,56.15 56.15,56.15 31,0 56.16,-25.16 56.16,-56.15z"/>
   <path class="fil2 str5" d="M32075.99 28266.2c0,-30.99 -25.16,-56.15 -56.16,-56.15 -30.99,0 -56.15,25.16 -56.15,56.15 0,31 25.16,56.16 56.15,56.16 31,0 56.16,-25.16 56.16,-56.16z"/>
   <path class="fil2 str5" d="M31402.3 27592.52c0,-30.99 -25.15,-56.15 -56.15,-56.15 -30.99,0 -56.15,25.16 -56.15,56.15 0,30.99 25.16,56.15 56.15,56.15 31,0 56.15,-25.16 56.15,-56.15z"/>
   <path class="fil2 str5" d="M31402.3 28266.2c0,-30.99 -25.15,-56.15 -56.15,-56.15 -30.99,0 -56.15,25.16 -56.15,56.15 0,31 25.16,56.16 56.15,56.16 31,0 56.15,-25.16 56.15,-56.16z"/>
   <line class="fil2 str4" x1="32460.95" y1="27167.47" x2="32460.95" y2= "28707.32" />
   <line class="fil2 str3" x1="32493" y1="27247.65" x2="32493" y2= "28627.11" />
   <polyline class="fil2 str3" points="32749.67,28627.11 32749.67,27247.65 32493,27247.65 "/>
   <line class="fil2 str3" x1="32749.67" y1="27408.07" x2="32493" y2= "27408.07" />
   <line class="fil2 str3" x1="32749.67" y1="27327.86" x2="32493" y2= "27327.86" />
   <line class="fil2 str3" x1="32749.67" y1="27472.22" x2="32493" y2= "27472.22" />
   <line class="fil2 str3" x1="32749.67" y1="27552.43" x2="32493" y2= "27552.43" />
   <line class="fil2 str3" x1="32749.67" y1="27712.82" x2="32493" y2= "27712.82" />
   <line class="fil2 str3" x1="32749.67" y1="27632.61" x2="32493" y2= "27632.61" />
   <line class="fil2 str3" x1="32749.67" y1="27776.97" x2="32493" y2= "27776.97" />
   <line class="fil2 str3" x1="32749.67" y1="27857.18" x2="32493" y2= "27857.18" />
   <line class="fil2 str3" x1="32749.67" y1="28017.57" x2="32493" y2= "28017.57" />
   <line class="fil2 str3" x1="32749.67" y1="27937.39" x2="32493" y2= "27937.39" />
   <line class="fil2 str3" x1="32749.67" y1="28081.76" x2="32493" y2= "28081.76" />
   <line class="fil2 str3" x1="32749.67" y1="28161.93" x2="32493" y2= "28161.93" />
   <line class="fil2 str3" x1="32749.67" y1="28322.36" x2="32493" y2= "28322.36" />
   <line class="fil2 str3" x1="32749.67" y1="28242.14" x2="32493" y2= "28242.14" />
   <line class="fil2 str3" x1="32749.67" y1="28402.53" x2="32493" y2= "28402.53" />
   <line class="fil2 str3" x1="32749.67" y1="28466.72" x2="32493" y2= "28466.72" />
   <line class="fil2 str3" x1="32749.67" y1="28627.11" x2="32493" y2= "28627.11" />
   <line class="fil2 str3" x1="32749.67" y1="28546.89" x2="32493" y2= "28546.89" />
   <line class="fil2 str3" x1="30905.04" y1="27632.61" x2="30872.98" y2= "27632.61" />
   <path class="fil2 str5" d="M30897.04 27600.55c-13.3,0 -24.06,10.76 -24.06,24.06 0,13.27 10.76,24.06 24.06,24.06"/>
   <polyline class="fil2 str3" points="30937.13,27584.49 30905.04,27584.49 30905.04,27632.61 30905.04,27664.7 30937.13,27664.7 "/>
   <line class="fil2 str3" x1="30905.04" y1="27937.39" x2="30872.98" y2= "27937.39" />
   <path class="fil2 str5" d="M30897.04 27905.3c-13.3,0 -24.06,10.76 -24.06,24.06 0,13.3 10.76,24.06 24.06,24.06"/>
   <polyline class="fil2 str3" points="30937.13,27889.27 30905.04,27889.27 30905.04,27937.39 30905.04,27969.45 30937.13,27969.45 "/>
   <line class="fil2 str3" x1="30905.04" y1="28242.14" x2="30872.98" y2= "28242.14" />
   <path class="fil2 str5" d="M30897.04 28210.05c-13.3,0 -24.06,10.76 -24.06,24.06 0,13.3 10.76,24.06 24.06,24.06"/>
   <polyline class="fil2 str3" points="30937.13,28194.02 30905.04,28194.02 30905.04,28242.14 30905.04,28274.24 30937.13,28274.24 "/>
   <line class="fil2 str3" x1="30905.04" y1="27776.97" x2="30872.98" y2= "27776.97" />
   <path class="fil2 str5" d="M30897.04 27744.91c-13.3,0 -24.06,10.76 -24.06,24.06 0,13.27 10.76,24.06 24.06,24.06"/>
   <polyline class="fil2 str3" points="30937.13,27744.91 30905.04,27744.91 30905.04,27776.97 30905.04,27825.09 30937.13,27825.09 "/>
   <line class="fil2 str3" x1="30905.04" y1="28081.76" x2="30872.98" y2= "28081.76" />
   <path class="fil2 str5" d="M30897.04 28049.66c-13.3,0 -24.06,10.76 -24.06,24.06 0,13.3 10.76,24.06 24.06,24.06"/>
   <polyline class="fil2 str3" points="30937.13,28049.66 30905.04,28049.66 30905.04,28081.76 30905.04,28129.88 30937.13,28129.88 "/>
  </g>
  <g>
   <path class="fil1" d="M25727.55 30398.81c-25.57,0 -46.3,-19.21 -46.3,-42.89 0,-23.68 20.73,-42.89 46.3,-42.89l0 85.78zm1997.71 0l-1997.71 0 0 -85.78 1997.71 0 46.3 42.89 -46.3 42.89zm0 -85.78c25.57,0 46.3,19.21 46.3,42.89 0,23.68 -20.73,42.89 -46.3,42.89l0 -85.78zm-46.3 1145.82l0 -1102.93 92.6 0 0 1102.93 -92.6 0zm92.6 0c0,23.68 -20.73,42.89 -46.3,42.89 -25.57,0 -46.3,-19.21 -46.3,-42.89l92.6 0z"/>
  </g>
  <g>
   <path class="fil1" d="M25960.31 31108.26l1579.73 0 0 92.6 -1579.73 0 -44.58 -46.3 44.58 -46.3zm0 92.6c-24.62,0 -44.58,-20.73 -44.58,-46.3 0,-25.57 19.96,-46.3 44.58,-46.3l0 92.6zm44.58 -218.28l0 171.98 -89.16 0 0 -171.98 44.58 -46.3 44.58 46.3zm-89.16 0c0,-25.57 19.96,-46.3 44.58,-46.3 24.62,0 44.58,20.73 44.58,46.3l-89.16 0zm1624.31 46.3l-1579.73 0 0 -92.6 1579.73 0 44.58 46.3 -44.58 46.3zm0 -92.6c24.62,0 44.58,20.73 44.58,46.3 0,25.57 -19.96,46.3 -44.58,46.3l0 -92.6zm-44.58 218.28l0 -171.98 89.16 0 0 171.98 -44.58 46.3 -44.58 -46.3zm89.16 0c0,25.57 -19.96,46.3 -44.58,46.3 -24.62,0 -44.58,-20.73 -44.58,-46.3l89.16 0z"/>
  </g>
  <polygon class="fil2 str6" points="25961.05,31157.64 25789.04,31157.64 25789.04,30985.66 25961.05,30985.66 "/>
  <line class="fil2 str0" x1="25846.62" y1="31458.85" x2="27725.26" y2= "31458.85" />
  <polygon class="fil2 str0" points="27540.04,31154.56 27725.26,31154.56 27725.26,30982.58 27540.04,30982.58 "/>
  <g>
   <polygon class="fil0" points="25747.55,30476.53 24530.43,30476.53 24530.43,31376.28 25747.55,31376.28 "/>
   <path id="_1_6" class="fil1" d="M24530.43 30310.77l1217.12 0 0 331.52 -1217.12 0 -92.61 -165.76 92.61 -165.76zm0 331.52c-51.14,0 -92.61,-74.22 -92.61,-165.76 0,-91.54 41.47,-165.76 92.61,-165.76l0 331.52zm-92.61 733.99l0 -899.75 185.22 0 0 899.75 -92.61 165.76 -92.61 -165.76zm185.22 0c0,91.54 -41.47,165.76 -92.61,165.76 -51.14,0 -92.61,-74.22 -92.61,-165.76l185.22 0zm1124.51 165.76l-1217.12 0 0 -331.52 1217.12 0 92.61 165.76 -92.61 165.76zm0 -331.52c51.14,0 92.61,74.22 92.61,165.76 0,91.54 -41.47,165.76 -92.61,165.76l0 -331.52zm92.61 -733.99l0 899.75 -185.22 0 0 -899.75 92.61 -165.76 92.61 165.76zm-185.22 0c0,-91.54 41.47,-165.76 92.61,-165.76 51.14,0 92.61,74.22 92.61,165.76l-185.22 0z"/>
  </g>
  <polygon class="fil0 str7" points="25396.82,22548.43 24510.43,22548.43 24510.43,22297.07 25396.82,22297.07 "/>
  <polygon class="fil2 str1" points="27566.51,22317.07 27698.79,22317.07 27698.79,22568.43 27566.51,22568.43 "/>
  <polygon class="fil2 str1" points="25396.82,22317.07 25529.1,22317.07 25529.1,22568.43 25396.82,22568.43 "/>
  <text x="25980.56" y="28917.45"  class="fil3 fnt0">8.70</text>
  <text x="28248.85" y="20578.13"  class="fil3 fnt0">1.80</text>
  <text x="27794.23" y="10896.33"  class="fil3 fnt0">8.10</text>
  <polygon class="fil0 str8" points="26256.76,6653.04 22261.37,6653.04 22261.37,6282.62 26256.76,6282.62 "/>
  <polygon class="fil0 str8" points="26375.83,6282.62 22142.3,6282.62 22142.3,5978.32 26375.83,5978.32 "/>
  <g>
   <polygon class="fil0" points="15924.31,4628.91 15924.31,11204.09 16175.69,11204.09 16175.69,4628.91 "/>
   <path id="_1_7" class="fil1" d="M15864.78 11204.09l0 -6575.18 119.06 0 0 6575.18 -59.53 119.31 -59.53 -119.31zm119.06 0c0,65.89 -26.66,119.31 -59.53,119.31 -32.87,0 -59.53,-53.42 -59.53,-119.31l119.06 0zm191.85 119.31l-251.38 0 0 -238.62 251.38 0 59.53 119.31 -59.53 119.31zm0 -238.62c32.87,0 59.53,53.42 59.53,119.31 0,65.89 -26.66,119.31 -59.53,119.31l0 -238.62zm59.53 -6455.87l0 6575.18 -119.06 0 0 -6575.18 59.53 -119.31 59.53 119.31zm-119.06 0c0,-65.89 26.66,-119.31 59.53,-119.31 32.87,0 59.53,53.42 59.53,119.31l-119.06 0zm-191.85 -119.31l251.38 0 0 238.62 -251.38 0 -59.53 -119.31 59.53 -119.31zm0 238.62c-32.87,0 -59.53,-53.42 -59.53,-119.31 0,-65.89 26.66,-119.31 59.53,-119.31l0 238.62z"/>
  </g>
  <g>
   <polygon class="fil0" points="15944.3,4628.89 14078.92,4628.89 14078.92,5144.85 15944.3,5144.85 "/>
   <path id="_1_8" class="fil1" d="M14078.92 4591.39l1865.38 0 0 75 -1865.38 0 -81.35 -37.5 81.35 -37.5zm0 75c-44.92,0 -81.35,-16.79 -81.35,-37.5 0,-20.71 36.43,-37.5 81.35,-37.5l0 75zm-81.35 478.46l0 -515.96 162.7 0 0 515.96 -81.35 37.5 -81.35 -37.5zm162.7 0c0,20.71 -36.43,37.5 -81.35,37.5 -44.92,0 -81.35,-16.79 -81.35,-37.5l162.7 0zm1784.03 37.5l-1865.38 0 0 -75 1865.38 0 81.35 37.5 -81.35 37.5zm0 -75c44.92,0 81.35,16.79 81.35,37.5 0,20.71 -36.43,37.5 -81.35,37.5l0 -75zm81.35 -478.46l0 515.96 -162.7 0 0 -515.96 81.35 -37.5 81.35 37.5zm-162.7 0c0,-20.71 36.43,-37.5 81.35,-37.5 44.92,0 81.35,16.79 81.35,37.5l-162.7 0z"/>
  </g>
  <g>
   <polygon class="fil0" points="13136.76,18280.7 7320.49,18280.7 7320.49,17777.95 13136.76,17777.95 "/>
   <path id="_1_9" class="fil1" d="M7320.49 18221.17l5816.27 0 0 119.06 -5816.27 0 -46.49 -59.53 46.49 -59.53zm0 119.06c-25.67,0 -46.49,-26.66 -46.49,-59.53 0,-32.87 20.82,-59.53 46.49,-59.53l0 119.06zm46.49 -562.28l0 502.75 -92.98 0 0 -502.75 46.49 -59.53 46.49 59.53zm-92.98 0c0,-32.87 20.82,-59.53 46.49,-59.53 25.67,0 46.49,26.66 46.49,59.53l-92.98 0zm5862.76 59.53l-5816.27 0 0 -119.06 5816.27 0 46.49 59.53 -46.49 59.53zm0 -119.06c25.67,0 46.49,26.66 46.49,59.53 0,32.87 -20.82,59.53 -46.49,59.53l0 -119.06zm-46.49 562.28l0 -502.75 92.98 0 0 502.75 -46.49 59.53 -46.49 -59.53zm92.98 0c0,32.87 -20.82,59.53 -46.49,59.53 -25.67,0 -46.49,-26.66 -46.49,-59.53l92.98 0z"/>
  </g>
  <g>
   <polygon class="fil0" points="24510.43,22628.55 24510.43,31459.13 24007.69,31459.13 24007.69,22628.55 "/>
   <path id="_1_10" class="fil1" d="M24450.9 31459.13l0 -8830.58 119.06 0 0 8830.58 -59.53 88.5 -59.53 -88.5zm119.06 0c0,48.87 -26.66,88.5 -59.53,88.5 -32.87,0 -59.53,-39.63 -59.53,-88.5l119.06 0zm-562.27 -88.5l502.74 0 0 177 -502.74 0 -59.53 -88.5 59.53 -88.5zm0 177c-32.87,0 -59.53,-39.63 -59.53,-88.5 0,-48.87 26.66,-88.5 59.53,-88.5l0 177zm59.53 -8919.08l0 8830.58 -119.06 0 0 -8830.58 59.53 -88.5 59.53 88.5zm-119.06 0c0,-48.87 26.66,-88.5 59.53,-88.5 32.87,0 59.53,39.63 59.53,88.5l-119.06 0zm562.27 88.5l-502.74 0 0 -177 502.74 0 59.53 88.5 -59.53 88.5zm0 -177c32.87,0 59.53,39.63 59.53,88.5 0,48.87 -26.66,88.5 -59.53,88.5l0 -177z"/>
  </g>
  <g>
   <polygon class="fil0" points="7338.21,10620.63 7338.21,18017.42 7840.95,18017.42 7840.95,10620.63 "/>
   <path id="_1_11" class="fil1" d="M7278.68 18017.42l0 -7396.79 119.06 0 0 7396.79 -59.53 79.25 -59.53 -79.25zm119.06 0c0,43.76 -26.66,79.25 -59.53,79.25 -32.87,0 -59.53,-35.49 -59.53,-79.25l119.06 0zm443.21 79.25l-502.74 0 0 -158.5 502.74 0 59.53 79.25 -59.53 79.25zm0 -158.5c32.87,0 59.53,35.49 59.53,79.25 0,43.76 -26.66,79.25 -59.53,79.25l0 -158.5zm59.53 -7317.54l0 7396.79 -119.06 0 0 -7396.79 59.53 -79.25 59.53 79.25zm-119.06 0c0,-43.76 26.66,-79.25 59.53,-79.25 32.87,0 59.53,35.49 59.53,79.25l-119.06 0zm-443.21 -79.25l502.74 0 0 158.5 -502.74 0 -59.53 -79.25 59.53 -79.25zm0 158.5c-32.87,0 -59.53,-35.49 -59.53,-79.25 0,-43.76 26.66,-79.25 59.53,-79.25l0 158.5z"/>
  </g>
  <polygon class="fil0 str2" points="7338.21,5144.85 7338.21,11204.09 7840.95,11204.09 7840.95,5144.85 "/>
  <line class="fil2 str0" x1="14058.91" y1="5144.85" x2="9507.9" y2= "5144.85" />
  <polygon class="fil2 str0" points="9746.04,4258.47 13820.78,4258.47 13820.78,4430.44 9746.04,4430.44 "/>
  <polygon class="fil2 str0" points="13820.78,4258.47 13992.78,4258.47 13992.78,4430.44 13820.78,4430.44 "/>
  <polygon class="fil2 str9" points="9726.04,4258.47 9554.03,4258.47 9554.03,4430.44 9726.04,4430.44 "/>
  <g>
   <path class="fil1" d="M13926.63 3907.87c26.8,0 48.54,20.73 48.54,46.3 0,25.57 -21.74,46.3 -48.54,46.3l0 -92.6zm-4493.55 0l4493.55 0 0 92.6 -4493.55 0 0 -92.6zm0 92.6c-26.8,0 -48.54,-20.73 -48.54,-46.3 0,-25.57 21.74,-46.3 48.54,-46.3l0 92.6z"/>
  </g>
  <polygon class="fil0 str2" points="17723.57,6653.04 16175.69,6653.04 16175.69,4628.89 14058.91,4628.89 14058.91,4258.47 16479.96,4258.47 16559.33,4258.47 16559.33,6282.62 17723.57,6282.62 "/>
  <polygon class="fil0 str8" points="17842.64,6282.62 16559.33,6282.62 16559.33,4258.47 13926.63,4258.47 13926.63,3954.17 16863.63,3954.17 16863.63,5978.32 17842.64,5978.32 "/>
  <text x="28400.24" y="15373.91"  class="fil3 fnt0">3.50</text>
  <g>
   <polygon class="fil0" points="24139.98,7155.79 24139.98,11204.09 24391.37,11204.09 24391.37,7155.79 "/>
   <path id="_1_12" class="fil1" d="M24080.45 11204.09l0 -4048.3 119.06 0 0 4048.3 -59.53 73.46 -59.53 -73.46zm119.06 0c0,40.57 -26.66,73.46 -59.53,73.46 -32.87,0 -59.53,-32.89 -59.53,-73.46l119.06 0zm191.86 73.46l-251.39 0 0 -146.92 251.39 0 59.53 73.46 -59.53 73.46zm0 -146.92c32.87,0 59.53,32.89 59.53,73.46 0,40.57 -26.66,73.46 -59.53,73.46l0 -146.92zm59.53 -3974.84l0 4048.3 -119.06 0 0 -4048.3 59.53 -73.46 59.53 73.46zm-119.06 0c0,-40.57 26.66,-73.46 59.53,-73.46 32.87,0 59.53,32.89 59.53,73.46l-119.06 0zm-191.86 -73.46l251.39 0 0 146.92 -251.39 0 -59.53 -73.46 59.53 -73.46zm0 146.92c-32.87,0 -59.53,-32.89 -59.53,-73.46 0,-40.57 26.66,-73.46 59.53,-73.46l0 146.92z"/>
  </g>
  <polygon class="fil0 str2" points="29511.28,30770.88 32845.18,30770.88 32845.18,6653.04 30807.77,6653.04 30807.77,6282.62 33228.82,6282.62 33228.82,31154.56 29511.28,31154.56 "/>
  <polygon class="fil0 str2" points="29392.21,31154.56 29392.21,31458.85 33533.11,31458.85 33533.11,5978.32 30675.49,5978.32 30675.49,6282.62 33228.82,6282.62 33228.82,31154.56 "/>
  <text x="26792.25" y="32923.65"  class="fil3 fnt0">3.40 (1.70)</text>
  <text x="20234.91" y="20618.87"  class="fil3 fnt0">11.10</text>
  <text x="17127.97" y="17564.28"  class="fil3 fnt0">0.80</text>
  <text x="10658.12" y="10720.69"  class="fil3 fnt0">16.00</text>
  <polygon class="fil2 str1" points="12894.7,21205.78 12894.7,21324.84 12643.35,21324.84 12643.35,21205.78 "/>
  <polygon class="fil2 str1" points="12894.7,18771.51 12894.7,18903.8 12643.35,18903.8 12643.35,18771.51 "/>
  <polygon class="fil2 str10" points="13642.33,18017.42 13774.65,18017.42 13774.65,18268.77 13642.33,18268.77 "/>
  <polygon class="fil0 str2" points="22618.57,18017.42 24391.37,18017.42 24391.37,18268.77 22618.57,18268.77 "/>
  <polygon class="fil2 str1" points="22486.28,18017.42 22618.57,18017.42 22618.57,18268.77 22486.28,18268.77 "/>
  <polygon class="fil2 str1" points="20316.59,18017.42 20448.88,18017.42 20448.88,18268.77 20316.59,18268.77 "/>
  <polygon class="fil0 str2" points="15924.31,18017.42 17445.75,18017.42 17445.75,18268.77 15924.31,18268.77 "/>
  <polygon class="fil2 str1" points="19112.7,18070.33 19231.76,18070.33 19231.76,18268.77 19112.7,18268.77 "/>
  <polygon class="fil2 str1" points="17445.75,18070.33 17564.82,18070.33 17564.82,18268.77 17445.75,18268.77 "/>
  <polygon class="fil0 str2" points="19231.76,18017.42 20316.59,18017.42 20316.59,18268.77 19231.76,18268.77 "/>
  <polygon class="fil0" points="19708.04,18017.42 19708.04,16509.23 16175.69,16509.23 16175.69,16297.53 19919.7,16297.53 19919.7,18017.42 "/>
  <g>
   <polygon class="fil0" points="24139.98,11204.07 24139.98,18027.42 24391.37,18027.42 24391.37,11204.07 "/>
   <path id="_1_13" class="fil1" d="M24080.45 18027.42l0 -6823.35 119.06 0 0 6823.35 -59.53 73.11 -59.53 -73.11zm119.06 0c0,40.37 -26.66,73.11 -59.53,73.11 -32.87,0 -59.53,-32.74 -59.53,-73.11l119.06 0zm191.86 73.11l-251.39 0 0 -146.22 251.39 0 59.53 73.11 -59.53 73.11zm0 -146.22c32.87,0 59.53,32.74 59.53,73.11 0,40.37 -26.66,73.11 -59.53,73.11l0 -146.22zm59.53 -6750.24l0 6823.35 -119.06 0 0 -6823.35 59.53 -73.11 59.53 73.11zm-119.06 0c0,-40.37 26.66,-73.11 59.53,-73.11 32.87,0 59.53,32.74 59.53,73.11l-119.06 0zm-191.86 -73.11l251.39 0 0 146.22 -251.39 0 -59.53 -73.11 59.53 -73.11zm0 146.22c-32.87,0 -59.53,-32.74 -59.53,-73.11 0,-40.37 26.66,-73.11 59.53,-73.11l0 146.22z"/>
  </g>
  <g>
   <polygon class="fil0" points="15924.31,10603.37 15924.31,18027.42 16175.69,18027.42 16175.69,10603.37 "/>
   <path id="_1_14" class="fil1" d="M15864.78 18027.42l0 -7424.05 119.06 0 0 7424.05 -59.53 79.54 -59.53 -79.54zm119.06 0c0,43.92 -26.66,79.54 -59.53,79.54 -32.87,0 -59.53,-35.62 -59.53,-79.54l119.06 0zm191.85 79.54l-251.38 0 0 -159.08 251.38 0 59.53 79.54 -59.53 79.54zm0 -159.08c32.87,0 59.53,35.62 59.53,79.54 0,43.92 -26.66,79.54 -59.53,79.54l0 -159.08zm59.53 -7344.51l0 7424.05 -119.06 0 0 -7424.05 59.53 -79.54 59.53 79.54zm-119.06 0c0,-43.92 26.66,-79.54 59.53,-79.54 32.87,0 59.53,35.62 59.53,79.54l-119.06 0zm-191.85 -79.54l251.38 0 0 159.08 -251.38 0 -59.53 -79.54 59.53 -79.54zm0 159.08c-32.87,0 -59.53,-35.62 -59.53,-79.54 0,-43.92 26.66,-79.54 59.53,-79.54l0 159.08z"/>
  </g>
  <polygon class="fil0 str11" points="13146.06,18027.42 13622.33,18027.42 13622.33,18278.77 13146.06,18278.77 "/>
  <polygon class="fil0 str2" points="24947.02,13850.05 24947.02,14101.4 24391.37,14101.4 24391.37,13850.05 "/>
  <rect class="fil4 str12" x="12618" y="18286.1" width="565.07" height="478.96" rx="25.53" ry="22.39"/>
  <g>
   <polygon class="fil0" points="24450.11,22800.84 12700.63,22800.84 12700.63,22298.09 24450.11,22298.09 "/>
   <path id="_1_15" class="fil1" d="M12700.63 22741.31l11749.48 0 0 119.06 -11749.48 0 -93.91 -59.53 93.91 -59.53zm0 119.06c-51.86,0 -93.91,-26.66 -93.91,-59.53 0,-32.87 42.05,-59.53 93.91,-59.53l0 119.06zm93.91 -562.28l0 502.75 -187.82 0 0 -502.75 93.91 -59.53 93.91 59.53zm-187.82 0c0,-32.87 42.05,-59.53 93.91,-59.53 51.86,0 93.91,26.66 93.91,59.53l-187.82 0zm11843.39 59.53l-11749.48 0 0 -119.06 11749.48 0 93.91 59.53 -93.91 59.53zm0 -119.06c51.86,0 93.91,26.66 93.91,59.53 0,32.87 -42.05,59.53 -93.91,59.53l0 -119.06zm-93.91 562.28l0 -502.75 187.82 0 0 502.75 -93.91 59.53 -93.91 -59.53zm187.82 0c0,32.87 -42.05,59.53 -93.91,59.53 -51.86,0 -93.91,-26.66 -93.91,-59.53l187.82 0z"/>
  </g>
  <rect class="fil4 str12" x="12618" y="21324.83" width="565.07" height="984.39" rx="25.53" ry="46.01"/>
  <g>
   <polygon class="fil0" points="17742.5,6653.04 15914.31,6653.04 15914.31,7155.78 17742.5,7155.78 "/>
   <path id="_1_16" class="fil1" d="M15914.31 6615.54l1828.19 0 0 75 -1828.19 0 -39.26 -37.5 39.26 -37.5zm0 75c-21.68,0 -39.26,-16.79 -39.26,-37.5 0,-20.71 17.58,-37.5 39.26,-37.5l0 75zm-39.26 465.24l0 -502.74 78.52 0 0 502.74 -39.26 37.5 -39.26 -37.5zm78.52 0c0,20.71 -17.58,37.5 -39.26,37.5 -21.68,0 -39.26,-16.79 -39.26,-37.5l78.52 0zm1788.93 37.5l-1828.19 0 0 -75 1828.19 0 39.26 37.5 -39.26 37.5zm0 -75c21.68,0 39.26,16.79 39.26,37.5 0,20.71 -17.58,37.5 -39.26,37.5l0 -75zm39.26 -465.24l0 502.74 -78.52 0 0 -502.74 39.26 -37.5 39.26 37.5zm-78.52 0c0,-20.71 17.58,-37.5 39.26,-37.5 21.68,0 39.26,16.79 39.26,37.5l-78.52 0z"/>
  </g>
  <rect class="fil4 str12" x="7287.5" y="3932.55" width="2220.4" height="1254.97"/>
  <rect class="fil4 str12" x="33271.1" y="31395.04" width="313.02" height="2759.2"/>
  <rect class="fil4 str12" transform="matrix(-8.07766E-15 -0.705004 2.21451 6.79445E-14 23954.6 34154.2)" width="444" height="4347.05"/>
  <rect class="fil4 str12" x="23954.63" y="30941.14" width="313.02" height="3204.17" rx="35.25" ry="36.85"/>
  <g id="_2286803118128">
   <line class="fil5 str13" x1="31591.44" y1="21415.16" x2="31884.72" y2= "21382.61" />
   <line class="fil5 str14" x1="31603.18" y1="20407.12" x2="31896.38" y2= "20439.74" />
   <path class="fil5 str14" d="M32929.12 21886.86c-232.37,0 -464.77,0.04 -697.14,0.04 -173.31,0.5 -298.66,-89.3 -350.22,-309.56 2.73,-391.89 5.45,-783.82 8.19,-1175.73 -16.01,-306.66 116.82,-434.18 342.03,-453.14l708.19 0"/>
   <path class="fil5 str14" d="M31005.46 20181.68c231.48,-37.9 432.22,14.36 586.4,203.62 29.18,76.52 52.04,151.62 68.8,225.33 65.2,286.77 38.09,552.79 -68.83,800.88 -137.06,166.8 -315.91,244.64 -541.24,223.63 -336.44,-32.78 -663.05,-154.06 -973.6,-419.14 -188.38,-185.23 -203.82,-394.82 0,-635.23 270.43,-217.63 581.59,-347.03 928.47,-399.09z"/>
  </g>
  <g id="_2286803116064">
   <path class="fil5 str15" d="M32855.12 14758.2c-667.46,6.3 -1290,-197.48 -1376.07,619.64 -21.95,266.1 -12.56,520.07 24.11,781.32 148.51,669.16 723.7,459.06 1361.77,470.26"/>
   <path class="fil5 str14" d="M32363.51 14861.56c88.06,-1.85 173.13,63.73 213.38,136.62 0,485.46 0,947.76 0,1433.23 -15.12,68.54 -62.61,83.94 -165.62,107.16 -937.55,35.1 -738.63,-606.47 -754.98,-1188.5 41.62,-421.36 343.94,-470.04 707.22,-488.51z"/>
   <circle class="fil5 str14" transform="matrix(-2.68564E-14 1.01404 -1.01404 -2.68564E-14 32439 15712.2)" r="94.44"/>
   <path class="fil5 str14" d="M32406.47 15083.26c70.33,-1.31 138.29,45.51 170.42,97.56 0,346.61 0,676.7 0,1023.32 -12.07,48.95 -50,59.93 -132.27,76.51 -739.3,61.31 -599.76,-369.06 -602.99,-848.58 5.84,-314.05 287.34,-348.81 564.84,-348.81z"/>
  </g>
  <g id="_2286803111840">
   <rect class="fil5 str14" transform="matrix(-0.000144424 0.761409 -0.777862 -0.000141369 32791.7 17250.3)" width="2611.41" height="5846.68"/>
   <path class="fil5 str14" d="M29077.04 17476.77c998.9,-41.7 1986.06,-14.39 2979.09,-21.56 347.54,-4.84 524.95,7.74 519.25,367.83 -0.06,298.02 -0.12,596.02 -0.17,894.03 3.15,253.06 -74.18,348.23 -506.88,328.82 -997.18,-7.54 -1994.4,7.94 -2991.58,-22.62 -791.95,-93.3 -872.16,-1407.58 0.29,-1546.5z"/>
   <circle class="fil5 str14" transform="matrix(-0.000144424 0.761409 -0.777862 -0.000141369 32269.7 18260.8)" r="121.03"/>
  </g>
  <g id="_2286803112752">
   <path class="fil5 str15" d="M32907.05 24948.83l0 1695.11c0,63.14 -51.44,114.35 -114.86,114.35l-1725.07 -0.01c-63.42,0.01 -114.86,-51.2 -114.86,-114.34l-0.01 -1695.11c0.01,-63.13 51.45,-114.34 114.87,-114.34l1725.06 -0.01c63.43,0.01 114.87,51.22 114.87,114.36z"/>
   <rect class="fil5 str15" transform="matrix(5.30908E-14 0.665203 -0.668198 5.28528E-14 32571.9 25012.4)" width="2373.81" height="2106.33"/>
   <circle class="fil5 str16" transform="matrix(5.30908E-14 0.665203 -0.668198 5.28528E-14 32281.5 26168.9)" r="183.89"/>
  </g>
  <g>
   <polygon class="fil0" points="32945.36,30399.78 29511.28,30399.78 29511.28,31396.28 32945.36,31396.28 "/>
   <path id="_1_17" class="fil1" d="M29511.28 30324.79l3434.08 0 0 149.98 -3434.08 0 -105.67 -74.99 105.67 -74.99zm0 149.98c-58.35,0 -105.67,-33.58 -105.67,-74.99 0,-41.41 47.32,-74.99 105.67,-74.99l0 149.98zm-105.67 921.51l0 -996.5 211.34 0 0 996.5 -105.67 74.99 -105.67 -74.99zm211.34 0c0,41.41 -47.32,74.99 -105.67,74.99 -58.35,0 -105.67,-33.58 -105.67,-74.99l211.34 0zm3328.41 74.99l-3434.08 0 0 -149.98 3434.08 0 105.67 74.99 -105.67 74.99zm0 -149.98c58.35,0 105.67,33.58 105.67,74.99 0,41.41 -47.32,74.99 -105.67,74.99l0 -149.98zm105.67 -921.51l0 996.5 -211.34 0 0 -996.5 105.67 -74.99 105.67 74.99zm-211.34 0c0,-41.41 47.32,-74.99 105.67,-74.99 58.35,0 105.67,33.58 105.67,74.99l-211.34 0z"/>
  </g>
  <g id="_2286803098592">
   <rect class="fil5 str17" transform="matrix(-3.58973E-14 0.73339 0.940728 8.44097E-15 28102.1 34134.1)" width="2496.64" height="5813.27"/>
   <line class="fil5 str17" x1="28095.01" y1="34131.12" x2="33563.72" y2= "35962.13" />
   <line class="fil5 str17" x1="28102.17" y1="35965.08" x2="33528.29" y2= "34179.01" />
  </g>
  <path class="fil5 str18" d="M12885.95 21193.83c-1261.97,-37.76 -2260.99,-745.12 -2621.88,-2265.32 796.08,0 1776.09,-20.74 2572.17,-20.74"/>
  <polygon class="fil2 str19" points="15762,18017.42 15894.32,18017.42 15894.32,18268.77 15762,18268.77 "/>
  <path class="fil5 str18" d="M13757.17 18255.39c32.91,-1261.97 649.46,-2260.99 1974.5,-2621.88 0,796.08 18.08,1776.09 18.08,2572.17"/>
  <path class="fil5 str18" d="M22467.42 18255.39c-32.91,-1261.97 -649.46,-2260.99 -1974.5,-2621.88 0,796.08 -18.08,1776.09 -18.08,2572.17"/>
  <path class="fil5 str18" d="M17588.39 18090.21c24.92,955.71 491.85,1712.29 1495.33,1985.6 0,-602.88 13.69,-1345.07 13.69,-1947.96"/>
  <path class="fil5 str18" d="M27116.67 14101.4c-32.91,-1261.97 -711.49,-2203.38 -2036.53,-2564.27 0,796.08 -18.08,1776.09 -18.08,2572.17"/>
  <path class="fil5 str18" d="M27903.41 15344.98c-1153.34,30.07 -2013.73,539.95 -2343.56,1750.95 727.56,0 1623.22,16.52 2350.79,16.52"/>
  <path class="fil5 str18" d="M27903.41 19825.65c-1153.34,30.07 -2013.73,539.95 -2343.56,1750.95 727.56,0 1623.22,16.52 2350.79,16.52"/>
  <path class="fil5 str18" d="M25513.66 22404.28c32.91,1261.97 711.49,2203.38 2036.53,2564.27 0,-796.08 18.08,-1776.09 18.08,-2572.17"/>
  <polygon class="fil2 str20" points="29275.53,30370.45 29407.81,30370.45 29407.81,30621.81 29275.53,30621.81 "/>
  <polygon class="fil2 str21" points="27778.26,30370.45 27910.54,30370.45 27910.54,30621.81 27778.26,30621.81 "/>
  <text x="19042.41" y="11781.76"  class="fil3 fnt0">12.30</text>
  <path class="fil5 str18" d="M27910.54 30457.1c23.68,-908.15 388.62,-1563.85 1342.17,-1823.56 0,572.89 13.01,1278.14 13.01,1851.03"/>
 </g>
</svg>
