<?xml version="1.0" encoding="UTF-8"?>
<!DOCTYPE svg PUBLIC "-//W3C//DTD SVG 1.1//EN" "http://www.w3.org/Graphics/SVG/1.1/DTD/svg11.dtd">
<!-- Creator: CorelDRAW -->
<svg xmlns="http://www.w3.org/2000/svg" xml:space="preserve" width="400mm" height="400mm" version="1.1" style="shape-rendering:geometricPrecision; text-rendering:geometricPrecision; image-rendering:optimizeQuality; fill-rule:evenodd; clip-rule:evenodd"
viewBox="0 0 40000 40000"
 xmlns:xlink="http://www.w3.org/1999/xlink"
 xmlns:xodm="http://www.corel.com/coreldraw/odm/2003">
 <defs>
  <style type="text/css">
   <![CDATA[
    .str22 {stroke:black;stroke-width:50;stroke-miterlimit:22.9256}
    .str23 {stroke:#1F1B20;stroke-width:16.9;stroke-miterlimit:22.9256}
    .str16 {stroke:#1F1B20;stroke-width:40;stroke-miterlimit:22.9256}
    .str17 {stroke:#3A3A3A;stroke-width:40;stroke-miterlimit:22.9256}
    .str19 {stroke:black;stroke-width:40;stroke-miterlimit:22.9256}
    .str18 {stroke:#2B2A29;stroke-width:25;stroke-miterlimit:22.9256}
    .str14 {stroke:black;stroke-width:20;stroke-miterlimit:22.9256}
    .str20 {stroke:#2B2A29;stroke-width:25.4;stroke-miterlimit:22.9256}
    .str13 {stroke:black;stroke-width:7.62;stroke-miterlimit:22.9256}
    .str15 {stroke:black;stroke-width:40;stroke-linecap:round;stroke-linejoin:round;stroke-miterlimit:22.9256}
    .str12 {stroke:black;stroke-width:30.73;stroke-linecap:round;stroke-linejoin:round;stroke-miterlimit:10}
    .str2 {stroke:black;stroke-width:61.45;stroke-linecap:round;stroke-linejoin:round;stroke-miterlimit:10}
    .str9 {stroke:black;stroke-width:13.81;stroke-linecap:round;stroke-linejoin:round;stroke-miterlimit:10}
    .str6 {stroke:black;stroke-width:67.62;stroke-linecap:round;stroke-linejoin:round;stroke-miterlimit:10}
    .str4 {stroke:black;stroke-width:55.28;stroke-linecap:round;stroke-linejoin:round;stroke-miterlimit:10}
    .str21 {stroke:black;stroke-width:55.28;stroke-linecap:round;stroke-linejoin:round;stroke-miterlimit:10}
    .str25 {stroke:black;stroke-width:55.28;stroke-linecap:round;stroke-linejoin:round;stroke-miterlimit:10}
    .str24 {stroke:black;stroke-width:55.28;stroke-linecap:round;stroke-linejoin:round;stroke-miterlimit:10}
    .str8 {stroke:black;stroke-width:55.28;stroke-linecap:round;stroke-linejoin:round;stroke-miterlimit:10}
    .str26 {stroke:black;stroke-width:55.28;stroke-linecap:round;stroke-linejoin:round;stroke-miterlimit:10}
    .str27 {stroke:black;stroke-width:55.28;stroke-linecap:round;stroke-linejoin:round;stroke-miterlimit:10}
    .str3 {stroke:black;stroke-width:124.4;stroke-linecap:round;stroke-linejoin:round;stroke-miterlimit:10}
    .str11 {stroke:black;stroke-width:124.4;stroke-linecap:round;stroke-linejoin:round;stroke-miterlimit:10}
    .str10 {stroke:black;stroke-width:193.53;stroke-linecap:round;stroke-linejoin:round;stroke-miterlimit:10}
    .str0 {stroke:black;stroke-width:193.53;stroke-linecap:round;stroke-linejoin:round;stroke-miterlimit:10}
    .str7 {stroke:black;stroke-width:16.9;stroke-linecap:round;stroke-linejoin:round;stroke-miterlimit:10}
    .str5 {stroke:black;stroke-width:16.9;stroke-linecap:round;stroke-linejoin:round;stroke-miterlimit:10}
    .str1 {stroke:black;stroke-width:96.75;stroke-linecap:round;stroke-linejoin:round;stroke-miterlimit:10}
    .fil5 {fill:none}
    .fil1 {fill:none;fill-rule:nonzero}
    .fil3 {fill:black}
    .fil4 {fill:black}
    .fil2 {fill:black;fill-rule:nonzero}
    .fil0 {fill:black;fill-rule:nonzero}
    .fnt1 {font-weight:normal;font-size:846.67px;font-family:'Arial'}
    .fnt0 {font-weight:normal;font-size:921.65px;font-family:'Arial'}
   ]]>
  </style>
 </defs>
 <g id="Слой_x0020_1">
  <metadata id="CorelCorpID_0Corel-Layer"/>
  <polygon class="fil0 str0" points="12275.12,3478.77 14085.89,3478.77 14085.89,4004.04 12275.12,4004.04 "/>
  <line class="fil1 str1" x1="14049.02" y1="4079.76" x2="18804" y2= "4079.76" />
  <polygon class="fil1 str1" points="18555.19,3167.47 14297.83,3167.47 14297.83,3347.16 18555.19,3347.16 "/>
  <polygon class="fil1 str1" points="14297.83,3167.47 14118.14,3167.47 14118.14,3347.16 14297.83,3347.16 "/>
  <polygon class="fil1 str1" points="18555.19,3167.47 18734.87,3167.47 18734.87,3347.16 18555.19,3347.16 "/>
  <g>
   <path class="fil2" d="M14187.23 2934.79c-27.44,0 -49.7,-21.66 -49.7,-48.37 0,-26.71 22.26,-48.37 49.7,-48.37l0 96.74zm4601.69 0l-4601.69 0 0 -96.74 4601.69 0 0 96.74zm0 -96.74c27.44,0 49.7,21.66 49.7,48.37 0,26.71 -22.26,48.37 -49.7,48.37l0 -96.74z"/>
  </g>
  <g>
   <polygon class="fil0" points="12238.25,21221.31 12238.25,28755.62 11699.17,28755.62 11699.17,21221.31 "/>
   <path id="_1" class="fil2" d="M12207.52 28755.62l0 -7534.31 61.46 0 0 7534.31 -30.73 37.3 -30.73 -37.3zm61.46 0c0,20.6 -13.76,37.3 -30.73,37.3 -16.97,0 -30.73,-16.7 -30.73,-37.3l61.46 0zm-569.81 -37.3l539.08 0 0 74.6 -539.08 0 -30.73 -37.3 30.73 -37.3zm0 74.6c-16.97,0 -30.73,-16.7 -30.73,-37.3 0,-20.6 13.76,-37.3 30.73,-37.3l0 74.6zm30.73 -7571.61l0 7534.31 -61.46 0 0 -7534.31 30.73 -37.3 30.73 37.3zm-61.46 0c0,-20.6 13.76,-37.3 30.73,-37.3 16.97,0 30.73,16.7 30.73,37.3l-61.46 0zm569.81 37.3l-539.08 0 0 -74.6 539.08 0 30.73 37.3 -30.73 37.3zm0 -74.6c16.97,0 30.73,16.7 30.73,37.3 0,20.6 -13.76,37.3 -30.73,37.3l0 -74.6z"/>
  </g>
  <polygon class="fil0 str2" points="15182.46,28227.84 15182.46,28753.07 12238.25,28753.07 12238.25,28227.84 "/>
  <polygon class="fil0 str2" points="20946.48,33895.07 22632.84,33895.07 22632.84,34434.15 20946.48,34434.15 "/>
  <g id="_2285856422064">
   <line class="fil1 str1" x1="22632.84" y1="33895.07" x2="27373.98" y2= "33895.07" />
   <polygon class="fil1 str1" points="27125.17,34821.21 22881.65,34821.21 22881.65,34641.49 27125.17,34641.49 "/>
   <polygon class="fil1 str1" points="22881.65,34821.21 22701.97,34821.21 22701.97,34641.49 22881.65,34641.49 "/>
   <polygon class="fil1 str1" points="27125.17,34821.21 27318.7,34821.21 27318.7,34641.49 27125.17,34641.49 "/>
   <line class="fil1 str1" x1="22757.25" y1="35139.11" x2="27249.57" y2= "35139.11" />
  </g>
  <g>
   <polygon class="fil0" points="27383.98,34434.15 29372.55,34434.15 29372.55,33895.07 27383.98,33895.07 "/>
   <path id="_1_0" class="fil2" d="M29372.55 34462.17l-1988.57 0 0 -56.04 1988.57 0 31.99 28.02 -31.99 28.02zm0 -56.04c17.66,0 31.99,12.55 31.99,28.02 0,15.47 -14.33,28.02 -31.99,28.02l0 -56.04zm31.99 -511.06l0 539.08 -63.98 0 0 -539.08 31.99 -28.02 31.99 28.02zm-63.98 0c0,-15.47 14.33,-28.02 31.99,-28.02 17.66,0 31.99,12.55 31.99,28.02l-63.98 0zm-1956.58 -28.02l1988.57 0 0 56.04 -1988.57 0 -31.99 -28.02 31.99 -28.02zm0 56.04c-17.66,0 -31.99,-12.55 -31.99,-28.02 0,-15.47 14.33,-28.02 31.99,-28.02l0 56.04zm-31.99 511.06l0 -539.08 63.98 0 0 539.08 -31.99 28.02 -31.99 -28.02zm63.98 0c0,15.47 -14.33,28.02 -31.99,28.02 -17.66,0 -31.99,-12.55 -31.99,-28.02l63.98 0z"/>
  </g>
  <g>
   <polygon class="fil0" points="27363.98,34821.21 29389.26,34821.21 29389.26,34434.15 27363.98,34434.15 "/>
   <path id="_1_1" class="fil2" d="M29389.26 34858.71l-2025.28 0 0 -75 2025.28 0 19.14 37.5 -19.14 37.5zm0 -75c10.57,0 19.14,16.79 19.14,37.5 0,20.71 -8.57,37.5 -19.14,37.5l0 -75zm19.14 -349.56l0 387.06 -38.28 0 0 -387.06 19.14 -37.5 19.14 37.5zm-38.28 0c0,-20.71 8.57,-37.5 19.14,-37.5 10.57,0 19.14,16.79 19.14,37.5l-38.28 0zm-2006.14 -37.5l2025.28 0 0 75 -2025.28 0 -19.14 -37.5 19.14 -37.5zm0 75c-10.57,0 -19.14,-16.79 -19.14,-37.5 0,-20.71 8.57,-37.5 19.14,-37.5l0 75zm-19.14 349.56l0 -387.06 38.28 0 0 387.06 -19.14 37.5 -19.14 -37.5zm38.28 0c0,20.71 -8.57,37.5 -19.14,37.5 -10.57,0 -19.14,-16.79 -19.14,-37.5l38.28 0z"/>
  </g>
  <g>
   <polygon class="fil0" points="27279.58,35163.69 29387.53,35163.69 29387.53,34845.79 27279.58,34845.79 "/>
   <path id="_1_2" class="fil2" d="M29387.53 35194.42l-2107.95 0 0 -61.46 2107.95 0 15.36 30.73 -15.36 30.73zm0 -61.46c8.48,0 15.36,13.76 15.36,30.73 0,16.97 -6.88,30.73 -15.36,30.73l0 -61.46zm15.36 -287.17l0 317.9 -30.72 0 0 -317.9 15.36 -30.73 15.36 30.73zm-30.72 0c0,-16.97 6.88,-30.73 15.36,-30.73 8.48,0 15.36,13.76 15.36,30.73l-30.72 0zm-2092.59 -30.73l2107.95 0 0 61.46 -2107.95 0 -15.36 -30.73 15.36 -30.73zm0 61.46c-8.48,0 -15.36,-13.76 -15.36,-30.73 0,-16.97 6.88,-30.73 15.36,-30.73l0 61.46zm-15.36 287.17l0 -317.9 30.72 0 0 317.9 -15.36 30.73 -15.36 -30.73zm30.72 0c0,16.97 -6.88,30.73 -15.36,30.73 -8.48,0 -15.36,-13.76 -15.36,-30.73l30.72 0z"/>
  </g>
  <g>
   <polygon class="fil0" points="20958.77,15428.12 25669.64,15428.12 25669.64,15953.35 20958.77,15953.35 "/>
   <path id="_1_3" class="fil2" d="M25669.64 15490.32l-4710.87 0 0 -124.4 4710.87 0 32.22 62.2 -32.22 62.2zm0 -124.4c17.79,0 32.22,27.85 32.22,62.2 0,34.35 -14.43,62.2 -32.22,62.2l0 -124.4zm-32.22 587.43l0 -525.23 64.44 0 0 525.23 -32.22 62.2 -32.22 -62.2zm64.44 0c0,34.35 -14.43,62.2 -32.22,62.2 -17.79,0 -32.22,-27.85 -32.22,-62.2l64.44 0zm-4743.09 -62.2l4710.87 0 0 124.4 -4710.87 0 -32.22 -62.2 32.22 -62.2zm0 124.4c-17.79,0 -32.22,-27.85 -32.22,-62.2 0,-34.35 14.43,-62.2 32.22,-62.2l0 124.4zm32.22 -587.43l0 525.23 -64.44 0 0 -525.23 32.22 -62.2 32.22 62.2zm-64.44 0c0,-34.35 14.43,-62.2 32.22,-62.2 17.79,0 32.22,27.85 32.22,62.2l-64.44 0z"/>
  </g>
  <g>
   <polygon class="fil0" points="20946.48,3538.46 20946.48,15891.9 20407.4,15891.9 20407.4,3538.46 "/>
   <path id="_1_4" class="fil2" d="M20884.28 15891.9l0 -12353.44 124.4 0 0 12353.44 -62.2 121.38 -62.2 -121.38zm124.4 0c0,67.03 -27.85,121.38 -62.2,121.38 -34.35,0 -62.2,-54.35 -62.2,-121.38l124.4 0zm-601.28 -121.38l539.08 0 0 242.76 -539.08 0 -62.2 -121.38 62.2 -121.38zm0 242.76c-34.35,0 -62.2,-54.35 -62.2,-121.38 0,-67.03 27.85,-121.38 62.2,-121.38l0 242.76zm62.2 -12474.82l0 12353.44 -124.4 0 0 -12353.44 62.2 -121.38 62.2 121.38zm-124.4 0c0,-67.03 27.85,-121.38 62.2,-121.38 34.35,0 62.2,54.35 62.2,121.38l-124.4 0zm601.28 121.38l-539.08 0 0 -242.76 539.08 0 62.2 121.38 -62.2 121.38zm0 -242.76c34.35,0 62.2,54.35 62.2,121.38 0,67.03 -27.85,121.38 -62.2,121.38l0 -242.76z"/>
  </g>
  <polygon class="fil0 str3" points="20946.48,4881.46 20946.48,8309.47 20407.4,8309.47 20407.4,4881.46 "/>
  <g id="_2286465858080">
   <polygon class="fil0 str3" points="12238.25,11308.96 17089.98,11308.96 17089.98,12898.58 16827.36,12898.58 16827.36,11585.43 12238.25,11585.43 "/>
   <polygon class="fil0 str3" points="16827.36,17142.1 12238.25,17142.1 12238.25,17404.72 16827.36,17404.72 "/>
   <polygon class="fil0 str3" points="17089.98,15041.06 16827.36,15041.06 16827.36,17515.31 17089.98,17515.31 "/>
   <polygon class="fil0 str3" points="12238.25,20183.06 17089.98,20183.06 17089.98,19657.83 16827.36,19657.83 16827.36,19920.44 12238.25,19920.44 "/>
  </g>
  <polygon class="fil1 str4" points="17089.98,17653.53 17089.98,17515.31 16827.36,17515.31 16827.36,17653.53 "/>
  <polygon class="fil1 str4" points="17089.98,19657.83 17089.98,19519.58 16827.36,19519.58 16827.36,19657.83 "/>
  <polygon class="fil1 str4" points="17089.98,15041.06 17089.98,14902.85 16827.36,14902.85 16827.36,15041.06 "/>
  <g id="_2286952533536">
   <polygon class="fil0 str3" points="17089.98,12470.06 17089.98,12746.52 17532.31,12746.52 17532.31,12470.06 "/>
   <polygon class="fil0 str3" points="19937.44,12470.06 19937.44,12746.52 20407.4,12746.52 20407.4,12470.06 "/>
  </g>
  <g id="_2322291363072">
   <line class="fil1 str5" x1="14165.86" y1="26450.73" x2="14165.86" y2= "24827.48" />
   <polygon class="fil1 str6" points="12238.25,24827.48 12238.25,26450.73 14165.86,26450.73 14165.86,24827.48 "/>
   <polygon class="fil1 str6" points="14081.34,24928.93 14081.34,26349.28 12661,26349.28 12661,24928.93 "/>
   <line class="fil1 str5" x1="14081.34" y1="24928.93" x2="13861.5" y2= "25148.74" />
   <line class="fil1 str5" x1="13590.97" y1="25419.26" x2="13151.33" y2= "25858.91" />
   <line class="fil1 str5" x1="12880.8" y1="26129.44" x2="12661" y2= "26349.28" />
   <line class="fil1 str5" x1="12661" y1="24928.93" x2="12880.8" y2= "25148.74" />
   <line class="fil1 str5" x1="13151.33" y1="25419.26" x2="13590.97" y2= "25858.91" />
   <line class="fil1 str5" x1="13861.5" y1="26129.44" x2="14081.34" y2= "26349.28" />
   <line class="fil1 str5" x1="12661" y1="25639.11" x2="14081.34" y2= "25639.11" />
   <line class="fil1 str5" x1="13371.17" y1="24928.93" x2="13371.17" y2= "26349.28" />
   <line class="fil1 str5" x1="12661" y1="25639.11" x2="12880.8" y2= "25858.91" />
   <line class="fil1 str5" x1="13151.33" y1="26129.44" x2="13371.17" y2= "26349.28" />
   <line class="fil1 str5" x1="13371.17" y1="24928.93" x2="13590.97" y2= "25148.74" />
   <polyline class="fil1 str5" points="13861.5,25419.26 14081.34,25639.11 13861.5,25858.91 "/>
   <line class="fil1 str5" x1="13590.97" y1="26129.44" x2="13371.17" y2= "26349.28" />
   <line class="fil1 str5" x1="13371.17" y1="24928.93" x2="13151.33" y2= "25148.74" />
   <line class="fil1 str5" x1="12880.8" y1="25419.26" x2="12661" y2= "25639.11" />
   <path class="fil1 str7" d="M12948.46 25275.55c0,32.67 26.48,59.2 59.16,59.2 32.67,0 59.19,-26.53 59.19,-59.2 0,-32.67 -26.52,-59.19 -59.19,-59.19 -32.68,0 -59.16,26.52 -59.16,59.19z"/>
   <path class="fil1 str7" d="M12948.46 25985.72c0,32.68 26.48,59.2 59.16,59.2 32.67,0 59.19,-26.52 59.19,-59.2 0,-32.67 -26.52,-59.19 -59.19,-59.19 -32.68,0 -59.16,26.52 -59.16,59.19z"/>
   <path class="fil1 str7" d="M13658.63 25275.55c0,32.67 26.48,59.2 59.16,59.2 32.67,0 59.19,-26.53 59.19,-59.2 0,-32.67 -26.52,-59.19 -59.19,-59.19 -32.68,0 -59.16,26.52 -59.16,59.19z"/>
   <path class="fil1 str7" d="M13658.63 25985.72c0,32.68 26.48,59.2 59.16,59.2 32.67,0 59.19,-26.52 59.19,-59.2 0,-32.67 -26.52,-59.19 -59.19,-59.19 -32.68,0 -59.16,26.52 -59.16,59.19z"/>
   <line class="fil1 str6" x1="12559.54" y1="24827.48" x2="12559.54" y2= "26450.73" />
   <line class="fil1 str5" x1="12525.71" y1="24912" x2="12525.71" y2= "26366.17" />
   <polyline class="fil1 str5" points="12255.19,26366.17 12255.19,24912 12525.71,24912 "/>
   <line class="fil1 str5" x1="12255.19" y1="25081.11" x2="12525.71" y2= "25081.11" />
   <line class="fil1 str5" x1="12255.19" y1="24996.56" x2="12525.71" y2= "24996.56" />
   <line class="fil1 str5" x1="12255.19" y1="25148.74" x2="12525.71" y2= "25148.74" />
   <line class="fil1 str5" x1="12255.19" y1="25233.29" x2="12525.71" y2= "25233.29" />
   <line class="fil1 str5" x1="12255.19" y1="25402.37" x2="12525.71" y2= "25402.37" />
   <line class="fil1 str5" x1="12255.19" y1="25317.81" x2="12525.71" y2= "25317.81" />
   <line class="fil1 str5" x1="12255.19" y1="25469.99" x2="12525.71" y2= "25469.99" />
   <line class="fil1 str5" x1="12255.19" y1="25554.55" x2="12525.71" y2= "25554.55" />
   <line class="fil1 str5" x1="12255.19" y1="25723.62" x2="12525.71" y2= "25723.62" />
   <line class="fil1 str5" x1="12255.19" y1="25639.11" x2="12525.71" y2= "25639.11" />
   <line class="fil1 str5" x1="12255.19" y1="25791.29" x2="12525.71" y2= "25791.29" />
   <line class="fil1 str5" x1="12255.19" y1="25875.8" x2="12525.71" y2= "25875.8" />
   <line class="fil1 str5" x1="12255.19" y1="26044.92" x2="12525.71" y2= "26044.92" />
   <line class="fil1 str5" x1="12255.19" y1="25960.36" x2="12525.71" y2= "25960.36" />
   <line class="fil1 str5" x1="12255.19" y1="26129.44" x2="12525.71" y2= "26129.44" />
   <line class="fil1 str5" x1="12255.19" y1="26197.1" x2="12525.71" y2= "26197.1" />
   <line class="fil1 str5" x1="12255.19" y1="26366.17" x2="12525.71" y2= "26366.17" />
   <line class="fil1 str5" x1="12255.19" y1="26281.62" x2="12525.71" y2= "26281.62" />
   <line class="fil1 str5" x1="14199.69" y1="25317.81" x2="14233.52" y2= "25317.81" />
   <path class="fil1 str7" d="M14191.22 25334.75c14.02,0 25.37,-11.39 25.37,-25.37 0,-14.02 -11.35,-25.36 -25.37,-25.36"/>
   <polyline class="fil1 str5" points="14165.86,25267.08 14199.69,25267.08 14199.69,25317.81 14199.69,25351.64 14165.86,25351.64 "/>
   <line class="fil1 str5" x1="14199.69" y1="25639.11" x2="14233.52" y2= "25639.11" />
   <path class="fil1 str7" d="M14191.22 25656c14.02,0 25.37,-11.34 25.37,-25.36 0,-14.02 -11.35,-25.37 -25.37,-25.37"/>
   <polyline class="fil1 str5" points="14165.86,25588.38 14199.69,25588.38 14199.69,25639.11 14199.69,25672.9 14165.86,25672.9 "/>
   <line class="fil1 str5" x1="14199.69" y1="25960.36" x2="14233.52" y2= "25960.36" />
   <path class="fil1 str7" d="M14191.22 25977.26c14.02,0 25.37,-11.35 25.37,-25.37 0,-14.02 -11.35,-25.36 -25.37,-25.36"/>
   <polyline class="fil1 str5" points="14165.86,25909.63 14199.69,25909.63 14199.69,25960.36 14199.69,25994.19 14165.86,25994.19 "/>
   <line class="fil1 str5" x1="14199.69" y1="25469.99" x2="14233.52" y2= "25469.99" />
   <path class="fil1 str7" d="M14191.22 25486.93c14.02,0 25.37,-11.39 25.37,-25.37 0,-14.02 -11.35,-25.36 -25.37,-25.36"/>
   <polyline class="fil1 str5" points="14165.86,25436.2 14199.69,25436.2 14199.69,25469.99 14199.69,25520.72 14165.86,25520.72 "/>
   <line class="fil1 str5" x1="14199.69" y1="25791.29" x2="14233.52" y2= "25791.29" />
   <path class="fil1 str7" d="M14191.22 25808.18c14.02,0 25.37,-11.34 25.37,-25.36 0,-14.02 -11.35,-25.37 -25.37,-25.37"/>
   <polyline class="fil1 str5" points="14165.86,25757.45 14199.69,25757.45 14199.69,25791.29 14199.69,25842.01 14165.86,25842.01 "/>
  </g>
  <text x="13703.14" y="31540.03"  class="fil3 fnt0">3.20 (1.60)</text>
  <polygon class="fil0 str3" points="22632.84,34434.15 20407.4,34434.15 20407.4,28753.07 19149.55,28753.07 19149.55,29153.94 20020.37,29153.94 20020.37,34821.21 20089.5,34821.21 22632.84,34821.21 22632.84,34558.56 "/>
  <polygon class="fil0 str3" points="22757.25,34821.21 22757.25,35139.11 19785.38,35139.11 19702.44,35139.11 19702.44,29471.87 19011.34,29471.87 19011.34,29153.94 20020.37,29153.94 20020.37,34821.21 "/>
  <polyline class="fil1 str1" points="19149.55,28227.84 17062.35,28227.84 17062.35,29471.87 "/>
  <polygon class="fil1 str1" points="17242.04,29153.94 18956.02,29153.94 18956.02,28974.26 17242.04,28974.26 "/>
  <polygon class="fil1 str1" points="18956.02,29153.94 19149.55,29153.94 19149.55,28974.26 18956.02,28974.26 "/>
  <line class="fil1 str1" x1="19011.34" y1="29471.87" x2="17062.35" y2= "29471.87" />
  <polygon class="fil1 str1" points="17242.04,29153.94 17062.35,29153.94 17062.35,28974.26 17242.04,28974.26 "/>
  <g>
   <polygon class="fil0" points="20395.11,28227.84 20395.11,28753.07 19183.61,28753.07 19183.61,28227.84 "/>
   <path id="_1_5" class="fil2" d="M20301.91 28753.07l0 -525.23 186.4 0 0 525.23 -93.2 96.76 -93.2 -96.76zm186.4 0c0,53.43 -41.73,96.76 -93.2,96.76 -51.47,0 -93.2,-43.33 -93.2,-96.76l186.4 0zm-1304.7 -96.76l1211.5 0 0 193.52 -1211.5 0 -93.2 -96.76 93.2 -96.76zm0 193.52c-51.47,0 -93.2,-43.33 -93.2,-96.76 0,-53.43 41.73,-96.76 93.2,-96.76l0 193.52zm93.2 -621.99l0 525.23 -186.4 0 0 -525.23 93.2 -96.76 93.2 96.76zm-186.4 0c0,-53.43 41.73,-96.76 93.2,-96.76 51.47,0 93.2,43.33 93.2,96.76l-186.4 0zm1304.7 96.76l-1211.5 0 0 -193.52 1211.5 0 93.2 96.76 -93.2 96.76zm0 -193.52c51.47,0 93.2,43.33 93.2,96.76 0,53.43 -41.73,96.76 -93.2,96.76l0 -193.52z"/>
  </g>
  <g>
   <polygon class="fil0" points="19632.07,20170.77 20583.19,20170.77 20583.19,19908.15 19632.07,19908.15 "/>
   <path id="_1_6" class="fil2" d="M20583.19 20232.97l-951.12 0 0 -124.4 951.12 0 112.63 62.2 -112.63 62.2zm0 -124.4c62.2,0 112.63,27.85 112.63,62.2 0,34.35 -50.43,62.2 -112.63,62.2l0 -124.4zm112.63 -200.42l0 262.62 -225.26 0 0 -262.62 112.63 -62.2 112.63 62.2zm-225.26 0c0,-34.35 50.43,-62.2 112.63,-62.2 62.2,0 112.63,27.85 112.63,62.2l-225.26 0zm-838.49 -62.2l951.12 0 0 124.4 -951.12 0 -112.63 -62.2 112.63 -62.2zm0 124.4c-62.2,0 -112.63,-27.85 -112.63,-62.2 0,-34.35 50.43,-62.2 112.63,-62.2l0 124.4zm-112.63 200.42l0 -262.62 225.26 0 0 262.62 -112.63 62.2 -112.63 -62.2zm225.26 0c0,34.35 -50.43,62.2 -112.63,62.2 -62.2,0 -112.63,-27.85 -112.63,-62.2l225.26 0z"/>
  </g>
  <polygon class="fil1 str8" points="17263.54,19920.44 17139.14,19920.44 17139.14,20183.06 17263.54,20183.06 "/>
  <polygon class="fil1 str4" points="19495.11,19920.44 19356.89,19920.44 19356.89,20183.06 19495.11,20183.06 "/>
  <text x="15550.1" y="24857.31"  class="fil3 fnt0">8.60</text>
  <text x="14983.66" y="19055.3"  class="fil3 fnt0">1.60</text>
  <text x="14204.22" y="14574.8"  class="fil3 fnt0">3.60</text>
  <polygon class="fil1 str4" points="17670.52,12470.06 17532.31,12470.06 17532.31,12746.52 17670.52,12746.52 "/>
  <polygon class="fil1 str4" points="19937.44,12470.06 19799.22,12470.06 19799.22,12746.52 19937.44,12746.52 "/>
  <g>
   <path class="fil2" d="M20407.4 3645.27l-1603.4 0 0 -181.54 1603.4 0 96.76 90.77 -96.76 90.77zm0 -181.54c53.43,0 96.76,40.64 96.76,90.77 0,50.13 -43.33,90.77 -96.76,90.77l0 -181.54zm-96.76 583.52l0 -492.75 193.52 0 0 492.75 -96.76 90.77 -96.76 -90.77zm193.52 0c0,50.13 -43.33,90.77 -96.76,90.77 -53.43,0 -96.76,-40.64 -96.76,-90.77l193.52 0zm-1700.16 -90.77l1603.4 0 0 181.54 -1603.4 0 -96.76 -90.77 96.76 -90.77zm0 181.54c-53.43,0 -96.76,-40.64 -96.76,-90.77 0,-50.13 43.33,-90.77 96.76,-90.77l0 181.54zm96.76 -583.52l0 492.75 -193.52 0 0 -492.75 96.76 -90.77 96.76 90.77zm-193.52 0c0,-50.13 43.33,-90.77 96.76,-90.77 53.43,0 96.76,40.64 96.76,90.77l-193.52 0z"/>
  </g>
  <text x="13502.74" y="6299.9"  class="fil3 fnt0">8.10</text>
  <g>
   <polygon class="fil0" points="11711.46,21416.72 11711.46,10094.35 12234.24,10094.35 12234.24,21416.72 "/>
   <path id="_1_7" class="fil2" d="M11738.56 10094.35l0 11322.37 -54.2 0 0 -11322.37 27.1 -30.73 27.1 30.73zm-54.2 0c0,-16.97 12.14,-30.73 27.1,-30.73 14.96,0 27.1,13.76 27.1,30.73l-54.2 0zm549.88 30.73l-522.78 0 0 -61.46 522.78 0 27.1 30.73 -27.1 30.73zm0 -61.46c14.96,0 27.1,13.76 27.1,30.73 0,16.97 -12.14,30.73 -27.1,30.73l0 -61.46zm-27.1 11353.1l0 -11322.37 54.2 0 0 11322.37 -27.1 30.73 -27.1 -30.73zm54.2 0c0,16.97 -12.14,30.73 -27.1,30.73 -14.96,0 -27.1,-13.76 -27.1,-30.73l54.2 0zm-549.88 -30.73l522.78 0 0 61.46 -522.78 0 -27.1 -30.73 27.1 -30.73zm0 61.46c-14.96,0 -27.1,-13.76 -27.1,-30.73 0,-16.97 12.14,-30.73 27.1,-30.73l0 61.46z"/>
  </g>
  <g>
   <polygon class="fil0" points="12236.81,2907.13 12236.81,10347.19 11697.68,10347.19 11697.68,2907.13 "/>
   <path id="_1_8" class="fil2" d="M12208.86 10347.19l0 -7440.06 55.9 0 0 7440.06 -27.95 60.66 -27.95 -60.66zm55.9 0c0,33.5 -12.52,60.66 -27.95,60.66 -15.43,0 -27.95,-27.16 -27.95,-60.66l55.9 0zm-567.08 -60.66l539.13 0 0 121.32 -539.13 0 -27.95 -60.66 27.95 -60.66zm0 121.32c-15.43,0 -27.95,-27.16 -27.95,-60.66 0,-33.5 12.52,-60.66 27.95,-60.66l0 121.32zm27.95 -7500.72l0 7440.06 -55.9 0 0 -7440.06 27.95 -60.66 27.95 60.66zm-55.9 0c0,-33.5 12.52,-60.66 27.95,-60.66 15.43,0 27.95,27.16 27.95,60.66l-55.9 0zm567.08 60.66l-539.13 0 0 -121.32 539.13 0 27.95 60.66 -27.95 60.66zm0 -121.32c15.43,0 27.95,27.16 27.95,60.66 0,33.5 -12.52,60.66 -27.95,60.66l0 -121.32z"/>
  </g>
  <line class="fil1 str9" x1="11699.17" y1="20127.78" x2="11768.29" y2= "20058.66" />
  <path class="fil0" d="M11865.04 19961.91l0 -6.92c-3.82,0 -6.92,3.1 -6.92,6.92 0,3.82 3.1,6.92 6.92,6.92 3.82,0 6.92,-3.1 6.92,-6.92 0,-3.82 -3.1,-6.92 -6.92,-6.92l0 6.92z"/>
  <path class="fil0" d="M11726.83 20459.52l0 -6.92c-3.82,0 -6.93,3.1 -6.93,6.92 0,3.82 3.11,6.93 6.93,6.93 3.82,0 6.92,-3.11 6.92,-6.93 0,-3.82 -3.1,-6.92 -6.92,-6.92l0 6.92z"/>
  <line class="fil1 str9" x1="11809.76" y1="20362.78" x2="12238.25" y2= "19948.1" />
  <line class="fil1 str9" x1="11699.17" y1="20832.73" x2="12127.69" y2= "20404.24" />
  <path class="fil0" d="M12210.63 20321.31l0 -6.92c-3.82,0 -6.93,3.1 -6.93,6.92 0,3.82 3.11,6.92 6.93,6.92 3.82,0 6.92,-3.1 6.92,-6.92 0,-3.82 -3.1,-6.92 -6.92,-6.92l0 6.92z"/>
  <line class="fil1 str9" x1="11699.17" y1="21192.13" x2="11989.44" y2= "20901.86" />
  <path class="fil0" d="M12086.22 20805.08l0 -6.92c-3.82,0 -6.92,3.1 -6.92,6.92 0,3.82 3.1,6.92 6.92,6.92 3.82,0 6.93,-3.1 6.93,-6.92 0,-3.82 -3.11,-6.92 -6.93,-6.92l0 6.92z"/>
  <line class="fil1 str9" x1="12169.16" y1="20722.14" x2="12238.25" y2= "20653.05" />
  <line class="fil1 str9" x1="12044.76" y1="21205.94" x2="12238.25" y2= "21012.42" />
  <polygon class="fil0 str10" points="20946.48,34434.15 20407.4,34434.15 20407.4,33107.19 20946.48,33107.19 "/>
  <line class="fil1 str9" x1="20407.4" y1="33314.52" x2="20476.52" y2= "33245.43" />
  <path class="fil0" d="M20573.27 33162.5l0 -6.92c-3.82,0 -6.93,3.1 -6.93,6.92 0,3.82 3.11,6.92 6.93,6.92 3.82,0 6.92,-3.1 6.92,-6.92 0,-3.82 -3.1,-6.92 -6.92,-6.92l0 6.92z"/>
  <path class="fil0" d="M20435.05 33646.27l0 -6.93c-3.82,0 -6.92,3.11 -6.92,6.93 0,3.82 3.1,6.92 6.92,6.92 3.82,0 6.92,-3.1 6.92,-6.92 0,-3.82 -3.1,-6.93 -6.92,-6.93l0 6.93z"/>
  <line class="fil1 str9" x1="20517.99" y1="33563.33" x2="20946.48" y2= "33148.65" />
  <line class="fil1 str9" x1="20407.4" y1="34019.48" x2="20835.92" y2= "33604.8" />
  <path class="fil0" d="M20918.85 33508.05l0 -6.92c-3.82,0 -6.92,3.1 -6.92,6.92 0,3.82 3.1,6.92 6.92,6.92 3.82,0 6.93,-3.1 6.93,-6.92 0,-3.82 -3.11,-6.92 -6.93,-6.92l0 6.92z"/>
  <line class="fil1 str9" x1="20407.4" y1="34378.87" x2="20697.67" y2= "34088.6" />
  <path class="fil0" d="M20794.45 34005.66l0 -6.92c-3.82,0 -6.92,3.1 -6.92,6.92 0,3.83 3.1,6.93 6.92,6.93 3.82,0 6.92,-3.1 6.92,-6.93 0,-3.82 -3.1,-6.92 -6.92,-6.92l0 6.92z"/>
  <line class="fil1 str9" x1="20877.39" y1="33908.92" x2="20946.48" y2= "33853.61" />
  <line class="fil1 str9" x1="20752.98" y1="34406.53" x2="20946.48" y2= "34213" />
  <polygon class="fil0 str10" points="20946.48,28753.07 20946.48,33107.19 20407.4,33107.19 20407.4,28753.07 "/>
  <g>
   <polygon class="fil0" points="20382.81,19915.22 20645.46,19915.22 20645.46,28620.96 20382.81,28620.96 "/>
   <path id="_1_9" class="fil2" d="M20645.46 19992.64l-262.65 0 0 -154.84 262.65 0 62.2 77.42 -62.2 77.42zm0 -154.84c34.35,0 62.2,34.67 62.2,77.42 0,42.75 -27.85,77.42 -62.2,77.42l0 -154.84zm-62.2 8783.16l0 -8705.74 124.4 0 0 8705.74 -62.2 77.42 -62.2 -77.42zm124.4 0c0,42.75 -27.85,77.42 -62.2,77.42 -34.35,0 -62.2,-34.67 -62.2,-77.42l124.4 0zm-324.85 -77.42l262.65 0 0 154.84 -262.65 0 -62.2 -77.42 62.2 -77.42zm0 154.84c-34.35,0 -62.2,-34.67 -62.2,-77.42 0,-42.75 27.85,-77.42 62.2,-77.42l0 154.84zm62.2 -8783.16l0 8705.74 -124.4 0 0 -8705.74 62.2 -77.42 62.2 77.42zm-124.4 0c0,-42.75 27.85,-77.42 62.2,-77.42 34.35,0 62.2,34.67 62.2,77.42l-124.4 0z"/>
  </g>
  <polygon class="fil0 str11" points="11830.22,28718.98 11705.81,28718.98 11705.81,3520.4 11830.22,3520.4 "/>
  <polygon class="fil1 str4" points="25687.64,19491.95 25687.64,19630.17 25424.99,19630.17 25424.99,19491.95 "/>
  <polygon class="fil1 str4" points="25687.64,16962.42 25687.64,17086.82 25424.99,17086.82 25424.99,16962.42 "/>
  <g id="_2286803103728">
   <polygon class="fil0 str12" points="25687.64,16962.42 25687.64,15953.35 25162.38,15953.35 25162.38,16962.42 "/>
   <polygon class="fil0 str12" points="28728.6,20445.71 25162.38,20445.71 25162.38,19630.17 25687.64,19630.17 25687.64,19920.44 28728.6,19920.44 "/>
  </g>
  <g>
   <polygon class="fil0" points="28740.66,19940.74 29382.09,19940.74 29382.09,33915.07 28740.66,33915.07 "/>
   <polygon id="_1_10" class="fil1 str13" points="28740.66,19940.74 29382.09,19940.74 29382.09,33915.07 28740.66,33915.07 "/>
  </g>
  <text x="23826.01" y="27168.68"  class="fil3 fnt0">16.00</text>
  <text x="19771.69" y="18066.31"  class="fil3 fnt0">6.20</text>
  <g>
   <polygon class="fil0" points="14373.3,9668.71 14511.54,9668.71 14511.54,11272.14 14373.3,11272.14 "/>
   <path id="_1_11" class="fil2" d="M14511.54 9730.91l-138.24 0 0 -124.4 138.24 0 31.1 62.2 -31.1 62.2zm0 -124.4c17.17,0 31.1,27.85 31.1,62.2 0,34.35 -13.93,62.2 -31.1,62.2l0 -124.4zm-31.1 1665.63l0 -1603.43 62.2 0 0 1603.43 -31.1 62.2 -31.1 -62.2zm62.2 0c0,34.35 -13.93,62.2 -31.1,62.2 -17.17,0 -31.1,-27.85 -31.1,-62.2l62.2 0zm-169.34 -62.2l138.24 0 0 124.4 -138.24 0 -31.1 -62.2 31.1 -62.2zm0 124.4c-17.17,0 -31.1,-27.85 -31.1,-62.2 0,-34.35 13.93,-62.2 31.1,-62.2l0 124.4zm31.1 -1665.63l0 1603.43 -62.2 0 0 -1603.43 31.1 -62.2 31.1 62.2zm-62.2 0c0,-34.35 13.93,-62.2 31.1,-62.2 17.17,0 31.1,27.85 31.1,62.2l-62.2 0z"/>
  </g>
  <polygon class="fil0" points="12728.24,9798.68 11745.39,9798.68 11745.39,9541.78 12728.24,9541.78 "/>
  <rect class="fil4 str14" x="20645.46" y="28151.94" width="387.65" height="783.11"/>
  <rect class="fil4 str14" x="11650.33" y="2849.54" width="2536.92" height="1250.85"/>
  <rect class="fil4 str14" x="18725.54" y="2849.54" width="2268.06" height="1230.21"/>
  <g id="_2286803144816">
   <path class="fil5 str15" d="M12149.31 13172.74c631.24,5.96 1220,-186.76 1301.39,586.01 20.76,251.66 11.88,491.84 -22.8,738.92 -140.45,632.84 -684.42,434.15 -1287.87,444.73"/>
   <path class="fil5 str16" d="M12614.25 13270.5c-83.29,-1.76 -163.74,60.27 -201.8,129.2 0,459.11 0,896.32 0,1355.44 14.29,64.83 59.21,79.38 156.63,101.35 886.66,33.19 698.54,-573.56 714,-1124 -39.36,-398.49 -325.27,-444.53 -668.83,-461.99z"/>
   <circle class="fil5 str16" transform="matrix(2.53988E-14 0.959006 0.959006 -2.53988E-14 12542.8 14074.9)" r="94.44"/>
   <path class="fil5 str16" d="M12573.62 13480.16c-66.52,-1.24 -130.79,43.04 -161.17,92.26 0,327.8 0,639.98 0,967.79 11.41,46.29 47.28,56.68 125.09,72.36 699.17,57.98 567.2,-349.03 570.26,-802.53 -5.52,-297.01 -271.74,-329.88 -534.18,-329.88z"/>
  </g>
  <g id="_2286803141888">
   <rect class="fil5 str16" transform="matrix(0.000137587 0.725362 0.741036 -0.000134677 12171.7 15211.4)" width="2611.41" height="5846.68"/>
   <path class="fil5 str16" d="M15710.48 15427.1c-951.61,-39.73 -1892.03,-13.71 -2838.04,-20.54 -331.09,-4.61 -500.1,7.37 -494.67,350.42 0.06,283.91 0.11,567.8 0.16,851.7 -3,241.08 70.67,331.75 482.89,313.26 949.97,-7.19 1899.97,7.56 2849.94,-21.55 754.46,-88.88 830.87,-1340.95 -0.28,-1473.29z"/>
   <circle class="fil5 str16" transform="matrix(0.000137587 0.725362 0.741036 -0.000134677 12669 16174)" r="121.03"/>
  </g>
  <g id="_2286803139248">
   <line class="fil5 str17" x1="13280.89" y1="19107.19" x2="13012.41" y2= "19077.39" />
   <line class="fil5 str16" x1="13270.15" y1="18184.4" x2="13001.74" y2= "18214.27" />
   <path class="fil5 str16" d="M12056.34 19538.99c212.72,0 425.47,0.04 638.18,0.04 158.65,0.46 273.41,-81.75 320.61,-283.37 -2.5,-358.75 -5,-717.54 -7.51,-1076.3 14.66,-280.72 -106.93,-397.46 -313.1,-414.82l-648.29 0"/>
   <path class="fil5 str16" d="M13817.31 17978.03c-211.9,-34.69 -395.66,13.14 -536.8,186.4 -26.72,70.05 -47.64,138.8 -62.99,206.27 -59.68,262.51 -34.86,506.04 63.02,733.15 125.46,152.69 289.18,223.95 495.45,204.72 308,-30.01 606.98,-141.04 891.27,-383.69 172.44,-169.57 186.58,-361.43 0,-581.51 -247.56,-199.23 -532.41,-317.68 -849.95,-365.34z"/>
  </g>
  <g id="_2286803137520">
   <polygon class="fil5 str18" points="15267.9,12946.16 15532.99,12943.49 16516.27,12933.56 16779.91,12930.9 16766,11552.61 15254,11567.86 "/>
   <rect class="fil5 str18" transform="matrix(2.38682 -0.0240859 -0.0240859 -2.38682 15534.3 13073.6)" width="411.96" height="54.5"/>
  </g>
  <g id="_2286803136752">
   <path class="fil5 str15" d="M12217.77 22704.56l0 1605.98c-0.01,59.83 48.51,108.34 108.33,108.34l1627.05 0c59.82,0 108.33,-48.51 108.33,-108.33l0.01 -1605.99c-0.01,-59.82 -48.52,-108.33 -108.34,-108.33l-1627.04 -0.01c-59.83,0.01 -108.35,48.52 -108.35,108.35z"/>
   <rect class="fil5 str15" transform="matrix(-5.0074E-14 0.63023 0.63023 5.0074E-14 12533.8 22764.8)" width="2373.81" height="2106.33"/>
   <circle class="fil5 str19" transform="matrix(-5.0074E-14 0.63023 0.63023 5.0074E-14 12807.8 23860.5)" r="183.89"/>
  </g>
  <rect class="fil4 str14" x="11654.69" y="28730.99" width="3541.47" height="765.46"/>
  <path class="fil5 str20" d="M25424.99 19491.95c1478.43,-35.88 2637.94,-920.74 3060.73,-2365.47 -932.62,0 -2080.72,-19.7 -3013.35,-19.7"/>
  <path class="fil5 str20" d="M17676.48 12733.65c31.5,-1297.89 808.31,-2315.81 2076.61,-2686.98 0,818.74 17.3,1826.64 17.3,2645.38"/>
  <path class="fil5 str20" d="M16841.56 14879.76c1136.35,-27.58 2027.58,-707.7 2352.55,-1818.15 -716.84,0 -1599.29,-15.14 -2316.14,-15.14"/>
  <polygon class="fil1 str21" points="17089.98,13036.79 17089.98,12898.58 16827.36,12898.58 16827.36,13036.79 "/>
  <path class="fil5 str20" d="M16841.56 17662.54c1136.35,27.58 2027.58,707.7 2352.55,1818.15 -716.84,0 -1599.29,15.15 -2316.14,15.15"/>
  <path class="fil5 str20" d="M19341.88 20100.2c-31.45,1268.39 -807.04,2263.18 -2073.36,2625.91 0,-800.13 -17.27,-1785.13 -17.27,-2585.26"/>
  <g id="_2286803125472">
   <rect class="fil4 str14" x="20595.55" y="29989.62" width="296.55" height="3263.66"/>
   <rect class="fil4 str14" transform="matrix(-7.73881E-15 -0.833899 2.12161 8.03667E-14 11666.6 33253.3)" width="444" height="4347.05"/>
   <rect class="fil4 str14" x="11650.91" y="29463.3" width="296.55" height="3789.98" rx="33.4" ry="43.59"/>
  </g>
  <rect class="fil5 str22" x="15196.14" y="28730.98" width="167.81" height="367.44" rx="24.58" ry="24.58"/>
  <rect class="fil5 str22" x="16882.25" y="28730.98" width="167.81" height="367.44" rx="24.58" ry="24.58"/>
  <path class="fil5 str20" d="M16875.48 28869.07c-22.37,-974.02 -574,-1737.93 -1474.65,-2016.47 0,614.43 -12.28,1370.82 -12.28,1985.26"/>
  <g id="_2286803122640">
   <rect class="fil5 str23" transform="matrix(3.48747E-14 0.712498 -0.91393 8.20051E-15 16972.3 33197)" width="2496.64" height="5813.27"/>
   <line class="fil5 str23" x1="16979.18" y1="33194.16" x2="11666.26" y2= "34973.01" />
   <line class="fil5 str23" x1="16972.23" y1="34975.88" x2="11700.68" y2= "33240.69" />
  </g>
  <polygon class="fil0" points="14545.17,9798.68 14053.75,9798.68 14053.75,9541.78 14545.17,9541.78 "/>
  <text x="12429.8" y="10877.42"  class="fil3 fnt1">0.60</text>
  <polygon class="fil1 str24" points="12873.93,9513.54 12735.72,9513.54 12735.72,9790 12873.93,9790 "/>
  <polygon class="fil1 str25" points="14067.32,9513.54 13929.11,9513.54 13929.11,9790 14067.32,9790 "/>
  <path class="fil5 str20" d="M12873.94 9732.24c19.79,-815.48 248.68,-1413.59 1045.57,-1646.8 0,514.42 10.87,1147.7 10.87,1662.12"/>
  <g>
   <polygon class="fil0" points="20664.1,20170.77 21615.22,20170.77 21615.22,19908.15 20664.1,19908.15 "/>
   <path id="_1_12" class="fil2" d="M21615.22 20232.97l-951.12 0 0 -124.4 951.12 0 112.63 62.2 -112.63 62.2zm0 -124.4c62.2,0 112.63,27.85 112.63,62.2 0,34.35 -50.43,62.2 -112.63,62.2l0 -124.4zm112.63 -200.42l0 262.62 -225.26 0 0 -262.62 112.63 -62.2 112.63 62.2zm-225.26 0c0,-34.35 50.43,-62.2 112.63,-62.2 62.2,0 112.63,27.85 112.63,62.2l-225.26 0zm-838.49 -62.2l951.12 0 0 124.4 -951.12 0 -112.63 -62.2 112.63 -62.2zm0 124.4c-62.2,0 -112.63,-27.85 -112.63,-62.2 0,-34.35 50.43,-62.2 112.63,-62.2l0 124.4zm-112.63 200.42l0 -262.62 225.26 0 0 262.62 -112.63 62.2 -112.63 -62.2zm225.26 0c0,34.35 -50.43,62.2 -112.63,62.2 -62.2,0 -112.63,-27.85 -112.63,-62.2l225.26 0z"/>
  </g>
  <g>
   <polygon class="fil0" points="24190.61,20170.77 25141.73,20170.77 25141.73,19908.15 24190.61,19908.15 "/>
   <path id="_1_13" class="fil2" d="M25141.73 20232.97l-951.12 0 0 -124.4 951.12 0 112.63 62.2 -112.63 62.2zm0 -124.4c62.2,0 112.63,27.85 112.63,62.2 0,34.35 -50.43,62.2 -112.63,62.2l0 -124.4zm112.63 -200.42l0 262.62 -225.26 0 0 -262.62 112.63 -62.2 112.63 62.2zm-225.26 0c0,-34.35 50.43,-62.2 112.63,-62.2 62.2,0 112.63,27.85 112.63,62.2l-225.26 0zm-838.49 -62.2l951.12 0 0 124.4 -951.12 0 -112.63 -62.2 112.63 -62.2zm0 124.4c-62.2,0 -112.63,-27.85 -112.63,-62.2 0,-34.35 50.43,-62.2 112.63,-62.2l0 124.4zm-112.63 200.42l0 -262.62 225.26 0 0 262.62 -112.63 62.2 -112.63 -62.2zm225.26 0c0,34.35 -50.43,62.2 -112.63,62.2 -62.2,0 -112.63,-27.85 -112.63,-62.2l225.26 0z"/>
  </g>
  <polygon class="fil1 str26" points="21819.39,19920.44 21694.99,19920.44 21694.99,20183.06 21819.39,20183.06 "/>
  <polygon class="fil1 str27" points="24066.53,19920.44 23942.13,19920.44 23942.13,20183.06 24066.53,20183.06 "/>
  <path class="fil5 str20" d="M21842.06 20069.27c31.5,-1297.89 808.31,-2315.81 2076.61,-2686.98 0,818.74 17.3,1826.64 17.3,2645.38"/>
 </g>
</svg>
