<?xml version="1.0" encoding="UTF-8"?>
<!DOCTYPE svg PUBLIC "-//W3C//DTD SVG 1.1//EN" "http://www.w3.org/Graphics/SVG/1.1/DTD/svg11.dtd">
<!-- Creator: CorelDRAW -->
<svg xmlns="http://www.w3.org/2000/svg" xml:space="preserve" width="400mm" height="400mm" version="1.1" style="shape-rendering:geometricPrecision; text-rendering:geometricPrecision; image-rendering:optimizeQuality; fill-rule:evenodd; clip-rule:evenodd"
viewBox="0 0 40000 40000"
 xmlns:xlink="http://www.w3.org/1999/xlink"
 xmlns:xodm="http://www.corel.com/coreldraw/odm/2003">
 <defs>
  <style type="text/css">
   <![CDATA[
    .str16 {stroke:black;stroke-width:100;stroke-miterlimit:22.9256}
    .str8 {stroke:black;stroke-width:200;stroke-miterlimit:22.9256}
    .str12 {stroke:#1F1B20;stroke-width:16.9;stroke-miterlimit:22.9256}
    .str13 {stroke:#1F1B20;stroke-width:40;stroke-miterlimit:22.9256}
    .str14 {stroke:#3A3A3A;stroke-width:40;stroke-miterlimit:22.9256}
    .str11 {stroke:black;stroke-width:40;stroke-miterlimit:22.9256}
    .str9 {stroke:black;stroke-width:20;stroke-miterlimit:22.9256}
    .str15 {stroke:#2B2A29;stroke-width:25.4;stroke-miterlimit:22.9256}
    .str10 {stroke:black;stroke-width:40;stroke-linecap:round;stroke-linejoin:round;stroke-miterlimit:22.9256}
    .str6 {stroke:black;stroke-width:84.79;stroke-linecap:round;stroke-linejoin:round;stroke-miterlimit:10}
    .str7 {stroke:black;stroke-width:84.79;stroke-linecap:round;stroke-linejoin:round;stroke-miterlimit:10}
    .str1 {stroke:black;stroke-width:199.99;stroke-linecap:round;stroke-linejoin:round;stroke-miterlimit:10}
    .str5 {stroke:black;stroke-width:24.06;stroke-linecap:round;stroke-linejoin:round;stroke-miterlimit:10}
    .str3 {stroke:black;stroke-width:24.06;stroke-linecap:round;stroke-linejoin:round;stroke-miterlimit:10}
    .str2 {stroke:black;stroke-width:190.83;stroke-linecap:round;stroke-linejoin:round;stroke-miterlimit:10}
    .str4 {stroke:black;stroke-width:96.28;stroke-linecap:round;stroke-linejoin:round;stroke-miterlimit:10}
    .str0 {stroke:black;stroke-width:148.4;stroke-linecap:round;stroke-linejoin:round;stroke-miterlimit:10}
    .fil5 {fill:none}
    .fil2 {fill:none;fill-rule:nonzero}
    .fil3 {fill:black}
    .fil4 {fill:black}
    .fil1 {fill:black;fill-rule:nonzero}
    .fil0 {fill:black;fill-rule:nonzero}
    .fnt0 {font-weight:normal;font-size:1413.74px;font-family:'Arial'}
   ]]>
  </style>
 </defs>
 <g id="Слой_x0020_1">
  <metadata id="CorelCorpID_0Corel-Layer"/>
  <g>
   <polygon class="fil0" points="8056.71,10734.16 9434.91,10734.16 9434.91,11729.68 8056.71,11729.68 "/>
   <path id="_1" class="fil1" d="M9434.91 10857.71l-1378.2 0 0 -247.1 1378.2 0 100 123.55 -100 123.55zm0 -247.1c55.22,0 100,55.32 100,123.55 0,68.23 -44.78,123.55 -100,123.55l0 -247.1zm-100 1119.07l0 -995.52 200 0 0 995.52 -100 123.55 -100 -123.55zm200 0c0,68.23 -44.78,123.55 -100,123.55 -55.22,0 -100,-55.32 -100,-123.55l200 0zm-1478.2 -123.55l1378.2 0 0 247.1 -1378.2 0 -100 -123.55 100 -123.55zm0 247.1c-55.22,0 -100,-55.32 -100,-123.55 0,-68.23 44.78,-123.55 100,-123.55l0 247.1zm100 -1119.07l0 995.52 -200 0 0 -995.52 100 -123.55 100 123.55zm-200 0c0,-68.23 44.78,-123.55 100,-123.55 55.22,0 100,55.32 100,123.55l-200 0z"/>
  </g>
  <line class="fil2 str0" x1="9260.55" y1="11775.05" x2="16533.1" y2= "11775.05" />
  <polygon class="fil2 str0" points="16151.45,10354.43 9642.2,10354.43 9642.2,10651.29 16151.45,10651.29 "/>
  <polygon class="fil2 str0" points="9642.2,10354.43 9366.58,10354.43 9366.58,10651.29 9642.2,10651.29 "/>
  <polygon class="fil2 str0" points="16151.45,10354.43 16448.3,10354.43 16448.3,10651.29 16151.45,10651.29 "/>
  <g>
   <path class="fil1" d="M9182.06 9962.19c-42.58,0 -77.1,-33.23 -77.1,-74.2 0,-40.97 34.52,-74.2 77.1,-74.2l0 148.4zm7160.21 0l-7160.21 0 0 -148.4 7160.21 0 0 148.4zm0 -148.4c42.58,0 77.1,33.23 77.1,74.2 0,40.97 -34.52,74.2 -77.1,74.2l0 -148.4z"/>
  </g>
  <polygon class="fil0 str1" points="16533.1,10969.33 18610.99,10969.33 18610.99,11775.05 16533.1,11775.05 "/>
  <polygon class="fil0 str2" points="6673.79,34037.99 20625.27,34037.99 20625.27,34843.67 6673.79,34843.67 "/>
  <polygon class="fil0 str2" points="6673.79,25132.82 6673.79,34843.67 5846.89,34843.67 5846.89,25132.82 "/>
  <polygon class="fil0 str2" points="6673.79,17860.22 6673.79,23118.54 5846.89,23118.54 5846.89,17860.22 "/>
  <g id="_2323793028992">
   <line class="fil2 str3" x1="29817.86" y1="16312.33" x2="29817.86" y2= "18623.53" />
   <polygon class="fil2 str4" points="32562.41,18623.53 32562.41,16312.33 29817.86,16312.33 29817.86,18623.53 "/>
   <polygon class="fil2 str4" points="29938.26,18479.08 29938.26,16456.78 31960.56,16456.78 31960.56,18479.08 "/>
   <line class="fil2 str3" x1="29938.26" y1="18479.08" x2="30251.21" y2= "18166.12" />
   <line class="fil2 str3" x1="30636.45" y1="17780.94" x2="31262.36" y2= "17154.97" />
   <line class="fil2 str3" x1="31647.6" y1="16769.79" x2="31960.56" y2= "16456.78" />
   <line class="fil2 str3" x1="31960.56" y1="18479.08" x2="31647.6" y2= "18166.12" />
   <line class="fil2 str3" x1="31262.36" y1="17780.94" x2="30636.45" y2= "17154.97" />
   <line class="fil2 str3" x1="30251.21" y1="16769.79" x2="29938.26" y2= "16456.78" />
   <line class="fil2 str3" x1="31960.56" y1="17467.93" x2="29938.26" y2= "17467.93" />
   <line class="fil2 str3" x1="30949.41" y1="18479.08" x2="30949.41" y2= "16456.78" />
   <line class="fil2 str3" x1="31960.56" y1="17467.93" x2="31647.6" y2= "17154.97" />
   <line class="fil2 str3" x1="31262.36" y1="16769.79" x2="30949.41" y2= "16456.78" />
   <line class="fil2 str3" x1="30949.41" y1="18479.08" x2="30636.45" y2= "18166.12" />
   <polyline class="fil2 str3" points="30251.21,17780.94 29938.26,17467.93 30251.21,17154.97 "/>
   <line class="fil2 str3" x1="30636.45" y1="16769.79" x2="30949.41" y2= "16456.78" />
   <line class="fil2 str3" x1="30949.41" y1="18479.08" x2="31262.36" y2= "18166.12" />
   <line class="fil2 str3" x1="31647.6" y1="17780.94" x2="31960.56" y2= "17467.93" />
   <path class="fil2 str5" d="M31527.21 17961.5c0,-46.52 -37.71,-84.28 -84.28,-84.28 -46.52,0 -84.23,37.76 -84.23,84.28 0,46.52 37.71,84.28 84.23,84.28 46.57,0 84.28,-37.76 84.28,-84.28z"/>
   <path class="fil2 str5" d="M31527.21 16950.35c0,-46.52 -37.71,-84.28 -84.28,-84.28 -46.52,0 -84.23,37.76 -84.23,84.28 0,46.52 37.71,84.28 84.23,84.28 46.57,0 84.28,-37.76 84.28,-84.28z"/>
   <path class="fil2 str5" d="M30516.06 17961.5c0,-46.52 -37.71,-84.28 -84.28,-84.28 -46.52,0 -84.23,37.76 -84.23,84.28 0,46.52 37.71,84.28 84.23,84.28 46.57,0 84.28,-37.76 84.28,-84.28z"/>
   <path class="fil2 str5" d="M30516.06 16950.35c0,-46.52 -37.71,-84.28 -84.28,-84.28 -46.52,0 -84.23,37.76 -84.23,84.28 0,46.52 37.71,84.28 84.23,84.28 46.57,0 84.28,-37.76 84.28,-84.28z"/>
   <line class="fil2 str4" x1="32105.01" y1="18623.53" x2="32105.01" y2= "16312.33" />
   <line class="fil2 str3" x1="32153.18" y1="18503.19" x2="32153.18" y2= "16432.72" />
   <polyline class="fil2 str3" points="32538.36,16432.72 32538.36,18503.19 32153.18,18503.19 "/>
   <line class="fil2 str3" x1="32538.36" y1="18262.4" x2="32153.18" y2= "18262.4" />
   <line class="fil2 str3" x1="32538.36" y1="18382.79" x2="32153.18" y2= "18382.79" />
   <line class="fil2 str3" x1="32538.36" y1="18142.06" x2="32153.18" y2= "18142.06" />
   <line class="fil2 str3" x1="32538.36" y1="18045.73" x2="32153.18" y2= "18045.73" />
   <line class="fil2 str3" x1="32538.36" y1="17804.99" x2="32153.18" y2= "17804.99" />
   <line class="fil2 str3" x1="32538.36" y1="17925.39" x2="32153.18" y2= "17925.39" />
   <line class="fil2 str3" x1="32538.36" y1="17684.6" x2="32153.18" y2= "17684.6" />
   <line class="fil2 str3" x1="32538.36" y1="17588.32" x2="32153.18" y2= "17588.32" />
   <line class="fil2 str3" x1="32538.36" y1="17347.59" x2="32153.18" y2= "17347.59" />
   <line class="fil2 str3" x1="32538.36" y1="17467.93" x2="32153.18" y2= "17467.93" />
   <line class="fil2 str3" x1="32538.36" y1="17227.2" x2="32153.18" y2= "17227.2" />
   <line class="fil2 str3" x1="32538.36" y1="17106.8" x2="32153.18" y2= "17106.8" />
   <line class="fil2 str3" x1="32538.36" y1="16890.13" x2="32153.18" y2= "16890.13" />
   <line class="fil2 str3" x1="32538.36" y1="17010.52" x2="32153.18" y2= "17010.52" />
   <line class="fil2 str3" x1="32538.36" y1="16769.79" x2="32153.18" y2= "16769.79" />
   <line class="fil2 str3" x1="32538.36" y1="16649.4" x2="32153.18" y2= "16649.4" />
   <line class="fil2 str3" x1="32538.36" y1="16432.72" x2="32153.18" y2= "16432.72" />
   <line class="fil2 str3" x1="32538.36" y1="16553.11" x2="32153.18" y2= "16553.11" />
   <line class="fil2 str3" x1="29769.75" y1="17925.39" x2="29721.58" y2= "17925.39" />
   <path class="fil2 str5" d="M29757.7 17877.22c-19.97,0 -36.12,16.15 -36.12,36.11 0,19.96 16.15,36.11 36.12,36.11"/>
   <polyline class="fil2 str3" points="29817.86,17973.5 29769.75,17973.5 29769.75,17925.39 29769.75,17853.16 29817.86,17853.16 "/>
   <line class="fil2 str3" x1="29769.75" y1="17467.93" x2="29721.58" y2= "17467.93" />
   <path class="fil2 str5" d="M29757.7 17419.81c-19.97,0 -36.12,16.16 -36.12,36.12 0,19.96 16.15,36.11 36.12,36.11"/>
   <polyline class="fil2 str3" points="29817.86,17516.1 29769.75,17516.1 29769.75,17467.93 29769.75,17395.7 29817.86,17395.7 "/>
   <line class="fil2 str3" x1="29769.75" y1="17010.52" x2="29721.58" y2= "17010.52" />
   <path class="fil2 str5" d="M29757.7 16962.35c-19.97,0 -36.12,16.21 -36.12,36.11 0,19.97 16.15,36.12 36.12,36.12"/>
   <polyline class="fil2 str3" points="29817.86,17058.69 29769.75,17058.69 29769.75,17010.52 29769.75,16938.3 29817.86,16938.3 "/>
   <line class="fil2 str3" x1="29769.75" y1="17684.6" x2="29721.58" y2= "17684.6" />
   <path class="fil2 str5" d="M29757.7 17636.49c-19.97,0 -36.12,16.15 -36.12,36.11 0,19.96 16.15,36.11 36.12,36.11"/>
   <polyline class="fil2 str3" points="29817.86,17756.83 29769.75,17756.83 29769.75,17684.6 29769.75,17636.49 29817.86,17636.49 "/>
   <line class="fil2 str3" x1="29769.75" y1="17227.2" x2="29721.58" y2= "17227.2" />
   <path class="fil2 str5" d="M29757.7 17179.03c-19.97,0 -36.12,16.2 -36.12,36.11 0,19.96 16.15,36.11 36.12,36.11"/>
   <polyline class="fil2 str3" points="29817.86,17299.42 29769.75,17299.42 29769.75,17227.2 29769.75,17179.03 29817.86,17179.03 "/>
  </g>
  <g id="_2323793029568">
   <polygon class="fil0 str2" points="32562.41,25132.82 32562.41,24729.93 24590.18,24729.93 24590.18,25132.82 "/>
   <polygon class="fil0 str2" points="25077.86,27443.91 25480.69,27443.91 25480.69,25132.82 25077.86,25132.82 "/>
   <polygon class="fil0 str2" points="25077.86,34037.99 25480.69,34037.99 25480.69,30730.36 25077.86,30730.36 "/>
   <polygon class="fil0 str2" points="19628.72,23118.54 20031.56,23118.54 20031.56,11775.05 19628.72,11775.05 "/>
  </g>
  <polygon class="fil2 str6" points="25480.69,30518.3 25480.69,30730.36 25077.86,30730.36 25077.86,30518.3 "/>
  <polygon class="fil2 str6" points="25480.69,27443.91 25480.69,27655.92 25077.86,27655.92 25077.86,27443.91 "/>
  <polygon class="fil2 str6" points="21112.9,25132.82 20922.08,25132.82 20922.08,24729.93 21112.9,24729.93 "/>
  <polygon class="fil2 str7" points="24490.18,25132.82 24299.35,25132.82 24299.35,24729.93 24490.18,24729.93 "/>
  <polygon class="fil2 str6" points="20837.28,34843.67 20625.27,34843.67 20625.27,34440.83 20837.28,34440.83 "/>
  <polygon class="fil2 str6" points="24717.39,34843.67 24526.57,34843.67 24526.57,34440.83 24717.39,34440.83 "/>
  <g transform="matrix(0.986759 0 0 1 5065.83 -893.444)">
   <text x="20000" y="20000"  class="fil3 fnt0">9.10</text>
  </g>
  <g id="_2323793023760">
   <polygon class="fil0" points="19183.46,34037.99 19183.46,31217.99 18780.63,31217.99 18780.63,30878.76 19501.51,30878.76 19501.51,34037.99 "/>
   <polygon class="fil0" points="15536.6,30878.76 15918.25,30878.76 15918.25,31217.99 15536.6,31217.99 "/>
  </g>
  <polygon class="fil2 str6" points="16109.07,31217.99 15918.25,31217.99 15918.25,30878.76 16109.07,30878.76 "/>
  <polygon class="fil2 str6" points="18780.63,31217.99 18589.8,31217.99 18589.8,30878.76 18780.63,30878.76 "/>
  <text x="21006.05" y="32768.64"  class="fil3 fnt0">3.90</text>
  <text x="15934.12" y="33069.33"  class="fil3 fnt0">0.60</text>
  <text x="27458.21" y="29696.17"  class="fil3 fnt0">3.70</text>
  <polyline class="fil2 str0" points="21855.02,11775.05 25035.44,11775.05 25035.44,9887.99 "/>
  <polygon class="fil2 str0" points="24759.82,10354.43 22130.64,10354.43 22130.64,10651.29 24759.82,10651.29 "/>
  <polygon class="fil2 str0" points="22130.64,10354.43 21855.02,10354.43 21855.02,10651.29 22130.64,10651.29 "/>
  <line class="fil2 str0" x1="22045.84" y1="9887.99" x2="25035.44" y2= "9887.99" />
  <polygon class="fil2 str0" points="24759.82,10354.43 25035.44,10354.43 25035.44,10651.29 24759.82,10651.29 "/>
  <polygon class="fil0 str2" points="16533.1,10969.33 21855.02,10969.33 21855.02,10354.43 16533.1,10354.43 "/>
  <polygon class="fil0 str2" points="16342.27,10354.43 22045.84,10354.43 22045.84,9887.99 16342.27,9887.99 "/>
  <g>
   <polygon class="fil0" points="27919,9859.33 32562.41,9859.33 32562.41,10511.43 27919,10511.43 "/>
   <path id="_1_0" class="fil1" d="M32562.41 9940.26l-4643.41 0 0 -161.86 4643.41 0 100 80.93 -100 80.93zm0 -161.86c55.22,0 100,36.24 100,80.93 0,44.69 -44.78,80.93 -100,80.93l0 -161.86zm-100 733.03l0 -652.1 200 0 0 652.1 -100 80.93 -100 -80.93zm200 0c0,44.69 -44.78,80.93 -100,80.93 -55.22,0 -100,-36.24 -100,-80.93l200 0zm-4743.41 -80.93l4643.41 0 0 161.86 -4643.41 0 -100 -80.93 100 -80.93zm0 161.86c-55.22,0 -100,-36.24 -100,-80.93 0,-44.69 44.78,-80.93 100,-80.93l0 161.86zm100 -733.03l0 652.1 -200 0 0 -652.1 100 -80.93 100 80.93zm-200 0c0,-44.69 44.78,-80.93 100,-80.93 55.22,0 100,36.24 100,80.93l-200 0z"/>
  </g>
  <text x="9028.79" y="16402.08"  class="fil3 fnt0">15.20</text>
  <polygon class="fil0 str2" points="33389.32,25132.82 33389.32,34037.99 32562.41,34037.99 32562.41,25132.82 "/>
  <text x="22762.03" y="7746.53"  class="fil3 fnt0">4.00 (1.20)</text>
  <polygon class="fil0 str2" points="33389.32,13004.8 33389.32,23118.54 32562.41,23118.54 32562.41,13004.8 "/>
  <g id="_2323793005280">
   <polygon class="fil0 str1" points="20625.27,10969.33 20625.27,11775.05 18610.99,11775.05 18610.99,10969.33 "/>
   <path class="fil0 str8" d="M18717.02 10969.33l0 -10.62c-5.86,0 -10.62,4.76 -10.62,10.62 0,5.86 4.76,10.62 10.62,10.62 5.86,0 10.62,-4.76 10.62,-10.62 0,-5.86 -4.76,-10.62 -10.62,-10.62l0 10.62z"/>
   <line class="fil2 str1" x1="18610.99" y1="11626.6" x2="19183.46" y2= "11054.13" />
   <path class="fil0 str8" d="M19119.85 11669.02l0 -10.61c-5.86,0 -10.61,4.75 -10.61,10.61 0,5.86 4.75,10.62 10.61,10.62 5.86,0 10.62,-4.76 10.62,-10.62 0,-5.86 -4.76,-10.61 -10.62,-10.61l0 10.61z"/>
   <line class="fil2 str1" x1="19247.07" y1="11520.62" x2="19798.36" y2= "10969.33" />
   <line class="fil2 str1" x1="19543.93" y1="11775.05" x2="19734.75" y2= "11584.23" />
   <path class="fil0 str8" d="M19861.97 11457.01l0 -10.62c-5.86,0 -10.62,4.76 -10.62,10.62 0,5.86 4.76,10.62 10.62,10.62 5.86,0 10.62,-4.76 10.62,-10.62 0,-5.86 -4.76,-10.62 -10.62,-10.62l0 10.62z"/>
   <line class="fil2 str1" x1="20010.37" y1="11308.56" x2="20349.6" y2= "10969.33" />
   <line class="fil2 str1" x1="20095.17" y1="11775.05" x2="20476.82" y2= "11393.4" />
   <path class="fil0 str8" d="M20625.27 11244.95l0 -10.62c-5.86,0 -10.62,4.76 -10.62,10.62 0,5.86 4.76,10.62 10.62,10.62 5.86,0 10.62,-4.76 10.62,-10.62 0,-5.86 -4.76,-10.62 -10.62,-10.62l0 10.62z"/>
  </g>
  <polygon class="fil0 str2" points="20031.56,25132.82 20922.08,25132.82 20922.08,24729.93 20031.56,24729.93 "/>
  <polygon class="fil0 str1" points="20625.27,10969.33 21855.02,10969.33 21855.02,11775.05 20625.27,11775.05 "/>
  <g id="_2286799914720">
   <polygon class="fil0 str1" points="33389.32,25132.82 32562.41,25132.82 32562.41,23118.54 33389.32,23118.54 "/>
   <line class="fil2 str1" x1="32562.41" y1="23436.58" x2="32668.44" y2= "23330.55" />
   <path class="fil0 str8" d="M32816.85 23182.14l0 -10.61c-5.86,0 -10.62,4.75 -10.62,10.61 0,5.86 4.76,10.62 10.62,10.62 5.86,0 10.61,-4.76 10.61,-10.62 0,-5.86 -4.75,-10.61 -10.61,-10.61l0 10.61z"/>
   <path class="fil0 str8" d="M32604.84 23945.44l0 -10.61c-5.86,0 -10.62,4.75 -10.62,10.61 0,5.86 4.76,10.62 10.62,10.62 5.86,0 10.61,-4.76 10.61,-10.62 0,-5.86 -4.75,-10.61 -10.61,-10.61l0 10.61z"/>
   <line class="fil2 str1" x1="32753.24" y1="23797.04" x2="33389.32" y2= "23160.96" />
   <line class="fil2 str1" x1="32562.41" y1="24517.92" x2="33219.73" y2= "23860.65" />
   <path class="fil0 str8" d="M33346.95 23733.43l0 -10.61c-5.86,0 -10.62,4.75 -10.62,10.61 0,5.86 4.76,10.62 10.62,10.62 5.86,0 10.62,-4.76 10.62,-10.62 0,-5.86 -4.76,-10.61 -10.62,-10.61l0 10.61z"/>
   <line class="fil2 str1" x1="32562.41" y1="25069.21" x2="33007.67" y2= "24623.95" />
   <path class="fil0 str8" d="M33156.13 24475.5l0 -10.62c-5.86,0 -10.62,4.76 -10.62,10.62 0,5.86 4.76,10.62 10.62,10.62 5.86,0 10.61,-4.76 10.61,-10.62 0,-5.86 -4.75,-10.62 -10.61,-10.62l0 10.62z"/>
   <line class="fil2 str1" x1="33283.34" y1="24348.28" x2="33389.32" y2= "24263.49" />
   <line class="fil2 str1" x1="33092.52" y1="25090.4" x2="33389.32" y2= "24793.54" />
   <polygon class="fil0 str1" points="20031.56,25132.82 19204.65,25132.82 19204.65,23118.54 20031.56,23118.54 "/>
   <line class="fil2 str1" x1="19204.65" y1="23436.58" x2="19310.68" y2= "23330.55" />
   <path class="fil0 str8" d="M19459.08 23182.14l0 -10.61c-5.86,0 -10.62,4.75 -10.62,10.61 0,5.86 4.76,10.62 10.62,10.62 5.86,0 10.62,-4.76 10.62,-10.62 0,-5.86 -4.76,-10.61 -10.62,-10.61l0 10.61z"/>
   <path class="fil0 str8" d="M19247.07 23945.44l0 -10.61c-5.86,0 -10.62,4.75 -10.62,10.61 0,5.86 4.76,10.62 10.62,10.62 5.86,0 10.62,-4.76 10.62,-10.62 0,-5.86 -4.76,-10.61 -10.62,-10.61l0 10.61z"/>
   <line class="fil2 str1" x1="19395.47" y1="23797.04" x2="20031.56" y2= "23160.96" />
   <line class="fil2 str1" x1="19204.65" y1="24517.92" x2="19861.97" y2= "23860.65" />
   <path class="fil0 str8" d="M19989.19 23733.43l0 -10.61c-5.86,0 -10.62,4.75 -10.62,10.61 0,5.86 4.76,10.62 10.62,10.62 5.86,0 10.61,-4.76 10.61,-10.62 0,-5.86 -4.75,-10.61 -10.61,-10.61l0 10.61z"/>
   <line class="fil2 str1" x1="19204.65" y1="25069.21" x2="19649.91" y2= "24623.95" />
   <path class="fil0 str8" d="M19798.36 24475.5l0 -10.62c-5.86,0 -10.62,4.76 -10.62,10.62 0,5.86 4.76,10.62 10.62,10.62 5.86,0 10.62,-4.76 10.62,-10.62 0,-5.86 -4.76,-10.62 -10.62,-10.62l0 10.62z"/>
   <line class="fil2 str1" x1="19925.58" y1="24348.28" x2="20031.56" y2= "24263.49" />
   <line class="fil2 str1" x1="19734.75" y1="25090.4" x2="20031.56" y2= "24793.54" />
   <polygon class="fil0 str1" points="6673.79,25132.82 5846.89,25132.82 5846.89,23118.54 6673.79,23118.54 "/>
   <line class="fil2 str1" x1="5846.89" y1="23436.58" x2="5952.92" y2= "23330.55" />
   <path class="fil0 str8" d="M6101.32 23182.14l0 -10.61c-5.86,0 -10.62,4.75 -10.62,10.61 0,5.86 4.76,10.62 10.62,10.62 5.86,0 10.62,-4.76 10.62,-10.62 0,-5.86 -4.76,-10.61 -10.62,-10.61l0 10.61z"/>
   <path class="fil0 str8" d="M5889.31 23945.44l0 -10.61c-5.86,0 -10.62,4.75 -10.62,10.61 0,5.86 4.76,10.62 10.62,10.62 5.86,0 10.62,-4.76 10.62,-10.62 0,-5.86 -4.76,-10.61 -10.62,-10.61l0 10.61z"/>
   <line class="fil2 str1" x1="6016.52" y1="23797.04" x2="6673.79" y2= "23160.96" />
   <line class="fil2 str1" x1="5846.89" y1="24517.92" x2="6504.21" y2= "23860.65" />
   <path class="fil0 str8" d="M6631.42 23733.43l0 -10.61c-5.86,0 -10.62,4.75 -10.62,10.61 0,5.86 4.76,10.62 10.62,10.62 5.86,0 10.62,-4.76 10.62,-10.62 0,-5.86 -4.76,-10.61 -10.62,-10.61l0 10.61z"/>
   <line class="fil2 str1" x1="5846.89" y1="25069.21" x2="6292.14" y2= "24623.95" />
   <path class="fil0 str8" d="M6440.6 24475.5l0 -10.62c-5.86,0 -10.62,4.76 -10.62,10.62 0,5.86 4.76,10.62 10.62,10.62 5.86,0 10.61,-4.76 10.61,-10.62 0,-5.86 -4.75,-10.62 -10.61,-10.62l0 10.62z"/>
   <line class="fil2 str1" x1="6567.81" y1="24348.28" x2="6673.79" y2= "24263.49" />
   <line class="fil2 str1" x1="6376.99" y1="25090.4" x2="6673.79" y2= "24793.54" />
   <polygon class="fil0 str1" points="6673.79,17860.22 5846.89,17860.22 5846.89,15824.76 6673.79,15824.76 "/>
   <line class="fil2 str1" x1="5846.89" y1="16142.8" x2="5952.92" y2= "16036.82" />
   <path class="fil0 str8" d="M6101.32 15909.6l0 -10.62c-5.86,0 -10.62,4.76 -10.62,10.62 0,5.86 4.76,10.62 10.62,10.62 5.86,0 10.62,-4.76 10.62,-10.62 0,-5.86 -4.76,-10.62 -10.62,-10.62l0 10.62z"/>
   <path class="fil0 str8" d="M5889.31 16651.66l0 -10.61c-5.86,0 -10.62,4.75 -10.62,10.61 0,5.86 4.76,10.62 10.62,10.62 5.86,0 10.62,-4.76 10.62,-10.62 0,-5.86 -4.76,-10.61 -10.62,-10.61l0 10.61z"/>
   <line class="fil2 str1" x1="6016.52" y1="16524.45" x2="6673.79" y2= "15867.18" />
   <line class="fil2 str1" x1="5846.89" y1="17224.14" x2="6504.21" y2= "16588.06" />
   <path class="fil0 str8" d="M6631.42 16439.65l0 -10.61c-5.86,0 -10.62,4.75 -10.62,10.61 0,5.86 4.76,10.62 10.62,10.62 5.86,0 10.62,-4.76 10.62,-10.62 0,-5.86 -4.76,-10.61 -10.62,-10.61l0 10.61z"/>
   <line class="fil2 str1" x1="5846.89" y1="17775.43" x2="6292.14" y2= "17330.17" />
   <path class="fil0 str8" d="M6440.6 17202.95l0 -10.61c-5.86,0 -10.62,4.75 -10.62,10.61 0,5.86 4.76,10.62 10.62,10.62 5.86,0 10.61,-4.76 10.61,-10.62 0,-5.86 -4.75,-10.61 -10.61,-10.61l0 10.61z"/>
   <line class="fil2 str1" x1="6567.81" y1="17054.55" x2="6673.79" y2= "16969.71" />
   <line class="fil2 str1" x1="6376.99" y1="17817.85" x2="6673.79" y2= "17521" />
   <polygon class="fil0 str1" points="33389.32,13004.8 32562.41,13004.8 32562.41,10969.33 33389.32,10969.33 "/>
   <line class="fil2 str1" x1="32562.41" y1="11287.37" x2="32668.44" y2= "11181.34" />
   <path class="fil0 str8" d="M32816.85 11054.13l0 -10.62c-5.86,0 -10.62,4.76 -10.62,10.62 0,5.86 4.76,10.61 10.62,10.61 5.86,0 10.61,-4.75 10.61,-10.61 0,-5.86 -4.75,-10.62 -10.61,-10.62l0 10.62z"/>
   <path class="fil0 str8" d="M32604.84 11796.24l0 -10.62c-5.86,0 -10.62,4.76 -10.62,10.62 0,5.86 4.76,10.62 10.62,10.62 5.86,0 10.61,-4.76 10.61,-10.62 0,-5.86 -4.75,-10.62 -10.61,-10.62l0 10.62z"/>
   <line class="fil2 str1" x1="32753.24" y1="11669.02" x2="33389.32" y2= "11011.75" />
   <line class="fil2 str1" x1="32562.41" y1="12368.72" x2="33219.73" y2= "11732.63" />
   <path class="fil0 str8" d="M33346.95 11584.23l0 -10.62c-5.86,0 -10.62,4.76 -10.62,10.62 0,5.86 4.76,10.62 10.62,10.62 5.86,0 10.62,-4.76 10.62,-10.62 0,-5.86 -4.76,-10.62 -10.62,-10.62l0 10.62z"/>
   <line class="fil2 str1" x1="32562.41" y1="12920.01" x2="33007.67" y2= "12474.75" />
   <path class="fil0 str8" d="M33156.13 12347.53l0 -10.62c-5.86,0 -10.62,4.76 -10.62,10.62 0,5.86 4.76,10.62 10.62,10.62 5.86,0 10.61,-4.76 10.61,-10.62 0,-5.86 -4.75,-10.62 -10.61,-10.62l0 10.62z"/>
   <line class="fil2 str1" x1="33283.34" y1="12199.08" x2="33389.32" y2= "12114.28" />
   <line class="fil2 str1" x1="33092.52" y1="12962.38" x2="33389.32" y2= "12665.57" />
  </g>
  <polygon class="fil0 str1" points="5846.89,15824.76 5846.89,11775.05 6673.79,11775.05 6673.79,15824.76 "/>
  <g id="_2286799937424">
   <polygon class="fil0 str2" points="15133.71,28186.02 15133.71,34037.99 15536.6,34037.99 15536.6,28376.85 15685,28270.82 15430.57,27952.77 "/>
   <polygon class="fil0 str2" points="18632.17,26086.94 19883.16,25132.82 19204.65,25132.82 18398.98,25747.67 "/>
  </g>
  <polygon class="fil2 str6" points="15833.4,28164.78 15685,28270.82 15430.57,27952.77 15600.21,27825.56 "/>
  <polygon class="fil2 str6" points="18632.17,26086.94 18462.58,26192.92 18229.34,25874.88 18398.98,25747.67 "/>
  <rect class="fil4 str9" x="5754.9" y="9795.48" width="3602.91" height="2049.58"/>
  <rect class="fil4 str9" x="28038.17" y="9795.48" width="5434.13" height="2049.58"/>
  <g id="_2323469099264">
   <path class="fil5 str10" d="M32529.76 19214.77l0 2338.39c0.01,87.12 -71.27,157.76 -159.16,157.76l-2390.53 -0.01c-87.88,0.01 -159.16,-70.63 -159.16,-157.74l-0.01 -2338.4c0.01,-87.1 71.29,-157.74 159.18,-157.74l2390.51 -0.01c87.9,0.01 159.18,70.65 159.18,157.76z"/>
   <rect class="fil5 str10" transform="matrix(7.35706E-14 0.917648 -0.925957 7.29104E-14 32065.4 19302.5)" width="2373.81" height="2106.33"/>
   <circle class="fil5 str11" transform="matrix(7.35706E-14 0.917648 -0.925957 7.29104E-14 31662.9 20897.9)" r="183.89"/>
  </g>
  <g>
   <polygon class="fil0" points="24814.47,34037.99 33429.33,34037.99 33429.33,34843.67 24814.47,34843.67 "/>
   <path id="_1_1" class="fil1" d="M33429.33 34133.4l-8614.86 0 0 -190.82 8614.86 0 58.92 95.41 -58.92 95.41zm0 -190.82c32.54,0 58.92,42.72 58.92,95.41 0,52.69 -26.38,95.41 -58.92,95.41l0 -190.82zm-58.92 901.09l0 -805.68 117.84 0 0 805.68 -58.92 95.41 -58.92 -95.41zm117.84 0c0,52.69 -26.38,95.41 -58.92,95.41 -32.54,0 -58.92,-42.72 -58.92,-95.41l117.84 0zm-8673.78 -95.41l8614.86 0 0 190.82 -8614.86 0 -58.92 -95.41 58.92 -95.41zm0 190.82c-32.54,0 -58.92,-42.72 -58.92,-95.41 0,-52.69 26.38,-95.41 58.92,-95.41l0 190.82zm58.92 -901.09l0 805.68 -117.84 0 0 -805.68 58.92 -95.41 58.92 95.41zm-117.84 0c0,-52.69 26.38,-95.41 58.92,-95.41 32.54,0 58.92,42.72 58.92,95.41l-117.84 0z"/>
  </g>
  <g id="_2323469150432">
   <rect class="fil4 str9" x="32985.72" y="4150.35" width="479.13" height="5932.32"/>
   <rect class="fil4 str9" transform="matrix(-1.25035E-14 1.51577 3.42785 -1.46082E-13 18559.3 4150.34)" width="444" height="4347.05"/>
   <rect class="fil4 str9" x="18533.98" y="4150.35" width="479.13" height="6889.01" rx="53.96" ry="79.24"/>
  </g>
  <g id="_2323469143232">
   <rect class="fil5 str12" transform="matrix(4.60241E-14 0.940283 -1.20611 1.08222E-14 33452.9 1827.34)" width="2496.64" height="5813.27"/>
   <line class="fil5 str12" x1="33462.09" y1="1823.56" x2="26450.64" y2= "4171.1" />
   <line class="fil5 str12" x1="33452.92" y1="4174.89" x2="26496.06" y2= "1884.97" />
  </g>
  <g id="_2323469137280">
   <path class="fil5 str10" d="M32535.79 28451.67c-796.1,7.52 -1538.62,-235.54 -1641.28,739.06 -26.17,317.39 -14.97,620.3 28.76,931.91 177.13,798.12 863.18,547.53 1624.22,560.89"/>
   <path class="fil5 str13" d="M31949.43 28574.96c105.04,-2.21 206.5,76.01 254.5,162.95 0,579.02 0,1130.41 0,1709.44 -18.02,81.76 -74.67,100.12 -197.54,127.82 -1118.23,41.86 -880.98,-723.36 -900.48,-1417.56 49.64,-502.56 410.23,-560.63 843.52,-582.65z"/>
   <circle class="fil5 str13" transform="matrix(-3.20324E-14 1.20948 -1.20948 -3.20324E-14 32039.5 29589.5)" r="94.44"/>
   <path class="fil5 str13" d="M32000.67 28839.38c83.89,-1.56 164.94,54.28 203.26,116.36 0,413.42 0,807.12 0,1220.55 -14.39,58.38 -59.63,71.48 -157.76,91.26 -881.78,73.12 -715.35,-440.19 -719.2,-1012.14 6.97,-374.57 342.72,-416.03 673.7,-416.03z"/>
  </g>
  <g id="_2323469131184">
   <rect class="fil5 str13" transform="matrix(-0.000202871 1.06954 -1.09265 -0.00019858 32481.9 31237.4)" width="2611.41" height="5846.68"/>
   <path class="fil5 str13" d="M27263.98 31555.49c1403.14,-58.58 2789.79,-20.21 4184.69,-30.29 488.19,-6.8 737.38,10.87 729.38,516.69 -0.08,418.63 -0.16,837.21 -0.24,1255.83 4.43,355.47 -104.19,489.16 -712.01,461.89 -1400.73,-10.59 -2801.5,11.15 -4202.23,-31.77 -1112.45,-131.06 -1225.12,-1977.21 0.41,-2172.35z"/>
   <circle class="fil5 str13" transform="matrix(-0.000202871 1.06954 -1.09265 -0.00019858 31748.6 32656.8)" r="121.03"/>
  </g>
  <g id="_2323469132432">
   <line class="fil5 str14" x1="31103.52" y1="27343.44" x2="31435.52" y2= "27306.59" />
   <line class="fil5 str13" x1="31116.8" y1="26202.3" x2="31448.71" y2= "26239.24" />
   <path class="fil5 str13" d="M32617.8 27877.41c-263.04,0 -526.13,0.05 -789.18,0.05 -196.19,0.56 -338.1,-101.09 -396.46,-350.43 3.09,-443.63 6.18,-887.31 9.28,-1330.95 -18.13,-347.15 132.23,-491.51 387.18,-512.98l801.69 0"/>
   <path class="fil5 str13" d="M30440.17 25947.1c262.04,-42.9 489.28,16.26 663.82,230.51 33.03,86.62 58.91,171.64 77.88,255.08 73.81,324.62 43.12,625.78 -77.92,906.62 -155.15,188.82 -357.61,276.93 -612.69,253.15 -380.87,-37.11 -750.59,-174.4 -1102.15,-474.47 -213.25,-209.69 -230.72,-446.95 0,-719.1 306.14,-246.37 658.38,-392.85 1051.06,-451.79z"/>
  </g>
  <path class="fil5 str15" d="M20830.49 34521.65c55.24,1807.55 1417.41,3225.18 3641.44,3742.1 0,-1140.24 30.34,-2543.93 30.34,-3684.18"/>
  <rect class="fil5 str16" x="25114.07" y="9856.53" width="326.9" height="633.73" rx="30" ry="30"/>
  <rect class="fil5 str16" x="27510.81" y="9856.53" width="326.9" height="633.73" rx="30" ry="30"/>
  <path class="fil5 str15" d="M27510.81 10173.41c-36.81,1204.37 -580.63,2145.81 -2062.5,2490.23 0,-759.74 -20.22,-1695.02 -20.22,-2454.77"/>
  <path class="fil5 str15" d="M24293.62 24993.93c-55.26,-1807.56 -918.43,-3197.47 -3142.46,-3714.39 0,1140.24 -30.34,2543.93 -30.34,3684.18"/>
  <path class="fil5 str15" d="M25336.19 30517.23c-1807.56,-49.04 -3197.47,-815.12 -3714.39,-2788.98 1140.24,0 2543.93,-26.93 3684.18,-26.93"/>
  <path class="fil5 str15" d="M18462.59 26192.91c-1186.91,-1364.15 -3083.62,-1796.27 -4935.93,-940.52 724.85,880.19 1596.38,1980.87 2321.23,2861.07"/>
  <path class="fil5 str15" d="M18589.8 31152.24c-39.33,-1286.62 -858.64,-2265.32 -2441.71,-2633.26 0,811.62 -21.6,1810.77 -21.6,2622.4"/>
 </g>
</svg>
