<?xml version="1.0" encoding="UTF-8"?>
<!DOCTYPE svg PUBLIC "-//W3C//DTD SVG 1.1//EN" "http://www.w3.org/Graphics/SVG/1.1/DTD/svg11.dtd">
<!-- Creator: CorelDRAW -->
<svg xmlns="http://www.w3.org/2000/svg" xml:space="preserve" width="400mm" height="400mm" version="1.1" style="shape-rendering:geometricPrecision; text-rendering:geometricPrecision; image-rendering:optimizeQuality; fill-rule:evenodd; clip-rule:evenodd"
viewBox="0 0 40000 40000"
 xmlns:xlink="http://www.w3.org/1999/xlink"
 xmlns:xodm="http://www.corel.com/coreldraw/odm/2003">
 <defs>
  <style type="text/css">
   <![CDATA[
    .str17 {stroke:black;stroke-width:150;stroke-miterlimit:22.9256}
    .str30 {stroke:#1F1B20;stroke-width:16.9;stroke-miterlimit:22.9256}
    .str29 {stroke:#1F1B20;stroke-width:40;stroke-miterlimit:22.9256}
    .str28 {stroke:#3A3A3A;stroke-width:40;stroke-miterlimit:22.9256}
    .str27 {stroke:black;stroke-width:40;stroke-miterlimit:22.9256}
    .str20 {stroke:black;stroke-width:20;stroke-miterlimit:22.9256}
    .str22 {stroke:#2B2A29;stroke-width:25.4;stroke-miterlimit:22.9256}
    .str26 {stroke:black;stroke-width:40;stroke-linecap:round;stroke-linejoin:round;stroke-miterlimit:22.9256}
    .str14 {stroke:black;stroke-width:99.99;stroke-linecap:round;stroke-linejoin:round;stroke-miterlimit:10}
    .str3 {stroke:black;stroke-width:18.2;stroke-linecap:round;stroke-linejoin:round;stroke-miterlimit:10}
    .str1 {stroke:black;stroke-width:18.2;stroke-linecap:round;stroke-linejoin:round;stroke-miterlimit:10}
    .str24 {stroke:black;stroke-width:62.53;stroke-linecap:round;stroke-linejoin:round;stroke-miterlimit:10}
    .str7 {stroke:black;stroke-width:62.53;stroke-linecap:round;stroke-linejoin:round;stroke-miterlimit:10}
    .str8 {stroke:black;stroke-width:62.53;stroke-linecap:round;stroke-linejoin:round;stroke-miterlimit:10}
    .str25 {stroke:black;stroke-width:62.53;stroke-linecap:round;stroke-linejoin:round;stroke-miterlimit:10}
    .str23 {stroke:black;stroke-width:62.53;stroke-linecap:round;stroke-linejoin:round;stroke-miterlimit:10}
    .str9 {stroke:black;stroke-width:62.53;stroke-linecap:round;stroke-linejoin:round;stroke-miterlimit:10}
    .str32 {stroke:black;stroke-width:62.53;stroke-linecap:round;stroke-linejoin:round;stroke-miterlimit:10}
    .str10 {stroke:black;stroke-width:62.53;stroke-linecap:round;stroke-linejoin:round;stroke-miterlimit:10}
    .str33 {stroke:black;stroke-width:62.53;stroke-linecap:round;stroke-linejoin:round;stroke-miterlimit:10}
    .str11 {stroke:black;stroke-width:62.53;stroke-linecap:round;stroke-linejoin:round;stroke-miterlimit:10}
    .str5 {stroke:black;stroke-width:62.53;stroke-linecap:round;stroke-linejoin:round;stroke-miterlimit:10}
    .str21 {stroke:black;stroke-width:62.53;stroke-linecap:round;stroke-linejoin:round;stroke-miterlimit:10}
    .str34 {stroke:black;stroke-width:62.53;stroke-linecap:round;stroke-linejoin:round;stroke-miterlimit:10}
    .str35 {stroke:black;stroke-width:62.53;stroke-linecap:round;stroke-linejoin:round;stroke-miterlimit:10}
    .str4 {stroke:black;stroke-width:62.53;stroke-linecap:round;stroke-linejoin:round;stroke-miterlimit:10}
    .str2 {stroke:black;stroke-width:72.86;stroke-linecap:round;stroke-linejoin:round;stroke-miterlimit:10}
    .str18 {stroke:black;stroke-width:150;stroke-linecap:round;stroke-linejoin:round;stroke-miterlimit:10}
    .str12 {stroke:black;stroke-width:150;stroke-linecap:round;stroke-linejoin:round;stroke-miterlimit:10}
    .str13 {stroke:black;stroke-width:109.44;stroke-linecap:round;stroke-linejoin:round;stroke-miterlimit:10}
    .str16 {stroke:black;stroke-width:109.44;stroke-linecap:round;stroke-linejoin:round;stroke-miterlimit:10}
    .str15 {stroke:black;stroke-width:109.44;stroke-linecap:round;stroke-linejoin:round;stroke-miterlimit:10}
    .str19 {stroke:black;stroke-width:140.73;stroke-linecap:round;stroke-linejoin:round;stroke-miterlimit:10}
    .str0 {stroke:black;stroke-width:140.73;stroke-linecap:round;stroke-linejoin:round;stroke-miterlimit:10}
    .str31 {stroke:black;stroke-width:140.73;stroke-linecap:round;stroke-linejoin:round;stroke-miterlimit:10}
    .str6 {stroke:black;stroke-width:140.73;stroke-linecap:round;stroke-linejoin:round;stroke-miterlimit:10}
    .fil5 {fill:none}
    .fil2 {fill:none;fill-rule:nonzero}
    .fil3 {fill:black}
    .fil4 {fill:black}
    .fil1 {fill:black;fill-rule:nonzero}
    .fil0 {fill:black;fill-rule:nonzero}
    .fnt0 {font-weight:normal;font-size:1042.62px;font-family:'Arial'}
    .fnt1 {font-weight:normal;font-size:1058.33px;font-family:'Arial'}
   ]]>
  </style>
 </defs>
 <g id="Слой_x0020_1">
  <metadata id="CorelCorpID_0Corel-Layer"/>
  <g id="_2286799979232">
   <polygon class="fil0 str0" points="4742.43,17271.97 4742.43,9359.79 5336.64,9359.79 5336.64,17271.97 "/>
   <polygon class="fil0 str0" points="4742.43,24574.29 4742.43,18757.43 5336.64,18757.43 5336.64,24574.29 "/>
  </g>
  <polygon class="fil0 str0" points="14140.08,9359.79 5790.08,9359.79 5790.08,8765.58 14140.08,8765.58 "/>
  <g>
   <polygon class="fil0" points="34265.8,9359.79 25131.62,9359.79 25131.62,8765.58 34265.8,8765.58 "/>
   <path id="_1" class="fil1" d="M25131.62 9289.42l9134.18 0 0 140.74 -9134.18 0 -73.01 -70.37 73.01 -70.37zm0 140.74c-40.32,0 -73.01,-31.51 -73.01,-70.37 0,-38.86 32.69,-70.37 73.01,-70.37l0 140.74zm73.01 -664.58l0 594.21 -146.02 0 0 -594.21 73.01 -70.37 73.01 70.37zm-146.02 0c0,-38.86 32.69,-70.37 73.01,-70.37 40.32,0 73.01,31.51 73.01,70.37l-146.02 0zm9207.19 70.37l-9134.18 0 0 -140.74 9134.18 0 73.01 70.37 -73.01 70.37zm0 -140.74c40.32,0 73.01,31.51 73.01,70.37 0,38.86 -32.69,70.37 -73.01,70.37l0 -140.74zm-73.01 664.58l0 -594.21 146.02 0 0 594.21 -73.01 70.37 -73.01 -70.37zm146.02 0c0,38.86 -32.69,70.37 -73.01,70.37 -40.32,0 -73.01,-31.51 -73.01,-70.37l146.02 0z"/>
  </g>
  <polygon class="fil0 str0" points="34890,10251.08 34890,17271.97 34295.8,17271.97 34295.8,10251.08 "/>
  <g id="_2323469096240">
   <line class="fil2 str1" x1="32158.92" y1="21972.8" x2="32158.92" y2= "20242.02" />
   <polygon class="fil2 str2" points="34235.89,20242.02 34235.89,21972.8 32158.92,21972.8 32158.92,20242.02 "/>
   <polygon class="fil2 str2" points="32250.03,20333.09 32250.03,21863.49 33780.43,21863.49 33780.43,20333.09 "/>
   <line class="fil2 str1" x1="32250.03" y1="20333.09" x2="32486.86" y2= "20569.96" />
   <line class="fil2 str1" x1="32778.35" y1="20879.66" x2="33252.06" y2= "21335.16" />
   <line class="fil2 str1" x1="33543.56" y1="21644.86" x2="33780.43" y2= "21863.49" />
   <line class="fil2 str1" x1="33780.43" y1="20333.09" x2="33543.56" y2= "20569.96" />
   <line class="fil2 str1" x1="33252.06" y1="20879.66" x2="32778.35" y2= "21335.16" />
   <line class="fil2 str1" x1="32486.86" y1="21644.86" x2="32250.03" y2= "21863.49" />
   <line class="fil2 str1" x1="33780.43" y1="21098.29" x2="32250.03" y2= "21098.29" />
   <line class="fil2 str1" x1="33015.23" y1="20333.09" x2="33015.23" y2= "21863.49" />
   <line class="fil2 str1" x1="33780.43" y1="21098.29" x2="33543.56" y2= "21335.16" />
   <line class="fil2 str1" x1="33252.06" y1="21644.86" x2="33015.23" y2= "21863.49" />
   <line class="fil2 str1" x1="33015.23" y1="20333.09" x2="32778.35" y2= "20569.96" />
   <polyline class="fil2 str1" points="32486.86,20879.66 32250.03,21098.29 32486.86,21335.16 "/>
   <line class="fil2 str1" x1="32778.35" y1="21644.86" x2="33015.23" y2= "21863.49" />
   <line class="fil2 str1" x1="33015.23" y1="20333.09" x2="33252.06" y2= "20569.96" />
   <line class="fil2 str1" x1="33543.56" y1="20879.66" x2="33780.43" y2= "21098.29" />
   <path class="fil2 str3" d="M33452.49 20706.61c0,-35.25 -28.58,-63.78 -63.78,-63.78 -35.21,0 -63.78,28.53 -63.78,63.78 0,35.2 28.57,63.73 63.78,63.73 35.2,0 63.78,-28.53 63.78,-63.73z"/>
   <path class="fil2 str3" d="M33452.49 21471.81c0,-35.25 -28.58,-63.78 -63.78,-63.78 -35.21,0 -63.78,28.53 -63.78,63.78 0,35.2 28.57,63.73 63.78,63.73 35.2,0 63.78,-28.53 63.78,-63.73z"/>
   <path class="fil2 str3" d="M32687.29 20706.61c0,-35.25 -28.58,-63.78 -63.78,-63.78 -35.21,0 -63.78,28.53 -63.78,63.78 0,35.2 28.57,63.73 63.78,63.73 35.2,0 63.78,-28.53 63.78,-63.73z"/>
   <path class="fil2 str3" d="M32687.29 21471.81c0,-35.25 -28.58,-63.78 -63.78,-63.78 -35.21,0 -63.78,28.53 -63.78,63.78 0,35.2 28.57,63.73 63.78,63.73 35.2,0 63.78,-28.53 63.78,-63.73z"/>
   <line class="fil2 str2" x1="33889.75" y1="20242.02" x2="33889.75" y2= "21972.8" />
   <line class="fil2 str1" x1="33926.16" y1="20314.88" x2="33926.16" y2= "21881.74" />
   <polyline class="fil2 str1" points="34217.69,21881.74 34217.69,20314.88 33926.16,20314.88 "/>
   <line class="fil2 str1" x1="34217.69" y1="20497.06" x2="33926.16" y2= "20497.06" />
   <line class="fil2 str1" x1="34217.69" y1="20405.99" x2="33926.16" y2= "20405.99" />
   <line class="fil2 str1" x1="34217.69" y1="20588.17" x2="33926.16" y2= "20588.17" />
   <line class="fil2 str1" x1="34217.69" y1="20661.03" x2="33926.16" y2= "20661.03" />
   <line class="fil2 str1" x1="34217.69" y1="20843.25" x2="33926.16" y2= "20843.25" />
   <line class="fil2 str1" x1="34217.69" y1="20752.14" x2="33926.16" y2= "20752.14" />
   <line class="fil2 str1" x1="34217.69" y1="20934.32" x2="33926.16" y2= "20934.32" />
   <line class="fil2 str1" x1="34217.69" y1="21025.43" x2="33926.16" y2= "21025.43" />
   <line class="fil2 str1" x1="34217.69" y1="21189.4" x2="33926.16" y2= "21189.4" />
   <line class="fil2 str1" x1="34217.69" y1="21098.29" x2="33926.16" y2= "21098.29" />
   <line class="fil2 str1" x1="34217.69" y1="21280.51" x2="33926.16" y2= "21280.51" />
   <line class="fil2 str1" x1="34217.69" y1="21371.57" x2="33926.16" y2= "21371.57" />
   <line class="fil2 str1" x1="34217.69" y1="21535.54" x2="33926.16" y2= "21535.54" />
   <line class="fil2 str1" x1="34217.69" y1="21444.48" x2="33926.16" y2= "21444.48" />
   <line class="fil2 str1" x1="34217.69" y1="21626.65" x2="33926.16" y2= "21626.65" />
   <line class="fil2 str1" x1="34217.69" y1="21717.76" x2="33926.16" y2= "21717.76" />
   <line class="fil2 str1" x1="34217.69" y1="21881.74" x2="33926.16" y2= "21881.74" />
   <line class="fil2 str1" x1="34217.69" y1="21808.83" x2="33926.16" y2= "21808.83" />
   <line class="fil2 str1" x1="32122.47" y1="20752.14" x2="32086.06" y2= "20752.14" />
   <path class="fil2 str3" d="M32113.39 20715.69c-15.11,0 -27.33,12.22 -27.33,27.33 0,15.1 12.22,27.32 27.33,27.32"/>
   <polyline class="fil2 str1" points="32158.92,20715.69 32122.47,20715.69 32122.47,20752.14 32122.47,20806.8 32158.92,20806.8 "/>
   <line class="fil2 str1" x1="32122.47" y1="21098.29" x2="32086.06" y2= "21098.29" />
   <path class="fil2 str3" d="M32113.39 21061.88c-15.11,0 -27.33,12.22 -27.33,27.33 0,15.06 12.22,27.33 27.33,27.33"/>
   <polyline class="fil2 str1" points="32158.92,21061.88 32122.47,21061.88 32122.47,21098.29 32122.47,21152.94 32158.92,21152.94 "/>
   <line class="fil2 str1" x1="32122.47" y1="21444.48" x2="32086.06" y2= "21444.48" />
   <path class="fil2 str3" d="M32113.39 21408.03c-15.11,0 -27.33,12.22 -27.33,27.32 0,15.11 12.22,27.33 27.33,27.33"/>
   <polyline class="fil2 str1" points="32158.92,21408.03 32122.47,21408.03 32122.47,21444.48 32122.47,21499.14 32158.92,21499.14 "/>
   <line class="fil2 str1" x1="32122.47" y1="20934.32" x2="32086.06" y2= "20934.32" />
   <path class="fil2 str3" d="M32113.39 20897.91c-15.11,0 -27.33,12.22 -27.33,27.33 0,15.06 12.22,27.32 27.33,27.32"/>
   <polyline class="fil2 str1" points="32158.92,20879.66 32122.47,20879.66 32122.47,20934.32 32122.47,20970.77 32158.92,20970.77 "/>
   <line class="fil2 str1" x1="32122.47" y1="21280.51" x2="32086.06" y2= "21280.51" />
   <path class="fil2 str3" d="M32113.39 21244.05c-15.11,0 -27.33,12.23 -27.33,27.33 0,15.11 12.22,27.33 27.33,27.33"/>
   <polyline class="fil2 str1" points="32158.92,21225.85 32122.47,21225.85 32122.47,21280.51 32122.47,21316.92 32158.92,21316.92 "/>
  </g>
  <g>
   <polygon class="fil0" points="24741.76,16818.51 25038.88,16818.51 25038.88,24574.29 24741.76,24574.29 "/>
   <path id="_1_0" class="fil1" d="M25038.88 16912.33l-297.12 0 0 -187.64 297.12 0 70.37 93.82 -70.37 93.82zm0 -187.64c38.86,0 70.37,42.01 70.37,93.82 0,51.81 -31.51,93.82 -70.37,93.82l0 -187.64zm-70.37 7849.6l0 -7755.78 140.74 0 0 7755.78 -70.37 93.82 -70.37 -93.82zm140.74 0c0,51.81 -31.51,93.82 -70.37,93.82 -38.86,0 -70.37,-42.01 -70.37,-93.82l140.74 0zm-367.49 -93.82l297.12 0 0 187.64 -297.12 0 -70.37 -93.82 70.37 -93.82zm0 187.64c-38.86,0 -70.37,-42.01 -70.37,-93.82 0,-51.81 31.51,-93.82 70.37,-93.82l0 187.64zm70.37 -7849.6l0 7755.78 -140.74 0 0 -7755.78 70.37 -93.82 70.37 93.82zm-140.74 0c0,-51.81 31.51,-93.82 70.37,-93.82 38.86,0 70.37,42.01 70.37,93.82l-140.74 0z"/>
  </g>
  <g transform="matrix(0.967251 0 0 1 9428.3 1117.18)">
   <text x="20000" y="20000"  class="fil3 fnt0">8.10</text>
  </g>
  <g transform="matrix(0.984078 0 0 1 -413.301 1456.91)">
   <text x="20000" y="20000"  class="fil3 fnt0">8.50</text>
  </g>
  <text x="8958.79" y="17812.63"  class="fil3 fnt0">16.00</text>
  <g>
   <polygon class="fil0" points="29073.15,14277.58 28776.07,14277.58 28776.07,12618.93 29073.15,12618.93 29073.15,14120 "/>
   <path id="_1_1" class="fil1" d="M28776.07 14237.8l297.08 0 0 79.56 -297.08 0 -75 -39.78 75 -39.78zm0 79.56c-41.42,0 -75,-17.82 -75,-39.78 0,-21.96 33.58,-39.78 75,-39.78l0 79.56zm75 -1698.43l0 1658.65 -150 0 0 -1658.65 75 -39.78 75 39.78zm-150 0c0,-21.96 33.58,-39.78 75,-39.78 41.42,0 75,17.82 75,39.78l-150 0zm372.08 39.78l-297.08 0 0 -79.56 297.08 0 75 39.78 -75 39.78zm0 -79.56c41.42,0 75,17.82 75,39.78 0,21.96 -33.58,39.78 -75,39.78l0 -79.56zm-75 1540.85l0 -1501.07 150 0 0 1501.07 0 0 -150 0zm150 0c0,21.96 -33.58,39.78 -75,39.78 -41.42,0 -75,-17.82 -75,-39.78l150 0zm-150 157.58l0 -157.58 150 0 0 157.58 -75 39.78 -75 -39.78zm150 0c0,21.96 -33.58,39.78 -75,39.78 -41.42,0 -75,-17.82 -75,-39.78l150 0z"/>
  </g>
  <polygon class="fil2 str4" points="29063.42,12443.32 29063.42,12584.05 28766.3,12584.05 28766.3,12443.32 "/>
  <polygon class="fil2 str5" points="29073.15,10734.69 29073.15,10875.42 28776.03,10875.42 28776.03,10734.69 "/>
  <polygon class="fil0 str6" points="34295.8,14117.24 29073.15,14117.24 29073.15,13820.12 34295.8,13820.12 "/>
  <polygon class="fil2 str7" points="25849.44,16521.41 25693.05,16521.41 25693.05,16818.5 25849.44,16818.5 "/>
  <polygon class="fil2 str8" points="28213.84,16521.41 28073.11,16521.41 28073.11,16818.5 28213.84,16818.5 "/>
  <g>
   <polygon class="fil0" points="14890.64,17271.98 15187.76,17271.98 15187.76,24574.29 14890.64,24574.29 "/>
   <path id="_1_2" class="fil1" d="M15187.76 17360.31l-297.12 0 0 -176.66 297.12 0 70.37 88.33 -70.37 88.33zm0 -176.66c38.86,0 70.37,39.55 70.37,88.33 0,48.78 -31.51,88.33 -70.37,88.33l0 -176.66zm-70.37 7390.64l0 -7302.31 140.74 0 0 7302.31 -70.37 88.33 -70.37 -88.33zm140.74 0c0,48.78 -31.51,88.33 -70.37,88.33 -38.86,0 -70.37,-39.55 -70.37,-88.33l140.74 0zm-367.49 -88.33l297.12 0 0 176.66 -297.12 0 -70.37 -88.33 70.37 -88.33zm0 176.66c-38.86,0 -70.37,-39.55 -70.37,-88.33 0,-48.78 31.51,-88.33 70.37,-88.33l0 176.66zm70.37 -7390.64l0 7302.31 -140.74 0 0 -7302.31 70.37 -88.33 70.37 88.33zm-140.74 0c0,-48.78 31.51,-88.33 70.37,-88.33 38.86,0 70.37,39.55 70.37,88.33l-140.74 0z"/>
  </g>
  <polygon class="fil0 str0" points="14890.64,15661.37 15187.76,15661.37 15187.76,17271.97 14890.64,17271.97 "/>
  <polygon class="fil2 str9" points="15187.76,11952.94 15187.76,11812.21 14890.64,11812.21 14890.64,11952.94 "/>
  <polygon class="fil2 str10" points="15187.76,15631.37 15187.76,15475.01 14890.64,15475.01 14890.64,15631.37 "/>
  <polygon class="fil0 str0" points="14890.64,9359.79 15187.76,9359.79 15187.76,11752.21 14890.64,11752.21 "/>
  <polygon class="fil0 str0" points="25633.05,16818.5 21551.87,16818.5 21551.87,16521.41 25633.05,16521.41 "/>
  <polygon class="fil2 str11" points="18987.48,16521.41 18831.09,16521.41 18831.09,16818.5 18987.48,16818.5 "/>
  <polygon class="fil2 str11" points="21551.87,16521.41 21395.52,16521.41 21395.52,16818.5 21551.87,16818.5 "/>
  <polygon class="fil0 str0" points="18831.09,16818.5 15187.76,16818.5 15187.76,16521.41 18831.09,16521.41 "/>
  <text x="21969.28" y="13769.68"  class="fil3 fnt0">8.70</text>
  <text x="29328.94" y="15668.12"  class="fil3 fnt0">1.50</text>
  <text x="30219.28" y="12735.75"  class="fil3 fnt0">2.30</text>
  <polygon class="fil0 str0" points="16235.41,9359.79 15641.2,9359.79 15641.2,8765.58 16235.41,8765.58 "/>
  <polygon class="fil0 str12" points="5790.08,24574.29 7275.58,24574.29 7275.58,25184.12 5790.08,25184.12 "/>
  <line class="fil2 str13" x1="7275.58" y1="24574.29" x2="12654.62" y2= "24574.29" />
  <polygon class="fil2 str13" points="12373.16,25621.97 7557.04,25621.97 7557.04,25418.67 12373.16,25418.67 "/>
  <polygon class="fil2 str13" points="7557.04,25621.97 7353.77,25621.97 7353.77,25418.67 7557.04,25418.67 "/>
  <polygon class="fil2 str13" points="12373.16,25621.97 12576.42,25621.97 12576.42,25418.67 12373.16,25418.67 "/>
  <g>
   <path class="fil1" d="M7214.22 26016.31c-31.51,0 -57.07,-24.5 -57.07,-54.72 0,-30.22 25.56,-54.72 57.07,-54.72l0 109.44zm5284 0l-5284 0 0 -109.44 5284 0 0 109.44zm0 -109.44c31.51,0 57.07,24.5 57.07,54.72 0,30.22 -25.56,54.72 -57.07,54.72l0 -109.44z"/>
  </g>
  <polygon class="fil0 str12" points="12654.62,25184.12 14140.08,25184.12 14140.08,24574.29 12654.62,24574.29 12654.62,25324.85 "/>
  <polygon class="fil0 str12" points="23991.2,24574.29 22740.29,24574.29 22740.29,25184.12 23991.2,25184.12 "/>
  <polygon class="fil0 str12" points="15641.2,25184.12 15641.2,24574.29 17361.25,24574.29 17361.25,25184.12 "/>
  <polygon class="fil0 str0" points="12654.62,25621.97 17361.25,25621.97 17361.25,25184.12 12654.62,25184.12 "/>
  <polygon class="fil0 str14" points="12498.22,25981.59 17517.6,25981.59 17517.6,25621.97 12498.22,25621.97 "/>
  <g id="_2286586303456">
   <line class="fil2 str13" x1="17361.25" y1="24574.29" x2="22740.29" y2= "24574.29" />
   <polygon class="fil2 str13" points="22458.83,25621.97 17658.34,25621.97 17658.34,25418.67 22458.83,25418.67 "/>
   <polygon class="fil2 str13" points="17658.34,25621.97 17439.45,25621.97 17439.45,25418.67 17658.34,25418.67 "/>
   <polygon class="fil2 str13" points="22458.83,25621.97 22662.09,25621.97 22662.09,25418.67 22458.83,25418.67 "/>
   <line class="fil2 str13" x1="17517.6" y1="25981.59" x2="22599.56" y2= "25981.59" />
  </g>
  <polygon class="fil0 str0" points="22740.29,25621.97 26680.74,25621.97 26680.74,25184.12 22740.29,25184.12 "/>
  <polygon class="fil0 str14" points="22599.56,25981.59 26837.09,25981.59 26837.09,25621.97 22599.56,25621.97 "/>
  <polyline class="fil2 str15" points="29100.79,24578.4 26739.66,24578.4 26739.66,25985.7 "/>
  <polygon class="fil2 str16" points="26922.93,25616.08 28861.9,25616.08 28861.9,25412.78 26922.93,25412.78 "/>
  <polygon class="fil2 str16" points="28861.9,25616.08 29080.79,25616.08 29080.79,25412.78 28861.9,25412.78 "/>
  <g>
   <path class="fil1" d="M29109.65 25920.98c32.15,0 58.22,24.5 58.22,54.72 0,30.22 -26.07,54.72 -58.22,54.72l0 -109.44zm-2345.54 0l2345.54 0 0 109.44 -2345.54 0 0 -109.44zm0 109.44c-32.15,0 -58.22,-24.5 -58.22,-54.72 0,-30.22 26.07,-54.72 58.22,-54.72l0 109.44z"/>
  </g>
  <polygon class="fil2 str16" points="26922.93,25616.08 26719.66,25616.08 26719.66,25412.78 26922.93,25412.78 "/>
  <polygon class="fil0 str12" points="34233.26,25184.12 31168.44,25184.12 31168.44,24574.29 34295.8,24574.29 34295.8,25184.12 "/>
  <polygon class="fil0 str12" points="25492.32,25184.12 25492.32,24574.29 26680.74,24574.29 26680.74,25184.12 "/>
  <text x="27433.16" y="28003.31"  class="fil3 fnt0">3.60 (1.80)</text>
  <g>
   <polygon class="fil0" points="4724.83,9359.79 4724.83,8765.58 5830.08,8765.58 5830.08,9359.79 "/>
   <path id="_1_3" class="fil1" d="M4780.05 8765.58l0 594.21 -110.44 0 0 -594.21 55.22 -75 55.22 75zm-110.44 0c0,-41.42 24.73,-75 55.22,-75 30.49,0 55.22,33.58 55.22,75l-110.44 0zm1160.47 75l-1105.25 0 0 -150 1105.25 0 55.22 75 -55.22 75zm0 -150c30.49,0 55.22,33.58 55.22,75 0,41.42 -24.73,75 -55.22,75l0 -150zm-55.22 669.21l0 -594.21 110.44 0 0 594.21 -55.22 75 -55.22 -75zm110.44 0c0,41.42 -24.73,75 -55.22,75 -30.49,0 -55.22,-33.58 -55.22,-75l110.44 0zm-1160.47 -75l1105.25 0 0 150 -1105.25 0 -55.22 -75 55.22 -75zm0 150c-30.49,0 -55.22,-33.58 -55.22,-75 0,-41.42 24.73,-75 55.22,-75l0 150z"/>
  </g>
  <path class="fil0 str17" d="M4867.54 9093.95l0 -7.83c-4.32,0 -7.83,3.51 -7.83,7.83 0,4.33 3.51,7.83 7.83,7.83 4.32,0 7.83,-3.5 7.83,-7.83 0,-4.32 -3.51,-7.83 -7.83,-7.83l0 7.83z"/>
  <line class="fil2 str12" x1="4961.36" y1="8984.51" x2="5195.91" y2= "8765.58" />
  <line class="fil2 str12" x1="4992.61" y1="9359.79" x2="5320.98" y2= "9031.42" />
  <path class="fil0 str17" d="M5414.8 8937.6l0 -7.83c-4.32,0 -7.83,3.51 -7.83,7.83 0,4.32 3.51,7.83 7.83,7.83 4.32,0 7.83,-3.51 7.83,-7.83 0,-4.32 -3.51,-7.83 -7.83,-7.83l0 7.83z"/>
  <line class="fil2 str12" x1="5524.28" y1="8828.12" x2="5586.81" y2= "8765.58" />
  <line class="fil2 str12" x1="5399.17" y1="9359.79" x2="5790.08" y2= "8968.85" />
  <polygon class="fil0 str12" points="14140.08,9359.79 14140.08,8765.58 15641.2,8765.58 15641.2,9359.79 "/>
  <line class="fil2 str12" x1="14140.08" y1="8859.4" x2="14218.27" y2= "8781.21" />
  <path class="fil0 str17" d="M14171.36 9234.68l0 -7.83c-4.32,0 -7.83,3.51 -7.83,7.83 0,4.33 3.51,7.83 7.83,7.83 4.32,0 7.83,-3.5 7.83,-7.83 0,-4.32 -3.51,-7.83 -7.83,-7.83l0 7.83z"/>
  <line class="fil2 str12" x1="14265.18" y1="9140.86" x2="14640.46" y2= "8765.58" />
  <line class="fil2 str12" x1="14452.82" y1="9359.79" x2="14624.84" y2= "9187.77" />
  <path class="fil0 str17" d="M14718.66 9093.95l0 -7.83c-4.32,0 -7.83,3.51 -7.83,7.83 0,4.33 3.51,7.83 7.83,7.83 4.32,0 7.83,-3.5 7.83,-7.83 0,-4.32 -3.51,-7.83 -7.83,-7.83l0 7.83z"/>
  <line class="fil2 str12" x1="14812.48" y1="8984.51" x2="15047.03" y2= "8765.58" />
  <line class="fil2 str12" x1="14843.73" y1="9359.79" x2="15172.1" y2= "9031.42" />
  <path class="fil0 str17" d="M15265.92 8937.6l0 -7.83c-4.32,0 -7.83,3.51 -7.83,7.83 0,4.32 3.51,7.83 7.83,7.83 4.32,0 7.83,-3.51 7.83,-7.83 0,-4.32 -3.51,-7.83 -7.83,-7.83l0 7.83z"/>
  <line class="fil2 str12" x1="15375.4" y1="8828.12" x2="15453.56" y2= "8765.58" />
  <line class="fil2 str12" x1="15250.3" y1="9359.79" x2="15641.2" y2= "8968.85" />
  <polygon class="fil0 str18" points="20545.86,9359.79 20545.86,8765.58 22046.98,8765.58 22046.98,9359.79 "/>
  <polygon class="fil0 str12" points="5336.64,18757.43 4742.43,18757.43 4742.43,17271.97 5336.64,17271.97 "/>
  <line class="fil2 str12" x1="4742.43" y1="17506.52" x2="4820.63" y2= "17428.33" />
  <path class="fil0 str17" d="M4914.45 17318.88l0 -7.83c-4.32,0 -7.83,3.51 -7.83,7.83 0,4.32 3.51,7.83 7.83,7.83 4.32,0 7.83,-3.51 7.83,-7.83 0,-4.32 -3.51,-7.83 -7.83,-7.83l0 7.83z"/>
  <path class="fil0 str17" d="M4773.72 17881.8l0 -7.83c-4.32,0 -7.83,3.51 -7.83,7.83 0,4.33 3.51,7.83 7.83,7.83 4.32,0 7.83,-3.5 7.83,-7.83 0,-4.32 -3.51,-7.83 -7.83,-7.83l0 7.83z"/>
  <line class="fil2 str12" x1="4867.54" y1="17772.32" x2="5336.64" y2= "17303.22" />
  <line class="fil2 str12" x1="4742.43" y1="18303.99" x2="5211.53" y2= "17819.23" />
  <path class="fil0 str17" d="M5320.98 17725.41l0 -7.83c-4.32,0 -7.83,3.51 -7.83,7.83 0,4.32 3.51,7.83 7.83,7.83 4.32,0 7.83,-3.51 7.83,-7.83 0,-4.32 -3.51,-7.83 -7.83,-7.83l0 7.83z"/>
  <line class="fil2 str12" x1="4742.43" y1="18710.52" x2="5070.8" y2= "18382.15" />
  <path class="fil0 str17" d="M5164.62 18272.71l0 -7.83c-4.32,0 -7.83,3.51 -7.83,7.83 0,4.32 3.51,7.83 7.83,7.83 4.33,0 7.83,-3.51 7.83,-7.83 0,-4.32 -3.5,-7.83 -7.83,-7.83l0 7.83z"/>
  <line class="fil2 str12" x1="5274.07" y1="18178.89" x2="5336.64" y2= "18116.35" />
  <line class="fil2 str12" x1="5117.71" y1="18726.19" x2="5336.64" y2= "18507.26" />
  <polygon class="fil0 str12" points="34890,18757.43 34295.8,18757.43 34295.8,17271.97 34890,17271.97 "/>
  <line class="fil2 str12" x1="34295.8" y1="17506.52" x2="34373.99" y2= "17428.33" />
  <path class="fil0 str17" d="M34467.81 17318.88l0 -7.83c-4.32,0 -7.83,3.51 -7.83,7.83 0,4.32 3.51,7.83 7.83,7.83 4.32,0 7.83,-3.51 7.83,-7.83 0,-4.32 -3.51,-7.83 -7.83,-7.83l0 7.83z"/>
  <path class="fil0 str17" d="M34327.08 17881.8l0 -7.83c-4.32,0 -7.83,3.51 -7.83,7.83 0,4.33 3.51,7.83 7.83,7.83 4.32,0 7.83,-3.5 7.83,-7.83 0,-4.32 -3.51,-7.83 -7.83,-7.83l0 7.83z"/>
  <line class="fil2 str12" x1="34420.9" y1="17772.32" x2="34890" y2= "17303.22" />
  <line class="fil2 str12" x1="34295.8" y1="18303.99" x2="34780.52" y2= "17819.23" />
  <path class="fil0 str17" d="M34874.34 17725.41l0 -7.83c-4.32,0 -7.83,3.51 -7.83,7.83 0,4.32 3.51,7.83 7.83,7.83 4.32,0 7.83,-3.51 7.83,-7.83 0,-4.32 -3.51,-7.83 -7.83,-7.83l0 7.83z"/>
  <line class="fil2 str12" x1="34295.8" y1="18710.52" x2="34624.17" y2= "18382.15" />
  <path class="fil0 str17" d="M34717.99 18272.71l0 -7.83c-4.32,0 -7.83,3.51 -7.83,7.83 0,4.32 3.51,7.83 7.83,7.83 4.32,0 7.83,-3.51 7.83,-7.83 0,-4.32 -3.51,-7.83 -7.83,-7.83l0 7.83z"/>
  <line class="fil2 str12" x1="34827.43" y1="18178.89" x2="34890" y2= "18116.35" />
  <line class="fil2 str12" x1="34671.08" y1="18726.19" x2="34890" y2= "18507.26" />
  <polygon class="fil0 str12" points="34890,10251.08 34295.8,10251.08 34295.8,8765.58 34890,8765.58 "/>
  <line class="fil2 str12" x1="34295.8" y1="9000.13" x2="34373.99" y2= "8921.94" />
  <path class="fil0 str17" d="M34467.81 8812.49l0 -7.83c-4.32,0 -7.83,3.51 -7.83,7.83 0,4.32 3.51,7.83 7.83,7.83 4.32,0 7.83,-3.51 7.83,-7.83 0,-4.32 -3.51,-7.83 -7.83,-7.83l0 7.83z"/>
  <path class="fil0 str17" d="M34327.08 9375.41l0 -7.83c-4.32,0 -7.83,3.51 -7.83,7.83 0,4.33 3.51,7.84 7.83,7.84 4.32,0 7.83,-3.51 7.83,-7.84 0,-4.32 -3.51,-7.83 -7.83,-7.83l0 7.83z"/>
  <line class="fil2 str12" x1="34420.9" y1="9265.97" x2="34890" y2= "8796.87" />
  <line class="fil2 str12" x1="34295.8" y1="9797.61" x2="34780.52" y2= "9312.88" />
  <path class="fil0 str17" d="M34874.34 9219.06l0 -7.83c-4.32,0 -7.83,3.51 -7.83,7.83 0,4.32 3.51,7.83 7.83,7.83 4.32,0 7.83,-3.51 7.83,-7.83 0,-4.32 -3.51,-7.83 -7.83,-7.83l0 7.83z"/>
  <line class="fil2 str12" x1="34295.8" y1="10204.17" x2="34624.17" y2= "9875.8" />
  <path class="fil0 str17" d="M34717.99 9766.32l0 -7.83c-4.32,0 -7.83,3.51 -7.83,7.83 0,4.32 3.51,7.83 7.83,7.83 4.32,0 7.83,-3.51 7.83,-7.83 0,-4.32 -3.51,-7.83 -7.83,-7.83l0 7.83z"/>
  <line class="fil2 str12" x1="34827.43" y1="9672.5" x2="34890" y2= "9594.34" />
  <line class="fil2 str12" x1="34671.08" y1="10219.8" x2="34890" y2= "10000.87" />
  <g>
   <polygon class="fil0" points="5770.08,24574.29 5770.08,25184.12 4722.35,25184.12 4722.35,24574.29 "/>
   <path id="_1_4" class="fil1" d="M5717.73 25184.12l0 -609.83 104.7 0 0 609.83 -52.35 75 -52.35 -75zm104.7 0c0,41.42 -23.44,75 -52.35,75 -28.91,0 -52.35,-33.58 -52.35,-75l104.7 0zm-1100.08 -75l1047.73 0 0 150 -1047.73 0 -52.35 -75 52.35 -75zm0 150c-28.91,0 -52.35,-33.58 -52.35,-75 0,-41.42 23.44,-75 52.35,-75l0 150zm52.35 -684.83l0 609.83 -104.7 0 0 -609.83 52.35 -75 52.35 75zm-104.7 0c0,-41.42 23.44,-75 52.35,-75 28.91,0 52.35,33.58 52.35,75l-104.7 0zm1100.08 75l-1047.73 0 0 -150 1047.73 0 52.35 75 -52.35 75zm0 -150c28.91,0 52.35,33.58 52.35,75 0,41.42 -23.44,75 -52.35,75l0 -150z"/>
  </g>
  <line class="fil2 str12" x1="4914.45" y1="25184.12" x2="4914.45" y2= "25168.49" />
  <path class="fil0 str17" d="M5023.89 25074.67l0 -7.83c-4.32,0 -7.83,3.51 -7.83,7.83 0,4.33 3.51,7.83 7.83,7.83 4.33,0 7.83,-3.5 7.83,-7.83 0,-4.32 -3.5,-7.83 -7.83,-7.83l0 7.83z"/>
  <line class="fil2 str12" x1="5117.71" y1="24965.23" x2="5508.62" y2= "24574.29" />
  <line class="fil2 str12" x1="5320.98" y1="25184.12" x2="5477.37" y2= "25027.76" />
  <path class="fil0 str17" d="M5571.19 24918.32l0 -7.83c-4.32,0 -7.83,3.51 -7.83,7.83 0,4.32 3.51,7.83 7.83,7.83 4.32,0 7.83,-3.51 7.83,-7.83 0,-4.32 -3.51,-7.83 -7.83,-7.83l0 7.83z"/>
  <line class="fil2 str12" x1="5680.64" y1="24824.5" x2="5790.08" y2= "24715.02" />
  <line class="fil2 str12" x1="5711.92" y1="25184.12" x2="5790.08" y2= "25105.96" />
  <polygon class="fil0 str12" points="15641.2,24574.29 15641.2,25184.12 14140.08,25184.12 14140.08,24574.29 "/>
  <line class="fil2 str12" x1="14140.08" y1="24589.95" x2="14155.74" y2= "24574.29" />
  <line class="fil2 str12" x1="14140.08" y1="24996.48" x2="14374.63" y2= "24761.93" />
  <path class="fil0 str17" d="M14468.45 24668.11l0 -7.83c-4.32,0 -7.83,3.51 -7.83,7.83 0,4.32 3.51,7.83 7.83,7.83 4.32,0 7.83,-3.51 7.83,-7.83 0,-4.32 -3.51,-7.83 -7.83,-7.83l0 7.83z"/>
  <line class="fil2 str12" x1="14421.54" y1="25121.58" x2="14921.92" y2= "24621.2" />
  <line class="fil2 str12" x1="14765.57" y1="25184.12" x2="14781.19" y2= "25168.49" />
  <path class="fil0 str17" d="M14875.01 25074.67l0 -7.83c-4.32,0 -7.83,3.51 -7.83,7.83 0,4.33 3.51,7.83 7.83,7.83 4.33,0 7.84,-3.5 7.84,-7.83 0,-4.32 -3.51,-7.83 -7.84,-7.83l0 7.83z"/>
  <line class="fil2 str12" x1="14968.83" y1="24965.23" x2="15359.74" y2= "24574.29" />
  <line class="fil2 str12" x1="15172.1" y1="25184.12" x2="15328.49" y2= "25027.76" />
  <path class="fil0 str17" d="M15422.31 24918.32l0 -7.83c-4.32,0 -7.83,3.51 -7.83,7.83 0,4.32 3.51,7.83 7.83,7.83 4.32,0 7.83,-3.51 7.83,-7.83 0,-4.32 -3.51,-7.83 -7.83,-7.83l0 7.83z"/>
  <line class="fil2 str12" x1="15531.76" y1="24824.5" x2="15641.2" y2= "24715.02" />
  <line class="fil2 str12" x1="15563.04" y1="25184.12" x2="15641.2" y2= "25105.96" />
  <polygon class="fil0 str12" points="25492.32,24574.29 25492.32,25184.12 23991.2,25184.12 23991.2,24574.29 "/>
  <line class="fil2 str12" x1="23991.2" y1="24589.95" x2="24006.86" y2= "24574.29" />
  <line class="fil2 str12" x1="23991.2" y1="24996.48" x2="24225.75" y2= "24761.93" />
  <path class="fil0 str17" d="M24319.57 24668.11l0 -7.83c-4.32,0 -7.83,3.51 -7.83,7.83 0,4.32 3.51,7.83 7.83,7.83 4.32,0 7.83,-3.51 7.83,-7.83 0,-4.32 -3.51,-7.83 -7.83,-7.83l0 7.83z"/>
  <line class="fil2 str12" x1="24272.66" y1="25121.58" x2="24773.05" y2= "24621.2" />
  <line class="fil2 str12" x1="24616.69" y1="25184.12" x2="24632.32" y2= "25168.49" />
  <path class="fil0 str17" d="M24726.14 25074.67l0 -7.83c-4.33,0 -7.83,3.51 -7.83,7.83 0,4.33 3.5,7.83 7.83,7.83 4.32,0 7.83,-3.5 7.83,-7.83 0,-4.32 -3.51,-7.83 -7.83,-7.83l0 7.83z"/>
  <line class="fil2 str12" x1="24819.96" y1="24965.23" x2="25210.86" y2= "24574.29" />
  <line class="fil2 str12" x1="25023.22" y1="25184.12" x2="25179.61" y2= "25027.76" />
  <path class="fil0 str17" d="M25273.43 24918.32l0 -7.83c-4.32,0 -7.83,3.51 -7.83,7.83 0,4.32 3.51,7.83 7.83,7.83 4.32,0 7.83,-3.51 7.83,-7.83 0,-4.32 -3.51,-7.83 -7.83,-7.83l0 7.83z"/>
  <line class="fil2 str12" x1="25382.88" y1="24824.5" x2="25492.32" y2= "24715.02" />
  <line class="fil2 str12" x1="25414.16" y1="25184.12" x2="25492.32" y2= "25105.96" />
  <polygon class="fil0 str12" points="34890,25184.12 34295.8,25184.12 34295.8,23683 34890,23683 "/>
  <line class="fil2 str12" x1="34295.8" y1="23917.55" x2="34373.99" y2= "23839.39" />
  <path class="fil0 str17" d="M34467.81 23745.57l0 -7.83c-4.32,0 -7.83,3.51 -7.83,7.83 0,4.32 3.51,7.83 7.83,7.83 4.32,0 7.83,-3.51 7.83,-7.83 0,-4.32 -3.51,-7.83 -7.83,-7.83l0 7.83z"/>
  <path class="fil0 str17" d="M34327.08 24292.83l0 -7.83c-4.32,0 -7.83,3.5 -7.83,7.83 0,4.32 3.51,7.83 7.83,7.83 4.32,0 7.83,-3.51 7.83,-7.83 0,-4.33 -3.51,-7.83 -7.83,-7.83l0 7.83z"/>
  <line class="fil2 str12" x1="34420.9" y1="24199.01" x2="34890" y2= "23729.91" />
  <line class="fil2 str12" x1="34295.8" y1="24715.02" x2="34780.52" y2= "24245.92" />
  <path class="fil0 str17" d="M34874.34 24136.47l0 -7.83c-4.32,0 -7.83,3.51 -7.83,7.83 0,4.32 3.51,7.83 7.83,7.83 4.32,0 7.83,-3.51 7.83,-7.83 0,-4.32 -3.51,-7.83 -7.83,-7.83l0 7.83z"/>
  <line class="fil2 str12" x1="34295.8" y1="25121.58" x2="34624.17" y2= "24793.21" />
  <path class="fil0 str17" d="M34717.99 24699.39l0 -7.83c-4.32,0 -7.83,3.51 -7.83,7.83 0,4.32 3.51,7.83 7.83,7.83 4.32,0 7.83,-3.51 7.83,-7.83 0,-4.32 -3.51,-7.83 -7.83,-7.83l0 7.83z"/>
  <line class="fil2 str12" x1="34827.43" y1="24589.95" x2="34890" y2= "24527.38" />
  <line class="fil2 str12" x1="34671.08" y1="25152.87" x2="34890" y2= "24933.94" />
  <polygon class="fil0 str12" points="34295.8,23683 34890,23683 34890,18757.43 34295.8,18757.43 "/>
  <polygon class="fil0 str19" points="17658.33,8765.58 16047.73,8765.58 16047.73,9359.79 20785.65,9359.79 20785.65,8765.58 18252.5,8765.58 "/>
  <rect class="fil4 str20" x="4678.27" y="25014.44" width="2646.58" height="987.15"/>
  <rect class="fil4 str20" x="31168.44" y="25024.44" width="3777.43" height="987.15"/>
  <rect class="fil4 str20" x="34608.35" y="25889.56" width="334.07" height="3913.73"/>
  <rect class="fil4 str20" transform="matrix(-8.71802E-15 -1 2.39006 9.63745E-14 24549.6 29803.3)" width="444" height="4347.05"/>
  <rect class="fil4 str20" x="24531.92" y="25258.39" width="334.07" height="4544.89" rx="37.62" ry="52.28"/>
  <g id="_2321494933120">
   <polygon class="fil2 str21" points="25033.48,8901.9 24877.12,8901.9 24877.12,9198.99 25033.48,9198.99 "/>
   <path class="fil5 str22" d="M24846.77 9130.97c-41.65,-1597.08 -821.92,-2861.38 -2498.82,-3318.11 0,1007.47 -22.88,2247.72 -22.88,3255.2"/>
   <polygon class="fil2 str23" points="22296.16,8901.9 22139.8,8901.9 22139.8,9198.99 22296.16,9198.99 "/>
  </g>
  <path class="fil5 str22" d="M29021.49 12411.01c-962.09,-25.09 -1723.71,-495.13 -1998.84,-1505.3 606.9,0 1354.03,-13.78 1960.94,-13.78"/>
  <path class="fil5 str22" d="M15041.06 13732.07c-248.53,-5.48 -482.39,-34.19 -700.38,-85.43m-189.96 -51.59c-123.21,-38.16 -240.76,-84.13 -352.38,-137.75m-169.45 -89.96c-137.46,-80.3 -264.65,-173.5 -380.96,-279.33m-135.19 -133.97c-98.4,-106.15 -187.55,-222.73 -266.92,-349.58m-102.38 -179.6c-70.35,-135.99 -130.82,-282.1 -180.95,-438.07 785.45,0 1752.34,-15.11 2537.8,-15.11"/>
  <path class="fil5 str22" d="M15047.35 13745.58c-266.5,5.9 -517.68,37.31 -751.36,93.92m-177.47 48.95c-133.98,41.59 -261.47,92.19 -382.04,151.7m-173.05 94.4c-120.97,72.74 -233.79,155.61 -337.88,248.56m-149.52 146.97c-92.74,100.33 -176.93,210.2 -252.02,329.56m-93.19 161.92c-69.3,131.96 -128.64,274.06 -177.4,426.25 778.63,0 1737.13,15.03 2515.77,15.03"/>
  <path class="fil5 str22" d="M21395.52 16521.41c-34.2,1311.17 -1013.09,2276.21 -2389.79,2651.17 0,-827.11 -18.78,-1845.33 -18.78,-2672.45"/>
  <path class="fil5 str22" d="M28073.09 16562.46c-32.97,1311.17 -898.17,2292.25 -2225.8,2667.21 0,-827.11 -18.11,-1845.33 -18.11,-2672.45"/>
  <polygon class="fil2 str24" points="29289.98,24608.83 29133.59,24608.83 29133.59,24905.92 29289.98,24905.92 "/>
  <polygon class="fil2 str25" points="31100.52,24623.37 30944.13,24623.37 30944.13,24920.46 31100.52,24920.46 "/>
  <path class="fil5 str22" d="M29249.76 24846.02c28.1,-978.19 554.65,-1752.54 1686.25,-2032.28 0,617.06 15.44,1376.68 15.44,1993.75"/>
  <g id="_2323028308160">
   <path class="fil5 str26" d="M34283.56 17848.6l0 1787.72c0.01,66.6 -54.24,120.61 -121.13,120.61l-1819.33 -0.01c-66.88,0.01 -121.13,-54 -121.13,-120.59l-0.01 -1787.73c0.01,-66.58 54.26,-120.59 121.15,-120.59l1819.32 -0.01c66.89,0.01 121.14,54.02 121.14,120.61z"/>
   <rect class="fil5 str26" transform="matrix(5.59916E-14 0.70155 -0.704708 5.57407E-14 33930.1 17915.7)" width="2373.81" height="2106.33"/>
   <circle class="fil5 str27" transform="matrix(5.59916E-14 0.70155 -0.704708 5.57407E-14 33623.9 19135.3)" r="183.89"/>
  </g>
  <g id="_2323028308976">
   <line class="fil5 str28" x1="33132.02" y1="15728.33" x2="33400.7" y2= "15698.51" />
   <line class="fil5 str29" x1="33142.76" y1="14804.81" x2="33411.38" y2= "14834.7" />
   <path class="fil5 str29" d="M34357.53 16160.47c-212.89,0 -425.8,0.04 -638.69,0.04 -158.77,0.46 -273.62,-81.81 -320.85,-283.6 2.5,-359.03 5,-718.1 7.51,-1077.14 -14.67,-280.95 107.01,-397.78 313.34,-415.15l648.81 0"/>
   <path class="fil5 str29" d="M32595.17 14598.27c212.07,-34.72 395.98,13.16 537.23,186.55 26.73,70.1 47.67,138.91 63.03,206.44 59.73,262.72 34.89,506.44 -63.06,733.72 -125.57,152.82 -289.42,224.13 -495.85,204.88 -308.24,-30.03 -607.46,-141.14 -891.97,-383.99 -172.59,-169.7 -186.73,-361.72 0,-581.96 247.75,-199.39 532.82,-317.94 850.62,-365.64z"/>
  </g>
  <g id="_2286459536928">
   <path class="fil5 str26" d="M34388.08 11661.5c-731.11,6.9 -1413.02,-216.31 -1507.29,678.72 -24.04,291.48 -13.75,569.67 26.41,855.83 162.67,732.96 792.71,502.84 1491.62,515.1"/>
   <path class="fil5 str29" d="M33849.58 11774.72c96.47,-2.03 189.65,69.81 233.73,149.65 0,531.75 0,1038.13 0,1569.89 -16.55,75.08 -68.58,91.94 -181.41,117.38 -1026.95,38.44 -809.07,-664.3 -826.97,-1301.83 45.59,-461.53 376.74,-514.86 774.65,-535.09z"/>
   <circle class="fil5 str29" transform="matrix(-2.94173E-14 1.11073 -1.11073 -2.94173E-14 33932.3 12706.4)" r="94.44"/>
   <path class="fil5 str29" d="M33896.64 12017.56c77.04,-1.44 151.48,49.85 186.67,106.86 0,379.66 0,741.23 0,1120.9 -13.21,53.61 -54.76,65.65 -144.88,83.81 -809.79,67.16 -656.95,-404.25 -660.49,-929.5 6.4,-344 314.74,-382.07 618.7,-382.07z"/>
  </g>
  <g id="_2286459533040">
   <rect class="fil5 str29" transform="matrix(-0.000152052 0.761409 -0.818947 -0.000141369 34234.2 9405.61)" width="2611.41" height="5846.68"/>
   <path class="fil5 str29" d="M30323.35 9632.04c1051.66,-41.7 2090.96,-14.39 3136.44,-21.56 365.9,-4.84 552.67,7.74 546.67,367.83 -0.06,298.02 -0.12,596.02 -0.18,894.03 3.32,253.06 -78.09,348.23 -533.65,328.82 -1049.85,-7.54 -2099.73,7.94 -3149.58,-22.62 -833.79,-93.3 -918.23,-1407.58 0.3,-1546.5z"/>
   <circle class="fil5 str29" transform="matrix(-0.000152052 0.761409 -0.818947 -0.000141369 33684.6 10416.1)" r="121.03"/>
  </g>
  <g id="_2286459534000">
   <rect class="fil5 str30" transform="matrix(-3.58973E-14 0.73339 0.940728 8.44097E-15 29422.6 29762.4)" width="2496.64" height="5813.27"/>
   <line class="fil5 str30" x1="29415.44" y1="29759.48" x2="34884.15" y2= "31590.49" />
   <line class="fil5 str30" x1="29422.6" y1="31593.44" x2="34848.72" y2= "29807.37" />
  </g>
  <polygon class="fil0 str31" points="28776.03,10367.97 28776.03,8960.67 29073.15,8960.67 29073.15,10665.06 28777.8,10665.06 "/>
  <g>
   <polygon class="fil0" points="34372.9,16524.65 28303.83,16524.65 28303.83,16821.77 34372.9,16821.77 "/>
   <path id="_1_5" class="fil1" d="M28303.83 16454.28l6069.07 0 0 140.74 -6069.07 0 -120.31 -70.37 120.31 -70.37zm0 140.74c-66.44,0 -120.31,-31.51 -120.31,-70.37 0,-38.86 53.87,-70.37 120.31,-70.37l0 140.74zm-120.31 226.75l0 -297.12 240.62 0 0 297.12 -120.31 70.37 -120.31 -70.37zm240.62 0c0,38.86 -53.87,70.37 -120.31,70.37 -66.44,0 -120.31,-31.51 -120.31,-70.37l240.62 0zm5948.76 70.37l-6069.07 0 0 -140.74 6069.07 0 120.31 70.37 -120.31 70.37zm0 -140.74c66.44,0 120.31,31.51 120.31,70.37 0,38.86 -53.87,70.37 -120.31,70.37l0 -140.74zm120.31 -226.75l0 297.12 -240.62 0 0 -297.12 120.31 -70.37 120.31 70.37zm-240.62 0c0,-38.86 53.87,-70.37 120.31,-70.37 66.44,0 120.31,31.51 120.31,70.37l-240.62 0z"/>
  </g>
  <g>
   <polygon class="fil0" points="29073.15,16804.68 28776.07,16804.68 28776.07,16301.86 29073.15,16301.86 29073.15,16756.91 "/>
   <path id="_1_6" class="fil1" d="M28776.07 16792.62l297.08 0 0 24.12 -297.08 0 -75 -12.06 75 -12.06zm0 24.12c-41.42,0 -75,-5.4 -75,-12.06 0,-6.66 33.58,-12.06 75,-12.06l0 24.12zm75 -514.88l0 502.82 -150 0 0 -502.82 75 -12.06 75 12.06zm-150 0c0,-6.66 33.58,-12.06 75,-12.06 41.42,0 75,5.4 75,12.06l-150 0zm372.08 12.06l-297.08 0 0 -24.12 297.08 0 75 12.06 -75 12.06zm0 -24.12c41.42,0 75,5.4 75,12.06 0,6.66 -33.58,12.06 -75,12.06l0 -24.12zm-75 467.11l0 -455.05 150 0 0 455.05 0 0 -150 0zm150 0c0,6.66 -33.58,12.06 -75,12.06 -41.42,0 -75,-5.4 -75,-12.06l150 0zm-150 47.77l0 -47.77 150 0 0 47.77 -75 12.06 -75 -12.06zm150 0c0,6.66 -33.58,12.06 -75,12.06 -41.42,0 -75,-5.4 -75,-12.06l150 0z"/>
  </g>
  <polygon class="fil2 str32" points="29073.15,14295.32 29073.15,14436.05 28776.03,14436.05 28776.03,14295.32 "/>
  <polygon class="fil2 str33" points="29073.15,16121.44 29073.15,16262.17 28776.03,16262.17 28776.03,16121.44 "/>
  <path class="fil5 str22" d="M29014.87 16121.44c-962.09,-25.09 -1717.09,-624.77 -1992.22,-1634.94 606.9,0 1354.03,-13.78 1960.94,-13.78"/>
  <g>
   <path class="fil1" d="M29172.73 25962.67c0,19.26 -24.5,34.88 -54.72,34.88 -30.22,0 -54.72,-15.62 -54.72,-34.88l109.44 0zm0 -1405.13l0 1405.13 -109.44 0 0 -1405.13 109.44 0zm-109.44 0c0,-19.26 24.5,-34.88 54.72,-34.88 30.22,0 54.72,15.62 54.72,34.88l-109.44 0z"/>
  </g>
  <rect class="fil4 str20" x="15187.77" y="11389.02" width="1143.41" height="368.48"/>
  <rect class="fil4 str20" transform="matrix(2.64845E-14 -1 1 2.64845E-14 20088.4 11397)" width="2022.2" height="368.48"/>
  <rect class="fil4 str20" x="18432.84" y="11389.02" width="2022.2" height="368.48"/>
  <polygon class="fil2 str34" points="16493.7,11423.76 16337.31,11423.76 16337.31,11720.85 16493.7,11720.85 "/>
  <polygon class="fil2 str35" points="18419.97,11423.76 18263.58,11423.76 18263.58,11720.85 18419.97,11720.85 "/>
  <path class="fil5 str22" d="M18263.58 11572.31c-23.56,903.24 -781.45,1572.64 -1729.83,1830.94 0,-569.78 -12.94,-1271.2 -12.94,-1840.99"/>
  <text x="16582.96" y="10864.18"  class="fil3 fnt1">0.60</text>
 </g>
</svg>
