<?xml version="1.0" encoding="UTF-8"?>
<!DOCTYPE svg PUBLIC "-//W3C//DTD SVG 1.1//EN" "http://www.w3.org/Graphics/SVG/1.1/DTD/svg11.dtd">
<!-- Creator: CorelDRAW -->
<svg xmlns="http://www.w3.org/2000/svg" xml:space="preserve" width="400mm" height="400mm" version="1.1" style="shape-rendering:geometricPrecision; text-rendering:geometricPrecision; image-rendering:optimizeQuality; fill-rule:evenodd; clip-rule:evenodd"
viewBox="0 0 40000 40000"
 xmlns:xlink="http://www.w3.org/1999/xlink"
 xmlns:xodm="http://www.corel.com/coreldraw/odm/2003">
 <defs>
  <style type="text/css">
   <![CDATA[
    .str18 {stroke:#1F1B20;stroke-width:16.9;stroke-miterlimit:22.9256}
    .str13 {stroke:#1F1B20;stroke-width:40;stroke-miterlimit:22.9256}
    .str15 {stroke:#3A3A3A;stroke-width:40;stroke-miterlimit:22.9256}
    .str17 {stroke:#2B2A29;stroke-width:40;stroke-miterlimit:22.9256}
    .str21 {stroke:#2B2A29;stroke-width:25.4;stroke-miterlimit:22.9256}
    .str14 {stroke:black;stroke-width:40;stroke-linecap:round;stroke-linejoin:round;stroke-miterlimit:22.9256}
    .str16 {stroke:#2B2A29;stroke-width:40;stroke-linecap:round;stroke-linejoin:round;stroke-miterlimit:22.9256}
    .str9 {stroke:black;stroke-width:95.15;stroke-linecap:round;stroke-linejoin:round;stroke-miterlimit:10}
    .str2 {stroke:black;stroke-width:95.15;stroke-linecap:round;stroke-linejoin:round;stroke-miterlimit:10}
    .str0 {stroke:black;stroke-width:95.15;stroke-linecap:round;stroke-linejoin:round;stroke-miterlimit:10}
    .str1 {stroke:black;stroke-width:95.15;stroke-linecap:round;stroke-linejoin:round;stroke-miterlimit:10}
    .str8 {stroke:black;stroke-width:95.15;stroke-linecap:round;stroke-linejoin:round;stroke-miterlimit:10}
    .str19 {stroke:black;stroke-width:54.36;stroke-linecap:round;stroke-linejoin:round;stroke-miterlimit:10}
    .str20 {stroke:black;stroke-width:54.36;stroke-linecap:round;stroke-linejoin:round;stroke-miterlimit:10}
    .str7 {stroke:black;stroke-width:54.36;stroke-linecap:round;stroke-linejoin:round;stroke-miterlimit:10}
    .str6 {stroke:black;stroke-width:54.36;stroke-linecap:round;stroke-linejoin:round;stroke-miterlimit:10}
    .str23 {stroke:black;stroke-width:54.36;stroke-linecap:round;stroke-linejoin:round;stroke-miterlimit:10}
    .str22 {stroke:black;stroke-width:54.36;stroke-linecap:round;stroke-linejoin:round;stroke-miterlimit:10}
    .str11 {stroke:black;stroke-width:13.58;stroke-linecap:round;stroke-linejoin:round;stroke-miterlimit:10}
    .str10 {stroke:black;stroke-width:190.33;stroke-linecap:round;stroke-linejoin:round;stroke-miterlimit:10}
    .str5 {stroke:black;stroke-width:122.35;stroke-linecap:round;stroke-linejoin:round;stroke-miterlimit:10}
    .str12 {stroke:black;stroke-width:122.35;stroke-linecap:round;stroke-linejoin:round;stroke-miterlimit:10}
    .str4 {stroke:black;stroke-width:60.97;stroke-linecap:round;stroke-linejoin:round;stroke-miterlimit:10}
    .str3 {stroke:black;stroke-width:15.23;stroke-linecap:round;stroke-linejoin:round;stroke-miterlimit:10}
    .fil4 {fill:none}
    .fil1 {fill:none;fill-rule:nonzero}
    .fil3 {fill:black}
    .fil5 {fill:black}
    .fil0 {fill:black;fill-rule:nonzero}
    .fil2 {fill:black;fill-rule:nonzero}
    .fnt0 {font-weight:normal;font-size:1058.33px;font-family:'Arial'}
   ]]>
  </style>
 </defs>
 <g id="Слой_x0020_1">
  <metadata id="CorelCorpID_0Corel-Layer"/>
  <g>
   <path class="fil0" d="M16875.21 25960.49c-26.43,0 -47.86,-21.3 -47.86,-47.57 0,-26.27 21.43,-47.57 47.86,-47.57l0 95.14zm5812.82 0l-5812.82 0 0 -95.14 5812.82 0 0 95.14zm0 -95.14c26.43,0 47.86,21.3 47.86,47.57 0,26.27 -21.43,47.57 -47.86,47.57l0 -95.14z"/>
  </g>
  <polygon class="fil1 str0" points="22388.94,26906.58 17223.28,26906.58 17223.28,26675.47 22388.94,26675.47 "/>
  <polygon class="fil1 str1" points="17200.75,26898.26 16969.64,26898.26 16969.64,26667.15 17200.75,26667.15 "/>
  <polygon class="fil1 str2" points="22433.76,26903.75 22651.28,26903.75 22651.28,26672.64 22433.76,26672.64 "/>
  <g>
   <path class="fil0" d="M16961.37 27334.77c-26.81,0 -48.55,-21.3 -48.55,-47.57 0,-26.27 21.74,-47.57 48.55,-47.57l0 95.14zm5563.53 0l-5563.53 0 0 -95.14 5563.53 0 0 95.14zm0 -95.14c26.81,0 48.55,21.3 48.55,47.57 0,26.27 -21.74,47.57 -48.55,47.57l0 -95.14z"/>
  </g>
  <polygon class="fil2" points="26074.65,26906.58 26074.65,25864.2 22688.02,25864.2 22688.02,26906.58 "/>
  <polygon class="fil2" points="36079.86,27313.74 36156.78,27313.74 36156.78,25726.61 30895.82,25726.61 30895.82,27313.74 "/>
  <g>
   <polygon class="fil2" points="19013.92,9424.82 35791.47,9424.82 35791.47,8785.9 19013.92,8785.9 "/>
   <path id="_1" class="fil0" d="M35791.47 9485.99l-16777.55 0 0 -122.34 16777.55 0 178.91 61.17 -178.91 61.17zm0 -122.34c98.8,0 178.91,27.39 178.91,61.17 0,33.78 -80.11,61.17 -178.91,61.17l0 -122.34zm178.91 -577.75l0 638.92 -357.82 0 0 -638.92 178.91 -61.17 178.91 61.17zm-357.82 0c0,-33.78 80.11,-61.17 178.91,-61.17 98.8,0 178.91,27.39 178.91,61.17l-357.82 0zm-16598.64 -61.17l16777.55 0 0 122.34 -16777.55 0 -178.91 -61.17 178.91 -61.17zm0 122.34c-98.8,0 -178.91,-27.39 -178.91,-61.17 0,-33.78 80.11,-61.17 178.91,-61.17l0 122.34zm-178.91 577.75l0 -638.92 357.82 0 0 638.92 -178.91 61.17 -178.91 -61.17zm357.82 0c0,33.78 -80.11,61.17 -178.91,61.17 -98.8,0 -178.91,-27.39 -178.91,-61.17l357.82 0z"/>
  </g>
  <line class="fil1 str3" x1="33334.02" y1="23373.68" x2="33334.02" y2= "21574.86" />
  <polygon class="fil1 str4" points="35498.71,21574.86 35498.71,23373.68 33334.02,23373.68 33334.02,21574.86 "/>
  <polygon class="fil1 str4" points="33440.72,21681.56 33440.72,23266.98 35026.14,23266.98 35026.14,21681.56 "/>
  <line class="fil1 str3" x1="33440.72" y1="21681.56" x2="33684.62" y2= "21925.49" />
  <line class="fil1 str3" x1="33989.51" y1="22230.36" x2="34477.35" y2= "22718.19" />
  <line class="fil1 str3" x1="34782.21" y1="23023.09" x2="35026.14" y2= "23266.98" />
  <line class="fil1 str3" x1="35026.14" y1="21681.56" x2="34782.21" y2= "21925.49" />
  <line class="fil1 str3" x1="34477.35" y1="22230.36" x2="33989.51" y2= "22718.19" />
  <line class="fil1 str3" x1="33684.62" y1="23023.09" x2="33440.72" y2= "23266.98" />
  <line class="fil1 str3" x1="35026.14" y1="22474.29" x2="33440.72" y2= "22474.29" />
  <line class="fil1 str3" x1="34233.41" y1="21681.56" x2="34233.41" y2= "23266.98" />
  <line class="fil1 str3" x1="35026.14" y1="22474.29" x2="34782.21" y2= "22718.19" />
  <line class="fil1 str3" x1="34477.35" y1="23023.09" x2="34233.41" y2= "23266.98" />
  <line class="fil1 str3" x1="34233.41" y1="21681.56" x2="33989.51" y2= "21925.49" />
  <polyline class="fil1 str3" points="33684.62,22230.36 33440.72,22474.29 33684.62,22718.19 "/>
  <line class="fil1 str3" x1="33989.51" y1="23023.09" x2="34233.41" y2= "23266.98" />
  <line class="fil1 str3" x1="34233.41" y1="21681.56" x2="34477.35" y2= "21925.49" />
  <line class="fil1 str3" x1="34782.21" y1="22230.36" x2="35026.14" y2= "22474.29" />
  <path class="fil1 str3" d="M34706.01 22070.29c0,-37.88 -30.72,-68.6 -68.6,-68.6 -37.88,0 -68.6,30.72 -68.6,68.6 0,37.88 30.72,68.6 68.6,68.6 37.88,0 68.6,-30.72 68.6,-68.6z"/>
  <path class="fil1 str3" d="M34706.01 22863.02c0,-37.92 -30.72,-68.6 -68.6,-68.6 -37.88,0 -68.6,30.68 -68.6,68.6 0,37.88 30.72,68.6 68.6,68.6 37.88,0 68.6,-30.72 68.6,-68.6z"/>
  <path class="fil1 str3" d="M33913.28 22070.29c0,-37.88 -30.68,-68.6 -68.6,-68.6 -37.88,0 -68.6,30.72 -68.6,68.6 0,37.88 30.72,68.6 68.6,68.6 37.92,0 68.6,-30.72 68.6,-68.6z"/>
  <path class="fil1 str3" d="M33913.28 22863.02c0,-37.92 -30.68,-68.6 -68.6,-68.6 -37.88,0 -68.6,30.68 -68.6,68.6 0,37.88 30.72,68.6 68.6,68.6 37.92,0 68.6,-30.72 68.6,-68.6z"/>
  <line class="fil1 str4" x1="35132.84" y1="21574.86" x2="35132.84" y2= "23373.68" />
  <line class="fil1 str3" x1="35163.34" y1="21666.33" x2="35163.34" y2= "23282.22" />
  <polyline class="fil1 str3" points="35468.21,23282.22 35468.21,21666.33 35163.34,21666.33 "/>
  <line class="fil1 str3" x1="35468.21" y1="21849.26" x2="35163.34" y2= "21849.26" />
  <line class="fil1 str3" x1="35468.21" y1="21757.79" x2="35163.34" y2= "21757.79" />
  <line class="fil1 str3" x1="35468.21" y1="21940.73" x2="35163.34" y2= "21940.73" />
  <line class="fil1 str3" x1="35468.21" y1="22032.19" x2="35163.34" y2= "22032.19" />
  <line class="fil1 str3" x1="35468.21" y1="22215.12" x2="35163.34" y2= "22215.12" />
  <line class="fil1 str3" x1="35468.21" y1="22123.66" x2="35163.34" y2= "22123.66" />
  <line class="fil1 str3" x1="35468.21" y1="22291.36" x2="35163.34" y2= "22291.36" />
  <line class="fil1 str3" x1="35468.21" y1="22382.82" x2="35163.34" y2= "22382.82" />
  <line class="fil1 str3" x1="35468.21" y1="22565.76" x2="35163.34" y2= "22565.76" />
  <line class="fil1 str3" x1="35468.21" y1="22474.29" x2="35163.34" y2= "22474.29" />
  <line class="fil1 str3" x1="35468.21" y1="22657.22" x2="35163.34" y2= "22657.22" />
  <line class="fil1 str3" x1="35468.21" y1="22748.69" x2="35163.34" y2= "22748.69" />
  <line class="fil1 str3" x1="35468.21" y1="22931.62" x2="35163.34" y2= "22931.62" />
  <line class="fil1 str3" x1="35468.21" y1="22840.15" x2="35163.34" y2= "22840.15" />
  <line class="fil1 str3" x1="35468.21" y1="23023.09" x2="35163.34" y2= "23023.09" />
  <line class="fil1 str3" x1="35468.21" y1="23114.55" x2="35163.34" y2= "23114.55" />
  <line class="fil1 str3" x1="35468.21" y1="23282.22" x2="35163.34" y2= "23282.22" />
  <line class="fil1 str3" x1="35468.21" y1="23190.75" x2="35163.34" y2= "23190.75" />
  <line class="fil1 str3" x1="33303.52" y1="22123.66" x2="33273.02" y2= "22123.66" />
  <path class="fil1 str3" d="M33311.15 22077.92c-21.06,0 -38.13,17.07 -38.13,38.1 0,21.07 17.07,38.14 38.13,38.14"/>
  <polyline class="fil1 str3" points="33334.02,22077.92 33303.52,22077.92 33303.52,22123.66 33303.52,22169.39 33334.02,22169.39 "/>
  <line class="fil1 str3" x1="33303.52" y1="22474.29" x2="33273.02" y2= "22474.29" />
  <path class="fil1 str3" d="M33311.15 22428.56c-21.06,0 -38.13,17.03 -38.13,38.1 0,21.03 17.07,38.09 38.13,38.09"/>
  <polyline class="fil1 str3" points="33334.02,22428.56 33303.52,22428.56 33303.52,22474.29 33303.52,22520.02 33334.02,22520.02 "/>
  <line class="fil1 str3" x1="33303.52" y1="22840.15" x2="33273.02" y2= "22840.15" />
  <path class="fil1 str3" d="M33311.15 22794.42c-21.06,0 -38.13,17.03 -38.13,38.1 0,21.03 17.07,38.1 38.13,38.1"/>
  <polyline class="fil1 str3" points="33334.02,22794.42 33303.52,22794.42 33303.52,22840.15 33303.52,22885.89 33334.02,22885.89 "/>
  <line class="fil1 str3" x1="33303.52" y1="22291.36" x2="33273.02" y2= "22291.36" />
  <path class="fil1 str3" d="M33311.15 22245.62c-21.06,0 -38.13,17.04 -38.13,38.1 0,21.03 17.07,38.1 38.13,38.1"/>
  <polyline class="fil1 str3" points="33334.02,22245.62 33303.52,22245.62 33303.52,22291.36 33303.52,22337.09 33334.02,22337.09 "/>
  <line class="fil1 str3" x1="33303.52" y1="22657.22" x2="33273.02" y2= "22657.22" />
  <path class="fil1 str3" d="M33311.15 22611.49c-21.06,0 -38.13,17.03 -38.13,38.1 0,21.03 17.07,38.1 38.13,38.1"/>
  <polyline class="fil1 str3" points="33334.02,22611.49 33303.52,22611.49 33303.52,22657.22 33303.52,22702.96 33334.02,22702.96 "/>
  <polygon class="fil2 str5" points="29607.3,9424.82 29933.55,9424.82 29933.55,13013.61 29607.3,13013.61 "/>
  <polygon class="fil1 str6" points="15659.96,8785.9 15510.45,8785.9 15510.45,9112.15 15659.96,9112.15 "/>
  <polygon class="fil1 str7" points="18827.35,8785.9 18664.22,8785.9 18664.22,9112.15 18827.35,9112.15 "/>
  <polygon class="fil2 str5" points="22524.9,27287.2 26249.62,27287.2 26249.62,26906.58 22524.9,26906.58 "/>
  <g>
   <path class="fil0" d="M26086.49 25949.3c-26.27,0 -47.57,-19.8 -47.57,-44.21 0,-24.41 21.3,-44.21 47.57,-44.21l0 88.42zm2528.46 0l-2528.46 0 0 -88.42 2528.46 0 47.57 44.21 -47.57 44.21zm0 -88.42c26.27,0 47.57,19.8 47.57,44.21 0,24.41 -21.3,44.21 -47.57,44.21l0 -88.42zm-47.57 1446.32l0 -1402.11 95.14 0 0 1402.11 -95.14 0zm95.14 0c0,24.41 -21.3,44.21 -47.57,44.21 -26.27,0 -47.57,-19.8 -47.57,-44.21l95.14 0z"/>
  </g>
  <polygon class="fil1 str0" points="28397.46,26906.58 26303.98,26906.58 26303.98,26675.47 28397.46,26675.47 "/>
  <polygon class="fil1 str0" points="26303.98,26906.58 26086.49,26906.58 26086.49,26675.47 26303.98,26675.47 "/>
  <line class="fil1 str8" x1="26249.11" y1="27297.36" x2="28614.44" y2= "27297.36" />
  <polygon class="fil1 str0" points="28397.46,26906.58 28614.95,26906.58 28614.95,26675.47 28397.46,26675.47 "/>
  <polygon class="fil2" points="17007.43,27334.58 12174.25,27334.58 12174.25,26820.23 17007.43,26820.23 "/>
  <polygon class="fil2" points="3753.58,25903.18 6554.49,25903.18 6554.49,27310.05 3753.58,27310.05 "/>
  <line class="fil1 str9" x1="6429.16" y1="25957.81" x2="12192.96" y2= "25957.81" />
  <polygon class="fil1 str0" points="11962.44,26906.58 6796.75,26906.58 6796.75,26675.47 11962.44,26675.47 "/>
  <polygon class="fil1 str0" points="6796.75,26906.58 6579.26,26906.58 6579.26,26675.47 6796.75,26675.47 "/>
  <polygon class="fil1 str0" points="11962.44,26906.58 12193.52,26906.58 12193.52,26675.47 11962.44,26675.47 "/>
  <g>
   <path class="fil0" d="M6455.18 27334.77c-27.84,0 -50.42,-21.3 -50.42,-47.57 0,-26.27 22.58,-47.57 50.42,-47.57l0 95.14zm5777.46 0l-5777.46 0 0 -95.14 5777.46 0 0 95.14zm0 -95.14c27.84,0 50.42,21.3 50.42,47.57 0,26.27 -22.58,47.57 -50.42,47.57l0 -95.14z"/>
  </g>
  <polygon class="fil2" points="12196.41,26906.58 16939.75,26906.58 16939.75,25875.34 12196.41,25875.34 "/>
  <g>
   <polygon class="fil2" points="3806.09,9424.82 15483.97,9424.82 15483.97,8785.9 3806.09,8785.9 "/>
   <path id="_1_0" class="fil0" d="M15483.97 9485.99l-11677.88 0 0 -122.34 11677.88 0 79.5 61.17 -79.5 61.17zm0 -122.34c43.9,0 79.5,27.39 79.5,61.17 0,33.78 -35.6,61.17 -79.5,61.17l0 -122.34zm79.5 -577.75l0 638.92 -159 0 0 -638.92 79.5 -61.17 79.5 61.17zm-159 0c0,-33.78 35.6,-61.17 79.5,-61.17 43.9,0 79.5,27.39 79.5,61.17l-159 0zm-11598.38 -61.17l11677.88 0 0 122.34 -11677.88 0 -79.5 -61.17 79.5 -61.17zm0 122.34c-43.9,0 -79.5,-27.39 -79.5,-61.17 0,-33.78 35.6,-61.17 79.5,-61.17l0 122.34zm-79.5 577.75l0 -638.92 159 0 0 638.92 -79.5 61.17 -79.5 -61.17zm159 0c0,33.78 -35.6,61.17 -79.5,61.17 -43.9,0 -79.5,-27.39 -79.5,-61.17l159 0z"/>
  </g>
  <polygon class="fil1 str6" points="25637.89,12469.86 25801.02,12469.86 25801.02,12796.12 25637.89,12796.12 "/>
  <polygon class="fil1 str6" points="23204.57,12469.86 23354.12,12469.86 23354.12,12796.12 23204.57,12796.12 "/>
  <polygon class="fil2 str5" points="29607.3,12469.86 25801.02,12469.86 25801.02,12796.12 29607.3,12796.12 "/>
  <polygon class="fil1 str6" points="29933.55,15460.51 29933.55,15610.05 29607.3,15610.05 29607.3,15460.51 "/>
  <polygon class="fil1 str6" points="29933.55,13013.61 29933.55,13176.73 29607.3,13176.73 29607.3,13013.61 "/>
  <polygon class="fil2 str5" points="35547.84,16167.38 29933.55,16167.38 29933.55,15841.13 35547.84,15841.13 "/>
  <polygon class="fil1 str6" points="21600.5,17608.36 21437.38,17608.36 21437.38,17921.03 21600.5,17921.03 "/>
  <polygon class="fil1 str6" points="24360.08,17608.36 24196.95,17608.36 24196.95,17921.03 24360.08,17921.03 "/>
  <g>
   <polygon class="fil2" points="14708.4,19525.09 15021.07,19525.09 15021.07,25971.62 14708.4,25971.62 "/>
   <path id="_1_1" class="fil0" d="M15021.07 19588.15l-312.67 0 0 -126.12 312.67 0 61.17 63.06 -61.17 63.06zm0 -126.12c33.78,0 61.17,28.24 61.17,63.06 0,34.82 -27.39,63.06 -61.17,63.06l0 -126.12zm-61.17 6509.59l0 -6446.53 122.34 0 0 6446.53 -61.17 63.06 -61.17 -63.06zm122.34 0c0,34.82 -27.39,63.06 -61.17,63.06 -33.78,0 -61.17,-28.24 -61.17,-63.06l122.34 0zm-373.84 -63.06l312.67 0 0 126.12 -312.67 0 -61.17 -63.06 61.17 -63.06zm0 126.12c-33.78,0 -61.17,-28.24 -61.17,-63.06 0,-34.82 27.39,-63.06 61.17,-63.06l0 126.12zm61.17 -6509.59l0 6446.53 -122.34 0 0 -6446.53 61.17 -63.06 61.17 63.06zm-122.34 0c0,-34.82 27.39,-63.06 61.17,-63.06 33.78,0 61.17,28.24 61.17,63.06l-122.34 0z"/>
  </g>
  <polygon class="fil2 str5" points="14708.4,16194.58 15021.07,16194.58 15021.07,17921.03 14708.4,17921.03 "/>
  <polygon class="fil1 str6" points="15021.07,12157.19 15021.07,11994.07 14708.4,11994.07 14708.4,12157.19 "/>
  <polygon class="fil1 str6" points="15021.07,16194.58 15021.07,16031.45 14708.4,16031.45 14708.4,16194.58 "/>
  <polygon class="fil2 str5" points="14708.4,9424.82 15021.07,9424.82 15021.07,11994.07 14708.4,11994.07 "/>
  <polygon class="fil2 str5" points="29933.55,17921.03 29607.3,17921.03 29607.3,15610.05 29933.55,15610.05 "/>
  <polygon class="fil2 str5" points="29607.3,17921.03 24360.08,17921.03 24360.08,17608.36 29607.3,17608.36 "/>
  <polygon class="fil2 str5" points="21437.38,17921.03 15021.07,17921.03 15021.07,17608.36 21437.38,17608.36 "/>
  <text x="24219.04" y="10934.52"  class="fil3 fnt0">1.60</text>
  <g>
   <polygon class="fil2" points="3806.1,9424.83 3806.1,26417.21 4445,26417.21 4445,9424.83 "/>
   <path id="_1_2" class="fil0" d="M3744.93 26417.21l0 -16992.38 122.34 0 0 16992.38 -61.17 122.34 -61.17 -122.34zm122.34 0c0,67.56 -27.39,122.34 -61.17,122.34 -33.78,0 -61.17,-54.78 -61.17,-122.34l122.34 0zm577.73 122.34l-638.9 0 0 -244.68 638.9 0 61.17 122.34 -61.17 122.34zm0 -244.68c33.78,0 61.17,54.78 61.17,122.34 0,67.56 -27.39,122.34 -61.17,122.34l0 -244.68zm61.17 -16870.04l0 16992.38 -122.34 0 0 -16992.38 61.17 -122.34 61.17 122.34zm-122.34 0c0,-67.56 27.39,-122.34 61.17,-122.34 33.78,0 61.17,54.78 61.17,122.34l-122.34 0zm-577.73 -122.34l638.9 0 0 244.68 -638.9 0 -61.17 -122.34 61.17 -122.34zm0 244.68c-33.78,0 -61.17,-54.78 -61.17,-122.34 0,-67.56 27.39,-122.34 61.17,-122.34l0 244.68z"/>
  </g>
  <polygon class="fil2" points="35520.76,8728.4 35520.76,26511.04 36159.69,26511.04 36159.69,8728.4 "/>
  <text x="28438.24" y="24826.71"  class="fil3 fnt0">16.00</text>
  <text x="11187.58" y="24826.71"  class="fil3 fnt0">16.00</text>
  <text x="16652.33" y="16140.21"  class="fil3 fnt0">9.20</text>
  <text x="31994.71" y="15177.07"  class="fil3 fnt0">3.40</text>
  <text x="27676.98" y="30073.95"  class="fil3 fnt0">3.60 (1.80)</text>
  <polygon class="fil2 str10" points="15021.07,19525.09 14382.15,19525.09 14382.15,17921.03 15021.07,17921.03 "/>
  <line class="fil1 str11" x1="14382.15" y1="18179.3" x2="14463.71" y2= "18084.15" />
  <path class="fil2" d="M14572.5 17988.94l6.81 0c0,-3.76 -3.05,-6.81 -6.81,-6.81 -3.75,0 -6.81,3.05 -6.81,6.81 0,3.76 3.06,6.81 6.81,6.81 3.76,0 6.81,-3.05 6.81,-6.81l-6.81 0z"/>
  <path class="fil2" d="M14409.38 18573.5l6.8 0c0,-3.76 -3.05,-6.81 -6.8,-6.81 -3.76,0 -6.81,3.05 -6.81,6.81 0,3.76 3.05,6.81 6.81,6.81 3.75,0 6.8,-3.05 6.8,-6.81l-6.8 0z"/>
  <line class="fil1 str11" x1="14518.07" y1="18464.77" x2="15021.07" y2= "17961.81" />
  <line class="fil1 str11" x1="14382.15" y1="19035.71" x2="14898.72" y2= "18519.14" />
  <path class="fil2" d="M15007.49 18410.37l6.8 0c0,-3.75 -3.05,-6.8 -6.8,-6.8 -3.76,0 -6.81,3.05 -6.81,6.8 0,3.76 3.05,6.81 6.81,6.81 3.75,0 6.8,-3.05 6.8,-6.81l-6.8 0z"/>
  <line class="fil1 str11" x1="14382.15" y1="19470.73" x2="14735.6" y2= "19117.28" />
  <path class="fil2" d="M14844.36 19008.48l6.81 0c0,-3.75 -3.05,-6.8 -6.81,-6.8 -3.76,0 -6.81,3.05 -6.81,6.8 0,3.76 3.05,6.81 6.81,6.81 3.76,0 6.81,-3.05 6.81,-6.81l-6.81 0z"/>
  <line class="fil1 str11" x1="14953.09" y1="18899.79" x2="15021.07" y2= "18831.81" />
  <line class="fil1 str11" x1="14789.96" y1="19497.9" x2="15021.07" y2= "19253.21" />
  <polygon class="fil2 str10" points="25610.69,19525.09 24958.19,19525.09 24958.19,17921.03 25610.69,17921.03 "/>
  <line class="fil1 str11" x1="24958.19" y1="18179.3" x2="25039.75" y2= "18084.15" />
  <path class="fil2" d="M25148.54 17988.94l6.81 0c0,-3.76 -3.05,-6.81 -6.81,-6.81 -3.75,0 -6.8,3.05 -6.8,6.81 0,3.76 3.05,6.81 6.8,6.81 3.76,0 6.81,-3.05 6.81,-6.81l-6.81 0z"/>
  <path class="fil2" d="M24985.42 18573.5l6.8 0c0,-3.76 -3.05,-6.81 -6.8,-6.81 -3.76,0 -6.81,3.05 -6.81,6.81 0,3.76 3.05,6.81 6.81,6.81 3.75,0 6.8,-3.05 6.8,-6.81l-6.8 0z"/>
  <line class="fil1 str11" x1="25094.15" y1="18464.77" x2="25610.69" y2= "17961.81" />
  <line class="fil1 str11" x1="24958.19" y1="19035.71" x2="25474.76" y2= "18519.14" />
  <path class="fil2" d="M25583.56 18410.37l6.81 0c0,-3.75 -3.05,-6.8 -6.81,-6.8 -3.76,0 -6.81,3.05 -6.81,6.8 0,3.76 3.05,6.81 6.81,6.81 3.76,0 6.81,-3.05 6.81,-6.81l-6.81 0z"/>
  <line class="fil1 str11" x1="24958.19" y1="19470.73" x2="25311.64" y2= "19117.28" />
  <path class="fil2" d="M25420.43 19008.48l6.81 0c0,-3.75 -3.05,-6.8 -6.81,-6.8 -3.76,0 -6.81,3.05 -6.81,6.8 0,3.76 3.05,6.81 6.81,6.81 3.76,0 6.81,-3.05 6.81,-6.81l-6.81 0z"/>
  <line class="fil1 str11" x1="25529.13" y1="18899.79" x2="25610.69" y2= "18831.81" />
  <line class="fil1 str11" x1="25366" y1="19497.9" x2="25610.69" y2= "19253.21" />
  <g>
   <polygon class="fil2" points="35927.34,30903.19 24828.99,30903.19 24828.99,27287.2 24645.55,27287.2 24645.55,31066.31 35927.34,31066.31 "/>
   <path id="_1_3" class="fil0" d="M24828.99 30869.2l11098.35 0 0 67.98 -11098.35 0 -38.22 -33.99 38.22 -33.99zm0 67.98c-21.1,0 -38.22,-15.22 -38.22,-33.99 0,-18.77 17.12,-33.99 38.22,-33.99l0 67.98zm38.22 -3649.98l0 3615.99 -76.44 0 0 -3615.99 38.22 -33.99 38.22 33.99zm-76.44 0c0,-18.77 17.12,-33.99 38.22,-33.99 21.1,0 38.22,15.22 38.22,33.99l-76.44 0zm-145.22 -33.99l183.44 0 0 67.98 -183.44 0 -38.22 -33.99 38.22 -33.99zm0 67.98c-21.1,0 -38.22,-15.22 -38.22,-33.99 0,-18.77 17.12,-33.99 38.22,-33.99l0 67.98zm-38.22 3745.12l0 -3779.11 76.44 0 0 3779.11 -38.22 33.99 -38.22 -33.99zm76.44 0c0,18.77 -17.12,33.99 -38.22,33.99 -21.1,0 -38.22,-15.22 -38.22,-33.99l76.44 0zm11243.57 33.99l-11281.79 0 0 -67.98 11281.79 0 38.22 33.99 -38.22 33.99zm0 -67.98c21.1,0 38.22,15.22 38.22,33.99 0,18.77 -17.12,33.99 -38.22,33.99l0 -67.98zm38.22 -129.13l0 163.12 -76.44 0 0 -163.12 38.22 -33.99 38.22 33.99zm-76.44 0c0,-18.77 17.12,-33.99 38.22,-33.99 21.1,0 38.22,15.22 38.22,33.99l-76.44 0z"/>
  </g>
  <polygon class="fil2 str12" points="22803.9,9424.82 23130.15,9424.82 23130.15,13013.61 22803.9,13013.61 "/>
  <g id="_2070367928016">
   <rect class="fil4 str13" transform="matrix(-0.000156247 0.841541 -0.841541 -0.000156247 35531.9 9464.2)" width="2611.41" height="5846.68"/>
   <path class="fil4 str13" d="M31513.14 9714.46c1080.68,-46.09 2148.65,-15.9 3222.97,-23.83 375.99,-5.35 567.92,8.55 561.75,406.54 -0.06,329.39 -0.12,658.74 -0.18,988.12 3.41,279.69 -80.25,384.88 -548.38,363.43 -1078.81,-8.34 -2157.66,8.77 -3236.47,-25 -856.79,-103.12 -943.56,-1555.72 0.31,-1709.26z"/>
   <circle class="fil4 str13" transform="matrix(-0.000156247 0.841541 -0.841541 -0.000156247 34967.1 10581)" r="121.03"/>
  </g>
  <g id="_2033864644768">
   <path class="fil4 str14" d="M35592.21 12262.82c-652.15,6.16 -1260.41,-192.94 -1344.5,605.43 -21.44,259.99 -12.27,508.13 23.56,763.4 145.1,653.8 707.09,448.52 1330.53,459.46"/>
   <path class="fil4 str13" d="M35111.87 12363.82c86.05,-1.81 169.17,62.27 208.49,133.48 0,474.32 0,926.02 0,1400.34 -14.77,66.98 -61.17,82.02 -161.82,104.71 -916.04,34.29 -721.69,-592.56 -737.65,-1161.23 40.66,-411.69 336.04,-459.26 690.98,-477.3z"/>
   <circle class="fil4 str13" transform="matrix(2.62402E-14 0.990774 -0.990774 2.62402E-14 35185.7 13194.9)" r="94.44"/>
   <path class="fil4 str13" d="M35153.85 12580.43c68.72,-1.28 135.11,44.47 166.51,95.32 0,338.66 0,661.17 0,999.84 -11.79,47.82 -48.85,58.56 -129.24,74.76 -722.33,59.9 -585.99,-360.59 -589.15,-829.12 5.71,-306.84 280.75,-340.8 551.88,-340.8z"/>
  </g>
  <g id="_2034629397024">
   <line class="fil4 str15" x1="28501.39" y1="11188.36" x2="28741.11" y2= "11161.75" />
   <line class="fil4 str13" x1="28510.98" y1="10364.4" x2="28750.63" y2= "10391.07" />
   <path class="fil4 str13" d="M29594.78 11573.91c-189.93,0 -379.89,0.04 -569.83,0.04 -141.66,0.4 -244.12,-73 -286.26,-253.03 2.23,-320.32 4.46,-640.68 6.7,-961.02 -13.09,-250.66 95.48,-354.89 279.56,-370.39l578.86 0"/>
   <path class="fil4 str13" d="M28022.42 10180.13c189.2,-30.97 353.29,11.74 479.31,166.44 23.85,62.54 42.53,123.93 56.24,184.18 53.29,234.4 31.13,451.84 -56.27,654.62 -112.03,136.34 -258.21,199.97 -442.39,182.8 -275.01,-26.8 -541.97,-125.93 -795.81,-342.6 -153.98,-151.41 -166.6,-322.72 0,-519.22 221.04,-177.9 475.38,-283.67 758.92,-326.22z"/>
  </g>
  <rect class="fil5" x="35902.39" y="27277.49" width="249.25" height="3821.6"/>
  <g id="_2034629420160">
   <path class="fil4 str16" d="M35478.01 19123.01l0 1874.91c0.01,69.84 -56.63,126.48 -126.47,126.48l-1899.51 0c-69.83,0 -126.47,-56.64 -126.47,-126.48l-0.01 -1874.91c0.01,-69.83 56.65,-126.47 126.49,-126.47l1899.49 -0.01c69.85,0.01 126.49,56.65 126.49,126.49z"/>
   <rect class="fil4 str16" transform="matrix(1.94864E-14 0.735763 -0.735763 1.94864E-14 35109 19193.3)" width="2373.81" height="2106.33"/>
   <circle class="fil4 str17" transform="matrix(1.94864E-14 0.735763 -0.735763 1.94864E-14 34789.2 20472.5)" r="183.89"/>
  </g>
  <g id="_2034629419776">
   <rect class="fil4 str18" transform="matrix(-7.95495E-14 -1.00121 1.00121 -7.95495E-14 30301.3 33552.8)" width="2496.64" height="5813.27"/>
   <line class="fil4 str18" x1="30293.72" y1="33556.83" x2="36114" y2= "31057.18" />
   <line class="fil4 str18" x1="30301.34" y1="31053.14" x2="36076.3" y2= "33491.44" />
  </g>
  <polygon class="fil1 str19" points="28797.87,25891.63 28634.75,25891.63 28634.75,26204.3 28797.87,26204.3 "/>
  <polygon class="fil1 str20" points="30895.81,25891.63 30732.69,25891.63 30732.69,26204.3 30895.81,26204.3 "/>
  <path class="fil4 str21" d="M15659.96 9112.15c40.39,-1641.99 1353.5,-2917.69 2980.41,-3387.27 0,1035.82 22.19,2310.92 22.19,3346.74"/>
  <polygon class="fil1 str22" points="15659.96,8785.9 15510.45,8785.9 15510.45,9112.15 15659.96,9112.15 "/>
  <polygon class="fil1 str23" points="18827.35,8785.9 18664.22,8785.9 18664.22,9112.15 18827.35,9112.15 "/>
  <path class="fil4 str21" d="M29851.55 15460.5c-1310.45,-32.24 -2328.55,-960.68 -2703.32,-2259.09 826.67,0 1844.3,-17.71 2670.97,-17.71"/>
  <path class="fil4 str21" d="M25637.89 12499.85c-31.41,1276.55 -985.41,2254.66 -2250.24,2619.73 0,-805.28 -17.25,-1796.59 -17.25,-2601.88"/>
  <path class="fil4 str21" d="M21605.93 17706.16c34.55,1404.18 1180.76,2503.45 2572.04,2905.02 0,-885.8 18.98,-1976.21 18.98,-2862.01"/>
  <path class="fil4 str21" d="M28826.72 26065.17c24.42,992.56 909.05,1740.54 1892.49,2024.39 0,-626.13 13.41,-1396.9 13.41,-2023.04"/>
  <path class="fil4 str21" d="M14944.93 14116.35c-275.3,-6.08 -534.34,-37.88 -775.81,-94.64m-210.42 -57.14c-136.48,-42.27 -266.69,-93.19 -390.33,-152.59m-187.69 -99.64c-152.27,-88.95 -293.16,-192.19 -421.99,-309.42m-149.75 -148.4c-109,-117.58 -207.75,-246.71 -295.67,-387.22m-113.4 -198.94c-77.93,-150.64 -144.91,-312.48 -200.44,-485.25 870.04,0 1941.06,-16.74 2811.11,-16.74"/>
  <path class="fil4 str21" d="M14951.9 14131.31c-295.2,6.54 -573.44,41.33 -832.28,104.04m-196.58 54.22c-148.41,46.06 -289.63,102.11 -423.19,168.03m-191.68 104.57c-134,80.57 -258.97,172.37 -374.27,275.33m-165.62 162.8c-102.73,111.13 -195.99,232.83 -279.17,365.05m-103.22 179.36c-76.77,146.17 -142.5,303.57 -196.51,472.15 862.49,0 1924.21,16.65 2786.71,16.65"/>
 </g>
</svg>
