<?xml version="1.0" encoding="UTF-8"?>
<!DOCTYPE svg PUBLIC "-//W3C//DTD SVG 1.1//EN" "http://www.w3.org/Graphics/SVG/1.1/DTD/svg11.dtd">
<!-- Creator: CorelDRAW -->
<svg xmlns="http://www.w3.org/2000/svg" xml:space="preserve" width="400mm" height="400mm" version="1.1" style="shape-rendering:geometricPrecision; text-rendering:geometricPrecision; image-rendering:optimizeQuality; fill-rule:evenodd; clip-rule:evenodd"
viewBox="0 0 40000 40000"
 xmlns:xlink="http://www.w3.org/1999/xlink"
 xmlns:xodm="http://www.corel.com/coreldraw/odm/2003">
 <defs>
  <style type="text/css">
   <![CDATA[
    .str24 {stroke:#1F1B20;stroke-width:16.9;stroke-miterlimit:22.9256}
    .str21 {stroke:#1F1B20;stroke-width:40;stroke-miterlimit:22.9256}
    .str23 {stroke:#3A3A3A;stroke-width:40;stroke-miterlimit:22.9256}
    .str14 {stroke:black;stroke-width:20;stroke-miterlimit:22.9256}
    .str20 {stroke:#2B2A29;stroke-width:25.4;stroke-miterlimit:22.9256}
    .str22 {stroke:black;stroke-width:40;stroke-linecap:round;stroke-linejoin:round;stroke-miterlimit:22.9256}
    .str9 {stroke:black;stroke-width:15.81;stroke-linecap:round;stroke-linejoin:round;stroke-miterlimit:10}
    .str17 {stroke:black;stroke-width:39.24;stroke-linecap:round;stroke-linejoin:round;stroke-miterlimit:10}
    .str16 {stroke:black;stroke-width:39.24;stroke-linecap:round;stroke-linejoin:round;stroke-miterlimit:10}
    .str18 {stroke:black;stroke-width:39.24;stroke-linecap:round;stroke-linejoin:round;stroke-miterlimit:10}
    .str15 {stroke:black;stroke-width:39.24;stroke-linecap:round;stroke-linejoin:round;stroke-miterlimit:10}
    .str3 {stroke:black;stroke-width:39.24;stroke-linecap:round;stroke-linejoin:round;stroke-miterlimit:10}
    .str8 {stroke:black;stroke-width:39.24;stroke-linecap:round;stroke-linejoin:round;stroke-miterlimit:10}
    .str19 {stroke:black;stroke-width:39.24;stroke-linecap:round;stroke-linejoin:round;stroke-miterlimit:10}
    .str4 {stroke:black;stroke-width:88.3;stroke-linecap:round;stroke-linejoin:round;stroke-miterlimit:10}
    .str2 {stroke:black;stroke-width:88.3;stroke-linecap:round;stroke-linejoin:round;stroke-miterlimit:10}
    .str6 {stroke:black;stroke-width:137.36;stroke-linecap:round;stroke-linejoin:round;stroke-miterlimit:10}
    .str11 {stroke:black;stroke-width:137.36;stroke-linecap:round;stroke-linejoin:round;stroke-miterlimit:10}
    .str0 {stroke:black;stroke-width:137.36;stroke-linecap:round;stroke-linejoin:round;stroke-miterlimit:10}
    .str13 {stroke:black;stroke-width:137.36;stroke-linecap:round;stroke-linejoin:round;stroke-miterlimit:10}
    .str10 {stroke:black;stroke-width:63.29;stroke-linecap:round;stroke-linejoin:round;stroke-miterlimit:10}
    .str12 {stroke:black;stroke-width:68.67;stroke-linecap:round;stroke-linejoin:round;stroke-miterlimit:10}
    .str1 {stroke:black;stroke-width:68.67;stroke-linecap:round;stroke-linejoin:round;stroke-miterlimit:10}
    .str5 {stroke:black;stroke-width:9.8;stroke-linecap:round;stroke-linejoin:round;stroke-miterlimit:10}
    .str7 {stroke:black;stroke-width:9.8;stroke-linecap:round;stroke-linejoin:round;stroke-miterlimit:10}
    .fil5 {fill:none}
    .fil2 {fill:none;fill-rule:nonzero}
    .fil3 {fill:black}
    .fil4 {fill:black}
    .fil0 {fill:black;fill-rule:nonzero}
    .fil1 {fill:black;fill-rule:nonzero}
    .fnt0 {font-weight:normal;font-size:808.03px;font-family:'Arial'}
   ]]>
  </style>
 </defs>
 <g id="Слой_x0020_1">
  <metadata id="CorelCorpID_0Corel-Layer"/>
  <path class="fil0" d="M3213.79 19508.39l31.41 0c0,-17.31 -14.1,-31.41 -31.41,-31.41 -17.31,0 -31.41,14.1 -31.41,31.41 0,17.31 14.1,31.41 31.41,31.41 17.31,0 31.41,-14.1 31.41,-31.41l-31.41 0z"/>
  <path class="fil0" d="M3213.79 32114.79l31.41 0c0,-17.31 -14.1,-31.41 -31.41,-31.41 -17.31,0 -31.41,14.1 -31.41,31.41 0,17.31 14.1,31.41 31.41,31.41 17.31,0 31.41,-14.1 31.41,-31.41l-31.41 0z"/>
  <g id="_2071714210048">
   <polygon class="fil1 str0" points="8841.76,10107.67 10431.14,10107.67 10431.14,10568.8 8841.76,10568.8 "/>
   <polygon class="fil1 str0" points="17171.32,7331.16 17956.18,7331.16 17956.18,7792.26 17171.32,7792.26 "/>
  </g>
  <g id="_2071714207840">
   <line class="fil2 str1" x1="10431.14" y1="10568.8" x2="14600.81" y2= "10568.8" />
   <polygon class="fil2 str1" points="14375.18,9764.28 10656.78,9764.28 10656.78,9921.27 14375.18,9921.27 "/>
   <polygon class="fil2 str1" points="10656.78,9764.28 10490.01,9764.28 10490.01,9921.27 10656.78,9921.27 "/>
   <polygon class="fil2 str1" points="14375.18,9764.28 14541.95,9764.28 14541.95,9921.27 14375.18,9921.27 "/>
   <line class="fil2 str1" x1="10548.88" y1="9479.77" x2="14483.08" y2= "9479.77" />
   <line class="fil2 str1" x1="17956.18" y1="7792.26" x2="22116.08" y2= "7792.26" />
   <polygon class="fil2 str1" points="21900.22,6987.77 18172.04,6987.77 18172.04,7144.73 21900.22,7144.73 "/>
   <polygon class="fil2 str1" points="18172.04,6987.77 18015.05,6987.77 18015.05,7144.73 18172.04,7144.73 "/>
   <polygon class="fil2 str1" points="21900.22,6987.77 22057.21,6987.77 22057.21,7144.73 21900.22,7144.73 "/>
   <line class="fil2 str1" x1="18073.92" y1="6703.24" x2="21998.34" y2= "6703.24" />
  </g>
  <g id="_2071714208704">
   <polygon class="fil1 str0" points="22116.08,7331.16 23303.2,7331.16 23303.2,7792.26 22116.08,7792.26 "/>
   <polygon class="fil1 str0" points="8841.76,25609.1 8841.76,31044.42 8370.83,31044.42 8370.83,25609.1 "/>
  </g>
  <g id="_2071714208656">
   <polygon class="fil1 str2" points="9528.52,19339.85 13786.51,19339.85 13786.51,20723.21 13560.85,20723.21 13560.85,19575.32 8841.76,19575.32 8841.76,19339.85 "/>
   <polygon class="fil1 str2" points="9528.52,24686.85 13786.51,24686.85 13786.51,22606.93 13560.85,22606.93 13560.85,24451.38 8841.76,24451.38 8841.76,24686.85 "/>
  </g>
  <polygon class="fil2 str3" points="13786.51,22606.93 13786.51,22489.19 13560.85,22489.19 13560.85,22606.93 "/>
  <polygon class="fil1 str2" points="13786.51,19339.85 13786.51,19575.32 14021.98,19575.32 14021.98,19339.85 "/>
  <text x="11327.73" y="20713.46"  class="fil3 fnt0">4.00</text>
  <polygon class="fil2 str3" points="14139.71,19339.85 14021.98,19339.85 14021.98,19575.32 14139.71,19575.32 "/>
  <polygon class="fil2 str3" points="16121.53,19339.85 16013.6,19339.85 16013.6,19575.32 16121.53,19575.32 "/>
  <g>
   <polygon class="fil1" points="23625.68,24912.51 27139.7,24912.51 27139.7,24451.38 23625.68,24451.38 "/>
   <path id="_1" class="fil0" d="M27139.7 24956.66l-3514.02 0 0 -88.3 3514.02 0 23.92 44.15 -23.92 44.15zm0 -88.3c13.21,0 23.92,19.77 23.92,44.15 0,24.38 -10.71,44.15 -23.92,44.15l0 -88.3zm23.92 -416.98l0 461.13 -47.84 0 0 -461.13 23.92 -44.15 23.92 44.15zm-47.84 0c0,-24.38 10.71,-44.15 23.92,-44.15 13.21,0 23.92,19.77 23.92,44.15l-47.84 0zm-3490.1 -44.15l3514.02 0 0 88.3 -3514.02 0 -23.92 -44.15 23.92 -44.15zm0 88.3c-13.21,0 -23.92,-19.77 -23.92,-44.15 0,-24.38 10.71,-44.15 23.92,-44.15l0 88.3zm-23.92 416.98l0 -461.13 47.84 0 0 461.13 -23.92 44.15 -23.92 -44.15zm47.84 0c0,24.38 -10.71,44.15 -23.92,44.15 -13.21,0 -23.92,-19.77 -23.92,-44.15l47.84 0z"/>
  </g>
  <g>
   <polygon class="fil1" points="23646.6,24932.51 23646.6,32222.11 24107.7,32222.11 24107.7,24932.51 "/>
   <path id="_1_0" class="fil0" d="M23602.45 32222.11l0 -7289.6 88.3 0 0 7289.6 -44.15 52.48 -44.15 -52.48zm88.3 0c0,28.98 -19.77,52.48 -44.15,52.48 -24.38,0 -44.15,-23.5 -44.15,-52.48l88.3 0zm416.95 52.48l-461.1 0 0 -104.96 461.1 0 44.15 52.48 -44.15 52.48zm0 -104.96c24.38,0 44.15,23.5 44.15,52.48 0,28.98 -19.77,52.48 -44.15,52.48l0 -104.96zm44.15 -7237.12l0 7289.6 -88.3 0 0 -7289.6 44.15 -52.48 44.15 52.48zm-88.3 0c0,-28.98 19.77,-52.48 44.15,-52.48 24.38,0 44.15,23.5 44.15,52.48l-88.3 0zm-416.95 -52.48l461.1 0 0 104.96 -461.1 0 -44.15 -52.48 44.15 -52.48zm0 104.96c-24.38,0 -44.15,-23.5 -44.15,-52.48 0,-28.98 19.77,-52.48 44.15,-52.48l0 104.96z"/>
  </g>
  <polygon class="fil1 str2" points="31740.69,15425.26 31740.69,20517.18 31279.57,20517.18 31279.57,15425.26 "/>
  <g>
   <polygon class="fil1" points="31740.69,7611.36 31740.69,15789.73 31279.57,15789.73 31279.57,7611.36 "/>
   <path id="_1_1" class="fil0" d="M31696.54 15789.73l0 -8178.37 88.3 0 0 8178.37 -44.15 55.68 -44.15 -55.68zm88.3 0c0,30.75 -19.77,55.68 -44.15,55.68 -24.38,0 -44.15,-24.93 -44.15,-55.68l88.3 0zm-505.27 -55.68l461.12 0 0 111.36 -461.12 0 -44.15 -55.68 44.15 -55.68zm0 111.36c-24.38,0 -44.15,-24.93 -44.15,-55.68 0,-30.75 19.77,-55.68 44.15,-55.68l0 111.36zm44.15 -8234.05l0 8178.37 -88.3 0 0 -8178.37 44.15 -55.68 44.15 55.68zm-88.3 0c0,-30.75 19.77,-55.68 44.15,-55.68 24.38,0 44.15,24.93 44.15,55.68l-88.3 0zm505.27 55.68l-461.12 0 0 -111.36 461.12 0 44.15 55.68 -44.15 55.68zm0 -111.36c24.38,0 44.15,24.93 44.15,55.68 0,30.75 -19.77,55.68 -44.15,55.68l0 -111.36z"/>
  </g>
  <polygon class="fil1 str0" points="14600.81,10107.67 16013.6,10107.67 16013.6,10568.8 14600.81,10568.8 "/>
  <polygon class="fil1 str2" points="14600.81,10107.67 16013.6,10107.67 16013.6,7331.16 17956.18,7331.16 17956.18,6987.77 15660.4,6987.77 15660.4,9764.28 14600.81,9764.28 "/>
  <polygon class="fil1 str4" points="14483.08,9764.28 15660.4,9764.28 15660.4,6987.77 18073.92,6987.77 18073.92,6703.24 15385.7,6703.24 15385.7,9479.77 14483.08,9479.77 "/>
  <text x="11667.33" y="18211.58"  class="fil3 fnt0">11.80</text>
  <g id="_2071714203328">
   <polygon class="fil1 str0" points="24451.09,7331.16 24451.09,7792.26 23303.2,7792.26 23303.2,7331.16 "/>
   <path class="fil1" d="M23362.09 7331.16l4.91 0c0,-2.71 -2.2,-4.91 -4.91,-4.91 -2.71,0 -4.91,2.2 -4.91,4.91 0,2.71 2.2,4.91 4.91,4.91 2.71,0 4.91,-2.2 4.91,-4.91l-4.91 0z"/>
   <line class="fil2 str5" x1="23303.2" y1="7703.96" x2="23626.97" y2= "7370.4" />
   <path class="fil1" d="M23587.75 7723.59l4.92 0c0,-2.71 -2.21,-4.91 -4.92,-4.91 -2.71,0 -4.91,2.2 -4.91,4.91 0,2.71 2.2,4.92 4.91,4.92 2.71,0 4.92,-2.21 4.92,-4.92l-4.92 0z"/>
   <line class="fil2 str5" x1="23666.2" y1="7645.1" x2="23989.97" y2= "7331.16" />
   <line class="fil2 str5" x1="23833" y1="7792.26" x2="23940.93" y2= "7684.36" />
   <path class="fil1" d="M24019.42 7605.86l4.92 0c0,-2.71 -2.21,-4.91 -4.92,-4.91 -2.71,0 -4.91,2.2 -4.91,4.91 0,2.71 2.2,4.91 4.91,4.91 2.71,0 4.92,-2.2 4.92,-4.91l-4.92 0z"/>
   <line class="fil2 str5" x1="24097.89" y1="7527.36" x2="24294.12" y2= "7331.16" />
   <line class="fil2 str5" x1="24146.96" y1="7792.26" x2="24372.6" y2= "7566.62" />
   <path class="fil1" d="M24451.11 7488.13l4.92 0c0,-2.71 -2.2,-4.92 -4.92,-4.92 -2.71,0 -4.91,2.21 -4.91,4.92 0,2.71 2.2,4.91 4.91,4.91 2.72,0 4.92,-2.2 4.92,-4.91l-4.92 0z"/>
  </g>
  <g id="_2071714189888">
   <polygon class="fil1 str6" points="8370.83,24451.38 8370.83,15425.26 8841.76,15425.26 8841.76,24451.38 "/>
   <polygon class="fil1 str6" points="8841.76,11265.37 8841.76,14277.37 8370.83,14277.37 8370.83,11265.37 "/>
  </g>
  <g id="_2071714190464">
   <polygon class="fil1 str0" points="8841.76,11265.37 8370.83,11265.37 8370.83,10107.67 8841.76,10107.67 "/>
   <line class="fil2 str5" x1="8370.83" y1="10284.27" x2="8429.69" y2= "10225.4" />
   <path class="fil1" d="M8508.19 10146.91l4.91 0c0,-2.71 -2.2,-4.92 -4.91,-4.92 -2.71,0 -4.91,2.21 -4.91,4.92 0,2.71 2.2,4.91 4.91,4.91 2.71,0 4.91,-2.2 4.91,-4.91l-4.91 0z"/>
   <path class="fil1" d="M8390.46 10578.6l4.91 0c0,-2.71 -2.2,-4.91 -4.91,-4.91 -2.71,0 -4.92,2.2 -4.92,4.91 0,2.71 2.21,4.91 4.92,4.91 2.71,0 4.91,-2.2 4.91,-4.91l-4.91 0z"/>
   <line class="fil2 str5" x1="8468.93" y1="10500.11" x2="8841.76" y2= "10137.1" />
   <line class="fil2 str5" x1="8370.83" y1="10912.17" x2="8743.63" y2= "10539.36" />
   <path class="fil1" d="M8822.15 10460.87l4.91 0c0,-2.71 -2.2,-4.91 -4.91,-4.91 -2.71,0 -4.91,2.2 -4.91,4.91 0,2.71 2.2,4.91 4.91,4.91 2.71,0 4.91,-2.2 4.91,-4.91l-4.91 0z"/>
   <line class="fil2 str5" x1="8370.83" y1="11226.13" x2="8625.9" y2= "10971.03" />
   <path class="fil1" d="M8704.42 10892.56l4.91 0c0,-2.71 -2.2,-4.91 -4.91,-4.91 -2.71,0 -4.91,2.2 -4.91,4.91 0,2.71 2.2,4.91 4.91,4.91 2.71,0 4.91,-2.2 4.91,-4.91l-4.91 0z"/>
   <line class="fil2 str5" x1="8782.89" y1="10814.07" x2="8841.76" y2= "10755.2" />
   <line class="fil2 str5" x1="8665.16" y1="11245.76" x2="8841.76" y2= "11069.16" />
   <polygon class="fil1 str0" points="8841.76,15425.26 8370.83,15425.26 8370.83,14277.37 8841.76,14277.37 "/>
   <line class="fil2 str5" x1="8370.83" y1="14453.96" x2="8429.69" y2= "14395.1" />
   <path class="fil1" d="M8508.19 14316.6l4.91 0c0,-2.71 -2.2,-4.91 -4.91,-4.91 -2.71,0 -4.91,2.2 -4.91,4.91 0,2.71 2.2,4.92 4.91,4.92 2.71,0 4.91,-2.21 4.91,-4.92l-4.91 0z"/>
   <path class="fil1" d="M8390.46 14738.47l4.91 0c0,-2.71 -2.2,-4.91 -4.91,-4.91 -2.71,0 -4.92,2.2 -4.92,4.91 0,2.71 2.21,4.91 4.92,4.91 2.71,0 4.91,-2.2 4.91,-4.91l-4.91 0z"/>
   <line class="fil2 str5" x1="8468.93" y1="14669.8" x2="8841.76" y2= "14296.97" />
   <line class="fil2 str5" x1="8370.83" y1="15072.06" x2="8743.63" y2= "14709.04" />
   <path class="fil1" d="M8822.15 14630.56l4.91 0c0,-2.71 -2.2,-4.91 -4.91,-4.91 -2.71,0 -4.91,2.2 -4.91,4.91 0,2.71 2.2,4.92 4.91,4.92 2.71,0 4.91,-2.21 4.91,-4.92l-4.91 0z"/>
   <line class="fil2 str5" x1="8370.83" y1="15386" x2="8625.9" y2= "15130.92" />
   <path class="fil1" d="M8704.42 15052.43l4.91 0c0,-2.71 -2.2,-4.91 -4.91,-4.91 -2.71,0 -4.91,2.2 -4.91,4.91 0,2.71 2.2,4.91 4.91,4.91 2.71,0 4.91,-2.2 4.91,-4.91l-4.91 0z"/>
   <line class="fil2 str5" x1="8782.89" y1="14973.93" x2="8841.76" y2= "14924.89" />
   <line class="fil2 str5" x1="8665.16" y1="15405.63" x2="8841.76" y2= "15238.83" />
   <polygon class="fil1 str0" points="8841.76,25609.1 8370.83,25609.1 8370.83,24451.38 8841.76,24451.38 "/>
   <line class="fil2 str5" x1="8370.83" y1="24627.98" x2="8429.69" y2= "24569.12" />
   <path class="fil1" d="M8508.19 24490.64l4.91 0c0,-2.71 -2.2,-4.91 -4.91,-4.91 -2.71,0 -4.91,2.2 -4.91,4.91 0,2.72 2.2,4.92 4.91,4.92 2.71,0 4.91,-2.2 4.91,-4.92l-4.91 0z"/>
   <path class="fil1" d="M8390.46 24922.31l4.91 0c0,-2.71 -2.2,-4.91 -4.91,-4.91 -2.71,0 -4.92,2.2 -4.92,4.91 0,2.71 2.21,4.92 4.92,4.92 2.71,0 4.91,-2.21 4.91,-4.92l-4.91 0z"/>
   <line class="fil2 str5" x1="8468.93" y1="24843.84" x2="8841.76" y2= "24480.82" />
   <line class="fil2 str5" x1="8370.83" y1="25255.9" x2="8743.63" y2= "24883.08" />
   <path class="fil1" d="M8822.15 24804.58l4.91 0c0,-2.71 -2.2,-4.91 -4.91,-4.91 -2.71,0 -4.91,2.2 -4.91,4.91 0,2.71 2.2,4.91 4.91,4.91 2.71,0 4.91,-2.2 4.91,-4.91l-4.91 0z"/>
   <line class="fil2 str5" x1="8370.83" y1="25569.84" x2="8625.9" y2= "25314.77" />
   <path class="fil1" d="M8704.42 25236.27l4.91 0c0,-2.71 -2.2,-4.91 -4.91,-4.91 -2.71,0 -4.91,2.2 -4.91,4.91 0,2.72 2.2,4.92 4.91,4.92 2.71,0 4.91,-2.2 4.91,-4.92l-4.91 0z"/>
   <line class="fil2 str5" x1="8782.89" y1="25157.78" x2="8841.76" y2= "25108.74" />
   <line class="fil2 str5" x1="8665.16" y1="25589.47" x2="8841.76" y2= "25412.87" />
   <polygon class="fil1 str0" points="8841.76,32202.11 8370.83,32202.11 8370.83,31044.42 8841.76,31044.42 "/>
   <line class="fil2 str5" x1="8370.83" y1="31230.82" x2="8429.69" y2= "31162.15" />
   <path class="fil1" d="M8508.19 31093.43l4.91 0c0,-2.71 -2.2,-4.91 -4.91,-4.91 -2.71,0 -4.91,2.2 -4.91,4.91 0,2.71 2.2,4.92 4.91,4.92 2.71,0 4.91,-2.21 4.91,-4.92l-4.91 0z"/>
   <path class="fil1" d="M8390.46 31515.32l4.91 0c0,-2.71 -2.2,-4.91 -4.91,-4.91 -2.71,0 -4.92,2.2 -4.92,4.91 0,2.71 2.21,4.92 4.92,4.92 2.71,0 4.91,-2.21 4.91,-4.92l-4.91 0z"/>
   <line class="fil2 str5" x1="8468.93" y1="31436.85" x2="8841.76" y2= "31073.85" />
   <line class="fil2 str5" x1="8370.83" y1="31848.91" x2="8743.63" y2= "31476.09" />
   <path class="fil1" d="M8822.15 31397.59l4.91 0c0,-2.71 -2.2,-4.91 -4.91,-4.91 -2.71,0 -4.91,2.2 -4.91,4.91 0,2.71 2.2,4.91 4.91,4.91 2.71,0 4.91,-2.2 4.91,-4.91l-4.91 0z"/>
   <line class="fil2 str5" x1="8370.83" y1="32162.87" x2="8625.9" y2= "31907.78" />
   <path class="fil1" d="M8704.42 31829.26l4.91 0c0,-2.71 -2.2,-4.91 -4.91,-4.91 -2.71,0 -4.91,2.2 -4.91,4.91 0,2.71 2.2,4.91 4.91,4.91 2.71,0 4.91,-2.2 4.91,-4.91l-4.91 0z"/>
   <line class="fil2 str5" x1="8782.89" y1="31750.81" x2="8841.76" y2= "31701.75" />
   <line class="fil2 str5" x1="8665.16" y1="32182.48" x2="8841.76" y2= "32005.88" />
  </g>
  <line class="fil2 str7" x1="15660.4" y1="24461.21" x2="15670.23" y2= "24451.38" />
  <line class="fil2 str7" x1="23303.2" y1="24461.21" x2="23303.2" y2= "24451.38" />
  <path class="fil1" d="M23548.49 24520.08l4.92 0c0,-2.71 -2.21,-4.92 -4.92,-4.92 -2.71,0 -4.91,2.21 -4.91,4.92 0,2.71 2.2,4.91 4.91,4.91 2.71,0 4.92,-2.2 4.92,-4.91l-4.92 0z"/>
  <path class="fil1" d="M23783.96 24912.51l4.91 0c0,-2.71 -2.2,-4.91 -4.91,-4.91 -2.71,0 -4.92,2.2 -4.92,4.91 0,2.71 2.21,4.91 4.92,4.91 2.71,0 4.91,-2.2 4.91,-4.91l-4.91 0z"/>
  <path class="fil1" d="M23862.45 24834.01l4.92 0c0,-2.71 -2.21,-4.91 -4.92,-4.91 -2.71,0 -4.91,2.2 -4.91,4.91 0,2.72 2.2,4.92 4.91,4.92 2.71,0 4.92,-2.2 4.92,-4.92l-4.92 0z"/>
  <line class="fil2 str7" x1="24088.09" y1="24912.51" x2="24215.63" y2= "24794.78" />
  <path class="fil1" d="M24294.15 24716.28l4.91 0c0,-2.71 -2.2,-4.91 -4.91,-4.91 -2.72,0 -4.92,2.2 -4.92,4.91 0,2.71 2.2,4.91 4.92,4.91 2.71,0 4.91,-2.2 4.91,-4.91l-4.91 0z"/>
  <line class="fil2 str7" x1="24372.6" y1="24637.81" x2="24451.09" y2= "24549.51" />
  <line class="fil2 str7" x1="24402.03" y1="24912.51" x2="24451.09" y2= "24863.45" />
  <path class="fil1" d="M23783.96 31093.43l4.91 0c0,-2.71 -2.2,-4.91 -4.91,-4.91 -2.71,0 -4.92,2.2 -4.92,4.91 0,2.71 2.21,4.92 4.92,4.92 2.71,0 4.91,-2.21 4.91,-4.92l-4.91 0z"/>
  <path class="fil1" d="M31416.95 14316.6l4.91 0c0,-2.71 -2.2,-4.91 -4.91,-4.91 -2.71,0 -4.91,2.2 -4.91,4.91 0,2.71 2.2,4.92 4.91,4.92 2.71,0 4.91,-2.21 4.91,-4.92l-4.91 0z"/>
  <path class="fil1" d="M23783.96 14316.6l4.91 0c0,-2.71 -2.2,-4.91 -4.91,-4.91 -2.71,0 -4.92,2.2 -4.92,4.91 0,2.71 2.21,4.92 4.92,4.92 2.71,0 4.91,-2.21 4.91,-4.92l-4.91 0z"/>
  <path class="fil1" d="M19409.67 23709.5l0 -3.52c-1.95,0 -3.52,1.58 -3.52,3.52 0,1.94 1.57,3.51 3.52,3.51 1.94,0 3.51,-1.57 3.51,-3.51 0,-1.94 -1.57,-3.52 -3.51,-3.52l0 3.52z"/>
  <polygon class="fil1 str0" points="16474.73,11265.37 16013.6,11265.37 16013.6,10107.67 16474.73,10107.67 "/>
  <line class="fil2 str5" x1="16013.6" y1="10284.27" x2="16072.47" y2= "10225.4" />
  <path class="fil1" d="M16150.99 10146.91l4.91 0c0,-2.71 -2.2,-4.92 -4.91,-4.92 -2.71,0 -4.92,2.21 -4.92,4.92 0,2.71 2.21,4.91 4.92,4.91 2.71,0 4.91,-2.2 4.91,-4.91l-4.91 0z"/>
  <path class="fil1" d="M16033.25 10578.6l4.92 0c0,-2.71 -2.2,-4.91 -4.92,-4.91 -2.71,0 -4.91,2.2 -4.91,4.91 0,2.71 2.2,4.91 4.91,4.91 2.72,0 4.92,-2.2 4.92,-4.91l-4.92 0z"/>
  <line class="fil2 str5" x1="16111.73" y1="10500.11" x2="16474.73" y2= "10137.1" />
  <line class="fil2 str5" x1="16013.6" y1="10912.17" x2="16376.63" y2= "10539.36" />
  <path class="fil1" d="M16455.12 10460.87l4.91 0c0,-2.71 -2.2,-4.91 -4.91,-4.91 -2.71,0 -4.91,2.2 -4.91,4.91 0,2.71 2.2,4.91 4.91,4.91 2.71,0 4.91,-2.2 4.91,-4.91l-4.91 0z"/>
  <line class="fil2 str5" x1="16013.6" y1="11226.13" x2="16268.7" y2= "10971.03" />
  <path class="fil1" d="M16337.39 10892.56l4.91 0c0,-2.71 -2.2,-4.91 -4.91,-4.91 -2.71,0 -4.91,2.2 -4.91,4.91 0,2.71 2.2,4.91 4.91,4.91 2.71,0 4.91,-2.2 4.91,-4.91l-4.91 0z"/>
  <line class="fil2 str5" x1="16415.86" y1="10814.07" x2="16474.73" y2= "10755.2" />
  <line class="fil2 str5" x1="16298.13" y1="11245.76" x2="16474.73" y2= "11069.16" />
  <g id="_2033716809264">
   <polygon class="fil1 str0" points="17171.32,7331.16 17171.32,7792.26 16013.6,7792.26 16013.6,7331.16 "/>
   <path class="fil1" d="M16072.49 7331.16l4.91 0c0,-2.71 -2.2,-4.91 -4.91,-4.91 -2.71,0 -4.91,2.2 -4.91,4.91 0,2.71 2.2,4.91 4.91,4.91 2.71,0 4.91,-2.2 4.91,-4.91l-4.91 0z"/>
   <line class="fil2 str5" x1="16013.6" y1="7703.96" x2="16347.19" y2= "7370.4" />
   <path class="fil1" d="M16307.96 7723.59l4.91 0c0,-2.71 -2.2,-4.91 -4.91,-4.91 -2.72,0 -4.92,2.2 -4.92,4.91 0,2.71 2.2,4.92 4.92,4.92 2.71,0 4.91,-2.21 4.91,-4.92l-4.91 0z"/>
   <line class="fil2 str5" x1="16386.43" y1="7645.1" x2="16700.39" y2= "7331.16" />
   <line class="fil2 str5" x1="16543.4" y1="7792.26" x2="16651.33" y2= "7684.36" />
   <path class="fil1" d="M16729.85 7605.86l4.91 0c0,-2.71 -2.2,-4.91 -4.91,-4.91 -2.72,0 -4.92,2.2 -4.92,4.91 0,2.71 2.2,4.91 4.92,4.91 2.71,0 4.91,-2.2 4.91,-4.91l-4.91 0z"/>
   <line class="fil2 str5" x1="16808.29" y1="7527.36" x2="17004.52" y2= "7331.16" />
   <line class="fil2 str5" x1="16857.36" y1="7792.26" x2="17083.02" y2= "7566.62" />
   <path class="fil1" d="M17161.51 7488.13l4.92 0c0,-2.71 -2.2,-4.92 -4.92,-4.92 -2.71,0 -4.91,2.21 -4.91,4.92 0,2.71 2.2,4.91 4.91,4.91 2.72,0 4.92,-2.2 4.92,-4.91l-4.92 0z"/>
  </g>
  <polygon class="fil1 str0" points="16013.6,10107.67 16013.6,7792.26 16474.73,7792.26 16474.73,10107.67 "/>
  <text x="20683.66" y="30779.51"  class="fil3 fnt0">19.20</text>
  <text x="24048.84" y="23666.51"  class="fil3 fnt0">14.30</text>
  <polygon class="fil2 str3" points="27119.7,23205.39 27119.7,23323.12 26884.23,23323.12 26884.23,23205.39 "/>
  <polygon class="fil2 str8" points="27119.7,20785.03 27119.7,20902.76 26884.23,20902.76 26884.23,20785.03 "/>
  <g>
   <polygon class="fil1" points="13786.52,24686.85 17688.19,24686.85 17688.19,24451.38 13786.52,24451.38 "/>
   <path id="_1_2" class="fil0" d="M17688.19 24731l-3901.67 0 0 -88.3 3901.67 0 91.92 44.15 -91.92 44.15zm0 -88.3c50.76,0 91.92,19.77 91.92,44.15 0,24.38 -41.16,44.15 -91.92,44.15l0 -88.3zm91.92 -191.32l0 235.47 -183.84 0 0 -235.47 91.92 -44.15 91.92 44.15zm-183.84 0c0,-24.38 41.16,-44.15 91.92,-44.15 50.76,0 91.92,19.77 91.92,44.15l-183.84 0zm-3809.75 -44.15l3901.67 0 0 88.3 -3901.67 0 -91.92 -44.15 91.92 -44.15zm0 88.3c-50.76,0 -91.92,-19.77 -91.92,-44.15 0,-24.38 41.16,-44.15 91.92,-44.15l0 88.3zm-91.92 191.32l0 -235.47 183.84 0 0 235.47 -91.92 44.15 -91.92 -44.15zm183.84 0c0,24.38 -41.16,44.15 -91.92,44.15 -50.76,0 -91.92,-19.77 -91.92,-44.15l183.84 0z"/>
  </g>
  <polygon class="fil2 str3" points="17858.08,24451.38 17750.15,24451.38 17750.15,24686.85 17858.08,24686.85 "/>
  <polygon class="fil2 str3" points="20771.96,24451.38 20664.03,24451.38 20664.03,24686.85 20771.96,24686.85 "/>
  <g>
   <polygon class="fil1" points="20771.96,24686.85 23723.59,24686.85 23723.59,24451.38 20771.96,24451.38 "/>
   <path id="_1_3" class="fil0" d="M23723.59 24731l-2951.63 0 0 -88.3 2951.63 0 51.48 44.15 -51.48 44.15zm0 -88.3c28.43,0 51.48,19.77 51.48,44.15 0,24.38 -23.05,44.15 -51.48,44.15l0 -88.3zm51.48 -191.32l0 235.47 -102.96 0 0 -235.47 51.48 -44.15 51.48 44.15zm-102.96 0c0,-24.38 23.05,-44.15 51.48,-44.15 28.43,0 51.48,19.77 51.48,44.15l-102.96 0zm-2900.15 -44.15l2951.63 0 0 88.3 -2951.63 0 -51.48 -44.15 51.48 -44.15zm0 88.3c-28.43,0 -51.48,-19.77 -51.48,-44.15 0,-24.38 23.05,-44.15 51.48,-44.15l0 88.3zm-51.48 191.32l0 -235.47 102.96 0 0 235.47 -51.48 44.15 -51.48 -44.15zm102.96 0c0,24.38 -23.05,44.15 -51.48,44.15 -28.43,0 -51.48,-19.77 -51.48,-44.15l102.96 0z"/>
  </g>
  <polygon class="fil1 str2" points="27119.7,24451.38 27119.7,23323.12 26648.77,23323.12 26648.77,24451.38 "/>
  <g transform="matrix(0.849609 0 0 1 10164.9 -593.806)">
   <text x="20000" y="20000"  class="fil3 fnt0">1.90</text>
  </g>
  <polygon class="fil1 str2" points="26648.77,20193.41 26884.23,20193.41 26884.23,20517.18 26648.77,20517.18 "/>
  <g>
   <polygon class="fil1" points="23872.23,15619.9 23646.6,15619.9 23646.6,7792.26 23872.23,7792.26 "/>
   <path id="_1_4" class="fil0" d="M23646.6 15566.61l225.63 0 0 106.58 -225.63 0 -44.15 -53.29 44.15 -53.29zm0 106.58c-24.38,0 -44.15,-23.86 -44.15,-53.29 0,-29.43 19.77,-53.29 44.15,-53.29l0 106.58zm44.15 -7880.93l0 7827.64 -88.3 0 0 -7827.64 44.15 -53.29 44.15 53.29zm-88.3 0c0,-29.43 19.77,-53.29 44.15,-53.29 24.38,0 44.15,23.86 44.15,53.29l-88.3 0zm269.78 53.29l-225.63 0 0 -106.58 225.63 0 44.15 53.29 -44.15 53.29zm0 -106.58c24.38,0 44.15,23.86 44.15,53.29 0,29.43 -19.77,53.29 -44.15,53.29l0 -106.58zm-44.15 7880.93l0 -7827.64 88.3 0 0 7827.64 -44.15 53.29 -44.15 -53.29zm88.3 0c0,29.43 -19.77,53.29 -44.15,53.29 -24.38,0 -44.15,-23.86 -44.15,-53.29l88.3 0z"/>
  </g>
  <polygon class="fil2 str3" points="26884.23,20075.68 26884.23,20193.41 26648.77,20193.41 26648.77,20075.68 "/>
  <polygon class="fil2 str3" points="26884.23,18319.5 26884.23,18437.23 26648.77,18437.23 26648.77,18319.5 "/>
  <g id="_2071508159568">
   <polygon class="fil1 str2" points="16474.73,18093.84 16474.73,17858.37 20850.45,17858.37 20850.45,18093.84 "/>
   <polygon class="fil1 str2" points="23872.23,17858.37 23646.6,17858.37 23646.6,15425.26 23872.23,15425.26 "/>
   <polygon class="fil1 str2" points="26648.77,18093.84 26884.23,18093.84 26884.23,18319.5 26648.77,18319.5 "/>
  </g>
  <polygon class="fil2 str3" points="26325.01,18093.84 26442.74,18093.84 26442.74,17858.37 26325.01,17858.37 "/>
  <polygon class="fil2 str3" points="24343.16,18093.84 24451.09,18093.84 24451.09,17858.37 24343.16,17858.37 "/>
  <polygon class="fil1 str2" points="26442.74,18093.84 26442.74,17858.37 31279.57,17858.37 31279.57,18093.84 "/>
  <polygon class="fil2 str3" points="22832.27,18093.84 22950,18093.84 22950,17858.37 22832.27,17858.37 "/>
  <polygon class="fil2 str3" points="20850.45,18093.84 20958.36,18093.84 20958.36,17858.37 20850.45,17858.37 "/>
  <polygon class="fil1 str2" points="22950,18093.84 22950,17858.37 24343.16,17858.37 24343.16,18093.84 "/>
  <g id="_2070358577424">
   <line class="fil2 str9" x1="28882.12" y1="10067.12" x2="28882.12" y2= "11934.42" />
   <polygon class="fil2 str10" points="31113.4,11934.42 31113.4,10067.12 28882.12,10067.12 28882.12,11934.42 "/>
   <polygon class="fil2 str10" points="28977.07,11823.66 28977.07,10177.88 30622.85,10177.88 30622.85,11823.66 "/>
   <line class="fil2 str9" x1="28977.07" y1="11823.66" x2="29230.25" y2= "11570.44" />
   <line class="fil2 str9" x1="29546.76" y1="11253.97" x2="30053.16" y2= "10747.57" />
   <line class="fil2 str9" x1="30369.63" y1="10431.06" x2="30622.85" y2= "10177.88" />
   <line class="fil2 str9" x1="30622.85" y1="11823.66" x2="30369.63" y2= "11570.44" />
   <line class="fil2 str9" x1="30053.16" y1="11253.97" x2="29546.76" y2= "10747.57" />
   <line class="fil2 str9" x1="29230.25" y1="10431.06" x2="28977.07" y2= "10177.88" />
   <line class="fil2 str9" x1="30622.85" y1="11000.75" x2="28977.07" y2= "11000.75" />
   <line class="fil2 str9" x1="29799.94" y1="11823.66" x2="29799.94" y2= "10177.88" />
   <line class="fil2 str9" x1="30622.85" y1="11000.75" x2="30369.63" y2= "10747.57" />
   <line class="fil2 str9" x1="30053.16" y1="10431.06" x2="29799.94" y2= "10177.88" />
   <line class="fil2 str9" x1="29799.94" y1="11823.66" x2="29546.76" y2= "11570.44" />
   <polyline class="fil2 str9" points="29230.25,11253.97 28977.07,11000.75 29230.25,10747.57 "/>
   <line class="fil2 str9" x1="29546.76" y1="10431.06" x2="29799.94" y2= "10177.88" />
   <line class="fil2 str9" x1="29799.94" y1="11823.66" x2="30053.16" y2= "11570.44" />
   <line class="fil2 str9" x1="30369.63" y1="11253.97" x2="30622.85" y2= "11000.75" />
   <path class="fil2 str9" d="M30290.53 11404.28c0,-39.33 -31.88,-71.21 -71.21,-71.21 -39.32,0 -71.21,31.88 -71.21,71.21 0,39.36 31.89,71.21 71.21,71.21 39.33,0 71.21,-31.85 71.21,-71.21z"/>
   <path class="fil2 str9" d="M30290.53 10581.41c0,-39.33 -31.88,-71.21 -71.21,-71.21 -39.32,0 -71.21,31.88 -71.21,71.21 0,39.32 31.89,71.21 71.21,71.21 39.33,0 71.21,-31.89 71.21,-71.21z"/>
   <path class="fil2 str9" d="M29467.62 11404.28c0,-39.33 -31.84,-71.21 -71.21,-71.21 -39.32,0 -71.21,31.88 -71.21,71.21 0,39.36 31.89,71.21 71.21,71.21 39.37,0 71.21,-31.85 71.21,-71.21z"/>
   <path class="fil2 str9" d="M29467.62 10581.41c0,-39.33 -31.84,-71.21 -71.21,-71.21 -39.32,0 -71.21,31.88 -71.21,71.21 0,39.32 31.89,71.21 71.21,71.21 39.37,0 71.21,-31.89 71.21,-71.21z"/>
   <line class="fil2 str10" x1="30749.42" y1="11934.42" x2="30749.42" y2= "10067.12" />
   <line class="fil2 str9" x1="30765.27" y1="11839.47" x2="30765.27" y2= "10162.07" />
   <polyline class="fil2 str9" points="31081.74,10162.07 31081.74,11839.47 30765.27,11839.47 "/>
   <line class="fil2 str9" x1="31081.74" y1="11665.38" x2="30765.27" y2= "11665.38" />
   <line class="fil2 str9" x1="31081.74" y1="11760.33" x2="30765.27" y2= "11760.33" />
   <line class="fil2 str9" x1="31081.74" y1="11570.44" x2="30765.27" y2= "11570.44" />
   <line class="fil2 str9" x1="31081.74" y1="11475.49" x2="30765.27" y2= "11475.49" />
   <line class="fil2 str9" x1="31081.74" y1="11285.59" x2="30765.27" y2= "11285.59" />
   <line class="fil2 str9" x1="31081.74" y1="11380.54" x2="30765.27" y2= "11380.54" />
   <line class="fil2 str9" x1="31081.74" y1="11190.64" x2="30765.27" y2= "11190.64" />
   <line class="fil2 str9" x1="31081.74" y1="11095.7" x2="30765.27" y2= "11095.7" />
   <line class="fil2 str9" x1="31081.74" y1="10905.8" x2="30765.27" y2= "10905.8" />
   <line class="fil2 str9" x1="31081.74" y1="11000.75" x2="30765.27" y2= "11000.75" />
   <line class="fil2 str9" x1="31081.74" y1="10826.7" x2="30765.27" y2= "10826.7" />
   <line class="fil2 str9" x1="31081.74" y1="10731.75" x2="30765.27" y2= "10731.75" />
   <line class="fil2 str9" x1="31081.74" y1="10541.86" x2="30765.27" y2= "10541.86" />
   <line class="fil2 str9" x1="31081.74" y1="10636.81" x2="30765.27" y2= "10636.81" />
   <line class="fil2 str9" x1="31081.74" y1="10446.91" x2="30765.27" y2= "10446.91" />
   <line class="fil2 str9" x1="31081.74" y1="10351.96" x2="30765.27" y2= "10351.96" />
   <line class="fil2 str9" x1="31081.74" y1="10162.07" x2="30765.27" y2= "10162.07" />
   <line class="fil2 str9" x1="31081.74" y1="10257.01" x2="30765.27" y2= "10257.01" />
   <line class="fil2 str9" x1="28834.65" y1="11380.54" x2="28802.99" y2= "11380.54" />
   <path class="fil2 str9" d="M28842.57 11333.1c-21.86,0 -39.58,17.69 -39.58,39.55 0,21.83 17.72,39.55 39.58,39.55"/>
   <polyline class="fil2 str9" points="28882.12,11428.01 28834.65,11428.01 28834.65,11380.54 28834.65,11333.07 28882.12,11333.07 "/>
   <line class="fil2 str9" x1="28834.65" y1="11000.75" x2="28802.99" y2= "11000.75" />
   <path class="fil2 str9" d="M28842.57 10953.31c-21.86,0 -39.58,17.68 -39.58,39.55 0,21.83 17.72,39.55 39.58,39.55"/>
   <polyline class="fil2 str9" points="28882.12,11048.22 28834.65,11048.22 28834.65,11000.75 28834.65,10953.27 28882.12,10953.27 "/>
   <line class="fil2 str9" x1="28834.65" y1="10636.81" x2="28802.99" y2= "10636.81" />
   <path class="fil2 str9" d="M28842.57 10589.33c-21.86,0 -39.58,17.72 -39.58,39.55 0,21.87 17.72,39.59 39.58,39.59"/>
   <polyline class="fil2 str9" points="28882.12,10684.28 28834.65,10684.28 28834.65,10636.81 28834.65,10589.33 28882.12,10589.33 "/>
   <line class="fil2 str9" x1="28834.65" y1="11190.64" x2="28802.99" y2= "11190.64" />
   <path class="fil2 str9" d="M28842.57 11143.21c-21.86,0 -39.58,17.68 -39.58,39.55 0,21.83 17.72,39.55 39.58,39.55"/>
   <polyline class="fil2 str9" points="28882.12,11238.12 28834.65,11238.12 28834.65,11190.64 28834.65,11143.17 28882.12,11143.17 "/>
   <line class="fil2 str9" x1="28834.65" y1="10826.7" x2="28802.99" y2= "10826.7" />
   <path class="fil2 str9" d="M28842.57 10779.23c-21.86,0 -39.58,17.72 -39.58,39.55 0,21.87 17.72,39.58 39.58,39.58"/>
   <polyline class="fil2 str9" points="28882.12,10874.18 28834.65,10874.18 28834.65,10826.7 28834.65,10779.23 28882.12,10779.23 "/>
  </g>
  <g>
   <polygon class="fil1" points="16474.73,15425.25 16239.26,15425.25 16239.26,11265.37 16474.73,11265.37 "/>
   <path id="_1_5" class="fil0" d="M16239.26 15364.27l235.47 0 0 121.96 -235.47 0 -44.15 -60.98 44.15 -60.98zm0 121.96c-24.38,0 -44.15,-27.31 -44.15,-60.98 0,-33.67 19.77,-60.98 44.15,-60.98l0 121.96zm44.15 -4220.86l0 4159.88 -88.3 0 0 -4159.88 44.15 -60.98 44.15 60.98zm-88.3 0c0,-33.67 19.77,-60.98 44.15,-60.98 24.38,0 44.15,27.31 44.15,60.98l-88.3 0zm279.62 60.98l-235.47 0 0 -121.96 235.47 0 44.15 60.98 -44.15 60.98zm0 -121.96c24.38,0 44.15,27.31 44.15,60.98 0,33.67 -19.77,60.98 -44.15,60.98l0 -121.96zm-44.15 4220.86l0 -4159.88 88.3 0 0 4159.88 -44.15 60.98 -44.15 -60.98zm88.3 0c0,33.67 -19.77,60.98 -44.15,60.98 -24.38,0 -44.15,-27.31 -44.15,-60.98l88.3 0z"/>
  </g>
  <polygon class="fil1 str2" points="16474.73,19575.32 16121.53,19575.32 16121.53,19339.85 16239.26,19339.85 16239.26,15425.26 16474.73,15425.26 "/>
  <text x="24417.37" y="10339.37"  class="fil3 fnt0">13.20</text>
  <text x="16975.09" y="16592.76"  class="fil3 fnt0">13.30</text>
  <polygon class="fil1 str0" points="16818.12,31740.98 16818.12,32202.11 15660.4,32202.11 15660.4,31740.98 "/>
  <line class="fil2 str5" x1="15660.4" y1="32054.94" x2="15944.93" y2= "31770.42" />
  <path class="fil1" d="M15827.22 32202.09l4.92 0c0,-2.71 -2.21,-4.92 -4.92,-4.92 -2.71,0 -4.91,2.21 -4.91,4.92 0,2.71 2.2,4.91 4.91,4.91 2.71,0 4.92,-2.2 4.92,-4.91l-4.92 0z"/>
  <path class="fil1" d="M15905.72 32123.59l4.91 0c0,-2.71 -2.2,-4.91 -4.91,-4.91 -2.71,0 -4.91,2.2 -4.91,4.91 0,2.71 2.2,4.91 4.91,4.91 2.71,0 4.91,-2.2 4.91,-4.91l-4.91 0z"/>
  <line class="fil2 str5" x1="15984.17" y1="32045.14" x2="16288.33" y2= "31740.98" />
  <line class="fil2 str5" x1="16141.16" y1="32202.11" x2="16258.89" y2= "32084.38" />
  <path class="fil1" d="M16337.39 32005.86l4.91 0c0,-2.71 -2.2,-4.91 -4.91,-4.91 -2.71,0 -4.91,2.2 -4.91,4.91 0,2.71 2.2,4.91 4.91,4.91 2.71,0 4.91,-2.2 4.91,-4.91l-4.91 0z"/>
  <line class="fil2 str5" x1="16406.06" y1="31927.41" x2="16602.26" y2= "31740.98" />
  <line class="fil2 str5" x1="16445.29" y1="32202.11" x2="16680.76" y2= "31966.65" />
  <path class="fil1" d="M16759.28 31888.13l4.91 0c0,-2.72 -2.2,-4.92 -4.91,-4.92 -2.71,0 -4.91,2.2 -4.91,4.92 0,2.71 2.2,4.91 4.91,4.91 2.71,0 4.91,-2.2 4.91,-4.91l-4.91 0z"/>
  <line class="fil2 str5" x1="16759.26" y1="32202.11" x2="16818.12" y2= "32143.24" />
  <line class="fil2 str5" x1="30769.4" y1="7792.26" x2="30710.53" y2= "7733.4" />
  <path class="fil0" d="M30632.06 7654.92l4.91 0c0,-2.71 -2.2,-4.91 -4.91,-4.91 -2.71,0 -4.91,2.2 -4.91,4.91 0,2.71 2.2,4.92 4.91,4.92 2.71,0 4.91,-2.21 4.91,-4.92l-4.91 0z"/>
  <path class="fil0" d="M31053.93 7772.66l4.91 0c0,-2.72 -2.2,-4.92 -4.91,-4.92 -2.71,0 -4.92,2.2 -4.92,4.92 0,2.71 2.21,4.91 4.92,4.91 2.71,0 4.91,-2.2 4.91,-4.91l-4.91 0z"/>
  <path class="fil0" d="M30936.2 7340.96l4.91 0c0,-2.71 -2.2,-4.91 -4.91,-4.91 -2.72,0 -4.92,2.2 -4.92,4.91 0,2.71 2.2,4.92 4.92,4.92 2.71,0 4.91,-2.21 4.91,-4.92l-4.91 0z"/>
  <line class="fil2 str5" x1="31701.43" y1="7792.26" x2="31446.36" y2= "7537.19" />
  <path class="fil0" d="M31367.89 7458.69l4.91 0c0,-2.71 -2.2,-4.91 -4.91,-4.91 -2.71,0 -4.92,2.2 -4.92,4.91 0,2.72 2.21,4.92 4.92,4.92 2.71,0 4.91,-2.2 4.91,-4.92l-4.91 0z"/>
  <line class="fil2 str5" x1="31289.37" y1="7380.2" x2="31240.33" y2= "7331.16" />
  <g transform="matrix(0.849609 0 0 1 7763.05 -14238.6)">
   <text x="20000" y="20000"  class="fil3 fnt0">3.60 (1.10)</text>
  </g>
  <polygon class="fil1 str2" points="10244.72,32202.11 8370.83,32202.11 8370.83,10107.67 10431.14,10107.67 10431.14,9764.28 8027.43,9764.28 8027.43,32555.31 10244.72,32555.31 "/>
  <polygon class="fil1 str2" points="10362.45,32555.31 10362.45,32830.01 7752.73,32830.01 7752.73,9479.77 10548.88,9479.77 10548.88,9764.28 8027.43,9764.28 8027.43,32555.31 "/>
  <g id="_2070759851040">
   <line class="fil2 str1" x1="10244.72" y1="31740.98" x2="14414.41" y2= "31740.98" />
   <polygon class="fil2 str1" points="14198.58,32555.31 10470.38,32555.31 10470.38,32388.51 14198.58,32388.51 "/>
   <polygon class="fil2 str1" points="10470.38,32555.31 10303.58,32555.31 10303.58,32388.51 10470.38,32388.51 "/>
   <polygon class="fil2 str1" points="14198.58,32555.31 14355.55,32555.31 14355.55,32388.51 14198.58,32388.51 "/>
   <line class="fil2 str1" x1="10362.45" y1="32830.01" x2="14296.68" y2= "32830.01" />
  </g>
  <polygon class="fil1 str11" points="14434.41,32202.11 15680.4,32202.11 15680.4,31740.98 14434.41,31740.98 "/>
  <g>
   <polygon class="fil1" points="8881.76,32202.11 10225.06,32202.11 10225.06,31740.98 8881.76,31740.98 "/>
   <path id="_1_6" class="fil0" d="M10225.06 32270.79l-1343.3 0 0 -137.36 1343.3 0 65.76 68.68 -65.76 68.68zm0 -137.36c36.31,0 65.76,30.75 65.76,68.68 0,37.93 -29.45,68.68 -65.76,68.68l0 -137.36zm65.76 -392.45l0 461.13 -131.52 0 0 -461.13 65.76 -68.68 65.76 68.68zm-131.52 0c0,-37.93 29.45,-68.68 65.76,-68.68 36.31,0 65.76,30.75 65.76,68.68l-131.52 0zm-1277.54 -68.68l1343.3 0 0 137.36 -1343.3 0 -65.76 -68.68 65.76 -68.68zm0 137.36c-36.31,0 -65.76,-30.75 -65.76,-68.68 0,-37.93 29.45,-68.68 65.76,-68.68l0 137.36zm-65.76 392.45l0 -461.13 131.52 0 0 461.13 -65.76 68.68 -65.76 -68.68zm131.52 0c0,37.93 -29.45,68.68 -65.76,68.68 -36.31,0 -65.76,-30.75 -65.76,-68.68l131.52 0z"/>
  </g>
  <polyline class="fil2 str12" points="25177.12,7792.26 27001.97,7792.26 27001.97,6703.24 "/>
  <polygon class="fil2 str1" points="26835.17,6987.77 25334.08,6987.77 25334.08,7144.73 26835.17,7144.73 "/>
  <polygon class="fil2 str1" points="25334.08,6987.77 25177.12,6987.77 25177.12,7144.73 25334.08,7144.73 "/>
  <line class="fil2 str1" x1="25285.02" y1="6703.24" x2="27001.97" y2= "6703.24" />
  <polygon class="fil2 str1" points="26835.17,6987.77 27001.97,6987.77 27001.97,7144.73 26835.17,7144.73 "/>
  <polygon class="fil1 str2" points="22116.08,7331.16 25177.12,7331.16 25177.12,6987.77 22116.08,6987.77 "/>
  <polygon class="fil1 str2" points="21998.34,6987.77 25285.02,6987.77 25285.02,6703.24 21998.34,6703.24 "/>
  <g>
   <polygon class="fil1" points="24471.09,7331.16 25153.66,7331.16 25153.66,7792.26 24471.09,7792.26 "/>
   <path id="_1_7" class="fil0" d="M25153.66 7399.84l-682.57 0 0 -137.36 682.57 0 64.57 68.68 -64.57 68.68zm0 -137.36c35.66,0 64.57,30.75 64.57,68.68 0,37.93 -28.91,68.68 -64.57,68.68l0 -137.36zm-64.57 529.78l0 -461.1 129.14 0 0 461.1 -64.57 68.68 -64.57 -68.68zm129.14 0c0,37.93 -28.91,68.68 -64.57,68.68 -35.66,0 -64.57,-30.75 -64.57,-68.68l129.14 0zm-747.14 -68.68l682.57 0 0 137.36 -682.57 0 -64.57 -68.68 64.57 -68.68zm0 137.36c-35.66,0 -64.57,-30.75 -64.57,-68.68 0,-37.93 28.91,-68.68 64.57,-68.68l0 137.36zm64.57 -529.78l0 461.1 -129.14 0 0 -461.1 64.57 -68.68 64.57 68.68zm-129.14 0c0,-37.93 28.91,-68.68 64.57,-68.68 35.66,0 64.57,30.75 64.57,68.68l-129.14 0z"/>
  </g>
  <polygon class="fil1 str13" points="16798.12,31740.98 18740.7,31740.98 18740.7,32202.11 16798.12,32202.11 "/>
  <polygon class="fil1 str0" points="22233.81,32202.11 23646.6,32202.11 23646.6,31740.98 22233.81,31740.98 "/>
  <polygon class="fil1 str2" points="18760.7,32555.31 14414.41,32555.31 14414.41,32202.11 18760.7,32202.11 "/>
  <polygon class="fil1 str2" points="18878.44,32830.01 14296.68,32830.01 14296.68,32555.31 18878.44,32555.31 "/>
  <polyline class="fil2 str1" points="18760.7,31740.98 20595.36,31740.98 20595.36,32830.01 "/>
  <polygon class="fil2 str1" points="20428.56,32555.31 18927.48,32555.31 18927.48,32388.51 20428.56,32388.51 "/>
  <polygon class="fil2 str1" points="18927.48,32555.31 18760.7,32555.31 18760.7,32388.51 18927.48,32388.51 "/>
  <line class="fil2 str1" x1="18878.44" y1="32830.01" x2="20595.36" y2= "32830.01" />
  <polygon class="fil2 str1" points="20428.56,32555.31 20595.36,32555.31 20595.36,32388.51 20428.56,32388.51 "/>
  <text x="18729.72" y="34352.09"  class="fil3 fnt0">3.90 (2.00)</text>
  <g>
   <polygon class="fil1" points="26638.77,20710.44 26638.77,20281.23 31734.32,20281.23 31734.32,20710.44 "/>
   <path id="_1_8" class="fil0" d="M26685.28 20281.23l0 429.21 -93.02 0 0 -429.21 46.51 -80.48 46.51 80.48zm-93.02 0c0,-44.44 20.83,-80.48 46.51,-80.48 25.68,0 46.51,36.04 46.51,80.48l-93.02 0zm5142.06 80.48l-5095.55 0 0 -160.96 5095.55 0 46.51 80.48 -46.51 80.48zm0 -160.96c25.68,0 46.51,36.04 46.51,80.48 0,44.44 -20.83,80.48 -46.51,80.48l0 -160.96zm-46.51 509.69l0 -429.21 93.02 0 0 429.21 -46.51 80.48 -46.51 -80.48zm93.02 0c0,44.44 -20.83,80.48 -46.51,80.48 -25.68,0 -46.51,-36.04 -46.51,-80.48l93.02 0zm-5142.06 -80.48l5095.55 0 0 160.96 -5095.55 0 -46.51 -80.48 46.51 -80.48zm0 160.96c-25.68,0 -46.51,-36.04 -46.51,-80.48 0,-44.44 20.83,-80.48 46.51,-80.48l0 160.96z"/>
  </g>
  <rect class="fil4 str14" x="23411.12" y="3975.78" width="253.39" height="2910.23"/>
  <rect class="fil4 str14" x="31518.15" y="3962.18" width="253.39" height="2833.08"/>
  <rect class="fil4 str14" transform="matrix(8.30474E-14 1 -3.13569 2.64845E-14 31771.5 3791.25)" width="253.39" height="2669.48"/>
  <rect class="fil4 str14" x="28716.27" y="6654.07" width="3061.81" height="1143.65" rx="53.01" ry="50"/>
  <rect class="fil4 str14" x="15490.4" y="32187.15" width="261.61" height="3004.63"/>
  <rect class="fil4 str14" x="23870.41" y="32170.16" width="261.61" height="3035.66"/>
  <rect class="fil4 str14" transform="matrix(8.57413E-14 -1.03244 -3.23741 -2.73437E-14 24132 35382.3)" width="253.39" height="2669.48"/>
  <polygon class="fil2 str15" points="20609.4,31812.55 20727.13,31812.55 20727.13,32048.02 20609.4,32048.02 "/>
  <polygon class="fil2 str16" points="22050.53,31812.55 22168.26,31812.55 22168.26,32048.02 22050.53,32048.02 "/>
  <polygon class="fil2 str17" points="28580.84,7386.83 28698.57,7386.83 28698.57,7622.3 28580.84,7622.3 "/>
  <polygon class="fil2 str18" points="27032.42,7386.83 27150.15,7386.83 27150.15,7622.3 27032.42,7622.3 "/>
  <polygon class="fil2 str19" points="13786.51,20850.94 13786.51,20733.2 13560.85,20733.2 13560.85,20850.94 "/>
  <path class="fil5 str20" d="M27150.15 7540.42c21.71,882.35 550.69,1512.67 1424.94,1765 0,-556.6 11.92,-1241.8 11.92,-1798.41"/>
  <g id="_2070759869376">
   <rect class="fil5 str21" transform="matrix(0.000141507 -0.762151 0.762151 0.000141507 8867.22 24464.7)" width="2611.41" height="5846.68"/>
   <path class="fil5 str21" d="M12506.86 24238.07c-978.73,41.74 -1945.94,14.4 -2918.91,21.58 -340.53,4.84 -514.35,-7.75 -508.76,-368.19 0.05,-298.32 0.11,-596.6 0.16,-894.9 -3.09,-253.31 72.68,-348.58 496.64,-329.15 977.04,7.56 1954.11,-7.94 2931.16,22.64 775.95,93.4 854.54,1408.96 -0.29,1548.02z"/>
   <circle class="fil5 str21" transform="matrix(0.000141507 -0.762151 0.762151 0.000141507 9378.72 23453.3)" r="121.03"/>
  </g>
  <g id="_2034107289088">
   <path class="fil5 str22" d="M8812.61 21930.11c590.62,-5.58 1141.5,174.74 1217.66,-548.31 19.42,-235.47 11.11,-460.2 -21.34,-691.38 -131.41,-592.12 -640.39,-406.21 -1205,-416.12"/>
   <path class="fil5 str21" d="M9247.63 21838.64c-77.93,1.64 -153.21,-56.39 -188.82,-120.89 0,-429.57 0,-838.65 0,-1268.23 13.38,-60.66 55.4,-74.28 146.56,-94.83 829.61,-31.05 653.6,536.66 668.06,1051.68 -36.83,372.85 -304.35,415.93 -625.8,432.27z"/>
   <circle class="fil5 str21" transform="matrix(-7.12942E-14 -0.897305 0.897305 -7.12942E-14 9180.79 21086)" r="94.44"/>
   <path class="fil5 str21" d="M9209.61 21642.46c-62.23,1.17 -122.37,-40.26 -150.8,-86.32 0,-306.71 0,-598.8 0,-905.52 10.68,-43.31 44.24,-53.03 117.04,-67.7 654.19,-54.25 530.72,326.57 533.58,750.9 -5.17,277.89 -254.26,308.64 -499.82,308.64z"/>
  </g>
  <g id="_2034107290576">
   <line class="fil5 str23" x1="30115.86" y1="19551.85" x2="30358.4" y2= "19524.93" />
   <line class="fil5 str21" x1="30125.56" y1="18718.18" x2="30368.04" y2= "18745.16" />
   <path class="fil5 str21" d="M31222.14 19941.95c-192.17,0 -384.37,0.04 -576.55,0.04 -143.33,0.41 -247,-73.86 -289.64,-256.01 2.26,-324.1 4.51,-648.24 6.78,-972.35 -13.24,-253.61 96.61,-359.08 282.86,-374.76l585.69 0"/>
   <path class="fil5 str21" d="M29631.24 18531.74c191.44,-31.34 357.45,11.87 484.96,168.4 24.13,63.28 43.04,125.39 56.9,186.35 53.92,237.16 31.5,457.17 -56.93,662.34 -113.35,137.95 -261.25,202.32 -447.61,184.95 -278.24,-27.11 -548.35,-127.41 -805.19,-346.64 -155.79,-153.19 -168.56,-326.52 0,-525.34 223.65,-179.99 480.99,-287.01 767.87,-330.06z"/>
  </g>
  <path class="fil5 str20" d="M20968.36 18031.92c25.73,-1045.76 786.33,-1832.3 1822.49,-2131.36 0,659.68 14.13,1471.78 14.13,2131.47"/>
  <path class="fil5 str20" d="M26298.54 18031.92c-25.73,-1045.76 -786.33,-1832.3 -1822.49,-2131.36 0,659.68 -14.13,1471.78 -14.13,2131.47"/>
  <path class="fil5 str20" d="M26840.11 18456.83c-919.39,22.62 -1610.88,691.31 -1873.8,1602.26 579.96,0 1293.93,12.42 1873.9,12.42"/>
  <path class="fil5 str20" d="M26894.53 20932.38c1282.62,31.56 2247.29,964.43 2614.09,2235.26 -809.09,0 -1805.12,17.33 -2614.22,17.33"/>
  <path class="fil5 str20" d="M19266.31 24572.9c-4.35,197.08 -27.12,382.52 -67.75,555.39m-40.91 150.64c-30.26,97.7 -66.71,190.92 -109.24,279.43m-71.33 134.36c-63.68,109.01 -137.58,209.87 -221.51,302.1m-106.24 107.21c-84.17,78.03 -176.61,148.72 -277.2,211.66m-142.42 81.18c-107.84,55.79 -223.7,103.74 -347.38,143.5 0,-622.85 -11.99,-1389.58 -11.99,-2012.44"/>
  <path class="fil5 str20" d="M19277.02 24567.91c4.68,211.33 29.58,410.52 74.48,595.82m38.81 140.73c32.98,106.24 73.1,207.34 120.29,302.95m74.86 137.22c57.68,95.93 123.4,185.4 197.11,267.94m116.55 118.56c79.55,73.55 166.68,140.31 261.33,199.86m128.4 73.89c104.64,54.96 217.32,102.02 338.01,140.68 0,-617.45 11.92,-1377.52 11.92,-1994.97"/>
  <path class="fil5 str20" d="M20705.56 32000.79c20.2,820.73 512.23,1407.03 1325.43,1641.74 0,-517.73 11.09,-1155.08 11.09,-1672.82"/>
  <g id="_2034107279296">
   <rect class="fil5 str24" transform="matrix(-5.72179E-14 -0.720142 0.720142 -5.72179E-14 23412.2 3823.8)" width="2496.64" height="5813.27"/>
   <line class="fil5 str24" x1="23406.78" y1="3826.7" x2="27593.16" y2= "2028.76" />
   <line class="fil5 str24" x1="23412.26" y1="2025.86" x2="27566.04" y2= "3779.67" />
  </g>
  <g id="_2034107278528">
   <rect class="fil5 str24" transform="matrix(-5.72179E-14 -0.720142 0.720142 -5.72179E-14 19921.4 37156.9)" width="2496.64" height="5813.27"/>
   <line class="fil5 str24" x1="19915.98" y1="37159.84" x2="24102.36" y2= "35361.9" />
   <line class="fil5 str24" x1="19921.46" y1="35359" x2="24075.24" y2= "37112.81" />
  </g>
  <path class="fil5 str20" d="M16005.51 19466.15c-25.73,-1045.76 -786.33,-1832.3 -1822.49,-2131.36 0,659.68 -14.13,1471.78 -14.13,2131.47"/>
  <path class="fil5 str20" d="M13597.77 20854.85c919.39,22.62 1610.88,691.31 1873.8,1602.26 -579.96,0 -1293.93,12.42 -1873.9,12.42"/>
 </g>
</svg>
