<?xml version="1.0" encoding="UTF-8"?>
<!DOCTYPE svg PUBLIC "-//W3C//DTD SVG 1.1//EN" "http://www.w3.org/Graphics/SVG/1.1/DTD/svg11.dtd">
<!-- Creator: CorelDRAW -->
<svg xmlns="http://www.w3.org/2000/svg" xml:space="preserve" width="400mm" height="400mm" version="1.1" style="shape-rendering:geometricPrecision; text-rendering:geometricPrecision; image-rendering:optimizeQuality; fill-rule:evenodd; clip-rule:evenodd"
viewBox="0 0 40000 40000"
 xmlns:xlink="http://www.w3.org/1999/xlink"
 xmlns:xodm="http://www.corel.com/coreldraw/odm/2003">
 <defs>
  <style type="text/css">
   <![CDATA[
    .str13 {stroke:black;stroke-width:50;stroke-miterlimit:22.9256}
    .str15 {stroke:#1F1B20;stroke-width:16.9;stroke-miterlimit:22.9256}
    .str9 {stroke:#1F1B20;stroke-width:40;stroke-miterlimit:22.9256}
    .str17 {stroke:#2B2A29;stroke-width:40;stroke-miterlimit:22.9256}
    .str8 {stroke:black;stroke-width:20;stroke-miterlimit:22.9256}
    .str11 {stroke:#2B2A29;stroke-width:25.4;stroke-miterlimit:22.9256}
    .str10 {stroke:black;stroke-width:40;stroke-linecap:round;stroke-linejoin:round;stroke-miterlimit:22.9256}
    .str16 {stroke:#2B2A29;stroke-width:40;stroke-linecap:round;stroke-linejoin:round;stroke-miterlimit:22.9256}
    .str4 {stroke:black;stroke-width:12.96;stroke-linecap:round;stroke-linejoin:round;stroke-miterlimit:10}
    .str5 {stroke:black;stroke-width:25.94;stroke-linecap:round;stroke-linejoin:round;stroke-miterlimit:10}
    .str14 {stroke:black;stroke-width:69.67;stroke-linecap:round;stroke-linejoin:round;stroke-miterlimit:10}
    .str1 {stroke:black;stroke-width:69.67;stroke-linecap:round;stroke-linejoin:round;stroke-miterlimit:10}
    .str3 {stroke:black;stroke-width:51.85;stroke-linecap:round;stroke-linejoin:round;stroke-miterlimit:10}
    .str12 {stroke:black;stroke-width:51.85;stroke-linecap:round;stroke-linejoin:round;stroke-miterlimit:10}
    .str0 {stroke:black;stroke-width:90.75;stroke-linecap:round;stroke-linejoin:round;stroke-miterlimit:10}
    .str2 {stroke:black;stroke-width:116.7;stroke-linecap:round;stroke-linejoin:round;stroke-miterlimit:10}
    .str7 {stroke:black;stroke-width:57.88;stroke-linecap:round;stroke-linejoin:round;stroke-miterlimit:10}
    .str6 {stroke:black;stroke-width:14.46;stroke-linecap:round;stroke-linejoin:round;stroke-miterlimit:10}
    .fil5 {fill:none}
    .fil2 {fill:none;fill-rule:nonzero}
    .fil3 {fill:black}
    .fil4 {fill:black}
    .fil1 {fill:black;fill-rule:nonzero}
    .fil0 {fill:black;fill-rule:nonzero}
    .fnt0 {font-weight:normal;font-size:1067.89px;font-family:'Arial'}
   ]]>
  </style>
 </defs>
 <g id="Слой_x0020_1">
  <metadata id="CorelCorpID_0Corel-Layer"/>
  <g>
   <polygon class="fil0" points="4379.14,31812.55 19800.93,31812.55 19800.93,32421.94 4379.14,32421.94 "/>
   <path id="_1" class="fil1" d="M19800.93 31870.9l-15421.79 0 0 -116.7 15421.79 0 41.78 58.35 -41.78 58.35zm0 -116.7c23.07,0 41.78,26.13 41.78,58.35 0,32.22 -18.71,58.35 -41.78,58.35l0 -116.7zm-41.78 667.74l0 -609.39 83.56 0 0 609.39 -41.78 58.35 -41.78 -58.35zm83.56 0c0,32.22 -18.71,58.35 -41.78,58.35 -23.07,0 -41.78,-26.13 -41.78,-58.35l83.56 0zm-15463.57 -58.35l15421.79 0 0 116.7 -15421.79 0 -41.78 -58.35 41.78 -58.35zm0 116.7c-23.07,0 -41.78,-26.13 -41.78,-58.35 0,-32.22 18.71,-58.35 41.78,-58.35l0 116.7zm41.78 -667.74l0 609.39 -83.56 0 0 -609.39 41.78 -58.35 41.78 58.35zm-83.56 0c0,-32.22 18.71,-58.35 41.78,-58.35 23.07,0 41.78,26.13 41.78,58.35l-83.56 0z"/>
  </g>
  <g>
   <polygon class="fil0" points="5003.95,22785.32 5003.95,31812.55 4394.53,31812.55 4394.53,22785.32 "/>
   <path id="_1_0" class="fil1" d="M4945.6 31812.55l0 -9027.23 116.7 0 0 9027.23 -58.35 78.27 -58.35 -78.27zm116.7 0c0,43.22 -26.13,78.27 -58.35,78.27 -32.22,0 -58.35,-35.05 -58.35,-78.27l116.7 0zm-667.77 -78.27l609.42 0 0 156.54 -609.42 0 -58.35 -78.27 58.35 -78.27zm0 156.54c-32.22,0 -58.35,-35.05 -58.35,-78.27 0,-43.22 26.13,-78.27 58.35,-78.27l0 156.54zm58.35 -9105.5l0 9027.23 -116.7 0 0 -9027.23 58.35 -78.27 58.35 78.27zm-116.7 0c0,-43.22 26.13,-78.27 58.35,-78.27 32.22,0 58.35,35.05 58.35,78.27l-116.7 0zm667.77 78.27l-609.42 0 0 -156.54 609.42 0 58.35 78.27 -58.35 78.27zm0 -156.54c32.22,0 58.35,35.05 58.35,78.27 0,43.22 -26.13,78.27 -58.35,78.27l0 -156.54z"/>
  </g>
  <g>
   <polygon class="fil0" points="5003.95,11492.54 5003.95,23566.09 4394.53,23566.09 4394.53,11492.54 "/>
   <path id="_1_1" class="fil1" d="M4945.6 23566.09l0 -12073.55 116.7 0 0 12073.55 -58.35 82.19 -58.35 -82.19zm116.7 0c0,45.39 -26.13,82.19 -58.35,82.19 -32.22,0 -58.35,-36.8 -58.35,-82.19l116.7 0zm-667.77 -82.19l609.42 0 0 164.38 -609.42 0 -58.35 -82.19 58.35 -82.19zm0 164.38c-32.22,0 -58.35,-36.8 -58.35,-82.19 0,-45.39 26.13,-82.19 58.35,-82.19l0 164.38zm58.35 -12155.74l0 12073.55 -116.7 0 0 -12073.55 58.35 -82.19 58.35 82.19zm-116.7 0c0,-45.39 26.13,-82.19 58.35,-82.19 32.22,0 58.35,36.8 58.35,82.19l-116.7 0zm667.77 82.19l-609.42 0 0 -164.38 609.42 0 58.35 82.19 -58.35 82.19zm0 -164.38c32.22,0 58.35,36.8 58.35,82.19 0,45.39 -26.13,82.19 -58.35,82.19l0 -164.38z"/>
  </g>
  <g>
   <polygon class="fil0" points="35899.61,31812.55 22907.54,31812.55 22907.54,32421.94 35899.61,32421.94 "/>
   <path id="_1_2" class="fil1" d="M22907.54 31754.2l12992.07 0 0 116.7 -12992.07 0 -44.36 -58.35 44.36 -58.35zm0 116.7c-24.49,0 -44.36,-26.13 -44.36,-58.35 0,-32.22 19.87,-58.35 44.36,-58.35l0 116.7zm-44.36 551.04l0 -609.39 88.72 0 0 609.39 -44.36 58.35 -44.36 -58.35zm88.72 0c0,32.22 -19.87,58.35 -44.36,58.35 -24.49,0 -44.36,-26.13 -44.36,-58.35l88.72 0zm12947.71 58.35l-12992.07 0 0 -116.7 12992.07 0 44.36 58.35 -44.36 58.35zm0 -116.7c24.49,0 44.36,26.13 44.36,58.35 0,32.22 -19.87,58.35 -44.36,58.35l0 -116.7zm44.36 -551.04l0 609.39 -88.72 0 0 -609.39 44.36 -58.35 44.36 58.35zm-88.72 0c0,-32.22 19.87,-58.35 44.36,-58.35 24.49,0 44.36,26.13 44.36,58.35l-88.72 0z"/>
  </g>
  <polyline class="fil2 str0" points="13107.77,12856.04 10696.07,12856.04 10696.07,11416.8 "/>
  <polygon class="fil2 str0" points="10903.52,11792.83 12900.33,11792.83 12900.33,12000.28 10903.52,12000.28 "/>
  <polygon class="fil2 str0" points="12900.33,11792.83 13107.77,11792.83 13107.77,12000.28 12900.33,12000.28 "/>
  <line class="fil2 str0" x1="12952.18" y1="11416.8" x2="10696.07" y2= "11416.8" />
  <polygon class="fil2 str0" points="10903.52,11792.83 10696.07,11792.83 10696.07,12000.28 10903.52,12000.28 "/>
  <polygon class="fil2 str1" points="22876.37,32405.46 22667.31,32405.46 22667.31,32004.78 22876.37,32004.78 "/>
  <g>
   <polygon class="fil0" points="35279.86,11537.67 35279.86,31812.55 35889.28,31812.55 35889.28,11537.67 "/>
   <path id="_1_3" class="fil1" d="M35221.51 31812.55l0 -20274.88 116.7 0 0 20274.88 -58.35 175.79 -58.35 -175.79zm116.7 0c0,97.08 -26.13,175.79 -58.35,175.79 -32.22,0 -58.35,-78.71 -58.35,-175.79l116.7 0zm551.07 175.79l-609.42 0 0 -351.58 609.42 0 58.35 175.79 -58.35 175.79zm0 -351.58c32.22,0 58.35,78.71 58.35,175.79 0,97.08 -26.13,175.79 -58.35,175.79l0 -351.58zm58.35 -20099.09l0 20274.88 -116.7 0 0 -20274.88 58.35 -175.79 58.35 175.79zm-116.7 0c0,-97.08 26.13,-175.79 58.35,-175.79 32.22,0 58.35,78.71 58.35,175.79l-116.7 0zm-551.07 -175.79l609.42 0 0 351.58 -609.42 0 -58.35 -175.79 58.35 -175.79zm0 351.58c-32.22,0 -58.35,-78.71 -58.35,-175.79 0,-97.08 26.13,-175.79 58.35,-175.79l0 351.58z"/>
  </g>
  <g>
   <polygon class="fil0" points="25192.22,25440.54 24881.03,25440.54 24881.03,12856.05 25192.22,12856.05 "/>
   <path id="_1_4" class="fil1" d="M24881.03 25371.98l311.19 0 0 137.12 -311.19 0 -58.35 -68.56 58.35 -68.56zm0 137.12c-32.22,0 -58.35,-30.7 -58.35,-68.56 0,-37.86 26.13,-68.56 58.35,-68.56l0 137.12zm58.35 -12653.05l0 12584.49 -116.7 0 0 -12584.49 58.35 -68.56 58.35 68.56zm-116.7 0c0,-37.86 26.13,-68.56 58.35,-68.56 32.22,0 58.35,30.7 58.35,68.56l-116.7 0zm369.54 68.56l-311.19 0 0 -137.12 311.19 0 58.35 68.56 -58.35 68.56zm0 -137.12c32.22,0 58.35,30.7 58.35,68.56 0,37.86 -26.13,68.56 -58.35,68.56l0 -137.12zm-58.35 12653.05l0 -12584.49 116.7 0 0 12584.49 -58.35 68.56 -58.35 -68.56zm116.7 0c0,37.86 -26.13,68.56 -58.35,68.56 -32.22,0 -58.35,-30.7 -58.35,-68.56l116.7 0z"/>
  </g>
  <polygon class="fil0 str2" points="25192.22,27235.5 24881.03,27235.5 24881.03,25083.13 25192.22,25083.13 "/>
  <polygon class="fil0 str2" points="15104.55,23566.09 14793.36,23566.09 14793.36,12856.04 15104.55,12856.04 "/>
  <polygon class="fil2 str3" points="24881.03,29854.65 24881.03,30010.24 25192.22,30010.24 25192.22,29854.65 "/>
  <polygon class="fil2 str3" points="24881.03,27235.5 24881.03,27378.13 25192.22,27378.13 25192.22,27235.5 "/>
  <polygon class="fil0 str2" points="25192.22,31812.55 24881.03,31812.55 24881.03,30010.24 25192.22,30010.24 "/>
  <g transform="matrix(0.849609 0 0 1 14280.3 -4613.33)">
   <text x="20000" y="20000"  class="fil3 fnt0">20.20</text>
  </g>
  <g>
   <polygon class="fil0" points="5945.18,11575.53 5945.18,12742.62 4415.18,12742.62 4415.18,11575.53 "/>
   <path id="_1_5" class="fil1" d="M5854.41 12742.62l0 -1167.09 181.54 0 0 1167.09 -90.77 173.84 -90.77 -173.84zm181.54 0c0,96 -40.64,173.84 -90.77,173.84 -50.13,0 -90.77,-77.84 -90.77,-173.84l181.54 0zm-1620.77 -173.84l1530 0 0 347.68 -1530 0 -90.77 -173.84 90.77 -173.84zm0 347.68c-50.13,0 -90.77,-77.84 -90.77,-173.84 0,-96 40.64,-173.84 90.77,-173.84l0 347.68zm90.77 -1340.93l0 1167.09 -181.54 0 0 -1167.09 90.77 -173.84 90.77 173.84zm-181.54 0c0,-96 40.64,-173.84 90.77,-173.84 50.13,0 90.77,77.84 90.77,173.84l-181.54 0zm1620.77 173.84l-1530 0 0 -347.68 1530 0 90.77 173.84 -90.77 173.84zm0 -347.68c50.13,0 90.77,77.84 90.77,173.84 0,96 -40.64,173.84 -90.77,173.84l0 -347.68z"/>
  </g>
  <line class="fil2 str4" x1="4627.92" y1="12856.04" x2="4550.13" y2= "12778.25" />
  <path class="fil1" d="M4446.42 12674.54l6.49 0c0,-3.58 -2.91,-6.49 -6.49,-6.49 -3.59,0 -6.5,2.91 -6.5,6.49 0,3.58 2.91,6.49 6.5,6.49 3.58,0 6.49,-2.91 6.49,-6.49l-6.49 0z"/>
  <path class="fil1" d="M5016.94 12830.13l6.49 0c0,-3.58 -2.91,-6.49 -6.49,-6.49 -3.59,0 -6.5,2.91 -6.5,6.49 0,3.59 2.91,6.5 6.5,6.5 3.58,0 6.49,-2.91 6.49,-6.5l-6.49 0z"/>
  <path class="fil1" d="M4861.34 12259.61l6.5 0c0,-3.58 -2.91,-6.49 -6.5,-6.49 -3.58,0 -6.49,2.91 -6.49,6.49 0,3.59 2.91,6.5 6.49,6.5 3.59,0 6.5,-2.91 6.5,-6.5l-6.5 0z"/>
  <line class="fil2 str4" x1="5872.67" y1="12856.04" x2="5535.54" y2= "12518.95" />
  <path class="fil1" d="M5431.86 12415.21l6.5 0c0,-3.59 -2.91,-6.5 -6.5,-6.5 -3.58,0 -6.49,2.91 -6.49,6.5 0,3.58 2.91,6.49 6.49,6.49 3.59,0 6.5,-2.91 6.5,-6.49l-6.5 0z"/>
  <line class="fil2 str4" x1="5328.09" y1="12311.47" x2="5250.3" y2= "12246.66" />
  <line class="fil2 str4" x1="5898.61" y1="12467.06" x2="5665.22" y2= "12246.66" />
  <g id="_2070758721056">
   <line class="fil2 str0" x1="22650.84" y1="12856.04" x2="17153.21" y2= "12856.04" />
   <polygon class="fil2 str0" points="17438.45,11792.83 22365.59,11792.83 22365.59,12000.28 17438.45,12000.28 "/>
   <polygon class="fil2 str0" points="22365.59,11792.83 22573.04,11792.83 22573.04,12000.28 22365.59,12000.28 "/>
   <polygon class="fil2 str0" points="17438.45,11792.83 17218.05,11792.83 17218.05,12000.28 17438.45,12000.28 "/>
   <line class="fil2 str0" x1="22495.24" y1="11416.8" x2="17295.85" y2= "11416.8" />
  </g>
  <g>
   <polygon class="fil0" points="17153.21,12777.4 13107.77,12777.4 13107.77,11813.49 17153.21,11813.49 "/>
   <path id="_1_6" class="fil1" d="M13107.77 12653.47l4045.44 0 0 247.86 -4045.44 0 -58.35 -123.93 58.35 -123.93zm0 247.86c-32.22,0 -58.35,-55.49 -58.35,-123.93 0,-68.44 26.13,-123.93 58.35,-123.93l0 247.86zm58.35 -1087.84l0 963.91 -116.7 0 0 -963.91 58.35 -123.93 58.35 123.93zm-116.7 0c0,-68.44 26.13,-123.93 58.35,-123.93 32.22,0 58.35,55.49 58.35,123.93l-116.7 0zm4103.79 123.93l-4045.44 0 0 -247.86 4045.44 0 58.35 123.93 -58.35 123.93zm0 -247.86c32.22,0 58.35,55.49 58.35,123.93 0,68.44 -26.13,123.93 -58.35,123.93l0 -247.86zm-58.35 1087.84l0 -963.91 116.7 0 0 963.91 -58.35 123.93 -58.35 -123.93zm116.7 0c0,68.44 -26.13,123.93 -58.35,123.93 -32.22,0 -58.35,-55.49 -58.35,-123.93l116.7 0z"/>
  </g>
  <g>
   <polygon class="fil0" points="17295.85,11711.88 12952.18,11711.88 12952.18,11416.8 17295.85,11416.8 "/>
   <path id="_1_7" class="fil1" d="M12952.18 11666.09l4343.67 0 0 91.58 -4343.67 0 -58.35 -45.79 58.35 -45.79zm0 91.58c-32.22,0 -58.35,-20.51 -58.35,-45.79 0,-25.28 26.13,-45.79 58.35,-45.79l0 91.58zm58.35 -340.87l0 295.08 -116.7 0 0 -295.08 58.35 -45.79 58.35 45.79zm-116.7 0c0,-25.28 26.13,-45.79 58.35,-45.79 32.22,0 58.35,20.51 58.35,45.79l-116.7 0zm4402.02 45.79l-4343.67 0 0 -91.58 4343.67 0 58.35 45.79 -58.35 45.79zm0 -91.58c32.22,0 58.35,20.51 58.35,45.79 0,25.28 -26.13,45.79 -58.35,45.79l0 -91.58zm-58.35 340.87l0 -295.08 116.7 0 0 295.08 -58.35 45.79 -58.35 -45.79zm116.7 0c0,25.28 -26.13,45.79 -58.35,45.79 -32.22,0 -58.35,-20.51 -58.35,-45.79l116.7 0z"/>
  </g>
  <line class="fil2 str4" x1="24141.96" y1="12259.61" x2="24154.92" y2= "12246.66" />
  <g id="_2070758718128">
   <line class="fil2 str0" x1="32920.02" y1="12856.04" x2="27422.39" y2= "12856.04" />
   <polygon class="fil2 str0" points="27707.63,11792.83 32634.77,11792.83 32634.77,12000.28 27707.63,12000.28 "/>
   <polygon class="fil2 str0" points="32634.77,11792.83 32855.21,11792.83 32855.21,12000.28 32634.77,12000.28 "/>
   <polygon class="fil2 str0" points="27707.63,11792.83 27500.18,11792.83 27500.18,12000.28 27707.63,12000.28 "/>
   <line class="fil2 str0" x1="32777.41" y1="11416.8" x2="27577.98" y2= "11416.8" />
  </g>
  <g>
   <polygon class="fil0" points="32920.02,11785.43 32920.02,12754.36 35199.12,12754.36 35199.12,11785.43 "/>
   <path id="_1_8" class="fil1" d="M32811.49 12754.36l0 -968.93 217.06 0 0 968.93 -108.53 144.32 -108.53 -144.32zm217.06 0c0,79.7 -48.6,144.32 -108.53,144.32 -59.93,0 -108.53,-64.62 -108.53,-144.32l217.06 0zm2170.57 144.32l-2279.1 0 0 -288.64 2279.1 0 108.53 144.32 -108.53 144.32zm0 -288.64c59.93,0 108.53,64.62 108.53,144.32 0,79.7 -48.6,144.32 -108.53,144.32l0 -288.64zm108.53 -824.61l0 968.93 -217.06 0 0 -968.93 108.53 -144.32 108.53 144.32zm-217.06 0c0,-79.7 48.6,-144.32 108.53,-144.32 59.93,0 108.53,64.62 108.53,144.32l-217.06 0zm-2170.57 -144.32l2279.1 0 0 288.64 -2279.1 0 -108.53 -144.32 108.53 -144.32zm0 288.64c-59.93,0 -108.53,-64.62 -108.53,-144.32 0,-79.7 48.6,-144.32 108.53,-144.32l0 288.64z"/>
  </g>
  <g>
   <polygon class="fil0" points="27422.39,12774.5 22650.84,12774.5 22650.84,11803.16 27422.39,11803.16 "/>
   <path id="_1_9" class="fil1" d="M22650.84 12649.62l4771.55 0 0 249.76 -4771.55 0 -58.35 -124.88 58.35 -124.88zm0 249.76c-32.22,0 -58.35,-55.92 -58.35,-124.88 0,-68.96 26.13,-124.88 58.35,-124.88l0 249.76zm58.35 -1096.22l0 971.34 -116.7 0 0 -971.34 58.35 -124.88 58.35 124.88zm-116.7 0c0,-68.96 26.13,-124.88 58.35,-124.88 32.22,0 58.35,55.92 58.35,124.88l-116.7 0zm4829.9 124.88l-4771.55 0 0 -249.76 4771.55 0 58.35 124.88 -58.35 124.88zm0 -249.76c32.22,0 58.35,55.92 58.35,124.88 0,68.96 -26.13,124.88 -58.35,124.88l0 -249.76zm-58.35 1096.22l0 -971.34 116.7 0 0 971.34 -58.35 124.88 -58.35 -124.88zm116.7 0c0,68.96 -26.13,124.88 -58.35,124.88 -32.22,0 -58.35,-55.92 -58.35,-124.88l116.7 0z"/>
  </g>
  <g>
   <polygon class="fil0" points="27577.98,11733.8 22495.24,11733.8 22495.24,11416.8 27577.98,11416.8 "/>
   <path id="_1_10" class="fil1" d="M22495.24 11684.61l5082.74 0 0 98.38 -5082.74 0 -58.35 -49.19 58.35 -49.19zm0 98.38c-32.22,0 -58.35,-22.03 -58.35,-49.19 0,-27.16 26.13,-49.19 58.35,-49.19l0 98.38zm58.35 -366.19l0 317 -116.7 0 0 -317 58.35 -49.19 58.35 49.19zm-116.7 0c0,-27.16 26.13,-49.19 58.35,-49.19 32.22,0 58.35,22.03 58.35,49.19l-116.7 0zm5141.09 49.19l-5082.74 0 0 -98.38 5082.74 0 58.35 49.19 -58.35 49.19zm0 -98.38c32.22,0 58.35,22.03 58.35,49.19 0,27.16 -26.13,49.19 -58.35,49.19l0 -98.38zm-58.35 366.19l0 -317 116.7 0 0 317 -58.35 49.19 -58.35 -49.19zm116.7 0c0,27.16 -26.13,49.19 -58.35,49.19 -32.22,0 -58.35,-22.03 -58.35,-49.19l116.7 0z"/>
  </g>
  <text x="7526.76" y="9919.03"  class="fil3 fnt0">4.40 (1.30)</text>
  <g id="_2070758717072">
   <polyline class="fil2 str5" points="7143.36,24149.57 7298.96,24253.28 7376.75,24331.07 7415.65,24395.91 7454.55,24499.65 7454.55,24577.45 7415.65,24694.14 7376.75,24758.96 7298.96,24836.75 7143.36,24940.49 "/>
   <polyline class="fil2 str5" points="6132,24940.49 6093.11,24836.75 6054.21,24616.35 6054.21,24460.75 6093.11,24240.32 6132,24136.58 "/>
   <polyline class="fil2 str5" points="7143.36,24940.49 6987.77,25018.29 6832.18,25070.14 6676.58,25109.04 6520.99,25122.03 6443.19,25122.03 6365.4,25109.04 6287.6,25083.13 6209.8,25044.23 6132,24940.49 "/>
   <polyline class="fil2 str5" points="6132,24136.58 6209.8,24045.83 6287.6,24006.93 6365.4,23980.99 6443.19,23968.03 6520.99,23955.08 6676.58,23968.03 6832.18,24019.89 6987.77,24071.77 7143.36,24149.57 "/>
   <line class="fil2 str5" x1="5898.61" y1="24914.55" x2="6132" y2= "24940.49" />
   <line class="fil2 str5" x1="5898.61" y1="24162.52" x2="6132" y2= "24136.58" />
   <path class="fil2 str5" d="M5619.83 25316.52c161.14,0 291.74,-130.63 291.74,-291.74"/>
   <polyline class="fil2 str5" points="5613.34,23773.54 5003.95,23773.54 5003.95,25316.52 5613.34,25316.52 "/>
   <path class="fil2 str5" d="M5911.57 24052.32c0,-161.14 -130.6,-291.74 -291.74,-291.74"/>
   <line class="fil2 str5" x1="5898.61" y1="25031.24" x2="5898.61" y2= "24058.78" />
  </g>
  <polygon class="fil0 str2" points="10670.13,31812.55 10358.94,31812.55 10358.94,29608.3 10670.13,29608.3 "/>
  <polygon class="fil2 str3" points="10358.94,29465.66 10358.94,29608.3 10670.13,29608.3 10670.13,29465.66 "/>
  <polygon class="fil2 str3" points="10358.94,27131.76 10358.94,27287.35 10670.13,27287.35 10670.13,27131.76 "/>
  <text x="11147.34" y="15679.73"  class="fil3 fnt0">10.00</text>
  <text x="16873.67" y="30195.46"  class="fil3 fnt0">8.70</text>
  <text x="7736.45" y="29933.55"  class="fil3 fnt0">3.00</text>
  <polygon class="fil2 str3" points="14028.38,23566.09 14183.97,23566.09 14183.97,23254.9 14028.38,23254.9 "/>
  <polygon class="fil2 str3" points="11396.24,23566.09 11551.84,23566.09 11551.84,23254.9 11396.24,23254.9 "/>
  <polygon class="fil2 str3" points="10670.13,23566.09 10670.13,23708.7 10358.94,23708.7 10358.94,23566.09 "/>
  <g id="_2071714193584">
   <polygon class="fil0 str2" points="14183.97,23566.09 15104.55,23566.09 15104.55,12856.04 14793.36,12856.04 14793.36,23254.9 14183.97,23254.9 "/>
   <polygon class="fil0 str2" points="5003.95,23254.9 10358.94,23254.9 10358.94,23566.09 11396.24,23566.09 11396.24,23254.9 10670.13,23254.9 10670.13,22943.72 5003.95,22943.72 "/>
   <polygon class="fil0 str2" points="5003.95,26340.83 10358.94,26340.83 10358.94,27131.76 10670.13,27131.76 10670.13,26042.6 5003.95,26042.6 "/>
  </g>
  <text x="7854.94" y="25153.95"  class="fil3 fnt0">1.50</text>
  <polygon class="fil2 str3" points="23532.55,26924.31 23688.14,26924.31 23688.14,26613.12 23532.55,26613.12 "/>
  <polygon class="fil2 str3" points="20913.4,26924.31 21056,26924.31 21056,26613.12 20913.4,26613.12 "/>
  <polygon class="fil0 str2" points="14793.36,25083.13 14793.36,26924.31 20913.4,26924.31 20913.4,26613.12 15104.55,26613.12 15104.55,25083.13 "/>
  <polygon class="fil0 str2" points="23688.14,26924.31 24881.03,26924.31 24881.03,26613.12 23688.14,26613.12 "/>
  <text x="18808.31" y="20063.13"  class="fil3 fnt0">14.10</text>
  <g id="_2070759864960">
   <line class="fil2 str6" x1="7109.17" y1="16188.35" x2="7109.17" y2= "17896.06" />
   <polygon class="fil2 str7" points="5054.12,17896.06 5054.12,16188.35 7109.17,16188.35 7109.17,17896.06 "/>
   <polygon class="fil2 str7" points="7007.88,17780.31 7007.88,16289.64 5502.75,16289.64 5502.75,17780.31 "/>
   <line class="fil2 str6" x1="7007.88" y1="17780.31" x2="6776.3" y2= "17563.23" />
   <line class="fil2 str6" x1="6486.87" y1="17273.77" x2="6023.75" y2= "16810.65" />
   <line class="fil2 str6" x1="5734.29" y1="16521.22" x2="5502.75" y2= "16289.64" />
   <line class="fil2 str6" x1="5502.75" y1="17780.31" x2="5734.29" y2= "17563.23" />
   <line class="fil2 str6" x1="6023.75" y1="17273.77" x2="6486.87" y2= "16810.65" />
   <line class="fil2 str6" x1="6776.3" y1="16521.22" x2="7007.88" y2= "16289.64" />
   <line class="fil2 str6" x1="5502.75" y1="17042.22" x2="7007.88" y2= "17042.22" />
   <line class="fil2 str6" x1="6255.3" y1="17780.31" x2="6255.3" y2= "16289.64" />
   <line class="fil2 str6" x1="5502.75" y1="17042.22" x2="5734.29" y2= "16810.65" />
   <line class="fil2 str6" x1="6023.75" y1="16521.22" x2="6255.3" y2= "16289.64" />
   <line class="fil2 str6" x1="6255.3" y1="17780.31" x2="6486.87" y2= "17563.23" />
   <polyline class="fil2 str6" points="6776.3,17273.77 7007.88,17042.22 6776.3,16810.65 "/>
   <line class="fil2 str6" x1="6486.87" y1="16521.22" x2="6255.3" y2= "16289.64" />
   <line class="fil2 str6" x1="6255.3" y1="17780.31" x2="6023.75" y2= "17563.23" />
   <line class="fil2 str6" x1="5734.29" y1="17273.77" x2="5502.75" y2= "17042.22" />
   <path class="fil2 str6" d="M5821.13 17411.27c0,35.96 29.16,65.12 65.12,65.12 36,0 65.13,-29.16 65.13,-65.12 0,-35.97 -29.13,-65.13 -65.13,-65.13 -35.96,0 -65.12,29.16 -65.12,65.13z"/>
   <path class="fil2 str6" d="M5821.13 16658.69c0,36 29.16,65.12 65.12,65.12 36,0 65.13,-29.12 65.13,-65.12 0,-35.97 -29.13,-65.13 -65.13,-65.13 -35.96,0 -65.12,29.16 -65.12,65.13z"/>
   <path class="fil2 str6" d="M6573.71 17411.27c0,35.96 29.16,65.12 65.12,65.12 35.97,0 65.13,-29.16 65.13,-65.12 0,-35.97 -29.16,-65.13 -65.13,-65.13 -35.96,0 -65.12,29.16 -65.12,65.13z"/>
   <path class="fil2 str6" d="M6573.71 16658.69c0,36 29.16,65.12 65.12,65.12 35.97,0 65.13,-29.12 65.13,-65.12 0,-35.97 -29.16,-65.13 -65.13,-65.13 -35.96,0 -65.12,29.16 -65.12,65.13z"/>
   <line class="fil2 str7" x1="5401.46" y1="17896.06" x2="5401.46" y2= "16188.35" />
   <line class="fil2 str6" x1="5372.5" y1="17809.23" x2="5372.5" y2= "16275.18" />
   <polyline class="fil2 str6" points="5083.04,16275.18 5083.04,17809.23 5372.5,17809.23 "/>
   <line class="fil2 str6" x1="5083.04" y1="17635.56" x2="5372.5" y2= "17635.56" />
   <line class="fil2 str6" x1="5083.04" y1="17722.4" x2="5372.5" y2= "17722.4" />
   <line class="fil2 str6" x1="5083.04" y1="17548.73" x2="5372.5" y2= "17548.73" />
   <line class="fil2 str6" x1="5083.04" y1="17461.9" x2="5372.5" y2= "17461.9" />
   <line class="fil2 str6" x1="5083.04" y1="17288.23" x2="5372.5" y2= "17288.23" />
   <line class="fil2 str6" x1="5083.04" y1="17375.06" x2="5372.5" y2= "17375.06" />
   <line class="fil2 str6" x1="5083.04" y1="17201.4" x2="5372.5" y2= "17201.4" />
   <line class="fil2 str6" x1="5083.04" y1="17129.06" x2="5372.5" y2= "17129.06" />
   <line class="fil2 str6" x1="5083.04" y1="16955.39" x2="5372.5" y2= "16955.39" />
   <line class="fil2 str6" x1="5083.04" y1="17042.22" x2="5372.5" y2= "17042.22" />
   <line class="fil2 str6" x1="5083.04" y1="16868.56" x2="5372.5" y2= "16868.56" />
   <line class="fil2 str6" x1="5083.04" y1="16781.72" x2="5372.5" y2= "16781.72" />
   <line class="fil2 str6" x1="5083.04" y1="16608.06" x2="5372.5" y2= "16608.06" />
   <line class="fil2 str6" x1="5083.04" y1="16694.89" x2="5372.5" y2= "16694.89" />
   <line class="fil2 str6" x1="5083.04" y1="16521.22" x2="5372.5" y2= "16521.22" />
   <line class="fil2 str6" x1="5083.04" y1="16434.39" x2="5372.5" y2= "16434.39" />
   <line class="fil2 str6" x1="5083.04" y1="16275.18" x2="5372.5" y2= "16275.18" />
   <line class="fil2 str6" x1="5083.04" y1="16362.02" x2="5372.5" y2= "16362.02" />
   <line class="fil2 str6" x1="7138.13" y1="17375.06" x2="7167.05" y2= "17375.06" />
   <path class="fil2 str6" d="M7145.34 17404.02c20,0 36.2,-16.2 36.2,-36.17 0,-20 -16.2,-36.17 -36.2,-36.17"/>
   <polyline class="fil2 str6" points="7109.17,17418.48 7138.13,17418.48 7138.13,17375.06 7138.13,17331.65 7109.17,17331.65 "/>
   <line class="fil2 str6" x1="7138.13" y1="17042.22" x2="7167.05" y2= "17042.22" />
   <path class="fil2 str6" d="M7145.34 17071.18c20,0 36.2,-16.2 36.2,-36.2 0,-19.97 -16.2,-36.17 -36.2,-36.17"/>
   <polyline class="fil2 str6" points="7109.17,17085.64 7138.13,17085.64 7138.13,17042.22 7138.13,16998.81 7109.17,16998.81 "/>
   <line class="fil2 str6" x1="7138.13" y1="16694.89" x2="7167.05" y2= "16694.89" />
   <path class="fil2 str6" d="M7145.34 16723.85c20,0 36.2,-16.21 36.2,-36.21 0,-19.96 -16.2,-36.17 -36.2,-36.17"/>
   <polyline class="fil2 str6" points="7109.17,16738.31 7138.13,16738.31 7138.13,16694.89 7138.13,16651.47 7109.17,16651.47 "/>
   <line class="fil2 str6" x1="7138.13" y1="17215.89" x2="7167.05" y2= "17215.89" />
   <path class="fil2 str6" d="M7145.34 17244.85c20,0 36.2,-16.21 36.2,-36.21 0,-19.96 -16.2,-36.17 -36.2,-36.17"/>
   <polyline class="fil2 str6" points="7109.17,17259.31 7138.13,17259.31 7138.13,17215.89 7138.13,17157.98 7109.17,17157.98 "/>
   <line class="fil2 str6" x1="7138.13" y1="16868.56" x2="7167.05" y2= "16868.56" />
   <path class="fil2 str6" d="M7145.34 16897.51c20,0 36.2,-16.2 36.2,-36.2 0,-19.96 -16.2,-36.17 -36.2,-36.17"/>
   <polyline class="fil2 str6" points="7109.17,16911.97 7138.13,16911.97 7138.13,16868.56 7138.13,16825.14 7109.17,16825.14 "/>
  </g>
  <g id="_2070759864048">
   <rect class="fil4 str8" x="15449.26" y="7748.51" width="347.36" height="3759.62"/>
   <rect class="fil4 str8" x="4322.51" y="7730.94" width="347.36" height="3798.44"/>
   <rect class="fil4 str8" transform="matrix(-1.92397E-13 1.29186 4.29855 2.51327E-13 4322.5 7510.13)" width="253.39" height="2669.48"/>
  </g>
  <g>
   <polygon class="fil0" points="35889.28,11733.8 32755.28,11733.8 32755.28,11416.8 35889.28,11416.8 "/>
   <path id="_1_11" class="fil1" d="M32755.28 11684.61l3134 0 0 98.38 -3134 0 -35.98 -49.19 35.98 -49.19zm0 98.38c-19.87,0 -35.98,-22.03 -35.98,-49.19 0,-27.16 16.11,-49.19 35.98,-49.19l0 98.38zm35.98 -366.19l0 317 -71.96 0 0 -317 35.98 -49.19 35.98 49.19zm-71.96 0c0,-27.16 16.11,-49.19 35.98,-49.19 19.87,0 35.98,22.03 35.98,49.19l-71.96 0zm3169.98 49.19l-3134 0 0 -98.38 3134 0 35.98 49.19 -35.98 49.19zm0 -98.38c19.87,0 35.98,22.03 35.98,49.19 0,27.16 -16.11,49.19 -35.98,49.19l0 -98.38zm-35.98 366.19l0 -317 71.96 0 0 317 -35.98 49.19 -35.98 -49.19zm71.96 0c0,27.16 -16.11,49.19 -35.98,49.19 -19.87,0 -35.98,-22.03 -35.98,-49.19l71.96 0z"/>
  </g>
  <rect class="fil4 str8" x="5217.3" y="11416.8" width="3242.29" height="1494.7"/>
  <g id="_2070759858048">
   <rect class="fil5 str9" transform="matrix(0.903319 0.000167718 -0.000167718 0.903319 5026.31 26325.9)" width="2611.41" height="5846.68"/>
   <path class="fil5 str9" d="M5294.94 30639.64c-49.47,-1160.01 -17.07,-2306.38 -25.58,-3459.56 -5.74,-403.6 9.18,-609.62 436.39,-603 353.57,0.07 707.1,0.13 1060.66,0.2 300.22,-3.67 413.13,86.14 390.1,588.63 -8.95,1158.01 9.42,2316.06 -26.83,3474.07 -110.69,919.68 -1669.93,1012.82 -1834.74,-0.34z"/>
   <circle class="fil5 str9" transform="matrix(0.903319 0.000167718 -0.000167718 0.903319 6225.08 26932.1)" r="121.03"/>
  </g>
  <g id="_2070759857760">
   <path class="fil5 str10" d="M7852 26351.1c6.62,700.03 -207.1,1352.94 649.87,1443.21 279.08,23.01 545.44,13.16 819.44,-25.29 701.8,-155.75 481.45,-759 493.2,-1428.2"/>
   <path class="fil5 str9" d="M7960.41 26866.7c-1.94,-92.36 66.84,-181.58 143.29,-223.78 509.14,0 993.99,0 1503.14,0 71.89,15.84 88.03,65.66 112.39,173.69 36.8,983.28 -636.06,774.67 -1246.48,791.81 -441.91,-43.65 -492.97,-360.72 -512.34,-741.72z"/>
   <circle class="fil5 str9" cx="8852.52" cy="26787.48" r="100.44"/>
   <path class="fil5 str9" d="M8192.93 26821.65c-1.38,-73.77 47.72,-145.04 102.31,-178.73 363.52,0 709.71,0 1073.24,0 51.34,12.65 62.86,52.43 80.25,138.72 64.3,775.36 -387.07,629.01 -889.98,632.4 -329.37,-6.13 -365.82,-301.36 -365.82,-592.39z"/>
  </g>
  <path class="fil5 str11" d="M10444.41 23725.14c1107.03,175.1 2062.51,996.45 2460.85,2131.9 -761.65,0 -1699.31,16.53 -2460.99,16.53"/>
  <polygon class="fil2 str12" points="10670.13,25871.01 10670.13,26013.62 10358.94,26013.62 10358.94,25871.01 "/>
  <path class="fil5 str11" d="M11574.6 23532.71c197.88,-1251.05 1126.08,-2330.84 2409.25,-2781 0,860.74 18.68,1920.38 18.68,2781.15"/>
  <path class="fil5 str11" d="M10472.15 12591.74c-25.77,1047.85 -782.37,1811.15 -1820.61,2110.81 0,-661.01 -14.16,-1474.72 -14.16,-2135.73"/>
  <rect class="fil5 str13" x="8459.59" y="12336.81" width="184.33" height="374.18" rx="10.33" ry="10.33"/>
  <rect class="fil5 str13" x="10472.15" y="12336.81" width="184.33" height="374.18" rx="10.33" ry="10.33"/>
  <path class="fil5 str11" d="M21078.47 26899.97c197.88,-1251.06 1126.08,-2330.84 2409.25,-2781 0,860.73 18.68,1920.38 18.68,2781.15"/>
  <path class="fil5 str11" d="M24881.03 27378.15c1188.78,166.58 2573.64,1174.24 2855.39,2447.53 -888.16,0 -1981.57,19.28 -2869.77,19.28"/>
  <path class="fil5 str11" d="M10444.41 27286.51c1107.03,175.1 2062.51,996.45 2460.85,2131.9 -761.65,0 -1699.31,16.53 -2460.99,16.53"/>
  <polygon class="fil2 str14" points="20050.61,32405.46 19841.55,32405.46 19841.55,32004.78 20050.61,32004.78 "/>
  <path class="fil5 str11" d="M22667.31 32086.52c-397.54,1705.67 -1369.64,2528.26 -2628.15,2760.3 0,-860.74 -19.64,-1920.39 -19.64,-2781.15"/>
  <g id="_2070759851328">
   <rect class="fil5 str15" transform="matrix(-6.56214E-14 -0.743609 0.825908 -5.90825E-14 4315.04 7502.07)" width="2496.64" height="5813.27"/>
   <line class="fil5 str15" x1="4308.78" y1="7505.06" x2="9110" y2= "5648.54" />
   <line class="fil5 str15" x1="4315.06" y1="5645.54" x2="9078.9" y2= "7456.5" />
  </g>
  <rect class="fil4 str8" x="14736.94" y="23594.3" width="415.31" height="1517.04"/>
  <path class="fil0" d="M4633.43 20362.77l-4.91 0c0,-2.71 2.2,-4.91 4.91,-4.91 2.71,0 4.91,2.2 4.91,4.91 0,2.71 -2.2,4.92 -4.91,4.92 -2.71,0 -4.91,-2.21 -4.91,-4.92l4.91 0z"/>
  <g id="_2070759851088">
   <path class="fil5 str16" d="M5059.81 18516.49l0 1763.47c-0.01,65.69 53.27,118.96 118.95,118.96l1786.6 0c65.68,0 118.96,-53.27 118.96,-118.96l0 -1763.47c0,-65.68 -53.28,-118.95 -118.96,-118.95l-1786.59 -0.01c-65.69,0.01 -118.97,53.28 -118.97,118.97z"/>
   <rect class="fil5 str16" transform="matrix(-1.83281E-14 0.69203 0.69203 1.83281E-14 5406.88 18582.6)" width="2373.81" height="2106.33"/>
   <circle class="fil5 str17" transform="matrix(-1.83281E-14 0.69203 0.69203 1.83281E-14 5707.65 19785.8)" r="183.89"/>
  </g>
 </g>
</svg>
