<?xml version="1.0" encoding="UTF-8"?>
<!DOCTYPE svg PUBLIC "-//W3C//DTD SVG 1.1//EN" "http://www.w3.org/Graphics/SVG/1.1/DTD/svg11.dtd">
<!-- Creator: CorelDRAW -->
<svg xmlns="http://www.w3.org/2000/svg" xml:space="preserve" width="400mm" height="400mm" version="1.1" style="shape-rendering:geometricPrecision; text-rendering:geometricPrecision; image-rendering:optimizeQuality; fill-rule:evenodd; clip-rule:evenodd"
viewBox="0 0 40000 40000"
 xmlns:xlink="http://www.w3.org/1999/xlink"
 xmlns:xodm="http://www.corel.com/coreldraw/odm/2003">
 <defs>
  <style type="text/css">
   <![CDATA[
    .str3 {stroke:black;stroke-width:50;stroke-miterlimit:22.9256}
    .str2 {stroke:#1F1B20;stroke-width:16.9;stroke-miterlimit:22.9256}
    .str7 {stroke:#1F1B20;stroke-width:40;stroke-miterlimit:22.9256}
    .str6 {stroke:#3A3A3A;stroke-width:40;stroke-miterlimit:22.9256}
    .str5 {stroke:#2B2A29;stroke-width:40;stroke-miterlimit:22.9256}
    .str1 {stroke:black;stroke-width:20;stroke-miterlimit:22.9256}
    .str9 {stroke:#2B2A29;stroke-width:25.4;stroke-miterlimit:22.9256}
    .str0 {stroke:black;stroke-width:7.62;stroke-miterlimit:22.9256}
    .str8 {stroke:black;stroke-width:40;stroke-linecap:round;stroke-linejoin:round;stroke-miterlimit:22.9256}
    .str4 {stroke:#2B2A29;stroke-width:40;stroke-linecap:round;stroke-linejoin:round;stroke-miterlimit:22.9256}
    .fil5 {fill:none}
    .fil2 {fill:none;fill-rule:nonzero}
    .fil3 {fill:black}
    .fil4 {fill:black}
    .fil1 {fill:black;fill-rule:nonzero}
    .fil0 {fill:black;fill-rule:nonzero}
    .fnt0 {font-weight:normal;font-size:1269.31px;font-family:'Arial'}
   ]]>
  </style>
 </defs>
 <g id="Слой_x0020_1">
  <metadata id="CorelCorpID_0Corel-Layer"/>
  <g>
   <polygon class="fil0" points="32505.82,9152.88 32505.82,33278.52 33263.37,33278.52 33263.37,9152.88 "/>
   <path id="_1" class="fil1" d="M32433.29 33278.52l0 -24125.64 145.06 0 0 24125.64 -72.53 209.18 -72.53 -209.18zm145.06 0c0,115.52 -32.48,209.18 -72.53,209.18 -40.05,0 -72.53,-93.66 -72.53,-209.18l145.06 0zm685.02 209.18l-757.55 0 0 -418.36 757.55 0 72.53 209.18 -72.53 209.18zm0 -418.36c40.05,0 72.53,93.66 72.53,209.18 0,115.52 -32.48,209.18 -72.53,209.18l0 -418.36zm72.53 -23916.46l0 24125.64 -145.06 0 0 -24125.64 72.53 -209.18 72.53 209.18zm-145.06 0c0,-115.52 32.48,-209.18 72.53,-209.18 40.05,0 72.53,93.66 72.53,209.18l-145.06 0zm-685.02 -209.18l757.55 0 0 418.36 -757.55 0 -72.53 -209.18 72.53 -209.18zm0 418.36c-40.05,0 -72.53,-93.66 -72.53,-209.18 0,-115.52 32.48,-209.18 72.53,-209.18l0 418.36z"/>
  </g>
  <g>
   <polygon class="fil0" points="32475.82,10022.34 29735.79,10022.34 29735.79,10423.68 32475.82,10423.68 "/>
   <path id="_1_0" class="fil1" d="M29735.79 9962.56l2740.03 0 0 119.56 -2740.03 0 -112.83 -59.78 112.83 -59.78zm0 119.56c-62.31,0 -112.83,-26.77 -112.83,-59.78 0,-33.01 50.52,-59.78 112.83,-59.78l0 119.56zm-112.83 341.56l0 -401.34 225.66 0 0 401.34 -112.83 59.78 -112.83 -59.78zm225.66 0c0,33.01 -50.52,59.78 -112.83,59.78 -62.31,0 -112.83,-26.77 -112.83,-59.78l225.66 0zm2627.2 59.78l-2740.03 0 0 -119.56 2740.03 0 112.83 59.78 -112.83 59.78zm0 -119.56c62.31,0 112.83,26.77 112.83,59.78 0,33.01 -50.52,59.78 -112.83,59.78l0 -119.56zm112.83 -341.56l0 401.34 -225.66 0 0 -401.34 112.83 -59.78 112.83 59.78zm-225.66 0c0,-33.01 50.52,-59.78 112.83,-59.78 62.31,0 112.83,26.77 112.83,59.78l-225.66 0z"/>
  </g>
  <g>
   <path class="fil1" d="M29765.79 10381.43c31.15,0 56.41,24.15 56.41,53.93 0,29.78 -25.26,53.93 -56.41,53.93l0 -107.86zm-6850.02 0l6850.02 0 0 107.86 -6850.02 0 0 -107.86zm0 107.86c-31.15,0 -56.41,-24.15 -56.41,-53.93 0,-29.78 25.26,-53.93 56.41,-53.93l0 107.86z"/>
  </g>
  <g>
   <path class="fil1" d="M29411.21 9536.85l-6174.76 0 0 -107.86 6174.76 0 56.87 53.93 -56.87 53.93zm0 -107.86c31.4,0 56.87,24.15 56.87,53.93 0,29.78 -25.47,53.93 -56.87,53.93l0 -107.86zm-56.87 300.51l0 -246.58 113.74 0 0 246.58 -56.87 53.93 -56.87 -53.93zm113.74 0c0,29.78 -25.47,53.93 -56.87,53.93 -31.4,0 -56.87,-24.15 -56.87,-53.93l113.74 0zm-6231.63 -53.93l6174.76 0 0 107.86 -6174.76 0 -56.87 -53.93 56.87 -53.93zm0 107.86c-31.4,0 -56.87,-24.15 -56.87,-53.93 0,-29.78 25.47,-53.93 56.87,-53.93l0 107.86zm56.87 -300.51l0 246.58 -113.74 0 0 -246.58 56.87 -53.93 56.87 53.93zm-113.74 0c0,-29.78 25.47,-53.93 56.87,-53.93 31.4,0 56.87,24.15 56.87,53.93l-113.74 0z"/>
  </g>
  <g>
   <path class="fil1" d="M29669.08 9536.85l-257.87 0 0 -107.86 257.87 0 56.41 53.93 -56.41 53.93zm0 -107.86c31.15,0 56.41,24.15 56.41,53.93 0,29.78 -25.26,53.93 -56.41,53.93l0 -107.86zm-56.41 300.51l0 -246.58 112.82 0 0 246.58 -56.41 53.93 -56.41 -53.93zm112.82 0c0,29.78 -25.26,53.93 -56.41,53.93 -31.15,0 -56.41,-24.15 -56.41,-53.93l112.82 0zm-314.28 -53.93l257.87 0 0 107.86 -257.87 0 -56.41 -53.93 56.41 -53.93zm0 107.86c-31.15,0 -56.41,-24.15 -56.41,-53.93 0,-29.78 25.26,-53.93 56.41,-53.93l0 107.86zm56.41 -300.51l0 246.58 -112.82 0 0 -246.58 56.41 -53.93 56.41 53.93zm-112.82 0c0,-29.78 25.26,-53.93 56.41,-53.93 31.15,0 56.41,24.15 56.41,53.93l-112.82 0z"/>
  </g>
  <g>
   <path class="fil1" d="M22962.47 9428.99l273.98 0 0 107.86 -273.98 0 -56.41 -53.93 56.41 -53.93zm0 107.86c-31.15,0 -56.41,-24.15 -56.41,-53.93 0,-29.78 25.26,-53.93 56.41,-53.93l0 107.86zm-56.41 192.65l0 -246.58 112.82 0 0 246.58 -56.41 53.93 -56.41 -53.93zm112.82 0c0,29.78 -25.26,53.93 -56.41,53.93 -31.15,0 -56.41,-24.15 -56.41,-53.93l112.82 0zm217.57 53.93l-273.98 0 0 -107.86 273.98 0 56.41 53.93 -56.41 53.93zm0 -107.86c31.15,0 56.41,24.15 56.41,53.93 0,29.78 -25.26,53.93 -56.41,53.93l0 -107.86zm56.41 -192.65l0 246.58 -112.82 0 0 -246.58 56.41 -53.93 56.41 53.93zm-112.82 0c0,-29.78 25.26,-53.93 56.41,-53.93 31.15,0 56.41,24.15 56.41,53.93l-112.82 0z"/>
  </g>
  <g>
   <path class="fil1" d="M29572.37 8982.04c31.15,0 56.41,24.15 56.41,53.93 0,29.78 -25.26,53.93 -56.41,53.93l0 -107.86zm-6463.19 0l6463.19 0 0 107.86 -6463.19 0 0 -107.86zm0 107.86c-31.15,0 -56.41,-24.15 -56.41,-53.93 0,-29.78 25.26,-53.93 56.41,-53.93l0 107.86z"/>
  </g>
  <g>
   <polygon class="fil0" points="33292.58,33278.52 19405.98,33278.52 19405.98,34002.84 33287.34,34002.84 "/>
   <path id="_1_1" class="fil1" d="M19405.98 33209.17l13886.6 0 0 138.7 -13886.6 0 -47.72 -69.35 47.72 -69.35zm0 138.7c-26.35,0 -47.72,-31.05 -47.72,-69.35 0,-38.3 21.37,-69.35 47.72,-69.35l0 138.7zm-47.72 654.97l0 -724.32 95.44 0 0 724.32 -47.72 69.35 -47.72 -69.35zm95.44 0c0,38.3 -21.37,69.35 -47.72,69.35 -26.35,0 -47.72,-31.05 -47.72,-69.35l95.44 0zm13833.64 69.35l-13881.36 0 0 -138.7 13881.36 0 47.72 70.08 -47.72 68.62zm0 -138.7c26.35,0 47.72,31.05 47.72,69.35 0,38.3 -21.37,69.35 -47.72,69.35l0 -138.7zm52.96 -654.24l-5.24 724.32 -95.44 -1.46 5.24 -724.32 47.72 -68.62 47.72 70.08zm-95.44 -1.46c0.27,-38.3 21.87,-69.02 48.22,-68.62 26.35,0.4 47.49,31.78 47.22,70.08l-95.44 -1.46z"/>
  </g>
  <g id="_2070933409824">
   <g>
    <line class="fil2 str0" x1="11275.86" y1="18473.29" x2="11275.86" y2= "20856.39" />
   </g>
   <g>
    <path class="fil1" d="M8318.9 18473.29l0 2383.1 -84.46 0 0 -2383.1 42.23 -40.38 42.23 40.38zm-84.46 0c0,-22.3 18.91,-40.38 42.23,-40.38 23.32,0 42.23,18.08 42.23,40.38l-84.46 0zm3041.42 40.38l-2999.19 0 0 -80.76 2999.19 0 42.23 40.38 -42.23 40.38zm0 -80.76c23.32,0 42.23,18.08 42.23,40.38 0,22.3 -18.91,40.38 -42.23,40.38l0 -80.76zm-42.23 2423.48l0 -2383.1 84.46 0 0 2383.1 -42.23 40.38 -42.23 -40.38zm84.46 0c0,22.3 -18.91,40.38 -42.23,40.38 -23.32,0 -42.23,-18.08 -42.23,-40.38l84.46 0zm-3041.42 -40.38l2999.19 0 0 80.76 -2999.19 0 -42.23 -40.38 42.23 -40.38zm0 80.76c-23.32,0 -42.23,-18.08 -42.23,-40.38 0,-22.3 18.91,-40.38 42.23,-40.38l0 80.76z"/>
   </g>
   <g>
    <path class="fil1" d="M11170.26 18614.65l0 2100.38 -84.46 0 0 -2100.38 42.23 -40.38 42.23 40.38zm-84.46 0c0,-22.3 18.91,-40.38 42.23,-40.38 23.32,0 42.23,18.08 42.23,40.38l-84.46 0zm-2154.39 -40.38l2196.62 0 0 80.76 -2196.62 0 -42.23 -40.38 42.23 -40.38zm0 80.76c-23.32,0 -42.23,-18.08 -42.23,-40.38 0,-22.3 18.91,-40.38 42.23,-40.38l0 80.76zm-42.23 2060l0 -2100.38 84.46 0 0 2100.38 -42.23 40.38 -42.23 -40.38zm84.46 0c0,22.3 -18.91,40.38 -42.23,40.38 -23.32,0 -42.23,-18.08 -42.23,-40.38l84.46 0zm2154.39 40.38l-2196.62 0 0 -80.76 2196.62 0 42.23 40.38 -42.23 40.38zm0 -80.76c23.32,0 42.23,18.08 42.23,40.38 0,22.3 -18.91,40.38 -42.23,40.38l0 -80.76z"/>
   </g>
   <g>
    <line class="fil2 str0" x1="11128.03" y1="20715.03" x2="10790.06" y2= "20391.87" />
   </g>
   <g>
    <line class="fil2 str0" x1="10367.67" y1="19987.98" x2="9691.78" y2= "19341.7" />
   </g>
   <g>
    <line class="fil2 str0" x1="9269.34" y1="18937.76" x2="8931.41" y2= "18614.65" />
   </g>
   <g>
    <line class="fil2 str0" x1="8931.41" y1="20715.03" x2="9269.34" y2= "20391.87" />
   </g>
   <g>
    <line class="fil2 str0" x1="9691.78" y1="19987.98" x2="10367.67" y2= "19341.7" />
   </g>
   <g>
    <line class="fil2 str0" x1="10790.06" y1="18937.76" x2="11128.03" y2= "18614.65" />
   </g>
   <g>
    <line class="fil2 str0" x1="8931.41" y1="19664.82" x2="11128.03" y2= "19664.82" />
   </g>
   <g>
    <line class="fil2 str0" x1="10029.7" y1="20715.03" x2="10029.7" y2= "18614.65" />
   </g>
   <g>
    <line class="fil2 str0" x1="8931.41" y1="19664.82" x2="9269.34" y2= "19341.7" />
   </g>
   <g>
    <line class="fil2 str0" x1="9691.78" y1="18937.76" x2="10029.7" y2= "18614.65" />
   </g>
   <g>
    <line class="fil2 str0" x1="10029.7" y1="20715.03" x2="10367.67" y2= "20391.87" />
   </g>
   <g>
    <polyline class="fil2 str0" points="10790.06,19987.98 11128.03,19664.82 10790.06,19341.7 "/>
   </g>
   <g>
    <line class="fil2 str0" x1="10367.67" y1="18937.76" x2="10029.7" y2= "18614.65" />
   </g>
   <g>
    <line class="fil2 str0" x1="10029.7" y1="20715.03" x2="9691.78" y2= "20391.87" />
   </g>
   <g>
    <line class="fil2 str0" x1="9269.34" y1="19987.98" x2="8931.41" y2= "19664.82" />
   </g>
   <g>
    <path class="fil2 str0" d="M9396.06 20179.81c0,50.24 42.56,90.88 95.05,90.88 52.49,0 95.04,-40.64 95.04,-90.88 0,-50.19 -42.55,-90.88 -95.04,-90.88 -52.49,0 -95.05,40.69 -95.05,90.88z"/>
   </g>
   <g>
    <path class="fil2 str0" d="M9396.06 19129.64c0,50.19 42.56,90.88 95.05,90.88 52.49,0 95.04,-40.69 95.04,-90.88 0,-50.19 -42.55,-90.88 -95.04,-90.88 -52.49,0 -95.05,40.69 -95.05,90.88z"/>
   </g>
   <g>
    <path class="fil2 str0" d="M10494.4 20179.81c0,50.24 42.51,90.88 95.04,90.88 52.49,0 95.05,-40.64 95.05,-90.88 0,-50.19 -42.56,-90.88 -95.05,-90.88 -52.53,0 -95.04,40.69 -95.04,90.88z"/>
   </g>
   <g>
    <path class="fil2 str0" d="M10494.4 19129.64c0,50.19 42.51,90.88 95.04,90.88 52.49,0 95.05,-40.69 95.05,-90.88 0,-50.19 -42.56,-90.88 -95.05,-90.88 -52.53,0 -95.04,40.69 -95.04,90.88z"/>
   </g>
   <g>
    <path class="fil1" d="M8825.81 20856.39c0,22.3 -18.91,40.38 -42.23,40.38 -23.32,0 -42.23,-18.08 -42.23,-40.38l84.46 0zm0 -2383.1l0 2383.1 -84.46 0 0 -2383.1 84.46 0zm-84.46 0c0,-22.3 18.91,-40.38 42.23,-40.38 23.32,0 42.23,18.08 42.23,40.38l-84.46 0z"/>
   </g>
   <g>
    <line class="fil2 str0" x1="8741.32" y1="20735.21" x2="8741.32" y2= "18594.47" />
   </g>
   <g>
    <polyline class="fil2 str0" points="8318.88,18594.47 8318.88,20735.21 8741.32,20735.21 "/>
   </g>
   <g>
    <line class="fil2 str0" x1="8318.88" y1="20513.04" x2="8741.32" y2= "20513.04" />
   </g>
   <g>
    <line class="fil2 str0" x1="8318.88" y1="20634.22" x2="8741.32" y2= "20634.22" />
   </g>
   <g>
    <line class="fil2 str0" x1="8318.88" y1="20391.87" x2="8741.32" y2= "20391.87" />
   </g>
   <g>
    <line class="fil2 str0" x1="8318.88" y1="20270.69" x2="8741.32" y2= "20270.69" />
   </g>
   <g>
    <line class="fil2 str0" x1="8318.88" y1="20028.34" x2="8741.32" y2= "20028.34" />
   </g>
   <g>
    <line class="fil2 str0" x1="8318.88" y1="20149.52" x2="8741.32" y2= "20149.52" />
   </g>
   <g>
    <line class="fil2 str0" x1="8318.88" y1="19907.17" x2="8741.32" y2= "19907.17" />
   </g>
   <g>
    <line class="fil2 str0" x1="8318.88" y1="19785.99" x2="8741.32" y2= "19785.99" />
   </g>
   <g>
    <line class="fil2 str0" x1="8318.88" y1="19543.64" x2="8741.32" y2= "19543.64" />
   </g>
   <g>
    <line class="fil2 str0" x1="8318.88" y1="19664.82" x2="8741.32" y2= "19664.82" />
   </g>
   <g>
    <line class="fil2 str0" x1="8318.88" y1="19442.69" x2="8741.32" y2= "19442.69" />
   </g>
   <g>
    <line class="fil2 str0" x1="8318.88" y1="19321.52" x2="8741.32" y2= "19321.52" />
   </g>
   <g>
    <line class="fil2 str0" x1="8318.88" y1="19079.17" x2="8741.32" y2= "19079.17" />
   </g>
   <g>
    <line class="fil2 str0" x1="8318.88" y1="19200.34" x2="8741.32" y2= "19200.34" />
   </g>
   <g>
    <line class="fil2 str0" x1="8318.88" y1="18957.99" x2="8741.32" y2= "18957.99" />
   </g>
   <g>
    <line class="fil2 str0" x1="8318.88" y1="18836.82" x2="8741.32" y2= "18836.82" />
   </g>
   <g>
    <line class="fil2 str0" x1="8318.88" y1="18594.47" x2="8741.32" y2= "18594.47" />
   </g>
   <g>
    <line class="fil2 str0" x1="8318.88" y1="18715.64" x2="8741.32" y2= "18715.64" />
   </g>
   <g>
    <line class="fil2 str0" x1="11318.12" y1="20149.52" x2="11381.49" y2= "20149.52" />
   </g>
   <g>
    <path class="fil2 str0" d="M11328.65 20189.93c29.19,0 52.79,-22.62 52.79,-50.48 0,-27.91 -23.6,-50.47 -52.79,-50.47"/>
   </g>
   <g>
    <polyline class="fil2 str0" points="11275.86,20210.11 11318.12,20210.11 11318.12,20149.52 11318.12,20088.93 11275.86,20088.93 "/>
   </g>
   <g>
    <line class="fil2 str0" x1="11318.12" y1="19664.82" x2="11360.33" y2= "19664.82" />
   </g>
   <g>
    <path class="fil2 str0" d="M11328.65 19705.22c29.19,0 52.79,-22.61 52.79,-50.47 0,-27.91 -23.6,-50.47 -52.79,-50.47"/>
   </g>
   <g>
    <polyline class="fil2 str0" points="11275.86,19725.4 11318.12,19725.4 11318.12,19664.82 11318.12,19604.23 11275.86,19604.23 "/>
   </g>
   <g>
    <line class="fil2 str0" x1="11318.12" y1="19200.34" x2="11360.33" y2= "19200.34" />
   </g>
   <g>
    <path class="fil2 str0" d="M11328.65 19240.75c29.19,0 52.79,-22.61 52.79,-50.52 0,-27.86 -23.6,-50.47 -52.79,-50.47"/>
   </g>
   <g>
    <polyline class="fil2 str0" points="11275.86,19260.93 11318.12,19260.93 11318.12,19200.34 11318.12,19139.76 11275.86,19139.76 "/>
   </g>
   <g>
    <line class="fil2 str0" x1="11318.12" y1="19907.17" x2="11360.33" y2= "19907.17" />
   </g>
   <g>
    <path class="fil2 str0" d="M11328.65 19947.57c29.19,0 52.79,-22.61 52.79,-50.47 0,-27.91 -23.6,-50.47 -52.79,-50.47"/>
   </g>
   <g>
    <polyline class="fil2 str0" points="11275.86,19967.75 11318.12,19967.75 11318.12,19907.17 11318.12,19846.58 11275.86,19846.58 "/>
   </g>
   <g>
    <line class="fil2 str0" x1="11318.12" y1="19442.69" x2="11360.33" y2= "19442.69" />
   </g>
   <g>
    <path class="fil2 str0" d="M11328.65 19483.1c29.19,0 52.79,-22.61 52.79,-50.52 0,-27.86 -23.6,-50.47 -52.79,-50.47"/>
   </g>
   <g>
    <polyline class="fil2 str0" points="11275.86,19503.28 11318.12,19503.28 11318.12,19442.69 11318.12,19382.11 11275.86,19382.11 "/>
   </g>
  </g>
  <g id="_2070933409680">
   <g>
    <polygon class="fil0" points="8168.02,25279.87 8168.02,24925.39 15662.78,24925.39 15662.78,25279.87 "/>
    <path id="_1_2" class="fil1" d="M8240.55 24925.39l0 354.48 -145.06 0 0 -354.48 72.53 -69.35 72.53 69.35zm-145.06 0c0,-38.3 32.48,-69.35 72.53,-69.35 40.05,0 72.53,31.05 72.53,69.35l-145.06 0zm7567.29 69.35l-7494.76 0 0 -138.7 7494.76 0 72.53 69.35 -72.53 69.35zm0 -138.7c40.05,0 72.53,31.05 72.53,69.35 0,38.3 -32.48,69.35 -72.53,69.35l0 -138.7zm-72.53 423.83l0 -354.48 145.06 0 0 354.48 -72.53 69.35 -72.53 -69.35zm145.06 0c0,38.3 -32.48,69.35 -72.53,69.35 -40.05,0 -72.53,-31.05 -72.53,-69.35l145.06 0zm-7567.29 -69.35l7494.76 0 0 138.7 -7494.76 0 -72.53 -69.35 72.53 -69.35zm0 138.7c-40.05,0 -72.53,-31.05 -72.53,-69.35 0,-38.3 32.48,-69.35 72.53,-69.35l0 138.7z"/>
   </g>
   <g>
    <polygon class="fil0" points="15211.45,27360.45 14824.63,27360.45 14824.63,25279.87 15211.45,25279.87 "/>
    <path id="_1_3" class="fil1" d="M14824.63 27291.1l386.82 0 0 138.7 -386.82 0 -72.53 -69.35 72.53 -69.35zm0 138.7c-40.05,0 -72.53,-31.05 -72.53,-69.35 0,-38.3 32.48,-69.35 72.53,-69.35l0 138.7zm72.53 -2149.93l0 2080.58 -145.06 0 0 -2080.58 72.53 -69.35 72.53 69.35zm-145.06 0c0,-38.3 32.48,-69.35 72.53,-69.35 40.05,0 72.53,31.05 72.53,69.35l-145.06 0zm459.35 69.35l-386.82 0 0 -138.7 386.82 0 72.53 69.35 -72.53 69.35zm0 -138.7c40.05,0 72.53,31.05 72.53,69.35 0,38.3 -32.48,69.35 -72.53,69.35l0 -138.7zm-72.53 2149.93l0 -2080.58 145.06 0 0 2080.58 -72.53 69.35 -72.53 -69.35zm145.06 0c0,38.3 -32.48,69.35 -72.53,69.35 -40.05,0 -72.53,-31.05 -72.53,-69.35l145.06 0z"/>
   </g>
   <g>
    <polygon class="fil0" points="15211.45,33278.52 14824.63,33278.52 14824.63,30304.05 15211.45,30304.05 "/>
    <path id="_1_4" class="fil1" d="M14824.63 33209.17l386.82 0 0 138.7 -386.82 0 -72.53 -69.35 72.53 -69.35zm0 138.7c-40.05,0 -72.53,-31.05 -72.53,-69.35 0,-38.3 32.48,-69.35 72.53,-69.35l0 138.7zm72.53 -3043.82l0 2974.47 -145.06 0 0 -2974.47 72.53 -69.35 72.53 69.35zm-145.06 0c0,-38.3 32.48,-69.35 72.53,-69.35 40.05,0 72.53,31.05 72.53,69.35l-145.06 0zm459.35 69.35l-386.82 0 0 -138.7 386.82 0 72.53 69.35 -72.53 69.35zm0 -138.7c40.05,0 72.53,31.05 72.53,69.35 0,38.3 -32.48,69.35 -72.53,69.35l0 -138.7zm-72.53 3043.82l0 -2974.47 145.06 0 0 2974.47 -72.53 69.35 -72.53 -69.35zm145.06 0c0,38.3 -32.48,69.35 -72.53,69.35 -40.05,0 -72.53,-31.05 -72.53,-69.35l145.06 0z"/>
   </g>
  </g>
  <g>
   <path class="fil1" d="M14792.4 30304.05l0 -184.94 64.46 0 0 184.94 -32.23 30.82 -32.23 -30.82zm64.46 0c0,17.02 -14.43,30.82 -32.23,30.82 -17.8,0 -32.23,-13.8 -32.23,-30.82l64.46 0zm354.59 30.82l-386.82 0 0 -61.64 386.82 0 32.23 30.82 -32.23 30.82zm0 -61.64c17.8,0 32.23,13.8 32.23,30.82 0,17.02 -14.43,30.82 -32.23,30.82l0 -61.64zm32.23 -154.12l0 184.94 -64.46 0 0 -184.94 32.23 -30.82 32.23 30.82zm-64.46 0c0,-17.02 14.43,-30.82 32.23,-30.82 17.8,0 32.23,13.8 32.23,30.82l-64.46 0zm-354.59 -30.82l386.82 0 0 61.64 -386.82 0 -32.23 -30.82 32.23 -30.82zm0 61.64c-17.8,0 -32.23,-13.8 -32.23,-30.82 0,-17.02 14.43,-30.82 32.23,-30.82l0 61.64z"/>
  </g>
  <g>
   <path class="fil1" d="M14792.4 27545.39l0 -184.94 64.46 0 0 184.94 -32.23 30.82 -32.23 -30.82zm64.46 0c0,17.02 -14.43,30.82 -32.23,30.82 -17.8,0 -32.23,-13.8 -32.23,-30.82l64.46 0zm354.59 30.82l-386.82 0 0 -61.64 386.82 0 32.23 30.82 -32.23 30.82zm0 -61.64c17.8,0 32.23,13.8 32.23,30.82 0,17.02 -14.43,30.82 -32.23,30.82l0 -61.64zm32.23 -154.12l0 184.94 -64.46 0 0 -184.94 32.23 -30.82 32.23 30.82zm-64.46 0c0,-17.02 14.43,-30.82 32.23,-30.82 17.8,0 32.23,13.8 32.23,30.82l-64.46 0zm-354.59 -30.82l386.82 0 0 61.64 -386.82 0 -32.23 -30.82 32.23 -30.82zm0 61.64c-17.8,0 -32.23,-13.8 -32.23,-30.82 0,-17.02 14.43,-30.82 32.23,-30.82l0 61.64z"/>
  </g>
  <g>
   <path class="fil1" d="M19028.07 25310.69l-193.41 0 0 -61.64 193.41 0 32.23 30.82 -32.23 30.82zm0 -61.64c17.8,0 32.23,13.8 32.23,30.82 0,17.02 -14.43,30.82 -32.23,30.82l0 -61.64zm32.23 -323.66l0 354.48 -64.46 0 0 -354.48 32.23 -30.82 32.23 30.82zm-64.46 0c0,-17.02 14.43,-30.82 32.23,-30.82 17.8,0 32.23,13.8 32.23,30.82l-64.46 0zm-161.18 -30.82l193.41 0 0 61.64 -193.41 0 -32.23 -30.82 32.23 -30.82zm0 61.64c-17.8,0 -32.23,-13.8 -32.23,-30.82 0,-17.02 14.43,-30.82 32.23,-30.82l0 61.64zm-32.23 323.66l0 -354.48 64.46 0 0 354.48 -32.23 30.82 -32.23 -30.82zm64.46 0c0,17.02 -14.43,30.82 -32.23,30.82 -17.8,0 -32.23,-13.8 -32.23,-30.82l64.46 0z"/>
  </g>
  <g>
   <path class="fil1" d="M15936.19 25310.69l-193.41 0 0 -61.64 193.41 0 32.23 30.82 -32.23 30.82zm0 -61.64c17.8,0 32.23,13.8 32.23,30.82 0,17.02 -14.43,30.82 -32.23,30.82l0 -61.64zm32.23 -323.66l0 354.48 -64.46 0 0 -354.48 32.23 -30.82 32.23 30.82zm-64.46 0c0,-17.02 14.43,-30.82 32.23,-30.82 17.8,0 32.23,13.8 32.23,30.82l-64.46 0zm-161.18 -30.82l193.41 0 0 61.64 -193.41 0 -32.23 -30.82 32.23 -30.82zm0 61.64c-17.8,0 -32.23,-13.8 -32.23,-30.82 0,-17.02 14.43,-30.82 32.23,-30.82l0 61.64zm-32.23 323.66l0 -354.48 64.46 0 0 354.48 -32.23 30.82 -32.23 -30.82zm64.46 0c0,17.02 -14.43,30.82 -32.23,30.82 -17.8,0 -32.23,-13.8 -32.23,-30.82l64.46 0z"/>
  </g>
  <g transform="matrix(1.04582 0 0 1 -4995.63 -6097.13)">
   <text x="20000" y="20000"  class="fil3 fnt0">11.30</text>
  </g>
  <g transform="matrix(1.04582 0 0 1 -924.077 11023.2)">
   <text x="20000" y="20000"  class="fil3 fnt0">4.60</text>
  </g>
  <g transform="matrix(1.04582 0 0 1 -9668.08 11208.5)">
   <text x="20000" y="20000"  class="fil3 fnt0">3.70</text>
  </g>
  <g>
   <path class="fil1" d="M19425.98 10408.34c31.15,0 56.41,19.86 56.41,44.35 0,24.49 -25.26,44.35 -56.41,44.35l0 -88.7zm-2997.9 0l2997.9 0 0 88.7 -2997.9 0 -56.41 -44.35 56.41 -44.35zm0 88.7c-31.15,0 -56.41,-19.86 -56.41,-44.35 0,-24.49 25.26,-44.35 56.41,-44.35l0 88.7zm56.41 -1451.07l0 1406.72 -112.82 0 0 -1406.72 112.82 0zm-112.82 0c0,-24.49 25.26,-44.35 56.41,-44.35 31.15,0 56.41,19.86 56.41,44.35l-112.82 0z"/>
  </g>
  <g>
   <path class="fil1" d="M19128.07 9536.85l-2482.12 0 0 -107.86 2482.12 0 56.41 53.93 -56.41 53.93zm0 -107.86c31.15,0 56.41,24.15 56.41,53.93 0,29.78 -25.26,53.93 -56.41,53.93l0 -107.86zm-56.41 300.51l0 -246.58 112.82 0 0 246.58 -56.41 53.93 -56.41 -53.93zm112.82 0c0,29.78 -25.26,53.93 -56.41,53.93 -31.15,0 -56.41,-24.15 -56.41,-53.93l112.82 0zm-2538.53 -53.93l2482.12 0 0 107.86 -2482.12 0 -56.41 -53.93 56.41 -53.93zm0 107.86c-31.15,0 -56.41,-24.15 -56.41,-53.93 0,-29.78 25.26,-53.93 56.41,-53.93l0 107.86zm56.41 -300.51l0 246.58 -112.82 0 0 -246.58 56.41 -53.93 56.41 53.93zm-112.82 0c0,-29.78 25.26,-53.93 56.41,-53.93 31.15,0 56.41,24.15 56.41,53.93l-112.82 0z"/>
  </g>
  <g>
   <path class="fil1" d="M19405.98 9536.85l-257.91 0 0 -107.86 257.91 0 56.41 53.93 -56.41 53.93zm0 -107.86c31.15,0 56.41,24.15 56.41,53.93 0,29.78 -25.26,53.93 -56.41,53.93l0 -107.86zm-56.41 300.51l0 -246.58 112.82 0 0 246.58 -56.41 53.93 -56.41 -53.93zm112.82 0c0,29.78 -25.26,53.93 -56.41,53.93 -31.15,0 -56.41,-24.15 -56.41,-53.93l112.82 0zm-314.32 -53.93l257.91 0 0 107.86 -257.91 0 -56.41 -53.93 56.41 -53.93zm0 107.86c-31.15,0 -56.41,-24.15 -56.41,-53.93 0,-29.78 25.26,-53.93 56.41,-53.93l0 107.86zm56.41 -300.51l0 246.58 -112.82 0 0 -246.58 56.41 -53.93 56.41 53.93zm-112.82 0c0,-29.78 25.26,-53.93 56.41,-53.93 31.15,0 56.41,24.15 56.41,53.93l-112.82 0z"/>
  </g>
  <g>
   <path class="fil1" d="M19192.57 8982.04c31.15,0 56.41,24.15 56.41,53.93 0,29.78 -25.26,53.93 -56.41,53.93l0 -107.86zm-2804.49 0l2804.49 0 0 107.86 -2804.49 0 0 -107.86zm0 107.86c-31.15,0 -56.41,-24.15 -56.41,-53.93 0,-29.78 25.26,-53.93 56.41,-53.93l0 107.86z"/>
  </g>
  <g>
   <path class="fil1" d="M16388.08 9428.99l257.87 0 0 107.86 -257.87 0 -56.41 -53.93 56.41 -53.93zm0 107.86c-31.15,0 -56.41,-24.15 -56.41,-53.93 0,-29.78 25.26,-53.93 56.41,-53.93l0 107.86zm-56.41 192.65l0 -246.58 112.82 0 0 246.58 -56.41 53.93 -56.41 -53.93zm112.82 0c0,29.78 -25.26,53.93 -56.41,53.93 -31.15,0 -56.41,-24.15 -56.41,-53.93l112.82 0zm201.46 53.93l-257.87 0 0 -107.86 257.87 0 56.41 53.93 -56.41 53.93zm0 -107.86c31.15,0 56.41,24.15 56.41,53.93 0,29.78 -25.26,53.93 -56.41,53.93l0 -107.86zm56.41 -192.65l0 246.58 -112.82 0 0 -246.58 56.41 -53.93 56.41 53.93zm-112.82 0c0,-29.78 25.26,-53.93 56.41,-53.93 31.15,0 56.41,24.15 56.41,53.93l-112.82 0z"/>
  </g>
  <g>
   <polygon class="fil0" points="23109.18,9410.6 19192.57,9410.6 19192.57,9035.97 23109.18,9035.97 "/>
   <path id="_1_5" class="fil1" d="M19192.57 9352.47l3916.61 0 0 116.26 -3916.61 0 -72.53 -58.13 72.53 -58.13zm0 116.26c-40.05,0 -72.53,-26.03 -72.53,-58.13 0,-32.1 32.48,-58.13 72.53,-58.13l0 116.26zm72.53 -432.76l0 374.63 -145.06 0 0 -374.63 72.53 -58.13 72.53 58.13zm-145.06 0c0,-32.1 32.48,-58.13 72.53,-58.13 40.05,0 72.53,26.03 72.53,58.13l-145.06 0zm3989.14 58.13l-3916.61 0 0 -116.26 3916.61 0 72.53 58.13 -72.53 58.13zm0 -116.26c40.05,0 72.53,26.03 72.53,58.13 0,32.1 -32.48,58.13 -72.53,58.13l0 -116.26zm-72.53 432.76l0 -374.63 145.06 0 0 374.63 -72.53 58.13 -72.53 -58.13zm145.06 0c0,32.1 -32.48,58.13 -72.53,58.13 -40.05,0 -72.53,-26.03 -72.53,-58.13l145.06 0z"/>
  </g>
  <g transform="matrix(1.04582 0 0 1 4100.41 625.507)">
   <text x="20000" y="20000"  class="fil3 fnt0">17.50</text>
  </g>
  <g>
   <polygon class="fil0" points="7410.47,9986.51 7410.47,33278.52 8168.02,33278.52 8168.02,9986.51 "/>
   <path id="_1_6" class="fil1" d="M7337.94 33278.52l0 -23292.01 145.06 0 0 23292.01 -72.53 201.95 -72.53 -201.95zm145.06 0c0,111.53 -32.48,201.95 -72.53,201.95 -40.05,0 -72.53,-90.42 -72.53,-201.95l145.06 0zm685.02 201.95l-757.55 0 0 -403.9 757.55 0 72.53 201.95 -72.53 201.95zm0 -403.9c40.05,0 72.53,90.42 72.53,201.95 0,111.53 -32.48,201.95 -72.53,201.95l0 -403.9zm72.53 -23090.06l0 23292.01 -145.06 0 0 -23292.01 72.53 -201.95 72.53 201.95zm-145.06 0c0,-111.53 32.48,-201.95 72.53,-201.95 40.05,0 72.53,90.42 72.53,201.95l-145.06 0zm-685.02 -201.95l757.55 0 0 403.9 -757.55 0 -72.53 -201.95 72.53 -201.95zm0 403.9c-40.05,0 -72.53,-90.42 -72.53,-201.95 0,-111.53 32.48,-201.95 72.53,-201.95l0 403.9z"/>
  </g>
  <g>
   <path class="fil1" d="M19142.58 33964.06l243.4 0 0 77.56 -243.4 0 -40.56 -38.78 40.56 -38.78zm0 77.56c-22.4,0 -40.56,-17.37 -40.56,-38.78 0,-21.41 18.16,-38.78 40.56,-38.78l0 77.56zm40.56 -484.82l0 446.04 -81.12 0 0 -446.04 40.56 -38.78 40.56 38.78zm-81.12 0c0,-21.41 18.16,-38.78 40.56,-38.78 22.4,0 40.56,17.37 40.56,38.78l-81.12 0zm283.96 38.78l-243.4 0 0 -77.56 243.4 0 40.56 38.78 -40.56 38.78zm0 -77.56c22.4,0 40.56,17.37 40.56,38.78 0,21.41 -18.16,38.78 -40.56,38.78l0 -77.56zm-40.56 484.82l0 -446.04 81.12 0 0 446.04 -40.56 38.78 -40.56 -38.78zm81.12 0c0,21.41 -18.16,38.78 -40.56,38.78 -22.4,0 -40.56,-17.37 -40.56,-38.78l81.12 0z"/>
  </g>
  <g>
   <polygon class="fil0" points="7370.48,33278.52 15509.93,33278.52 15509.93,34002.84 7370.48,34002.84 "/>
   <path id="_1_7" class="fil1" d="M15509.93 33347.87l-8139.45 0 0 -138.7 8139.45 0 37.96 69.35 -37.96 69.35zm0 -138.7c20.96,0 37.96,31.05 37.96,69.35 0,38.3 -17,69.35 -37.96,69.35l0 -138.7zm-37.96 793.67l0 -724.32 75.92 0 0 724.32 -37.96 69.35 -37.96 -69.35zm75.92 0c0,38.3 -17,69.35 -37.96,69.35 -20.96,0 -37.96,-31.05 -37.96,-69.35l75.92 0zm-8177.41 -69.35l8139.45 0 0 138.7 -8139.45 0 -37.96 -69.35 37.96 -69.35zm0 138.7c-20.96,0 -37.96,-31.05 -37.96,-69.35 0,-38.3 17,-69.35 37.96,-69.35l0 138.7zm37.96 -793.67l0 724.32 -75.92 0 0 -724.32 37.96 -69.35 37.96 69.35zm-75.92 0c0,-38.3 17,-69.35 37.96,-69.35 20.96,0 37.96,31.05 37.96,69.35l-75.92 0z"/>
  </g>
  <g>
   <polygon class="fil0" points="24559.78,28023.14 24559.78,33278.52 24172.95,33278.52 24172.95,28192.68 24044,28100.21 24269.66,27807.36 "/>
   <path id="_1_8" class="fil1" d="M24487.25 33278.52l0 -5255.38 145.06 0 0 5255.38 -72.53 69.35 -72.53 -69.35zm145.06 0c0,38.3 -32.48,69.35 -72.53,69.35 -40.05,0 -72.53,-31.05 -72.53,-69.35l145.06 0zm-459.36 -69.35l386.83 0 0 138.7 -386.83 0 -72.53 -69.35 72.53 -69.35zm0 138.7c-40.05,0 -72.53,-31.05 -72.53,-69.35 0,-38.3 32.48,-69.35 72.53,-69.35l0 138.7zm72.53 -5155.19l0 5085.84 -145.06 0 0 -5085.84 116.05 -55.48 29.01 55.48zm-145.06 0c0,-38.3 32.48,-69.35 72.53,-69.35 40.05,0 72.53,31.05 72.53,69.35l-145.06 0zm-12.9 -147.95l128.95 92.47 -87.04 110.96 -128.95 -92.47 -14.87 -96.62 101.91 -14.34zm-87.04 110.96c-32.04,-22.98 -38.54,-66.45 -14.51,-97.09 24.03,-30.64 69.51,-36.85 101.55,-13.87l-87.04 110.96zm327.57 -307.19l-225.66 292.85 -116.78 -82.28 225.66 -292.85 102.92 -13.6 13.86 95.88zm-116.78 -82.28c23.75,-30.83 69.17,-37.41 101.41,-14.69 32.24,22.72 39.12,66.14 15.37,96.97l-116.78 -82.28zm303.98 311.66l-290.12 -215.78 89.06 -109.48 290.12 215.78 28 54.74 -117.06 54.74zm89.06 -109.48c31.61,23.51 37.31,67.09 12.72,97.32 -24.59,30.23 -70.17,35.67 -101.78,12.16l89.06 -109.48z"/>
  </g>
  <g>
   <polygon class="fil0" points="21337.25,25776.05 20079.78,24882.42 20759.47,24882.42 21575.12,25467.35 "/>
   <path id="_1_9" class="fil1" d="M20125.39 24823.74l1257.47 893.63 -91.22 117.36 -1257.47 -893.63 45.61 -131.8 45.61 14.44zm-91.22 117.36c-33.89,-24.08 -40.94,-69.89 -15.76,-102.29 25.18,-32.4 73.09,-39.15 106.98,-15.07l-91.22 117.36zm725.3 14.44l-679.69 0 0 -146.24 679.69 0 45.88 14.63 -45.88 131.61zm0 -146.24c42.23,0 76.47,32.74 76.47,73.12 0,40.38 -34.24,73.12 -76.47,73.12l0 -146.24zm769.77 716.54l-815.65 -584.93 91.76 -116.98 815.65 584.93 15.68 101.86 -107.44 15.12zm91.76 -116.98c33.78,24.22 40.62,70.06 15.29,102.36 -25.33,32.3 -73.27,38.84 -107.05,14.62l91.76 -116.98zm-345.31 323.82l237.87 -308.7 123.12 86.74 -237.87 308.7 -107.17 15.31 -15.95 -102.05zm123.12 86.74c-25.05,32.5 -72.93,39.44 -106.92,15.49 -33.99,-23.95 -41.25,-69.73 -16.2,-102.23l123.12 86.74z"/>
  </g>
  <g>
   <polygon class="fil0" points="20611.34,24935.39 20611.34,25289.87 19128.07,25289.87 19128.07,24935.39 "/>
   <path id="_1_10" class="fil1" d="M20482.98 25289.87l0 -354.48 256.72 0 0 354.48 -128.36 69.35 -128.36 -69.35zm256.72 0c0,38.3 -57.47,69.35 -128.36,69.35 -70.89,0 -128.36,-31.05 -128.36,-69.35l256.72 0zm-1611.63 -69.35l1483.27 0 0 138.7 -1483.27 0 -128.36 -69.35 128.36 -69.35zm0 138.7c-70.89,0 -128.36,-31.05 -128.36,-69.35 0,-38.3 57.47,-69.35 128.36,-69.35l0 138.7zm128.36 -423.83l0 354.48 -256.72 0 0 -354.48 128.36 -69.35 128.36 69.35zm-256.72 0c0,-38.3 57.47,-69.35 128.36,-69.35 70.89,0 128.36,31.05 128.36,69.35l-256.72 0zm1611.63 69.35l-1483.27 0 0 -138.7 1483.27 0 128.36 69.35 -128.36 69.35zm0 -138.7c70.89,0 128.36,31.05 128.36,69.35 0,38.3 -57.47,69.35 -128.36,69.35l0 -138.7z"/>
  </g>
  <g>
   <path class="fil1" d="M24025.51 28125.45l-161.17 -107.91 36.98 -50.48 161.17 107.91 7.46 43.52 -44.44 6.96zm36.98 -50.48c14.58,9.76 18.12,28.99 7.91,42.92 -10.21,13.93 -30.31,17.32 -44.89,7.56l36.98 -50.48zm233.12 -249.33l-225.66 292.85 -51.9 -36.56 225.66 -292.85 44.43 -6.97 7.47 43.53zm-51.9 -36.56c10.55,-13.7 30.74,-16.62 45.07,-6.53 14.33,10.09 17.38,29.39 6.83,43.09l-51.9 -36.56zm-116.77 -114.84l161.2 107.87 -36.96 50.5 -161.2 -107.87 -7.47 -43.53 44.43 -6.97zm-36.96 50.5c-14.58,-9.75 -18.13,-28.98 -7.93,-42.92 10.2,-13.94 30.31,-17.33 44.89,-7.58l-36.96 50.5zm-233.1 249.28l225.63 -292.81 51.9 36.56 -225.63 292.81 -44.44 6.96 -7.46 -43.52zm51.9 36.56c-10.55,13.7 -30.74,16.62 -45.07,6.53 -14.33,-10.09 -17.38,-29.39 -6.83,-43.09l51.9 36.56z"/>
  </g>
  <g>
   <path class="fil1" d="M21530.14 25932.95l-145.06 -107.87 39.58 -48.66 145.06 107.87 6.16 42.61 -45.74 6.05zm39.58 -48.66c14.05,10.44 16.57,29.82 5.65,43.25 -10.92,13.43 -31.18,15.85 -45.23,5.41l39.58 -48.66zm231.78 -250.2l-225.62 292.81 -51.9 -36.56 225.62 -292.81 45.74 -6.05 6.16 42.61zm-51.9 -36.56c10.55,-13.7 30.74,-16.62 45.07,-6.53 14.33,10.09 17.38,29.39 6.83,43.09l-51.9 -36.56zm-99.32 -113.92l145.06 107.87 -39.58 48.66 -145.06 -107.87 -6.16 -42.61 45.74 -6.05zm-39.58 48.66c-14.05,-10.44 -16.57,-29.82 -5.65,-43.25 10.92,-13.43 31.18,-15.85 45.23,-5.41l-39.58 48.66zm-231.78 250.2l225.62 -292.81 51.9 36.56 -225.62 292.81 -45.74 6.05 -6.16 -42.61zm51.9 36.56c-10.55,13.7 -30.74,16.62 -45.07,6.53 -14.33,-10.09 -17.38,-29.39 -6.83,-43.09l51.9 36.56z"/>
  </g>
  <g>
   <polygon class="fil0" points="20336.9,25279.87 19966.22,25279.87 19966.22,10305.73 20336.9,10305.73 "/>
   <path id="_1_11" class="fil1" d="M19966.22 25198.29l370.68 0 0 163.16 -370.68 0 -72.53 -81.58 72.53 -81.58zm0 163.16c-40.05,0 -72.53,-36.53 -72.53,-81.58 0,-45.05 32.48,-81.58 72.53,-81.58l0 163.16zm72.53 -15055.72l0 14974.14 -145.06 0 0 -14974.14 72.53 -81.58 72.53 81.58zm-145.06 0c0,-45.05 32.48,-81.58 72.53,-81.58 40.05,0 72.53,36.53 72.53,81.58l-145.06 0zm443.21 81.58l-370.68 0 0 -163.16 370.68 0 72.53 81.58 -72.53 81.58zm0 -163.16c40.05,0 72.53,36.53 72.53,81.58 0,45.05 -32.48,81.58 -72.53,81.58l0 -163.16zm-72.53 15055.72l0 -14974.14 145.06 0 0 14974.14 -72.53 81.58 -72.53 -81.58zm145.06 0c0,45.05 -32.48,81.58 -72.53,81.58 -40.05,0 -72.53,-36.53 -72.53,-81.58l145.06 0z"/>
  </g>
  <g transform="matrix(0.930308 0 0 1 -7147.47 -12540)">
   <text x="20000" y="20000"  class="fil3 fnt0">3.70 (1.10)</text>
  </g>
  <rect class="fil4 str1" x="29632.01" y="8959.96" width="3231.34" height="1062.37"/>
  <rect class="fil4 str1" x="19455.79" y="8994.55" width="3451.34" height="1490.3"/>
  <rect class="fil4 str1" x="7350.47" y="8994.55" width="6288.1" height="1490.3"/>
  <g>
   <polygon class="fil0" points="13731.27,9410.6 9814.66,9410.6 9814.66,9035.97 13731.27,9035.97 "/>
   <path id="_1_12" class="fil1" d="M9814.66 9352.47l3916.61 0 0 116.26 -3916.61 0 -72.53 -58.13 72.53 -58.13zm0 116.26c-40.05,0 -72.53,-26.03 -72.53,-58.13 0,-32.1 32.48,-58.13 72.53,-58.13l0 116.26zm72.53 -432.76l0 374.63 -145.06 0 0 -374.63 72.53 -58.13 72.53 58.13zm-145.06 0c0,-32.1 32.48,-58.13 72.53,-58.13 40.05,0 72.53,26.03 72.53,58.13l-145.06 0zm3989.14 58.13l-3916.61 0 0 -116.26 3916.61 0 72.53 58.13 -72.53 58.13zm0 -116.26c40.05,0 72.53,26.03 72.53,58.13 0,32.1 -32.48,58.13 -72.53,58.13l0 -116.26zm-72.53 432.76l0 -374.63 145.06 0 0 374.63 -72.53 58.13 -72.53 -58.13zm145.06 0c0,32.1 -32.48,58.13 -72.53,58.13 -40.05,0 -72.53,-26.03 -72.53,-58.13l145.06 0z"/>
  </g>
  <rect class="fil4 str1" x="7350.47" y="4647.51" width="444" height="4347.05"/>
  <rect class="fil4 str1" transform="matrix(6.14295E-14 1 -2.31945 2.64845E-14 17437.4 4207.25)" width="444" height="4347.05"/>
  <rect class="fil4 str1" transform="matrix(0.5 -0.866025 0.866025 0.5 17216.3 4574)" width="444" height="4347.05" rx="50" ry="50"/>
  <rect class="fil4 str1" x="20742.59" y="6346.88" width="444" height="3278.84" rx="50" ry="37.71"/>
  <g id="_2033711596928">
   <rect class="fil5 str2" transform="matrix(-9.23232E-14 -0.905874 1.16198 -7.1975E-14 7359.41 4193.62)" width="2496.64" height="5813.27"/>
   <line class="fil5 str2" x1="7350.6" y1="4197.26" x2="14105.48" y2= "1935.62" />
   <line class="fil5 str2" x1="7359.44" y1="1931.97" x2="14061.72" y2= "4138.1" />
  </g>
  <rect class="fil5 str3" x="13751.27" y="9006.01" width="238.99" height="429.64" rx="20" ry="20"/>
  <rect class="fil5 str3" x="16118.09" y="9006.01" width="238.99" height="429.64" rx="20" ry="20"/>
  <g id="_2033711585024">
   <path class="fil5 str4" d="M8156.03 14479.96l0 2564.04c-0.01,95.52 77.45,172.97 172.96,172.97l2597.68 -0.01c95.5,0.01 172.95,-77.44 172.95,-172.95l0.01 -2564.05c-0.01,-95.5 -77.46,-172.96 -172.97,-172.96l-2597.66 -0.01c-95.52,0.01 -172.98,77.47 -172.98,172.98z"/>
   <rect class="fil5 str4" transform="matrix(-2.66487E-14 1.0062 1.0062 2.66487E-14 8660.67 14576.1)" width="2373.81" height="2106.33"/>
   <circle class="fil5 str5" transform="matrix(-2.66487E-14 1.0062 1.0062 2.66487E-14 9097.97 16325.5)" r="183.89"/>
  </g>
  <g id="_2033711579792">
   <line class="fil5 str6" x1="9441.51" y1="31662.46" x2="9168.61" y2= "31692.75" />
   <line class="fil5 str7" x1="9430.59" y1="32600.46" x2="9157.76" y2= "32570.09" />
   <path class="fil5 str7" d="M8196.78 31223.54c216.22,0 432.48,-0.04 648.7,-0.04 161.27,-0.46 277.91,83.1 325.89,288.04 -2.54,364.66 -5.08,729.36 -7.63,1094.03 14.9,285.36 -108.7,404.02 -318.26,421.67l-658.98 0"/>
   <path class="fil5 str7" d="M9986.77 32810.23c-215.39,35.26 -402.18,-13.36 -545.65,-189.48 -27.15,-71.19 -48.42,-141.08 -64.02,-209.67 -60.67,-266.84 -35.44,-514.38 64.05,-745.23 127.54,-155.2 293.95,-227.64 503.62,-208.09 313.07,30.51 616.98,143.36 905.96,390.02 175.29,172.36 189.65,367.38 0,591.08 -251.64,202.52 -541.18,322.93 -863.96,371.37z"/>
  </g>
  <g id="_2033711604176">
   <rect class="fil5 str7" transform="matrix(0.000196438 -1.09387 1.058 0.000203097 8221.31 28168)" width="2611.41" height="5846.68"/>
   <path class="fil5 str7" d="M13273.78 27842.75c-1358.64,59.91 -2701.32,20.67 -4051.98,30.98 -472.71,6.95 -714,-11.12 -706.25,-528.44 0.08,-428.16 0.16,-856.26 0.23,-1284.4 -4.29,-363.55 100.89,-500.29 689.43,-472.4 1356.31,10.84 2712.66,-11.4 4068.97,32.49 1077.17,134.04 1186.26,2022.19 -0.4,2221.77z"/>
   <circle class="fil5 str7" transform="matrix(0.000196438 -1.09387 1.058 0.000203097 8931.36 26716.4)" r="121.03"/>
  </g>
  <g id="_2033711605184">
   <path class="fil5 str8" d="M8236.56 30761.95c771.2,-7.28 1490.49,228.17 1589.94,-715.94 25.35,-307.46 14.5,-600.89 -27.86,-902.75 -171.59,-773.15 -836.17,-530.4 -1573.41,-543.34"/>
   <path class="fil5 str7" d="M8804.59 30642.52c-101.76,2.14 -200.05,-73.63 -246.55,-157.85 0,-560.91 0,-1095.05 0,-1655.96 17.46,-79.2 72.34,-96.99 191.36,-123.82 1083.25,-40.55 853.42,700.72 872.31,1373.2 -48.09,486.84 -397.39,543.09 -817.12,564.43z"/>
   <circle class="fil5 str7" transform="matrix(-3.10302E-14 -1.17163 1.17163 -3.10302E-14 8717.31 29659.7)" r="94.44"/>
   <path class="fil5 str7" d="M8754.95 30386.36c-81.27,1.52 -159.78,-52.57 -196.91,-112.71 0,-400.48 0,-781.87 0,-1182.36 13.94,-56.55 57.77,-69.25 152.83,-88.4 854.19,-70.84 692.96,426.41 696.7,980.46 -6.75,362.86 -332,403.01 -652.62,403.01z"/>
  </g>
  <path class="fil5 str9" d="M16118.13 9200.46c-31.96,1298.84 -810.62,2226.68 -2097.54,2598.12 0,-819.33 -17.55,-1827.96 -17.55,-2647.3"/>
  <path class="fil5 str9" d="M15936.18 25102.64c38.21,-1552.78 1308.35,-2707.06 2846.87,-3151.11 0,979.51 20.98,2185.33 20.98,3164.86"/>
  <path class="fil5 str9" d="M21549.93 25908.63c886.69,-1275.29 2631.25,-1204.59 4160.12,-728.37 -539.21,817.74 -1185.48,1835.97 -1724.69,2653.72"/>
  <path class="fil5 str9" d="M15091.07 30096.04c1553.97,-38.24 2664.06,-969.85 3108.45,-2509.55 -980.26,0 -2187.01,-21 -3167.29,-21"/>
  <g>
   <path class="fil1" d="M15509.92 33964.06l243.4 0 0 77.56 -243.4 0 -40.56 -38.78 40.56 -38.78zm0 77.56c-22.4,0 -40.56,-17.37 -40.56,-38.78 0,-21.41 18.16,-38.78 40.56,-38.78l0 77.56zm40.56 -484.82l0 446.04 -81.12 0 0 -446.04 40.56 -38.78 40.56 38.78zm-81.12 0c0,-21.41 18.16,-38.78 40.56,-38.78 22.4,0 40.56,17.37 40.56,38.78l-81.12 0zm283.96 38.78l-243.4 0 0 -77.56 243.4 0 40.56 38.78 -40.56 38.78zm0 -77.56c22.4,0 40.56,17.37 40.56,38.78 0,21.41 -18.16,38.78 -40.56,38.78l0 -77.56zm-40.56 484.82l0 -446.04 81.12 0 0 446.04 -40.56 38.78 -40.56 -38.78zm81.12 0c0,21.41 -18.16,38.78 -40.56,38.78 -22.4,0 -40.56,-17.37 -40.56,-38.78l81.12 0z"/>
  </g>
  <path class="fil5 str9" d="M19111.18 33846.77c-44.55,1835.64 -1525.42,3200.2 -3319.2,3725.15 0,-1157.95 -24.46,-2583.44 -24.46,-3741.4"/>
 </g>
</svg>
