<?xml version="1.0" encoding="UTF-8"?>
<!DOCTYPE svg PUBLIC "-//W3C//DTD SVG 1.1//EN" "http://www.w3.org/Graphics/SVG/1.1/DTD/svg11.dtd">
<!-- Creator: CorelDRAW -->
<svg xmlns="http://www.w3.org/2000/svg" xml:space="preserve" width="400mm" height="400mm" version="1.1" style="shape-rendering:geometricPrecision; text-rendering:geometricPrecision; image-rendering:optimizeQuality; fill-rule:evenodd; clip-rule:evenodd"
viewBox="0 0 40000 40000"
 xmlns:xlink="http://www.w3.org/1999/xlink"
 xmlns:xodm="http://www.corel.com/coreldraw/odm/2003">
 <defs>
  <style type="text/css">
   <![CDATA[
    .str2 {stroke:black;stroke-width:50;stroke-miterlimit:22.9256}
    .str3 {stroke:#1F1B20;stroke-width:16.9;stroke-miterlimit:22.9256}
    .str6 {stroke:#1F1B20;stroke-width:40;stroke-miterlimit:22.9256}
    .str5 {stroke:#3A3A3A;stroke-width:40;stroke-miterlimit:22.9256}
    .str8 {stroke:black;stroke-width:40;stroke-miterlimit:22.9256}
    .str1 {stroke:black;stroke-width:20;stroke-miterlimit:22.9256}
    .str4 {stroke:#2B2A29;stroke-width:25.4;stroke-miterlimit:22.9256}
    .str0 {stroke:black;stroke-width:7.62;stroke-miterlimit:22.9256}
    .str7 {stroke:black;stroke-width:40;stroke-linecap:round;stroke-linejoin:round;stroke-miterlimit:22.9256}
    .fil6 {fill:none}
    .fil2 {fill:none;fill-rule:nonzero}
    .fil3 {fill:black}
    .fil5 {fill:black}
    .fil0 {fill:black;fill-rule:nonzero}
    .fil1 {fill:black;fill-rule:nonzero}
    .fil4 {fill:black;fill-rule:nonzero}
    .fnt1 {font-weight:normal;font-size:851.43px;font-family:'Arial'}
    .fnt0 {font-weight:normal;font-size:1058.33px;font-family:'Arial'}
   ]]>
  </style>
 </defs>
 <g id="Слой_x0020_1">
  <metadata id="CorelCorpID_0Corel-Layer"/>
  <g>
   <path class="fil0" d="M30000.33 8030.29c20.37,0 36.9,16.2 36.9,36.18 0,19.98 -16.53,36.18 -36.9,36.18l0 -72.36zm-4481.28 0l4481.28 0 0 72.36 -4481.28 0 0 -72.36zm0 72.36c-20.37,0 -36.9,-16.2 -36.9,-36.18 0,-19.98 16.53,-36.18 36.9,-36.18l0 72.36z"/>
  </g>
  <g>
   <path class="fil0" d="M29787.83 7274.91l-4056.28 0 0 -72.36 4056.28 0 37.45 36.18 -37.45 36.18zm0 -72.36c20.68,0 37.45,16.2 37.45,36.18 0,19.98 -16.77,36.18 -37.45,36.18l0 -72.36zm-37.45 201.6l0 -165.42 74.9 0 0 165.42 -37.45 36.18 -37.45 -36.18zm74.9 0c0,19.98 -16.77,36.18 -37.45,36.18 -20.68,0 -37.45,-16.2 -37.45,-36.18l74.9 0zm-4093.73 -36.18l4056.28 0 0 72.36 -4056.28 0 -37.45 -36.18 37.45 -36.18zm0 72.36c-20.68,0 -37.45,-16.2 -37.45,-36.18 0,-19.98 16.77,-36.18 37.45,-36.18l0 72.36zm37.45 -201.6l0 165.42 -74.9 0 0 -165.42 37.45 -36.18 37.45 36.18zm-74.9 0c0,-19.98 16.77,-36.18 37.45,-36.18 20.68,0 37.45,16.2 37.45,36.18l-74.9 0z"/>
  </g>
  <g>
   <path class="fil0" d="M29967.07 7274.91l-179.24 0 0 -72.36 179.24 0 36.9 36.18 -36.9 36.18zm0 -72.36c20.37,0 36.9,16.2 36.9,36.18 0,19.98 -16.53,36.18 -36.9,36.18l0 -72.36zm-36.9 201.6l0 -165.42 73.8 0 0 165.42 -36.9 36.18 -36.9 -36.18zm73.8 0c0,19.98 -16.53,36.18 -36.9,36.18 -20.37,0 -36.9,-16.2 -36.9,-36.18l73.8 0zm-216.14 -36.18l179.24 0 0 72.36 -179.24 0 -36.9 -36.18 36.9 -36.18zm0 72.36c-20.37,0 -36.9,-16.2 -36.9,-36.18 0,-19.98 16.53,-36.18 36.9,-36.18l0 72.36zm36.9 -201.6l0 165.42 -73.8 0 0 -165.42 36.9 -36.18 36.9 36.18zm-73.8 0c0,-19.98 16.53,-36.18 36.9,-36.18 20.37,0 36.9,16.2 36.9,36.18l-73.8 0z"/>
  </g>
  <g>
   <path class="fil0" d="M25542.31 7202.55l179.24 0 0 72.36 -179.24 0 -36.9 -36.18 36.9 -36.18zm0 72.36c-20.37,0 -36.9,-16.2 -36.9,-36.18 0,-19.98 16.53,-36.18 36.9,-36.18l0 72.36zm-36.9 129.24l0 -165.42 73.8 0 0 165.42 -36.9 36.18 -36.9 -36.18zm73.8 0c0,19.98 -16.53,36.18 -36.9,36.18 -20.37,0 -36.9,-16.2 -36.9,-36.18l73.8 0zm142.34 36.18l-179.24 0 0 -72.36 179.24 0 36.9 36.18 -36.9 36.18zm0 -72.36c20.37,0 36.9,16.2 36.9,36.18 0,19.98 -16.53,36.18 -36.9,36.18l0 -72.36zm36.9 -129.24l0 165.42 -73.8 0 0 -165.42 36.9 -36.18 36.9 36.18zm-73.8 0c0,-19.98 16.53,-36.18 36.9,-36.18 20.37,0 36.9,16.2 36.9,36.18l-73.8 0z"/>
  </g>
  <g>
   <path class="fil0" d="M29873.8 6902.75c20.37,0 36.9,16.2 36.9,36.18 0,19.98 -16.53,36.18 -36.9,36.18l0 -72.36zm-4228.22 0l4228.22 0 0 72.36 -4228.22 0 0 -72.36zm0 72.36c-20.37,0 -36.9,-16.2 -36.9,-36.18 0,-19.98 16.53,-36.18 36.9,-36.18l0 72.36z"/>
  </g>
  <g>
   <path class="fil0" d="M21596.6 8030.29c20.37,0 36.9,16.2 36.9,36.18 0,19.98 -16.53,36.18 -36.9,36.18l0 -72.36zm-4481.31 0l4481.31 0 0 72.36 -4481.31 0 0 -72.36zm0 72.36c-20.37,0 -36.9,-16.2 -36.9,-36.18 0,-19.98 16.53,-36.18 36.9,-36.18l0 72.36z"/>
  </g>
  <g>
   <path class="fil0" d="M21354.07 7274.91l-4006.82 0 0 -72.36 4006.82 0 36.9 36.18 -36.9 36.18zm0 -72.36c20.37,0 36.9,16.2 36.9,36.18 0,19.98 -16.53,36.18 -36.9,36.18l0 -72.36zm-36.9 201.6l0 -165.42 73.8 0 0 165.42 -36.9 36.18 -36.9 -36.18zm73.8 0c0,19.98 -16.53,36.18 -36.9,36.18 -20.37,0 -36.9,-16.2 -36.9,-36.18l73.8 0zm-4043.72 -36.18l4006.82 0 0 72.36 -4006.82 0 -36.9 -36.18 36.9 -36.18zm0 72.36c-20.37,0 -36.9,-16.2 -36.9,-36.18 0,-19.98 16.53,-36.18 36.9,-36.18l0 72.36zm36.9 -201.6l0 165.42 -73.8 0 0 -165.42 36.9 -36.18 36.9 36.18zm-73.8 0c0,-19.98 16.53,-36.18 36.9,-36.18 20.37,0 36.9,16.2 36.9,36.18l-73.8 0z"/>
  </g>
  <g>
   <path class="fil0" d="M21533.33 7274.91l-179.26 0 0 -72.36 179.26 0 36.9 36.18 -36.9 36.18zm0 -72.36c20.37,0 36.9,16.2 36.9,36.18 0,19.98 -16.53,36.18 -36.9,36.18l0 -72.36zm-36.9 201.6l0 -165.42 73.8 0 0 165.42 -36.9 36.18 -36.9 -36.18zm73.8 0c0,19.98 -16.53,36.18 -36.9,36.18 -20.37,0 -36.9,-16.2 -36.9,-36.18l73.8 0zm-216.16 -36.18l179.26 0 0 72.36 -179.26 0 -36.9 -36.18 36.9 -36.18zm0 72.36c-20.37,0 -36.9,-16.2 -36.9,-36.18 0,-19.98 16.53,-36.18 36.9,-36.18l0 72.36zm36.9 -201.6l0 165.42 -73.8 0 0 -165.42 36.9 -36.18 36.9 36.18zm-73.8 0c0,-19.98 16.53,-36.18 36.9,-36.18 20.37,0 36.9,16.2 36.9,36.18l-73.8 0z"/>
  </g>
  <g>
   <path class="fil0" d="M17178.55 7202.55l168.7 0 0 72.36 -168.7 0 -36.9 -36.18 36.9 -36.18zm0 72.36c-20.37,0 -36.9,-16.2 -36.9,-36.18 0,-19.98 16.53,-36.18 36.9,-36.18l0 72.36zm-36.9 129.24l0 -165.42 73.8 0 0 165.42 -36.9 36.18 -36.9 -36.18zm73.8 0c0,19.98 -16.53,36.18 -36.9,36.18 -20.37,0 -36.9,-16.2 -36.9,-36.18l73.8 0zm131.8 36.18l-168.7 0 0 -72.36 168.7 0 36.9 36.18 -36.9 36.18zm0 -72.36c20.37,0 36.9,16.2 36.9,36.18 0,19.98 -16.53,36.18 -36.9,36.18l0 -72.36zm36.9 -129.24l0 165.42 -73.8 0 0 -165.42 36.9 -36.18 36.9 36.18zm-73.8 0c0,-19.98 16.53,-36.18 36.9,-36.18 20.37,0 36.9,16.2 36.9,36.18l-73.8 0z"/>
  </g>
  <g>
   <path class="fil0" d="M21470.06 6902.75c20.37,0 36.9,16.2 36.9,36.18 0,19.98 -16.53,36.18 -36.9,36.18l0 -72.36zm-4228.24 0l4228.24 0 0 72.36 -4228.24 0 0 -72.36zm0 72.36c-20.37,0 -36.9,-16.2 -36.9,-36.18 0,-19.98 16.53,-36.18 36.9,-36.18l0 72.36z"/>
  </g>
  <g>
   <polygon class="fil1" points="17088.71,7600.57 15596.92,7600.57 15596.92,8086.47 17088.71,8086.47 "/>
   <path id="_1" class="fil0" d="M15596.92 7528.2l1491.79 0 0 144.74 -1491.79 0 -72.52 -72.37 72.52 -72.37zm0 144.74c-40.05,0 -72.52,-32.41 -72.52,-72.37 0,-39.96 32.47,-72.37 72.52,-72.37l0 144.74zm-72.52 413.53l0 -485.9 145.04 0 0 485.9 -72.52 72.37 -72.52 -72.37zm145.04 0c0,39.96 -32.47,72.37 -72.52,72.37 -40.05,0 -72.52,-32.41 -72.52,-72.37l145.04 0zm1419.27 72.37l-1491.79 0 0 -144.74 1491.79 0 72.52 72.37 -72.52 72.37zm0 -144.74c40.05,0 72.52,32.41 72.52,72.37 0,39.96 -32.47,72.37 -72.52,72.37l0 -144.74zm72.52 -413.53l0 485.9 -145.04 0 0 -485.9 72.52 -72.37 72.52 72.37zm-145.04 0c0,-39.96 32.47,-72.37 72.52,-72.37 40.05,0 72.52,32.41 72.52,72.37l-145.04 0z"/>
  </g>
  <g>
   <polygon class="fil1" points="31508.16,8696.41 31508.16,11994.31 32014.29,11994.31 32014.29,8820.47 31508.16,8820.47 "/>
   <path id="_1_0" class="fil0" d="M31434.35 11994.31l0 -3297.9 147.62 0 0 3297.9 -73.81 72.37 -73.81 -72.37zm147.62 0c0,39.96 -33.05,72.37 -73.81,72.37 -40.76,0 -73.81,-32.41 -73.81,-72.37l147.62 0zm432.32 72.37l-506.13 0 0 -144.74 506.13 0 73.81 72.37 -73.81 72.37zm0 -144.74c40.76,0 73.81,32.41 73.81,72.37 0,39.96 -33.05,72.37 -73.81,72.37l0 -144.74zm73.81 -3101.47l0 3173.84 -147.62 0 0 -3173.84 73.81 -72.37 73.81 72.37zm-147.62 0c0,-39.96 33.05,-72.37 73.81,-72.37 40.76,0 73.81,32.41 73.81,72.37l-147.62 0zm-432.32 -72.37l506.13 0 0 144.74 -506.13 0 -73.81 -72.37 73.81 -72.37zm0 144.74c-40.76,0 -73.81,-32.41 -73.81,-72.37 0,-39.96 33.05,-72.37 73.81,-72.37l0 144.74zm73.81 -196.43l0 124.06 -147.62 0 0 -124.06 147.62 0zm-147.62 0c0,-39.96 33.05,-72.37 73.81,-72.37 40.76,0 73.81,32.41 73.81,72.37l-147.62 0z"/>
  </g>
  <g id="_2070928755664">
   <g>
    <polygon class="fil1" points="31508.16,14547.84 26942.52,14547.84 26942.52,15860.78 27185.02,15860.78 27185.02,14795.96 31508.16,14795.96 "/>
    <path id="_1_1" class="fil0" d="M26942.52 14501.32l4565.64 0 0 93.04 -4565.64 0 -47.45 -46.52 47.45 -46.52zm0 93.04c-26.2,0 -47.45,-20.83 -47.45,-46.52 0,-25.69 21.25,-46.52 47.45,-46.52l0 93.04zm-47.45 1266.42l0 -1312.94 94.9 0 0 1312.94 -47.45 46.52 -47.45 -46.52zm94.9 0c0,25.69 -21.25,46.52 -47.45,46.52 -26.2,0 -47.45,-20.83 -47.45,-46.52l94.9 0zm195.05 46.52l-242.5 0 0 -93.04 242.5 0 47.45 46.52 -47.45 46.52zm0 -93.04c26.2,0 47.45,20.83 47.45,46.52 0,25.69 -21.25,46.52 -47.45,46.52l0 -93.04zm47.45 -1018.3l0 1064.82 -94.9 0 0 -1064.82 47.45 -46.52 47.45 46.52zm-94.9 0c0,-25.69 21.25,-46.52 47.45,-46.52 26.2,0 47.45,20.83 47.45,46.52l-94.9 0zm4370.59 46.52l-4323.14 0 0 -93.04 4323.14 0 47.45 46.52 -47.45 46.52zm0 -93.04c26.2,0 47.45,20.83 47.45,46.52 0,25.69 -21.25,46.52 -47.45,46.52l0 -93.04zm47.45 -201.6l0 248.12 -94.9 0 0 -248.12 47.45 -46.52 47.45 46.52zm-94.9 0c0,-25.69 21.25,-46.52 47.45,-46.52 26.2,0 47.45,20.83 47.45,46.52l-94.9 0z"/>
   </g>
   <g>
    <polygon class="fil1" points="27185.02,19841.01 31508.16,19841.01 31508.16,20078.77 27185.02,20078.77 "/>
    <path id="_1_2" class="fil0" d="M31508.16 19887.53l-4323.14 0 0 -93.04 4323.14 0 47.45 46.52 -47.45 46.52zm0 -93.04c26.2,0 47.45,20.83 47.45,46.52 0,25.69 -21.25,46.52 -47.45,46.52l0 -93.04zm-47.45 284.28l0 -237.76 94.9 0 0 237.76 -47.45 46.52 -47.45 -46.52zm94.9 0c0,25.69 -21.25,46.52 -47.45,46.52 -26.2,0 -47.45,-20.83 -47.45,-46.52l94.9 0zm-4370.59 -46.52l4323.14 0 0 93.04 -4323.14 0 -47.45 -46.52 47.45 -46.52zm0 93.04c-26.2,0 -47.45,-20.83 -47.45,-46.52 0,-25.69 21.25,-46.52 47.45,-46.52l0 93.04zm47.45 -284.28l0 237.76 -94.9 0 0 -237.76 47.45 -46.52 47.45 46.52zm-94.9 0c0,-25.69 21.25,-46.52 47.45,-46.52 26.2,0 47.45,20.83 47.45,46.52l-94.9 0z"/>
   </g>
   <g>
    <polygon class="fil1" points="26942.52,17845.72 27185.02,17845.72 27185.02,20182.17 26942.52,20182.17 "/>
    <path id="_1_3" class="fil0" d="M27185.02 17892.24l-242.5 0 0 -93.04 242.5 0 47.45 46.52 -47.45 46.52zm0 -93.04c26.2,0 47.45,20.83 47.45,46.52 0,25.69 -21.25,46.52 -47.45,46.52l0 -93.04zm-47.45 2382.97l0 -2336.45 94.9 0 0 2336.45 -47.45 46.52 -47.45 -46.52zm94.9 0c0,25.69 -21.25,46.52 -47.45,46.52 -26.2,0 -47.45,-20.83 -47.45,-46.52l94.9 0zm-289.95 -46.52l242.5 0 0 93.04 -242.5 0 -47.45 -46.52 47.45 -46.52zm0 93.04c-26.2,0 -47.45,-20.83 -47.45,-46.52 0,-25.69 21.25,-46.52 47.45,-46.52l0 93.04zm47.45 -2382.97l0 2336.45 -94.9 0 0 -2336.45 47.45 -46.52 47.45 46.52zm-94.9 0c0,-25.69 21.25,-46.52 47.45,-46.52 26.2,0 47.45,20.83 47.45,46.52l-94.9 0z"/>
   </g>
   <g>
    <polygon class="fil1" points="31508.16,22963.13 26942.52,22963.13 26942.52,22156.75 27185.02,22156.75 27185.02,22715.01 31508.16,22715.01 "/>
    <path id="_1_4" class="fil0" d="M26942.52 22916.61l4565.64 0 0 93.04 -4565.64 0 -47.45 -46.52 47.45 -46.52zm0 93.04c-26.2,0 -47.45,-20.83 -47.45,-46.52 0,-25.69 21.25,-46.52 47.45,-46.52l0 93.04zm47.45 -852.9l0 806.38 -94.9 0 0 -806.38 47.45 -46.52 47.45 46.52zm-94.9 0c0,-25.69 21.25,-46.52 47.45,-46.52 26.2,0 47.45,20.83 47.45,46.52l-94.9 0zm289.95 46.52l-242.5 0 0 -93.04 242.5 0 47.45 46.52 -47.45 46.52zm0 -93.04c26.2,0 47.45,20.83 47.45,46.52 0,25.69 -21.25,46.52 -47.45,46.52l0 -93.04zm-47.45 604.78l0 -558.26 94.9 0 0 558.26 -47.45 46.52 -47.45 -46.52zm94.9 0c0,25.69 -21.25,46.52 -47.45,46.52 -26.2,0 -47.45,-20.83 -47.45,-46.52l94.9 0zm4275.69 46.52l-4323.14 0 0 -93.04 4323.14 0 47.45 46.52 -47.45 46.52zm0 -93.04c26.2,0 47.45,20.83 47.45,46.52 0,25.69 -21.25,46.52 -47.45,46.52l0 -93.04zm-47.45 294.64l0 -248.12 94.9 0 0 248.12 -47.45 46.52 -47.45 -46.52zm94.9 0c0,25.69 -21.25,46.52 -47.45,46.52 -26.2,0 -47.45,-20.83 -47.45,-46.52l94.9 0z"/>
   </g>
  </g>
  <g>
   <path class="fil0" d="M26963.6 20182.17l0 124.06 -42.16 0 0 -124.06 21.08 -20.67 21.08 20.67zm-42.16 0c0,-11.41 9.44,-20.67 21.08,-20.67 11.64,0 21.08,9.26 21.08,20.67l-42.16 0zm263.58 20.67l-242.5 0 0 -41.34 242.5 0 21.08 20.67 -21.08 20.67zm0 -41.34c11.64,0 21.08,9.26 21.08,20.67 0,11.41 -9.44,20.67 -21.08,20.67l0 -41.34zm-21.08 144.73l0 -124.06 42.16 0 0 124.06 -21.08 20.67 -21.08 -20.67zm42.16 0c0,11.41 -9.44,20.67 -21.08,20.67 -11.64,0 -21.08,-9.26 -21.08,-20.67l42.16 0zm-263.58 -20.67l242.5 0 0 41.34 -242.5 0 -21.08 -20.67 21.08 -20.67zm0 41.34c-11.64,0 -21.08,-9.26 -21.08,-20.67 0,-11.41 9.44,-20.67 21.08,-20.67l0 41.34z"/>
  </g>
  <g>
   <path class="fil0" d="M26963.6 22032.69l0 124.06 -42.16 0 0 -124.06 21.08 -20.67 21.08 20.67zm-42.16 0c0,-11.41 9.44,-20.67 21.08,-20.67 11.64,0 21.08,9.26 21.08,20.67l-42.16 0zm263.58 20.67l-242.5 0 0 -41.34 242.5 0 21.08 20.67 -21.08 20.67zm0 -41.34c11.64,0 21.08,9.26 21.08,20.67 0,11.41 -9.44,20.67 -21.08,20.67l0 -41.34zm-21.08 144.73l0 -124.06 42.16 0 0 124.06 -21.08 20.67 -21.08 -20.67zm42.16 0c0,11.41 -9.44,20.67 -21.08,20.67 -11.64,0 -21.08,-9.26 -21.08,-20.67l42.16 0zm-263.58 -20.67l242.5 0 0 41.34 -242.5 0 -21.08 -20.67 21.08 -20.67zm0 41.34c-11.64,0 -21.08,-9.26 -21.08,-20.67 0,-11.41 9.44,-20.67 21.08,-20.67l0 41.34z"/>
  </g>
  <g>
   <path class="fil0" d="M26963.6 15860.78l0 124.06 -42.16 0 0 -124.06 21.08 -20.67 21.08 20.67zm-42.16 0c0,-11.41 9.44,-20.67 21.08,-20.67 11.64,0 21.08,9.26 21.08,20.67l-42.16 0zm263.58 20.67l-242.5 0 0 -41.34 242.5 0 21.08 20.67 -21.08 20.67zm0 -41.34c11.64,0 21.08,9.26 21.08,20.67 0,11.41 -9.44,20.67 -21.08,20.67l0 -41.34zm-21.08 144.73l0 -124.06 42.16 0 0 124.06 -21.08 20.67 -21.08 -20.67zm42.16 0c0,11.41 -9.44,20.67 -21.08,20.67 -11.64,0 -21.08,-9.26 -21.08,-20.67l42.16 0zm-263.58 -20.67l242.5 0 0 41.34 -242.5 0 -21.08 -20.67 21.08 -20.67zm0 41.34c-11.64,0 -21.08,-9.26 -21.08,-20.67 0,-11.41 9.44,-20.67 21.08,-20.67l0 41.34z"/>
  </g>
  <g>
   <path class="fil0" d="M26963.6 17721.66l0 124.06 -42.16 0 0 -124.06 21.08 -20.67 21.08 20.67zm-42.16 0c0,-11.41 9.44,-20.67 21.08,-20.67 11.64,0 21.08,9.26 21.08,20.67l-42.16 0zm263.58 20.67l-242.5 0 0 -41.34 242.5 0 21.08 20.67 -21.08 20.67zm0 -41.34c11.64,0 21.08,9.26 21.08,20.67 0,11.41 -9.44,20.67 -21.08,20.67l0 -41.34zm-21.08 144.73l0 -124.06 42.16 0 0 124.06 -21.08 20.67 -21.08 -20.67zm42.16 0c0,11.41 -9.44,20.67 -21.08,20.67 -11.64,0 -21.08,-9.26 -21.08,-20.67l42.16 0zm-263.58 -20.67l242.5 0 0 41.34 -242.5 0 -21.08 -20.67 21.08 -20.67zm0 41.34c-11.64,0 -21.08,-9.26 -21.08,-20.67 0,-11.41 9.44,-20.67 21.08,-20.67l0 41.34z"/>
  </g>
  <g>
   <polygon class="fil1" points="26942.52,14547.84 26942.52,14795.96 26489.1,14795.96 26489.1,14547.84 "/>
   <path id="_1_5" class="fil0" d="M26895.07 14795.96l0 -248.12 94.9 0 0 248.12 -47.45 46.52 -47.45 -46.52zm94.9 0c0,25.69 -21.25,46.52 -47.45,46.52 -26.2,0 -47.45,-20.83 -47.45,-46.52l94.9 0zm-500.87 -46.52l453.42 0 0 93.04 -453.42 0 -47.45 -46.52 47.45 -46.52zm0 93.04c-26.2,0 -47.45,-20.83 -47.45,-46.52 0,-25.69 21.25,-46.52 47.45,-46.52l0 93.04zm47.45 -294.64l0 248.12 -94.9 0 0 -248.12 47.45 -46.52 47.45 46.52zm-94.9 0c0,-25.69 21.25,-46.52 47.45,-46.52 26.2,0 47.45,20.83 47.45,46.52l-94.9 0zm500.87 46.52l-453.42 0 0 -93.04 453.42 0 47.45 46.52 -47.45 46.52zm0 -93.04c26.2,0 47.45,20.83 47.45,46.52 0,25.69 -21.25,46.52 -47.45,46.52l0 -93.04z"/>
  </g>
  <g>
   <path class="fil0" d="M26489.1 14568.51l-126.53 0 0 -41.34 126.53 0 21.08 20.67 -21.08 20.67zm0 -41.34c11.64,0 21.08,9.26 21.08,20.67 0,11.41 -9.44,20.67 -21.08,20.67l0 -41.34zm-21.08 268.79l0 -248.12 42.16 0 0 248.12 -21.08 20.67 -21.08 -20.67zm42.16 0c0,11.41 -9.44,20.67 -21.08,20.67 -11.64,0 -21.08,-9.26 -21.08,-20.67l42.16 0zm-147.61 -20.67l126.53 0 0 41.34 -126.53 0 -21.08 -20.67 21.08 -20.67zm0 41.34c-11.64,0 -21.08,-9.26 -21.08,-20.67 0,-11.41 9.44,-20.67 21.08,-20.67l0 41.34zm21.08 -268.79l0 248.12 -42.16 0 0 -248.12 21.08 -20.67 21.08 20.67zm-42.16 0c0,-11.41 9.44,-20.67 21.08,-20.67 11.64,0 21.08,9.26 21.08,20.67l-42.16 0z"/>
  </g>
  <g>
   <path class="fil0" d="M24348.64 14568.51l-115.99 0 0 -41.34 115.99 0 21.08 20.67 -21.08 20.67zm0 -41.34c11.64,0 21.08,9.26 21.08,20.67 0,11.41 -9.44,20.67 -21.08,20.67l0 -41.34zm-21.08 268.79l0 -248.12 42.16 0 0 248.12 -21.08 20.67 -21.08 -20.67zm42.16 0c0,11.41 -9.44,20.67 -21.08,20.67 -11.64,0 -21.08,-9.26 -21.08,-20.67l42.16 0zm-137.07 -20.67l115.99 0 0 41.34 -115.99 0 -21.08 -20.67 21.08 -20.67zm0 41.34c-11.64,0 -21.08,-9.26 -21.08,-20.67 0,-11.41 9.44,-20.67 21.08,-20.67l0 41.34zm21.08 -268.79l0 248.12 -42.16 0 0 -248.12 21.08 -20.67 21.08 20.67zm-42.16 0c0,-11.41 9.44,-20.67 21.08,-20.67 11.64,0 21.08,9.26 21.08,20.67l-42.16 0z"/>
  </g>
  <g id="_2070758622304">
   <g>
    <line class="fil2 str0" x1="29406.67" y1="25456.88" x2="29406.67" y2= "23868.69" />
   </g>
   <g>
    <path class="fil0" d="M31314.8 25456.88l0 -1588.19 54.9 0 0 1588.19 -27.45 26.91 -27.45 -26.91zm54.9 0c0,14.86 -12.29,26.91 -27.45,26.91 -15.16,0 -27.45,-12.05 -27.45,-26.91l54.9 0zm-1963.03 -26.91l1935.58 0 0 53.82 -1935.58 0 -27.45 -26.91 27.45 -26.91zm0 53.82c-15.16,0 -27.45,-12.05 -27.45,-26.91 0,-14.86 12.29,-26.91 27.45,-26.91l0 53.82zm27.45 -1615.1l0 1588.19 -54.9 0 0 -1588.19 27.45 -26.91 27.45 26.91zm-54.9 0c0,-14.86 12.29,-26.91 27.45,-26.91 15.16,0 27.45,12.05 27.45,26.91l-54.9 0zm1963.03 26.91l-1935.58 0 0 -53.82 1935.58 0 27.45 26.91 -27.45 26.91zm0 -53.82c15.16,0 27.45,12.05 27.45,26.91 0,14.86 -12.29,26.91 -27.45,26.91l0 -53.82z"/>
   </g>
   <g>
    <path class="fil0" d="M29475.3 25362.67l0 -1399.78 54.9 0 0 1399.78 -27.45 26.91 -27.45 -26.91zm54.9 0c0,14.86 -12.29,26.91 -27.45,26.91 -15.16,0 -27.45,-12.05 -27.45,-26.91l54.9 0zm1386.47 26.91l-1413.92 0 0 -53.82 1413.92 0 27.45 26.91 -27.45 26.91zm0 -53.82c15.16,0 27.45,12.05 27.45,26.91 0,14.86 -12.29,26.91 -27.45,26.91l0 -53.82zm27.45 -1372.87l0 1399.78 -54.9 0 0 -1399.78 27.45 -26.91 27.45 26.91zm-54.9 0c0,-14.86 12.29,-26.91 27.45,-26.91 15.16,0 27.45,12.05 27.45,26.91l-54.9 0zm-1386.47 -26.91l1413.92 0 0 53.82 -1413.92 0 -27.45 -26.91 27.45 -26.91zm0 53.82c-15.16,0 -27.45,-12.05 -27.45,-26.91 0,-14.86 12.29,-26.91 27.45,-26.91l0 53.82z"/>
   </g>
   <g>
    <line class="fil2 str0" x1="29502.75" y1="23962.89" x2="29722.38" y2= "24178.23" />
   </g>
   <g>
    <line class="fil2 str0" x1="29996.94" y1="24447.43" x2="30422.48" y2= "24878.14" />
   </g>
   <g>
    <line class="fil2 str0" x1="30697.05" y1="25147.3" x2="30916.67" y2= "25362.67" />
   </g>
   <g>
    <line class="fil2 str0" x1="30916.67" y1="23962.89" x2="30697.05" y2= "24178.23" />
   </g>
   <g>
    <line class="fil2 str0" x1="30422.48" y1="24447.43" x2="29996.94" y2= "24878.14" />
   </g>
   <g>
    <line class="fil2 str0" x1="29722.38" y1="25147.3" x2="29502.75" y2= "25362.67" />
   </g>
   <g>
    <line class="fil2 str0" x1="30916.67" y1="24662.77" x2="29502.75" y2= "24662.77" />
   </g>
   <g>
    <line class="fil2 str0" x1="30216.57" y1="23962.89" x2="30216.57" y2= "25362.67" />
   </g>
   <g>
    <line class="fil2 str0" x1="30916.67" y1="24662.77" x2="30697.05" y2= "24878.14" />
   </g>
   <g>
    <line class="fil2 str0" x1="30422.48" y1="25147.3" x2="30216.57" y2= "25362.67" />
   </g>
   <g>
    <line class="fil2 str0" x1="30216.57" y1="23962.89" x2="29996.94" y2= "24178.23" />
   </g>
   <g>
    <polyline class="fil2 str0" points="29722.38,24447.43 29502.75,24662.77 29722.38,24878.14 "/>
   </g>
   <g>
    <line class="fil2 str0" x1="29996.94" y1="25147.3" x2="30216.57" y2= "25362.67" />
   </g>
   <g>
    <line class="fil2 str0" x1="30216.57" y1="23962.89" x2="30422.48" y2= "24178.23" />
   </g>
   <g>
    <line class="fil2 str0" x1="30697.05" y1="24447.43" x2="30916.67" y2= "24662.77" />
   </g>
   <g>
    <path class="fil2 str0" d="M30628.4 24306.11c0,-33.45 -27.66,-60.57 -61.78,-60.57 -34.11,0 -61.77,27.12 -61.77,60.57 0,33.44 27.66,60.56 61.77,60.56 34.12,0 61.78,-27.12 61.78,-60.56z"/>
   </g>
   <g>
    <path class="fil2 str0" d="M30628.4 25005.98c0,-33.45 -27.66,-60.57 -61.78,-60.57 -34.11,0 -61.77,27.12 -61.77,60.57 0,33.48 27.66,60.57 61.77,60.57 34.12,0 61.78,-27.09 61.78,-60.57z"/>
   </g>
   <g>
    <path class="fil2 str0" d="M29928.29 24306.11c0,-33.45 -27.66,-60.57 -61.77,-60.57 -34.11,0 -61.77,27.12 -61.77,60.57 0,33.44 27.66,60.56 61.77,60.56 34.11,0 61.77,-27.12 61.77,-60.56z"/>
   </g>
   <g>
    <path class="fil2 str0" d="M29928.29 25005.98c0,-33.45 -27.66,-60.57 -61.77,-60.57 -34.11,0 -61.77,27.12 -61.77,60.57 0,33.48 27.66,60.57 61.77,60.57 34.11,0 61.77,-27.09 61.77,-60.57z"/>
   </g>
   <g>
    <path class="fil0" d="M30999.06 23868.69c0,-14.86 12.29,-26.91 27.45,-26.91 15.16,0 27.45,12.05 27.45,26.91l-54.9 0zm0 1588.19l0 -1588.19 54.9 0 0 1588.19 -54.9 0zm54.9 0c0,14.86 -12.29,26.91 -27.45,26.91 -15.16,0 -27.45,-12.05 -27.45,-26.91l54.9 0z"/>
   </g>
   <g>
    <line class="fil2 str0" x1="31053.97" y1="23949.45" x2="31053.97" y2= "25376.12" />
   </g>
   <g>
    <polyline class="fil2 str0" points="31328.5,25376.12 31328.5,23949.45 31053.97,23949.45 "/>
   </g>
   <g>
    <line class="fil2 str0" x1="31328.5" y1="24110.96" x2="31053.97" y2= "24110.96" />
   </g>
   <g>
    <line class="fil2 str0" x1="31328.5" y1="24030.2" x2="31053.97" y2= "24030.2" />
   </g>
   <g>
    <line class="fil2 str0" x1="31328.5" y1="24191.71" x2="31053.97" y2= "24191.71" />
   </g>
   <g>
    <line class="fil2 str0" x1="31328.5" y1="24272.47" x2="31053.97" y2= "24272.47" />
   </g>
   <g>
    <line class="fil2 str0" x1="31328.5" y1="24433.98" x2="31053.97" y2= "24433.98" />
   </g>
   <g>
    <line class="fil2 str0" x1="31328.5" y1="24353.22" x2="31053.97" y2= "24353.22" />
   </g>
   <g>
    <line class="fil2 str0" x1="31328.5" y1="24501.26" x2="31053.97" y2= "24501.26" />
   </g>
   <g>
    <line class="fil2 str0" x1="31328.5" y1="24582.01" x2="31053.97" y2= "24582.01" />
   </g>
   <g>
    <line class="fil2 str0" x1="31328.5" y1="24743.52" x2="31053.97" y2= "24743.52" />
   </g>
   <g>
    <line class="fil2 str0" x1="31328.5" y1="24662.77" x2="31053.97" y2= "24662.77" />
   </g>
   <g>
    <line class="fil2 str0" x1="31328.5" y1="24824.28" x2="31053.97" y2= "24824.28" />
   </g>
   <g>
    <line class="fil2 str0" x1="31328.5" y1="24905.03" x2="31053.97" y2= "24905.03" />
   </g>
   <g>
    <line class="fil2 str0" x1="31328.5" y1="25066.55" x2="31053.97" y2= "25066.55" />
   </g>
   <g>
    <line class="fil2 str0" x1="31328.5" y1="24985.79" x2="31053.97" y2= "24985.79" />
   </g>
   <g>
    <line class="fil2 str0" x1="31328.5" y1="25147.3" x2="31053.97" y2= "25147.3" />
   </g>
   <g>
    <line class="fil2 str0" x1="31328.5" y1="25228.06" x2="31053.97" y2= "25228.06" />
   </g>
   <g>
    <line class="fil2 str0" x1="31328.5" y1="25376.12" x2="31053.97" y2= "25376.12" />
   </g>
   <g>
    <line class="fil2 str0" x1="31328.5" y1="25295.36" x2="31053.97" y2= "25295.36" />
   </g>
   <g>
    <line class="fil2 str0" x1="29379.2" y1="24353.22" x2="29338.02" y2= "24353.22" />
   </g>
   <g>
    <path class="fil2 str0" d="M29386.08 24312.85c-18.97,0 -34.34,15.07 -34.34,33.63 0,18.6 15.37,33.64 34.34,33.64"/>
   </g>
   <g>
    <polyline class="fil2 str0" points="29406.67,24312.85 29379.2,24312.85 29379.2,24353.22 29379.2,24393.6 29406.67,24393.6 "/>
   </g>
   <g>
    <line class="fil2 str0" x1="29379.2" y1="24662.77" x2="29338.02" y2= "24662.77" />
   </g>
   <g>
    <path class="fil2 str0" d="M29386.08 24622.39c-18.97,0 -34.34,15.07 -34.34,33.67 0,18.57 15.37,33.64 34.34,33.64"/>
   </g>
   <g>
    <polyline class="fil2 str0" points="29406.67,24622.39 29379.2,24622.39 29379.2,24662.77 29379.2,24703.14 29406.67,24703.14 "/>
   </g>
   <g>
    <line class="fil2 str0" x1="29379.2" y1="24985.79" x2="29338.02" y2= "24985.79" />
   </g>
   <g>
    <path class="fil2 str0" d="M29386.08 24945.41c-18.97,0 -34.34,15.07 -34.34,33.67 0,18.57 15.37,33.64 34.34,33.64"/>
   </g>
   <g>
    <polyline class="fil2 str0" points="29406.67,24945.41 29379.2,24945.41 29379.2,24985.79 29379.2,25026.17 29406.67,25026.17 "/>
   </g>
   <g>
    <line class="fil2 str0" x1="29379.2" y1="24501.26" x2="29338.02" y2= "24501.26" />
   </g>
   <g>
    <path class="fil2 str0" d="M29386.08 24460.88c-18.97,0 -34.34,15.07 -34.34,33.67 0,18.56 15.37,33.63 34.34,33.63"/>
   </g>
   <g>
    <polyline class="fil2 str0" points="29406.67,24460.88 29379.2,24460.88 29379.2,24501.26 29379.2,24541.63 29406.67,24541.63 "/>
   </g>
   <g>
    <line class="fil2 str0" x1="29379.2" y1="24824.28" x2="29338.02" y2= "24824.28" />
   </g>
   <g>
    <path class="fil2 str0" d="M29386.08 24783.9c-18.97,0 -34.34,15.07 -34.34,33.67 0,18.57 15.37,33.64 34.34,33.64"/>
   </g>
   <g>
    <polyline class="fil2 str0" points="29406.67,24783.9 29379.2,24783.9 29379.2,24824.28 29379.2,24864.66 29406.67,24864.66 "/>
   </g>
  </g>
  <g transform="matrix(0.950059 0 0 1 7070.72 12678.9)">
   <text x="20000" y="20000"  class="fil3 fnt0">3.20 (1.60)</text>
  </g>
  <g>
   <path class="fil0" d="M25215.79 30649.21l1597.89 0 0 39.62 -1597.89 0 -20.01 -19.81 20.01 -19.81zm0 39.62c-11.05,0 -20.01,-8.87 -20.01,-19.81 0,-10.94 8.96,-19.81 20.01,-19.81l0 39.62zm20.01 -195.57l0 175.76 -40.02 0 0 -175.76 20.01 -19.81 20.01 19.81zm-40.02 0c0,-10.94 8.96,-19.81 20.01,-19.81 11.05,0 20.01,8.87 20.01,19.81l-40.02 0zm1617.9 19.81l-1597.89 0 0 -39.62 1597.89 0 20.01 19.81 -20.01 19.81zm0 -39.62c11.05,0 20.01,8.87 20.01,19.81 0,10.94 -8.96,19.81 -20.01,19.81l0 -39.62zm-20.01 195.57l0 -175.76 40.02 0 0 175.76 -20.01 19.81 -20.01 -19.81zm40.02 0c0,10.94 -8.96,19.81 -20.01,19.81 -11.05,0 -20.01,-8.87 -20.01,-19.81l40.02 0z"/>
  </g>
  <g>
   <path class="fil0" d="M25052.44 30647.32l168.72 0 0 49.02 -168.72 0 -24.99 -24.51 24.99 -24.51zm0 49.02c-13.8,0 -24.99,-10.98 -24.99,-24.51 0,-13.53 11.19,-24.51 24.99,-24.51l0 49.02zm24.99 -200.27l0 175.76 -49.98 0 0 -175.76 24.99 -24.51 24.99 24.51zm-49.98 0c0,-13.53 11.19,-24.51 24.99,-24.51 13.8,0 24.99,10.98 24.99,24.51l-49.98 0zm193.71 24.51l-168.72 0 0 -49.02 168.72 0 24.99 24.51 -24.99 24.51zm0 -49.02c13.8,0 24.99,10.98 24.99,24.51 0,13.53 -11.19,24.51 -24.99,24.51l0 -49.02zm-24.99 200.27l0 -175.76 49.98 0 0 175.76 -24.99 24.51 -24.99 -24.51zm49.98 0c0,13.53 -11.19,24.51 -24.99,24.51 -13.8,0 -24.99,-10.98 -24.99,-24.51l49.98 0z"/>
  </g>
  <g>
   <path class="fil0" d="M26972.18 30700.41l-149.42 0 0 -49.98 149.42 0 21.25 24.99 -21.25 24.99zm0 -49.98c11.73,0 21.25,11.19 21.25,24.99 0,13.8 -9.52,24.99 -21.25,24.99l0 -49.98zm21.25 -150.77l0 175.76 -42.5 0 0 -175.76 21.25 -24.99 21.25 24.99zm-42.5 0c0,-13.8 9.52,-24.99 21.25,-24.99 11.73,0 21.25,11.19 21.25,24.99l-42.5 0zm-128.17 -24.99l149.42 0 0 49.98 -149.42 0 -21.25 -24.99 21.25 -24.99zm0 49.98c-11.73,0 -21.25,-11.19 -21.25,-24.99 0,-13.8 9.52,-24.99 21.25,-24.99l0 49.98zm-21.25 150.77l0 -175.76 42.5 0 0 175.76 -21.25 24.99 -21.25 -24.99zm42.5 0c0,13.8 -9.52,24.99 -21.25,24.99 -11.73,0 -21.25,-11.19 -21.25,-24.99l42.5 0z"/>
  </g>
  <g>
   <polygon class="fil1" points="25002.37,30406.3 23800.32,30406.3 23800.32,30892.21 25002.37,30892.21 "/>
   <path id="_1_6" class="fil0" d="M23800.32 30333.93l1202.05 0 0 144.74 -1202.05 0 -73.81 -72.37 73.81 -72.37zm0 144.74c-40.76,0 -73.81,-32.41 -73.81,-72.37 0,-39.96 33.05,-72.37 73.81,-72.37l0 144.74zm-73.81 413.54l0 -485.91 147.62 0 0 485.91 -73.81 72.37 -73.81 -72.37zm147.62 0c0,39.96 -33.05,72.37 -73.81,72.37 -40.76,0 -73.81,-32.41 -73.81,-72.37l147.62 0zm1128.24 72.37l-1202.05 0 0 -144.74 1202.05 0 73.81 72.37 -73.81 72.37zm0 -144.74c40.76,0 73.81,32.41 73.81,72.37 0,39.96 -33.05,72.37 -73.81,72.37l0 -144.74zm73.81 -413.54l0 485.91 -147.62 0 0 -485.91 73.81 -72.37 73.81 72.37zm-147.62 0c0,-39.96 33.05,-72.37 73.81,-72.37 40.76,0 73.81,32.41 73.81,72.37l-147.62 0z"/>
  </g>
  <g>
   <polygon class="fil1" points="24675.5,22933.13 23800.32,22933.13 23800.32,22685.01 24675.5,22685.01 "/>
   <path id="_1_7" class="fil0" d="M23800.32 22886.61l875.18 0 0 93.04 -875.18 0 -47.45 -46.52 47.45 -46.52zm0 93.04c-26.2,0 -47.45,-20.83 -47.45,-46.52 0,-25.69 21.25,-46.52 47.45,-46.52l0 93.04zm47.45 -294.64l0 248.12 -94.9 0 0 -248.12 47.45 -46.52 47.45 46.52zm-94.9 0c0,-25.69 21.25,-46.52 47.45,-46.52 26.2,0 47.45,20.83 47.45,46.52l-94.9 0zm922.63 46.52l-875.18 0 0 -93.04 875.18 0 47.45 46.52 -47.45 46.52zm0 -93.04c26.2,0 47.45,20.83 47.45,46.52 0,25.69 -21.25,46.52 -47.45,46.52l0 -93.04zm-47.45 294.64l0 -248.12 94.9 0 0 248.12 -47.45 46.52 -47.45 -46.52zm94.9 0c0,25.69 -21.25,46.52 -47.45,46.52 -26.2,0 -47.45,-20.83 -47.45,-46.52l94.9 0z"/>
  </g>
  <g>
   <path class="fil0" d="M24834.04 22700.11l-126.53 0 0 -41.34 126.53 0 21.08 20.67 -21.08 20.67zm0 -41.34c11.64,0 21.08,9.26 21.08,20.67 0,11.41 -9.44,20.67 -21.08,20.67l0 -41.34zm-21.08 268.79l0 -248.12 42.16 0 0 248.12 -21.08 20.67 -21.08 -20.67zm42.16 0c0,11.41 -9.44,20.67 -21.08,20.67 -11.64,0 -21.08,-9.26 -21.08,-20.67l42.16 0zm-147.61 -20.67l126.53 0 0 41.34 -126.53 0 -21.08 -20.67 21.08 -20.67zm0 41.34c-11.64,0 -21.08,-9.26 -21.08,-20.67 0,-11.41 9.44,-20.67 21.08,-20.67l0 41.34zm21.08 -268.79l0 248.12 -42.16 0 0 -248.12 21.08 -20.67 21.08 20.67zm-42.16 0c0,-11.41 9.44,-20.67 21.08,-20.67 11.64,0 21.08,9.26 21.08,20.67l-42.16 0z"/>
  </g>
  <g transform="matrix(1.01993 0 0 1 6166.85 7135.37)">
   <text x="20000" y="20000"  class="fil3 fnt0">8.70</text>
  </g>
  <g transform="matrix(1.01993 0 0 1 -1288.86 1237.92)">
   <text x="20000" y="20000"  class="fil3 fnt0">11.10</text>
  </g>
  <g transform="matrix(1.01993 0 0 1 6557.33 1607.66)">
   <text x="20000" y="20000"  class="fil3 fnt0">1.80</text>
  </g>
  <g transform="matrix(1.01993 0 0 1 8092.25 -9626.7)">
   <text x="20000" y="20000"  class="fil3 fnt0">8.10</text>
  </g>
  <g>
   <polygon class="fil1" points="25645.58,7238.73 21470.06,7238.73 21470.06,6938.93 25645.58,6938.93 "/>
   <path id="_1_8" class="fil0" d="M21470.06 7192.21l4175.52 0 0 93.04 -4175.52 0 -47.45 -46.52 47.45 -46.52zm0 93.04c-26.2,0 -47.45,-20.83 -47.45,-46.52 0,-25.69 21.25,-46.52 47.45,-46.52l0 93.04zm47.45 -346.32l0 299.8 -94.9 0 0 -299.8 47.45 -46.52 47.45 46.52zm-94.9 0c0,-25.69 21.25,-46.52 47.45,-46.52 26.2,0 47.45,20.83 47.45,46.52l-94.9 0zm4222.97 46.52l-4175.52 0 0 -93.04 4175.52 0 47.45 46.52 -47.45 46.52zm0 -93.04c26.2,0 47.45,20.83 47.45,46.52 0,25.69 -21.25,46.52 -47.45,46.52l0 -93.04zm-47.45 346.32l0 -299.8 94.9 0 0 299.8 -47.45 46.52 -47.45 -46.52zm94.9 0c0,25.69 -21.25,46.52 -47.45,46.52 -26.2,0 -47.45,-20.83 -47.45,-46.52l94.9 0z"/>
  </g>
  <g>
   <polygon class="fil1" points="15354.39,6092.88 15354.39,18569.43 15596.92,18569.43 15596.92,6092.88 "/>
   <path id="_1_9" class="fil0" d="M15306.94 18569.43l0 -12476.55 94.9 0 0 12476.55 -47.45 182.88 -47.45 -182.88zm94.9 0c0,101 -21.25,182.88 -47.45,182.88 -26.2,0 -47.45,-81.88 -47.45,-182.88l94.9 0zm195.08 182.88l-242.53 0 0 -365.76 242.53 0 47.45 182.88 -47.45 182.88zm0 -365.76c26.2,0 47.45,81.88 47.45,182.88 0,101 -21.25,182.88 -47.45,182.88l0 -365.76zm47.45 -12293.67l0 12476.55 -94.9 0 0 -12476.55 47.45 -182.88 47.45 182.88zm-94.9 0c0,-101 21.25,-182.88 47.45,-182.88 26.2,0 47.45,81.88 47.45,182.88l-94.9 0zm-195.08 -182.88l242.53 0 0 365.76 -242.53 0 -47.45 -182.88 47.45 -182.88zm0 365.76c-26.2,0 -47.45,-81.88 -47.45,-182.88 0,-101 21.25,-182.88 47.45,-182.88l0 365.76z"/>
  </g>
  <g>
   <polygon class="fil1" points="15566.91,5596.65 13629.24,5596.65 13629.24,6092.88 15566.91,6092.88 "/>
   <path id="_1_10" class="fil0" d="M13629.24 5524.28l1937.67 0 0 144.74 -1937.67 0 -169.55 -72.37 169.55 -72.37zm0 144.74c-93.63,0 -169.55,-32.41 -169.55,-72.37 0,-39.96 75.92,-72.37 169.55,-72.37l0 144.74zm-169.55 423.86l0 -496.23 339.1 0 0 496.23 -169.55 72.37 -169.55 -72.37zm339.1 0c0,39.96 -75.92,72.37 -169.55,72.37 -93.63,0 -169.55,-32.41 -169.55,-72.37l339.1 0zm1768.12 72.37l-1937.67 0 0 -144.74 1937.67 0 169.55 72.37 -169.55 72.37zm0 -144.74c93.63,0 169.55,32.41 169.55,72.37 0,39.96 -75.92,72.37 -169.55,72.37l0 -144.74zm169.55 -423.86l0 496.23 -339.1 0 0 -496.23 169.55 -72.37 169.55 72.37zm-339.1 0c0,-39.96 75.92,-72.37 169.55,-72.37 93.63,0 169.55,32.41 169.55,72.37l-339.1 0z"/>
  </g>
  <g transform="matrix(1.01993 0 0 1 -3811.14 -1813.52)">
   <text x="20000" y="20000"  class="fil3 fnt1">0.80</text>
  </g>
  <polygon class="fil1" points="23790.34,23124.02 12152.05,23124.02 12152.05,22638.12 23790.34,22638.12 "/>
  <g>
   <polygon class="fil1" points="23803.56,22730.74 23803.56,30898.29 23308,30898.29 23308,22730.74 "/>
   <path id="_1_11" class="fil0" d="M23756.11 30898.29l0 -8167.55 94.9 0 0 8167.55 -47.45 66.34 -47.45 -66.34zm94.9 0c0,36.63 -21.25,66.34 -47.45,66.34 -26.2,0 -47.45,-29.71 -47.45,-66.34l94.9 0zm-543.01 -66.34l495.56 0 0 132.68 -495.56 0 -47.45 -66.34 47.45 -66.34zm0 132.68c-26.2,0 -47.45,-29.71 -47.45,-66.34 0,-36.63 21.25,-66.34 47.45,-66.34l0 132.68zm47.45 -8233.89l0 8167.55 -94.9 0 0 -8167.55 47.45 -66.34 47.45 66.34zm-94.9 0c0,-36.63 21.25,-66.34 47.45,-66.34 26.2,0 47.45,29.71 47.45,66.34l-94.9 0zm543.01 66.34l-495.56 0 0 -132.68 495.56 0 47.45 66.34 -47.45 66.34zm0 -132.68c26.2,0 47.45,29.71 47.45,66.34 0,36.63 -21.25,66.34 -47.45,66.34l0 -132.68z"/>
  </g>
  <g>
   <polygon class="fil1" points="6907.93,5154.94 6907.93,18992.44 7403.52,18992.44 7403.52,5154.94 "/>
   <polygon id="_1_12" class="fil2 str0" points="6907.93,5154.94 6907.93,18992.44 7403.52,18992.44 7403.52,5154.94 "/>
  </g>
  <g>
   <path class="fil0" d="M13509.16 6106.7c20.37,0 36.9,16.2 36.9,36.18 0,19.98 -16.53,36.18 -36.9,36.18l0 -72.36zm-4470.74 0l4470.74 0 0 72.36 -4470.74 0 0 -72.36zm0 72.36c-20.37,0 -36.9,-16.2 -36.9,-36.18 0,-19.98 16.53,-36.18 36.9,-36.18l0 72.36z"/>
  </g>
  <g>
   <path class="fil0" d="M13277.2 5320.99l-4006.82 0 0 -72.36 4006.82 0 36.9 36.18 -36.9 36.18zm0 -72.36c20.37,0 36.9,16.2 36.9,36.18 0,19.98 -16.53,36.18 -36.9,36.18l0 -72.36zm-36.9 211.93l0 -175.75 73.8 0 0 175.75 -36.9 36.18 -36.9 -36.18zm73.8 0c0,19.98 -16.53,36.18 -36.9,36.18 -20.37,0 -36.9,-16.2 -36.9,-36.18l73.8 0zm-4043.72 -36.18l4006.82 0 0 72.36 -4006.82 0 -36.9 -36.18 36.9 -36.18zm0 72.36c-20.37,0 -36.9,-16.2 -36.9,-36.18 0,-19.98 16.53,-36.18 36.9,-36.18l0 72.36zm36.9 -211.93l0 175.75 -73.8 0 0 -175.75 36.9 -36.18 36.9 36.18zm-73.8 0c0,-19.98 16.53,-36.18 36.9,-36.18 20.37,0 36.9,16.2 36.9,36.18l-73.8 0z"/>
  </g>
  <g>
   <path class="fil0" d="M13445.9 5320.99l-168.7 0 0 -72.36 168.7 0 36.9 36.18 -36.9 36.18zm0 -72.36c20.37,0 36.9,16.2 36.9,36.18 0,19.98 -16.53,36.18 -36.9,36.18l0 -72.36zm-36.9 211.93l0 -175.75 73.8 0 0 175.75 -36.9 36.18 -36.9 -36.18zm73.8 0c0,19.98 -16.53,36.18 -36.9,36.18 -20.37,0 -36.9,-16.2 -36.9,-36.18l73.8 0zm-205.6 -36.18l168.7 0 0 72.36 -168.7 0 -36.9 -36.18 36.9 -36.18zm0 72.36c-20.37,0 -36.9,-16.2 -36.9,-36.18 0,-19.98 16.53,-36.18 36.9,-36.18l0 72.36zm36.9 -211.93l0 175.75 -73.8 0 0 -175.75 36.9 -36.18 36.9 36.18zm-73.8 0c0,-19.98 16.53,-36.18 36.9,-36.18 20.37,0 36.9,16.2 36.9,36.18l-73.8 0z"/>
  </g>
  <g>
   <path class="fil0" d="M9091.12 5248.63l179.26 0 0 72.36 -179.26 0 -36.9 -36.18 36.9 -36.18zm0 72.36c-20.37,0 -36.9,-16.2 -36.9,-36.18 0,-19.98 16.53,-36.18 36.9,-36.18l0 72.36zm-36.9 139.57l0 -175.75 73.8 0 0 175.75 -36.9 36.18 -36.9 -36.18zm73.8 0c0,19.98 -16.53,36.18 -36.9,36.18 -20.37,0 -36.9,-16.2 -36.9,-36.18l73.8 0zm142.36 36.18l-179.26 0 0 -72.36 179.26 0 36.9 36.18 -36.9 36.18zm0 -72.36c20.37,0 36.9,16.2 36.9,36.18 0,19.98 -16.53,36.18 -36.9,36.18l0 -72.36zm36.9 -139.57l0 175.75 -73.8 0 0 -175.75 36.9 -36.18 36.9 36.18zm-73.8 0c0,-19.98 16.53,-36.18 36.9,-36.18 20.37,0 36.9,16.2 36.9,36.18l-73.8 0z"/>
  </g>
  <g>
   <path class="fil0" d="M13362.63 4989.16c20.6,0 37.31,16.2 37.31,36.18 0,19.98 -16.71,36.18 -37.31,36.18l0 -72.36zm-4275.62 0l4275.62 0 0 72.36 -4275.62 0 0 -72.36zm0 72.36c-20.6,0 -37.31,-16.2 -37.31,-36.18 0,-19.98 16.71,-36.18 37.31,-36.18l0 72.36z"/>
  </g>
  <g transform="matrix(0.96239 0 0 1 -10626.1 -10194.5)">
   <text x="20000" y="20000"  class="fil3 fnt0">16.00</text>
  </g>
  <g>
   <polygon class="fil1" points="17115.29,7600.57 15596.92,7600.57 15596.92,5646.65 13509.16,5646.65 13509.16,5284.81 15892.15,5284.81 15976.51,5284.81 15976.51,7238.73 17115.29,7238.73 "/>
   <path id="_1_13" class="fil0" d="M15596.92 7554.05l1518.37 0 0 93.04 -1518.37 0 -47.45 -46.52 47.45 -46.52zm0 93.04c-26.2,0 -47.45,-20.83 -47.45,-46.52 0,-25.69 21.25,-46.52 47.45,-46.52l0 93.04zm47.45 -2000.44l0 1953.92 -94.9 0 0 -1953.92 47.45 -46.52 47.45 46.52zm-94.9 0c0,-25.69 21.25,-46.52 47.45,-46.52 26.2,0 47.45,20.83 47.45,46.52l-94.9 0zm-2040.31 -46.52l2087.76 0 0 93.04 -2087.76 0 -47.45 -46.52 47.45 -46.52zm0 93.04c-26.2,0 -47.45,-20.83 -47.45,-46.52 0,-25.69 21.25,-46.52 47.45,-46.52l0 93.04zm47.45 -408.36l0 361.84 -94.9 0 0 -361.84 47.45 -46.52 47.45 46.52zm-94.9 0c0,-25.69 21.25,-46.52 47.45,-46.52 26.2,0 47.45,20.83 47.45,46.52l-94.9 0zm2430.44 46.52l-2382.99 0 0 -93.04 2382.99 0 0 0 0 93.04zm0 -93.04c26.2,0 47.45,20.83 47.45,46.52 0,25.69 -21.25,46.52 -47.45,46.52l0 -93.04zm84.36 93.04l-84.36 0 0 -93.04 84.36 0 47.45 46.52 -47.45 46.52zm0 -93.04c26.2,0 47.45,20.83 47.45,46.52 0,25.69 -21.25,46.52 -47.45,46.52l0 -93.04zm-47.45 2000.44l0 -1953.92 94.9 0 0 1953.92 -47.45 46.52 -47.45 -46.52zm94.9 0c0,25.69 -21.25,46.52 -47.45,46.52 -26.2,0 -47.45,-20.83 -47.45,-46.52l94.9 0zm1091.33 46.52l-1138.78 0 0 -93.04 1138.78 0 47.45 46.52 -47.45 46.52zm0 -93.04c26.2,0 47.45,20.83 47.45,46.52 0,25.69 -21.25,46.52 -47.45,46.52l0 -93.04zm-47.45 408.36l0 -361.84 94.9 0 0 361.84 -47.45 46.52 -47.45 -46.52zm94.9 0c0,25.69 -21.25,46.52 -47.45,46.52 -26.2,0 -47.45,-20.83 -47.45,-46.52l94.9 0z"/>
  </g>
  <g>
   <polygon class="fil1" points="17241.82,7238.73 15976.51,7238.73 15976.51,5318.32 13382.63,5318.32 13382.63,5033.82 16271.74,5033.82 16271.74,6944.08 17241.82,6944.08 "/>
   <path id="_1_14" class="fil0" d="M15976.51 7193.01l1265.31 0 0 91.44 -1265.31 0 -47.45 -45.72 47.45 -45.72zm0 91.44c-26.2,0 -47.45,-20.47 -47.45,-45.72 0,-25.25 21.25,-45.72 47.45,-45.72l0 91.44zm47.45 -1966.13l0 1920.41 -94.9 0 0 -1920.41 47.45 -45.72 47.45 45.72zm-94.9 0c0,-25.25 21.25,-45.72 47.45,-45.72 26.2,0 47.45,20.47 47.45,45.72l-94.9 0zm-2546.43 -45.72l2593.88 0 0 91.44 -2593.88 0 -47.45 -45.72 47.45 -45.72zm0 91.44c-26.2,0 -47.45,-20.47 -47.45,-45.72 0,-25.25 21.25,-45.72 47.45,-45.72l0 91.44zm47.45 -330.22l0 284.5 -94.9 0 0 -284.5 47.45 -45.72 47.45 45.72zm-94.9 0c0,-25.25 21.25,-45.72 47.45,-45.72 26.2,0 47.45,20.47 47.45,45.72l-94.9 0zm2936.56 45.72l-2889.11 0 0 -91.44 2889.11 0 47.45 45.72 -47.45 45.72zm0 -91.44c26.2,0 47.45,20.47 47.45,45.72 0,25.25 -21.25,45.72 -47.45,45.72l0 -91.44zm-47.45 1955.98l0 -1910.26 94.9 0 0 1910.26 -47.45 45.72 -47.45 -45.72zm94.9 0c0,25.25 -21.25,45.72 -47.45,45.72 -26.2,0 -47.45,-20.47 -47.45,-45.72l94.9 0zm922.63 45.72l-970.08 0 0 -91.44 970.08 0 47.45 45.72 -47.45 45.72zm0 -91.44c26.2,0 47.45,20.47 47.45,45.72 0,25.25 -21.25,45.72 -47.45,45.72l0 -91.44zm-47.45 340.37l0 -294.65 94.9 0 0 294.65 -47.45 45.72 -47.45 -45.72zm94.9 0c0,25.25 -21.25,45.72 -47.45,45.72 -26.2,0 -47.45,-20.47 -47.45,-45.72l94.9 0z"/>
  </g>
  <g transform="matrix(1.01993 0 0 1 6022.64 -2522.02)">
   <text x="20000" y="20000"  class="fil3 fnt0">3.50</text>
  </g>
  <g>
   <polygon class="fil1" points="32617.64,7228.73 29873.8,7228.73 29873.8,6928.93 32617.64,6928.93 "/>
   <path id="_1_15" class="fil0" d="M29873.8 7182.21l2743.84 0 0 93.04 -2743.84 0 -59.94 -46.52 59.94 -46.52zm0 93.04c-33.1,0 -59.94,-20.83 -59.94,-46.52 0,-25.69 26.84,-46.52 59.94,-46.52l0 93.04zm59.94 -346.32l0 299.8 -119.88 0 0 -299.8 59.94 -46.52 59.94 46.52zm-119.88 0c0,-25.69 26.84,-46.52 59.94,-46.52 33.1,0 59.94,20.83 59.94,46.52l-119.88 0zm2803.78 46.52l-2743.84 0 0 -93.04 2743.84 0 59.94 46.52 -59.94 46.52zm0 -93.04c33.1,0 59.94,20.83 59.94,46.52 0,25.69 -26.84,46.52 -59.94,46.52l0 -93.04zm-59.94 346.32l0 -299.8 119.88 0 0 299.8 -59.94 46.52 -59.94 -46.52zm119.88 0c0,25.69 -26.84,46.52 -59.94,46.52 -33.1,0 -59.94,-20.83 -59.94,-46.52l119.88 0z"/>
  </g>
  <g>
   <polygon class="fil1" points="23431.29,7754.74 23431.29,18569.41 23684.35,18569.41 23684.35,7754.74 "/>
   <path id="_1_16" class="fil0" d="M23383.84 18569.41l0 -10814.67 94.9 0 0 10814.67 -47.45 93.77 -47.45 -93.77zm94.9 0c0,51.78 -21.25,93.77 -47.45,93.77 -26.2,0 -47.45,-41.99 -47.45,-93.77l94.9 0zm205.61 93.77l-253.06 0 0 -187.54 253.06 0 47.45 93.77 -47.45 93.77zm0 -187.54c26.2,0 47.45,41.99 47.45,93.77 0,51.78 -21.25,93.77 -47.45,93.77l0 -187.54zm47.45 -10720.9l0 10814.67 -94.9 0 0 -10814.67 47.45 -93.77 47.45 93.77zm-94.9 0c0,-51.78 21.25,-93.77 47.45,-93.77 26.2,0 47.45,41.99 47.45,93.77l-94.9 0zm-205.61 -93.77l253.06 0 0 187.54 -253.06 0 -47.45 -93.77 47.45 -93.77zm0 187.54c-26.2,0 -47.45,-41.99 -47.45,-93.77 0,-51.78 21.25,-93.77 47.45,-93.77l0 187.54z"/>
  </g>
  <g>
   <polygon class="fil1" points="7393.52,19003.92 7393.52,18518.02 12503.34,18518.02 12503.34,19003.92 "/>
   <polygon id="_1_17" class="fil2 str0" points="7393.52,19003.92 7393.52,18518.02 12503.34,18518.02 12503.34,19003.92 "/>
  </g>
  <g>
   <path class="fil0" d="M31508.16 30809.84l506.13 0 0 144.74 -506.13 0 -73.81 -72.37 73.81 -72.37zm0 144.74c-40.76,0 -73.81,-32.41 -73.81,-72.37 0,-39.96 33.05,-72.37 73.81,-72.37l0 144.74zm73.81 -1292.27l0 1219.9 -147.62 0 0 -1219.9 73.81 -72.37 73.81 72.37zm-147.62 0c0,-39.96 33.05,-72.37 73.81,-72.37 40.76,0 73.81,32.41 73.81,72.37l-147.62 0zm579.94 72.37l-506.13 0 0 -144.74 506.13 0 73.81 72.37 -73.81 72.37zm0 -144.74c40.76,0 73.81,32.41 73.81,72.37 0,39.96 -33.05,72.37 -73.81,72.37l0 -144.74zm-73.81 1292.27l0 -1219.9 147.62 0 0 1219.9 -73.81 72.37 -73.81 -72.37zm147.62 0c0,39.96 -33.05,72.37 -73.81,72.37 -40.76,0 -73.81,-32.41 -73.81,-72.37l147.62 0z"/>
  </g>
  <g>
   <line class="fil2 str0" x1="31508.16" y1="29858.72" x2="31581.97" y2= "29786.36" />
  </g>
  <path class="fil0" d="M31655.79 29713.96l5.28 0c0,-2.86 -2.36,-5.18 -5.28,-5.18 -2.91,0 -5.28,2.32 -5.28,5.18 0,2.85 2.37,5.17 5.28,5.17 2.92,0 5.28,-2.32 5.28,-5.17l-5.28 0z"/>
  <path class="fil0" d="M31539.8 30158.52l5.28 0c0,-2.86 -2.37,-5.18 -5.28,-5.18 -2.92,0 -5.28,2.32 -5.28,5.18 0,2.85 2.36,5.17 5.28,5.17 2.91,0 5.28,-2.32 5.28,-5.17l-5.28 0z"/>
  <g>
   <line class="fil2 str0" x1="31613.6" y1="30075.83" x2="32014.29" y2= "29693.32" />
  </g>
  <g>
   <line class="fil2 str0" x1="31508.16" y1="30510.03" x2="31908.85" y2= "30117.17" />
  </g>
  <path class="fil0" d="M31993.19 30034.46l5.28 0c0,-2.86 -2.36,-5.18 -5.28,-5.18 -2.91,0 -5.28,2.32 -5.28,5.18 0,2.85 2.37,5.17 5.28,5.17 2.92,0 5.28,-2.32 5.28,-5.17l-5.28 0z"/>
  <g>
   <line class="fil2 str0" x1="31508.16" y1="30840.86" x2="31782.32" y2= "30572.06" />
  </g>
  <path class="fil0" d="M31866.66 30489.32l5.28 0c0,-2.86 -2.37,-5.18 -5.28,-5.18 -2.91,0 -5.28,2.32 -5.28,5.18 0,2.86 2.37,5.18 5.28,5.18 2.91,0 5.28,-2.32 5.28,-5.18l-5.28 0z"/>
  <g>
   <line class="fil2 str0" x1="31951.02" y1="30406.66" x2="32014.29" y2= "30354.96" />
  </g>
  <g>
   <line class="fil2 str0" x1="31824.49" y1="30861.52" x2="32014.29" y2= "30675.43" />
  </g>
  <g>
   <path class="fil0" d="M31508.16 23862.56l506.13 0 0 144.74 -506.13 0 -73.81 -72.37 73.81 -72.37zm0 144.74c-40.76,0 -73.81,-32.41 -73.81,-72.37 0,-39.96 33.05,-72.37 73.81,-72.37l0 144.74zm73.81 -1292.29l0 1219.92 -147.62 0 0 -1219.92 73.81 -72.37 73.81 72.37zm-147.62 0c0,-39.96 33.05,-72.37 73.81,-72.37 40.76,0 73.81,32.41 73.81,72.37l-147.62 0zm579.94 72.37l-506.13 0 0 -144.74 506.13 0 73.81 72.37 -73.81 72.37zm0 -144.74c40.76,0 73.81,32.41 73.81,72.37 0,39.96 -33.05,72.37 -73.81,72.37l0 -144.74zm-73.81 1292.29l0 -1219.92 147.62 0 0 1219.92 -73.81 72.37 -73.81 -72.37zm147.62 0c0,39.96 -33.05,72.37 -73.81,72.37 -40.76,0 -73.81,-32.41 -73.81,-72.37l147.62 0z"/>
  </g>
  <g>
   <line class="fil2 str0" x1="31508.16" y1="22901.1" x2="31581.97" y2= "22839.07" />
  </g>
  <path class="fil0" d="M31655.79 22756.38l5.28 0c0,-2.86 -2.36,-5.18 -5.28,-5.18 -2.91,0 -5.28,2.32 -5.28,5.18 0,2.86 2.37,5.18 5.28,5.18 2.92,0 5.28,-2.32 5.28,-5.18l-5.28 0z"/>
  <path class="fil0" d="M31539.8 23211.24l5.28 0c0,-2.85 -2.37,-5.17 -5.28,-5.17 -2.92,0 -5.28,2.32 -5.28,5.17 0,2.86 2.36,5.18 5.28,5.18 2.91,0 5.28,-2.32 5.28,-5.18l-5.28 0z"/>
  <g>
   <line class="fil2 str0" x1="31613.6" y1="23128.56" x2="32014.29" y2= "22746.03" />
  </g>
  <g>
   <line class="fil2 str0" x1="31508.16" y1="23562.76" x2="31908.85" y2= "23169.9" />
  </g>
  <g>
   <line class="fil2 str0" x1="31482.93" y1="23918.31" x2="31782.32" y2= "23624.79" />
  </g>
  <g>
   <polygon class="fil1" points="32014.29,8820.47 31508.16,8820.47 31508.16,7600.57 32014.29,7600.57 "/>
   <path id="_1_18" class="fil0" d="M31508.16 8748.1l506.13 0 0 144.74 -506.13 0 -73.81 -72.37 73.81 -72.37zm0 144.74c-40.76,0 -73.81,-32.41 -73.81,-72.37 0,-39.96 33.05,-72.37 73.81,-72.37l0 144.74zm73.81 -1292.27l0 1219.9 -147.62 0 0 -1219.9 73.81 -72.37 73.81 72.37zm-147.62 0c0,-39.96 33.05,-72.37 73.81,-72.37 40.76,0 73.81,32.41 73.81,72.37l-147.62 0zm579.94 72.37l-506.13 0 0 -144.74 506.13 0 73.81 72.37 -73.81 72.37zm0 -144.74c40.76,0 73.81,32.41 73.81,72.37 0,39.96 -33.05,72.37 -73.81,72.37l0 -144.74zm-73.81 1292.27l0 -1219.9 147.62 0 0 1219.9 -73.81 72.37 -73.81 -72.37zm147.62 0c0,39.96 -33.05,72.37 -73.81,72.37 -40.76,0 -73.81,-32.41 -73.81,-72.37l147.62 0z"/>
  </g>
  <g>
   <line class="fil2 str0" x1="31508.16" y1="7786.66" x2="31581.97" y2= "7724.63" />
  </g>
  <path class="fil0" d="M31655.79 7641.92l5.28 0c0,-2.86 -2.36,-5.18 -5.28,-5.18 -2.91,0 -5.28,2.32 -5.28,5.18 0,2.85 2.37,5.17 5.28,5.17 2.92,0 5.28,-2.32 5.28,-5.17l-5.28 0z"/>
  <path class="fil0" d="M31539.8 8096.8l5.28 0c0,-2.85 -2.37,-5.17 -5.28,-5.17 -2.92,0 -5.28,2.32 -5.28,5.17 0,2.86 2.36,5.18 5.28,5.18 2.91,0 5.28,-2.32 5.28,-5.18l-5.28 0z"/>
  <g>
   <line class="fil2 str0" x1="31613.6" y1="8014.09" x2="32014.29" y2= "7631.59" />
  </g>
  <g>
   <line class="fil2 str0" x1="31508.16" y1="8448.29" x2="31908.85" y2= "8055.46" />
  </g>
  <path class="fil0" d="M31993.19 7972.75l5.28 0c0,-2.86 -2.36,-5.18 -5.28,-5.18 -2.91,0 -5.28,2.32 -5.28,5.18 0,2.85 2.37,5.17 5.28,5.17 2.92,0 5.28,-2.32 5.28,-5.17l-5.28 0z"/>
  <g>
   <line class="fil2 str0" x1="31508.16" y1="8779.13" x2="31782.32" y2= "8510.32" />
  </g>
  <path class="fil0" d="M31866.66 8427.63l5.28 0c0,-2.85 -2.37,-5.17 -5.28,-5.17 -2.91,0 -5.28,2.32 -5.28,5.17 0,2.86 2.37,5.18 5.28,5.18 2.91,0 5.28,-2.32 5.28,-5.18l-5.28 0z"/>
  <g>
   <line class="fil2 str0" x1="31824.49" y1="8799.81" x2="32014.29" y2= "8613.72" />
  </g>
  <g>
   <polygon class="fil1" points="32636.41,8820.47 32130.28,8820.47 32130.28,7600.57 32636.41,7600.57 "/>
   <path id="_1_19" class="fil0" d="M32130.28 8748.1l506.13 0 0 144.74 -506.13 0 -73.81 -72.37 73.81 -72.37zm0 144.74c-40.76,0 -73.81,-32.41 -73.81,-72.37 0,-39.96 33.05,-72.37 73.81,-72.37l0 144.74zm73.81 -1292.27l0 1219.9 -147.62 0 0 -1219.9 73.81 -72.37 73.81 72.37zm-147.62 0c0,-39.96 33.05,-72.37 73.81,-72.37 40.76,0 73.81,32.41 73.81,72.37l-147.62 0zm579.94 72.37l-506.13 0 0 -144.74 506.13 0 73.81 72.37 -73.81 72.37zm0 -144.74c40.76,0 73.81,32.41 73.81,72.37 0,39.96 -33.05,72.37 -73.81,72.37l0 -144.74zm-73.81 1292.27l0 -1219.9 147.62 0 0 1219.9 -73.81 72.37 -73.81 -72.37zm147.62 0c0,39.96 -33.05,72.37 -73.81,72.37 -40.76,0 -73.81,-32.41 -73.81,-72.37l147.62 0z"/>
  </g>
  <g>
   <line class="fil2 str0" x1="32130.28" y1="22901.1" x2="32193.55" y2= "22839.07" />
  </g>
  <path class="fil0" d="M32277.89 22756.38l5.28 0c0,-2.86 -2.37,-5.18 -5.28,-5.18 -2.92,0 -5.28,2.32 -5.28,5.18 0,2.86 2.36,5.18 5.28,5.18 2.91,0 5.28,-2.32 5.28,-5.18l-5.28 0z"/>
  <g>
   <line class="fil2 str0" x1="32235.72" y1="23128.56" x2="32636.41" y2= "22746.03" />
  </g>
  <g>
   <path class="fil0" d="M32130.28 30809.84l506.13 0 0 144.74 -506.13 0 -73.81 -72.37 73.81 -72.37zm0 144.74c-40.76,0 -73.81,-32.41 -73.81,-72.37 0,-39.96 33.05,-72.37 73.81,-72.37l0 144.74zm73.81 -1292.27l0 1219.9 -147.62 0 0 -1219.9 73.81 -72.37 73.81 72.37zm-147.62 0c0,-39.96 33.05,-72.37 73.81,-72.37 40.76,0 73.81,32.41 73.81,72.37l-147.62 0zm579.94 72.37l-506.13 0 0 -144.74 506.13 0 73.81 72.37 -73.81 72.37zm0 -144.74c40.76,0 73.81,32.41 73.81,72.37 0,39.96 -33.05,72.37 -73.81,72.37l0 -144.74zm-73.81 1292.27l0 -1219.9 147.62 0 0 1219.9 -73.81 72.37 -73.81 -72.37zm147.62 0c0,39.96 -33.05,72.37 -73.81,72.37 -40.76,0 -73.81,-32.41 -73.81,-72.37l147.62 0z"/>
  </g>
  <g>
   <line class="fil2 str0" x1="32130.28" y1="29858.72" x2="32193.55" y2= "29786.36" />
  </g>
  <path class="fil0" d="M32277.89 29713.96l5.28 0c0,-2.86 -2.37,-5.18 -5.28,-5.18 -2.92,0 -5.28,2.32 -5.28,5.18 0,2.85 2.36,5.17 5.28,5.17 2.91,0 5.28,-2.32 5.28,-5.17l-5.28 0z"/>
  <path class="fil0" d="M32161.92 30158.52l5.28 0c0,-2.86 -2.37,-5.18 -5.28,-5.18 -2.92,0 -5.28,2.32 -5.28,5.18 0,2.85 2.36,5.17 5.28,5.17 2.91,0 5.28,-2.32 5.28,-5.17l-5.28 0z"/>
  <g>
   <line class="fil2 str0" x1="32235.72" y1="30075.83" x2="32636.41" y2= "29693.32" />
  </g>
  <g>
   <line class="fil2 str0" x1="32130.28" y1="30510.03" x2="32530.95" y2= "30117.17" />
  </g>
  <path class="fil0" d="M32615.31 30034.46l5.28 0c0,-2.86 -2.37,-5.18 -5.28,-5.18 -2.92,0 -5.28,2.32 -5.28,5.18 0,2.85 2.36,5.17 5.28,5.17 2.91,0 5.28,-2.32 5.28,-5.17l-5.28 0z"/>
  <g>
   <line class="fil2 str0" x1="32130.28" y1="30840.86" x2="32404.42" y2= "30572.06" />
  </g>
  <path class="fil0" d="M32488.78 30489.32l5.28 0c0,-2.86 -2.37,-5.18 -5.28,-5.18 -2.92,0 -5.28,2.32 -5.28,5.18 0,2.86 2.36,5.18 5.28,5.18 2.91,0 5.28,-2.32 5.28,-5.18l-5.28 0z"/>
  <g>
   <line class="fil2 str0" x1="32573.14" y1="30406.66" x2="32636.41" y2= "30354.96" />
  </g>
  <g>
   <line class="fil2 str0" x1="32446.61" y1="30861.52" x2="32636.41" y2= "30675.43" />
  </g>
  <g>
   <polygon class="fil1" points="31508.16,11733.94 31508.16,23324.97 32014.29,23324.97 32014.29,11733.94 "/>
   <path id="_1_20" class="fil0" d="M31434.35 23324.97l0 -11591.03 147.62 0 0 11591.03 -73.81 88.2 -73.81 -88.2zm147.62 0c0,48.71 -33.05,88.2 -73.81,88.2 -40.76,0 -73.81,-39.49 -73.81,-88.2l147.62 0zm432.32 88.2l-506.13 0 0 -176.4 506.13 0 73.81 88.2 -73.81 88.2zm0 -176.4c40.76,0 73.81,39.49 73.81,88.2 0,48.71 -33.05,88.2 -73.81,88.2l0 -176.4zm73.81 -11502.83l0 11591.03 -147.62 0 0 -11591.03 73.81 -88.2 73.81 88.2zm-147.62 0c0,-48.71 33.05,-88.2 73.81,-88.2 40.76,0 73.81,39.49 73.81,88.2l-147.62 0zm-432.32 -88.2l506.13 0 0 176.4 -506.13 0 -73.81 -88.2 73.81 -88.2zm0 176.4c-40.76,0 -73.81,-39.49 -73.81,-88.2 0,-48.71 33.05,-88.2 73.81,-88.2l0 176.4z"/>
  </g>
  <g>
   <polygon class="fil1" points="31508.16,23423.41 31508.16,30833.87 32014.29,30833.87 32014.29,23423.41 "/>
   <path id="_1_21" class="fil0" d="M31434.35 30833.87l0 -7410.46 147.62 0 0 7410.46 -73.81 93.64 -73.81 -93.64zm147.62 0c0,51.71 -33.05,93.64 -73.81,93.64 -40.76,0 -73.81,-41.93 -73.81,-93.64l147.62 0zm432.32 93.64l-506.13 0 0 -187.28 506.13 0 73.81 93.64 -73.81 93.64zm0 -187.28c40.76,0 73.81,41.93 73.81,93.64 0,51.71 -33.05,93.64 -73.81,93.64l0 -187.28zm73.81 -7316.82l0 7410.46 -147.62 0 0 -7410.46 73.81 -93.64 73.81 93.64zm-147.62 0c0,-51.71 33.05,-93.64 73.81,-93.64 40.76,0 73.81,41.93 73.81,93.64l-147.62 0zm-432.32 -93.64l506.13 0 0 187.28 -506.13 0 -73.81 -93.64 73.81 -93.64zm0 187.28c-40.76,0 -73.81,-41.93 -73.81,-93.64 0,-51.71 33.05,-93.64 73.81,-93.64l0 187.28z"/>
  </g>
  <g>
   <polygon class="fil1" points="32130.28,23934.93 32130.28,30836.22 32636.41,30836.22 32636.41,23934.93 "/>
   <path id="_1_22" class="fil0" d="M32056.47 30836.22l0 -6901.29 147.62 0 0 6901.29 -73.81 87.21 -73.81 -87.21zm147.62 0c0,48.16 -33.05,87.21 -73.81,87.21 -40.76,0 -73.81,-39.05 -73.81,-87.21l147.62 0zm432.32 87.21l-506.13 0 0 -174.42 506.13 0 73.81 87.21 -73.81 87.21zm0 -174.42c40.76,0 73.81,39.05 73.81,87.21 0,48.16 -33.05,87.21 -73.81,87.21l0 -174.42zm73.81 -6814.08l0 6901.29 -147.62 0 0 -6901.29 73.81 -87.21 73.81 87.21zm-147.62 0c0,-48.16 33.05,-87.21 73.81,-87.21 40.76,0 73.81,39.05 73.81,87.21l-147.62 0zm-432.32 -87.21l506.13 0 0 174.42 -506.13 0 -73.81 -87.21 73.81 -87.21zm0 174.42c-40.76,0 -73.81,-39.05 -73.81,-87.21 0,-48.16 33.05,-87.21 73.81,-87.21l0 174.42z"/>
  </g>
  <g>
   <polygon class="fil1" points="32130.28,11994.3 32130.28,23934.94 32636.41,23934.94 32636.41,11994.3 "/>
   <path id="_1_23" class="fil0" d="M32056.47 23934.94l0 -11940.64 147.62 0 0 11940.64 -73.81 90.86 -73.81 -90.86zm147.62 0c0,50.18 -33.05,90.86 -73.81,90.86 -40.76,0 -73.81,-40.68 -73.81,-90.86l147.62 0zm432.32 90.86l-506.13 0 0 -181.72 506.13 0 73.81 90.86 -73.81 90.86zm0 -181.72c40.76,0 73.81,40.68 73.81,90.86 0,50.18 -33.05,90.86 -73.81,90.86l0 -181.72zm73.81 -11849.78l0 11940.64 -147.62 0 0 -11940.64 73.81 -90.86 73.81 90.86zm-147.62 0c0,-50.18 33.05,-90.86 73.81,-90.86 40.76,0 73.81,40.68 73.81,90.86l-147.62 0zm-432.32 -90.86l506.13 0 0 181.72 -506.13 0 -73.81 -90.86 73.81 -90.86zm0 181.72c-40.76,0 -73.81,-40.68 -73.81,-90.86 0,-50.18 33.05,-90.86 73.81,-90.86l0 181.72z"/>
  </g>
  <g>
   <polygon class="fil1" points="32130.28,8820.47 32130.28,11994.31 32636.41,11994.31 32636.41,8820.47 "/>
   <path id="_1_24" class="fil0" d="M32056.47 11994.31l0 -3173.84 147.62 0 0 3173.84 -73.81 72.37 -73.81 -72.37zm147.62 0c0,39.96 -33.05,72.37 -73.81,72.37 -40.76,0 -73.81,-32.41 -73.81,-72.37l147.62 0zm432.32 72.37l-506.13 0 0 -144.74 506.13 0 73.81 72.37 -73.81 72.37zm0 -144.74c40.76,0 73.81,32.41 73.81,72.37 0,39.96 -33.05,72.37 -73.81,72.37l0 -144.74zm73.81 -3101.47l0 3173.84 -147.62 0 0 -3173.84 73.81 -72.37 73.81 72.37zm-147.62 0c0,-39.96 33.05,-72.37 73.81,-72.37 40.76,0 73.81,32.41 73.81,72.37l-147.62 0zm-432.32 -72.37l506.13 0 0 144.74 -506.13 0 -73.81 -72.37 73.81 -72.37zm0 144.74c-40.76,0 -73.81,-32.41 -73.81,-72.37 0,-39.96 33.05,-72.37 73.81,-72.37l0 144.74z"/>
  </g>
  <g>
   <path class="fil0" d="M12438.89 19405.06l0 -124.05 42.16 0 0 124.05 -21.08 20.67 -21.08 -20.67zm42.16 0c0,11.41 -9.44,20.67 -21.08,20.67 -11.64,0 -21.08,-9.26 -21.08,-20.67l42.16 0zm-274.14 -20.67l253.06 0 0 41.34 -253.06 0 -21.08 -20.67 21.08 -20.67zm0 41.34c-11.64,0 -21.08,-9.26 -21.08,-20.67 0,-11.41 9.44,-20.67 21.08,-20.67l0 41.34zm21.08 -144.72l0 124.05 -42.16 0 0 -124.05 21.08 -20.67 21.08 20.67zm-42.16 0c0,-11.41 9.44,-20.67 21.08,-20.67 11.64,0 21.08,9.26 21.08,20.67l-42.16 0zm274.14 20.67l-253.06 0 0 -41.34 253.06 0 21.08 20.67 -21.08 20.67zm0 -41.34c11.64,0 21.08,9.26 21.08,20.67 0,11.41 -9.44,20.67 -21.08,20.67l0 -41.34z"/>
  </g>
  <g>
   <polygon class="fil1" points="24232.65,14547.84 24232.65,14795.96 23684.35,14795.96 23684.35,14547.84 "/>
   <path id="_1_25" class="fil0" d="M24185.2 14795.96l0 -248.12 94.9 0 0 248.12 -47.45 46.52 -47.45 -46.52zm94.9 0c0,25.69 -21.25,46.52 -47.45,46.52 -26.2,0 -47.45,-20.83 -47.45,-46.52l94.9 0zm-595.75 -46.52l548.3 0 0 93.04 -548.3 0 -47.45 -46.52 47.45 -46.52zm0 93.04c-26.2,0 -47.45,-20.83 -47.45,-46.52 0,-25.69 21.25,-46.52 47.45,-46.52l0 93.04zm47.45 -294.64l0 248.12 -94.9 0 0 -248.12 47.45 -46.52 47.45 46.52zm-94.9 0c0,-25.69 21.25,-46.52 47.45,-46.52 26.2,0 47.45,20.83 47.45,46.52l-94.9 0zm595.75 46.52l-548.3 0 0 -93.04 548.3 0 47.45 46.52 -47.45 46.52zm0 -93.04c26.2,0 47.45,20.83 47.45,46.52 0,25.69 -21.25,46.52 -47.45,46.52l0 -93.04z"/>
  </g>
  <g>
   <path class="fil0" d="M13173.93 18590.08l-126.53 0 0 -41.34 126.53 0 21.08 20.67 -21.08 20.67zm0 -41.34c11.64,0 21.08,9.26 21.08,20.67 0,11.41 -9.44,20.67 -21.08,20.67l0 -41.34zm-21.08 268.79l0 -248.12 42.16 0 0 248.12 -21.08 20.67 -21.08 -20.67zm42.16 0c0,11.41 -9.44,20.67 -21.08,20.67 -11.64,0 -21.08,-9.26 -21.08,-20.67l42.16 0zm-147.61 -20.67l126.53 0 0 41.34 -126.53 0 -21.08 -20.67 21.08 -20.67zm0 41.34c-11.64,0 -21.08,-9.26 -21.08,-20.67 0,-11.41 9.44,-20.67 21.08,-20.67l0 41.34zm21.08 -268.79l0 248.12 -42.16 0 0 -248.12 21.08 -20.67 21.08 20.67zm-42.16 0c0,-11.41 9.44,-20.67 21.08,-20.67 11.64,0 21.08,9.26 21.08,20.67l-42.16 0z"/>
  </g>
  <g id="_2070758651584">
   <g>
    <polygon class="fil1" points="12508.69,18561.97 12987.88,18561.97 12987.88,18810.09 12508.69,18810.09 "/>
    <path id="_1_26" class="fil0" d="M12987.88 18608.49l-479.19 0 0 -93.04 479.19 0 47.92 46.52 -47.92 46.52zm0 -93.04c26.46,0 47.92,20.83 47.92,46.52 0,25.69 -21.46,46.52 -47.92,46.52l0 -93.04zm-47.92 294.64l0 -248.12 95.84 0 0 248.12 -47.92 46.52 -47.92 -46.52zm95.84 0c0,25.69 -21.46,46.52 -47.92,46.52 -26.46,0 -47.92,-20.83 -47.92,-46.52l95.84 0zm-527.11 -46.52l479.19 0 0 93.04 -479.19 0 -47.92 -46.52 47.92 -46.52zm0 93.04c-26.46,0 -47.92,-20.83 -47.92,-46.52 0,-25.69 21.46,-46.52 47.92,-46.52l0 93.04zm47.92 -294.64l0 248.12 -95.84 0 0 -248.12 47.92 -46.52 47.92 46.52zm-95.84 0c0,-25.69 21.46,-46.52 47.92,-46.52 26.46,0 47.92,20.83 47.92,46.52l-95.84 0z"/>
   </g>
   <g>
    <polygon class="fil1" points="21932.68,18561.97 23689.69,18561.97 23689.69,18810.09 21932.68,18810.09 "/>
    <path id="_1_27" class="fil0" d="M23689.69 18608.49l-1757.01 0 0 -93.04 1757.01 0 47.92 46.52 -47.92 46.52zm0 -93.04c26.46,0 47.92,20.83 47.92,46.52 0,25.69 -21.46,46.52 -47.92,46.52l0 -93.04zm-47.92 294.64l0 -248.12 95.84 0 0 248.12 -47.92 46.52 -47.92 -46.52zm95.84 0c0,25.69 -21.46,46.52 -47.92,46.52 -26.46,0 -47.92,-20.83 -47.92,-46.52l95.84 0zm-1804.93 -46.52l1757.01 0 0 93.04 -1757.01 0 -47.92 -46.52 47.92 -46.52zm0 93.04c-26.46,0 -47.92,-20.83 -47.92,-46.52 0,-25.69 21.46,-46.52 47.92,-46.52l0 93.04zm47.92 -294.64l0 248.12 -95.84 0 0 -248.12 47.92 -46.52 47.92 46.52zm-95.84 0c0,-25.69 21.46,-46.52 47.92,-46.52 26.46,0 47.92,20.83 47.92,46.52l-95.84 0z"/>
   </g>
  </g>
  <g>
   <path class="fil0" d="M21902.29 18594.01l-126.54 0 0 -41.34 126.54 0 21.08 20.67 -21.08 20.67zm0 -41.34c11.64,0 21.08,9.26 21.08,20.67 0,11.41 -9.44,20.67 -21.08,20.67l0 -41.34zm-21.08 268.79l0 -248.12 42.16 0 0 248.12 -21.08 20.67 -21.08 -20.67zm42.16 0c0,11.41 -9.44,20.67 -21.08,20.67 -11.64,0 -21.08,-9.26 -21.08,-20.67l42.16 0zm-147.62 -20.67l126.54 0 0 41.34 -126.54 0 -21.08 -20.67 21.08 -20.67zm0 41.34c-11.64,0 -21.08,-9.26 -21.08,-20.67 0,-11.41 9.44,-20.67 21.08,-20.67l0 41.34zm21.08 -268.79l0 248.12 -42.16 0 0 -248.12 21.08 -20.67 21.08 20.67zm-42.16 0c0,-11.41 9.44,-20.67 21.08,-20.67 11.64,0 21.08,9.26 21.08,20.67l-42.16 0z"/>
  </g>
  <g>
   <path class="fil0" d="M19804.07 18590.08l-126.53 0 0 -41.34 126.53 0 21.08 20.67 -21.08 20.67zm0 -41.34c11.64,0 21.08,9.26 21.08,20.67 0,11.41 -9.44,20.67 -21.08,20.67l0 -41.34zm-21.08 268.79l0 -248.12 42.16 0 0 248.12 -21.08 20.67 -21.08 -20.67zm42.16 0c0,11.41 -9.44,20.67 -21.08,20.67 -11.64,0 -21.08,-9.26 -21.08,-20.67l42.16 0zm-147.61 -20.67l126.53 0 0 41.34 -126.53 0 -21.08 -20.67 21.08 -20.67zm0 41.34c-11.64,0 -21.08,-9.26 -21.08,-20.67 0,-11.41 9.44,-20.67 21.08,-20.67l0 41.34zm21.08 -268.79l0 248.12 -42.16 0 0 -248.12 21.08 -20.67 21.08 20.67zm-42.16 0c0,-11.41 9.44,-20.67 21.08,-20.67 11.64,0 21.08,9.26 21.08,20.67l-42.16 0z"/>
  </g>
  <polygon class="fil4" points="18612.56,18559.41 19677.54,18559.41 19677.54,18807.53 18612.56,18807.53 "/>
  <polygon class="fil4" points="19076.52,18569.41 19076.52,17111.72 15596.92,17111.72 15596.92,16915.28 19276.85,16915.28 19276.85,18569.41 "/>
  <rect class="fil5 str1" x="30000.33" y="6900.56" width="2700.71" height="1185.92"/>
  <rect class="fil5 str1" x="21504.33" y="6900.56" width="4003.63" height="1185.92"/>
  <rect class="fil5 str1" x="6916.11" y="4995.33" width="2170.89" height="1147.55"/>
  <rect class="fil6 str2" x="25031.88" y="30367.45" width="1939.56" height="573.74" rx="20.99" ry="20"/>
  <rect class="fil5 str1" x="28728.11" y="30336.25" width="3959.57" height="631.67" rx="66.38" ry="21.76"/>
  <rect class="fil5" x="12149.61" y="18827.57" width="362" height="452.8"/>
  <g>
   <path class="fil0" d="M12438.89 21700l0 -124.05 42.16 0 0 124.05 -21.08 20.67 -21.08 -20.67zm42.16 0c0,11.41 -9.44,20.67 -21.08,20.67 -11.64,0 -21.08,-9.26 -21.08,-20.67l42.16 0zm-274.14 -20.67l253.06 0 0 41.34 -253.06 0 -21.08 -20.67 21.08 -20.67zm0 41.34c-11.64,0 -21.08,-9.26 -21.08,-20.67 0,-11.41 9.44,-20.67 21.08,-20.67l0 41.34zm21.08 -144.72l0 124.05 -42.16 0 0 -124.05 21.08 -20.67 21.08 20.67zm-42.16 0c0,-11.41 9.44,-20.67 21.08,-20.67 11.64,0 21.08,9.26 21.08,20.67l-42.16 0zm274.14 20.67l-253.06 0 0 -41.34 253.06 0 21.08 20.67 -21.08 20.67zm0 -41.34c11.64,0 21.08,9.26 21.08,20.67 0,11.41 -9.44,20.67 -21.08,20.67l0 -41.34z"/>
  </g>
  <rect class="fil5" x="12149.61" y="21699.97" width="362" height="1011.93"/>
  <g>
   <path class="fil0" d="M26876.54 22700.11l-126.53 0 0 -41.34 126.53 0 21.08 20.67 -21.08 20.67zm0 -41.34c11.64,0 21.08,9.26 21.08,20.67 0,11.41 -9.44,20.67 -21.08,20.67l0 -41.34zm-21.08 268.79l0 -248.12 42.16 0 0 248.12 -21.08 20.67 -21.08 -20.67zm42.16 0c0,11.41 -9.44,20.67 -21.08,20.67 -11.64,0 -21.08,-9.26 -21.08,-20.67l42.16 0zm-147.61 -20.67l126.53 0 0 41.34 -126.53 0 -21.08 -20.67 21.08 -20.67zm0 41.34c-11.64,0 -21.08,-9.26 -21.08,-20.67 0,-11.41 9.44,-20.67 21.08,-20.67l0 41.34zm21.08 -268.79l0 248.12 -42.16 0 0 -248.12 21.08 -20.67 21.08 20.67zm-42.16 0c0,-11.41 9.44,-20.67 21.08,-20.67 11.64,0 21.08,9.26 21.08,20.67l-42.16 0z"/>
  </g>
  <polygon class="fil4" points="15349,18559.41 16841.15,18559.41 16841.15,18807.53 15349,18807.53 "/>
  <g>
   <path class="fil0" d="M18609.79 18590.08l-126.53 0 0 -41.34 126.53 0 21.08 20.67 -21.08 20.67zm0 -41.34c11.64,0 21.08,9.26 21.08,20.67 0,11.41 -9.44,20.67 -21.08,20.67l0 -41.34zm-21.08 268.79l0 -248.12 42.16 0 0 248.12 -21.08 20.67 -21.08 -20.67zm42.16 0c0,11.41 -9.44,20.67 -21.08,20.67 -11.64,0 -21.08,-9.26 -21.08,-20.67l42.16 0zm-147.61 -20.67l126.53 0 0 41.34 -126.53 0 -21.08 -20.67 21.08 -20.67zm0 41.34c-11.64,0 -21.08,-9.26 -21.08,-20.67 0,-11.41 9.44,-20.67 21.08,-20.67l0 41.34zm21.08 -268.79l0 248.12 -42.16 0 0 -248.12 21.08 -20.67 21.08 20.67zm-42.16 0c0,-11.41 9.44,-20.67 21.08,-20.67 11.64,0 21.08,9.26 21.08,20.67l-42.16 0z"/>
  </g>
  <g>
   <path class="fil0" d="M16962.71 18590.08l-126.53 0 0 -41.34 126.53 0 21.08 20.67 -21.08 20.67zm0 -41.34c11.64,0 21.08,9.26 21.08,20.67 0,11.41 -9.44,20.67 -21.08,20.67l0 -41.34zm-21.08 268.79l0 -248.12 42.16 0 0 248.12 -21.08 20.67 -21.08 -20.67zm42.16 0c0,11.41 -9.44,20.67 -21.08,20.67 -11.64,0 -21.08,-9.26 -21.08,-20.67l42.16 0zm-147.61 -20.67l126.53 0 0 41.34 -126.53 0 -21.08 -20.67 21.08 -20.67zm0 41.34c-11.64,0 -21.08,-9.26 -21.08,-20.67 0,-11.41 9.44,-20.67 21.08,-20.67l0 41.34zm21.08 -268.79l0 248.12 -42.16 0 0 -248.12 21.08 -20.67 21.08 20.67zm-42.16 0c0,-11.41 9.44,-20.67 21.08,-20.67 11.64,0 21.08,9.26 21.08,20.67l-42.16 0z"/>
  </g>
  <g>
   <polygon class="fil1" points="32696.35,33909.7 23450.92,33909.7 23450.92,30792.88 23298.11,30792.88 23298.11,34050.3 32696.35,34050.3 "/>
   <path id="_1_28" class="fil0" d="M23450.92 33898.2l9245.43 0 0 23 -9245.43 0 -12.5 -11.5 12.5 -11.5zm0 23c-6.9,0 -12.5,-5.15 -12.5,-11.5 0,-6.35 5.6,-11.5 12.5,-11.5l0 23zm12.5 -3128.32l0 3116.82 -25 0 0 -3116.82 12.5 -11.5 12.5 11.5zm-25 0c0,-6.35 5.6,-11.5 12.5,-11.5 6.9,0 12.5,5.15 12.5,11.5l-25 0zm-140.31 -11.5l152.81 0 0 23 -152.81 0 -12.5 -11.5 12.5 -11.5zm0 23c-6.9,0 -12.5,-5.15 -12.5,-11.5 0,-6.35 5.6,-11.5 12.5,-11.5l0 23zm-12.5 3245.92l0 -3257.42 25 0 0 3257.42 -12.5 11.5 -12.5 -11.5zm25 0c0,6.35 -5.6,11.5 -12.5,11.5 -6.9,0 -12.5,-5.15 -12.5,-11.5l25 0zm9385.74 11.5l-9398.24 0 0 -23 9398.24 0 12.5 11.5 -12.5 11.5zm0 -23c6.9,0 12.5,5.15 12.5,11.5 0,6.35 -5.6,11.5 -12.5,11.5l0 -23zm12.5 -129.1l0 140.6 -25 0 0 -140.6 12.5 -11.5 12.5 11.5zm-25 0c0,-6.35 5.6,-11.5 12.5,-11.5 6.9,0 12.5,5.15 12.5,11.5l-25 0z"/>
  </g>
  <g id="_2070758645296">
   <rect class="fil6 str3" transform="matrix(-6.83622E-14 -0.682763 0.860403 -5.4248E-14 27689.4 35758.5)" width="2496.64" height="5813.27"/>
   <line class="fil6 str3" x1="27682.85" y1="35761.22" x2="32684.6" y2= "34056.6" />
   <line class="fil6 str3" x1="27689.39" y1="34053.85" x2="32652.2" y2= "35716.63" />
  </g>
  <rect class="fil5 str1" x="32520.56" y="30897.48" width="179.55" height="3078.35"/>
  <path class="fil6 str4" d="M26362.57 14705.59c-28.87,-1173.03 -823.46,-2011 -1985.72,-2346.46 0,739.97 -15.85,1650.9 -15.85,2390.88"/>
  <path class="fil6 str4" d="M27114.91 15984.84c-1099.37,27.05 -1878.67,632.37 -2193.06,1721.64 693.5,0 1547.23,14.86 2240.74,14.86"/>
  <path class="fil6 str4" d="M21755.77 18668.98c-28.88,-1173.03 -767.83,-2011 -1930.09,-2346.46 0,739.97 -15.85,1650.9 -15.85,2390.88"/>
  <path class="fil6 str4" d="M27114.91 20300.72c-1099.37,27.05 -1878.67,632.37 -2193.06,1721.64 693.5,0 1547.23,14.86 2240.74,14.86"/>
  <path class="fil6 str4" d="M24850.94 22800.57c27.27,1108.34 778.04,1900.09 1876.2,2217.04 0,-699.15 14.98,-1559.84 14.98,-2259.01"/>
  <g>
   <path class="fil0" d="M15336.52 18590.08l-126.53 0 0 -41.34 126.53 0 21.08 20.67 -21.08 20.67zm0 -41.34c11.64,0 21.08,9.26 21.08,20.67 0,11.41 -9.44,20.67 -21.08,20.67l0 -41.34zm-21.08 268.79l0 -248.12 42.16 0 0 248.12 -21.08 20.67 -21.08 -20.67zm42.16 0c0,11.41 -9.44,20.67 -21.08,20.67 -11.64,0 -21.08,-9.26 -21.08,-20.67l42.16 0zm-147.61 -20.67l126.53 0 0 41.34 -126.53 0 -21.08 -20.67 21.08 -20.67zm0 41.34c-11.64,0 -21.08,-9.26 -21.08,-20.67 0,-11.41 9.44,-20.67 21.08,-20.67l0 41.34zm21.08 -268.79l0 248.12 -42.16 0 0 -248.12 21.08 -20.67 21.08 20.67zm-42.16 0c0,-11.41 9.44,-20.67 21.08,-20.67 11.64,0 21.08,9.26 21.08,20.67l-42.16 0z"/>
  </g>
  <path class="fil6 str4" d="M15192.45 18700c-29.84,-1173.03 -793.45,-2011 -1994.53,-2346.46 0,739.97 -16.38,1650.9 -16.38,2390.88"/>
  <path class="fil6 str4" d="M16938.95 18671.17c23.08,1062.58 613.58,1821.65 1542.37,2125.52 0,-670.29 12.67,-1495.46 12.67,-2165.76"/>
  <g>
   <path class="fil0" d="M27116.42 30381.47l-126.53 0 0 -41.34 126.53 0 21.08 20.67 -21.08 20.67zm0 -41.34c11.64,0 21.08,9.26 21.08,20.67 0,11.41 -9.44,20.67 -21.08,20.67l0 -41.34zm-21.08 268.79l0 -248.12 42.16 0 0 248.12 -21.08 20.67 -21.08 -20.67zm42.16 0c0,11.41 -9.44,20.67 -21.08,20.67 -11.64,0 -21.08,-9.26 -21.08,-20.67l42.16 0zm-147.61 -20.67l126.53 0 0 41.34 -126.53 0 -21.08 -20.67 21.08 -20.67zm0 41.34c-11.64,0 -21.08,-9.26 -21.08,-20.67 0,-11.41 9.44,-20.67 21.08,-20.67l0 41.34zm21.08 -268.79l0 248.12 -42.16 0 0 -248.12 21.08 -20.67 21.08 20.67zm-42.16 0c0,-11.41 9.44,-20.67 21.08,-20.67 11.64,0 21.08,9.26 21.08,20.67l-42.16 0z"/>
  </g>
  <g>
   <path class="fil0" d="M28744.73 30381.47l-126.53 0 0 -41.34 126.53 0 21.08 20.67 -21.08 20.67zm0 -41.34c11.64,0 21.08,9.26 21.08,20.67 0,11.41 -9.44,20.67 -21.08,20.67l0 -41.34zm-21.08 268.79l0 -248.12 42.16 0 0 248.12 -21.08 20.67 -21.08 -20.67zm42.16 0c0,11.41 -9.44,20.67 -21.08,20.67 -11.64,0 -21.08,-9.26 -21.08,-20.67l42.16 0zm-147.61 -20.67l126.53 0 0 41.34 -126.53 0 -21.08 -20.67 21.08 -20.67zm0 41.34c-11.64,0 -21.08,-9.26 -21.08,-20.67 0,-11.41 9.44,-20.67 21.08,-20.67l0 41.34zm21.08 -268.79l0 248.12 -42.16 0 0 -248.12 21.08 -20.67 21.08 20.67zm-42.16 0c0,-11.41 9.44,-20.67 21.08,-20.67 11.64,0 21.08,9.26 21.08,20.67l-42.16 0z"/>
  </g>
  <path class="fil6 str4" d="M27112.64 30500.87c23.51,-955.24 540.23,-1627.38 1486.7,-1900.56 0,602.58 12.91,1344.39 12.91,1946.98"/>
  <g id="_2070758640784">
   <line class="fil6 str5" x1="30530.49" y1="20914.55" x2="30771.28" y2= "20941.28" />
   <line class="fil6 str6" x1="30540.12" y1="21742.22" x2="30780.85" y2= "21715.43" />
   <path class="fil6 str6" d="M31628.8 20527.26c-190.79,0 -381.61,-0.03 -572.39,-0.03 -142.3,-0.41 -245.23,73.32 -287.56,254.16 2.24,321.77 4.48,643.57 6.73,965.34 -13.15,251.79 95.91,356.5 280.83,372.07l581.46 0"/>
   <path class="fil6 str6" d="M30049.36 21927.32c190.06,31.11 354.88,-11.79 481.47,-167.19 23.96,-62.83 42.72,-124.49 56.49,-185.01 53.53,-235.45 31.27,-453.88 -56.52,-657.57 -112.53,-136.95 -259.38,-200.86 -444.38,-183.62 -276.25,26.92 -544.41,126.5 -799.39,344.14 -154.67,152.09 -167.35,324.17 0,521.56 222.04,178.7 477.52,284.94 762.33,327.69z"/>
  </g>
  <text x="18324.34" y="13130.18"  class="fil3 fnt0">12.30</text>
  <path class="fil6 str4" d="M12333.45 19405.05c-1238.1,30.46 -2070.32,913.95 -2424.39,2140.69 781.01,0 1742.48,16.73 2523.5,16.73"/>
  <g id="_2070758637760">
   <path class="fil6 str7" d="M31347.94 25805.83l0 1628.48c0.01,60.67 -51.12,109.86 -114.16,109.86l-1714.61 0c-63.03,0 -114.16,-49.19 -114.16,-109.85l0 -1628.49c0,-60.65 51.13,-109.84 114.17,-109.84l1714.6 -0.01c63.04,0.01 114.17,49.2 114.17,109.86z"/>
   <rect class="fil6 str7" transform="matrix(1.75895E-14 0.639058 -0.664144 1.69252E-14 31014.9 25866.9)" width="2373.81" height="2106.33"/>
   <circle class="fil6 str8" transform="matrix(1.75895E-14 0.639058 -0.664144 1.69252E-14 30726.2 26978)" r="183.89"/>
  </g>
  <g id="_2070758636368">
   <rect class="fil6 str6" transform="matrix(0.777142 0.000139559 -0.00014429 0.751661 29385 14795.1)" width="2611.41" height="5846.68"/>
   <path class="fil6 str6" d="M29616.13 18384.61c-42.57,-965.26 -14.69,-1919.16 -22.01,-2878.74 -4.94,-335.84 7.9,-507.27 375.43,-501.76 304.18,0.06 608.33,0.11 912.51,0.16 258.28,-3.05 355.42,71.68 335.61,489.81 -7.7,963.59 8.1,1927.22 -23.08,2890.81 -95.23,765.28 -1436.67,842.78 -1578.46,-0.28z"/>
   <circle class="fil6 str6" transform="matrix(0.777142 0.000139559 -0.00014429 0.751661 30416.3 15299.5)" r="121.03"/>
  </g>
  <g id="_2070758638240">
   <path class="fil6 str7" d="M27519.85 14785.77c5.57,588.89 -174.22,1138.13 546.69,1214.07 234.77,19.36 458.84,11.07 689.34,-21.27 590.37,-131.03 405.01,-638.5 414.89,-1201.45"/>
   <path class="fil6 str6" d="M27611.05 15219.51c-1.63,-77.69 56.23,-152.75 120.54,-188.25 428.3,0 836.17,0 1264.48,0 60.48,13.33 74.06,55.23 94.55,146.11 30.96,827.17 -535.07,651.67 -1048.58,666.09 -371.74,-36.72 -414.69,-303.44 -430.99,-623.95z"/>
   <circle class="fil6 str6" cx="28361.52" cy="15152.87" r="84.49"/>
   <path class="fil6 str6" d="M27806.65 15181.61c-1.16,-62.06 40.15,-122.01 86.07,-150.35 305.8,0 597.03,0 902.84,0 43.18,10.64 52.88,44.1 67.5,116.69 54.1,652.26 -325.6,529.14 -748.67,531.99 -277.08,-5.15 -307.74,-253.5 -307.74,-498.33z"/>
  </g>
 </g>
</svg>
