<?xml version="1.0" encoding="UTF-8"?>
<!DOCTYPE svg PUBLIC "-//W3C//DTD SVG 1.1//EN" "http://www.w3.org/Graphics/SVG/1.1/DTD/svg11.dtd">
<!-- Creator: CorelDRAW -->
<svg xmlns="http://www.w3.org/2000/svg" xml:space="preserve" width="400mm" height="400mm" version="1.1" style="shape-rendering:geometricPrecision; text-rendering:geometricPrecision; image-rendering:optimizeQuality; fill-rule:evenodd; clip-rule:evenodd"
viewBox="0 0 40000 40000"
 xmlns:xlink="http://www.w3.org/1999/xlink"
 xmlns:xodm="http://www.corel.com/coreldraw/odm/2003">
 <defs>
  <style type="text/css">
   <![CDATA[
    .str12 {stroke:black;stroke-width:100;stroke-miterlimit:22.9256}
    .str13 {stroke:#1F1B20;stroke-width:16.9;stroke-miterlimit:22.9256}
    .str18 {stroke:#1F1B20;stroke-width:40;stroke-miterlimit:22.9256}
    .str17 {stroke:#3A3A3A;stroke-width:40;stroke-miterlimit:22.9256}
    .str16 {stroke:black;stroke-width:40;stroke-miterlimit:22.9256}
    .str11 {stroke:black;stroke-width:20;stroke-miterlimit:22.9256}
    .str14 {stroke:#2B2A29;stroke-width:25.4;stroke-miterlimit:22.9256}
    .str0 {stroke:black;stroke-width:7.62;stroke-miterlimit:22.9256}
    .str15 {stroke:black;stroke-width:40;stroke-linecap:round;stroke-linejoin:round;stroke-miterlimit:22.9256}
    .str7 {stroke:black;stroke-width:99.99;stroke-linecap:round;stroke-linejoin:round;stroke-miterlimit:10}
    .str3 {stroke:black;stroke-width:123.56;stroke-linecap:round;stroke-linejoin:round;stroke-miterlimit:10}
    .str10 {stroke:black;stroke-width:13.72;stroke-linecap:round;stroke-linejoin:round;stroke-miterlimit:10}
    .str19 {stroke:black;stroke-width:54.91;stroke-linecap:round;stroke-linejoin:round;stroke-miterlimit:10}
    .str5 {stroke:black;stroke-width:54.91;stroke-linecap:round;stroke-linejoin:round;stroke-miterlimit:10}
    .str4 {stroke:black;stroke-width:54.91;stroke-linecap:round;stroke-linejoin:round;stroke-miterlimit:10}
    .str8 {stroke:black;stroke-width:96.09;stroke-linecap:round;stroke-linejoin:round;stroke-miterlimit:10}
    .str6 {stroke:black;stroke-width:96.09;stroke-linecap:round;stroke-linejoin:round;stroke-miterlimit:10}
    .str1 {stroke:black;stroke-width:17.17;stroke-linecap:round;stroke-linejoin:round;stroke-miterlimit:10}
    .str9 {stroke:black;stroke-width:68.66;stroke-linecap:round;stroke-linejoin:round;stroke-miterlimit:10}
    .str2 {stroke:black;stroke-width:68.74;stroke-linecap:round;stroke-linejoin:round;stroke-miterlimit:10}
    .fil5 {fill:none}
    .fil1 {fill:none;fill-rule:nonzero}
    .fil3 {fill:black}
    .fil4 {fill:black}
    .fil2 {fill:black;fill-rule:nonzero}
    .fil0 {fill:black;fill-rule:nonzero}
    .fnt0 {font-weight:normal;font-size:1130.74px;font-family:'Arial'}
   ]]>
  </style>
 </defs>
 <g id="Слой_x0020_1">
  <metadata id="CorelCorpID_0Corel-Layer"/>
  <g>
   <polygon class="fil0" points="3264.11,26189.18 3264.11,8307.76 3909.36,8307.76 3909.36,26189.18 "/>
   <polygon id="_1" class="fil1 str0" points="3264.11,26189.18 3264.11,8307.76 3909.36,8307.76 3909.36,26189.18 "/>
  </g>
  <g>
   <polygon class="fil0" points="15716.5,8949.54 3830.54,8949.54 3830.54,8304.26 15716.5,8304.26 "/>
   <polygon id="_1_0" class="fil1 str0" points="15716.5,8949.54 3830.54,8949.54 3830.54,8304.26 15716.5,8304.26 "/>
  </g>
  <g>
   <polygon class="fil0" points="35953.33,8959.53 35953.33,26182.89 35308.08,26182.89 35308.08,8959.53 "/>
   <polygon id="_1_1" class="fil1 str0" points="35953.33,8959.53 35953.33,26182.89 35308.08,26182.89 35308.08,8959.53 "/>
  </g>
  <g id="_2070750386720">
   <line class="fil1 str1" x1="32788.45" y1="22922.15" x2="32788.45" y2= "20893.98" />
   <polygon class="fil1 str2" points="35211.95,20893.98 35211.95,22922.15 32788.45,22922.15 32788.45,20893.98 "/>
   <polygon class="fil1 str2" points="32891.58,21014.28 32891.58,22801.84 34679.14,22801.84 34679.14,21014.28 "/>
   <line class="fil1 str1" x1="32891.58" y1="21014.28" x2="33166.61" y2= "21289.32" />
   <line class="fil1 str1" x1="33510.34" y1="21633.05" x2="34060.37" y2= "22183.08" />
   <line class="fil1 str1" x1="34404.15" y1="22526.85" x2="34679.14" y2= "22801.84" />
   <line class="fil1 str1" x1="34679.14" y1="21014.28" x2="34404.15" y2= "21289.32" />
   <line class="fil1 str1" x1="34060.37" y1="21633.05" x2="33510.34" y2= "22183.08" />
   <line class="fil1 str1" x1="33166.61" y1="22526.85" x2="32891.58" y2= "22801.84" />
   <line class="fil1 str1" x1="34679.14" y1="21908.08" x2="32891.58" y2= "21908.08" />
   <line class="fil1 str1" x1="33785.38" y1="21014.28" x2="33785.38" y2= "22801.84" />
   <line class="fil1 str1" x1="34679.14" y1="21908.08" x2="34404.15" y2= "22183.08" />
   <line class="fil1 str1" x1="34060.37" y1="22526.85" x2="33785.38" y2= "22801.84" />
   <line class="fil1 str1" x1="33785.38" y1="21014.28" x2="33510.34" y2= "21289.32" />
   <polyline class="fil1 str1" points="33166.61,21633.05 32891.58,21908.08 33166.61,22183.08 "/>
   <line class="fil1 str1" x1="33510.34" y1="22526.85" x2="33785.38" y2= "22801.84" />
   <line class="fil1 str1" x1="33785.38" y1="21014.28" x2="34060.37" y2= "21289.32" />
   <line class="fil1 str1" x1="34404.15" y1="21633.05" x2="34679.14" y2= "21908.08" />
   <path class="fil1 str1" d="M34318.19 21452.57c0,-42.71 -34.63,-77.34 -77.34,-77.34 -42.72,0 -77.35,34.63 -77.35,77.34 0,42.72 34.63,77.35 77.35,77.35 42.71,0 77.34,-34.63 77.34,-77.35z"/>
   <path class="fil1 str1" d="M34318.19 22346.38c0,-42.76 -34.63,-77.35 -77.34,-77.35 -42.72,0 -77.35,34.59 -77.35,77.35 0,42.71 34.63,77.34 77.35,77.34 42.71,0 77.34,-34.63 77.34,-77.34z"/>
   <path class="fil1 str1" d="M33424.43 21452.57c0,-42.71 -34.63,-77.34 -77.34,-77.34 -42.76,0 -77.35,34.63 -77.35,77.34 0,42.72 34.59,77.35 77.35,77.35 42.71,0 77.34,-34.63 77.34,-77.35z"/>
   <path class="fil1 str1" d="M33424.43 22346.38c0,-42.76 -34.63,-77.35 -77.34,-77.35 -42.76,0 -77.35,34.59 -77.35,77.35 0,42.71 34.59,77.34 77.35,77.34 42.71,0 77.34,-34.63 77.34,-77.34z"/>
   <line class="fil1 str2" x1="34816.66" y1="20893.98" x2="34816.66" y2= "22922.15" />
   <line class="fil1 str1" x1="34833.83" y1="20997.11" x2="34833.83" y2= "22819.02" />
   <polyline class="fil1 str1" points="35177.6,22819.02 35177.6,20997.11 34833.83,20997.11 "/>
   <line class="fil1 str1" x1="35177.6" y1="21203.36" x2="34833.83" y2= "21203.36" />
   <line class="fil1 str1" x1="35177.6" y1="21100.23" x2="34833.83" y2= "21100.23" />
   <line class="fil1 str1" x1="35177.6" y1="21306.49" x2="34833.83" y2= "21306.49" />
   <line class="fil1 str1" x1="35177.6" y1="21409.62" x2="34833.83" y2= "21409.62" />
   <line class="fil1 str1" x1="35177.6" y1="21615.87" x2="34833.83" y2= "21615.87" />
   <line class="fil1 str1" x1="35177.6" y1="21512.75" x2="34833.83" y2= "21512.75" />
   <line class="fil1 str1" x1="35177.6" y1="21701.83" x2="34833.83" y2= "21701.83" />
   <line class="fil1 str1" x1="35177.6" y1="21804.95" x2="34833.83" y2= "21804.95" />
   <line class="fil1 str1" x1="35177.6" y1="22011.21" x2="34833.83" y2= "22011.21" />
   <line class="fil1 str1" x1="35177.6" y1="21908.08" x2="34833.83" y2= "21908.08" />
   <line class="fil1 str1" x1="35177.6" y1="22114.34" x2="34833.83" y2= "22114.34" />
   <line class="fil1 str1" x1="35177.6" y1="22217.47" x2="34833.83" y2= "22217.47" />
   <line class="fil1 str1" x1="35177.6" y1="22423.72" x2="34833.83" y2= "22423.72" />
   <line class="fil1 str1" x1="35177.6" y1="22320.59" x2="34833.83" y2= "22320.59" />
   <line class="fil1 str1" x1="35177.6" y1="22526.85" x2="34833.83" y2= "22526.85" />
   <line class="fil1 str1" x1="35177.6" y1="22629.98" x2="34833.83" y2= "22629.98" />
   <line class="fil1 str1" x1="35177.6" y1="22819.02" x2="34833.83" y2= "22819.02" />
   <line class="fil1 str1" x1="35177.6" y1="22715.89" x2="34833.83" y2= "22715.89" />
   <line class="fil1 str1" x1="32736.89" y1="21512.75" x2="32702.54" y2= "21512.75" />
   <path class="fil1 str1" d="M32745.49 21461.18c-23.75,0 -42.95,19.25 -42.95,42.96 0,23.75 19.2,42.99 42.95,42.99"/>
   <polyline class="fil1 str1" points="32788.45,21461.18 32736.89,21461.18 32736.89,21512.75 32736.89,21564.31 32788.45,21564.31 "/>
   <line class="fil1 str1" x1="32736.89" y1="21908.08" x2="32702.54" y2= "21908.08" />
   <path class="fil1 str1" d="M32745.49 21856.52c-23.75,0 -42.95,19.2 -42.95,42.95 0,23.72 19.2,42.96 42.95,42.96"/>
   <polyline class="fil1 str1" points="32788.45,21856.52 32736.89,21856.52 32736.89,21908.08 32736.89,21959.65 32788.45,21959.65 "/>
   <line class="fil1 str1" x1="32736.89" y1="22320.59" x2="32702.54" y2= "22320.59" />
   <path class="fil1 str1" d="M32745.49 22269.03c-23.75,0 -42.95,19.2 -42.95,42.96 0,23.71 19.2,42.95 42.95,42.95"/>
   <polyline class="fil1 str1" points="32788.45,22269.03 32736.89,22269.03 32736.89,22320.59 32736.89,22372.16 32788.45,22372.16 "/>
   <line class="fil1 str1" x1="32736.89" y1="21701.83" x2="32702.54" y2= "21701.83" />
   <path class="fil1 str1" d="M32745.49 21650.26c-23.75,0 -42.95,19.21 -42.95,42.96 0,23.71 19.2,42.96 42.95,42.96"/>
   <polyline class="fil1 str1" points="32788.45,21650.26 32736.89,21650.26 32736.89,21701.83 32736.89,21753.39 32788.45,21753.39 "/>
   <line class="fil1 str1" x1="32736.89" y1="22114.34" x2="32702.54" y2= "22114.34" />
   <path class="fil1 str1" d="M32745.49 22062.77c-23.75,0 -42.95,19.21 -42.95,42.96 0,23.71 19.2,42.96 42.95,42.96"/>
   <polyline class="fil1 str1" points="32788.45,22062.77 32736.89,22062.77 32736.89,22114.34 32736.89,22165.9 32788.45,22165.9 "/>
  </g>
  <polygon class="fil0 str3" points="29322.13,8959.54 29651.63,8959.54 29651.63,12584.05 29322.13,12584.05 "/>
  <g>
   <polygon class="fil0" points="24956.24,17059.78 25272.02,17059.78 25272.02,25475.78 24956.24,25475.78 "/>
   <path id="_1_2" class="fil2" d="M25272.02 17142.11l-315.78 0 0 -164.66 315.78 0 61.78 82.33 -61.78 82.33zm0 -164.66c34.12,0 61.78,36.87 61.78,82.33 0,45.46 -27.66,82.33 -61.78,82.33l0 -164.66zm-61.78 8498.33l0 -8416 123.56 0 0 8416 -61.78 82.33 -61.78 -82.33zm123.56 0c0,45.46 -27.66,82.33 -61.78,82.33 -34.12,0 -61.78,-36.87 -61.78,-82.33l123.56 0zm-377.56 -82.33l315.78 0 0 164.66 -315.78 0 -61.78 -82.33 61.78 -82.33zm0 164.66c-34.12,0 -61.78,-36.87 -61.78,-82.33 0,-45.46 27.66,-82.33 61.78,-82.33l0 164.66zm61.78 -8498.33l0 8416 -123.56 0 0 -8416 61.78 -82.33 61.78 82.33zm-123.56 0c0,-45.46 27.66,-82.33 61.78,-82.33 34.12,0 61.78,36.87 61.78,82.33l-123.56 0z"/>
  </g>
  <text x="28776.55" y="21914.8"  class="fil3 fnt0">8.20</text>
  <text x="18995.44" y="21840.99"  class="fil3 fnt0">8.10</text>
  <text x="5587.41" y="12793.92"  class="fil3 fnt0">16.00</text>
  <polygon class="fil0 str3" points="22841.95,12364.4 22526.17,12364.4 22526.17,8959.54 22841.95,8959.54 22841.95,12034.89 "/>
  <polygon class="fil1 str4" points="25313.21,12034.89 25464.24,12034.89 25464.24,12364.4 25313.21,12364.4 "/>
  <polygon class="fil1 str4" points="22841.95,12034.89 23006.7,12034.89 23006.7,12364.4 22841.95,12364.4 "/>
  <polygon class="fil0 str3" points="29322.13,12034.89 25464.24,12034.89 25464.24,12364.4 29322.13,12364.4 "/>
  <polygon class="fil1 str4" points="29651.63,15055.31 29651.63,15206.34 29322.13,15206.34 29322.13,15055.31 "/>
  <polygon class="fil1 str4" points="29651.63,12584.05 29651.63,12748.8 29322.13,12748.8 29322.13,12584.05 "/>
  <polygon class="fil0 str3" points="35308.08,15769.22 29651.63,15769.22 29651.63,15439.72 35308.08,15439.72 "/>
  <polygon class="fil1 str4" points="26082.05,16730.28 25917.3,16730.28 25917.3,17059.78 26082.05,17059.78 "/>
  <polygon class="fil1 str4" points="28869.06,16730.28 28704.31,16730.28 28704.31,17059.78 28869.06,17059.78 "/>
  <polygon class="fil0 str3" points="14261.21,19160.35 14590.71,19160.35 14590.71,25475.78 14261.21,25475.78 "/>
  <g>
   <polygon class="fil0" points="14261.21,15796.68 14590.71,15796.68 14590.71,19160.34 14261.21,19160.34 "/>
   <path id="_1_3" class="fil2" d="M14590.71 15915.86l-329.5 0 0 -238.36 329.5 0 61.78 119.18 -61.78 119.18zm0 -238.36c34.12,0 61.78,53.36 61.78,119.18 0,65.82 -27.66,119.18 -61.78,119.18l0 -238.36zm-61.78 3482.84l0 -3363.66 123.56 0 0 3363.66 -61.78 119.18 -61.78 -119.18zm123.56 0c0,65.82 -27.66,119.18 -61.78,119.18 -34.12,0 -61.78,-53.36 -61.78,-119.18l123.56 0zm-391.28 -119.18l329.5 0 0 238.36 -329.5 0 -61.78 -119.18 61.78 -119.18zm0 238.36c-34.12,0 -61.78,-53.36 -61.78,-119.18 0,-65.82 27.66,-119.18 61.78,-119.18l0 238.36zm61.78 -3482.84l0 3363.66 -123.56 0 0 -3363.66 61.78 -119.18 61.78 119.18zm-123.56 0c0,-65.82 27.66,-119.18 61.78,-119.18 34.12,0 61.78,53.36 61.78,119.18l-123.56 0z"/>
  </g>
  <polygon class="fil1 str4" points="14590.71,11719.11 14590.71,11554.36 14261.21,11554.36 14261.21,11719.11 "/>
  <polygon class="fil1 str4" points="14590.71,15796.69 14590.71,15631.94 14261.21,15631.94 14261.21,15796.69 "/>
  <g id="_2070750377744">
   <polygon class="fil0 str3" points="14261.21,8959.54 14590.71,8959.54 14590.71,11554.36 14261.21,11554.36 "/>
   <polygon class="fil0 str3" points="29322.13,16730.28 29322.13,15206.34 29651.63,15206.34 29651.63,17059.78 28869.06,17059.78 28869.06,16730.28 "/>
   <polygon class="fil0 str3" points="25917.3,17059.78 21482.76,17059.78 21482.76,16730.28 25917.3,16730.28 "/>
  </g>
  <polygon class="fil1 str4" points="18695.72,16730.28 18544.72,16730.28 18544.72,17059.78 18695.72,17059.78 "/>
  <polygon class="fil1 str4" points="21482.76,16730.28 21318.01,16730.28 21318.01,17059.78 21482.76,17059.78 "/>
  <polygon class="fil0" points="18544.72,17059.78 14590.71,17059.78 14590.71,16730.28 18544.72,16730.28 "/>
  <polygon class="fil0" points="19618.17,11921.33 19618.17,12136.77 22896.17,12136.77 22896.17,12429.21 19341.15,12429.21 19341.15,11921.33 "/>
  <polygon class="fil1 str4" points="19601.85,9769.58 19601.85,9604.82 19354.72,9604.82 19354.72,9769.58 "/>
  <polygon class="fil1 str4" points="19601.85,11911.33 19601.85,11746.58 19354.72,11746.58 19354.72,11911.33 "/>
  <text x="16504.73" y="14849.67"  class="fil3 fnt0">7.50</text>
  <text x="19795.91" y="10923.2"  class="fil3 fnt0">0.80</text>
  <text x="23413.93" y="10884.03"  class="fil3 fnt0">1.60</text>
  <text x="29761.6" y="13997.21"  class="fil3 fnt0">3.40</text>
  <g>
   <polygon class="fil0" points="24724.66,8314.26 18987.79,8314.26 18987.79,8959.54 35927.47,8959.54 35927.47,8314.26 26847.8,8314.26 "/>
   <polygon id="_1_4" class="fil1 str0" points="24724.66,8314.26 18987.79,8314.26 18987.79,8959.54 35927.47,8959.54 35927.47,8314.26 26847.8,8314.26 "/>
  </g>
  <polygon class="fil1 str5" points="18977.78,8314.26 18813.03,8314.26 18813.03,8643.76 18977.78,8643.76 "/>
  <g id="_2070750374000">
   <line class="fil1 str6" x1="6009.93" y1="25475.78" x2="11831.14" y2= "25475.78" />
   <polygon class="fil1 str6" points="11529.07,26615.31 6312,26615.31 6312,26381.9 11529.07,26381.9 "/>
   <polygon class="fil1 str6" points="6312,26615.31 6092.31,26615.31 6092.31,26381.9 6312,26381.9 "/>
   <polygon class="fil1 str6" points="11529.07,26615.31 11762.48,26615.31 11762.48,26381.9 11529.07,26381.9 "/>
   <line class="fil1 str6" x1="6174.68" y1="26999.72" x2="11680.11" y2= "26999.72" />
  </g>
  <polygon class="fil0 str7" points="11831.14,26121.06 13451.17,26121.06 13451.17,25475.78 11831.14,25475.78 11831.14,26285.81 "/>
  <g id="_2070750369968">
   <polygon class="fil0 str7" points="24146.24,25475.78 22787.04,25475.78 22787.04,26121.06 24146.24,26121.06 "/>
   <polygon class="fil0 str7" points="15071.21,26121.06 15071.21,25475.78 16952.12,25475.78 16952.12,26121.06 "/>
  </g>
  <polygon class="fil0 str3" points="11831.14,26615.31 16952.12,26615.31 16952.12,26121.06 11831.14,26121.06 "/>
  <polygon class="fil0 str7" points="11680.11,26999.72 17116.87,26999.72 17116.87,26615.31 11680.11,26615.31 "/>
  <line class="fil1 str6" x1="16952.12" y1="25475.78" x2="22787.04" y2= "25475.78" />
  <polygon class="fil1 str6" points="22471.26,26615.31 17254.15,26615.31 17254.15,26381.9 22471.26,26381.9 "/>
  <polygon class="fil1 str6" points="17254.15,26615.31 17034.5,26615.31 17034.5,26381.9 17254.15,26381.9 "/>
  <polygon class="fil1 str6" points="22471.26,26615.31 22704.67,26615.31 22704.67,26381.9 22471.26,26381.9 "/>
  <g>
   <path class="fil2" d="M17116.87 27047.77c-27.11,0 -49.09,-21.52 -49.09,-48.05 0,-26.53 21.98,-48.05 49.09,-48.05l0 96.1zm5625.42 0l-5625.42 0 0 -96.1 5625.42 0 0 96.1zm0 -96.1c27.11,0 49.09,21.52 49.09,48.05 0,26.53 -21.98,48.05 -49.09,48.05l0 -96.1z"/>
  </g>
  <polygon class="fil1 str3" points="22787.04,26615.31 27056.81,26615.31 27056.81,26121.06 22787.04,26121.06 "/>
  <g>
   <path class="fil2" d="M27221.56 27061.5l-4455.03 0 0 -123.56 4455.03 0 59.84 61.78 -59.84 61.78zm0 -123.56c33.04,0 59.84,27.66 59.84,61.78 0,34.12 -26.8,61.78 -59.84,61.78l0 -123.56zm59.84 -322.63l0 384.41 -119.68 0 0 -384.41 59.84 -61.78 59.84 61.78zm-119.68 0c0,-34.12 26.8,-61.78 59.84,-61.78 33.04,0 59.84,27.66 59.84,61.78l-119.68 0zm-4395.19 -61.78l4455.03 0 0 123.56 -4455.03 0 -59.84 -61.78 59.84 -61.78zm0 123.56c-33.04,0 -59.84,-27.66 -59.84,-61.78 0,-34.12 26.8,-61.78 59.84,-61.78l0 123.56zm-59.84 322.63l0 -384.41 119.68 0 0 384.41 -59.84 61.78 -59.84 -61.78zm119.68 0c0,34.12 -26.8,61.78 -59.84,61.78 -33.04,0 -59.84,-27.66 -59.84,-61.78l119.68 0z"/>
  </g>
  <g>
   <path class="fil2" d="M31906.95 25533.68c26.53,0 48.05,18.85 48.05,42.1 0,23.25 -21.52,42.1 -48.05,42.1l0 -84.2zm-2567.36 0l2567.36 0 0 84.2 -2567.36 0 -48.05 -42.1 48.05 -42.1zm0 84.2c-26.53,0 -48.05,-18.85 -48.05,-42.1 0,-23.25 21.52,-42.1 48.05,-42.1l0 84.2zm-48.05 1293.28l0 -1335.38 96.1 0 0 1335.38 -96.1 0zm96.1 0c0,23.25 -21.52,42.1 -48.05,42.1 -26.53,0 -48.05,-18.85 -48.05,-42.1l96.1 0z"/>
  </g>
  <polygon class="fil1 str6" points="29583,26615.31 31683.57,26615.31 31683.57,26381.9 29583,26381.9 "/>
  <polygon class="fil1 str6" points="31683.57,26615.31 31916.95,26615.31 31916.95,26381.9 31683.57,26381.9 "/>
  <line class="fil1 str8" x1="31741.39" y1="26970.71" x2="29338.78" y2= "26970.71" />
  <polygon class="fil1 str6" points="29583,26615.31 29349.59,26615.31 29349.59,26381.9 29583,26381.9 "/>
  <g>
   <polygon class="fil0" points="26986.75,26979.02 22732.2,26979.02 22732.2,25545.77 27056.81,25545.77 27056.81,26979.02 "/>
   <polygon id="_1_5" class="fil1 str0" points="26986.75,26979.02 22732.2,26979.02 22732.2,25545.77 27056.81,25545.77 27056.81,26979.02 "/>
  </g>
  <polygon class="fil1 str7" points="25766.27,26121.06 25766.27,25475.78 27056.81,25475.78 27056.81,26121.06 "/>
  <polygon class="fil0 str9" points="25177.27,26999.72 25177.27,30816.45 35927.24,30816.45 35927.24,26999.72 35776.21,26999.72 35776.21,30651.7 25342.02,30651.7 25342.02,26999.72 "/>
  <g transform="matrix(0.950328 0 0 1 9139.38 9371)">
   <text x="20000" y="20000"  class="fil3 fnt0">3.90 (1.20)</text>
  </g>
  <polygon class="fil0" points="19601.85,9604.82 19354.72,9604.82 19354.72,8959.54 19601.85,8959.54 "/>
  <path class="fil2" d="M4156.49 25846.43l6.88 0c0,-3.79 -3.09,-6.87 -6.88,-6.87 -3.79,0 -6.88,3.08 -6.88,6.87 0,3.8 3.09,6.88 6.88,6.88 3.79,0 6.88,-3.08 6.88,-6.88l-6.88 0z"/>
  <line class="fil1 str10" x1="4266.33" y1="25736.65" x2="4389.9" y2= "25613.09" />
  <line class="fil1 str10" x1="4321.24" y1="26121.06" x2="4389.9" y2= "26052.4" />
  <polygon class="fil0 str7" points="15071.21,25475.78 15071.21,26121.06 13451.17,26121.06 13451.17,25475.78 "/>
  <line class="fil1 str10" x1="13451.17" y1="25489.53" x2="13464.89" y2= "25475.78" />
  <line class="fil1 str10" x1="13451.17" y1="25928.84" x2="13698.3" y2= "25681.71" />
  <path class="fil2" d="M13808.14 25571.87l6.88 0c0,-3.79 -3.08,-6.88 -6.88,-6.88 -3.79,0 -6.87,3.09 -6.87,6.88 0,3.79 3.08,6.88 6.87,6.88 3.8,0 6.88,-3.09 6.88,-6.88l-6.88 0z"/>
  <line class="fil1 str10" x1="13753.21" y1="26066.15" x2="14302.4" y2= "25516.96" />
  <line class="fil1 str10" x1="14123.89" y1="26121.06" x2="14137.64" y2= "26121.06" />
  <path class="fil2" d="M14247.46 26011.18l6.87 0c0,-3.79 -3.08,-6.87 -6.87,-6.87 -3.8,0 -6.88,3.08 -6.88,6.87 0,3.8 3.08,6.88 6.88,6.88 3.79,0 6.87,-3.08 6.87,-6.88l-6.87 0z"/>
  <line class="fil1 str10" x1="14357.3" y1="25901.4" x2="14782.9" y2= "25475.78" />
  <line class="fil1 str10" x1="14563.24" y1="26121.06" x2="14741.71" y2= "25956.31" />
  <path class="fil2" d="M14851.55 25846.43l6.88 0c0,-3.79 -3.08,-6.87 -6.88,-6.87 -3.79,0 -6.87,3.08 -6.87,6.87 0,3.8 3.08,6.88 6.87,6.88 3.8,0 6.88,-3.08 6.88,-6.88l-6.88 0z"/>
  <line class="fil1 str10" x1="14961.4" y1="25736.65" x2="15071.21" y2= "25613.09" />
  <line class="fil1 str10" x1="15002.58" y1="26121.06" x2="15071.21" y2= "26052.4" />
  <polygon class="fil1 str7" points="25766.27,25475.78 25766.27,26121.06 24146.24,26121.06 24146.24,25475.78 "/>
  <line class="fil1 str10" x1="24146.24" y1="25489.53" x2="24159.95" y2= "25475.78" />
  <line class="fil1 str10" x1="24146.24" y1="25928.84" x2="24393.36" y2= "25681.71" />
  <path class="fil2" d="M24489.46 25571.87l6.87 0c0,-3.79 -3.08,-6.88 -6.87,-6.88 -3.8,0 -6.88,3.09 -6.88,6.88 0,3.79 3.08,6.88 6.88,6.88 3.79,0 6.87,-3.09 6.87,-6.88l-6.87 0z"/>
  <line class="fil1 str10" x1="24448.27" y1="26066.15" x2="24983.71" y2= "25516.96" />
  <path class="fil2" d="M24818.96 26121.03l6.87 0c0,-3.8 -3.08,-6.88 -6.87,-6.88 -3.8,0 -6.88,3.08 -6.88,6.88 0,3.79 3.08,6.87 6.88,6.87 3.79,0 6.87,-3.08 6.87,-6.87l-6.87 0z"/>
  <path class="fil2" d="M24928.8 26011.18l6.88 0c0,-3.79 -3.08,-6.87 -6.88,-6.87 -3.79,0 -6.87,3.08 -6.87,6.87 0,3.8 3.08,6.88 6.87,6.88 3.8,0 6.88,-3.08 6.88,-6.88l-6.88 0z"/>
  <line class="fil1 str10" x1="25038.61" y1="25901.4" x2="25464.24" y2= "25475.78" />
  <line class="fil1 str10" x1="25244.55" y1="26121.06" x2="25423.05" y2= "25956.31" />
  <path class="fil2" d="M25532.86 25846.43l6.88 0c0,-3.79 -3.08,-6.87 -6.88,-6.87 -3.79,0 -6.87,3.08 -6.87,6.87 0,3.8 3.08,6.88 6.87,6.88 3.8,0 6.88,-3.08 6.88,-6.88l-6.88 0z"/>
  <line class="fil1 str10" x1="25642.71" y1="25736.65" x2="25766.27" y2= "25613.09" />
  <line class="fil1 str10" x1="25683.9" y1="26121.06" x2="25766.27" y2= "26052.4" />
  <g>
   <polygon class="fil0" points="35882.56,26999.72 31628.01,26999.72 31628.01,25545.77 35952.62,25545.77 35952.62,26999.72 "/>
   <polygon id="_1_6" class="fil1 str0" points="35882.56,26999.72 31628.01,26999.72 31628.01,25545.77 35952.62,25545.77 35952.62,26999.72 "/>
  </g>
  <rect class="fil4 str11" x="3264.1" y="25412.57" width="2910.57" height="1617.15" rx="20" ry="20"/>
  <rect class="fil5 str12" x="29068" y="26581.86" width="233.36" height="381.15" rx="30" ry="24.5"/>
  <g id="_2070750338624">
   <rect class="fil5 str13" transform="matrix(-7.8233E-14 -0.935586 0.984638 -7.43357E-14 30182.3 33108.5)" width="2496.64" height="5813.27"/>
   <line class="fil5 str13" x1="30174.86" y1="33112.27" x2="35898.82" y2= "30776.44" />
   <line class="fil5 str13" x1="30182.35" y1="30772.67" x2="35861.74" y2= "33051.16" />
  </g>
  <path class="fil5 str14" d="M14415.12 13679.46c-275.3,-6.08 -534.34,-37.88 -775.81,-94.64m-210.42 -57.14c-136.48,-42.27 -266.69,-93.19 -390.33,-152.59m-187.69 -99.64c-152.27,-88.95 -293.16,-192.19 -421.99,-309.42m-149.75 -148.4c-109,-117.58 -207.75,-246.71 -295.67,-387.22m-113.4 -198.94c-77.93,-150.64 -144.91,-312.48 -200.44,-485.25 870.04,0 1941.06,-16.74 2811.11,-16.74"/>
  <path class="fil5 str14" d="M14422.09 13694.42c-295.2,6.54 -573.44,41.33 -832.28,104.04m-196.58 54.22c-148.41,46.06 -289.63,102.11 -423.19,168.03m-191.68 104.57c-134,80.57 -258.97,172.37 -374.27,275.33m-165.62 162.8c-102.73,111.13 -195.99,232.83 -279.17,365.05m-103.22 179.36c-76.77,146.17 -142.5,303.57 -196.51,472.15 862.49,0 1924.21,16.65 2786.71,16.65"/>
  <path class="fil5 str14" d="M27212.48 26736.17c24.42,-1091.76 909.05,-1914.49 1892.49,-2226.71 0,688.7 13.41,1536.51 13.41,2225.22"/>
  <path class="fil5 str14" d="M28708.16 16905.58c-33.79,1510.2 -1257.47,2648.27 -2617.84,3080.16 0,-952.67 -18.55,-2125.42 -18.55,-3078.1"/>
  <g id="_2070750330032">
   <path class="fil5 str15" d="M35171.35 18442.99l0 1999.42c0.01,74.49 -62.76,134.89 -140.16,134.89l-2105.17 -0.01c-77.4,0.01 -140.17,-60.39 -140.17,-134.87l0 -1999.43c0,-74.47 62.77,-134.87 140.18,-134.87l2105.15 -0.01c77.41,0.01 140.18,60.41 140.18,134.89z"/>
   <rect class="fil5 str15" transform="matrix(2.15962E-14 0.784626 -0.815426 2.07805E-14 34762.4 18518)" width="2373.81" height="2106.33"/>
   <circle class="fil5 str16" transform="matrix(2.15962E-14 0.784626 -0.815426 2.07805E-14 34408 19882.1)" r="183.89"/>
  </g>
  <g id="_2070750331952">
   <line class="fil5 str17" x1="28017.01" y1="10040.14" x2="28304.66" y2= "10072.07" />
   <line class="fil5 str18" x1="28028.52" y1="11028.85" x2="28316.1" y2= "10996.85" />
   <path class="fil5 str18" d="M29329.03 9577.49c-227.91,0 -455.85,-0.04 -683.77,-0.04 -169.98,-0.49 -292.93,87.59 -343.5,303.62 2.67,384.37 5.35,768.79 8.04,1153.18 -15.71,300.77 114.57,425.85 335.46,444.45l694.61 0"/>
   <path class="fil5 str18" d="M27442.27 11249.97c227.04,37.16 423.93,-14.09 575.15,-199.72 28.62,-75.05 51.04,-148.71 67.48,-221.01 63.95,-281.27 37.36,-542.19 -67.51,-785.52 -134.43,-163.6 -309.85,-239.95 -530.85,-219.34 -330,32.15 -650.34,151.11 -954.94,411.1 -184.76,181.68 -199.9,387.25 0,623.04 265.25,213.46 570.44,340.38 910.67,391.45z"/>
  </g>
  <g id="_2070750326096">
   <rect class="fil5 str18" transform="matrix(1.03267 0.000185448 -0.000191734 0.998814 32646.3 8848.23)" width="2611.41" height="5846.68"/>
   <path class="fil5 str18" d="M32953.35 13618.04c-56.56,-1282.64 -19.51,-2550.2 -29.24,-3825.3 -6.57,-446.26 10.49,-674.05 498.87,-666.73 404.2,0.07 808.36,0.14 1212.55,0.21 343.21,-4.05 472.29,95.24 445.97,650.86 -10.23,1280.43 10.76,2560.9 -30.68,3841.33 -126.54,1016.91 -1909.06,1119.9 -2097.47,-0.37z"/>
   <circle class="fil5 str18" transform="matrix(1.03267 0.000185448 -0.000191734 0.998814 34016.7 9518.56)" r="121.03"/>
  </g>
  <g id="_2070750328304">
   <path class="fil5 str15" d="M30044.53 8872.84c7.71,815.84 -241.37,1576.78 757.39,1681.98 325.26,26.82 635.68,15.34 955.02,-29.47 817.9,-181.52 561.1,-884.58 574.79,-1664.5"/>
   <path class="fil5 str18" d="M30170.88 9473.74c-2.26,-107.64 77.9,-211.62 166.99,-260.81 593.37,0 1158.44,0 1751.83,0 83.78,18.47 102.6,76.53 130.99,202.44 42.89,1145.96 -741.3,902.83 -1452.71,922.8 -515.02,-50.87 -574.53,-420.39 -597.1,-864.43z"/>
   <circle class="fil5 str18" cx="31210.58" cy="9381.42" r="117.05"/>
   <path class="fil5 str18" d="M30441.86 9421.23c-1.6,-85.97 55.63,-169.03 119.25,-208.3 423.66,0 827.13,0 1250.8,0 59.83,14.75 73.26,61.11 93.52,161.67 74.94,903.64 -451.1,733.09 -1037.22,737.03 -383.86,-7.13 -426.35,-351.21 -426.35,-690.4z"/>
  </g>
  <path class="fil5 str14" d="M29612.65 15034.14c-1510.2,-29.21 -2648.27,-1087.04 -3080.16,-2263.03 952.67,0 2125.42,-16.04 3078.1,-16.04"/>
  <path class="fil5 str14" d="M25324.05 12233.03c-30.04,1342.59 -1117.91,2354.35 -2327.3,2738.31 0,-846.94 -16.49,-1889.54 -16.49,-2736.48"/>
  <path class="fil5 str14" d="M19507.52 11758.96c-1363.94,-25.49 -2391.79,-948.87 -2781.85,-1975.38 860.4,0 1919.58,-14.01 2779.99,-14.01"/>
  <path class="fil5 str14" d="M18813.04 8643.76c-36.32,-1623.06 -1436.97,-2922.38 -2899.01,-3386.55 0,1023.86 -19.94,2284.26 -19.94,3308.14"/>
  <polygon class="fil1 str19" points="15881.24,8314.26 15716.49,8314.26 15716.49,8643.76 15881.24,8643.76 "/>
  <path class="fil5 str14" d="M21318.01 16895.03c-30.93,1382.09 -1324.56,2447.99 -2569.52,2843.24 0,-871.85 -16.98,-1945.12 -16.98,-2816.98"/>
 </g>
</svg>
