<?xml version="1.0" encoding="UTF-8"?>
<!DOCTYPE svg PUBLIC "-//W3C//DTD SVG 1.1//EN" "http://www.w3.org/Graphics/SVG/1.1/DTD/svg11.dtd">
<!-- Creator: CorelDRAW -->
<svg xmlns="http://www.w3.org/2000/svg" xml:space="preserve" width="400mm" height="400mm" version="1.1" style="shape-rendering:geometricPrecision; text-rendering:geometricPrecision; image-rendering:optimizeQuality; fill-rule:evenodd; clip-rule:evenodd"
viewBox="0 0 40000 40000"
 xmlns:xlink="http://www.w3.org/1999/xlink"
 xmlns:xodm="http://www.corel.com/coreldraw/odm/2003">
 <defs>
  <style type="text/css">
   <![CDATA[
    .str9 {stroke:black;stroke-width:50;stroke-miterlimit:22.9256}
    .str15 {stroke:#1F1B20;stroke-width:16.9;stroke-miterlimit:22.9256}
    .str11 {stroke:#1F1B20;stroke-width:40;stroke-miterlimit:22.9256}
    .str10 {stroke:#3A3A3A;stroke-width:40;stroke-miterlimit:22.9256}
    .str17 {stroke:#2B2A29;stroke-width:40;stroke-miterlimit:22.9256}
    .str8 {stroke:black;stroke-width:20;stroke-miterlimit:22.9256}
    .str14 {stroke:#2B2A29;stroke-width:25.4;stroke-miterlimit:22.9256}
    .str12 {stroke:black;stroke-width:40;stroke-linecap:round;stroke-linejoin:round;stroke-miterlimit:22.9256}
    .str16 {stroke:#2B2A29;stroke-width:40;stroke-linecap:round;stroke-linejoin:round;stroke-miterlimit:22.9256}
    .str3 {stroke:black;stroke-width:151.29;stroke-linecap:round;stroke-linejoin:round;stroke-miterlimit:10}
    .str13 {stroke:black;stroke-width:89.98;stroke-linecap:round;stroke-linejoin:round;stroke-miterlimit:10}
    .str0 {stroke:black;stroke-width:89.98;stroke-linecap:round;stroke-linejoin:round;stroke-miterlimit:10}
    .str2 {stroke:black;stroke-width:67.23;stroke-linecap:round;stroke-linejoin:round;stroke-miterlimit:10}
    .str7 {stroke:black;stroke-width:67.23;stroke-linecap:round;stroke-linejoin:round;stroke-miterlimit:10}
    .str1 {stroke:black;stroke-width:67.23;stroke-linecap:round;stroke-linejoin:round;stroke-miterlimit:10}
    .str6 {stroke:black;stroke-width:16.8;stroke-linecap:round;stroke-linejoin:round;stroke-miterlimit:10}
    .str4 {stroke:black;stroke-width:117.65;stroke-linecap:round;stroke-linejoin:round;stroke-miterlimit:10}
    .str5 {stroke:black;stroke-width:117.65;stroke-linecap:round;stroke-linejoin:round;stroke-miterlimit:10}
    .fil5 {fill:none}
    .fil2 {fill:none;fill-rule:nonzero}
    .fil3 {fill:black}
    .fil4 {fill:black}
    .fil1 {fill:black;fill-rule:nonzero}
    .fil0 {fill:black;fill-rule:nonzero}
    .fnt0 {font-weight:normal;font-size:1384.44px;font-family:'Arial'}
   ]]>
  </style>
 </defs>
 <g id="Слой_x0020_1">
  <metadata id="CorelCorpID_0Corel-Layer"/>
  <g>
   <polygon class="fil0" points="29674.43,34457.56 21222.04,34457.56 21222.04,35247.59 29674.43,35247.59 "/>
   <path id="_1" class="fil1" d="M21222.04 34381.92l8452.39 0 0 151.28 -8452.39 0 -28.86 -75.64 28.86 -75.64zm0 151.28c-15.93,0 -28.86,-33.87 -28.86,-75.64 0,-41.77 12.93,-75.64 28.86,-75.64l0 151.28zm-28.86 714.39l0 -790.03 57.72 0 0 790.03 -28.86 75.64 -28.86 -75.64zm57.72 0c0,41.77 -12.93,75.64 -28.86,75.64 -15.93,0 -28.86,-33.87 -28.86,-75.64l57.72 0zm8423.53 75.64l-8452.39 0 0 -151.28 8452.39 0 28.86 75.64 -28.86 75.64zm0 -151.28c15.93,0 28.86,33.87 28.86,75.64 0,41.77 -12.93,75.64 -28.86,75.64l0 -151.28zm28.86 -714.39l0 790.03 -57.72 0 0 -790.03 28.86 -75.64 28.86 75.64zm-57.72 0c0,-41.77 12.93,-75.64 28.86,-75.64 15.93,0 28.86,33.87 28.86,75.64l-57.72 0z"/>
  </g>
  <g>
   <polygon class="fil0" points="28954.49,8132.4 28954.49,35154.65 29744.55,35154.65 29744.55,8132.4 "/>
   <path id="_1_0" class="fil1" d="M28878.85 35154.65l0 -27022.25 151.28 0 0 27022.25 -75.64 161.06 -75.64 -161.06zm151.28 0c0,88.95 -33.87,161.06 -75.64,161.06 -41.77,0 -75.64,-72.11 -75.64,-161.06l151.28 0zm714.42 161.06l-790.06 0 0 -322.12 790.06 0 75.64 161.06 -75.64 161.06zm0 -322.12c41.77,0 75.64,72.11 75.64,161.06 0,88.95 -33.87,161.06 -75.64,161.06l0 -322.12zm75.64 -26861.19l0 27022.25 -151.28 0 0 -27022.25 75.64 -161.06 75.64 161.06zm-151.28 0c0,-88.95 33.87,-161.06 75.64,-161.06 41.77,0 75.64,72.11 75.64,161.06l-151.28 0zm-714.42 -161.06l790.06 0 0 322.12 -790.06 0 -75.64 -161.06 75.64 -161.06zm0 322.12c-41.77,0 -75.64,-72.11 -75.64,-161.06 0,-88.95 33.87,-161.06 75.64,-161.06l0 322.12z"/>
  </g>
  <polygon class="fil2 str0" points="16986.21,34957.86 16716.21,34957.86 16716.21,34417.85 16986.21,34417.85 "/>
  <polygon class="fil2 str1" points="22028.9,30924.62 22028.9,31126.33 21625.47,31126.33 21625.47,30924.62 "/>
  <polygon class="fil2 str2" points="22028.9,28019.65 22028.9,28221.37 21625.47,28221.37 21625.47,28019.65 "/>
  <text x="25268.2" y="30064.05"  class="fil3 fnt0">3.70</text>
  <g>
   <polygon class="fil0" points="22028.9,17372.91 21625.47,17372.91 21625.47,9346.65 22028.9,9346.65 "/>
   <path id="_1_1" class="fil1" d="M21625.47 17292.29l403.43 0 0 161.24 -403.43 0 -75.64 -80.62 75.64 -80.62zm0 161.24c-41.77,0 -75.64,-36.1 -75.64,-80.62 0,-44.52 33.87,-80.62 75.64,-80.62l0 161.24zm75.64 -8106.88l0 8026.26 -151.28 0 0 -8026.26 75.64 -80.62 75.64 80.62zm-151.28 0c0,-44.52 33.87,-80.62 75.64,-80.62 41.77,0 75.64,36.1 75.64,80.62l-151.28 0zm479.07 80.62l-403.43 0 0 -161.24 403.43 0 75.64 80.62 -75.64 80.62zm0 -161.24c41.77,0 75.64,36.1 75.64,80.62 0,44.52 -33.87,80.62 -75.64,80.62l0 -161.24zm-75.64 8106.88l0 -8026.26 151.28 0 0 8026.26 -75.64 80.62 -75.64 -80.62zm151.28 0c0,44.52 -33.87,80.62 -75.64,80.62 -41.77,0 -75.64,-36.1 -75.64,-80.62l151.28 0z"/>
  </g>
  <polygon class="fil0 str3" points="21625.47,34417.85 22028.9,34417.85 22028.9,31173.57 21625.47,31173.57 "/>
  <polygon class="fil0 str3" points="28954.49,25693.67 22028.9,25693.67 22028.9,27962.96 21625.47,27962.96 21625.47,25307.03 28954.49,25307.03 "/>
  <line class="fil2 str4" x1="20379.01" y1="9555.6" x2="13251.71" y2= "9555.6" />
  <polygon class="fil2 str5" points="13674.55,8463.8 20062.18,8463.8 20062.18,8732.74 13674.55,8732.74 "/>
  <polygon class="fil2 str5" points="20062.18,8463.8 20331.16,8463.8 20331.16,8732.74 20062.18,8732.74 "/>
  <polygon class="fil2 str5" points="13674.55,8463.8 13405.57,8463.8 13405.57,8732.74 13674.55,8732.74 "/>
  <g>
   <path class="fil1" d="M20230.3 7917.48c33.24,0 60.2,26.34 60.2,58.83 0,32.49 -26.96,58.83 -60.2,58.83l0 -117.66zm-6881.11 0l6881.11 0 0 117.66 -6881.11 0 0 -117.66zm0 117.66c-33.24,0 -60.2,-26.34 -60.2,-58.83 0,-32.49 26.96,-58.83 60.2,-58.83l0 117.66z"/>
  </g>
  <g>
   <polygon class="fil0" points="22885.24,8463.8 20309.72,8463.8 20309.72,7976.31 22885.24,7976.31 "/>
   <path id="_1_2" class="fil1" d="M20309.72 8388.16l2575.52 0 0 151.28 -2575.52 0 -69.82 -75.64 69.82 -75.64zm0 151.28c-38.56,0 -69.82,-33.87 -69.82,-75.64 0,-41.77 31.26,-75.64 69.82,-75.64l0 151.28zm69.82 -563.13l0 487.49 -139.64 0 0 -487.49 69.82 -75.64 69.82 75.64zm-139.64 0c0,-41.77 31.26,-75.64 69.82,-75.64 38.56,0 69.82,33.87 69.82,75.64l-139.64 0zm2645.34 75.64l-2575.52 0 0 -151.28 2575.52 0 69.82 75.64 -69.82 75.64zm0 -151.28c38.56,0 69.82,33.87 69.82,75.64 0,41.77 -31.26,75.64 -69.82,75.64l0 -151.28zm-69.82 563.13l0 -487.49 139.64 0 0 487.49 -69.82 75.64 -69.82 -75.64zm139.64 0c0,41.77 -31.26,75.64 -69.82,75.64 -38.56,0 -69.82,-33.87 -69.82,-75.64l139.64 0z"/>
  </g>
  <text x="13271.32" y="32559.52"  class="fil3 fnt0">14.90</text>
  <text x="24123.64" y="22393.96"  class="fil3 fnt0">6.10</text>
  <g id="_2070759717680">
   <line class="fil2 str6" x1="26584.33" y1="17322.48" x2="26584.33" y2= "19306" />
   <polygon class="fil2 str7" points="28954.49,19306 28954.49,17322.48 26584.33,17322.48 26584.33,19306 "/>
   <polygon class="fil2 str7" points="26685.19,19188.35 26685.19,17440.14 28433.4,17440.14 28433.4,19188.35 "/>
   <line class="fil2 str6" x1="26685.19" y1="19188.35" x2="26954.13" y2= "18919.37" />
   <line class="fil2 str6" x1="27290.34" y1="18583.2" x2="27828.26" y2= "18045.28" />
   <line class="fil2 str6" x1="28164.42" y1="17709.08" x2="28433.4" y2= "17440.14" />
   <line class="fil2 str6" x1="28433.4" y1="19188.35" x2="28164.42" y2= "18919.37" />
   <line class="fil2 str6" x1="27828.26" y1="18583.2" x2="27290.34" y2= "18045.28" />
   <line class="fil2 str6" x1="26954.13" y1="17709.08" x2="26685.19" y2= "17440.14" />
   <line class="fil2 str6" x1="28433.4" y1="18314.22" x2="26685.19" y2= "18314.22" />
   <line class="fil2 str6" x1="27559.28" y1="19188.35" x2="27559.28" y2= "17440.14" />
   <line class="fil2 str6" x1="28433.4" y1="18314.22" x2="28164.42" y2= "18045.28" />
   <line class="fil2 str6" x1="27828.26" y1="17709.08" x2="27559.28" y2= "17440.14" />
   <line class="fil2 str6" x1="27559.28" y1="19188.35" x2="27290.34" y2= "18919.37" />
   <polyline class="fil2 str6" points="26954.13,18583.2 26685.19,18314.22 26954.13,18045.28 "/>
   <line class="fil2 str6" x1="27290.34" y1="17709.08" x2="27559.28" y2= "17440.14" />
   <line class="fil2 str6" x1="27559.28" y1="19188.35" x2="27828.26" y2= "18919.37" />
   <line class="fil2 str6" x1="28164.42" y1="18583.2" x2="28433.4" y2= "18314.22" />
   <path class="fil2 str6" d="M28080.4 18742.87c0,-41.78 -33.87,-75.65 -75.64,-75.65 -41.81,0 -75.64,33.87 -75.64,75.65 0,41.81 33.83,75.64 75.64,75.64 41.77,0 75.64,-33.83 75.64,-75.64z"/>
   <path class="fil2 str6" d="M28080.4 17868.78c0,-41.77 -33.87,-75.64 -75.64,-75.64 -41.81,0 -75.64,33.87 -75.64,75.64 0,41.77 33.83,75.64 75.64,75.64 41.77,0 75.64,-33.87 75.64,-75.64z"/>
   <path class="fil2 str6" d="M27206.28 18742.87c0,-41.78 -33.87,-75.65 -75.65,-75.65 -41.77,0 -75.64,33.87 -75.64,75.65 0,41.81 33.87,75.64 75.64,75.64 41.78,0 75.65,-33.83 75.65,-75.64z"/>
   <path class="fil2 str6" d="M27206.28 17868.78c0,-41.77 -33.87,-75.64 -75.65,-75.64 -41.77,0 -75.64,33.87 -75.64,75.64 0,41.77 33.87,75.64 75.64,75.64 41.78,0 75.65,-33.87 75.65,-75.64z"/>
   <line class="fil2 str7" x1="28567.86" y1="19306" x2="28567.86" y2= "17322.48" />
   <line class="fil2 str6" x1="28584.69" y1="19205.14" x2="28584.69" y2= "17423.34" />
   <polyline class="fil2 str6" points="28920.86,17423.34 28920.86,19205.14 28584.69,19205.14 "/>
   <line class="fil2 str6" x1="28920.86" y1="19020.23" x2="28584.69" y2= "19020.23" />
   <line class="fil2 str6" x1="28920.86" y1="19121.08" x2="28584.69" y2= "19121.08" />
   <line class="fil2 str6" x1="28920.86" y1="18919.37" x2="28584.69" y2= "18919.37" />
   <line class="fil2 str6" x1="28920.86" y1="18818.51" x2="28584.69" y2= "18818.51" />
   <line class="fil2 str6" x1="28920.86" y1="18616.79" x2="28584.69" y2= "18616.79" />
   <line class="fil2 str6" x1="28920.86" y1="18717.65" x2="28584.69" y2= "18717.65" />
   <line class="fil2 str6" x1="28920.86" y1="18515.94" x2="28584.69" y2= "18515.94" />
   <line class="fil2 str6" x1="28920.86" y1="18415.08" x2="28584.69" y2= "18415.08" />
   <line class="fil2 str6" x1="28920.86" y1="18213.36" x2="28584.69" y2= "18213.36" />
   <line class="fil2 str6" x1="28920.86" y1="18314.22" x2="28584.69" y2= "18314.22" />
   <line class="fil2 str6" x1="28920.86" y1="18129.34" x2="28584.69" y2= "18129.34" />
   <line class="fil2 str6" x1="28920.86" y1="18028.49" x2="28584.69" y2= "18028.49" />
   <line class="fil2 str6" x1="28920.86" y1="17826.77" x2="28584.69" y2= "17826.77" />
   <line class="fil2 str6" x1="28920.86" y1="17927.63" x2="28584.69" y2= "17927.63" />
   <line class="fil2 str6" x1="28920.86" y1="17725.91" x2="28584.69" y2= "17725.91" />
   <line class="fil2 str6" x1="28920.86" y1="17625.05" x2="28584.69" y2= "17625.05" />
   <line class="fil2 str6" x1="28920.86" y1="17423.34" x2="28584.69" y2= "17423.34" />
   <line class="fil2 str6" x1="28920.86" y1="17524.2" x2="28584.69" y2= "17524.2" />
   <line class="fil2 str6" x1="26550.7" y1="18717.65" x2="26500.27" y2= "18717.65" />
   <path class="fil2 str6" d="M26559.12 18667.26c-23.23,0 -42.05,18.79 -42.05,42.01 0,23.19 18.82,42.02 42.05,42.02"/>
   <polyline class="fil2 str6" points="26584.33,18768.08 26550.7,18768.08 26550.7,18717.65 26550.7,18667.22 26584.33,18667.22 "/>
   <line class="fil2 str6" x1="26550.7" y1="18314.22" x2="26500.27" y2= "18314.22" />
   <path class="fil2 str6" d="M26559.12 18263.83c-23.23,0 -42.05,18.78 -42.05,42.01 0,23.19 18.82,42.01 42.05,42.01"/>
   <polyline class="fil2 str6" points="26584.33,18364.65 26550.7,18364.65 26550.7,18314.22 26550.7,18263.79 26584.33,18263.79 "/>
   <line class="fil2 str6" x1="26550.7" y1="17927.63" x2="26500.27" y2= "17927.63" />
   <path class="fil2 str6" d="M26559.12 17877.2c-23.23,0 -42.05,18.82 -42.05,42.01 0,23.23 18.82,42.05 42.05,42.05"/>
   <polyline class="fil2 str6" points="26584.33,17978.06 26550.7,17978.06 26550.7,17927.63 26550.7,17877.2 26584.33,17877.2 "/>
   <line class="fil2 str6" x1="26550.7" y1="18515.94" x2="26500.27" y2= "18515.94" />
   <path class="fil2 str6" d="M26559.12 18465.55c-23.23,0 -42.05,18.78 -42.05,42.01 0,23.19 18.82,42.01 42.05,42.01"/>
   <polyline class="fil2 str6" points="26584.33,18566.37 26550.7,18566.37 26550.7,18515.94 26550.7,18465.51 26584.33,18465.51 "/>
   <line class="fil2 str6" x1="26550.7" y1="18129.34" x2="26500.27" y2= "18129.34" />
   <path class="fil2 str6" d="M26559.12 18078.91c-23.23,0 -42.05,18.83 -42.05,42.01 0,23.23 18.82,42.06 42.05,42.06"/>
   <polyline class="fil2 str6" points="26584.33,18179.77 26550.7,18179.77 26550.7,18129.34 26550.7,18078.91 26584.33,18078.91 "/>
  </g>
  <polygon class="fil0 str3" points="22028.9,25307.03 21625.47,25307.03 21625.47,20936.52 22028.9,20936.52 "/>
  <text x="17910.57" y="6766.04"  class="fil3 fnt0">5.40 (1.60)</text>
  <g>
   <polygon class="fil0" points="11132.39,9052.15 11132.39,35154.65 11922.45,35154.65 11922.45,9052.15 "/>
   <path id="_1_3" class="fil1" d="M11056.75 35154.65l0 -26102.5 151.28 0 0 26102.5 -75.64 155.58 -75.64 -155.58zm151.28 0c0,85.92 -33.87,155.58 -75.64,155.58 -41.77,0 -75.64,-69.66 -75.64,-155.58l151.28 0zm714.42 155.58l-790.06 0 0 -311.16 790.06 0 75.64 155.58 -75.64 155.58zm0 -311.16c41.77,0 75.64,69.66 75.64,155.58 0,85.92 -33.87,155.58 -75.64,155.58l0 -311.16zm75.64 -25946.92l0 26102.5 -151.28 0 0 -26102.5 75.64 -155.58 75.64 155.58zm-151.28 0c0,-85.92 33.87,-155.58 75.64,-155.58 41.77,0 75.64,69.66 75.64,155.58l-151.28 0zm-714.42 -155.58l790.06 0 0 311.16 -790.06 0 -75.64 -155.58 75.64 -155.58zm0 311.16c-41.77,0 -75.64,-69.66 -75.64,-155.58 0,-85.92 33.87,-155.58 75.64,-155.58l0 311.16z"/>
  </g>
  <g>
   <polygon class="fil0" points="16716.21,34457.56 11154.46,34457.56 11154.46,35247.59 16716.21,35247.59 "/>
   <path id="_1_4" class="fil1" d="M11154.46 34381.92l5561.75 0 0 151.28 -5561.75 0 -18.99 -75.64 18.99 -75.64zm0 151.28c-10.48,0 -18.99,-33.87 -18.99,-75.64 0,-41.77 8.51,-75.64 18.99,-75.64l0 151.28zm-18.99 714.39l0 -790.03 37.98 0 0 790.03 -18.99 75.64 -18.99 -75.64zm37.98 0c0,41.77 -8.51,75.64 -18.99,75.64 -10.48,0 -18.99,-33.87 -18.99,-75.64l37.98 0zm5542.76 75.64l-5561.75 0 0 -151.28 5561.75 0 18.99 75.64 -18.99 75.64zm0 -151.28c10.48,0 18.99,33.87 18.99,75.64 0,41.77 -8.51,75.64 -18.99,75.64l0 -151.28zm18.99 -714.39l0 790.03 -37.98 0 0 -790.03 18.99 -75.64 18.99 75.64zm-37.98 0c0,-41.77 8.51,-75.64 18.99,-75.64 10.48,0 18.99,33.87 18.99,75.64l-37.98 0z"/>
  </g>
  <rect class="fil4 str8" x="26068.56" y="7903.71" width="3225.73" height="1708.45" rx="22.67" ry="36.42"/>
  <rect class="fil4 str8" x="11073.81" y="7946.3" width="2292.75" height="1652.85" rx="16.11" ry="35.23"/>
  <g id="_2070759781328">
   <rect class="fil4 str8" x="29243.39" y="4547.9" width="567.3" height="3552.25"/>
   <rect class="fil4 str8" x="11071.26" y="4531.29" width="567.3" height="3588.93"/>
   <rect class="fil4 str8" transform="matrix(-3.14221E-13 1.22061 7.02036 2.37464E-13 11071.2 4322.66)" width="253.39" height="2669.48"/>
  </g>
  <g>
   <polygon class="fil0" points="28616.76,8463.8 26041.24,8463.8 26041.24,7976.31 28616.76,7976.31 "/>
   <path id="_1_5" class="fil1" d="M26041.24 8388.16l2575.52 0 0 151.28 -2575.52 0 -69.82 -75.64 69.82 -75.64zm0 151.28c-38.56,0 -69.82,-33.87 -69.82,-75.64 0,-41.77 31.26,-75.64 69.82,-75.64l0 151.28zm69.82 -563.13l0 487.49 -139.64 0 0 -487.49 69.82 -75.64 69.82 75.64zm-139.64 0c0,-41.77 31.26,-75.64 69.82,-75.64 38.56,0 69.82,33.87 69.82,75.64l-139.64 0zm2645.34 75.64l-2575.52 0 0 -151.28 2575.52 0 69.82 75.64 -69.82 75.64zm0 -151.28c38.56,0 69.82,33.87 69.82,75.64 0,41.77 -31.26,75.64 -69.82,75.64l0 -151.28zm-69.82 563.13l0 -487.49 139.64 0 0 487.49 -69.82 75.64 -69.82 -75.64zm139.64 0c0,41.77 -31.26,75.64 -69.82,75.64 -38.56,0 -69.82,-33.87 -69.82,-75.64l139.64 0z"/>
  </g>
  <rect class="fil4 str8" x="20252.97" y="7903.71" width="2544.99" height="1708.45" rx="17.89" ry="36.42"/>
  <rect class="fil5 str9" x="21245.62" y="16814.39" width="297.8" height="3594.47" rx="9.45" ry="9.45"/>
  <rect class="fil5 str9" x="22953.82" y="8022.89" width="197.48" height="460.79" rx="9.45" ry="9.45"/>
  <rect class="fil5 str9" x="25774.97" y="8022.89" width="197.48" height="460.79" rx="9.45" ry="9.45"/>
  <g id="_2070759773936">
   <line class="fil5 str10" x1="24665.94" y1="27033.37" x2="24630.79" y2= "26716.64" />
   <line class="fil5 str11" x1="23577.29" y1="27020.7" x2="23612.52" y2= "26704.05" />
   <path class="fil5 str11" d="M25175.36 25588.72c0,250.95 0.04,501.94 0.04,752.89 0.54,187.17 -96.44,322.55 -334.31,378.23 -423.23,-2.95 -846.5,-5.89 -1269.74,-8.85 -331.19,17.29 -468.91,-126.16 -489.39,-369.38l0 -764.82"/>
   <path class="fil5 str11" d="M23333.82 27666.21c-40.92,-249.99 15.51,-466.78 219.91,-633.29 82.63,-31.51 163.74,-56.2 243.34,-74.31 309.7,-70.41 597,-41.12 864.93,74.35 180.14,148.01 264.2,341.16 241.51,584.51 -35.4,363.35 -166.38,716.07 -452.65,1051.46 -200.05,203.44 -426.4,220.11 -686.03,0 -235.04,-292.06 -374.78,-628.1 -431.01,-1002.72z"/>
  </g>
  <g id="_2070759772352">
   <rect class="fil5 str11" transform="matrix(-0.000215557 1.20034 -1.16098 -0.000222865 28845.7 31299)" width="2611.41" height="5846.68"/>
   <path class="fil5 str11" d="M23301.46 31655.93c1490.89,-65.75 2964.24,-22.69 4446.37,-34 518.72,-7.63 783.5,12.21 774.99,579.88 -0.09,469.83 -0.17,939.6 -0.25,1409.41 4.71,398.94 -110.71,548.98 -756.53,518.38 -1488.32,-11.89 -2976.7,12.51 -4465.02,-35.65 -1182.02,-147.09 -1301.72,-2219.02 0.44,-2438.02z"/>
   <circle class="fil5 str11" transform="matrix(-0.000215557 1.20034 -1.16098 -0.000222865 28066.5 32891.9)" r="121.03"/>
  </g>
  <g id="_2070759771632">
   <path class="fil5 str12" d="M26136.56 25672.88c7.28,771.2 -228.17,1490.49 715.94,1589.94 307.46,25.35 600.89,14.5 902.75,-27.86 773.15,-171.59 530.4,-836.17 543.34,-1573.41"/>
   <path class="fil5 str11" d="M26255.99 26240.91c-2.14,-101.76 73.63,-200.05 157.85,-246.55 560.91,0 1095.05,0 1655.96,0 79.2,17.46 96.99,72.34 123.82,191.36 40.55,1083.25 -700.72,853.42 -1373.2,872.31 -486.84,-48.09 -543.09,-397.39 -564.43,-817.12z"/>
   <circle class="fil5 str11" cx="27238.8" cy="26153.63" r="110.65"/>
   <path class="fil5 str11" d="M26512.15 26191.27c-1.52,-81.27 52.57,-159.78 112.71,-196.91 400.48,0 781.87,0 1182.36,0 56.55,13.94 69.25,57.77 88.4,152.83 70.84,854.19 -426.41,692.96 -980.46,696.7 -362.86,-6.75 -403.01,-332 -403.01,-652.62z"/>
  </g>
  <polygon class="fil2 str13" points="21245.39,34957.86 20975.38,34957.86 20975.38,34417.85 21245.39,34417.85 "/>
  <path class="fil5 str14" d="M21907.92 28221.37c-1255.45,175.92 -2717.99,1294.45 -3015.54,2639.16 937.98,0 2092.71,20.36 3030.73,20.36"/>
  <path class="fil5 str14" d="M16986.19 34609.48c221.62,1581.48 2230.94,3534.67 3924.82,3909.49 0,-1181.54 25.65,-2636.12 25.65,-3817.71"/>
  <g id="_2070759764528">
   <rect class="fil5 str15" transform="matrix(-9.23232E-14 -0.905874 1.16198 -7.1975E-14 11065.5 4290.83)" width="2496.64" height="5813.27"/>
   <line class="fil5 str15" x1="11056.64" y1="4294.47" x2="17811.52" y2= "2032.83" />
   <line class="fil5 str15" x1="11065.48" y1="2029.18" x2="17767.76" y2= "4235.31" />
  </g>
  <path class="fil5 str14" d="M25792.55 8360.32c-39.73,1614.5 -1007.64,2767.84 -2607.32,3229.55 0,-1018.45 -21.82,-2272.22 -21.82,-3290.69"/>
  <g id="_2070759755312">
   <path class="fil5 str16" d="M28812.42 14571.34l0 1990.13c0.01,74.14 -60.11,134.26 -134.24,134.26l-2016.24 -0.01c-74.13,0.01 -134.25,-60.11 -134.25,-134.24l0 -1990.14c0,-74.12 60.12,-134.24 134.25,-134.24l2016.23 -0.01c74.14,0.01 134.26,60.13 134.26,134.26z"/>
   <rect class="fil5 str16" transform="matrix(2.06839E-14 0.78098 -0.78098 2.06839E-14 28420.7 14646)" width="2373.81" height="2106.33"/>
   <circle class="fil5 str17" transform="matrix(2.06839E-14 0.78098 -0.78098 2.06839E-14 28081.3 16003.8)" r="183.89"/>
  </g>
 </g>
</svg>
