<?xml version="1.0" encoding="UTF-8"?>
<!DOCTYPE svg PUBLIC "-//W3C//DTD SVG 1.1//EN" "http://www.w3.org/Graphics/SVG/1.1/DTD/svg11.dtd">
<!-- Creator: CorelDRAW -->
<svg xmlns="http://www.w3.org/2000/svg" xml:space="preserve" width="400mm" height="400mm" version="1.1" style="shape-rendering:geometricPrecision; text-rendering:geometricPrecision; image-rendering:optimizeQuality; fill-rule:evenodd; clip-rule:evenodd"
viewBox="0 0 40000 40000"
 xmlns:xlink="http://www.w3.org/1999/xlink"
 xmlns:xodm="http://www.corel.com/coreldraw/odm/2003">
 <defs>
  <style type="text/css">
   <![CDATA[
    .str10 {stroke:black;stroke-width:100;stroke-miterlimit:22.9256}
    .str2 {stroke:black;stroke-width:50;stroke-miterlimit:22.9256}
    .str7 {stroke:#1F1B20;stroke-width:16.9;stroke-miterlimit:22.9256}
    .str4 {stroke:#1F1B20;stroke-width:40;stroke-miterlimit:22.9256}
    .str3 {stroke:#3A3A3A;stroke-width:40;stroke-miterlimit:22.9256}
    .str9 {stroke:#2B2A29;stroke-width:40;stroke-miterlimit:22.9256}
    .str1 {stroke:black;stroke-width:20;stroke-miterlimit:22.9256}
    .str6 {stroke:#2B2A29;stroke-width:25.4;stroke-miterlimit:22.9256}
    .str0 {stroke:black;stroke-width:7.62;stroke-miterlimit:22.9256}
    .str5 {stroke:black;stroke-width:40;stroke-linecap:round;stroke-linejoin:round;stroke-miterlimit:22.9256}
    .str8 {stroke:#2B2A29;stroke-width:40;stroke-linecap:round;stroke-linejoin:round;stroke-miterlimit:22.9256}
    .fil4 {fill:none}
    .fil2 {fill:none;fill-rule:nonzero}
    .fil5 {fill:black}
    .fil3 {fill:black}
    .fil1 {fill:black;fill-rule:nonzero}
    .fil0 {fill:black;fill-rule:nonzero}
    .fnt0 {font-weight:normal;font-size:1659.59px;font-family:'Arial'}
   ]]>
  </style>
 </defs>
 <g id="Слой_x0020_1">
  <metadata id="CorelCorpID_0Corel-Layer"/>
  <g>
   <polygon class="fil0" points="7266.56,6153.78 16640.53,6153.78 16640.53,5379.49 7266.56,5379.49 "/>
   <path id="_1" class="fil1" d="M16640.53 6227.92l-9373.97 0 0 -148.28 9373.97 0 32.01 74.14 -32.01 74.14zm0 -148.28c17.67,0 32.01,33.2 32.01,74.14 0,40.94 -14.34,74.14 -32.01,74.14l0 -148.28zm32.01 -700.15l0 774.29 -64.02 0 0 -774.29 32.01 -74.14 32.01 74.14zm-64.02 0c0,-40.94 14.34,-74.14 32.01,-74.14 17.67,0 32.01,33.2 32.01,74.14l-64.02 0zm-9341.96 -74.14l9373.97 0 0 148.28 -9373.97 0 -32.01 -74.14 32.01 -74.14zm0 148.28c-17.67,0 -32.01,-33.2 -32.01,-74.14 0,-40.94 14.34,-74.14 32.01,-74.14l0 148.28zm-32.01 700.15l0 -774.29 64.02 0 0 774.29 -32.01 74.14 -32.01 -74.14zm64.02 0c0,40.94 -14.34,74.14 -32.01,74.14 -17.67,0 -32.01,-33.2 -32.01,-74.14l64.02 0z"/>
  </g>
  <g>
   <polygon class="fil0" points="8149.93,31954.46 8149.93,5470.58 7180.52,5470.58 7180.52,31954.46 "/>
   <path id="_1_0" class="fil1" d="M8242.74 5470.58l0 26483.88 -185.62 0 0 -26483.88 92.81 -157.85 92.81 157.85zm-185.62 0c0,-87.17 41.56,-157.85 92.81,-157.85 51.25,0 92.81,70.68 92.81,157.85l-185.62 0zm-876.6 -157.85l969.41 0 0 315.7 -969.41 0 -92.81 -157.85 92.81 -157.85zm0 315.7c-51.25,0 -92.81,-70.68 -92.81,-157.85 0,-87.17 41.56,-157.85 92.81,-157.85l0 315.7zm-92.81 26326.03l0 -26483.88 185.62 0 0 26483.88 -92.81 157.85 -92.81 -157.85zm185.62 0c0,87.17 -41.56,157.85 -92.81,157.85 -51.25,0 -92.81,-70.68 -92.81,-157.85l185.62 0zm876.6 157.85l-969.41 0 0 -315.7 969.41 0 92.81 157.85 -92.81 157.85zm0 -315.7c51.25,0 92.81,70.68 92.81,157.85 0,87.17 -41.56,157.85 -92.81,157.85l0 -315.7z"/>
  </g>
  <g>
   <path class="fil1" d="M15214.61 9438.87l0 197.7 -82.48 0 0 -197.7 41.24 -32.94 41.24 32.94zm-82.48 0c0,-18.19 18.47,-32.94 41.24,-32.94 22.77,0 41.24,14.75 41.24,32.94l-82.48 0zm536.25 32.94l-495.01 0 0 -65.88 495.01 0 41.24 32.94 -41.24 32.94zm0 -65.88c22.77,0 41.24,14.75 41.24,32.94 0,18.19 -18.47,32.94 -41.24,32.94l0 -65.88zm-41.24 230.64l0 -197.7 82.48 0 0 197.7 -41.24 32.94 -41.24 -32.94zm82.48 0c0,18.19 -18.47,32.94 -41.24,32.94 -22.77,0 -41.24,-14.75 -41.24,-32.94l82.48 0zm-536.25 -32.94l495.01 0 0 65.88 -495.01 0 -41.24 -32.94 41.24 -32.94zm0 65.88c-22.77,0 -41.24,-14.75 -41.24,-32.94 0,-18.19 18.47,-32.94 41.24,-32.94l0 65.88z"/>
  </g>
  <g>
   <path class="fil1" d="M15214.61 12285.96l0 197.69 -82.48 0 0 -197.69 41.24 -32.94 41.24 32.94zm-82.48 0c0,-18.19 18.47,-32.94 41.24,-32.94 22.77,0 41.24,14.75 41.24,32.94l-82.48 0zm536.25 32.94l-495.01 0 0 -65.88 495.01 0 41.24 32.94 -41.24 32.94zm0 -65.88c22.77,0 41.24,14.75 41.24,32.94 0,18.19 -18.47,32.94 -41.24,32.94l0 -65.88zm-41.24 230.63l0 -197.69 82.48 0 0 197.69 -41.24 32.94 -41.24 -32.94zm82.48 0c0,18.19 -18.47,32.94 -41.24,32.94 -22.77,0 -41.24,-14.75 -41.24,-32.94l82.48 0zm-536.25 -32.94l495.01 0 0 65.88 -495.01 0 -41.24 -32.94 41.24 -32.94zm0 65.88c-22.77,0 -41.24,-14.75 -41.24,-32.94 0,-18.19 18.47,-32.94 41.24,-32.94l0 65.88z"/>
  </g>
  <g>
   <polygon class="fil0" points="20686.41,23739.75 21181.43,23739.75 21181.43,30777.98 20686.41,30777.98 "/>
   <path id="_1_1" class="fil1" d="M21181.43 23810.45l-495.02 0 0 -141.4 495.02 0 92.81 70.7 -92.81 70.7zm0 -141.4c51.25,0 92.81,31.66 92.81,70.7 0,39.04 -41.56,70.7 -92.81,70.7l0 -141.4zm-92.81 7108.93l0 -7038.23 185.62 0 0 7038.23 -92.81 70.7 -92.81 -70.7zm185.62 0c0,39.04 -41.56,70.7 -92.81,70.7 -51.25,0 -92.81,-31.66 -92.81,-70.7l185.62 0zm-587.83 -70.7l495.02 0 0 141.4 -495.02 0 -92.81 -70.7 92.81 -70.7zm0 141.4c-51.25,0 -92.81,-31.66 -92.81,-70.7 0,-39.04 41.56,-70.7 92.81,-70.7l0 141.4zm92.81 -7108.93l0 7038.23 -185.62 0 0 -7038.23 92.81 -70.7 92.81 70.7zm-185.62 0c0,-39.04 41.56,-70.7 92.81,-70.7 51.25,0 92.81,31.66 92.81,70.7l-185.62 0z"/>
  </g>
  <g>
   <polygon class="fil0" points="15602.63,6184.4 15107.62,6184.4 15107.62,9364.04 15602.63,9364.04 "/>
   <path id="_1_2" class="fil1" d="M15107.62 6110.26l495.01 0 0 148.28 -495.01 0 -92.81 -74.14 92.81 -74.14zm0 148.28c-51.25,0 -92.81,-33.2 -92.81,-74.14 0,-40.94 41.56,-74.14 92.81,-74.14l0 148.28zm-92.81 3105.5l0 -3179.64 185.62 0 0 3179.64 -92.81 74.14 -92.81 -74.14zm185.62 0c0,40.94 -41.56,74.14 -92.81,74.14 -51.25,0 -92.81,-33.2 -92.81,-74.14l185.62 0zm402.2 74.14l-495.01 0 0 -148.28 495.01 0 92.81 74.14 -92.81 74.14zm0 -148.28c51.25,0 92.81,33.2 92.81,74.14 0,40.94 -41.56,74.14 -92.81,74.14l0 -148.28zm92.81 -3105.5l0 3179.64 -185.62 0 0 -3179.64 92.81 -74.14 92.81 74.14zm-185.62 0c0,-40.94 41.56,-74.14 92.81,-74.14 51.25,0 92.81,33.2 92.81,74.14l-185.62 0z"/>
  </g>
  <g>
   <path class="fil1" d="M24681.87 30627.08c-28.11,0 -50.91,-25.82 -50.91,-57.66 0,-31.84 22.8,-57.66 50.91,-57.66l0 115.32zm6167.59 0l-6167.59 0 0 -115.32 6167.59 0 0 115.32zm0 -115.32c28.11,0 50.91,25.82 50.91,57.66 0,31.84 -22.8,57.66 -50.91,57.66l0 -115.32z"/>
  </g>
  <g>
   <path class="fil1" d="M24791.51 31506.98l330.04 0 0 115.32 -330.04 0 -72.18 -57.66 72.18 -57.66zm0 115.32c-39.86,0 -72.18,-25.82 -72.18,-57.66 0,-31.84 32.32,-57.66 72.18,-57.66l0 115.32zm72.18 -321.25l0 263.59 -144.36 0 0 -263.59 72.18 -57.66 72.18 57.66zm-144.36 0c0,-31.84 32.32,-57.66 72.18,-57.66 39.86,0 72.18,25.82 72.18,57.66l-144.36 0zm402.22 57.66l-330.04 0 0 -115.32 330.04 0 72.18 57.66 -72.18 57.66zm0 -115.32c39.86,0 72.18,25.82 72.18,57.66 0,31.84 -32.32,57.66 -72.18,57.66l0 -115.32zm-72.18 321.25l0 -263.59 144.36 0 0 263.59 -72.18 57.66 -72.18 -57.66zm144.36 0c0,31.84 -32.32,57.66 -72.18,57.66 -39.86,0 -72.18,-25.82 -72.18,-57.66l144.36 0z"/>
  </g>
  <g>
   <path class="fil1" d="M30825.43 31613.04l-330.04 0 0 -115.32 330.04 0 72.18 57.66 -72.18 57.66zm0 -115.32c39.86,0 72.18,25.82 72.18,57.66 0,31.84 -32.32,57.66 -72.18,57.66l0 -115.32zm72.18 -205.92l0 263.58 -144.36 0 0 -263.58 72.18 -57.66 72.18 57.66zm-144.36 0c0,-31.84 32.32,-57.66 72.18,-57.66 39.86,0 72.18,25.82 72.18,57.66l-144.36 0zm-257.86 -57.66l330.04 0 0 115.32 -330.04 0 -72.18 -57.66 72.18 -57.66zm0 115.32c-39.86,0 -72.18,-25.82 -72.18,-57.66 0,-31.84 32.32,-57.66 72.18,-57.66l0 115.32zm-72.18 205.92l0 -263.58 144.36 0 0 263.58 -72.18 57.66 -72.18 -57.66zm144.36 0c0,31.84 -32.32,57.66 -72.18,57.66 -39.86,0 -72.18,-25.82 -72.18,-57.66l144.36 0z"/>
  </g>
  <g>
   <path class="fil1" d="M22276.64 32165.1c-40.79,0 -73.87,-25.82 -73.87,-57.66 0,-31.84 33.08,-57.66 73.87,-57.66l0 115.32zm8443.15 0l-8443.15 0 0 -115.32 8443.15 0 0 115.32zm0 -115.32c40.79,0 73.87,25.82 73.87,57.66 0,31.84 -33.08,57.66 -73.87,57.66l0 -115.32z"/>
  </g>
  <g>
   <polygon class="fil0" points="19206.01,31649.27 23469.16,31649.27 23469.16,32127.05 19206.01,32127.05 "/>
   <path id="_1_3" class="fil1" d="M23469.16 31723.41l-4263.15 0 0 -148.28 4263.15 0 115.57 74.14 -115.57 74.14zm0 -148.28c63.82,0 115.57,33.2 115.57,74.14 0,40.94 -51.75,74.14 -115.57,74.14l0 -148.28zm-115.57 551.92l0 -477.78 231.14 0 0 477.78 -115.57 74.14 -115.57 -74.14zm231.14 0c0,40.94 -51.75,74.14 -115.57,74.14 -63.82,0 -115.57,-33.2 -115.57,-74.14l231.14 0zm-4378.72 -74.14l4263.15 0 0 148.28 -4263.15 0 -115.57 -74.14 115.57 -74.14zm0 148.28c-63.82,0 -115.57,-33.2 -115.57,-74.14 0,-40.94 51.75,-74.14 115.57,-74.14l0 148.28zm115.57 -551.92l0 477.78 -231.14 0 0 -477.78 115.57 -74.14 115.57 74.14zm-231.14 0c0,-40.94 51.75,-74.14 115.57,-74.14 63.82,0 115.57,33.2 115.57,74.14l-231.14 0z"/>
  </g>
  <g id="_2070558106624">
   <g>
    <line class="fil2 str0" x1="11058.12" y1="22947.48" x2="11058.12" y2= "20579.89" />
   </g>
   <g>
    <path class="fil1" d="M8108.69 22947.48l0 -2367.59 82.48 0 0 2367.59 -41.24 40.12 -41.24 -40.12zm82.48 0c0,22.15 -18.47,40.12 -41.24,40.12 -22.77,0 -41.24,-17.97 -41.24,-40.12l82.48 0zm2866.95 40.12l-2908.19 0 0 -80.24 2908.19 0 41.24 40.12 -41.24 40.12zm0 -80.24c22.77,0 41.24,17.97 41.24,40.12 0,22.15 -18.47,40.12 -41.24,40.12l0 -80.24zm41.24 -2327.47l0 2367.59 -82.48 0 0 -2367.59 41.24 -40.12 41.24 40.12zm-82.48 0c0,-22.15 18.47,-40.12 41.24,-40.12 22.77,0 41.24,17.97 41.24,40.12l-82.48 0zm-2866.95 -40.12l2908.19 0 0 80.24 -2908.19 0 -41.24 -40.12 41.24 -40.12zm0 80.24c-22.77,0 -41.24,-17.97 -41.24,-40.12 0,-22.15 18.47,-40.12 41.24,-40.12l0 80.24z"/>
   </g>
   <g>
    <path class="fil1" d="M10893.12 22807.04l0 -2086.72 82.48 0 0 2086.72 -41.24 40.12 -41.24 -40.12zm82.48 0c0,22.15 -18.47,40.12 -41.24,40.12 -22.77,0 -41.24,-17.97 -41.24,-40.12l82.48 0zm-2186.3 -40.12l2145.06 0 0 80.24 -2145.06 0 -41.24 -40.12 41.24 -40.12zm0 80.24c-22.77,0 -41.24,-17.97 -41.24,-40.12 0,-22.15 18.47,-40.12 41.24,-40.12l0 80.24zm41.24 -2126.84l0 2086.72 -82.48 0 0 -2086.72 41.24 -40.12 41.24 40.12zm-82.48 0c0,-22.15 18.47,-40.12 41.24,-40.12 22.77,0 41.24,17.97 41.24,40.12l-82.48 0zm2186.3 40.12l-2145.06 0 0 -80.24 2145.06 0 41.24 40.12 -41.24 40.12zm0 -80.24c22.77,0 41.24,17.97 41.24,40.12 0,22.15 -18.47,40.12 -41.24,40.12l0 -80.24z"/>
   </g>
   <g>
    <line class="fil2 str0" x1="10934.36" y1="20720.32" x2="10604.37" y2= "21041.38" />
   </g>
   <g>
    <line class="fil2 str0" x1="10191.85" y1="21442.64" x2="9531.82" y2= "22084.72" />
   </g>
   <g>
    <line class="fil2 str0" x1="9119.34" y1="22486.03" x2="8789.3" y2= "22807.04" />
   </g>
   <g>
    <line class="fil2 str0" x1="8789.3" y1="20720.32" x2="9119.34" y2= "21041.38" />
   </g>
   <g>
    <line class="fil2 str0" x1="9531.82" y1="21442.64" x2="10191.85" y2= "22084.72" />
   </g>
   <g>
    <line class="fil2 str0" x1="10604.37" y1="22486.03" x2="10934.36" y2= "22807.04" />
   </g>
   <g>
    <line class="fil2 str0" x1="8789.3" y1="21763.71" x2="10934.36" y2= "21763.71" />
   </g>
   <g>
    <line class="fil2 str0" x1="9861.86" y1="20720.32" x2="9861.86" y2= "22807.04" />
   </g>
   <g>
    <line class="fil2 str0" x1="8789.3" y1="21763.71" x2="9119.34" y2= "22084.72" />
   </g>
   <g>
    <line class="fil2 str0" x1="9531.82" y1="22486.03" x2="9861.86" y2= "22807.04" />
   </g>
   <g>
    <line class="fil2 str0" x1="9861.86" y1="20720.32" x2="10191.85" y2= "21041.38" />
   </g>
   <g>
    <polyline class="fil2 str0" points="10604.37,21442.64 10934.36,21763.71 10604.37,22084.72 "/>
   </g>
   <g>
    <line class="fil2 str0" x1="10191.85" y1="22486.03" x2="9861.86" y2= "22807.04" />
   </g>
   <g>
    <line class="fil2 str0" x1="9861.86" y1="20720.32" x2="9531.82" y2= "21041.38" />
   </g>
   <g>
    <line class="fil2 str0" x1="9119.34" y1="21442.64" x2="8789.3" y2= "21763.71" />
   </g>
   <g>
    <path class="fil2 str0" d="M9222.43 21252.06c0,49.86 41.56,90.29 92.82,90.29 51.3,0 92.81,-40.43 92.81,-90.29 0,-49.91 -41.51,-90.29 -92.81,-90.29 -51.26,0 -92.82,40.38 -92.82,90.29z"/>
   </g>
   <g>
    <path class="fil2 str0" d="M9222.43 22295.4c0,49.86 41.56,90.29 92.82,90.29 51.3,0 92.81,-40.43 92.81,-90.29 0,-49.86 -41.51,-90.29 -92.81,-90.29 -51.26,0 -92.82,40.43 -92.82,90.29z"/>
   </g>
   <g>
    <path class="fil2 str0" d="M10294.99 21252.06c0,49.86 41.56,90.29 92.81,90.29 51.26,0 92.82,-40.43 92.82,-90.29 0,-49.91 -41.56,-90.29 -92.82,-90.29 -51.25,0 -92.81,40.38 -92.81,90.29z"/>
   </g>
   <g>
    <path class="fil2 str0" d="M10294.99 22295.4c0,49.86 41.56,90.29 92.81,90.29 51.26,0 92.82,-40.43 92.82,-90.29 0,-49.86 -41.56,-90.29 -92.82,-90.29 -51.25,0 -92.81,40.43 -92.81,90.29z"/>
   </g>
   <g>
    <path class="fil1" d="M8583.09 20579.89c0,-22.15 18.47,-40.12 41.24,-40.12 22.77,0 41.24,17.97 41.24,40.12l-82.48 0zm0 2367.59l0 -2367.59 82.48 0 0 2367.59 -82.48 0zm82.48 0c0,22.15 -18.47,40.12 -41.24,40.12 -22.77,0 -41.24,-17.97 -41.24,-40.12l82.48 0z"/>
   </g>
   <g>
    <line class="fil2 str0" x1="8603.67" y1="20700.27" x2="8603.67" y2= "22827.09" />
   </g>
   <g>
    <polyline class="fil2 str0" points="8191.19,22827.09 8191.19,20700.27 8603.67,20700.27 "/>
   </g>
   <g>
    <line class="fil2 str0" x1="8191.19" y1="20921" x2="8603.67" y2= "20921" />
   </g>
   <g>
    <line class="fil2 str0" x1="8191.19" y1="20800.61" x2="8603.67" y2= "20800.61" />
   </g>
   <g>
    <line class="fil2 str0" x1="8191.19" y1="21041.38" x2="8603.67" y2= "21041.38" />
   </g>
   <g>
    <line class="fil2 str0" x1="8191.19" y1="21161.77" x2="8603.67" y2= "21161.77" />
   </g>
   <g>
    <line class="fil2 str0" x1="8191.19" y1="21402.55" x2="8603.67" y2= "21402.55" />
   </g>
   <g>
    <line class="fil2 str0" x1="8191.19" y1="21282.16" x2="8603.67" y2= "21282.16" />
   </g>
   <g>
    <line class="fil2 str0" x1="8191.19" y1="21522.93" x2="8603.67" y2= "21522.93" />
   </g>
   <g>
    <line class="fil2 str0" x1="8191.19" y1="21643.32" x2="8603.67" y2= "21643.32" />
   </g>
   <g>
    <line class="fil2 str0" x1="8191.19" y1="21884.09" x2="8603.67" y2= "21884.09" />
   </g>
   <g>
    <line class="fil2 str0" x1="8191.19" y1="21763.71" x2="8603.67" y2= "21763.71" />
   </g>
   <g>
    <line class="fil2 str0" x1="8191.19" y1="21984.38" x2="8603.67" y2= "21984.38" />
   </g>
   <g>
    <line class="fil2 str0" x1="8191.19" y1="22104.77" x2="8603.67" y2= "22104.77" />
   </g>
   <g>
    <line class="fil2 str0" x1="8191.19" y1="22345.54" x2="8603.67" y2= "22345.54" />
   </g>
   <g>
    <line class="fil2 str0" x1="8191.19" y1="22225.16" x2="8603.67" y2= "22225.16" />
   </g>
   <g>
    <line class="fil2 str0" x1="8191.19" y1="22465.93" x2="8603.67" y2= "22465.93" />
   </g>
   <g>
    <line class="fil2 str0" x1="8191.19" y1="22586.32" x2="8603.67" y2= "22586.32" />
   </g>
   <g>
    <line class="fil2 str0" x1="8191.19" y1="22827.09" x2="8603.67" y2= "22827.09" />
   </g>
   <g>
    <line class="fil2 str0" x1="8191.19" y1="22706.7" x2="8603.67" y2= "22706.7" />
   </g>
   <g>
    <line class="fil2 str0" x1="11099.38" y1="21282.16" x2="11161.26" y2= "21282.16" />
   </g>
   <g>
    <path class="fil2 str0" d="M11089.05 21342.3c28.51,0 51.6,-22.41 51.6,-50.14 0,-27.68 -23.09,-50.15 -51.6,-50.15"/>
   </g>
   <g>
    <polyline class="fil2 str0" points="11058.12,21221.96 11099.38,21221.96 11099.38,21282.16 11099.38,21342.35 11058.12,21342.35 "/>
   </g>
   <g>
    <line class="fil2 str0" x1="11099.38" y1="21763.71" x2="11161.26" y2= "21763.71" />
   </g>
   <g>
    <path class="fil2 str0" d="M11089.05 21823.85c28.51,0 51.6,-22.42 51.6,-50.14 0,-27.68 -23.09,-50.15 -51.6,-50.15"/>
   </g>
   <g>
    <polyline class="fil2 str0" points="11058.12,21703.51 11099.38,21703.51 11099.38,21763.71 11099.38,21823.9 11058.12,21823.9 "/>
   </g>
   <g>
    <line class="fil2 str0" x1="11099.38" y1="22225.16" x2="11161.26" y2= "22225.16" />
   </g>
   <g>
    <path class="fil2 str0" d="M11089.05 22285.35c28.51,0 51.6,-22.47 51.6,-50.14 0,-27.73 -23.09,-50.2 -51.6,-50.2"/>
   </g>
   <g>
    <polyline class="fil2 str0" points="11058.12,22164.96 11099.38,22164.96 11099.38,22225.16 11099.38,22285.35 11058.12,22285.35 "/>
   </g>
   <g>
    <line class="fil2 str0" x1="11099.38" y1="21522.93" x2="11161.26" y2= "21522.93" />
   </g>
   <g>
    <path class="fil2 str0" d="M11089.05 21583.08c28.51,0 51.6,-22.42 51.6,-50.15 0,-27.68 -23.09,-50.14 -51.6,-50.14"/>
   </g>
   <g>
    <polyline class="fil2 str0" points="11058.12,21462.74 11099.38,21462.74 11099.38,21522.93 11099.38,21583.13 11058.12,21583.13 "/>
   </g>
   <g>
    <line class="fil2 str0" x1="11099.38" y1="21984.38" x2="11161.26" y2= "21984.38" />
   </g>
   <g>
    <path class="fil2 str0" d="M11089.05 22044.58c28.51,0 51.6,-22.47 51.6,-50.15 0,-27.73 -23.09,-50.19 -51.6,-50.19"/>
   </g>
   <g>
    <polyline class="fil2 str0" points="11058.12,21924.19 11099.38,21924.19 11099.38,21984.38 11099.38,22044.58 11058.12,22044.58 "/>
   </g>
  </g>
  <g>
   <polygon class="fil0" points="20675.23,15346.47 21170.24,15346.47 21170.24,19713.01 20675.23,19713.01 "/>
   <path id="_1_4" class="fil1" d="M21170.24 15422.04l-495.01 0 0 -151.14 495.01 0 92.81 75.57 -92.81 75.57zm0 -151.14c51.25,0 92.81,33.84 92.81,75.57 0,41.73 -41.56,75.57 -92.81,75.57l0 -151.14zm-92.81 4442.11l0 -4366.54 185.62 0 0 4366.54 -92.81 75.57 -92.81 -75.57zm185.62 0c0,41.73 -41.56,75.57 -92.81,75.57 -51.25,0 -92.81,-33.84 -92.81,-75.57l185.62 0zm-587.82 -75.57l495.01 0 0 151.14 -495.01 0 -92.81 -75.57 92.81 -75.57zm0 151.14c-51.25,0 -92.81,-33.84 -92.81,-75.57 0,-41.73 41.56,-75.57 92.81,-75.57l0 151.14zm92.81 -4442.11l0 4366.54 -185.62 0 0 -4366.54 92.81 -75.57 92.81 75.57zm-185.62 0c0,-41.73 41.56,-75.57 92.81,-75.57 51.25,0 92.81,33.84 92.81,75.57l-185.62 0z"/>
  </g>
  <g>
   <polygon class="fil0" points="34088.5,31266.38 34088.5,5683.92 33119.09,5683.92 33119.09,31266.38 "/>
   <path id="_1_5" class="fil1" d="M34181.31 5683.92l0 25582.46 -185.62 0 0 -25582.46 92.81 -152.48 92.81 152.48zm-185.62 0c0,-84.21 41.56,-152.48 92.81,-152.48 51.25,0 92.81,68.27 92.81,152.48l-185.62 0zm-876.6 -152.48l969.41 0 0 304.96 -969.41 0 -92.81 -152.48 92.81 -152.48zm0 304.96c-51.25,0 -92.81,-68.27 -92.81,-152.48 0,-84.21 41.56,-152.48 92.81,-152.48l0 304.96zm-92.81 25429.98l0 -25582.46 185.62 0 0 25582.46 -92.81 152.48 -92.81 -152.48zm185.62 0c0,84.21 -41.56,152.48 -92.81,152.48 -51.25,0 -92.81,-68.27 -92.81,-152.48l185.62 0zm876.6 152.48l-969.41 0 0 -304.96 969.41 0 92.81 152.48 -92.81 152.48zm0 -304.96c51.25,0 92.81,68.27 92.81,152.48 0,84.21 -41.56,152.48 -92.81,152.48l0 -304.96z"/>
  </g>
  <g>
   <polygon class="fil0" points="21025.89,6153.78 34134.53,6153.78 34134.53,5379.49 21025.89,5379.49 "/>
   <path id="_1_6" class="fil1" d="M34134.53 6227.92l-13108.64 0 0 -148.28 13108.64 0 44.76 74.14 -44.76 74.14zm0 -148.28c24.72,0 44.76,33.2 44.76,74.14 0,40.94 -20.04,74.14 -44.76,74.14l0 -148.28zm44.76 -700.15l0 774.29 -89.52 0 0 -774.29 44.76 -74.14 44.76 74.14zm-89.52 0c0,-40.94 20.04,-74.14 44.76,-74.14 24.72,0 44.76,33.2 44.76,74.14l-89.52 0zm-13063.88 -74.14l13108.64 0 0 148.28 -13108.64 0 -44.76 -74.14 44.76 -74.14zm0 148.28c-24.72,0 -44.76,-33.2 -44.76,-74.14 0,-40.94 20.04,-74.14 44.76,-74.14l0 148.28zm-44.76 700.15l0 -774.29 89.52 0 0 774.29 -44.76 74.14 -44.76 -74.14zm89.52 0c0,40.94 -20.04,74.14 -44.76,74.14 -24.72,0 -44.76,-33.2 -44.76,-74.14l89.52 0z"/>
  </g>
  <rect class="fil3 str1" x="7304.99" y="30504.19" width="5648.88" height="1674.41" rx="39.7" ry="35.69"/>
  <rect class="fil3 str1" x="30874.69" y="30516.94" width="3301.87" height="1619.92" rx="23.21" ry="34.53"/>
  <g id="_2070558104800">
   <rect class="fil3 str1" x="7098.8" y="31988.68" width="441.7" height="3941.16"/>
   <rect class="fil3 str1" x="21247.56" y="31966.4" width="441.7" height="3981.86"/>
   <rect class="fil3 str1" transform="matrix(2.44651E-13 -1.35424 -5.46602 -2.63463E-13 21689.3 36179.7)" width="253.39" height="2669.48"/>
  </g>
  <g>
   <polygon class="fil0" points="8564.32,31629.66 11724.49,31629.66 11724.49,32107.44 8564.32,32107.44 "/>
   <path id="_1_7" class="fil1" d="M11724.49 31703.8l-3160.17 0 0 -148.28 3160.17 0 85.67 74.14 -85.67 74.14zm0 -148.28c47.31,0 85.67,33.2 85.67,74.14 0,40.94 -38.36,74.14 -85.67,74.14l0 -148.28zm-85.67 551.92l0 -477.78 171.34 0 0 477.78 -85.67 74.14 -85.67 -74.14zm171.34 0c0,40.94 -38.36,74.14 -85.67,74.14 -47.31,0 -85.67,-33.2 -85.67,-74.14l171.34 0zm-3245.84 -74.14l3160.17 0 0 148.28 -3160.17 0 -85.67 -74.14 85.67 -74.14zm0 148.28c-47.31,0 -85.67,-33.2 -85.67,-74.14 0,-40.94 38.36,-74.14 85.67,-74.14l0 148.28zm85.67 -551.92l0 477.78 -171.34 0 0 -477.78 85.67 -74.14 85.67 74.14zm-171.34 0c0,-40.94 38.36,-74.14 85.67,-74.14 47.31,0 85.67,33.2 85.67,74.14l-171.34 0z"/>
  </g>
  <rect class="fil3 str1" x="19434.82" y="30504.19" width="5294.87" height="1674.41" rx="37.21" ry="35.69"/>
  <rect class="fil4 str2" x="20221.5" y="19402.12" width="365.4" height="4155.19" rx="11.59" ry="10.92"/>
  <rect class="fil4 str2" x="16232.8" y="31235.81" width="242.31" height="451.61" rx="11.59" ry="9.26"/>
  <rect class="fil4 str2" x="12953.86" y="31293.58" width="242.31" height="451.61" rx="11.59" ry="9.26"/>
  <g id="_2070558098080">
   <line class="fil4 str3" x1="9508.57" y1="13029.74" x2="9189.94" y2= "13062.29" />
   <line class="fil4 str4" x1="9495.82" y1="14037.84" x2="9177.28" y2= "14005.21" />
   <path class="fil4 str4" d="M8055.27 12558.01c252.46,0 504.95,-0.04 757.4,-0.04 188.29,-0.49 324.48,89.31 380.49,309.58 -2.96,391.91 -5.93,783.87 -8.9,1175.8 17.39,306.68 -126.91,434.21 -371.59,453.17l-769.4 0"/>
   <path class="fil4 str4" d="M10145.2 14263.3c-251.49,37.89 -469.58,-14.36 -637.08,-203.64 -31.7,-76.52 -56.54,-151.63 -74.75,-225.34 -70.84,-286.78 -41.38,-552.83 74.78,-800.93 148.91,-166.81 343.21,-244.66 588.01,-223.65 365.53,32.79 720.36,154.08 1057.76,419.17 204.66,185.24 221.44,394.84 0,635.27 -293.8,217.65 -631.86,347.05 -1008.72,399.12z"/>
  </g>
  <g id="_2070558091168">
   <rect class="fil4 str4" transform="matrix(0.000204865 -1.17642 1.1034 0.000218425 8187.09 9249.44)" width="2611.41" height="5846.68"/>
   <path class="fil4 str4" d="M13456.33 8899.6c-1416.94,64.43 -2817.22,22.23 -4225.82,33.31 -492.99,7.48 -744.64,-11.95 -736.55,-568.32 0.08,-460.46 0.16,-920.88 0.24,-1381.33 -4.48,-390.99 105.21,-538.04 719,-508.05 1414.5,11.65 2829.05,-12.27 4243.55,34.94 1123.38,144.16 1237.15,2174.81 -0.42,2389.45z"/>
   <circle class="fil4 str4" transform="matrix(0.000204865 -1.17642 1.1034 0.000218425 8927.61 7688.24)" r="121.03"/>
  </g>
  <g id="_2070558088912">
   <path class="fil4 str5" d="M8214.31 12266.66c1084,-9.31 2095.04,291.53 2234.82,-914.78 35.64,-392.84 20.39,-767.77 -39.15,-1153.47 -241.19,-987.87 -1175.33,-677.71 -2211.6,-694.24"/>
   <path class="fil4 str4" d="M9012.73 12114.06c-143.03,2.73 -281.19,-94.08 -346.54,-201.69 0,-716.68 0,-1399.18 0,-2115.87 24.54,-101.2 101.67,-123.92 268.97,-158.21 1522.63,-51.81 1199.58,895.34 1226.12,1754.59 -67.59,622.04 -558.58,693.91 -1148.55,721.18z"/>
   <circle class="fil4 str4" transform="matrix(-4.06963E-14 -1.49703 1.64686 -4.24928E-14 8890.05 10858.3)" r="94.44"/>
   <path class="fil4 str4" d="M8942.96 11786.76c-114.23,1.94 -224.59,-67.18 -276.77,-144.02 0,-511.7 0,-999.01 0,-1510.73 19.59,-72.26 81.19,-88.48 214.81,-112.95 1200.65,-90.52 974.03,544.84 979.28,1252.77 -9.48,463.62 -466.65,514.93 -917.32,514.93z"/>
  </g>
  <g>
   <path class="fil1" d="M17010.2 5385.47l-331.3 0 0 -88.2 331.3 0 55.21 44.1 -55.21 44.1zm0 -88.2c30.49,0 55.21,19.75 55.21,44.1 0,24.35 -24.72,44.1 -55.21,44.1l0 -88.2zm-55.21 573.34l0 -529.24 110.42 0 0 529.24 -55.21 44.1 -55.21 -44.1zm110.42 0c0,24.35 -24.72,44.1 -55.21,44.1 -30.49,0 -55.21,-19.75 -55.21,-44.1l110.42 0zm-386.51 -44.1l331.3 0 0 88.2 -331.3 0 -55.21 -44.1 55.21 -44.1zm0 88.2c-30.49,0 -55.21,-19.75 -55.21,-44.1 0,-24.35 24.72,-44.1 55.21,-44.1l0 88.2zm55.21 -573.34l0 529.24 -110.42 0 0 -529.24 55.21 -44.1 55.21 44.1zm-110.42 0c0,-24.35 24.72,-44.1 55.21,-44.1 30.49,0 55.21,19.75 55.21,44.1l-110.42 0z"/>
  </g>
  <path class="fil4 str6" d="M15321.81 11949.68c1498.27,260.67 3305.49,-817.79 3700.09,-2252.87 -1150.91,0 -2567.77,-17.38 -3718.72,-17.38"/>
  <path class="fil4 str6" d="M20696.94 5553.17c-204.84,-1549.97 -2062.03,-3464.25 -3627.66,-3831.6 0,1158 -23.71,2583.61 -23.71,3741.65"/>
  <g id="_2070558084832">
   <rect class="fil4 str7" transform="matrix(1.01508E-13 0.887826 -1.27757 7.0541E-14 14509.4 36179.7)" width="2496.64" height="5813.27"/>
   <line class="fil4 str7" x1="14519.12" y1="36176.15" x2="7092.25" y2= "38392.74" />
   <line class="fil4 str7" x1="14509.4" y1="38396.31" x2="7140.37" y2= "36234.14" />
  </g>
  <path class="fil4 str6" d="M13196.16 31414.49c45.71,-1582.34 1159.28,-2712.71 2999.7,-3165.22 0,998.17 25.1,2226.96 25.1,3225.13"/>
  <g id="_2070367959552">
   <path class="fil4 str8" d="M8324.25 25995.44l0 -2279.89c-0.01,-84.94 73.75,-153.81 164.71,-153.81l2473.94 0.01c90.95,-0.01 164.71,68.86 164.71,153.79l0.01 2279.9c-0.01,84.91 -73.77,153.79 -164.73,153.79l-2473.92 0c-90.97,0 -164.73,-68.88 -164.73,-153.8z"/>
   <rect class="fil4 str8" transform="matrix(-2.53792E-14 -0.894689 0.958265 -2.36954E-14 8804.84 25909.9)" width="2373.81" height="2106.33"/>
   <circle class="fil4 str9" transform="matrix(-2.53792E-14 -0.894689 0.958265 -2.36954E-14 9221.32 24354.5)" r="183.89"/>
  </g>
  <rect class="fil3 str1" x="8173.6" y="14774.95" width="13070.07" height="540.18"/>
  <g>
   <polygon class="fil0" points="15602.63,12285.95 15107.62,12285.95 15107.62,14972.98 15602.63,14972.98 "/>
   <path id="_1_8" class="fil1" d="M15107.62 12223.3l495.01 0 0 125.3 -495.01 0 -92.81 -62.65 92.81 -62.65zm0 125.3c-51.25,0 -92.81,-28.05 -92.81,-62.65 0,-34.6 41.56,-62.65 92.81,-62.65l0 125.3zm-92.81 2624.38l0 -2687.03 185.62 0 0 2687.03 -92.81 62.65 -92.81 -62.65zm185.62 0c0,34.6 -41.56,62.65 -92.81,62.65 -51.25,0 -92.81,-28.05 -92.81,-62.65l185.62 0zm402.2 62.65l-495.01 0 0 -125.3 495.01 0 92.81 62.65 -92.81 62.65zm0 -125.3c51.25,0 92.81,28.05 92.81,62.65 0,34.6 -41.56,62.65 -92.81,62.65l0 -125.3zm92.81 -2624.38l0 2687.03 -185.62 0 0 -2687.03 92.81 -62.65 92.81 62.65zm-185.62 0c0,-34.6 41.56,-62.65 92.81,-62.65 51.25,0 92.81,28.05 92.81,62.65l-185.62 0z"/>
  </g>
  <g>
   <path class="fil1" d="M15214.61 11994.21l0 197.69 -82.48 0 0 -197.69 41.24 -32.94 41.24 32.94zm-82.48 0c0,-18.19 18.47,-32.94 41.24,-32.94 22.77,0 41.24,14.75 41.24,32.94l-82.48 0zm536.25 32.94l-495.01 0 0 -65.88 495.01 0 41.24 32.94 -41.24 32.94zm0 -65.88c22.77,0 41.24,14.75 41.24,32.94 0,18.19 -18.47,32.94 -41.24,32.94l0 -65.88zm-41.24 230.63l0 -197.69 82.48 0 0 197.69 -41.24 32.94 -41.24 -32.94zm82.48 0c0,18.19 -18.47,32.94 -41.24,32.94 -22.77,0 -41.24,-14.75 -41.24,-32.94l82.48 0zm-536.25 -32.94l495.01 0 0 65.88 -495.01 0 -41.24 -32.94 41.24 -32.94zm0 65.88c-22.77,0 -41.24,-14.75 -41.24,-32.94 0,-18.19 18.47,-32.94 41.24,-32.94l0 65.88z"/>
  </g>
  <g>
   <polygon class="fil0" points="30729.86,31641.63 34065.49,31641.63 34065.49,32119.41 30729.86,32119.41 "/>
   <path id="_1_9" class="fil1" d="M34065.49 31715.77l-3335.63 0 0 -148.28 3335.63 0 90.42 74.14 -90.42 74.14zm0 -148.28c49.93,0 90.42,33.2 90.42,74.14 0,40.94 -40.49,74.14 -90.42,74.14l0 -148.28zm-90.42 551.92l0 -477.78 180.84 0 0 477.78 -90.42 74.14 -90.42 -74.14zm180.84 0c0,40.94 -40.49,74.14 -90.42,74.14 -49.93,0 -90.42,-33.2 -90.42,-74.14l180.84 0zm-3426.05 -74.14l3335.63 0 0 148.28 -3335.63 0 -90.42 -74.14 90.42 -74.14zm0 148.28c-49.93,0 -90.42,-33.2 -90.42,-74.14 0,-40.94 40.49,-74.14 90.42,-74.14l0 148.28zm90.42 -551.92l0 477.78 -180.84 0 0 -477.78 90.42 -74.14 90.42 74.14zm-180.84 0c0,-40.94 40.49,-74.14 90.42,-74.14 49.93,0 90.42,33.2 90.42,74.14l-180.84 0z"/>
  </g>
  <g>
   <polygon class="fil0" points="20603.53,31649.27 24866.68,31649.27 24866.68,32127.05 20603.53,32127.05 "/>
   <path id="_1_10" class="fil1" d="M24866.68 31723.41l-4263.15 0 0 -148.28 4263.15 0 115.57 74.14 -115.57 74.14zm0 -148.28c63.82,0 115.57,33.2 115.57,74.14 0,40.94 -51.75,74.14 -115.57,74.14l0 -148.28zm-115.57 551.92l0 -477.78 231.14 0 0 477.78 -115.57 74.14 -115.57 -74.14zm231.14 0c0,40.94 -51.75,74.14 -115.57,74.14 -63.82,0 -115.57,-33.2 -115.57,-74.14l231.14 0zm-4378.72 -74.14l4263.15 0 0 148.28 -4263.15 0 -115.57 -74.14 115.57 -74.14zm0 148.28c-63.82,0 -115.57,-33.2 -115.57,-74.14 0,-40.94 51.75,-74.14 115.57,-74.14l0 148.28zm115.57 -551.92l0 477.78 -231.14 0 0 -477.78 115.57 -74.14 115.57 74.14zm-231.14 0c0,-40.94 51.75,-74.14 115.57,-74.14 63.82,0 115.57,33.2 115.57,74.14l-231.14 0z"/>
  </g>
  <rect class="fil4 str10" x="25121.55" y="31310.86" width="5356.1" height="254.18" rx="30.18" ry="22.74"/>
  <g>
   <path class="fil1" d="M16522.69 30627.08c-28.11,0 -50.91,-25.82 -50.91,-57.66 0,-31.84 22.8,-57.66 50.91,-57.66l0 115.32zm6167.59 0l-6167.59 0 0 -115.32 6167.59 0 0 115.32zm0 -115.32c28.11,0 50.91,25.82 50.91,57.66 0,31.84 -22.8,57.66 -50.91,57.66l0 -115.32z"/>
  </g>
  <rect class="fil4 str10" x="16858.32" y="31310.86" width="2286.51" height="254.18" rx="12.88" ry="22.74"/>
  <g>
   <path class="fil1" d="M19110.59 31512.39l330.04 0 0 104.5 -330.04 0 -65.41 -52.25 65.41 -52.25zm0 104.5c-36.12,0 -65.41,-23.4 -65.41,-52.25 0,-28.85 29.29,-52.25 65.41,-52.25l0 104.5zm65.41 -315.84l0 263.59 -130.82 0 0 -263.59 65.41 -52.25 65.41 52.25zm-130.82 0c0,-28.85 29.29,-52.25 65.41,-52.25 36.12,0 65.41,23.4 65.41,52.25l-130.82 0zm395.45 52.25l-330.04 0 0 -104.5 330.04 0 65.41 52.25 -65.41 52.25zm0 -104.5c36.12,0 65.41,23.4 65.41,52.25 0,28.85 -29.29,52.25 -65.41,52.25l0 -104.5zm-65.41 315.84l0 -263.59 130.82 0 0 263.59 -65.41 52.25 -65.41 -52.25zm130.82 0c0,28.85 -29.29,52.25 -65.41,52.25 -36.12,0 -65.41,-23.4 -65.41,-52.25l130.82 0z"/>
  </g>
  <g>
   <path class="fil1" d="M16526.43 31512.39l330.04 0 0 104.5 -330.04 0 -65.41 -52.25 65.41 -52.25zm0 104.5c-36.12,0 -65.41,-23.4 -65.41,-52.25 0,-28.85 29.29,-52.25 65.41,-52.25l0 104.5zm65.41 -315.84l0 263.59 -130.82 0 0 -263.59 65.41 -52.25 65.41 52.25zm-130.82 0c0,-28.85 29.29,-52.25 65.41,-52.25 36.12,0 65.41,23.4 65.41,52.25l-130.82 0zm395.45 52.25l-330.04 0 0 -104.5 330.04 0 65.41 52.25 -65.41 52.25zm0 -104.5c36.12,0 65.41,23.4 65.41,52.25 0,28.85 -29.29,52.25 -65.41,52.25l0 -104.5zm-65.41 315.84l0 -263.59 130.82 0 0 263.59 -65.41 52.25 -65.41 -52.25zm130.82 0c0,28.85 -29.29,52.25 -65.41,52.25 -36.12,0 -65.41,-23.4 -65.41,-52.25l130.82 0z"/>
  </g>
  <g>
   <path class="fil1" d="M16622.42 32165.1c-40.55,0 -73.44,-25.82 -73.44,-57.66 0,-31.84 32.89,-57.66 73.44,-57.66l0 115.32zm8393.63 0l-8393.63 0 0 -115.32 8393.63 0 0 115.32zm0 -115.32c40.55,0 73.44,25.82 73.44,57.66 0,31.84 -32.89,57.66 -73.44,57.66l0 -115.32z"/>
  </g>
  <g>
   <path class="fil1" d="M16446.72 30526.7c0,-4.08 26.5,-7.4 59.18,-7.4 32.68,0 59.18,3.32 59.18,7.4l-118.36 0zm0 896.35l0 -896.35 118.36 0 0 896.35 -118.36 0zm118.36 0c0,4.08 -26.5,7.4 -59.18,7.4 -32.68,0 -59.18,-3.32 -59.18,-7.4l118.36 0z"/>
  </g>
  <g>
   <path class="fil1" d="M16516.73 31558.25c0,-2.76 26.5,-5.01 59.18,-5.01 32.68,0 59.18,2.25 59.18,5.01l-118.36 0zm0 606.41l0 -606.41 118.36 0 0 606.41 -118.36 0zm118.36 0c0,2.76 -26.5,5.01 -59.18,5.01 -32.68,0 -59.18,-2.25 -59.18,-5.01l118.36 0z"/>
  </g>
  <g transform="matrix(1.02644 0 0 1 -8942.51 -7917.44)">
   <text x="20000" y="20000"  class="fil5 fnt0">3.70</text>
  </g>
  <g transform="matrix(1.02644 0 0 1 4844.6 -466.814)">
   <text x="20000" y="20000"  class="fil5 fnt0">18.70</text>
  </g>
  <g transform="matrix(1.02644 0 0 1 -6189.92 2659.97)">
   <text x="20000" y="20000"  class="fil5 fnt0">8.70</text>
  </g>
  <g transform="matrix(1.02644 0 0 1 -9794.02 14675.3)">
   <text x="20000" y="20000"  class="fil5 fnt0">3.60 (1.80)</text>
  </g>
  <g>
   <path class="fil1" d="M21025.88 5385.47l-331.29 0 0 -88.2 331.29 0 55.21 44.1 -55.21 44.1zm0 -88.2c30.49,0 55.21,19.75 55.21,44.1 0,24.35 -24.72,44.1 -55.21,44.1l0 -88.2zm-55.21 573.34l0 -529.24 110.42 0 0 529.24 -55.21 44.1 -55.21 -44.1zm110.42 0c0,24.35 -24.72,44.1 -55.21,44.1 -30.49,0 -55.21,-19.75 -55.21,-44.1l110.42 0zm-386.5 -44.1l331.29 0 0 88.2 -331.29 0 -55.21 -44.1 55.21 -44.1zm0 88.2c-30.49,0 -55.21,-19.75 -55.21,-44.1 0,-24.35 24.72,-44.1 55.21,-44.1l0 88.2zm55.21 -573.34l0 529.24 -110.42 0 0 -529.24 55.21 -44.1 55.21 44.1zm-110.42 0c0,-24.35 24.72,-44.1 55.21,-44.1 30.49,0 55.21,19.75 55.21,44.1l-110.42 0z"/>
  </g>
 </g>
</svg>
