<?xml version="1.0" encoding="UTF-8"?>
<!DOCTYPE svg PUBLIC "-//W3C//DTD SVG 1.1//EN" "http://www.w3.org/Graphics/SVG/1.1/DTD/svg11.dtd">
<!-- Creator: CorelDRAW -->
<svg xmlns="http://www.w3.org/2000/svg" xml:space="preserve" width="400mm" height="400mm" version="1.1" style="shape-rendering:geometricPrecision; text-rendering:geometricPrecision; image-rendering:optimizeQuality; fill-rule:evenodd; clip-rule:evenodd"
viewBox="0 0 40000 40000"
 xmlns:xlink="http://www.w3.org/1999/xlink"
 xmlns:xodm="http://www.corel.com/coreldraw/odm/2003">
 <defs>
  <style type="text/css">
   <![CDATA[
    .str15 {stroke:black;stroke-width:100;stroke-miterlimit:22.9256}
    .str8 {stroke:black;stroke-width:200;stroke-miterlimit:22.9256}
    .str12 {stroke:#1F1B20;stroke-width:16.9;stroke-miterlimit:22.9256}
    .str13 {stroke:#1F1B20;stroke-width:40;stroke-miterlimit:22.9256}
    .str14 {stroke:#3A3A3A;stroke-width:40;stroke-miterlimit:22.9256}
    .str11 {stroke:black;stroke-width:40;stroke-miterlimit:22.9256}
    .str9 {stroke:black;stroke-width:20;stroke-miterlimit:22.9256}
    .str16 {stroke:#2B2A29;stroke-width:25.4;stroke-miterlimit:22.9256}
    .str10 {stroke:black;stroke-width:40;stroke-linecap:round;stroke-linejoin:round;stroke-miterlimit:22.9256}
    .str6 {stroke:black;stroke-width:84.79;stroke-linecap:round;stroke-linejoin:round;stroke-miterlimit:10}
    .str7 {stroke:black;stroke-width:84.79;stroke-linecap:round;stroke-linejoin:round;stroke-miterlimit:10}
    .str1 {stroke:black;stroke-width:199.99;stroke-linecap:round;stroke-linejoin:round;stroke-miterlimit:10}
    .str5 {stroke:black;stroke-width:24.06;stroke-linecap:round;stroke-linejoin:round;stroke-miterlimit:10}
    .str3 {stroke:black;stroke-width:24.06;stroke-linecap:round;stroke-linejoin:round;stroke-miterlimit:10}
    .str2 {stroke:black;stroke-width:190.83;stroke-linecap:round;stroke-linejoin:round;stroke-miterlimit:10}
    .str4 {stroke:black;stroke-width:96.28;stroke-linecap:round;stroke-linejoin:round;stroke-miterlimit:10}
    .str0 {stroke:black;stroke-width:148.4;stroke-linecap:round;stroke-linejoin:round;stroke-miterlimit:10}
    .fil5 {fill:none}
    .fil2 {fill:none;fill-rule:nonzero}
    .fil3 {fill:black}
    .fil4 {fill:black}
    .fil1 {fill:black;fill-rule:nonzero}
    .fil0 {fill:black;fill-rule:nonzero}
    .fnt0 {font-weight:normal;font-size:1413.74px;font-family:'Arial'}
   ]]>
  </style>
 </defs>
 <g id="Слой_x0020_1">
  <metadata id="CorelCorpID_0Corel-Layer"/>
  <g>
   <polygon class="fil0" points="31170.51,10734.16 29792.31,10734.16 29792.31,11729.68 31170.51,11729.68 "/>
   <path id="_1" class="fil1" d="M29792.31 10857.71l-100 -123.55 100 -123.55 1378.2 0 0 247.1 -1378.2 0zm0 -247.1l0 247.1c-55.22,0 -100,-55.32 -100,-123.55 0,-68.23 44.78,-123.55 100,-123.55zm100 1119.07l-100 123.55 -100 -123.55 0 -995.52 200 0 0 995.52zm-200 0l200 0c0,68.23 -44.78,123.55 -100,123.55 -55.22,0 -100,-55.32 -100,-123.55zm1478.2 -123.55l100 123.55 -100 123.55 -1378.2 0 0 -247.1 1378.2 0zm0 247.1l0 -247.1c55.22,0 100,55.32 100,123.55 0,68.23 -44.78,123.55 -100,123.55zm-100 -1119.07l100 -123.55 100 123.55 0 995.52 -200 0 0 -995.52zm200 0l-200 0c0,-68.23 44.78,-123.55 100,-123.55 55.22,0 100,55.32 100,123.55z"/>
  </g>
  <line class="fil2 str0" x1="29966.67" y1="11775.05" x2="22694.12" y2= "11775.05" />
  <polygon class="fil2 str0" points="23075.77,10354.43 29585.02,10354.43 29585.02,10651.29 23075.77,10651.29 "/>
  <polygon class="fil2 str0" points="29585.02,10354.43 29860.64,10354.43 29860.64,10651.29 29585.02,10651.29 "/>
  <polygon class="fil2 str0" points="23075.77,10354.43 22778.92,10354.43 22778.92,10651.29 23075.77,10651.29 "/>
  <g>
   <path class="fil1" d="M30045.16 9962.19l0 -148.4c42.58,0 77.1,33.23 77.1,74.2 0,40.97 -34.52,74.2 -77.1,74.2zm-7160.21 0l0 -148.4 7160.21 0 0 148.4 -7160.21 0zm0 -148.4l0 148.4c-42.58,0 -77.1,-33.23 -77.1,-74.2 0,-40.97 34.52,-74.2 77.1,-74.2z"/>
  </g>
  <polygon class="fil0 str1" points="22694.12,10969.33 20616.23,10969.33 20616.23,11775.05 22694.12,11775.05 "/>
  <polygon class="fil0 str2" points="32553.43,34037.99 18601.95,34037.99 18601.95,34843.67 32553.43,34843.67 "/>
  <polygon class="fil0 str2" points="32553.43,25132.82 32553.43,34843.67 33380.33,34843.67 33380.33,25132.82 "/>
  <polygon class="fil0 str2" points="32553.43,17860.22 32553.43,23118.54 33380.33,23118.54 33380.33,17860.22 "/>
  <g id="_2286456472384">
   <line class="fil2 str3" x1="9409.36" y1="16312.33" x2="9409.36" y2= "18623.53" />
   <polygon class="fil2 str4" points="6664.81,18623.53 6664.81,16312.33 9409.36,16312.33 9409.36,18623.53 "/>
   <polygon class="fil2 str4" points="9288.96,18479.08 9288.96,16456.78 7266.66,16456.78 7266.66,18479.08 "/>
   <line class="fil2 str3" x1="9288.96" y1="18479.08" x2="8976.01" y2= "18166.12" />
   <line class="fil2 str3" x1="8590.77" y1="17780.94" x2="7964.86" y2= "17154.97" />
   <line class="fil2 str3" x1="7579.62" y1="16769.79" x2="7266.66" y2= "16456.78" />
   <line class="fil2 str3" x1="7266.66" y1="18479.08" x2="7579.62" y2= "18166.12" />
   <line class="fil2 str3" x1="7964.86" y1="17780.94" x2="8590.77" y2= "17154.97" />
   <line class="fil2 str3" x1="8976.01" y1="16769.79" x2="9288.96" y2= "16456.78" />
   <line class="fil2 str3" x1="7266.66" y1="17467.93" x2="9288.96" y2= "17467.93" />
   <line class="fil2 str3" x1="8277.81" y1="18479.08" x2="8277.81" y2= "16456.78" />
   <line class="fil2 str3" x1="7266.66" y1="17467.93" x2="7579.62" y2= "17154.97" />
   <line class="fil2 str3" x1="7964.86" y1="16769.79" x2="8277.81" y2= "16456.78" />
   <line class="fil2 str3" x1="8277.81" y1="18479.08" x2="8590.77" y2= "18166.12" />
   <polyline class="fil2 str3" points="8976.01,17780.94 9288.96,17467.93 8976.01,17154.97 "/>
   <line class="fil2 str3" x1="8590.77" y1="16769.79" x2="8277.81" y2= "16456.78" />
   <line class="fil2 str3" x1="8277.81" y1="18479.08" x2="7964.86" y2= "18166.12" />
   <line class="fil2 str3" x1="7579.62" y1="17780.94" x2="7266.66" y2= "17467.93" />
   <path class="fil2 str5" d="M7700.01 17961.5c0,-46.52 37.71,-84.28 84.28,-84.28 46.52,0 84.23,37.76 84.23,84.28 0,46.52 -37.71,84.28 -84.23,84.28 -46.57,0 -84.28,-37.76 -84.28,-84.28z"/>
   <path class="fil2 str5" d="M7700.01 16950.35c0,-46.52 37.71,-84.28 84.28,-84.28 46.52,0 84.23,37.76 84.23,84.28 0,46.52 -37.71,84.28 -84.23,84.28 -46.57,0 -84.28,-37.76 -84.28,-84.28z"/>
   <path class="fil2 str5" d="M8711.16 17961.5c0,-46.52 37.71,-84.28 84.28,-84.28 46.52,0 84.23,37.76 84.23,84.28 0,46.52 -37.71,84.28 -84.23,84.28 -46.57,0 -84.28,-37.76 -84.28,-84.28z"/>
   <path class="fil2 str5" d="M8711.16 16950.35c0,-46.52 37.71,-84.28 84.28,-84.28 46.52,0 84.23,37.76 84.23,84.28 0,46.52 -37.71,84.28 -84.23,84.28 -46.57,0 -84.28,-37.76 -84.28,-84.28z"/>
   <line class="fil2 str4" x1="7122.21" y1="18623.53" x2="7122.21" y2= "16312.33" />
   <line class="fil2 str3" x1="7074.04" y1="18503.19" x2="7074.04" y2= "16432.72" />
   <polyline class="fil2 str3" points="6688.86,16432.72 6688.86,18503.19 7074.04,18503.19 "/>
   <line class="fil2 str3" x1="6688.86" y1="18262.4" x2="7074.04" y2= "18262.4" />
   <line class="fil2 str3" x1="6688.86" y1="18382.79" x2="7074.04" y2= "18382.79" />
   <line class="fil2 str3" x1="6688.86" y1="18142.06" x2="7074.04" y2= "18142.06" />
   <line class="fil2 str3" x1="6688.86" y1="18045.73" x2="7074.04" y2= "18045.73" />
   <line class="fil2 str3" x1="6688.86" y1="17804.99" x2="7074.04" y2= "17804.99" />
   <line class="fil2 str3" x1="6688.86" y1="17925.39" x2="7074.04" y2= "17925.39" />
   <line class="fil2 str3" x1="6688.86" y1="17684.6" x2="7074.04" y2= "17684.6" />
   <line class="fil2 str3" x1="6688.86" y1="17588.32" x2="7074.04" y2= "17588.32" />
   <line class="fil2 str3" x1="6688.86" y1="17347.59" x2="7074.04" y2= "17347.59" />
   <line class="fil2 str3" x1="6688.86" y1="17467.93" x2="7074.04" y2= "17467.93" />
   <line class="fil2 str3" x1="6688.86" y1="17227.2" x2="7074.04" y2= "17227.2" />
   <line class="fil2 str3" x1="6688.86" y1="17106.8" x2="7074.04" y2= "17106.8" />
   <line class="fil2 str3" x1="6688.86" y1="16890.13" x2="7074.04" y2= "16890.13" />
   <line class="fil2 str3" x1="6688.86" y1="17010.52" x2="7074.04" y2= "17010.52" />
   <line class="fil2 str3" x1="6688.86" y1="16769.79" x2="7074.04" y2= "16769.79" />
   <line class="fil2 str3" x1="6688.86" y1="16649.4" x2="7074.04" y2= "16649.4" />
   <line class="fil2 str3" x1="6688.86" y1="16432.72" x2="7074.04" y2= "16432.72" />
   <line class="fil2 str3" x1="6688.86" y1="16553.11" x2="7074.04" y2= "16553.11" />
   <line class="fil2 str3" x1="9457.47" y1="17925.39" x2="9505.64" y2= "17925.39" />
   <path class="fil2 str5" d="M9469.52 17877.22c19.97,0 36.12,16.15 36.12,36.11 0,19.96 -16.15,36.11 -36.12,36.11"/>
   <polyline class="fil2 str3" points="9409.36,17973.5 9457.47,17973.5 9457.47,17925.39 9457.47,17853.16 9409.36,17853.16 "/>
   <line class="fil2 str3" x1="9457.47" y1="17467.93" x2="9505.64" y2= "17467.93" />
   <path class="fil2 str5" d="M9469.52 17419.81c19.97,0 36.12,16.16 36.12,36.12 0,19.96 -16.15,36.11 -36.12,36.11"/>
   <polyline class="fil2 str3" points="9409.36,17516.1 9457.47,17516.1 9457.47,17467.93 9457.47,17395.7 9409.36,17395.7 "/>
   <line class="fil2 str3" x1="9457.47" y1="17010.52" x2="9505.64" y2= "17010.52" />
   <path class="fil2 str5" d="M9469.52 16962.35c19.97,0 36.12,16.21 36.12,36.11 0,19.97 -16.15,36.12 -36.12,36.12"/>
   <polyline class="fil2 str3" points="9409.36,17058.69 9457.47,17058.69 9457.47,17010.52 9457.47,16938.3 9409.36,16938.3 "/>
   <line class="fil2 str3" x1="9457.47" y1="17684.6" x2="9505.64" y2= "17684.6" />
   <path class="fil2 str5" d="M9469.52 17636.49c19.97,0 36.12,16.15 36.12,36.11 0,19.96 -16.15,36.11 -36.12,36.11"/>
   <polyline class="fil2 str3" points="9409.36,17756.83 9457.47,17756.83 9457.47,17684.6 9457.47,17636.49 9409.36,17636.49 "/>
   <line class="fil2 str3" x1="9457.47" y1="17227.2" x2="9505.64" y2= "17227.2" />
   <path class="fil2 str5" d="M9469.52 17179.03c19.97,0 36.12,16.2 36.12,36.11 0,19.96 -16.15,36.11 -36.12,36.11"/>
   <polyline class="fil2 str3" points="9409.36,17299.42 9457.47,17299.42 9457.47,17227.2 9457.47,17179.03 9409.36,17179.03 "/>
  </g>
  <g id="_2286456473872">
   <polygon class="fil0 str2" points="6664.81,25132.82 6664.81,24729.93 14637.04,24729.93 14637.04,25132.82 "/>
   <polygon class="fil0 str2" points="14149.36,27443.91 13746.53,27443.91 13746.53,25132.82 14149.36,25132.82 "/>
   <polygon class="fil0 str2" points="14149.36,34037.99 13746.53,34037.99 13746.53,30730.36 14149.36,30730.36 "/>
   <polygon class="fil0 str2" points="19598.5,23118.54 19195.66,23118.54 19195.66,11775.05 19598.5,11775.05 "/>
  </g>
  <polygon class="fil2 str6" points="13746.53,30518.3 13746.53,30730.36 14149.36,30730.36 14149.36,30518.3 "/>
  <polygon class="fil2 str6" points="13746.53,27443.91 13746.53,27655.92 14149.36,27655.92 14149.36,27443.91 "/>
  <polygon class="fil2 str6" points="18114.32,25132.82 18305.14,25132.82 18305.14,24729.93 18114.32,24729.93 "/>
  <polygon class="fil2 str7" points="14737.04,25132.82 14927.87,25132.82 14927.87,24729.93 14737.04,24729.93 "/>
  <polygon class="fil2 str6" points="18389.94,34843.67 18601.95,34843.67 18601.95,34440.83 18389.94,34440.83 "/>
  <polygon class="fil2 str6" points="14509.83,34843.67 14700.65,34843.67 14700.65,34440.83 14509.83,34440.83 "/>
  <g transform="matrix(0.986759 0 0 1 -8015.55 -893.444)">
   <text x="20000" y="20000"  class="fil3 fnt0">8.50</text>
  </g>
  <g id="_2286303784864">
   <polygon class="fil0" points="20043.76,34037.99 20043.76,31217.99 20446.59,31217.99 20446.59,30878.76 19725.71,30878.76 19725.71,34037.99 "/>
   <polygon class="fil0" points="23690.62,30878.76 23308.97,30878.76 23308.97,31217.99 23690.62,31217.99 "/>
  </g>
  <polygon class="fil2 str6" points="23118.15,31217.99 23308.97,31217.99 23308.97,30878.76 23118.15,30878.76 "/>
  <polygon class="fil2 str6" points="20446.59,31217.99 20637.42,31217.99 20637.42,30878.76 20446.59,30878.76 "/>
  <text x="15478.27" y="32768.64"  class="fil3 fnt0">3.90</text>
  <text x="20550.2" y="33069.33"  class="fil3 fnt0">0.60</text>
  <text x="9589.52" y="29667.9"  class="fil3 fnt0">3.70</text>
  <polyline class="fil2 str0" points="17372.2,11775.05 14191.78,11775.05 14191.78,9887.99 "/>
  <polygon class="fil2 str0" points="14467.4,10354.43 17096.58,10354.43 17096.58,10651.29 14467.4,10651.29 "/>
  <polygon class="fil2 str0" points="17096.58,10354.43 17372.2,10354.43 17372.2,10651.29 17096.58,10651.29 "/>
  <line class="fil2 str0" x1="17181.38" y1="9887.99" x2="14191.78" y2= "9887.99" />
  <polygon class="fil2 str0" points="14467.4,10354.43 14191.78,10354.43 14191.78,10651.29 14467.4,10651.29 "/>
  <polygon class="fil0 str2" points="22694.12,10969.33 17372.2,10969.33 17372.2,10354.43 22694.12,10354.43 "/>
  <polygon class="fil0 str2" points="22884.95,10354.43 17181.38,10354.43 17181.38,9887.99 22884.95,9887.99 "/>
  <g>
   <polygon class="fil0" points="11308.22,9859.33 6664.81,9859.33 6664.81,10511.43 11308.22,10511.43 "/>
   <path id="_1_0" class="fil1" d="M6664.81 9940.26l-100 -80.93 100 -80.93 4643.41 0 0 161.86 -4643.41 0zm0 -161.86l0 161.86c-55.22,0 -100,-36.24 -100,-80.93 0,-44.69 44.78,-80.93 100,-80.93zm100 733.03l-100 80.93 -100 -80.93 0 -652.1 200 0 0 652.1zm-200 0l200 0c0,44.69 -44.78,80.93 -100,80.93 -55.22,0 -100,-36.24 -100,-80.93zm4743.41 -80.93l100 80.93 -100 80.93 -4643.41 0 0 -161.86 4643.41 0zm0 161.86l0 -161.86c55.22,0 100,36.24 100,80.93 0,44.69 -44.78,80.93 -100,80.93zm-100 -733.03l100 -80.93 100 80.93 0 652.1 -200 0 0 -652.1zm200 0l-200 0c0,-44.69 44.78,-80.93 100,-80.93 55.22,0 100,36.24 100,80.93z"/>
  </g>
  <text x="26575.95" y="16402.08"  class="fil3 fnt0">14.00</text>
  <polygon class="fil0 str2" points="5837.9,25132.82 5837.9,34037.99 6664.81,34037.99 6664.81,25132.82 "/>
  <text x="9661.55" y="7746.53"  class="fil3 fnt0">3.40 (1.70)</text>
  <polygon class="fil0 str2" points="5837.9,13004.8 5837.9,23118.54 6664.81,23118.54 6664.81,13004.8 "/>
  <g id="_2321494220416">
   <polygon class="fil0 str1" points="18601.95,10969.33 18601.95,11775.05 20616.23,11775.05 20616.23,10969.33 "/>
   <path class="fil0 str8" d="M20510.2 10969.33l0 -10.62c5.86,0 10.62,4.76 10.62,10.62 0,5.86 -4.76,10.62 -10.62,10.62 -5.86,0 -10.62,-4.76 -10.62,-10.62 0,-5.86 4.76,-10.62 10.62,-10.62l0 10.62z"/>
   <line class="fil2 str1" x1="20616.23" y1="11626.6" x2="20043.76" y2= "11054.13" />
   <path class="fil0 str8" d="M20107.37 11669.02l0 -10.61c5.86,0 10.61,4.75 10.61,10.61 0,5.86 -4.75,10.62 -10.61,10.62 -5.86,0 -10.62,-4.76 -10.62,-10.62 0,-5.86 4.76,-10.61 10.62,-10.61l0 10.61z"/>
   <line class="fil2 str1" x1="19980.15" y1="11520.62" x2="19428.86" y2= "10969.33" />
   <line class="fil2 str1" x1="19683.29" y1="11775.05" x2="19492.47" y2= "11584.23" />
   <path class="fil0 str8" d="M19365.25 11457.01l0 -10.62c5.86,0 10.62,4.76 10.62,10.62 0,5.86 -4.76,10.62 -10.62,10.62 -5.86,0 -10.62,-4.76 -10.62,-10.62 0,-5.86 4.76,-10.62 10.62,-10.62l0 10.62z"/>
   <line class="fil2 str1" x1="19216.85" y1="11308.56" x2="18877.62" y2= "10969.33" />
   <line class="fil2 str1" x1="19132.05" y1="11775.05" x2="18750.4" y2= "11393.4" />
   <path class="fil0 str8" d="M18601.95 11244.95l0 -10.62c5.86,0 10.62,4.76 10.62,10.62 0,5.86 -4.76,10.62 -10.62,10.62 -5.86,0 -10.62,-4.76 -10.62,-10.62 0,-5.86 4.76,-10.62 10.62,-10.62l0 10.62z"/>
  </g>
  <polygon class="fil0 str2" points="19195.66,25132.82 18305.14,25132.82 18305.14,24729.93 19195.66,24729.93 "/>
  <polygon class="fil0 str1" points="18601.95,10969.33 17372.2,10969.33 17372.2,11775.05 18601.95,11775.05 "/>
  <g id="_2286467997952">
   <polygon class="fil0 str1" points="5837.9,25132.82 6664.81,25132.82 6664.81,23118.54 5837.9,23118.54 "/>
   <line class="fil2 str1" x1="6664.81" y1="23436.58" x2="6558.78" y2= "23330.55" />
   <path class="fil0 str8" d="M6410.37 23182.14l0 -10.61c5.86,0 10.62,4.75 10.62,10.61 0,5.86 -4.76,10.62 -10.62,10.62 -5.86,0 -10.61,-4.76 -10.61,-10.62 0,-5.86 4.75,-10.61 10.61,-10.61l0 10.61z"/>
   <path class="fil0 str8" d="M6622.38 23945.44l0 -10.61c5.86,0 10.62,4.75 10.62,10.61 0,5.86 -4.76,10.62 -10.62,10.62 -5.86,0 -10.61,-4.76 -10.61,-10.62 0,-5.86 4.75,-10.61 10.61,-10.61l0 10.61z"/>
   <line class="fil2 str1" x1="6473.98" y1="23797.04" x2="5837.9" y2= "23160.96" />
   <line class="fil2 str1" x1="6664.81" y1="24517.92" x2="6007.49" y2= "23860.65" />
   <path class="fil0 str8" d="M5880.27 23733.43l0 -10.61c5.86,0 10.62,4.75 10.62,10.61 0,5.86 -4.76,10.62 -10.62,10.62 -5.86,0 -10.62,-4.76 -10.62,-10.62 0,-5.86 4.76,-10.61 10.62,-10.61l0 10.61z"/>
   <line class="fil2 str1" x1="6664.81" y1="25069.21" x2="6219.55" y2= "24623.95" />
   <path class="fil0 str8" d="M6071.09 24475.5l0 -10.62c5.86,0 10.62,4.76 10.62,10.62 0,5.86 -4.76,10.62 -10.62,10.62 -5.86,0 -10.61,-4.76 -10.61,-10.62 0,-5.86 4.75,-10.62 10.61,-10.62l0 10.62z"/>
   <line class="fil2 str1" x1="5943.88" y1="24348.28" x2="5837.9" y2= "24263.49" />
   <line class="fil2 str1" x1="6134.7" y1="25090.4" x2="5837.9" y2= "24793.54" />
   <polygon class="fil0 str1" points="19195.66,25132.82 20022.57,25132.82 20022.57,23118.54 19195.66,23118.54 "/>
   <line class="fil2 str1" x1="20022.57" y1="23436.58" x2="19916.54" y2= "23330.55" />
   <path class="fil0 str8" d="M19768.14 23182.14l0 -10.61c5.86,0 10.62,4.75 10.62,10.61 0,5.86 -4.76,10.62 -10.62,10.62 -5.86,0 -10.62,-4.76 -10.62,-10.62 0,-5.86 4.76,-10.61 10.62,-10.61l0 10.61z"/>
   <path class="fil0 str8" d="M19980.15 23945.44l0 -10.61c5.86,0 10.62,4.75 10.62,10.61 0,5.86 -4.76,10.62 -10.62,10.62 -5.86,0 -10.62,-4.76 -10.62,-10.62 0,-5.86 4.76,-10.61 10.62,-10.61l0 10.61z"/>
   <line class="fil2 str1" x1="19831.75" y1="23797.04" x2="19195.66" y2= "23160.96" />
   <line class="fil2 str1" x1="20022.57" y1="24517.92" x2="19365.25" y2= "23860.65" />
   <path class="fil0 str8" d="M19238.03 23733.43l0 -10.61c5.86,0 10.62,4.75 10.62,10.61 0,5.86 -4.76,10.62 -10.62,10.62 -5.86,0 -10.61,-4.76 -10.61,-10.62 0,-5.86 4.75,-10.61 10.61,-10.61l0 10.61z"/>
   <line class="fil2 str1" x1="20022.57" y1="25069.21" x2="19577.31" y2= "24623.95" />
   <path class="fil0 str8" d="M19428.86 24475.5l0 -10.62c5.86,0 10.62,4.76 10.62,10.62 0,5.86 -4.76,10.62 -10.62,10.62 -5.86,0 -10.62,-4.76 -10.62,-10.62 0,-5.86 4.76,-10.62 10.62,-10.62l0 10.62z"/>
   <line class="fil2 str1" x1="19301.64" y1="24348.28" x2="19195.66" y2= "24263.49" />
   <line class="fil2 str1" x1="19492.47" y1="25090.4" x2="19195.66" y2= "24793.54" />
   <polygon class="fil0 str1" points="32553.43,25132.82 33380.33,25132.82 33380.33,23118.54 32553.43,23118.54 "/>
   <line class="fil2 str1" x1="33380.33" y1="23436.58" x2="33274.3" y2= "23330.55" />
   <path class="fil0 str8" d="M33125.9 23182.14l0 -10.61c5.86,0 10.62,4.75 10.62,10.61 0,5.86 -4.76,10.62 -10.62,10.62 -5.86,0 -10.62,-4.76 -10.62,-10.62 0,-5.86 4.76,-10.61 10.62,-10.61l0 10.61z"/>
   <path class="fil0 str8" d="M33337.91 23945.44l0 -10.61c5.86,0 10.62,4.75 10.62,10.61 0,5.86 -4.76,10.62 -10.62,10.62 -5.86,0 -10.62,-4.76 -10.62,-10.62 0,-5.86 4.76,-10.61 10.62,-10.61l0 10.61z"/>
   <line class="fil2 str1" x1="33210.7" y1="23797.04" x2="32553.43" y2= "23160.96" />
   <line class="fil2 str1" x1="33380.33" y1="24517.92" x2="32723.01" y2= "23860.65" />
   <path class="fil0 str8" d="M32595.8 23733.43l0 -10.61c5.86,0 10.62,4.75 10.62,10.61 0,5.86 -4.76,10.62 -10.62,10.62 -5.86,0 -10.62,-4.76 -10.62,-10.62 0,-5.86 4.76,-10.61 10.62,-10.61l0 10.61z"/>
   <line class="fil2 str1" x1="33380.33" y1="25069.21" x2="32935.08" y2= "24623.95" />
   <path class="fil0 str8" d="M32786.62 24475.5l0 -10.62c5.86,0 10.62,4.76 10.62,10.62 0,5.86 -4.76,10.62 -10.62,10.62 -5.86,0 -10.61,-4.76 -10.61,-10.62 0,-5.86 4.75,-10.62 10.61,-10.62l0 10.62z"/>
   <line class="fil2 str1" x1="32659.41" y1="24348.28" x2="32553.43" y2= "24263.49" />
   <line class="fil2 str1" x1="32850.23" y1="25090.4" x2="32553.43" y2= "24793.54" />
   <polygon class="fil0 str1" points="32553.43,17860.22 33380.33,17860.22 33380.33,15824.76 32553.43,15824.76 "/>
   <line class="fil2 str1" x1="33380.33" y1="16142.8" x2="33274.3" y2= "16036.82" />
   <path class="fil0 str8" d="M33125.9 15909.6l0 -10.62c5.86,0 10.62,4.76 10.62,10.62 0,5.86 -4.76,10.62 -10.62,10.62 -5.86,0 -10.62,-4.76 -10.62,-10.62 0,-5.86 4.76,-10.62 10.62,-10.62l0 10.62z"/>
   <path class="fil0 str8" d="M33337.91 16651.66l0 -10.61c5.86,0 10.62,4.75 10.62,10.61 0,5.86 -4.76,10.62 -10.62,10.62 -5.86,0 -10.62,-4.76 -10.62,-10.62 0,-5.86 4.76,-10.61 10.62,-10.61l0 10.61z"/>
   <line class="fil2 str1" x1="33210.7" y1="16524.45" x2="32553.43" y2= "15867.18" />
   <line class="fil2 str1" x1="33380.33" y1="17224.14" x2="32723.01" y2= "16588.06" />
   <path class="fil0 str8" d="M32595.8 16439.65l0 -10.61c5.86,0 10.62,4.75 10.62,10.61 0,5.86 -4.76,10.62 -10.62,10.62 -5.86,0 -10.62,-4.76 -10.62,-10.62 0,-5.86 4.76,-10.61 10.62,-10.61l0 10.61z"/>
   <line class="fil2 str1" x1="33380.33" y1="17775.43" x2="32935.08" y2= "17330.17" />
   <path class="fil0 str8" d="M32786.62 17202.95l0 -10.61c5.86,0 10.62,4.75 10.62,10.61 0,5.86 -4.76,10.62 -10.62,10.62 -5.86,0 -10.61,-4.76 -10.61,-10.62 0,-5.86 4.75,-10.61 10.61,-10.61l0 10.61z"/>
   <line class="fil2 str1" x1="32659.41" y1="17054.55" x2="32553.43" y2= "16969.71" />
   <line class="fil2 str1" x1="32850.23" y1="17817.85" x2="32553.43" y2= "17521" />
   <polygon class="fil0 str1" points="5837.9,13004.8 6664.81,13004.8 6664.81,10969.33 5837.9,10969.33 "/>
   <line class="fil2 str1" x1="6664.81" y1="11287.37" x2="6558.78" y2= "11181.34" />
   <path class="fil0 str8" d="M6410.37 11054.13l0 -10.62c5.86,0 10.62,4.76 10.62,10.62 0,5.86 -4.76,10.61 -10.62,10.61 -5.86,0 -10.61,-4.75 -10.61,-10.61 0,-5.86 4.75,-10.62 10.61,-10.62l0 10.62z"/>
   <path class="fil0 str8" d="M6622.38 11796.24l0 -10.62c5.86,0 10.62,4.76 10.62,10.62 0,5.86 -4.76,10.62 -10.62,10.62 -5.86,0 -10.61,-4.76 -10.61,-10.62 0,-5.86 4.75,-10.62 10.61,-10.62l0 10.62z"/>
   <line class="fil2 str1" x1="6473.98" y1="11669.02" x2="5837.9" y2= "11011.75" />
   <line class="fil2 str1" x1="6664.81" y1="12368.72" x2="6007.49" y2= "11732.63" />
   <path class="fil0 str8" d="M5880.27 11584.23l0 -10.62c5.86,0 10.62,4.76 10.62,10.62 0,5.86 -4.76,10.62 -10.62,10.62 -5.86,0 -10.62,-4.76 -10.62,-10.62 0,-5.86 4.76,-10.62 10.62,-10.62l0 10.62z"/>
   <line class="fil2 str1" x1="6664.81" y1="12920.01" x2="6219.55" y2= "12474.75" />
   <path class="fil0 str8" d="M6071.09 12347.53l0 -10.62c5.86,0 10.62,4.76 10.62,10.62 0,5.86 -4.76,10.62 -10.62,10.62 -5.86,0 -10.61,-4.76 -10.61,-10.62 0,-5.86 4.75,-10.62 10.61,-10.62l0 10.62z"/>
   <line class="fil2 str1" x1="5943.88" y1="12199.08" x2="5837.9" y2= "12114.28" />
   <line class="fil2 str1" x1="6134.7" y1="12962.38" x2="5837.9" y2= "12665.57" />
  </g>
  <polygon class="fil0 str1" points="33380.33,15824.76 33380.33,11775.05 32553.43,11775.05 32553.43,15824.76 "/>
  <g id="_2286467996080">
   <polygon class="fil0 str2" points="24093.51,28186.02 24093.51,34037.99 23690.62,34037.99 23690.62,28376.85 23542.22,28270.82 23796.65,27952.77 "/>
   <polygon class="fil0 str2" points="20595.05,26086.94 19344.06,25132.82 20022.57,25132.82 20828.24,25747.67 "/>
  </g>
  <polygon class="fil2 str6" points="23393.82,28164.78 23542.22,28270.82 23796.65,27952.77 23627.01,27825.56 "/>
  <polygon class="fil2 str6" points="20595.05,26086.94 20764.64,26192.92 20997.88,25874.88 20828.24,25747.67 "/>
  <rect class="fil4 str9" x="29869.41" y="9795.48" width="3602.91" height="2049.58"/>
  <rect class="fil4 str9" x="5754.92" y="9795.48" width="5434.13" height="2049.58"/>
  <g id="_2286467987872">
   <path class="fil5 str10" d="M6697.46 19214.77l0 2338.39c-0.01,87.12 71.27,157.76 159.16,157.76l2390.53 -0.01c87.88,0.01 159.16,-70.63 159.16,-157.74l0.01 -2338.4c-0.01,-87.1 -71.29,-157.74 -159.18,-157.74l-2390.51 -0.01c-87.9,0.01 -159.18,70.65 -159.18,157.76z"/>
   <rect class="fil5 str10" transform="matrix(-7.35706E-14 0.917648 0.925957 7.29104E-14 7161.85 19302.5)" width="2373.81" height="2106.33"/>
   <circle class="fil5 str11" transform="matrix(-7.35706E-14 0.917648 0.925957 7.29104E-14 7564.28 20897.9)" r="183.89"/>
  </g>
  <g>
   <polygon class="fil0" points="14412.75,34037.99 5797.89,34037.99 5797.89,34843.67 14412.75,34843.67 "/>
   <path id="_1_1" class="fil1" d="M5797.89 34133.4l-58.92 -95.41 58.92 -95.41 8614.86 0 0 190.82 -8614.86 0zm0 -190.82l0 190.82c-32.54,0 -58.92,-42.72 -58.92,-95.41 0,-52.69 26.38,-95.41 58.92,-95.41zm58.92 901.09l-58.92 95.41 -58.92 -95.41 0 -805.68 117.84 0 0 805.68zm-117.84 0l117.84 0c0,52.69 -26.38,95.41 -58.92,95.41 -32.54,0 -58.92,-42.72 -58.92,-95.41zm8673.78 -95.41l58.92 95.41 -58.92 95.41 -8614.86 0 0 -190.82 8614.86 0zm0 190.82l0 -190.82c32.54,0 58.92,42.72 58.92,95.41 0,52.69 -26.38,95.41 -58.92,95.41zm-58.92 -901.09l58.92 -95.41 58.92 95.41 0 805.68 -117.84 0 0 -805.68zm117.84 0l-117.84 0c0,-52.69 26.38,-95.41 58.92,-95.41 32.54,0 58.92,42.72 58.92,95.41z"/>
  </g>
  <rect class="fil4 str9" x="5762.37" y="4150.35" width="479.13" height="5932.32"/>
  <rect class="fil4 str9" transform="matrix(9.024E-15 1.51577 -2.47395 -1.46082E-13 16521.2 4150.34)" width="444" height="4347.05"/>
  <rect class="fil4 str9" x="20476.22" y="5488.37" width="652.91" height="5887.83" rx="73.53" ry="67.72"/>
  <g id="_2286467979040">
   <rect class="fil5 str12" transform="matrix(-4.60241E-14 0.940283 1.20611 1.08222E-14 5774.27 1827.34)" width="2496.64" height="5813.27"/>
   <line class="fil5 str12" x1="5765.13" y1="1823.56" x2="12776.58" y2= "4171.1" />
   <line class="fil5 str12" x1="5774.3" y1="4174.89" x2="12731.16" y2= "1884.97" />
  </g>
  <g id="_2286467974192">
   <path class="fil5 str10" d="M6691.43 28451.67c796.1,7.52 1538.62,-235.54 1641.28,739.06 26.17,317.39 14.97,620.3 -28.76,931.91 -177.13,798.12 -863.18,547.53 -1624.22,560.89"/>
   <path class="fil5 str13" d="M7277.79 28574.96c-105.04,-2.21 -206.5,76.01 -254.5,162.95 0,579.02 0,1130.41 0,1709.44 18.02,81.76 74.67,100.12 197.54,127.82 1118.23,41.86 880.98,-723.36 900.48,-1417.56 -49.64,-502.56 -410.23,-560.63 -843.52,-582.65z"/>
   <circle class="fil5 str13" transform="matrix(3.20324E-14 1.20948 1.20948 -3.20324E-14 7187.7 29589.5)" r="94.44"/>
   <path class="fil5 str13" d="M7226.55 28839.38c-83.89,-1.56 -164.94,54.28 -203.26,116.36 0,413.42 0,807.12 0,1220.55 14.39,58.38 59.63,71.48 157.76,91.26 881.78,73.12 715.35,-440.19 719.2,-1012.14 -6.97,-374.57 -342.72,-416.03 -673.7,-416.03z"/>
  </g>
  <g id="_2286467975872">
   <rect class="fil5 str13" transform="matrix(0.000202871 1.06954 1.09265 -0.00019858 6745.3 31237.4)" width="2611.41" height="5846.68"/>
   <path class="fil5 str13" d="M11963.24 31555.49c-1403.14,-58.58 -2789.79,-20.21 -4184.69,-30.29 -488.19,-6.8 -737.38,10.87 -729.38,516.69 0.08,418.63 0.16,837.21 0.24,1255.83 -4.43,355.47 104.19,489.16 712.01,461.89 1400.73,-10.59 2801.5,11.15 4202.23,-31.77 1112.45,-131.06 1225.12,-1977.21 -0.41,-2172.35z"/>
   <circle class="fil5 str13" transform="matrix(0.000202871 1.06954 1.09265 -0.00019858 7478.6 32656.8)" r="121.03"/>
  </g>
  <g id="_2286467975968">
   <line class="fil5 str14" x1="8123.7" y1="27343.44" x2="7791.7" y2= "27306.59" />
   <line class="fil5 str13" x1="8110.42" y1="26202.3" x2="7778.51" y2= "26239.24" />
   <path class="fil5 str13" d="M6609.42 27877.41c263.04,0 526.13,0.05 789.18,0.05 196.19,0.56 338.1,-101.09 396.46,-350.43 -3.09,-443.63 -6.18,-887.31 -9.28,-1330.95 18.13,-347.15 -132.23,-491.51 -387.18,-512.98l-801.69 0"/>
   <path class="fil5 str13" d="M8787.05 25947.1c-262.04,-42.9 -489.28,16.26 -663.82,230.51 -33.03,86.62 -58.91,171.64 -77.88,255.08 -73.81,324.62 -43.12,625.78 77.92,906.62 155.15,188.82 357.61,276.93 612.69,253.15 380.87,-37.11 750.59,-174.4 1102.15,-474.47 213.25,-209.69 230.72,-446.95 0,-719.1 -306.14,-246.37 -658.38,-392.85 -1051.06,-451.79z"/>
  </g>
  <rect class="fil5 str15" x="13786.25" y="9856.53" width="326.9" height="633.73" rx="30" ry="30"/>
  <rect class="fil5 str15" x="11389.51" y="9856.53" width="326.9" height="633.73" rx="30" ry="30"/>
  <path class="fil5 str16" d="M13799.13 10173.41c-36.81,1204.37 -580.63,2145.81 -2062.5,2490.23 0,-759.74 -20.22,-1695.02 -20.22,-2454.77"/>
  <path class="fil5 str16" d="M14933.6 24993.93c55.26,-1807.56 918.43,-3197.47 3142.46,-3714.39 0,1140.24 30.34,2543.93 30.34,3684.18"/>
  <path class="fil5 str16" d="M13891.03 30517.23c1807.56,-49.04 3197.47,-815.12 3714.39,-2788.98 -1140.24,0 -2543.93,-26.93 -3684.18,-26.93"/>
  <path class="fil5 str16" d="M20764.63 26192.91c1186.91,-1364.15 3083.62,-1796.27 4935.93,-940.52 -724.85,880.19 -1596.38,1980.87 -2321.23,2861.07"/>
  <path class="fil5 str16" d="M20637.42 31152.24c39.33,-1286.62 858.64,-2265.32 2441.71,-2633.26 0,811.62 21.6,1810.77 21.6,2622.4"/>
  <rect class="fil4 str9" transform="matrix(0.960348 0.278804 -0.278804 0.960348 16507.1 4154.96)" width="4809.9" height="665.61" rx="20" ry="20"/>
  <path class="fil5 str16" d="M18389.93 34440.85c-60.8,1989.62 -1199.9,3564.67 -3647.96,4133.66 0,-1255.1 -33.4,-2800.18 -33.4,-4055.29"/>
 </g>
</svg>
