<?xml version="1.0" encoding="UTF-8"?>
<!DOCTYPE svg PUBLIC "-//W3C//DTD SVG 1.1//EN" "http://www.w3.org/Graphics/SVG/1.1/DTD/svg11.dtd">
<!-- Creator: CorelDRAW -->
<svg xmlns="http://www.w3.org/2000/svg" xml:space="preserve" width="400mm" height="400mm" version="1.1" style="shape-rendering:geometricPrecision; text-rendering:geometricPrecision; image-rendering:optimizeQuality; fill-rule:evenodd; clip-rule:evenodd"
viewBox="0 0 40000 40000"
 xmlns:xlink="http://www.w3.org/1999/xlink"
 xmlns:xodm="http://www.corel.com/coreldraw/odm/2003">
 <defs>
  <style type="text/css">
   <![CDATA[
    .str3 {stroke:black;stroke-width:50;stroke-miterlimit:22.9256}
    .str2 {stroke:#1F1B20;stroke-width:16.9;stroke-miterlimit:22.9256}
    .str7 {stroke:#1F1B20;stroke-width:40;stroke-miterlimit:22.9256}
    .str6 {stroke:#3A3A3A;stroke-width:40;stroke-miterlimit:22.9256}
    .str5 {stroke:#2B2A29;stroke-width:40;stroke-miterlimit:22.9256}
    .str1 {stroke:black;stroke-width:20;stroke-miterlimit:22.9256}
    .str9 {stroke:#2B2A29;stroke-width:25.4;stroke-miterlimit:22.9256}
    .str0 {stroke:black;stroke-width:7.62;stroke-miterlimit:22.9256}
    .str8 {stroke:black;stroke-width:40;stroke-linecap:round;stroke-linejoin:round;stroke-miterlimit:22.9256}
    .str4 {stroke:#2B2A29;stroke-width:40;stroke-linecap:round;stroke-linejoin:round;stroke-miterlimit:22.9256}
    .fil4 {fill:none}
    .fil2 {fill:none;fill-rule:nonzero}
    .fil5 {fill:black}
    .fil3 {fill:black}
    .fil1 {fill:black;fill-rule:nonzero}
    .fil0 {fill:black;fill-rule:nonzero}
    .fnt0 {font-weight:normal;font-size:1270px;font-family:'Arial'}
   ]]>
  </style>
 </defs>
 <g id="Слой_x0020_1">
  <metadata id="CorelCorpID_0Corel-Layer"/>
  <g>
   <polygon class="fil0" points="8137.22,30351.02 8137.22,6225.38 7379.67,6225.38 7379.67,30351.02 "/>
   <path id="_1" class="fil1" d="M8209.75 6225.38l0 24125.64 -145.06 0 0 -24125.64 72.53 -209.18 72.53 209.18zm-145.06 0c0,-115.52 32.48,-209.18 72.53,-209.18 40.05,0 72.53,93.66 72.53,209.18l-145.06 0zm-685.02 -209.18l757.55 0 0 418.36 -757.55 0 -72.53 -209.18 72.53 -209.18zm0 418.36c-40.05,0 -72.53,-93.66 -72.53,-209.18 0,-115.52 32.48,-209.18 72.53,-209.18l0 418.36zm-72.53 23916.46l0 -24125.64 145.06 0 0 24125.64 -72.53 209.18 -72.53 -209.18zm145.06 0c0,115.52 -32.48,209.18 -72.53,209.18 -40.05,0 -72.53,-93.66 -72.53,-209.18l145.06 0zm685.02 209.18l-757.55 0 0 -418.36 757.55 0 72.53 209.18 -72.53 209.18zm0 -418.36c40.05,0 72.53,93.66 72.53,209.18 0,115.52 -32.48,209.18 -72.53,209.18l0 -418.36z"/>
  </g>
  <g>
   <polygon class="fil0" points="8167.22,29481.56 10907.25,29481.56 10907.25,29080.22 8167.22,29080.22 "/>
   <path id="_1_0" class="fil1" d="M10907.25 29541.34l-2740.03 0 0 -119.56 2740.03 0 112.83 59.78 -112.83 59.78zm0 -119.56c62.31,0 112.83,26.77 112.83,59.78 0,33.01 -50.52,59.78 -112.83,59.78l0 -119.56zm112.83 -341.56l0 401.34 -225.66 0 0 -401.34 112.83 -59.78 112.83 59.78zm-225.66 0c0,-33.01 50.52,-59.78 112.83,-59.78 62.31,0 112.83,26.77 112.83,59.78l-225.66 0zm-2627.2 -59.78l2740.03 0 0 119.56 -2740.03 0 -112.83 -59.78 112.83 -59.78zm0 119.56c-62.31,0 -112.83,-26.77 -112.83,-59.78 0,-33.01 50.52,-59.78 112.83,-59.78l0 119.56zm-112.83 341.56l0 -401.34 225.66 0 0 401.34 -112.83 59.78 -112.83 -59.78zm225.66 0c0,33.01 -50.52,59.78 -112.83,59.78 -62.31,0 -112.83,-26.77 -112.83,-59.78l225.66 0z"/>
  </g>
  <g>
   <path class="fil1" d="M10877.25 29122.47c-31.15,0 -56.41,-24.15 -56.41,-53.93 0,-29.78 25.26,-53.93 56.41,-53.93l0 107.86zm6850.02 0l-6850.02 0 0 -107.86 6850.02 0 0 107.86zm0 -107.86c31.15,0 56.41,24.15 56.41,53.93 0,29.78 -25.26,53.93 -56.41,53.93l0 -107.86z"/>
  </g>
  <g>
   <path class="fil1" d="M11231.83 29967.05l6174.76 0 0 107.86 -6174.76 0 -56.87 -53.93 56.87 -53.93zm0 107.86c-31.4,0 -56.87,-24.15 -56.87,-53.93 0,-29.78 25.47,-53.93 56.87,-53.93l0 107.86zm56.87 -300.51l0 246.58 -113.74 0 0 -246.58 56.87 -53.93 56.87 53.93zm-113.74 0c0,-29.78 25.47,-53.93 56.87,-53.93 31.4,0 56.87,24.15 56.87,53.93l-113.74 0zm6231.63 53.93l-6174.76 0 0 -107.86 6174.76 0 56.87 53.93 -56.87 53.93zm0 -107.86c31.4,0 56.87,24.15 56.87,53.93 0,29.78 -25.47,53.93 -56.87,53.93l0 -107.86zm-56.87 300.51l0 -246.58 113.74 0 0 246.58 -56.87 53.93 -56.87 -53.93zm113.74 0c0,29.78 -25.47,53.93 -56.87,53.93 -31.4,0 -56.87,-24.15 -56.87,-53.93l113.74 0z"/>
  </g>
  <g>
   <path class="fil1" d="M10973.96 29967.05l257.87 0 0 107.86 -257.87 0 -56.41 -53.93 56.41 -53.93zm0 107.86c-31.15,0 -56.41,-24.15 -56.41,-53.93 0,-29.78 25.26,-53.93 56.41,-53.93l0 107.86zm56.41 -300.51l0 246.58 -112.82 0 0 -246.58 56.41 -53.93 56.41 53.93zm-112.82 0c0,-29.78 25.26,-53.93 56.41,-53.93 31.15,0 56.41,24.15 56.41,53.93l-112.82 0zm314.28 53.93l-257.87 0 0 -107.86 257.87 0 56.41 53.93 -56.41 53.93zm0 -107.86c31.15,0 56.41,24.15 56.41,53.93 0,29.78 -25.26,53.93 -56.41,53.93l0 -107.86zm-56.41 300.51l0 -246.58 112.82 0 0 246.58 -56.41 53.93 -56.41 -53.93zm112.82 0c0,29.78 -25.26,53.93 -56.41,53.93 -31.15,0 -56.41,-24.15 -56.41,-53.93l112.82 0z"/>
  </g>
  <g>
   <path class="fil1" d="M17680.57 30074.91l-273.98 0 0 -107.86 273.98 0 56.41 53.93 -56.41 53.93zm0 -107.86c31.15,0 56.41,24.15 56.41,53.93 0,29.78 -25.26,53.93 -56.41,53.93l0 -107.86zm56.41 -192.65l0 246.58 -112.82 0 0 -246.58 56.41 -53.93 56.41 53.93zm-112.82 0c0,-29.78 25.26,-53.93 56.41,-53.93 31.15,0 56.41,24.15 56.41,53.93l-112.82 0zm-217.57 -53.93l273.98 0 0 107.86 -273.98 0 -56.41 -53.93 56.41 -53.93zm0 107.86c-31.15,0 -56.41,-24.15 -56.41,-53.93 0,-29.78 25.26,-53.93 56.41,-53.93l0 107.86zm-56.41 192.65l0 -246.58 112.82 0 0 246.58 -56.41 53.93 -56.41 -53.93zm112.82 0c0,29.78 -25.26,53.93 -56.41,53.93 -31.15,0 -56.41,-24.15 -56.41,-53.93l112.82 0z"/>
  </g>
  <g>
   <path class="fil1" d="M11070.67 30521.86c-31.15,0 -56.41,-24.15 -56.41,-53.93 0,-29.78 25.26,-53.93 56.41,-53.93l0 107.86zm6463.19 0l-6463.19 0 0 -107.86 6463.19 0 0 107.86zm0 -107.86c31.15,0 56.41,24.15 56.41,53.93 0,29.78 -25.26,53.93 -56.41,53.93l0 -107.86z"/>
  </g>
  <g>
   <polygon class="fil0" points="7350.46,6225.38 21237.06,6225.38 21237.06,5501.06 7355.7,5501.06 "/>
   <path id="_1_1" class="fil1" d="M21237.06 6294.73l-13886.6 0 0 -138.7 13886.6 0 47.72 69.35 -47.72 69.35zm0 -138.7c26.35,0 47.72,31.05 47.72,69.35 0,38.3 -21.37,69.35 -47.72,69.35l0 -138.7zm47.72 -654.97l0 724.32 -95.44 0 0 -724.32 47.72 -69.35 47.72 69.35zm-95.44 0c0,-38.3 21.37,-69.35 47.72,-69.35 26.35,0 47.72,31.05 47.72,69.35l-95.44 0zm-13833.64 -69.35l13881.36 0 0 138.7 -13881.36 0 -47.72 -70.08 47.72 -68.62zm0 138.7c-26.35,0 -47.72,-31.05 -47.72,-69.35 0,-38.3 21.37,-69.35 47.72,-69.35l0 138.7zm-52.96 654.24l5.24 -724.32 95.44 1.46 -5.24 724.32 -47.72 68.62 -47.72 -70.08zm95.44 1.46c-0.27,38.3 -21.87,69.02 -48.22,68.62 -26.35,-0.4 -47.49,-31.78 -47.22,-70.08l95.44 1.46z"/>
  </g>
  <g id="_2322292445680">
   <g>
    <line class="fil2 str0" x1="29367.18" y1="21030.61" x2="29367.18" y2= "18647.51" />
   </g>
   <g>
    <path class="fil1" d="M32324.14 21030.61l0 -2383.1 84.46 0 0 2383.1 -42.23 40.38 -42.23 -40.38zm84.46 0c0,22.3 -18.91,40.38 -42.23,40.38 -23.32,0 -42.23,-18.08 -42.23,-40.38l84.46 0zm-3041.42 -40.38l2999.19 0 0 80.76 -2999.19 0 -42.23 -40.38 42.23 -40.38zm0 80.76c-23.32,0 -42.23,-18.08 -42.23,-40.38 0,-22.3 18.91,-40.38 42.23,-40.38l0 80.76zm42.23 -2423.48l0 2383.1 -84.46 0 0 -2383.1 42.23 -40.38 42.23 40.38zm-84.46 0c0,-22.3 18.91,-40.38 42.23,-40.38 23.32,0 42.23,18.08 42.23,40.38l-84.46 0zm3041.42 40.38l-2999.19 0 0 -80.76 2999.19 0 42.23 40.38 -42.23 40.38zm0 -80.76c23.32,0 42.23,18.08 42.23,40.38 0,22.3 -18.91,40.38 -42.23,40.38l0 -80.76z"/>
   </g>
   <g>
    <path class="fil1" d="M29472.78 20889.25l0 -2100.38 84.46 0 0 2100.38 -42.23 40.38 -42.23 -40.38zm84.46 0c0,22.3 -18.91,40.38 -42.23,40.38 -23.32,0 -42.23,-18.08 -42.23,-40.38l84.46 0zm2154.39 40.38l-2196.62 0 0 -80.76 2196.62 0 42.23 40.38 -42.23 40.38zm0 -80.76c23.32,0 42.23,18.08 42.23,40.38 0,22.3 -18.91,40.38 -42.23,40.38l0 -80.76zm42.23 -2060l0 2100.38 -84.46 0 0 -2100.38 42.23 -40.38 42.23 40.38zm-84.46 0c0,-22.3 18.91,-40.38 42.23,-40.38 23.32,0 42.23,18.08 42.23,40.38l-84.46 0zm-2154.39 -40.38l2196.62 0 0 80.76 -2196.62 0 -42.23 -40.38 42.23 -40.38zm0 80.76c-23.32,0 -42.23,-18.08 -42.23,-40.38 0,-22.3 18.91,-40.38 42.23,-40.38l0 80.76z"/>
   </g>
   <g>
    <line class="fil2 str0" x1="29515.01" y1="18788.87" x2="29852.98" y2= "19112.03" />
   </g>
   <g>
    <line class="fil2 str0" x1="30275.37" y1="19515.92" x2="30951.26" y2= "20162.2" />
   </g>
   <g>
    <line class="fil2 str0" x1="31373.7" y1="20566.14" x2="31711.63" y2= "20889.25" />
   </g>
   <g>
    <line class="fil2 str0" x1="31711.63" y1="18788.87" x2="31373.7" y2= "19112.03" />
   </g>
   <g>
    <line class="fil2 str0" x1="30951.26" y1="19515.92" x2="30275.37" y2= "20162.2" />
   </g>
   <g>
    <line class="fil2 str0" x1="29852.98" y1="20566.14" x2="29515.01" y2= "20889.25" />
   </g>
   <g>
    <line class="fil2 str0" x1="31711.63" y1="19839.08" x2="29515.01" y2= "19839.08" />
   </g>
   <g>
    <line class="fil2 str0" x1="30613.34" y1="18788.87" x2="30613.34" y2= "20889.25" />
   </g>
   <g>
    <line class="fil2 str0" x1="31711.63" y1="19839.08" x2="31373.7" y2= "20162.2" />
   </g>
   <g>
    <line class="fil2 str0" x1="30951.26" y1="20566.14" x2="30613.34" y2= "20889.25" />
   </g>
   <g>
    <line class="fil2 str0" x1="30613.34" y1="18788.87" x2="30275.37" y2= "19112.03" />
   </g>
   <g>
    <polyline class="fil2 str0" points="29852.98,19515.92 29515.01,19839.08 29852.98,20162.2 "/>
   </g>
   <g>
    <line class="fil2 str0" x1="30275.37" y1="20566.14" x2="30613.34" y2= "20889.25" />
   </g>
   <g>
    <line class="fil2 str0" x1="30613.34" y1="18788.87" x2="30951.26" y2= "19112.03" />
   </g>
   <g>
    <line class="fil2 str0" x1="31373.7" y1="19515.92" x2="31711.63" y2= "19839.08" />
   </g>
   <g>
    <path class="fil2 str0" d="M31246.98 19324.09c0,-50.24 -42.56,-90.88 -95.05,-90.88 -52.49,0 -95.04,40.64 -95.04,90.88 0,50.19 42.55,90.88 95.04,90.88 52.49,0 95.05,-40.69 95.05,-90.88z"/>
   </g>
   <g>
    <path class="fil2 str0" d="M31246.98 20374.26c0,-50.19 -42.56,-90.88 -95.05,-90.88 -52.49,0 -95.04,40.69 -95.04,90.88 0,50.19 42.55,90.88 95.04,90.88 52.49,0 95.05,-40.69 95.05,-90.88z"/>
   </g>
   <g>
    <path class="fil2 str0" d="M30148.64 19324.09c0,-50.24 -42.51,-90.88 -95.04,-90.88 -52.49,0 -95.05,40.64 -95.05,90.88 0,50.19 42.56,90.88 95.05,90.88 52.53,0 95.04,-40.69 95.04,-90.88z"/>
   </g>
   <g>
    <path class="fil2 str0" d="M30148.64 20374.26c0,-50.19 -42.51,-90.88 -95.04,-90.88 -52.49,0 -95.05,40.69 -95.05,90.88 0,50.19 42.56,90.88 95.05,90.88 52.53,0 95.04,-40.69 95.04,-90.88z"/>
   </g>
   <g>
    <path class="fil1" d="M31817.23 18647.51c0,-22.3 18.91,-40.38 42.23,-40.38 23.32,0 42.23,18.08 42.23,40.38l-84.46 0zm0 2383.1l0 -2383.1 84.46 0 0 2383.1 -84.46 0zm84.46 0c0,22.3 -18.91,40.38 -42.23,40.38 -23.32,0 -42.23,-18.08 -42.23,-40.38l84.46 0z"/>
   </g>
   <g>
    <line class="fil2 str0" x1="31901.72" y1="18768.69" x2="31901.72" y2= "20909.43" />
   </g>
   <g>
    <polyline class="fil2 str0" points="32324.16,20909.43 32324.16,18768.69 31901.72,18768.69 "/>
   </g>
   <g>
    <line class="fil2 str0" x1="32324.16" y1="18990.86" x2="31901.72" y2= "18990.86" />
   </g>
   <g>
    <line class="fil2 str0" x1="32324.16" y1="18869.68" x2="31901.72" y2= "18869.68" />
   </g>
   <g>
    <line class="fil2 str0" x1="32324.16" y1="19112.03" x2="31901.72" y2= "19112.03" />
   </g>
   <g>
    <line class="fil2 str0" x1="32324.16" y1="19233.21" x2="31901.72" y2= "19233.21" />
   </g>
   <g>
    <line class="fil2 str0" x1="32324.16" y1="19475.56" x2="31901.72" y2= "19475.56" />
   </g>
   <g>
    <line class="fil2 str0" x1="32324.16" y1="19354.38" x2="31901.72" y2= "19354.38" />
   </g>
   <g>
    <line class="fil2 str0" x1="32324.16" y1="19596.73" x2="31901.72" y2= "19596.73" />
   </g>
   <g>
    <line class="fil2 str0" x1="32324.16" y1="19717.91" x2="31901.72" y2= "19717.91" />
   </g>
   <g>
    <line class="fil2 str0" x1="32324.16" y1="19960.26" x2="31901.72" y2= "19960.26" />
   </g>
   <g>
    <line class="fil2 str0" x1="32324.16" y1="19839.08" x2="31901.72" y2= "19839.08" />
   </g>
   <g>
    <line class="fil2 str0" x1="32324.16" y1="20061.21" x2="31901.72" y2= "20061.21" />
   </g>
   <g>
    <line class="fil2 str0" x1="32324.16" y1="20182.38" x2="31901.72" y2= "20182.38" />
   </g>
   <g>
    <line class="fil2 str0" x1="32324.16" y1="20424.73" x2="31901.72" y2= "20424.73" />
   </g>
   <g>
    <line class="fil2 str0" x1="32324.16" y1="20303.56" x2="31901.72" y2= "20303.56" />
   </g>
   <g>
    <line class="fil2 str0" x1="32324.16" y1="20545.91" x2="31901.72" y2= "20545.91" />
   </g>
   <g>
    <line class="fil2 str0" x1="32324.16" y1="20667.08" x2="31901.72" y2= "20667.08" />
   </g>
   <g>
    <line class="fil2 str0" x1="32324.16" y1="20909.43" x2="31901.72" y2= "20909.43" />
   </g>
   <g>
    <line class="fil2 str0" x1="32324.16" y1="20788.26" x2="31901.72" y2= "20788.26" />
   </g>
   <g>
    <line class="fil2 str0" x1="29324.92" y1="19354.38" x2="29261.55" y2= "19354.38" />
   </g>
   <g>
    <path class="fil2 str0" d="M29314.39 19313.97c-29.19,0 -52.79,22.62 -52.79,50.48 0,27.91 23.6,50.47 52.79,50.47"/>
   </g>
   <g>
    <polyline class="fil2 str0" points="29367.18,19293.79 29324.92,19293.79 29324.92,19354.38 29324.92,19414.97 29367.18,19414.97 "/>
   </g>
   <g>
    <line class="fil2 str0" x1="29324.92" y1="19839.08" x2="29282.71" y2= "19839.08" />
   </g>
   <g>
    <path class="fil2 str0" d="M29314.39 19798.68c-29.19,0 -52.79,22.61 -52.79,50.47 0,27.91 23.6,50.47 52.79,50.47"/>
   </g>
   <g>
    <polyline class="fil2 str0" points="29367.18,19778.5 29324.92,19778.5 29324.92,19839.08 29324.92,19899.67 29367.18,19899.67 "/>
   </g>
   <g>
    <line class="fil2 str0" x1="29324.92" y1="20303.56" x2="29282.71" y2= "20303.56" />
   </g>
   <g>
    <path class="fil2 str0" d="M29314.39 20263.15c-29.19,0 -52.79,22.61 -52.79,50.52 0,27.86 23.6,50.47 52.79,50.47"/>
   </g>
   <g>
    <polyline class="fil2 str0" points="29367.18,20242.97 29324.92,20242.97 29324.92,20303.56 29324.92,20364.14 29367.18,20364.14 "/>
   </g>
   <g>
    <line class="fil2 str0" x1="29324.92" y1="19596.73" x2="29282.71" y2= "19596.73" />
   </g>
   <g>
    <path class="fil2 str0" d="M29314.39 19556.33c-29.19,0 -52.79,22.61 -52.79,50.47 0,27.91 23.6,50.47 52.79,50.47"/>
   </g>
   <g>
    <polyline class="fil2 str0" points="29367.18,19536.15 29324.92,19536.15 29324.92,19596.73 29324.92,19657.32 29367.18,19657.32 "/>
   </g>
   <g>
    <line class="fil2 str0" x1="29324.92" y1="20061.21" x2="29282.71" y2= "20061.21" />
   </g>
   <g>
    <path class="fil2 str0" d="M29314.39 20020.8c-29.19,0 -52.79,22.61 -52.79,50.52 0,27.86 23.6,50.47 52.79,50.47"/>
   </g>
   <g>
    <polyline class="fil2 str0" points="29367.18,20000.62 29324.92,20000.62 29324.92,20061.21 29324.92,20121.79 29367.18,20121.79 "/>
   </g>
  </g>
  <g>
   <polygon class="fil0" points="32475.02,14224.03 32475.02,14578.51 24980.26,14578.51 24980.26,14224.03 "/>
   <path id="_1_2" class="fil1" d="M32402.49 14578.51l0 -354.48 145.06 0 0 354.48 -72.53 69.35 -72.53 -69.35zm145.06 0c0,38.3 -32.48,69.35 -72.53,69.35 -40.05,0 -72.53,-31.05 -72.53,-69.35l145.06 0zm-7567.29 -69.35l7494.76 0 0 138.7 -7494.76 0 -72.53 -69.35 72.53 -69.35zm0 138.7c-40.05,0 -72.53,-31.05 -72.53,-69.35 0,-38.3 32.48,-69.35 72.53,-69.35l0 138.7zm72.53 -423.83l0 354.48 -145.06 0 0 -354.48 72.53 -69.35 72.53 69.35zm-145.06 0c0,-38.3 32.48,-69.35 72.53,-69.35 40.05,0 72.53,31.05 72.53,69.35l-145.06 0zm7567.29 69.35l-7494.76 0 0 -138.7 7494.76 0 72.53 69.35 -72.53 69.35zm0 -138.7c40.05,0 72.53,31.05 72.53,69.35 0,38.3 -32.48,69.35 -72.53,69.35l0 -138.7z"/>
  </g>
  <g>
   <polygon class="fil0" points="25431.59,12143.45 25818.41,12143.45 25818.41,14224.03 25431.59,14224.03 "/>
   <path id="_1_3" class="fil1" d="M25818.41 12212.8l-386.82 0 0 -138.7 386.82 0 72.53 69.35 -72.53 69.35zm0 -138.7c40.05,0 72.53,31.05 72.53,69.35 0,38.3 -32.48,69.35 -72.53,69.35l0 -138.7zm-72.53 2149.93l0 -2080.58 145.06 0 0 2080.58 -72.53 69.35 -72.53 -69.35zm145.06 0c0,38.3 -32.48,69.35 -72.53,69.35 -40.05,0 -72.53,-31.05 -72.53,-69.35l145.06 0zm-459.35 -69.35l386.82 0 0 138.7 -386.82 0 -72.53 -69.35 72.53 -69.35zm0 138.7c-40.05,0 -72.53,-31.05 -72.53,-69.35 0,-38.3 32.48,-69.35 72.53,-69.35l0 138.7zm72.53 -2149.93l0 2080.58 -145.06 0 0 -2080.58 72.53 -69.35 72.53 69.35zm-145.06 0c0,-38.3 32.48,-69.35 72.53,-69.35 40.05,0 72.53,31.05 72.53,69.35l-145.06 0z"/>
  </g>
  <g>
   <polygon class="fil0" points="25431.59,6225.38 25818.41,6225.38 25818.41,9199.85 25431.59,9199.85 "/>
   <path id="_1_4" class="fil1" d="M25818.41 6294.73l-386.82 0 0 -138.7 386.82 0 72.53 69.35 -72.53 69.35zm0 -138.7c40.05,0 72.53,31.05 72.53,69.35 0,38.3 -32.48,69.35 -72.53,69.35l0 -138.7zm-72.53 3043.82l0 -2974.47 145.06 0 0 2974.47 -72.53 69.35 -72.53 -69.35zm145.06 0c0,38.3 -32.48,69.35 -72.53,69.35 -40.05,0 -72.53,-31.05 -72.53,-69.35l145.06 0zm-459.35 -69.35l386.82 0 0 138.7 -386.82 0 -72.53 -69.35 72.53 -69.35zm0 138.7c-40.05,0 -72.53,-31.05 -72.53,-69.35 0,-38.3 32.48,-69.35 72.53,-69.35l0 138.7zm72.53 -3043.82l0 2974.47 -145.06 0 0 -2974.47 72.53 -69.35 72.53 69.35zm-145.06 0c0,-38.3 32.48,-69.35 72.53,-69.35 40.05,0 72.53,31.05 72.53,69.35l-145.06 0z"/>
  </g>
  <g>
   <path class="fil1" d="M25850.64 9199.85l0 184.94 -64.46 0 0 -184.94 32.23 -30.82 32.23 30.82zm-64.46 0c0,-17.02 14.43,-30.82 32.23,-30.82 17.8,0 32.23,13.8 32.23,30.82l-64.46 0zm-354.59 -30.82l386.82 0 0 61.64 -386.82 0 -32.23 -30.82 32.23 -30.82zm0 61.64c-17.8,0 -32.23,-13.8 -32.23,-30.82 0,-17.02 14.43,-30.82 32.23,-30.82l0 61.64zm-32.23 154.12l0 -184.94 64.46 0 0 184.94 -32.23 30.82 -32.23 -30.82zm64.46 0c0,17.02 -14.43,30.82 -32.23,30.82 -17.8,0 -32.23,-13.8 -32.23,-30.82l64.46 0zm354.59 30.82l-386.82 0 0 -61.64 386.82 0 32.23 30.82 -32.23 30.82zm0 -61.64c17.8,0 32.23,13.8 32.23,30.82 0,17.02 -14.43,30.82 -32.23,30.82l0 -61.64z"/>
  </g>
  <g>
   <path class="fil1" d="M25850.64 11958.51l0 184.94 -64.46 0 0 -184.94 32.23 -30.82 32.23 30.82zm-64.46 0c0,-17.02 14.43,-30.82 32.23,-30.82 17.8,0 32.23,13.8 32.23,30.82l-64.46 0zm-354.59 -30.82l386.82 0 0 61.64 -386.82 0 -32.23 -30.82 32.23 -30.82zm0 61.64c-17.8,0 -32.23,-13.8 -32.23,-30.82 0,-17.02 14.43,-30.82 32.23,-30.82l0 61.64zm-32.23 154.12l0 -184.94 64.46 0 0 184.94 -32.23 30.82 -32.23 -30.82zm64.46 0c0,17.02 -14.43,30.82 -32.23,30.82 -17.8,0 -32.23,-13.8 -32.23,-30.82l64.46 0zm354.59 30.82l-386.82 0 0 -61.64 386.82 0 32.23 30.82 -32.23 30.82zm0 -61.64c17.8,0 32.23,13.8 32.23,30.82 0,17.02 -14.43,30.82 -32.23,30.82l0 -61.64z"/>
  </g>
  <g>
   <path class="fil1" d="M21614.97 14193.21l193.41 0 0 61.64 -193.41 0 -32.23 -30.82 32.23 -30.82zm0 61.64c-17.8,0 -32.23,-13.8 -32.23,-30.82 0,-17.02 14.43,-30.82 32.23,-30.82l0 61.64zm-32.23 323.66l0 -354.48 64.46 0 0 354.48 -32.23 30.82 -32.23 -30.82zm64.46 0c0,17.02 -14.43,30.82 -32.23,30.82 -17.8,0 -32.23,-13.8 -32.23,-30.82l64.46 0zm161.18 30.82l-193.41 0 0 -61.64 193.41 0 32.23 30.82 -32.23 30.82zm0 -61.64c17.8,0 32.23,13.8 32.23,30.82 0,17.02 -14.43,30.82 -32.23,30.82l0 -61.64zm32.23 -323.66l0 354.48 -64.46 0 0 -354.48 32.23 -30.82 32.23 30.82zm-64.46 0c0,-17.02 14.43,-30.82 32.23,-30.82 17.8,0 32.23,13.8 32.23,30.82l-64.46 0z"/>
  </g>
  <g>
   <path class="fil1" d="M24706.85 14193.21l193.41 0 0 61.64 -193.41 0 -32.23 -30.82 32.23 -30.82zm0 61.64c-17.8,0 -32.23,-13.8 -32.23,-30.82 0,-17.02 14.43,-30.82 32.23,-30.82l0 61.64zm-32.23 323.66l0 -354.48 64.46 0 0 354.48 -32.23 30.82 -32.23 -30.82zm64.46 0c0,17.02 -14.43,30.82 -32.23,30.82 -17.8,0 -32.23,-13.8 -32.23,-30.82l64.46 0zm161.18 30.82l-193.41 0 0 -61.64 193.41 0 32.23 30.82 -32.23 30.82zm0 -61.64c17.8,0 32.23,13.8 32.23,30.82 0,17.02 -14.43,30.82 -32.23,30.82l0 -61.64zm32.23 -323.66l0 354.48 -64.46 0 0 -354.48 32.23 -30.82 32.23 30.82zm-64.46 0c0,-17.02 14.43,-30.82 32.23,-30.82 17.8,0 32.23,13.8 32.23,30.82l-64.46 0z"/>
  </g>
  <g>
   <path class="fil1" d="M21217.06 29095.56c-31.15,0 -56.41,-19.86 -56.41,-44.35 0,-24.49 25.26,-44.35 56.41,-44.35l0 88.7zm2997.9 0l-2997.9 0 0 -88.7 2997.9 0 56.41 44.35 -56.41 44.35zm0 -88.7c31.15,0 56.41,19.86 56.41,44.35 0,24.49 -25.26,44.35 -56.41,44.35l0 -88.7zm-56.41 1451.07l0 -1406.72 112.82 0 0 1406.72 -112.82 0zm112.82 0c0,24.49 -25.26,44.35 -56.41,44.35 -31.15,0 -56.41,-19.86 -56.41,-44.35l112.82 0z"/>
  </g>
  <g>
   <path class="fil1" d="M21514.97 29967.05l2482.12 0 0 107.86 -2482.12 0 -56.41 -53.93 56.41 -53.93zm0 107.86c-31.15,0 -56.41,-24.15 -56.41,-53.93 0,-29.78 25.26,-53.93 56.41,-53.93l0 107.86zm56.41 -300.51l0 246.58 -112.82 0 0 -246.58 56.41 -53.93 56.41 53.93zm-112.82 0c0,-29.78 25.26,-53.93 56.41,-53.93 31.15,0 56.41,24.15 56.41,53.93l-112.82 0zm2538.53 53.93l-2482.12 0 0 -107.86 2482.12 0 56.41 53.93 -56.41 53.93zm0 -107.86c31.15,0 56.41,24.15 56.41,53.93 0,29.78 -25.26,53.93 -56.41,53.93l0 -107.86zm-56.41 300.51l0 -246.58 112.82 0 0 246.58 -56.41 53.93 -56.41 -53.93zm112.82 0c0,29.78 -25.26,53.93 -56.41,53.93 -31.15,0 -56.41,-24.15 -56.41,-53.93l112.82 0z"/>
  </g>
  <g>
   <path class="fil1" d="M21237.06 29967.05l257.91 0 0 107.86 -257.91 0 -56.41 -53.93 56.41 -53.93zm0 107.86c-31.15,0 -56.41,-24.15 -56.41,-53.93 0,-29.78 25.26,-53.93 56.41,-53.93l0 107.86zm56.41 -300.51l0 246.58 -112.82 0 0 -246.58 56.41 -53.93 56.41 53.93zm-112.82 0c0,-29.78 25.26,-53.93 56.41,-53.93 31.15,0 56.41,24.15 56.41,53.93l-112.82 0zm314.32 53.93l-257.91 0 0 -107.86 257.91 0 56.41 53.93 -56.41 53.93zm0 -107.86c31.15,0 56.41,24.15 56.41,53.93 0,29.78 -25.26,53.93 -56.41,53.93l0 -107.86zm-56.41 300.51l0 -246.58 112.82 0 0 246.58 -56.41 53.93 -56.41 -53.93zm112.82 0c0,29.78 -25.26,53.93 -56.41,53.93 -31.15,0 -56.41,-24.15 -56.41,-53.93l112.82 0z"/>
  </g>
  <g>
   <path class="fil1" d="M21450.47 30521.86c-31.15,0 -56.41,-24.15 -56.41,-53.93 0,-29.78 25.26,-53.93 56.41,-53.93l0 107.86zm2804.49 0l-2804.49 0 0 -107.86 2804.49 0 0 107.86zm0 -107.86c31.15,0 56.41,24.15 56.41,53.93 0,29.78 -25.26,53.93 -56.41,53.93l0 -107.86z"/>
  </g>
  <g>
   <path class="fil1" d="M24254.96 30074.91l-257.87 0 0 -107.86 257.87 0 56.41 53.93 -56.41 53.93zm0 -107.86c31.15,0 56.41,24.15 56.41,53.93 0,29.78 -25.26,53.93 -56.41,53.93l0 -107.86zm56.41 -192.65l0 246.58 -112.82 0 0 -246.58 56.41 -53.93 56.41 53.93zm-112.82 0c0,-29.78 25.26,-53.93 56.41,-53.93 31.15,0 56.41,24.15 56.41,53.93l-112.82 0zm-201.46 -53.93l257.87 0 0 107.86 -257.87 0 -56.41 -53.93 56.41 -53.93zm0 107.86c-31.15,0 -56.41,-24.15 -56.41,-53.93 0,-29.78 25.26,-53.93 56.41,-53.93l0 107.86zm-56.41 192.65l0 -246.58 112.82 0 0 246.58 -56.41 53.93 -56.41 -53.93zm112.82 0c0,29.78 -25.26,53.93 -56.41,53.93 -31.15,0 -56.41,-24.15 -56.41,-53.93l112.82 0z"/>
  </g>
  <g>
   <polygon class="fil0" points="17533.86,30093.3 21450.47,30093.3 21450.47,30467.93 17533.86,30467.93 "/>
   <path id="_1_5" class="fil1" d="M21450.47 30151.43l-3916.61 0 0 -116.26 3916.61 0 72.53 58.13 -72.53 58.13zm0 -116.26c40.05,0 72.53,26.03 72.53,58.13 0,32.1 -32.48,58.13 -72.53,58.13l0 -116.26zm-72.53 432.76l0 -374.63 145.06 0 0 374.63 -72.53 58.13 -72.53 -58.13zm145.06 0c0,32.1 -32.48,58.13 -72.53,58.13 -40.05,0 -72.53,-26.03 -72.53,-58.13l145.06 0zm-3989.14 -58.13l3916.61 0 0 116.26 -3916.61 0 -72.53 -58.13 72.53 -58.13zm0 116.26c-40.05,0 -72.53,-26.03 -72.53,-58.13 0,-32.1 32.48,-58.13 72.53,-58.13l0 116.26zm72.53 -432.76l0 374.63 -145.06 0 0 -374.63 72.53 -58.13 72.53 58.13zm-145.06 0c0,-32.1 32.48,-58.13 72.53,-58.13 40.05,0 72.53,26.03 72.53,58.13l-145.06 0z"/>
  </g>
  <g>
   <polygon class="fil0" points="33232.57,29517.39 33232.57,6225.38 32475.02,6225.38 32475.02,29517.39 "/>
   <path id="_1_6" class="fil1" d="M33305.1 6225.38l0 23292.01 -145.06 0 0 -23292.01 72.53 -201.95 72.53 201.95zm-145.06 0c0,-111.53 32.48,-201.95 72.53,-201.95 40.05,0 72.53,90.42 72.53,201.95l-145.06 0zm-685.02 -201.95l757.55 0 0 403.9 -757.55 0 -72.53 -201.95 72.53 -201.95zm0 403.9c-40.05,0 -72.53,-90.42 -72.53,-201.95 0,-111.53 32.48,-201.95 72.53,-201.95l0 403.9zm-72.53 23090.06l0 -23292.01 145.06 0 0 23292.01 -72.53 201.95 -72.53 -201.95zm145.06 0c0,111.53 -32.48,201.95 -72.53,201.95 -40.05,0 -72.53,-90.42 -72.53,-201.95l145.06 0zm685.02 201.95l-757.55 0 0 -403.9 757.55 0 72.53 201.95 -72.53 201.95zm0 -403.9c40.05,0 72.53,90.42 72.53,201.95 0,111.53 -32.48,201.95 -72.53,201.95l0 -403.9z"/>
  </g>
  <g>
   <path class="fil1" d="M21500.46 5539.84l-243.4 0 0 -77.56 243.4 0 40.56 38.78 -40.56 38.78zm0 -77.56c22.4,0 40.56,17.37 40.56,38.78 0,21.41 -18.16,38.78 -40.56,38.78l0 -77.56zm-40.56 484.82l0 -446.04 81.12 0 0 446.04 -40.56 38.78 -40.56 -38.78zm81.12 0c0,21.41 -18.16,38.78 -40.56,38.78 -22.4,0 -40.56,-17.37 -40.56,-38.78l81.12 0zm-283.96 -38.78l243.4 0 0 77.56 -243.4 0 -40.56 -38.78 40.56 -38.78zm0 77.56c-22.4,0 -40.56,-17.37 -40.56,-38.78 0,-21.41 18.16,-38.78 40.56,-38.78l0 77.56zm40.56 -484.82l0 446.04 -81.12 0 0 -446.04 40.56 -38.78 40.56 38.78zm-81.12 0c0,-21.41 18.16,-38.78 40.56,-38.78 22.4,0 40.56,17.37 40.56,38.78l-81.12 0z"/>
  </g>
  <g>
   <polygon class="fil0" points="33272.56,6225.38 25133.11,6225.38 25133.11,5501.06 33272.56,5501.06 "/>
   <path id="_1_7" class="fil1" d="M25133.11 6156.03l8139.45 0 0 138.7 -8139.45 0 -37.96 -69.35 37.96 -69.35zm0 138.7c-20.96,0 -37.96,-31.05 -37.96,-69.35 0,-38.3 17,-69.35 37.96,-69.35l0 138.7zm37.96 -793.67l0 724.32 -75.92 0 0 -724.32 37.96 -69.35 37.96 69.35zm-75.92 0c0,-38.3 17,-69.35 37.96,-69.35 20.96,0 37.96,31.05 37.96,69.35l-75.92 0zm8177.41 69.35l-8139.45 0 0 -138.7 8139.45 0 37.96 69.35 -37.96 69.35zm0 -138.7c20.96,0 37.96,31.05 37.96,69.35 0,38.3 -17,69.35 -37.96,69.35l0 -138.7zm-37.96 793.67l0 -724.32 75.92 0 0 724.32 -37.96 69.35 -37.96 -69.35zm75.92 0c0,38.3 -17,69.35 -37.96,69.35 -20.96,0 -37.96,-31.05 -37.96,-69.35l75.92 0z"/>
  </g>
  <g>
   <polygon class="fil0" points="16083.26,11480.76 16083.26,6225.38 16470.09,6225.38 16470.09,11311.22 16599.04,11403.69 16373.38,11696.54 "/>
   <path id="_1_8" class="fil1" d="M16155.79 6225.38l0 5255.38 -145.06 0 0 -5255.38 72.53 -69.35 72.53 69.35zm-145.06 0c0,-38.3 32.48,-69.35 72.53,-69.35 40.05,0 72.53,31.05 72.53,69.35l-145.06 0zm459.36 69.35l-386.83 0 0 -138.7 386.83 0 72.53 69.35 -72.53 69.35zm0 -138.7c40.05,0 72.53,31.05 72.53,69.35 0,38.3 -32.48,69.35 -72.53,69.35l0 -138.7zm-72.53 5155.19l0 -5085.84 145.06 0 0 5085.84 -116.05 55.48 -29.01 -55.48zm145.06 0c0,38.3 -32.48,69.35 -72.53,69.35 -40.05,0 -72.53,-31.05 -72.53,-69.35l145.06 0zm12.9 147.95l-128.95 -92.47 87.04 -110.96 128.95 92.47 14.87 96.62 -101.91 14.34zm87.04 -110.96c32.04,22.98 38.54,66.45 14.51,97.09 -24.03,30.64 -69.51,36.85 -101.55,13.87l87.04 -110.96zm-327.57 307.19l225.66 -292.85 116.78 82.28 -225.66 292.85 -102.92 13.6 -13.86 -95.88zm116.78 82.28c-23.75,30.83 -69.17,37.41 -101.41,14.69 -32.24,-22.72 -39.12,-66.14 -15.37,-96.97l116.78 82.28zm-303.98 -311.66l290.12 215.78 -89.06 109.48 -290.12 -215.78 -28 -54.74 117.06 -54.74zm-89.06 109.48c-31.61,-23.51 -37.31,-67.09 -12.72,-97.32 24.59,-30.23 70.17,-35.67 101.78,-12.16l-89.06 109.48z"/>
  </g>
  <g>
   <polygon class="fil0" points="19533.76,13708.51 20743.91,14568.51 20089.79,14568.51 19304.84,14005.59 "/>
   <path id="_1_9" class="fil1" d="M20700.01 14624.99l-1210.15 -860 87.8 -112.96 1210.15 860 -43.9 126.85 -43.9 -13.89zm87.8 -112.96c32.61,23.17 39.4,67.26 15.16,98.45 -24.24,31.19 -70.35,37.68 -102.96,14.51l87.8 -112.96zm-698.02 -13.89l654.12 0 0 140.74 -654.12 0 -44.15 -14.08 44.15 -126.66zm0 140.74c-40.64,0 -73.59,-31.51 -73.59,-70.37 0,-38.86 32.95,-70.37 73.59,-70.37l0 140.74zm-740.8 -689.58l784.95 562.92 -88.3 112.58 -784.95 -562.92 -15.09 -98.03 103.39 -14.55zm-88.3 112.58c-32.51,-23.31 -39.1,-67.43 -14.72,-98.51 24.38,-31.08 70.51,-37.38 103.02,-14.07l-88.3 112.58zm332.31 -311.63l-228.92 297.08 -118.48 -83.48 228.92 -297.08 103.14 -14.74 15.34 98.22zm-118.48 -83.48c24.1,-31.28 70.18,-37.96 102.89,-14.91 32.71,23.05 39.69,67.11 15.59,98.39l-118.48 -83.48z"/>
  </g>
  <g>
   <polygon class="fil0" points="20250.12,14568.51 20250.12,14214.03 21514.97,14214.03 21514.97,14568.51 "/>
   <path id="_1_10" class="fil1" d="M20359.57 14214.03l0 354.48 -218.9 0 0 -354.48 109.45 -69.35 109.45 69.35zm-218.9 0c0,-38.3 49.01,-69.35 109.45,-69.35 60.44,0 109.45,31.05 109.45,69.35l-218.9 0zm1374.3 69.35l-1264.85 0 0 -138.7 1264.85 0 109.45 69.35 -109.45 69.35zm0 -138.7c60.44,0 109.45,31.05 109.45,69.35 0,38.3 -49.01,69.35 -109.45,69.35l0 -138.7zm-109.45 423.83l0 -354.48 218.9 0 0 354.48 -109.45 69.35 -109.45 -69.35zm218.9 0c0,38.3 -49.01,69.35 -109.45,69.35 -60.44,0 -109.45,-31.05 -109.45,-69.35l218.9 0zm-1374.3 -69.35l1264.85 0 0 138.7 -1264.85 0 -109.45 -69.35 109.45 -69.35zm0 138.7c-60.44,0 -109.45,-31.05 -109.45,-69.35 0,-38.3 49.01,-69.35 109.45,-69.35l0 138.7z"/>
  </g>
  <g>
   <path class="fil1" d="M17349.67 11872.83l161.17 107.91 -36.98 50.48 -161.17 -107.91 -7.46 -43.52 44.44 -6.96zm-36.98 50.48c-14.58,-9.76 -18.12,-28.99 -7.91,-42.92 10.21,-13.93 30.31,-17.32 44.89,-7.56l-36.98 50.48zm-233.12 249.33l225.66 -292.85 51.9 36.56 -225.66 292.85 -44.43 6.97 -7.47 -43.53zm51.9 36.56c-10.55,13.7 -30.74,16.62 -45.07,6.53 -14.33,-10.09 -17.38,-29.39 -6.83,-43.09l51.9 36.56zm116.77 114.84l-161.2 -107.87 36.96 -50.5 161.2 107.87 7.47 43.53 -44.43 6.97zm36.96 -50.5c14.58,9.75 18.13,28.98 7.93,42.92 -10.2,13.94 -30.31,17.33 -44.89,7.58l36.96 -50.5zm233.1 -249.28l-225.63 292.81 -51.9 -36.56 225.63 -292.81 44.44 -6.96 7.46 43.52zm-51.9 -36.56c10.55,-13.7 30.74,-16.62 45.07,-6.53 14.33,10.09 17.38,29.39 6.83,43.09l-51.9 -36.56z"/>
  </g>
  <g>
   <path class="fil1" d="M19336.09 13550.28l145.06 107.87 -39.58 48.66 -145.06 -107.87 -6.16 -42.61 45.74 -6.05zm-39.58 48.66c-14.05,-10.44 -16.57,-29.82 -5.65,-43.25 10.92,-13.43 31.18,-15.85 45.23,-5.41l-39.58 48.66zm-231.78 250.2l225.62 -292.81 51.9 36.56 -225.62 292.81 -45.74 6.05 -6.16 -42.61zm51.9 36.56c-10.55,13.7 -30.74,16.62 -45.07,6.53 -14.33,-10.09 -17.38,-29.39 -6.83,-43.09l51.9 36.56zm99.32 113.92l-145.06 -107.87 39.58 -48.66 145.06 107.87 6.16 42.61 -45.74 6.05zm39.58 -48.66c14.05,10.44 16.57,29.82 5.65,43.25 -10.92,13.43 -31.18,15.85 -45.23,5.41l39.58 -48.66zm231.78 -250.2l-225.62 292.81 -51.9 -36.56 225.62 -292.81 45.74 -6.05 6.16 42.61zm-51.9 -36.56c10.55,-13.7 30.74,-16.62 45.07,-6.53 14.33,10.09 17.38,29.39 6.83,43.09l-51.9 -36.56z"/>
  </g>
  <g>
   <polygon class="fil0" points="20306.14,14224.03 20676.82,14224.03 20676.82,29198.17 20306.14,29198.17 "/>
   <path id="_1_11" class="fil1" d="M20676.82 14305.61l-370.68 0 0 -163.16 370.68 0 72.53 81.58 -72.53 81.58zm0 -163.16c40.05,0 72.53,36.53 72.53,81.58 0,45.05 -32.48,81.58 -72.53,81.58l0 -163.16zm-72.53 15055.72l0 -14974.14 145.06 0 0 14974.14 -72.53 81.58 -72.53 -81.58zm145.06 0c0,45.05 -32.48,81.58 -72.53,81.58 -40.05,0 -72.53,-36.53 -72.53,-81.58l145.06 0zm-443.21 -81.58l370.68 0 0 163.16 -370.68 0 -72.53 -81.58 72.53 -81.58zm0 163.16c-40.05,0 -72.53,-36.53 -72.53,-81.58 0,-45.05 32.48,-81.58 72.53,-81.58l0 163.16zm72.53 -15055.72l0 14974.14 -145.06 0 0 -14974.14 72.53 -81.58 72.53 81.58zm-145.06 0c0,-45.05 32.48,-81.58 72.53,-81.58 40.05,0 72.53,36.53 72.53,81.58l-145.06 0z"/>
  </g>
  <rect class="fil3 str1" x="7779.69" y="29481.57" width="3231.34" height="1062.37"/>
  <rect class="fil3 str1" x="17735.91" y="29019.05" width="3451.34" height="1490.3"/>
  <rect class="fil3 str1" x="27004.47" y="29019.05" width="6288.1" height="1490.3"/>
  <g>
   <polygon class="fil0" points="26911.77,30093.3 30828.38,30093.3 30828.38,30467.93 26911.77,30467.93 "/>
   <path id="_1_12" class="fil1" d="M30828.38 30151.43l-3916.61 0 0 -116.26 3916.61 0 72.53 58.13 -72.53 58.13zm0 -116.26c40.05,0 72.53,26.03 72.53,58.13 0,32.1 -32.48,58.13 -72.53,58.13l0 -116.26zm-72.53 432.76l0 -374.63 145.06 0 0 374.63 -72.53 58.13 -72.53 -58.13zm145.06 0c0,32.1 -32.48,58.13 -72.53,58.13 -40.05,0 -72.53,-26.03 -72.53,-58.13l145.06 0zm-3989.14 -58.13l3916.61 0 0 116.26 -3916.61 0 -72.53 -58.13 72.53 -58.13zm0 116.26c-40.05,0 -72.53,-26.03 -72.53,-58.13 0,-32.1 32.48,-58.13 72.53,-58.13l0 116.26zm72.53 -432.76l0 374.63 -145.06 0 0 -374.63 72.53 -58.13 72.53 58.13zm-145.06 0c0,-32.1 32.48,-58.13 72.53,-58.13 40.05,0 72.53,26.03 72.53,58.13l-145.06 0z"/>
  </g>
  <rect class="fil3 str1" x="32848.57" y="30509.34" width="444" height="3913.73"/>
  <rect class="fil3 str1" transform="matrix(-1.15867E-14 -1 3.17652 9.63745E-14 19479.9 34423.1)" width="444" height="4347.05"/>
  <rect class="fil3 str1" x="19456.45" y="29878.17" width="444" height="4544.89" rx="50" ry="52.28"/>
  <g id="_2322292483264">
   <rect class="fil4 str2" transform="matrix(4.43399E-14 0.905874 -1.16198 1.04262E-14 33270.7 34433)" width="2496.64" height="5813.27"/>
   <line class="fil4 str2" x1="33279.54" y1="34429.39" x2="26524.66" y2= "36691.03" />
   <line class="fil4 str2" x1="33270.7" y1="36694.68" x2="26568.42" y2= "34488.55" />
  </g>
  <rect class="fil4 str3" x="26652.77" y="30068.25" width="238.99" height="429.64" rx="20" ry="20"/>
  <rect class="fil4 str3" x="24285.95" y="30068.25" width="238.99" height="429.64" rx="20" ry="20"/>
  <g id="_2322292484560">
   <path class="fil4 str4" d="M32487.01 25023.94l0 -2564.04c0.01,-95.52 -77.45,-172.97 -172.96,-172.97l-2597.68 0.01c-95.5,-0.01 -172.95,77.44 -172.95,172.95l-0.01 2564.05c0.01,95.5 77.46,172.96 172.97,172.96l2597.66 0.01c95.52,-0.01 172.98,-77.47 172.98,-172.98z"/>
   <rect class="fil4 str4" transform="matrix(7.9946E-14 -1.0062 -1.0062 -7.9946E-14 31982.4 24927.8)" width="2373.81" height="2106.33"/>
   <circle class="fil4 str5" transform="matrix(7.9946E-14 -1.0062 -1.0062 -7.9946E-14 31545.1 23178.4)" r="183.89"/>
  </g>
  <g id="_2286584712560">
   <line class="fil4 str6" x1="31301.87" y1="13224.71" x2="31574.77" y2= "13194.42" />
   <line class="fil4 str7" x1="31312.79" y1="12286.71" x2="31585.62" y2= "12317.08" />
   <path class="fil4 str7" d="M32546.6 13663.63c-216.22,0 -432.48,0.04 -648.7,0.04 -161.27,0.46 -277.91,-83.1 -325.89,-288.04 2.54,-364.66 5.08,-729.36 7.63,-1094.03 -14.9,-285.36 108.7,-404.02 318.26,-421.67l658.98 0"/>
   <path class="fil4 str7" d="M30756.61 12076.94c215.39,-35.26 402.18,13.36 545.65,189.48 27.15,71.19 48.42,141.08 64.02,209.67 60.67,266.84 35.44,514.38 -64.05,745.23 -127.54,155.2 -293.95,227.64 -503.62,208.09 -313.07,-30.51 -616.98,-143.36 -905.96,-390.02 -175.29,-172.36 -189.65,-367.38 0,-591.08 251.64,-202.52 541.18,-322.93 863.96,-371.37z"/>
  </g>
  <g id="_2286584703104">
   <rect class="fil4 str7" transform="matrix(-0.000196438 1.09387 -1.058 -0.000203097 32441.6 6198.72)" width="2611.41" height="5846.68"/>
   <path class="fil4 str7" d="M27389.11 6524.01c1358.64,-59.91 2701.32,-20.67 4051.98,-30.98 472.71,-6.95 714,11.12 706.25,528.44 -0.08,428.16 -0.16,856.26 -0.23,1284.4 4.29,363.55 -100.89,500.29 -689.43,472.4 -1356.31,-10.84 -2712.66,11.4 -4068.97,-32.49 -1077.17,-134.04 -1186.26,-2022.19 0.4,-2221.77z"/>
   <circle class="fil4 str7" transform="matrix(-0.000196438 1.09387 -1.058 -0.000203097 31731.5 7650.36)" r="121.03"/>
  </g>
  <g id="_2286584701664">
   <path class="fil4 str8" d="M32399.45 9266.79c-771.2,7.28 -1490.49,-228.17 -1589.94,715.94 -25.35,307.46 -14.5,600.89 27.86,902.75 171.59,773.15 836.17,530.4 1573.41,543.34"/>
   <path class="fil4 str7" d="M31831.42 9386.22c101.76,-2.14 200.05,73.63 246.55,157.85 0,560.91 0,1095.05 0,1655.96 -17.46,79.2 -72.34,96.99 -191.36,123.82 -1083.25,40.55 -853.42,-700.72 -872.31,-1373.2 48.09,-486.84 397.39,-543.09 817.12,-564.43z"/>
   <circle class="fil4 str7" transform="matrix(-3.10302E-14 1.17163 -1.17163 -3.10302E-14 31918.7 10369)" r="94.44"/>
   <path class="fil4 str7" d="M31881.06 9642.38c81.27,-1.52 159.78,52.57 196.91,112.71 0,400.48 0,781.87 0,1182.36 -13.94,56.55 -57.77,69.25 -152.83,88.4 -854.19,70.84 -692.96,-426.41 -696.7,-980.46 6.75,-362.86 332,-403.01 652.62,-403.01z"/>
  </g>
  <path class="fil4 str9" d="M24524.91 30303.44c31.96,-1298.84 810.62,-2226.68 2097.54,-2598.12 0,819.33 17.55,1827.96 17.55,2647.3"/>
  <path class="fil4 str9" d="M24706.86 14401.26c-38.21,1552.78 -1308.35,2707.06 -2846.87,3151.11 0,-979.51 -20.98,-2185.33 -20.98,-3164.86"/>
  <path class="fil4 str9" d="M19316.3 13574.61c-683.91,983.65 -2049.05,966.01 -3228.28,598.7 415.9,-630.73 914.37,-1416.09 1330.27,-2046.83"/>
  <path class="fil4 str9" d="M25551.97 9407.86c-1553.97,38.24 -2664.06,969.85 -3108.45,2509.55 980.26,0 2187.01,21 3167.29,21"/>
  <g>
   <path class="fil1" d="M25133.12 5539.84l-243.4 0 0 -77.56 243.4 0 40.56 38.78 -40.56 38.78zm0 -77.56c22.4,0 40.56,17.37 40.56,38.78 0,21.41 -18.16,38.78 -40.56,38.78l0 -77.56zm-40.56 484.82l0 -446.04 81.12 0 0 446.04 -40.56 38.78 -40.56 -38.78zm81.12 0c0,21.41 -18.16,38.78 -40.56,38.78 -22.4,0 -40.56,-17.37 -40.56,-38.78l81.12 0zm-283.96 -38.78l243.4 0 0 77.56 -243.4 0 -40.56 -38.78 40.56 -38.78zm0 77.56c-22.4,0 -40.56,-17.37 -40.56,-38.78 0,-21.41 18.16,-38.78 40.56,-38.78l0 77.56zm40.56 -484.82l0 446.04 -81.12 0 0 -446.04 40.56 -38.78 40.56 38.78zm-81.12 0c0,-21.41 18.16,-38.78 40.56,-38.78 22.4,0 40.56,17.37 40.56,38.78l-81.12 0z"/>
  </g>
  <path class="fil4 str9" d="M21531.86 5657.13c44.55,-1835.64 1525.42,-3200.2 3319.2,-3725.15 0,1157.95 24.46,2583.44 24.46,3741.4"/>
  <text x="23552.83" y="32689.34"  class="fil5 fnt0">3.60 (1.80)</text>
  <g>
   <polygon class="fil0" points="17029.43,12149.78 16139.3,11521.42 16450.37,11260.37 17265.69,11841.15 "/>
   <path id="_1_13" class="fil1" d="M16184.61 11462.75l890.13 628.36 -90.62 117.34 -890.13 -628.36 -4.99 -113.47 95.61 -3.87zm-90.62 117.34c-33.88,-23.91 -41.06,-69.58 -16.04,-101.98 25.02,-32.4 72.78,-39.27 106.66,-15.36l-90.62 117.34zm406.68 -264.92l-311.07 261.05 -100.6 -109.6 311.07 -261.05 95.87 -3.68 4.73 113.28zm-100.6 -109.6c31.66,-26.57 79.86,-23.57 107.63,6.69 27.77,30.26 24.63,76.34 -7.03,102.91l-100.6 -109.6zm820.05 694.06l-815.32 -580.78 91.14 -116.96 815.32 580.78 15.96 101.54 -107.1 15.42zm91.14 -116.96c33.77,24.05 40.74,69.75 15.58,102.04 -25.16,32.29 -72.95,38.97 -106.72,14.92l91.14 -116.96zm-343.36 324.05l236.26 -308.63 123.06 86.12 -236.26 308.63 -106.84 15.61 -16.22 -101.73zm123.06 86.12c-24.88,32.5 -72.6,39.57 -106.58,15.79 -33.98,-23.78 -41.36,-69.41 -16.48,-101.91l123.06 86.12z"/>
  </g>
  <rect class="fil3 str1" x="16470.09" y="8768.3" width="605.09" height="463.87"/>
  <g>
   <path class="fil1" d="M17318.58 8816l-243.4 0 0 -77.56 243.4 0 40.56 38.78 -40.56 38.78zm0 -77.56c22.4,0 40.56,17.37 40.56,38.78 0,21.41 -18.16,38.78 -40.56,38.78l0 -77.56zm-40.56 484.82l0 -446.04 81.12 0 0 446.04 -40.56 38.78 -40.56 -38.78zm81.12 0c0,21.41 -18.16,38.78 -40.56,38.78 -22.4,0 -40.56,-17.37 -40.56,-38.78l81.12 0zm-283.96 -38.78l243.4 0 0 77.56 -243.4 0 -40.56 -38.78 40.56 -38.78zm0 77.56c-22.4,0 -40.56,-17.37 -40.56,-38.78 0,-21.41 18.16,-38.78 40.56,-38.78l0 77.56zm40.56 -484.82l0 446.04 -81.12 0 0 -446.04 40.56 -38.78 40.56 38.78zm-81.12 0c0,-21.41 18.16,-38.78 40.56,-38.78 22.4,0 40.56,17.37 40.56,38.78l-81.12 0z"/>
  </g>
  <rect class="fil3 str1" x="19132.56" y="8758.3" width="762.53" height="463.87"/>
  <g>
   <polygon class="fil0" points="19520.44,6225.38 19907.26,6225.38 19907.26,9155.46 19520.44,9155.46 "/>
   <path id="_1_14" class="fil1" d="M19907.26 6293.7l-386.82 0 0 -136.64 386.82 0 72.53 68.32 -72.53 68.32zm0 -136.64c40.05,0 72.53,30.59 72.53,68.32 0,37.73 -32.48,68.32 -72.53,68.32l0 -136.64zm-72.53 2998.4l0 -2930.08 145.06 0 0 2930.08 -72.53 68.32 -72.53 -68.32zm145.06 0c0,37.73 -32.48,68.32 -72.53,68.32 -40.05,0 -72.53,-30.59 -72.53,-68.32l145.06 0zm-459.35 -68.32l386.82 0 0 136.64 -386.82 0 -72.53 -68.32 72.53 -68.32zm0 136.64c-40.05,0 -72.53,-30.59 -72.53,-68.32 0,-37.73 32.48,-68.32 72.53,-68.32l0 136.64zm72.53 -2998.4l0 2930.08 -145.06 0 0 -2930.08 72.53 -68.32 72.53 68.32zm-145.06 0c0,-37.73 32.48,-68.32 72.53,-68.32 40.05,0 72.53,30.59 72.53,68.32l-145.06 0z"/>
  </g>
  <g>
   <path class="fil1" d="M19132.57 8820.88l-243.4 0 0 -77.56 243.4 0 40.56 38.78 -40.56 38.78zm0 -77.56c22.4,0 40.56,17.37 40.56,38.78 0,21.41 -18.16,38.78 -40.56,38.78l0 -77.56zm-40.56 484.82l0 -446.04 81.12 0 0 446.04 -40.56 38.78 -40.56 -38.78zm81.12 0c0,21.41 -18.16,38.78 -40.56,38.78 -22.4,0 -40.56,-17.37 -40.56,-38.78l81.12 0zm-283.96 -38.78l243.4 0 0 77.56 -243.4 0 -40.56 -38.78 40.56 -38.78zm0 77.56c-22.4,0 -40.56,-17.37 -40.56,-38.78 0,-21.41 18.16,-38.78 40.56,-38.78l0 77.56zm40.56 -484.82l0 446.04 -81.12 0 0 -446.04 40.56 -38.78 40.56 38.78zm-81.12 0c0,-21.41 18.16,-38.78 40.56,-38.78 22.4,0 40.56,17.37 40.56,38.78l-81.12 0z"/>
  </g>
  <path class="fil4 str9" d="M18888.93 8970.05c-22.1,897.85 -629.01,1613.24 -1518.62,1870.01 0,-566.37 -12.13,-1263.62 -12.13,-1830.01"/>
  <text x="26829.58" y="11222.01"  class="fil5 fnt0">3.70</text>
  <text x="21417.21" y="9331.92"  class="fil5 fnt0">3.80</text>
  <text x="22757.8" y="25152.41"  class="fil5 fnt0">8.</text>
  <text x="24523.31" y="25152.41"  class="fil5 fnt0">0</text>
  <text x="23816.98" y="25152.41"  class="fil5 fnt0">1</text>
  <text x="12778.53" y="19293.49"  class="fil5 fnt0">14.00</text>
  <text x="16827.97" y="7979.74"  class="fil5 fnt0">0.60</text>
 </g>
</svg>
