<?xml version="1.0" encoding="UTF-8"?>
<!DOCTYPE svg PUBLIC "-//W3C//DTD SVG 1.1//EN" "http://www.w3.org/Graphics/SVG/1.1/DTD/svg11.dtd">
<!-- Creator: CorelDRAW -->
<svg xmlns="http://www.w3.org/2000/svg" xml:space="preserve" width="400mm" height="400mm" version="1.1" style="shape-rendering:geometricPrecision; text-rendering:geometricPrecision; image-rendering:optimizeQuality; fill-rule:evenodd; clip-rule:evenodd"
viewBox="0 0 40000 40000"
 xmlns:xlink="http://www.w3.org/1999/xlink"
 xmlns:xodm="http://www.corel.com/coreldraw/odm/2003">
 <defs>
  <style type="text/css">
   <![CDATA[
    .str26 {stroke:black;stroke-width:50;stroke-miterlimit:22.9256}
    .str27 {stroke:#1F1B20;stroke-width:16.9;stroke-miterlimit:22.9256}
    .str20 {stroke:#1F1B20;stroke-width:40;stroke-miterlimit:22.9256}
    .str21 {stroke:#3A3A3A;stroke-width:40;stroke-miterlimit:22.9256}
    .str23 {stroke:black;stroke-width:40;stroke-miterlimit:22.9256}
    .str22 {stroke:#2B2A29;stroke-width:25;stroke-miterlimit:22.9256}
    .str18 {stroke:black;stroke-width:20;stroke-miterlimit:22.9256}
    .str24 {stroke:#2B2A29;stroke-width:25.4;stroke-miterlimit:22.9256}
    .str12 {stroke:black;stroke-width:7.62;stroke-miterlimit:22.9256}
    .str19 {stroke:black;stroke-width:40;stroke-linecap:round;stroke-linejoin:round;stroke-miterlimit:22.9256}
    .str16 {stroke:black;stroke-width:30.73;stroke-linecap:round;stroke-linejoin:round;stroke-miterlimit:10}
    .str2 {stroke:black;stroke-width:61.45;stroke-linecap:round;stroke-linejoin:round;stroke-miterlimit:10}
    .str4 {stroke:black;stroke-width:61.45;stroke-linecap:round;stroke-linejoin:round;stroke-miterlimit:10}
    .str3 {stroke:black;stroke-width:92.18;stroke-linecap:round;stroke-linejoin:round;stroke-miterlimit:10}
    .str11 {stroke:black;stroke-width:97.73;stroke-linecap:round;stroke-linejoin:round;stroke-miterlimit:10}
    .str13 {stroke:black;stroke-width:13.81;stroke-linecap:round;stroke-linejoin:round;stroke-miterlimit:10}
    .str8 {stroke:black;stroke-width:67.62;stroke-linecap:round;stroke-linejoin:round;stroke-miterlimit:10}
    .str6 {stroke:black;stroke-width:55.28;stroke-linecap:round;stroke-linejoin:round;stroke-miterlimit:10}
    .str25 {stroke:black;stroke-width:55.28;stroke-linecap:round;stroke-linejoin:round;stroke-miterlimit:10}
    .str10 {stroke:black;stroke-width:55.28;stroke-linecap:round;stroke-linejoin:round;stroke-miterlimit:10}
    .str5 {stroke:black;stroke-width:124.4;stroke-linecap:round;stroke-linejoin:round;stroke-miterlimit:10}
    .str17 {stroke:black;stroke-width:124.4;stroke-linecap:round;stroke-linejoin:round;stroke-miterlimit:10}
    .str15 {stroke:black;stroke-width:124.4;stroke-linecap:round;stroke-linejoin:round;stroke-miterlimit:10}
    .str14 {stroke:black;stroke-width:193.53;stroke-linecap:round;stroke-linejoin:round;stroke-miterlimit:10}
    .str0 {stroke:black;stroke-width:193.53;stroke-linecap:round;stroke-linejoin:round;stroke-miterlimit:10}
    .str9 {stroke:black;stroke-width:16.9;stroke-linecap:round;stroke-linejoin:round;stroke-miterlimit:10}
    .str7 {stroke:black;stroke-width:16.9;stroke-linecap:round;stroke-linejoin:round;stroke-miterlimit:10}
    .str1 {stroke:black;stroke-width:96.75;stroke-linecap:round;stroke-linejoin:round;stroke-miterlimit:10}
    .fil5 {fill:none}
    .fil1 {fill:none;fill-rule:nonzero}
    .fil3 {fill:black}
    .fil4 {fill:black}
    .fil2 {fill:black;fill-rule:nonzero}
    .fil0 {fill:black;fill-rule:nonzero}
    .fnt0 {font-weight:normal;font-size:921.65px;font-family:'Arial'}
   ]]>
  </style>
 </defs>
 <g id="Слой_x0020_1">
  <metadata id="CorelCorpID_0Corel-Layer"/>
  <polygon class="fil0 str0" points="7648.4,4004.48 9459.17,4004.48 9459.17,4529.75 7648.4,4529.75 "/>
  <line class="fil1 str1" x1="9422.3" y1="4605.47" x2="14177.28" y2= "4605.47" />
  <polygon class="fil1 str1" points="13928.47,3693.18 9671.11,3693.18 9671.11,3872.87 13928.47,3872.87 "/>
  <polygon class="fil1 str1" points="9671.11,3693.18 9491.42,3693.18 9491.42,3872.87 9671.11,3872.87 "/>
  <polygon class="fil1 str1" points="13928.47,3693.18 14108.15,3693.18 14108.15,3872.87 13928.47,3872.87 "/>
  <g>
   <path class="fil2" d="M9560.51 3460.5c-27.44,0 -49.7,-21.66 -49.7,-48.37 0,-26.71 22.26,-48.37 49.7,-48.37l0 96.74zm4601.69 0l-4601.69 0 0 -96.74 4601.69 0 0 96.74zm0 -96.74c27.44,0 49.7,21.66 49.7,48.37 0,26.71 -22.26,48.37 -49.7,48.37l0 -96.74z"/>
  </g>
  <g>
   <polygon class="fil0" points="7611.53,21747.02 7611.53,29281.33 7072.45,29281.33 7072.45,21747.02 "/>
   <path id="_1" class="fil2" d="M7580.8 29281.33l0 -7534.31 61.46 0 0 7534.31 -30.73 37.3 -30.73 -37.3zm61.46 0c0,20.6 -13.76,37.3 -30.73,37.3 -16.97,0 -30.73,-16.7 -30.73,-37.3l61.46 0zm-569.81 -37.3l539.08 0 0 74.6 -539.08 0 -30.73 -37.3 30.73 -37.3zm0 74.6c-16.97,0 -30.73,-16.7 -30.73,-37.3 0,-20.6 13.76,-37.3 30.73,-37.3l0 74.6zm30.73 -7571.61l0 7534.31 -61.46 0 0 -7534.31 30.73 -37.3 30.73 37.3zm-61.46 0c0,-20.6 13.76,-37.3 30.73,-37.3 16.97,0 30.73,16.7 30.73,37.3l-61.46 0zm569.81 37.3l-539.08 0 0 -74.6 539.08 0 30.73 37.3 -30.73 37.3zm0 -74.6c16.97,0 30.73,16.7 30.73,37.3 0,20.6 -13.76,37.3 -30.73,37.3l0 -74.6z"/>
  </g>
  <polygon class="fil0 str2" points="10555.74,28753.55 10555.74,29278.78 7611.53,29278.78 7611.53,28753.55 "/>
  <polygon class="fil0 str2" points="16319.76,34420.78 18006.12,34420.78 18006.12,34959.86 16319.76,34959.86 "/>
  <g id="_2322288860848">
   <line class="fil1 str1" x1="18006.12" y1="34420.78" x2="22747.26" y2= "34420.78" />
   <polygon class="fil1 str1" points="22498.45,35346.92 18254.93,35346.92 18254.93,35167.2 22498.45,35167.2 "/>
   <polygon class="fil1 str1" points="18254.93,35346.92 18075.25,35346.92 18075.25,35167.2 18254.93,35167.2 "/>
   <polygon class="fil1 str1" points="22498.45,35346.92 22691.98,35346.92 22691.98,35167.2 22498.45,35167.2 "/>
   <line class="fil1 str1" x1="18130.53" y1="35664.82" x2="22622.85" y2= "35664.82" />
  </g>
  <g>
   <polygon class="fil0" points="22747.26,34959.86 24772.54,34959.86 24772.54,34420.78 22747.26,34420.78 "/>
   <path id="_1_0" class="fil2" d="M24772.54 34987.88l-2025.28 0 0 -56.04 2025.28 0 32.58 28.02 -32.58 28.02zm0 -56.04c17.99,0 32.58,12.55 32.58,28.02 0,15.47 -14.59,28.02 -32.58,28.02l0 -56.04zm32.58 -511.06l0 539.08 -65.16 0 0 -539.08 32.58 -28.02 32.58 28.02zm-65.16 0c0,-15.47 14.59,-28.02 32.58,-28.02 17.99,0 32.58,12.55 32.58,28.02l-65.16 0zm-1992.7 -28.02l2025.28 0 0 56.04 -2025.28 0 -32.58 -28.02 32.58 -28.02zm0 56.04c-17.99,0 -32.58,-12.55 -32.58,-28.02 0,-15.47 14.59,-28.02 32.58,-28.02l0 56.04zm-32.58 511.06l0 -539.08 65.16 0 0 539.08 -32.58 28.02 -32.58 -28.02zm65.16 0c0,15.47 -14.59,28.02 -32.58,28.02 -17.99,0 -32.58,-12.55 -32.58,-28.02l65.16 0z"/>
  </g>
  <polygon class="fil0 str3" points="22747.26,35346.92 26714.35,35346.92 26714.35,34959.86 22747.26,34959.86 "/>
  <polygon class="fil0 str4" points="22622.85,35689.4 26838.75,35689.4 26838.75,35371.5 22622.85,35371.5 "/>
  <g>
   <polygon class="fil0" points="16332.05,15953.83 21042.92,15953.83 21042.92,16479.06 16332.05,16479.06 "/>
   <path id="_1_1" class="fil2" d="M21042.92 16016.03l-4710.87 0 0 -124.4 4710.87 0 32.22 62.2 -32.22 62.2zm0 -124.4c17.79,0 32.22,27.85 32.22,62.2 0,34.35 -14.43,62.2 -32.22,62.2l0 -124.4zm-32.22 587.43l0 -525.23 64.44 0 0 525.23 -32.22 62.2 -32.22 -62.2zm64.44 0c0,34.35 -14.43,62.2 -32.22,62.2 -17.79,0 -32.22,-27.85 -32.22,-62.2l64.44 0zm-4743.09 -62.2l4710.87 0 0 124.4 -4710.87 0 -32.22 -62.2 32.22 -62.2zm0 124.4c-17.79,0 -32.22,-27.85 -32.22,-62.2 0,-34.35 14.43,-62.2 32.22,-62.2l0 124.4zm32.22 -587.43l0 525.23 -64.44 0 0 -525.23 32.22 -62.2 32.22 62.2zm-64.44 0c0,-34.35 14.43,-62.2 32.22,-62.2 17.79,0 32.22,27.85 32.22,62.2l-64.44 0z"/>
  </g>
  <g>
   <polygon class="fil0" points="16319.76,4064.17 16319.76,16417.61 15780.68,16417.61 15780.68,4064.17 "/>
   <path id="_1_2" class="fil2" d="M16257.56 16417.61l0 -12353.44 124.4 0 0 12353.44 -62.2 121.38 -62.2 -121.38zm124.4 0c0,67.03 -27.85,121.38 -62.2,121.38 -34.35,0 -62.2,-54.35 -62.2,-121.38l124.4 0zm-601.28 -121.38l539.08 0 0 242.76 -539.08 0 -62.2 -121.38 62.2 -121.38zm0 242.76c-34.35,0 -62.2,-54.35 -62.2,-121.38 0,-67.03 27.85,-121.38 62.2,-121.38l0 242.76zm62.2 -12474.82l0 12353.44 -124.4 0 0 -12353.44 62.2 -121.38 62.2 121.38zm-124.4 0c0,-67.03 27.85,-121.38 62.2,-121.38 34.35,0 62.2,54.35 62.2,121.38l-124.4 0zm601.28 121.38l-539.08 0 0 -242.76 539.08 0 62.2 121.38 -62.2 121.38zm0 -242.76c34.35,0 62.2,54.35 62.2,121.38 0,67.03 -27.85,121.38 -62.2,121.38l0 -242.76z"/>
  </g>
  <polygon class="fil0 str5" points="16319.76,5407.17 16319.76,8835.18 15780.68,8835.18 15780.68,5407.17 "/>
  <g id="_2322288858016">
   <polygon class="fil0 str5" points="7611.53,11834.67 12463.26,11834.67 12463.26,13424.29 12200.64,13424.29 12200.64,12111.14 7611.53,12111.14 "/>
   <polygon class="fil0 str5" points="12200.64,17667.81 7611.53,17667.81 7611.53,17930.43 12200.64,17930.43 "/>
   <polygon class="fil0 str5" points="12463.26,15566.77 12200.64,15566.77 12200.64,18041.02 12463.26,18041.02 "/>
   <polygon class="fil0 str5" points="7611.53,20708.77 12463.26,20708.77 12463.26,20183.54 12200.64,20183.54 12200.64,20446.15 7611.53,20446.15 "/>
  </g>
  <polygon class="fil1 str6" points="12463.26,18179.24 12463.26,18041.02 12200.64,18041.02 12200.64,18179.24 "/>
  <polygon class="fil1 str6" points="12463.26,20183.54 12463.26,20045.29 12200.64,20045.29 12200.64,20183.54 "/>
  <polygon class="fil1 str6" points="12463.26,15566.77 12463.26,15428.56 12200.64,15428.56 12200.64,15566.77 "/>
  <g id="_2322292444432">
   <polygon class="fil0 str5" points="12463.26,12995.77 12463.26,13272.23 12905.59,13272.23 12905.59,12995.77 "/>
   <polygon class="fil0 str5" points="15310.72,12995.77 15310.72,13272.23 15780.68,13272.23 15780.68,12995.77 "/>
  </g>
  <g id="_2322292444096">
   <line class="fil1 str7" x1="9539.14" y1="26976.44" x2="9539.14" y2= "25353.19" />
   <polygon class="fil1 str8" points="7611.53,25353.19 7611.53,26976.44 9539.14,26976.44 9539.14,25353.19 "/>
   <polygon class="fil1 str8" points="9454.62,25454.64 9454.62,26874.99 8034.28,26874.99 8034.28,25454.64 "/>
   <line class="fil1 str7" x1="9454.62" y1="25454.64" x2="9234.78" y2= "25674.45" />
   <line class="fil1 str7" x1="8964.25" y1="25944.97" x2="8524.61" y2= "26384.62" />
   <line class="fil1 str7" x1="8254.08" y1="26655.15" x2="8034.28" y2= "26874.99" />
   <line class="fil1 str7" x1="8034.28" y1="25454.64" x2="8254.08" y2= "25674.45" />
   <line class="fil1 str7" x1="8524.61" y1="25944.97" x2="8964.25" y2= "26384.62" />
   <line class="fil1 str7" x1="9234.78" y1="26655.15" x2="9454.62" y2= "26874.99" />
   <line class="fil1 str7" x1="8034.28" y1="26164.82" x2="9454.62" y2= "26164.82" />
   <line class="fil1 str7" x1="8744.45" y1="25454.64" x2="8744.45" y2= "26874.99" />
   <line class="fil1 str7" x1="8034.28" y1="26164.82" x2="8254.08" y2= "26384.62" />
   <line class="fil1 str7" x1="8524.61" y1="26655.15" x2="8744.45" y2= "26874.99" />
   <line class="fil1 str7" x1="8744.45" y1="25454.64" x2="8964.25" y2= "25674.45" />
   <polyline class="fil1 str7" points="9234.78,25944.97 9454.62,26164.82 9234.78,26384.62 "/>
   <line class="fil1 str7" x1="8964.25" y1="26655.15" x2="8744.45" y2= "26874.99" />
   <line class="fil1 str7" x1="8744.45" y1="25454.64" x2="8524.61" y2= "25674.45" />
   <line class="fil1 str7" x1="8254.08" y1="25944.97" x2="8034.28" y2= "26164.82" />
   <path class="fil1 str9" d="M8321.74 25801.26c0,32.67 26.48,59.2 59.16,59.2 32.67,0 59.19,-26.53 59.19,-59.2 0,-32.67 -26.52,-59.19 -59.19,-59.19 -32.68,0 -59.16,26.52 -59.16,59.19z"/>
   <path class="fil1 str9" d="M8321.74 26511.43c0,32.68 26.48,59.2 59.16,59.2 32.67,0 59.19,-26.52 59.19,-59.2 0,-32.67 -26.52,-59.19 -59.19,-59.19 -32.68,0 -59.16,26.52 -59.16,59.19z"/>
   <path class="fil1 str9" d="M9031.91 25801.26c0,32.67 26.48,59.2 59.16,59.2 32.67,0 59.19,-26.53 59.19,-59.2 0,-32.67 -26.52,-59.19 -59.19,-59.19 -32.68,0 -59.16,26.52 -59.16,59.19z"/>
   <path class="fil1 str9" d="M9031.91 26511.43c0,32.68 26.48,59.2 59.16,59.2 32.67,0 59.19,-26.52 59.19,-59.2 0,-32.67 -26.52,-59.19 -59.19,-59.19 -32.68,0 -59.16,26.52 -59.16,59.19z"/>
   <line class="fil1 str8" x1="7932.82" y1="25353.19" x2="7932.82" y2= "26976.44" />
   <line class="fil1 str7" x1="7898.99" y1="25437.71" x2="7898.99" y2= "26891.88" />
   <polyline class="fil1 str7" points="7628.47,26891.88 7628.47,25437.71 7898.99,25437.71 "/>
   <line class="fil1 str7" x1="7628.47" y1="25606.82" x2="7898.99" y2= "25606.82" />
   <line class="fil1 str7" x1="7628.47" y1="25522.27" x2="7898.99" y2= "25522.27" />
   <line class="fil1 str7" x1="7628.47" y1="25674.45" x2="7898.99" y2= "25674.45" />
   <line class="fil1 str7" x1="7628.47" y1="25759" x2="7898.99" y2= "25759" />
   <line class="fil1 str7" x1="7628.47" y1="25928.08" x2="7898.99" y2= "25928.08" />
   <line class="fil1 str7" x1="7628.47" y1="25843.52" x2="7898.99" y2= "25843.52" />
   <line class="fil1 str7" x1="7628.47" y1="25995.7" x2="7898.99" y2= "25995.7" />
   <line class="fil1 str7" x1="7628.47" y1="26080.26" x2="7898.99" y2= "26080.26" />
   <line class="fil1 str7" x1="7628.47" y1="26249.33" x2="7898.99" y2= "26249.33" />
   <line class="fil1 str7" x1="7628.47" y1="26164.82" x2="7898.99" y2= "26164.82" />
   <line class="fil1 str7" x1="7628.47" y1="26317" x2="7898.99" y2= "26317" />
   <line class="fil1 str7" x1="7628.47" y1="26401.51" x2="7898.99" y2= "26401.51" />
   <line class="fil1 str7" x1="7628.47" y1="26570.63" x2="7898.99" y2= "26570.63" />
   <line class="fil1 str7" x1="7628.47" y1="26486.07" x2="7898.99" y2= "26486.07" />
   <line class="fil1 str7" x1="7628.47" y1="26655.15" x2="7898.99" y2= "26655.15" />
   <line class="fil1 str7" x1="7628.47" y1="26722.81" x2="7898.99" y2= "26722.81" />
   <line class="fil1 str7" x1="7628.47" y1="26891.88" x2="7898.99" y2= "26891.88" />
   <line class="fil1 str7" x1="7628.47" y1="26807.33" x2="7898.99" y2= "26807.33" />
   <line class="fil1 str7" x1="9572.97" y1="25843.52" x2="9606.8" y2= "25843.52" />
   <path class="fil1 str9" d="M9564.5 25860.46c14.02,0 25.37,-11.39 25.37,-25.37 0,-14.02 -11.35,-25.36 -25.37,-25.36"/>
   <polyline class="fil1 str7" points="9539.14,25792.79 9572.97,25792.79 9572.97,25843.52 9572.97,25877.35 9539.14,25877.35 "/>
   <line class="fil1 str7" x1="9572.97" y1="26164.82" x2="9606.8" y2= "26164.82" />
   <path class="fil1 str9" d="M9564.5 26181.71c14.02,0 25.37,-11.34 25.37,-25.36 0,-14.02 -11.35,-25.37 -25.37,-25.37"/>
   <polyline class="fil1 str7" points="9539.14,26114.09 9572.97,26114.09 9572.97,26164.82 9572.97,26198.61 9539.14,26198.61 "/>
   <line class="fil1 str7" x1="9572.97" y1="26486.07" x2="9606.8" y2= "26486.07" />
   <path class="fil1 str9" d="M9564.5 26502.97c14.02,0 25.37,-11.35 25.37,-25.37 0,-14.02 -11.35,-25.36 -25.37,-25.36"/>
   <polyline class="fil1 str7" points="9539.14,26435.34 9572.97,26435.34 9572.97,26486.07 9572.97,26519.9 9539.14,26519.9 "/>
   <line class="fil1 str7" x1="9572.97" y1="25995.7" x2="9606.8" y2= "25995.7" />
   <path class="fil1 str9" d="M9564.5 26012.64c14.02,0 25.37,-11.39 25.37,-25.37 0,-14.02 -11.35,-25.36 -25.37,-25.36"/>
   <polyline class="fil1 str7" points="9539.14,25961.91 9572.97,25961.91 9572.97,25995.7 9572.97,26046.43 9539.14,26046.43 "/>
   <line class="fil1 str7" x1="9572.97" y1="26317" x2="9606.8" y2= "26317" />
   <path class="fil1 str9" d="M9564.5 26333.89c14.02,0 25.37,-11.34 25.37,-25.36 0,-14.02 -11.35,-25.37 -25.37,-25.37"/>
   <polyline class="fil1 str7" points="9539.14,26283.16 9572.97,26283.16 9572.97,26317 9572.97,26367.72 9539.14,26367.72 "/>
  </g>
  <text x="9076.42" y="32065.74"  class="fil3 fnt0">3.20 (1.60)</text>
  <polygon class="fil0 str5" points="18006.12,34959.86 15780.68,34959.86 15780.68,29278.78 14522.83,29278.78 14522.83,29679.65 15393.65,29679.65 15393.65,35346.92 15462.78,35346.92 18006.12,35346.92 18006.12,35084.27 "/>
  <polygon class="fil0 str5" points="18130.53,35346.92 18130.53,35664.82 15158.66,35664.82 15075.72,35664.82 15075.72,29997.58 14384.62,29997.58 14384.62,29679.65 15393.65,29679.65 15393.65,35346.92 "/>
  <polyline class="fil1 str1" points="14522.83,28753.55 12435.63,28753.55 12435.63,29997.58 "/>
  <polygon class="fil1 str1" points="12615.32,29679.65 14329.3,29679.65 14329.3,29499.97 12615.32,29499.97 "/>
  <polygon class="fil1 str1" points="14329.3,29679.65 14522.83,29679.65 14522.83,29499.97 14329.3,29499.97 "/>
  <line class="fil1 str1" x1="14384.62" y1="29997.58" x2="12435.63" y2= "29997.58" />
  <polygon class="fil1 str1" points="12615.32,29679.65 12435.63,29679.65 12435.63,29499.97 12615.32,29499.97 "/>
  <g>
   <polygon class="fil0" points="15768.39,28753.55 15768.39,29278.78 14556.89,29278.78 14556.89,28753.55 "/>
   <path id="_1_3" class="fil2" d="M15675.19 29278.78l0 -525.23 186.4 0 0 525.23 -93.2 96.76 -93.2 -96.76zm186.4 0c0,53.43 -41.73,96.76 -93.2,96.76 -51.47,0 -93.2,-43.33 -93.2,-96.76l186.4 0zm-1304.7 -96.76l1211.5 0 0 193.52 -1211.5 0 -93.2 -96.76 93.2 -96.76zm0 193.52c-51.47,0 -93.2,-43.33 -93.2,-96.76 0,-53.43 41.73,-96.76 93.2,-96.76l0 193.52zm93.2 -621.99l0 525.23 -186.4 0 0 -525.23 93.2 -96.76 93.2 96.76zm-186.4 0c0,-53.43 41.73,-96.76 93.2,-96.76 51.47,0 93.2,43.33 93.2,96.76l-186.4 0zm1304.7 96.76l-1211.5 0 0 -193.52 1211.5 0 93.2 96.76 -93.2 96.76zm0 -193.52c51.47,0 93.2,43.33 93.2,96.76 0,53.43 -41.73,96.76 -93.2,96.76l0 -193.52z"/>
  </g>
  <g>
   <polygon class="fil0" points="15005.35,20696.48 15956.47,20696.48 15956.47,20433.86 15005.35,20433.86 "/>
   <path id="_1_4" class="fil2" d="M15956.47 20758.68l-951.12 0 0 -124.4 951.12 0 112.63 62.2 -112.63 62.2zm0 -124.4c62.2,0 112.63,27.85 112.63,62.2 0,34.35 -50.43,62.2 -112.63,62.2l0 -124.4zm112.63 -200.42l0 262.62 -225.26 0 0 -262.62 112.63 -62.2 112.63 62.2zm-225.26 0c0,-34.35 50.43,-62.2 112.63,-62.2 62.2,0 112.63,27.85 112.63,62.2l-225.26 0zm-838.49 -62.2l951.12 0 0 124.4 -951.12 0 -112.63 -62.2 112.63 -62.2zm0 124.4c-62.2,0 -112.63,-27.85 -112.63,-62.2 0,-34.35 50.43,-62.2 112.63,-62.2l0 124.4zm-112.63 200.42l0 -262.62 225.26 0 0 262.62 -112.63 62.2 -112.63 -62.2zm225.26 0c0,34.35 -50.43,62.2 -112.63,62.2 -62.2,0 -112.63,-27.85 -112.63,-62.2l225.26 0z"/>
  </g>
  <polygon class="fil1 str10" points="12636.82,20446.15 12512.42,20446.15 12512.42,20708.77 12636.82,20708.77 "/>
  <polygon class="fil1 str6" points="14868.39,20446.15 14730.17,20446.15 14730.17,20708.77 14868.39,20708.77 "/>
  <text x="13079.54" y="26332.64"  class="fil3 fnt0">8.80</text>
  <text x="10356.94" y="19581.01"  class="fil3 fnt0">1.60</text>
  <text x="9577.5" y="15100.51"  class="fil3 fnt0">3.60</text>
  <polygon class="fil1 str6" points="13043.8,12995.77 12905.59,12995.77 12905.59,13272.23 13043.8,13272.23 "/>
  <polygon class="fil1 str6" points="15310.72,12995.77 15172.5,12995.77 15172.5,13272.23 15310.72,13272.23 "/>
  <g>
   <polygon class="fil0" points="24772.54,34420.78 26714.35,34420.78 26714.35,34959.86 24772.54,34959.86 "/>
   <path id="_1_5" class="fil2" d="M26714.35 34447.51l-1941.81 0 0 -53.46 1941.81 0 30.77 26.73 -30.77 26.73zm0 -53.46c16.99,0 30.77,11.97 30.77,26.73 0,14.76 -13.78,26.73 -30.77,26.73l0 -53.46zm-30.77 565.81l0 -539.08 61.54 0 0 539.08 -30.77 26.73 -30.77 -26.73zm61.54 0c0,14.76 -13.78,26.73 -30.77,26.73 -16.99,0 -30.77,-11.97 -30.77,-26.73l61.54 0zm-1972.58 -26.73l1941.81 0 0 53.46 -1941.81 0 -30.77 -26.73 30.77 -26.73zm0 53.46c-16.99,0 -30.77,-11.97 -30.77,-26.73 0,-14.76 13.78,-26.73 30.77,-26.73l0 53.46zm30.77 -565.81l0 539.08 -61.54 0 0 -539.08 30.77 -26.73 30.77 26.73zm-61.54 0c0,-14.76 13.78,-26.73 30.77,-26.73 16.99,0 30.77,11.97 30.77,26.73l-61.54 0z"/>
  </g>
  <line class="fil1 str11" x1="26780.76" y1="34420.78" x2="31569.86" y2= "34420.78" />
  <g>
   <path class="fil2" d="M26956.56 35307.43l4361.97 0 0 97.72 -4361.97 0 -49.72 -48.86 49.72 -48.86zm0 97.72c-27.45,0 -49.72,-21.88 -49.72,-48.86 0,-26.98 22.27,-48.86 49.72,-48.86l0 97.72zm49.72 -230.4l0 181.54 -99.44 0 0 -181.54 49.72 -48.86 49.72 48.86zm-99.44 0c0,-26.98 22.27,-48.86 49.72,-48.86 27.45,0 49.72,21.88 49.72,48.86l-99.44 0zm4411.69 48.86l-4361.97 0 0 -97.72 4361.97 0 49.72 48.86 -49.72 48.86zm0 -97.72c27.45,0 49.72,21.88 49.72,48.86 0,26.98 -22.27,48.86 -49.72,48.86l0 -97.72zm-49.72 230.4l0 -181.54 99.44 0 0 181.54 -49.72 48.86 -49.72 -48.86zm99.44 0c0,26.98 -22.27,48.86 -49.72,48.86 -27.45,0 -49.72,-21.88 -49.72,-48.86l99.44 0z"/>
  </g>
  <g>
   <path class="fil2" d="M26775.06 35309.22l181.5 0 0 97.72 -181.5 0 -48.86 -48.86 48.86 -48.86zm0 97.72c-26.98,0 -48.86,-21.88 -48.86,-48.86 0,-26.98 21.88,-48.86 48.86,-48.86l0 97.72zm48.86 -230.39l0 181.53 -97.72 0 0 -181.53 48.86 -48.86 48.86 48.86zm-97.72 0c0,-26.98 21.88,-48.86 48.86,-48.86 26.98,0 48.86,21.88 48.86,48.86l-97.72 0zm230.36 48.86l-181.5 0 0 -97.72 181.5 0 48.86 48.86 -48.86 48.86zm0 -97.72c26.98,0 48.86,21.88 48.86,48.86 0,26.98 -21.88,48.86 -48.86,48.86l0 -97.72zm-48.86 230.39l0 -181.53 97.72 0 0 181.53 -48.86 48.86 -48.86 -48.86zm97.72 0c0,26.98 -21.88,48.86 -48.86,48.86 -26.98,0 -48.86,-21.88 -48.86,-48.86l97.72 0z"/>
  </g>
  <polygon class="fil1 str11" points="31318.53,35356.29 31514.02,35356.29 31514.02,35174.75 31318.53,35174.75 "/>
  <line class="fil1 str11" x1="26906.42" y1="35677.4" x2="31444.2" y2= "35677.4" />
  <g>
   <polygon class="fil0" points="31553.81,35700.6 33784.54,35700.6 33784.54,34383.91 31553.81,34383.91 "/>
   <polygon id="_1_6" class="fil1 str12" points="31553.81,35700.6 33784.54,35700.6 33784.54,34383.91 31553.81,34383.91 "/>
  </g>
  <g>
   <path class="fil2" d="M15780.68 4170.98l-1603.4 0 0 -181.54 1603.4 0 96.76 90.77 -96.76 90.77zm0 -181.54c53.43,0 96.76,40.64 96.76,90.77 0,50.13 -43.33,90.77 -96.76,90.77l0 -181.54zm-96.76 583.52l0 -492.75 193.52 0 0 492.75 -96.76 90.77 -96.76 -90.77zm193.52 0c0,50.13 -43.33,90.77 -96.76,90.77 -53.43,0 -96.76,-40.64 -96.76,-90.77l193.52 0zm-1700.16 -90.77l1603.4 0 0 181.54 -1603.4 0 -96.76 -90.77 96.76 -90.77zm0 181.54c-53.43,0 -96.76,-40.64 -96.76,-90.77 0,-50.13 43.33,-90.77 96.76,-90.77l0 181.54zm96.76 -583.52l0 492.75 -193.52 0 0 -492.75 96.76 -90.77 96.76 90.77zm-193.52 0c0,-50.13 43.33,-90.77 96.76,-90.77 53.43,0 96.76,40.64 96.76,90.77l-193.52 0z"/>
  </g>
  <text x="8876.02" y="6825.61"  class="fil3 fnt0">8.90</text>
  <g>
   <polygon class="fil0" points="7084.74,21942.43 7084.74,10620.06 7607.52,10620.06 7607.52,21942.43 "/>
   <path id="_1_7" class="fil2" d="M7111.84 10620.06l0 11322.37 -54.2 0 0 -11322.37 27.1 -30.73 27.1 30.73zm-54.2 0c0,-16.97 12.14,-30.73 27.1,-30.73 14.96,0 27.1,13.76 27.1,30.73l-54.2 0zm549.88 30.73l-522.78 0 0 -61.46 522.78 0 27.1 30.73 -27.1 30.73zm0 -61.46c14.96,0 27.1,13.76 27.1,30.73 0,16.97 -12.14,30.73 -27.1,30.73l0 -61.46zm-27.1 11353.1l0 -11322.37 54.2 0 0 11322.37 -27.1 30.73 -27.1 -30.73zm54.2 0c0,16.97 -12.14,30.73 -27.1,30.73 -14.96,0 -27.1,-13.76 -27.1,-30.73l54.2 0zm-549.88 -30.73l522.78 0 0 61.46 -522.78 0 -27.1 -30.73 27.1 -30.73zm0 61.46c-14.96,0 -27.1,-13.76 -27.1,-30.73 0,-16.97 12.14,-30.73 27.1,-30.73l0 61.46z"/>
  </g>
  <g>
   <polygon class="fil0" points="7610.09,3432.84 7610.09,10872.9 7070.96,10872.9 7070.96,3432.84 "/>
   <path id="_1_8" class="fil2" d="M7582.14 10872.9l0 -7440.06 55.9 0 0 7440.06 -27.95 60.66 -27.95 -60.66zm55.9 0c0,33.5 -12.52,60.66 -27.95,60.66 -15.43,0 -27.95,-27.16 -27.95,-60.66l55.9 0zm-567.08 -60.66l539.13 0 0 121.32 -539.13 0 -27.95 -60.66 27.95 -60.66zm0 121.32c-15.43,0 -27.95,-27.16 -27.95,-60.66 0,-33.5 12.52,-60.66 27.95,-60.66l0 121.32zm27.95 -7500.72l0 7440.06 -55.9 0 0 -7440.06 27.95 -60.66 27.95 60.66zm-55.9 0c0,-33.5 12.52,-60.66 27.95,-60.66 15.43,0 27.95,27.16 27.95,60.66l-55.9 0zm567.08 60.66l-539.13 0 0 -121.32 539.13 0 27.95 60.66 -27.95 60.66zm0 -121.32c15.43,0 27.95,27.16 27.95,60.66 0,33.5 -12.52,60.66 -27.95,60.66l0 -121.32z"/>
  </g>
  <line class="fil1 str13" x1="7072.45" y1="20653.49" x2="7141.57" y2= "20584.37" />
  <path class="fil0" d="M7238.32 20487.62l0 -6.92c-3.82,0 -6.92,3.1 -6.92,6.92 0,3.82 3.1,6.92 6.92,6.92 3.82,0 6.92,-3.1 6.92,-6.92 0,-3.82 -3.1,-6.92 -6.92,-6.92l0 6.92z"/>
  <path class="fil0" d="M7100.11 20985.23l0 -6.92c-3.82,0 -6.93,3.1 -6.93,6.92 0,3.82 3.11,6.93 6.93,6.93 3.82,0 6.92,-3.11 6.92,-6.93 0,-3.82 -3.1,-6.92 -6.92,-6.92l0 6.92z"/>
  <line class="fil1 str13" x1="7183.04" y1="20888.49" x2="7611.53" y2= "20473.81" />
  <line class="fil1 str13" x1="7072.45" y1="21358.44" x2="7500.97" y2= "20929.95" />
  <path class="fil0" d="M7583.91 20847.02l0 -6.92c-3.82,0 -6.93,3.1 -6.93,6.92 0,3.82 3.11,6.92 6.93,6.92 3.82,0 6.92,-3.1 6.92,-6.92 0,-3.82 -3.1,-6.92 -6.92,-6.92l0 6.92z"/>
  <line class="fil1 str13" x1="7072.45" y1="21717.84" x2="7362.72" y2= "21427.57" />
  <path class="fil0" d="M7459.5 21330.79l0 -6.92c-3.82,0 -6.92,3.1 -6.92,6.92 0,3.82 3.1,6.92 6.92,6.92 3.82,0 6.93,-3.1 6.93,-6.92 0,-3.82 -3.11,-6.92 -6.93,-6.92l0 6.92z"/>
  <line class="fil1 str13" x1="7542.44" y1="21247.85" x2="7611.53" y2= "21178.76" />
  <line class="fil1 str13" x1="7418.04" y1="21731.65" x2="7611.53" y2= "21538.13" />
  <polygon class="fil0 str14" points="16319.76,34959.86 15780.68,34959.86 15780.68,33632.9 16319.76,33632.9 "/>
  <line class="fil1 str13" x1="15780.68" y1="33840.23" x2="15849.8" y2= "33771.14" />
  <path class="fil0" d="M15946.55 33688.21l0 -6.92c-3.82,0 -6.93,3.1 -6.93,6.92 0,3.82 3.11,6.92 6.93,6.92 3.82,0 6.92,-3.1 6.92,-6.92 0,-3.82 -3.1,-6.92 -6.92,-6.92l0 6.92z"/>
  <path class="fil0" d="M15808.33 34171.98l0 -6.93c-3.82,0 -6.92,3.11 -6.92,6.93 0,3.82 3.1,6.92 6.92,6.92 3.82,0 6.92,-3.1 6.92,-6.92 0,-3.82 -3.1,-6.93 -6.92,-6.93l0 6.93z"/>
  <line class="fil1 str13" x1="15891.27" y1="34089.04" x2="16319.76" y2= "33674.36" />
  <line class="fil1 str13" x1="15780.68" y1="34545.19" x2="16209.2" y2= "34130.51" />
  <path class="fil0" d="M16292.13 34033.76l0 -6.92c-3.82,0 -6.92,3.1 -6.92,6.92 0,3.82 3.1,6.92 6.92,6.92 3.82,0 6.93,-3.1 6.93,-6.92 0,-3.82 -3.11,-6.92 -6.93,-6.92l0 6.92z"/>
  <line class="fil1 str13" x1="15780.68" y1="34904.58" x2="16070.95" y2= "34614.31" />
  <path class="fil0" d="M16167.73 34531.37l0 -6.92c-3.82,0 -6.92,3.1 -6.92,6.92 0,3.83 3.1,6.93 6.92,6.93 3.82,0 6.92,-3.1 6.92,-6.93 0,-3.82 -3.1,-6.92 -6.92,-6.92l0 6.92z"/>
  <line class="fil1 str13" x1="16250.67" y1="34434.63" x2="16319.76" y2= "34379.32" />
  <line class="fil1 str13" x1="16126.26" y1="34932.24" x2="16319.76" y2= "34738.71" />
  <polygon class="fil0 str14" points="16319.76,29278.78 16319.76,33632.9 15780.68,33632.9 15780.68,29278.78 "/>
  <g>
   <polygon class="fil0" points="15756.09,20440.93 16018.74,20440.93 16018.74,29146.67 15756.09,29146.67 "/>
   <path id="_1_9" class="fil2" d="M16018.74 20518.35l-262.65 0 0 -154.84 262.65 0 62.2 77.42 -62.2 77.42zm0 -154.84c34.35,0 62.2,34.67 62.2,77.42 0,42.75 -27.85,77.42 -62.2,77.42l0 -154.84zm-62.2 8783.16l0 -8705.74 124.4 0 0 8705.74 -62.2 77.42 -62.2 -77.42zm124.4 0c0,42.75 -27.85,77.42 -62.2,77.42 -34.35,0 -62.2,-34.67 -62.2,-77.42l124.4 0zm-324.85 -77.42l262.65 0 0 154.84 -262.65 0 -62.2 -77.42 62.2 -77.42zm0 154.84c-34.35,0 -62.2,-34.67 -62.2,-77.42 0,-42.75 27.85,-77.42 62.2,-77.42l0 154.84zm62.2 -8783.16l0 8705.74 -124.4 0 0 -8705.74 62.2 -77.42 62.2 77.42zm-124.4 0c0,-42.75 27.85,-77.42 62.2,-77.42 34.35,0 62.2,34.67 62.2,77.42l-124.4 0z"/>
  </g>
  <polygon class="fil0 str15" points="7203.5,29244.69 7079.09,29244.69 7079.09,4046.11 7203.5,4046.11 "/>
  <polygon class="fil1 str6" points="21060.92,20017.66 21060.92,20155.88 20798.27,20155.88 20798.27,20017.66 "/>
  <polygon class="fil1 str6" points="21060.92,17488.13 21060.92,17612.53 20798.27,17612.53 20798.27,17488.13 "/>
  <g id="_2323023837264">
   <polygon class="fil0 str16" points="21060.92,17488.13 21060.92,16479.06 20535.66,16479.06 20535.66,17488.13 "/>
   <polygon class="fil0 str16" points="24101.88,20971.42 20535.66,20971.42 20535.66,20155.88 21060.92,20155.88 21060.92,20446.15 24101.88,20446.15 "/>
  </g>
  <polygon class="fil0 str5" points="33736.21,27965.66 33736.21,20971.42 33197.13,20971.42 33197.13,27965.66 "/>
  <g>
   <polygon class="fil0" points="33736.21,34420.78 33736.21,27752.61 33197.13,27752.61 33197.13,34420.78 "/>
   <path id="_1_10" class="fil2" d="M33798.41 27752.61l0 6668.17 -124.4 0 0 -6668.17 62.2 -80.66 62.2 80.66zm-124.4 0c0,-44.54 27.85,-80.66 62.2,-80.66 34.35,0 62.2,36.12 62.2,80.66l-124.4 0zm-476.88 -80.66l539.08 0 0 161.32 -539.08 0 -62.2 -80.66 62.2 -80.66zm0 161.32c-34.35,0 -62.2,-36.12 -62.2,-80.66 0,-44.54 27.85,-80.66 62.2,-80.66l0 161.32zm-62.2 6587.51l0 -6668.17 124.4 0 0 6668.17 -62.2 80.66 -62.2 -80.66zm124.4 0c0,44.54 -27.85,80.66 -62.2,80.66 -34.35,0 -62.2,-36.12 -62.2,-80.66l124.4 0zm476.88 80.66l-539.08 0 0 -161.32 539.08 0 62.2 80.66 -62.2 80.66zm0 -161.32c34.35,0 62.2,36.12 62.2,80.66 0,44.54 -27.85,80.66 -62.2,80.66l0 -161.32z"/>
  </g>
  <g>
   <polygon class="fil0" points="24101.88,20971.42 33782.29,20971.42 33782.29,20446.15 24101.88,20446.15 "/>
   <polygon id="_1_11" class="fil1 str12" points="24101.88,20971.42 33782.29,20971.42 33782.29,20446.15 24101.88,20446.15 "/>
  </g>
  <g>
   <polygon class="fil0" points="24488.9,29278.78 24765.37,29278.78 24765.37,34420.78 24488.9,34420.78 "/>
   <polygon id="_1_12" class="fil1 str12" points="24488.9,29278.78 24765.37,29278.78 24765.37,34420.78 24488.9,34420.78 "/>
  </g>
  <g>
   <polygon class="fil0" points="24488.9,24979.98 24765.37,24979.98 24765.37,29443.32 24488.9,29443.32 "/>
   <polygon id="_1_13" class="fil1 str12" points="24488.9,24979.98 24765.37,24979.98 24765.37,29443.32 24488.9,29443.32 "/>
  </g>
  <polygon class="fil1 str6" points="24488.9,24855.58 24488.9,24979.98 24765.37,24979.98 24765.37,24855.58 "/>
  <polygon class="fil1 str6" points="24488.9,22574.85 24488.9,22713.07 24765.37,22713.07 24765.37,22574.85 "/>
  <polygon class="fil0 str5" points="24488.9,20971.42 24765.37,20971.42 24765.37,22574.85 24488.9,22574.85 "/>
  <polygon class="fil0" points="24488.9,22624.41 23452.21,22624.41 23452.21,22367.51 24488.9,22367.51 "/>
  <polygon class="fil1 str6" points="23313.99,22367.51 23452.21,22367.51 23452.21,22574.85 23313.99,22574.85 "/>
  <polygon class="fil1 str6" points="21572.35,22367.51 21710.56,22367.51 21710.56,22574.85 21572.35,22574.85 "/>
  <g transform="matrix(1.02345 0 0 1 7560.64 10876.1)">
   <text x="20000" y="20000"  class="fil3 fnt0">16.00</text>
  </g>
  <text x="21823.15" y="22070.8"  class="fil3 fnt0">0.70</text>
  <polygon class="fil0 str5" points="16043.33,25449.94 17107.64,25449.94 17107.64,25187.32 16043.33,25187.32 "/>
  <polygon class="fil1 str6" points="17232.05,25187.32 17107.64,25187.32 17107.64,25449.94 17232.05,25449.94 "/>
  <polygon class="fil1 str6" points="19512.77,25187.32 19374.56,25187.32 19374.56,25449.94 19512.77,25449.94 "/>
  <polygon class="fil0 str5" points="19512.77,25449.94 24488.9,25449.94 24488.9,25187.32 19512.77,25187.32 "/>
  <text x="19355.09" y="30767.96"  class="fil3 fnt0">10.40</text>
  <text x="17300.93" y="19412.33"  class="fil3 fnt0">10.30</text>
  <g>
   <polygon class="fil0" points="31405.88,35689.72 32579.48,35689.72 32579.48,35371.82 31405.88,35371.82 "/>
   <path id="_1_14" class="fil2" d="M32579.48 35720.45l-1173.6 0 0 -61.46 1173.6 0 8.55 30.73 -8.55 30.73zm0 -61.46c4.72,0 8.55,13.76 8.55,30.73 0,16.97 -3.83,30.73 -8.55,30.73l0 -61.46zm8.55 -287.17l0 317.9 -17.1 0 0 -317.9 8.55 -30.73 8.55 30.73zm-17.1 0c0,-16.97 3.83,-30.73 8.55,-30.73 4.72,0 8.55,13.76 8.55,30.73l-17.1 0zm-1165.05 -30.73l1173.6 0 0 61.46 -1173.6 0 -8.55 -30.73 8.55 -30.73zm0 61.46c-4.72,0 -8.55,-13.76 -8.55,-30.73 0,-16.97 3.83,-30.73 8.55,-30.73l0 61.46zm-8.55 287.17l0 -317.9 17.1 0 0 317.9 -8.55 30.73 -8.55 -30.73zm17.1 0c0,16.97 -3.83,30.73 -8.55,30.73 -4.72,0 -8.55,-13.76 -8.55,-30.73l17.1 0z"/>
  </g>
  <polygon class="fil0 str17" points="20585.95,20953.77 20862.42,20953.77 20862.42,22557.2 20585.95,22557.2 "/>
  <polygon class="fil0" points="21568.8,22624.41 20585.95,22624.41 20585.95,22367.51 21568.8,22367.51 "/>
  <rect class="fil4 str18" x="16018.74" y="28677.65" width="387.65" height="783.11"/>
  <rect class="fil4 str18" x="7023.61" y="3375.25" width="2536.92" height="1250.85"/>
  <rect class="fil4 str18" x="14098.82" y="3375.25" width="2268.06" height="1230.21"/>
  <g id="_2322192669744">
   <path class="fil5 str19" d="M7522.59 13698.45c631.24,5.96 1220,-186.76 1301.39,586.01 20.76,251.66 11.88,491.84 -22.8,738.92 -140.45,632.84 -684.42,434.15 -1287.87,444.73"/>
   <path class="fil5 str20" d="M7987.53 13796.21c-83.29,-1.76 -163.74,60.27 -201.8,129.2 0,459.11 0,896.32 0,1355.44 14.29,64.83 59.21,79.38 156.63,101.35 886.66,33.19 698.54,-573.56 714,-1124 -39.36,-398.49 -325.27,-444.53 -668.83,-461.99z"/>
   <circle class="fil5 str20" transform="matrix(2.53988E-14 0.959006 0.959006 -2.53988E-14 7916.09 14600.7)" r="94.44"/>
   <path class="fil5 str20" d="M7946.9 14005.87c-66.52,-1.24 -130.79,43.04 -161.17,92.26 0,327.8 0,639.98 0,967.79 11.41,46.29 47.28,56.68 125.09,72.36 699.17,57.98 567.2,-349.03 570.26,-802.53 -5.52,-297.01 -271.74,-329.88 -534.18,-329.88z"/>
  </g>
  <g id="_2322192665904">
   <rect class="fil5 str20" transform="matrix(0.000137587 0.725362 0.741036 -0.000134677 7544.96 15737.1)" width="2611.41" height="5846.68"/>
   <path class="fil5 str20" d="M11083.76 15952.81c-951.61,-39.73 -1892.03,-13.71 -2838.04,-20.54 -331.09,-4.61 -500.1,7.37 -494.67,350.42 0.06,283.91 0.11,567.8 0.16,851.7 -3,241.08 70.67,331.75 482.89,313.26 949.97,-7.19 1899.97,7.56 2849.94,-21.55 754.46,-88.88 830.87,-1340.95 -0.28,-1473.29z"/>
   <circle class="fil5 str20" transform="matrix(0.000137587 0.725362 0.741036 -0.000134677 8042.29 16699.7)" r="121.03"/>
  </g>
  <g id="_2322192666576">
   <line class="fil5 str21" x1="8654.17" y1="19632.9" x2="8385.69" y2= "19603.1" />
   <line class="fil5 str20" x1="8643.43" y1="18710.11" x2="8375.02" y2= "18739.98" />
   <path class="fil5 str20" d="M7429.62 20064.7c212.72,0 425.47,0.04 638.18,0.04 158.65,0.46 273.41,-81.75 320.61,-283.37 -2.5,-358.75 -5,-717.54 -7.51,-1076.3 14.66,-280.72 -106.93,-397.46 -313.1,-414.82l-648.29 0"/>
   <path class="fil5 str20" d="M9190.59 18503.74c-211.9,-34.69 -395.66,13.14 -536.8,186.4 -26.72,70.05 -47.64,138.8 -62.99,206.27 -59.68,262.51 -34.86,506.04 63.02,733.15 125.46,152.69 289.18,223.95 495.45,204.72 308,-30.01 606.98,-141.04 891.27,-383.69 172.44,-169.57 186.58,-361.43 0,-581.51 -247.56,-199.23 -532.41,-317.68 -849.95,-365.34z"/>
  </g>
  <g id="_2322192692544">
   <polygon class="fil5 str22" points="10641.18,13471.87 10906.27,13469.2 11889.55,13459.27 12153.19,13456.61 12139.28,12078.32 10627.28,12093.57 "/>
   <rect class="fil5 str22" transform="matrix(2.38682 -0.0240859 -0.0240859 -2.38682 10907.6 13599.3)" width="411.96" height="54.5"/>
  </g>
  <g id="_2322192693312">
   <path class="fil5 str19" d="M7591.05 23230.27l0 1605.98c-0.01,59.83 48.51,108.34 108.33,108.34l1627.05 0c59.82,0 108.33,-48.51 108.33,-108.33l0.01 -1605.99c-0.01,-59.82 -48.52,-108.33 -108.34,-108.33l-1627.04 -0.01c-59.83,0.01 -108.35,48.52 -108.35,108.35z"/>
   <rect class="fil5 str19" transform="matrix(-5.0074E-14 0.63023 0.63023 5.0074E-14 7907.13 23290.5)" width="2373.81" height="2106.33"/>
   <circle class="fil5 str23" transform="matrix(-5.0074E-14 0.63023 0.63023 5.0074E-14 8181.03 24386.2)" r="183.89"/>
  </g>
  <rect class="fil4 str18" x="7027.97" y="29256.7" width="3541.47" height="765.46"/>
  <path class="fil5 str24" d="M20798.27 20017.66c1478.43,-35.88 2637.94,-920.74 3060.73,-2365.47 -932.62,0 -2080.72,-19.7 -3013.35,-19.7"/>
  <path class="fil5 str24" d="M13049.76 13259.36c31.5,-1297.89 808.31,-2315.81 2076.61,-2686.98 0,818.74 17.3,1826.64 17.3,2645.38"/>
  <path class="fil5 str24" d="M12214.84 15405.47c1136.35,-27.58 2027.58,-707.7 2352.55,-1818.15 -716.84,0 -1599.29,-15.14 -2316.14,-15.14"/>
  <polygon class="fil1 str25" points="12463.26,13562.5 12463.26,13424.29 12200.64,13424.29 12200.64,13562.5 "/>
  <path class="fil5 str24" d="M12214.84 18188.25c1136.35,27.58 2027.58,707.7 2352.55,1818.15 -716.84,0 -1599.29,15.15 -2316.14,15.15"/>
  <path class="fil5 str24" d="M14715.16 20625.91c-31.45,1268.39 -807.04,2263.18 -2073.36,2625.91 0,-800.13 -17.27,-1785.13 -17.27,-2585.26"/>
  <path class="fil5 str24" d="M19357.9 25386.93c-31.87,1279.86 -817.72,2283.64 -2100.79,2649.65 0,-807.36 -17.5,-1801.27 -17.5,-2608.64"/>
  <path class="fil5 str24" d="M21710.56 22417.76c24.31,976.3 623.77,1742 1602.52,2021.2 0,-615.87 13.35,-1374.04 13.35,-1989.92"/>
  <path class="fil5 str24" d="M24575.97 24852.64c1266.63,-31.98 2260.02,-820.49 2622.25,-2107.92 -799.01,0 -1782.63,-17.56 -2581.65,-17.56"/>
  <g id="_2322192683520">
   <rect class="fil4 str18" x="15968.83" y="30515.33" width="296.55" height="3263.66"/>
   <rect class="fil4 str18" transform="matrix(-7.73881E-15 -0.833899 2.12161 8.03667E-14 7039.88 33779)" width="444" height="4347.05"/>
   <rect class="fil4 str18" x="7024.19" y="29989.01" width="296.55" height="3789.98" rx="33.4" ry="43.59"/>
  </g>
  <rect class="fil5 str26" x="10569.42" y="29256.69" width="167.81" height="367.44" rx="24.58" ry="24.58"/>
  <rect class="fil5 str26" x="12255.53" y="29256.69" width="167.81" height="367.44" rx="24.58" ry="24.58"/>
  <path class="fil5 str24" d="M10761.82 29394.78c22.37,-974.02 574,-1737.93 1474.65,-2016.47 0,614.43 12.28,1370.82 12.28,1985.26"/>
  <g id="_2322192677952">
   <rect class="fil5 str27" transform="matrix(3.48747E-14 0.712498 -0.91393 8.20051E-15 12345.5 33722.7)" width="2496.64" height="5813.27"/>
   <line class="fil5 str27" x1="12352.46" y1="33719.87" x2="7039.54" y2= "35498.72" />
   <line class="fil5 str27" x1="12345.51" y1="35501.59" x2="7073.96" y2= "33766.4" />
  </g>
 </g>
</svg>
