<?xml version="1.0" encoding="UTF-8"?>
<!DOCTYPE svg PUBLIC "-//W3C//DTD SVG 1.1//EN" "http://www.w3.org/Graphics/SVG/1.1/DTD/svg11.dtd">
<!-- Creator: CorelDRAW -->
<svg xmlns="http://www.w3.org/2000/svg" xml:space="preserve" width="400mm" height="400mm" version="1.1" style="shape-rendering:geometricPrecision; text-rendering:geometricPrecision; image-rendering:optimizeQuality; fill-rule:evenodd; clip-rule:evenodd"
viewBox="0 0 40000 40000"
 xmlns:xlink="http://www.w3.org/1999/xlink"
 xmlns:xodm="http://www.corel.com/coreldraw/odm/2003">
 <defs>
  <style type="text/css">
   <![CDATA[
    .str9 {stroke:black;stroke-width:180;stroke-miterlimit:22.9256}
    .str19 {stroke:#1F1B20;stroke-width:16.9;stroke-miterlimit:22.9256}
    .str14 {stroke:#1F1B20;stroke-width:40;stroke-miterlimit:22.9256}
    .str13 {stroke:#3A3A3A;stroke-width:40;stroke-miterlimit:22.9256}
    .str12 {stroke:black;stroke-width:40;stroke-miterlimit:22.9256}
    .str10 {stroke:black;stroke-width:20;stroke-miterlimit:22.9256}
    .str15 {stroke:#2B2A29;stroke-width:25.4;stroke-miterlimit:22.9256}
    .str11 {stroke:black;stroke-width:40;stroke-linecap:round;stroke-linejoin:round;stroke-miterlimit:22.9256}
    .str7 {stroke:black;stroke-width:200;stroke-linecap:round;stroke-linejoin:round;stroke-miterlimit:10}
    .str0 {stroke:black;stroke-width:172.28;stroke-linecap:round;stroke-linejoin:round;stroke-miterlimit:10}
    .str6 {stroke:black;stroke-width:180.01;stroke-linecap:round;stroke-linejoin:round;stroke-miterlimit:10}
    .str5 {stroke:black;stroke-width:133.98;stroke-linecap:round;stroke-linejoin:round;stroke-miterlimit:10}
    .str2 {stroke:black;stroke-width:90.6;stroke-linecap:round;stroke-linejoin:round;stroke-miterlimit:10}
    .str3 {stroke:black;stroke-width:22.64;stroke-linecap:round;stroke-linejoin:round;stroke-miterlimit:10}
    .str1 {stroke:black;stroke-width:22.64;stroke-linecap:round;stroke-linejoin:round;stroke-miterlimit:10}
    .str18 {stroke:black;stroke-width:76.55;stroke-linecap:round;stroke-linejoin:round;stroke-miterlimit:10}
    .str16 {stroke:black;stroke-width:76.55;stroke-linecap:round;stroke-linejoin:round;stroke-miterlimit:10}
    .str17 {stroke:black;stroke-width:76.55;stroke-linecap:round;stroke-linejoin:round;stroke-miterlimit:10}
    .str8 {stroke:black;stroke-width:76.55;stroke-linecap:round;stroke-linejoin:round;stroke-miterlimit:10}
    .str4 {stroke:black;stroke-width:76.55;stroke-linecap:round;stroke-linejoin:round;stroke-miterlimit:10}
    .fil5 {fill:none}
    .fil2 {fill:none;fill-rule:nonzero}
    .fil3 {fill:black}
    .fil4 {fill:black}
    .fil1 {fill:black;fill-rule:nonzero}
    .fil0 {fill:black;fill-rule:nonzero}
    .fnt0 {font-weight:normal;font-size:1276.36px;font-family:'Arial'}
   ]]>
  </style>
 </defs>
 <g id="Слой_x0020_1">
  <metadata id="CorelCorpID_0Corel-Layer"/>
  <g>
   <polygon class="fil0" points="24364.46,33666.17 6141.08,33666.17 6141.08,34393.55 24364.46,34393.55 "/>
   <path id="_1" class="fil1" d="M6141.08 33580.03l18223.38 0 0 172.28 -18223.38 0 -50.9 -86.14 50.9 -86.14zm0 172.28c-28.11,0 -50.9,-38.57 -50.9,-86.14 0,-47.57 22.79,-86.14 50.9,-86.14l0 172.28zm-50.9 641.24l0 -727.38 101.8 0 0 727.38 -50.9 86.14 -50.9 -86.14zm101.8 0c0,47.57 -22.79,86.14 -50.9,86.14 -28.11,0 -50.9,-38.57 -50.9,-86.14l101.8 0zm18172.48 86.14l-18223.38 0 0 -172.28 18223.38 0 50.9 86.14 -50.9 86.14zm0 -172.28c28.11,0 50.9,38.57 50.9,86.14 0,47.57 -22.79,86.14 -50.9,86.14l0 -172.28zm50.9 -641.24l0 727.38 -101.8 0 0 -727.38 50.9 -86.14 50.9 86.14zm-101.8 0c0,-47.57 22.79,-86.14 50.9,-86.14 28.11,0 50.9,38.57 50.9,86.14l-101.8 0z"/>
  </g>
  <polygon class="fil0 str0" points="6181.08,25626.44 6181.08,33666.17 6908.45,33666.17 6908.45,25626.44 "/>
  <polygon class="fil0 str0" points="6181.08,14677.07 6181.08,23807.91 6908.45,23807.91 6908.45,14677.07 "/>
  <g id="_2286243833904">
   <polygon class="fil0 str0" points="35411.25,25626.44 35411.25,33666.17 36138.67,33666.17 36138.67,25626.44 "/>
   <polygon class="fil0 str0" points="35411.25,16131.86 35411.25,23807.91 36138.67,23807.91 36138.67,16131.86 "/>
  </g>
  <g>
   <polygon class="fil0" points="28057.21,33666.17 36178.67,33666.17 36178.67,34393.55 28057.21,34393.55 "/>
   <path id="_1_0" class="fil1" d="M36178.67 33752.31l-8121.46 0 0 -172.28 8121.46 0 46.26 86.14 -46.26 86.14zm0 -172.28c25.54,0 46.26,38.57 46.26,86.14 0,47.57 -20.72,86.14 -46.26,86.14l0 -172.28zm-46.26 813.52l0 -727.38 92.52 0 0 727.38 -46.26 86.14 -46.26 -86.14zm92.52 0c0,47.57 -20.72,86.14 -46.26,86.14 -25.54,0 -46.26,-38.57 -46.26,-86.14l92.52 0zm-8167.72 -86.14l8121.46 0 0 172.28 -8121.46 0 -46.26 -86.14 46.26 -86.14zm0 172.28c-25.54,0 -46.26,-38.57 -46.26,-86.14 0,-47.57 20.72,-86.14 46.26,-86.14l0 172.28zm46.26 -813.52l0 727.38 -92.52 0 0 -727.38 46.26 -86.14 46.26 86.14zm-92.52 0c0,-47.57 20.72,-86.14 46.26,-86.14 25.54,0 46.26,38.57 46.26,86.14l-92.52 0z"/>
  </g>
  <g id="_2323022090160">
   <line class="fil2 str1" x1="32816.09" y1="15716.8" x2="32816.09" y2= "17891.59" />
   <polygon class="fil2 str2" points="35421.28,17891.59 35421.28,15716.8 32816.09,15716.8 32816.09,17891.59 "/>
   <polygon class="fil2 str2" points="32952.01,17755.66 32952.01,15852.72 34854.95,15852.72 34854.95,17755.66 "/>
   <line class="fil2 str1" x1="32952.01" y1="17755.66" x2="33246.5" y2= "17461.18" />
   <line class="fil2 str1" x1="33608.94" y1="17098.73" x2="34197.97" y2= "16509.71" />
   <line class="fil2 str1" x1="34560.41" y1="16147.26" x2="34854.95" y2= "15852.72" />
   <line class="fil2 str1" x1="34854.95" y1="17755.66" x2="34560.41" y2= "17461.18" />
   <line class="fil2 str1" x1="34197.97" y1="17098.73" x2="33608.94" y2= "16509.71" />
   <line class="fil2 str1" x1="33246.5" y1="16147.26" x2="32952.01" y2= "15852.72" />
   <line class="fil2 str1" x1="34854.95" y1="16804.19" x2="32952.01" y2= "16804.19" />
   <line class="fil2 str1" x1="33903.48" y1="17755.66" x2="33903.48" y2= "15852.72" />
   <line class="fil2 str1" x1="34854.95" y1="16804.19" x2="34560.41" y2= "16509.71" />
   <line class="fil2 str1" x1="34197.97" y1="16147.26" x2="33903.48" y2= "15852.72" />
   <line class="fil2 str1" x1="33903.48" y1="17755.66" x2="33608.94" y2= "17461.18" />
   <polyline class="fil2 str1" points="33246.5,17098.73 32952.01,16804.19 33246.5,16509.71 "/>
   <line class="fil2 str1" x1="33608.94" y1="16147.26" x2="33903.48" y2= "15852.72" />
   <line class="fil2 str1" x1="33903.48" y1="17755.66" x2="34197.97" y2= "17461.18" />
   <line class="fil2 str1" x1="34560.41" y1="17098.73" x2="34854.95" y2= "16804.19" />
   <path class="fil2 str3" d="M34447.18 17268.64c0,-43.78 -35.53,-79.31 -79.31,-79.31 -43.77,0 -79.31,35.53 -79.31,79.31 0,43.77 35.54,79.3 79.31,79.3 43.78,0 79.31,-35.53 79.31,-79.3z"/>
   <path class="fil2 str3" d="M34447.18 16317.17c0,-43.78 -35.53,-79.31 -79.31,-79.31 -43.77,0 -79.31,35.53 -79.31,79.31 0,43.77 35.54,79.3 79.31,79.3 43.78,0 79.31,-35.53 79.31,-79.3z"/>
   <path class="fil2 str3" d="M33495.71 17268.64c0,-43.78 -35.53,-79.31 -79.31,-79.31 -43.77,0 -79.3,35.53 -79.3,79.31 0,43.77 35.53,79.3 79.3,79.3 43.78,0 79.31,-35.53 79.31,-79.3z"/>
   <path class="fil2 str3" d="M33495.71 16317.17c0,-43.78 -35.53,-79.31 -79.31,-79.31 -43.77,0 -79.3,35.53 -79.3,79.31 0,43.77 35.53,79.3 79.3,79.3 43.78,0 79.31,-35.53 79.31,-79.3z"/>
   <line class="fil2 str2" x1="34990.87" y1="17891.59" x2="34990.87" y2= "15716.8" />
   <line class="fil2 str1" x1="35013.51" y1="17778.35" x2="35013.51" y2= "15830.09" />
   <polyline class="fil2 str1" points="35375.96,15830.09 35375.96,17778.35 35013.51,17778.35 "/>
   <line class="fil2 str1" x1="35375.96" y1="17551.77" x2="35013.51" y2= "17551.77" />
   <line class="fil2 str1" x1="35375.96" y1="17665.06" x2="35013.51" y2= "17665.06" />
   <line class="fil2 str1" x1="35375.96" y1="17438.54" x2="35013.51" y2= "17438.54" />
   <line class="fil2 str1" x1="35375.96" y1="17347.89" x2="35013.51" y2= "17347.89" />
   <line class="fil2 str1" x1="35375.96" y1="17121.37" x2="35013.51" y2= "17121.37" />
   <line class="fil2 str1" x1="35375.96" y1="17234.65" x2="35013.51" y2= "17234.65" />
   <line class="fil2 str1" x1="35375.96" y1="17008.08" x2="35013.51" y2= "17008.08" />
   <line class="fil2 str1" x1="35375.96" y1="16917.48" x2="35013.51" y2= "16917.48" />
   <line class="fil2 str1" x1="35375.96" y1="16690.96" x2="35013.51" y2= "16690.96" />
   <line class="fil2 str1" x1="35375.96" y1="16804.19" x2="35013.51" y2= "16804.19" />
   <line class="fil2 str1" x1="35375.96" y1="16577.67" x2="35013.51" y2= "16577.67" />
   <line class="fil2 str1" x1="35375.96" y1="16464.38" x2="35013.51" y2= "16464.38" />
   <line class="fil2 str1" x1="35375.96" y1="16260.5" x2="35013.51" y2= "16260.5" />
   <line class="fil2 str1" x1="35375.96" y1="16373.78" x2="35013.51" y2= "16373.78" />
   <line class="fil2 str1" x1="35375.96" y1="16147.26" x2="35013.51" y2= "16147.26" />
   <line class="fil2 str1" x1="35375.96" y1="16033.97" x2="35013.51" y2= "16033.97" />
   <line class="fil2 str1" x1="35375.96" y1="15830.09" x2="35013.51" y2= "15830.09" />
   <line class="fil2 str1" x1="35375.96" y1="15943.38" x2="35013.51" y2= "15943.38" />
   <line class="fil2 str1" x1="32793.4" y1="17234.65" x2="32748.13" y2= "17234.65" />
   <path class="fil2 str3" d="M32782.11 17189.33c-18.78,0 -33.98,15.2 -33.98,33.98 0,18.78 15.2,33.98 33.98,33.98"/>
   <polyline class="fil2 str1" points="32816.09,17279.93 32793.4,17279.93 32793.4,17234.65 32793.4,17166.69 32816.09,17166.69 "/>
   <line class="fil2 str1" x1="32793.4" y1="16804.19" x2="32748.13" y2= "16804.19" />
   <path class="fil2 str3" d="M32782.11 16758.92c-18.78,0 -33.98,15.2 -33.98,33.98 0,18.78 15.2,33.98 33.98,33.98"/>
   <polyline class="fil2 str1" points="32816.09,16849.52 32793.4,16849.52 32793.4,16804.19 32793.4,16736.23 32816.09,16736.23 "/>
   <line class="fil2 str1" x1="32793.4" y1="16373.78" x2="32748.13" y2= "16373.78" />
   <path class="fil2 str3" d="M32782.11 16328.46c-18.78,0 -33.98,15.25 -33.98,33.98 0,18.78 15.2,33.98 33.98,33.98"/>
   <polyline class="fil2 str1" points="32816.09,16419.11 32793.4,16419.11 32793.4,16373.78 32793.4,16305.82 32816.09,16305.82 "/>
   <line class="fil2 str1" x1="32793.4" y1="17008.08" x2="32748.13" y2= "17008.08" />
   <path class="fil2 str3" d="M32782.11 16962.81c-18.78,0 -33.98,15.19 -33.98,33.98 0,18.78 15.2,33.98 33.98,33.98"/>
   <polyline class="fil2 str1" points="32816.09,17076.04 32793.4,17076.04 32793.4,17008.08 32793.4,16962.81 32816.09,16962.81 "/>
   <line class="fil2 str1" x1="32793.4" y1="16577.67" x2="32748.13" y2= "16577.67" />
   <path class="fil2 str3" d="M32782.11 16532.34c-18.78,0 -33.98,15.26 -33.98,33.99 0,18.78 15.2,33.98 33.98,33.98"/>
   <polyline class="fil2 str1" points="32816.09,16645.63 32793.4,16645.63 32793.4,16577.67 32793.4,16532.34 32816.09,16532.34 "/>
  </g>
  <polygon class="fil0 str0" points="17130.4,30756.54 17130.4,33666.17 16766.71,33666.17 16766.71,30756.54 "/>
  <polygon class="fil2 str4" points="28462.62,32383.61 28462.62,32575.06 28098.94,32575.06 28098.94,32383.61 "/>
  <polygon class="fil2 str4" points="28462.62,29608 28462.62,29799.41 28098.94,29799.41 28098.94,29608 "/>
  <polygon class="fil0 str0" points="28462.62,33666.17 28098.94,33666.17 28098.94,32575.06 28462.62,32575.06 "/>
  <polygon class="fil2 str4" points="17130.4,30565.13 17130.4,30756.54 16766.71,30756.54 16766.71,30565.13 "/>
  <polygon class="fil2 str4" points="17130.4,27789.48 17130.4,27961.76 16766.71,27961.76 16766.71,27789.48 "/>
  <polygon class="fil0 str0" points="17130.4,11020.89 17130.4,27789.48 16766.71,27789.48 16766.71,11020.89 "/>
  <line class="fil2 str5" x1="15350.17" y1="11020.89" x2="8765.28" y2= "11020.89" />
  <polygon class="fil2 str5" points="9109.84,9738.38 15005.61,9738.38 15005.61,9987.21 9109.84,9987.21 "/>
  <polygon class="fil2 str5" points="15005.61,9738.38 15254.49,9738.38 15254.49,9987.21 15005.61,9987.21 "/>
  <polygon class="fil2 str5" points="9109.84,9738.38 8860.96,9738.38 8860.96,9987.21 9109.84,9987.21 "/>
  <g>
   <path class="fil1" d="M15158.76 9231.1c38.62,0 69.94,30 69.94,66.99 0,36.99 -31.32,66.99 -69.94,66.99l0 -133.98zm-6475.07 0l6475.07 0 0 133.98 -6475.07 0 0 -133.98zm0 133.98c-38.62,0 -69.94,-30 -69.94,-66.99 0,-36.99 31.32,-66.99 69.94,-66.99l0 133.98z"/>
  </g>
  <g id="_2286455918688">
   <polygon class="fil0 str6" points="8765.28,10274.34 7999.56,10274.34 7999.56,11020.89 8765.28,11020.89 "/>
   <polygon class="fil0 str6" points="19695.47,10274.34 15350.17,10293.52 15350.17,11020.89 19695.47,11020.89 "/>
  </g>
  <polygon class="fil0 str0" points="27084.38,10274.34 25361.58,10274.34 25361.58,9738.38 27084.38,9738.38 "/>
  <polygon class="fil0 str0" points="27256.66,9738.38 25170.18,9738.38 25170.18,9298.09 27256.66,9298.09 "/>
  <polygon class="fil0 str6" points="27084.38,10274.34 25361.58,10274.34 25361.58,11020.89 27084.38,11020.89 "/>
  <polygon class="fil0 str0" points="21514,10274.34 15350.17,10274.34 15350.17,9738.38 21514,9738.38 "/>
  <polygon class="fil0 str0" points="21705.4,9738.38 15158.76,9738.38 15158.76,9298.09 21705.4,9298.09 "/>
  <line class="fil2 str5" x1="25361.58" y1="11020.89" x2="21514" y2= "11020.89" />
  <polygon class="fil2 str5" points="21877.68,9738.38 25017.02,9738.38 25017.02,9987.21 21877.68,9987.21 "/>
  <polygon class="fil2 str5" points="25017.02,9738.38 25265.86,9738.38 25265.86,9987.21 25017.02,9987.21 "/>
  <line class="fil2 str5" x1="25170.18" y1="9298.09" x2="21705.4" y2= "9298.09" />
  <polygon class="fil2 str5" points="21877.68,9738.38 21609.68,9738.38 21609.68,9987.21 21877.68,9987.21 "/>
  <polyline class="fil2 str5" points="32003.95,11020.89 29668.59,11020.89 29668.59,9298.09 "/>
  <polygon class="fil2 str5" points="29917.42,9738.38 31755.07,9738.38 31755.07,9987.21 29917.42,9987.21 "/>
  <polygon class="fil2 str5" points="31755.07,9738.38 32003.95,9738.38 32003.95,9987.21 31755.07,9987.21 "/>
  <g>
   <path class="fil1" d="M32222.62 9231.1c43.68,0 79.1,30 79.1,66.99 0,36.99 -35.42,66.99 -79.1,66.99l0 -133.98zm-2554.04 0l2554.04 0 0 133.98 -2554.04 0 0 -133.98zm0 133.98c-43.68,0 -79.1,-30 -79.1,-66.99 0,-36.99 35.42,-66.99 79.1,-66.99l0 133.98z"/>
  </g>
  <polygon class="fil2 str5" points="29917.42,9738.38 29668.59,9738.38 29668.59,9987.21 29917.42,9987.21 "/>
  <polygon class="fil0 str6" points="6181.08,11020.89 6181.08,12839.42 6908.45,12839.42 6908.45,11020.89 "/>
  <polygon class="fil0 str7" points="32003.95,10274.34 32003.95,11020.89 35411.25,11020.89 35411.25,10274.34 "/>
  <polygon class="fil2 str4" points="27907.49,25262.7 28098.94,25262.7 28098.94,25626.44 27907.49,25626.44 "/>
  <polygon class="fil2 str4" points="25131.88,25262.7 25323.29,25262.7 25323.29,25626.44 25131.88,25626.44 "/>
  <g id="_2286459581568">
   <polygon class="fil0 str0" points="24768.19,25262.7 24768.19,21606.57 26280.41,21606.57 26280.41,11020.89 26644.1,11020.89 26644.1,21970.26 25131.88,21970.26 25131.88,25626.44 24481.06,25626.44 24481.06,25262.7 "/>
   <polygon class="fil0 str0" points="17130.4,25626.44 20786.58,25626.44 20786.58,25262.7 17130.4,25262.7 "/>
  </g>
  <polygon class="fil2 str8" points="21574,25262.7 21765.4,25262.7 21765.4,25626.44 21574,25626.44 "/>
  <polygon class="fil2 str4" points="20269.74,31445.66 20442.02,31445.66 20442.02,31158.53 20269.74,31158.53 "/>
  <polygon class="fil2 str4" points="17857.82,31445.66 18030.1,31445.66 18030.1,31158.53 17857.82,31158.53 "/>
  <g id="_2286459574896">
   <polygon class="fil0" points="17130.4,31445.66 17857.82,31445.66 17857.82,31158.53 17130.4,31158.53 "/>
   <polygon class="fil0" points="21169.44,33666.17 21169.44,31445.66 20442.02,31445.66 20442.02,31158.53 21475.7,31158.53 21475.7,33666.17 "/>
  </g>
  <text x="28757.18" y="27679.82"  class="fil3 fnt0">1.50</text>
  <text x="30347.35" y="30605.61"  class="fil3 fnt0">2.30</text>
  <text x="20526.06" y="18539.48"  class="fil3 fnt0">9.10</text>
  <text x="21811.12" y="29122.59"  class="fil3 fnt0">5.60</text>
  <g transform="matrix(1.01739 0 0 1 -10027.3 2558.08)">
   <text x="20000" y="20000"  class="fil3 fnt0">16.50</text>
  </g>
  <text x="17996.92" y="32809.98"  class="fil3 fnt0">0.60</text>
  <text x="29720.86" y="15331.4"  class="fil3 fnt0">9.10</text>
  <text x="28119.83" y="7544.83"  class="fil3 fnt0">3.30 (1.00)</text>
  <polygon class="fil0 str0" points="28098.94,25702.99 28098.94,25262.7 35411.25,25262.7 35411.25,25626.44 28462.62,25626.44 28462.62,25702.99 "/>
  <polygon class="fil2 str4" points="28462.62,28478.6 28462.62,28670.05 28098.94,28670.05 28098.94,28478.6 "/>
  <polygon class="fil2 str4" points="28462.62,25702.99 28462.62,25894.4 28098.94,25894.4 28098.94,25702.99 "/>
  <polygon class="fil0 str0" points="28462.62,28746.6 35411.25,28746.6 35411.25,29110.29 28462.62,29110.29 28462.62,29608 28098.94,29608 28098.94,28670.05 28462.62,28670.05 "/>
  <g id="_2286583580464">
   <polygon class="fil0 str6" points="36138.67,25626.44 35411.25,25626.44 35411.25,23807.91 36138.67,23807.91 "/>
   <line class="fil2 str6" x1="35411.25" y1="24095.04" x2="35506.98" y2= "23999.32" />
   <path class="fil0 str9" d="M35621.83 23865.34l0 -9.59c-5.29,0 -9.58,4.3 -9.58,9.59 0,5.29 4.29,9.58 9.58,9.58 5.29,0 9.59,-4.29 9.59,-9.58 0,-5.29 -4.3,-9.59 -9.59,-9.59l0 9.59z"/>
   <path class="fil0 str9" d="M35449.55 24554.46l0 -9.59c-5.29,0 -9.58,4.3 -9.58,9.59 0,5.29 4.29,9.58 9.58,9.58 5.29,0 9.59,-4.29 9.59,-9.58 0,-5.29 -4.3,-9.59 -9.59,-9.59l0 9.59z"/>
   <line class="fil2 str6" x1="35564.41" y1="24420.48" x2="36138.67" y2= "23846.21" />
   <line class="fil2 str6" x1="35411.25" y1="25071.3" x2="35985.52" y2= "24477.9" />
   <path class="fil0 str9" d="M36119.5 24363.05l0 -9.59c-5.29,0 -9.59,4.3 -9.59,9.59 0,5.29 4.3,9.59 9.59,9.59 5.29,0 9.59,-4.3 9.59,-9.59 0,-5.29 -4.3,-9.59 -9.59,-9.59l0 9.59z"/>
   <line class="fil2 str6" x1="35411.25" y1="25569.01" x2="35813.24" y2= "25167.02" />
   <path class="fil0 str9" d="M35928.09 25033l0 -9.59c-5.29,0 -9.58,4.3 -9.58,9.59 0,5.29 4.29,9.58 9.58,9.58 5.29,0 9.59,-4.29 9.59,-9.58 0,-5.29 -4.3,-9.59 -9.59,-9.59l0 9.59z"/>
   <line class="fil2 str6" x1="36062.07" y1="24918.14" x2="36138.67" y2= "24841.59" />
   <line class="fil2 str6" x1="35870.67" y1="25588.14" x2="36138.67" y2= "25320.13" />
   <polygon class="fil0 str6" points="21514,25626.44 20786.58,25626.44 20786.58,23807.91 21514,23807.91 "/>
   <line class="fil2 str6" x1="20786.58" y1="24095.04" x2="20882.3" y2= "23999.32" />
   <path class="fil0 str9" d="M20997.16 23865.34l0 -9.59c-5.29,0 -9.59,4.3 -9.59,9.59 0,5.29 4.3,9.58 9.59,9.58 5.29,0 9.58,-4.29 9.58,-9.58 0,-5.29 -4.29,-9.59 -9.58,-9.59l0 9.59z"/>
   <path class="fil0 str9" d="M20824.88 24554.46l0 -9.59c-5.29,0 -9.59,4.3 -9.59,9.59 0,5.29 4.3,9.58 9.59,9.58 5.29,0 9.58,-4.29 9.58,-9.58 0,-5.29 -4.29,-9.59 -9.58,-9.59l0 9.59z"/>
   <line class="fil2 str6" x1="20939.73" y1="24420.48" x2="21514" y2= "23846.21" />
   <line class="fil2 str6" x1="20786.58" y1="25071.3" x2="21379.97" y2= "24477.9" />
   <path class="fil0 str9" d="M21494.83 24363.05l0 -9.59c-5.3,0 -9.59,4.3 -9.59,9.59 0,5.29 4.29,9.59 9.59,9.59 5.29,0 9.58,-4.3 9.58,-9.59 0,-5.29 -4.29,-9.59 -9.58,-9.59l0 9.59z"/>
   <line class="fil2 str6" x1="20786.58" y1="25569.01" x2="21188.56" y2= "25167.02" />
   <path class="fil0 str9" d="M21322.55 25033l0 -9.59c-5.3,0 -9.59,4.3 -9.59,9.59 0,5.29 4.29,9.58 9.59,9.58 5.29,0 9.58,-4.29 9.58,-9.58 0,-5.29 -4.29,-9.59 -9.58,-9.59l0 9.59z"/>
   <line class="fil2 str6" x1="21437.4" y1="24918.14" x2="21514" y2= "24841.59" />
   <line class="fil2 str6" x1="21245.99" y1="25588.14" x2="21514" y2= "25320.13" />
   <polygon class="fil0 str6" points="36138.67,16131.86 35411.25,16131.86 35411.25,14294.21 36138.67,14294.21 "/>
   <line class="fil2 str6" x1="35411.25" y1="14581.34" x2="35506.98" y2= "14485.66" />
   <path class="fil0 str9" d="M35621.83 14370.81l0 -9.59c-5.29,0 -9.58,4.3 -9.58,9.59 0,5.29 4.29,9.59 9.58,9.59 5.29,0 9.59,-4.3 9.59,-9.59 0,-5.29 -4.3,-9.59 -9.59,-9.59l0 9.59z"/>
   <path class="fil0 str9" d="M35449.55 15040.76l0 -9.59c-5.29,0 -9.58,4.3 -9.58,9.59 0,5.29 4.29,9.58 9.58,9.58 5.29,0 9.59,-4.29 9.59,-9.58 0,-5.29 -4.3,-9.59 -9.59,-9.59l0 9.59z"/>
   <line class="fil2 str6" x1="35564.41" y1="14925.9" x2="36138.67" y2= "14351.64" />
   <line class="fil2 str6" x1="35411.25" y1="15576.77" x2="35985.52" y2= "14983.33" />
   <path class="fil0 str9" d="M36119.5 14868.48l0 -9.59c-5.29,0 -9.59,4.3 -9.59,9.59 0,5.29 4.3,9.58 9.59,9.58 5.29,0 9.59,-4.29 9.59,-9.58 0,-5.29 -4.3,-9.59 -9.59,-9.59l0 9.59z"/>
   <line class="fil2 str6" x1="35411.25" y1="16055.31" x2="35813.24" y2= "15653.32" />
   <path class="fil0 str9" d="M35928.09 15538.47l0 -9.59c-5.29,0 -9.58,4.3 -9.58,9.59 0,5.29 4.29,9.59 9.58,9.59 5.29,0 9.59,-4.3 9.59,-9.59 0,-5.29 -4.3,-9.59 -9.59,-9.59l0 9.59z"/>
   <line class="fil2 str6" x1="36062.07" y1="15423.62" x2="36138.67" y2= "15327.89" />
   <line class="fil2 str6" x1="35870.67" y1="16093.61" x2="36138.67" y2= "15825.6" />
   <polygon class="fil0 str6" points="36138.67,12112 35411.25,12112 35411.25,10274.34 36138.67,10274.34 "/>
   <line class="fil2 str6" x1="35411.25" y1="10561.48" x2="35506.98" y2= "10465.8" />
   <path class="fil0 str9" d="M35621.83 10350.94l0 -9.58c-5.29,0 -9.58,4.29 -9.58,9.58 0,5.29 4.29,9.59 9.58,9.59 5.29,0 9.59,-4.3 9.59,-9.59 0,-5.29 -4.3,-9.58 -9.59,-9.58l0 9.58z"/>
   <path class="fil0 str9" d="M35449.55 11020.89l0 -9.59c-5.29,0 -9.58,4.3 -9.58,9.59 0,5.29 4.29,9.59 9.58,9.59 5.29,0 9.59,-4.3 9.59,-9.59 0,-5.29 -4.3,-9.59 -9.59,-9.59l0 9.59z"/>
   <line class="fil2 str6" x1="35564.41" y1="10906.04" x2="36138.67" y2= "10331.77" />
   <line class="fil2 str6" x1="35411.25" y1="11556.9" x2="35985.52" y2= "10963.46" />
   <path class="fil0 str9" d="M36119.5 10848.61l0 -9.59c-5.29,0 -9.59,4.3 -9.59,9.59 0,5.29 4.3,9.59 9.59,9.59 5.29,0 9.59,-4.3 9.59,-9.59 0,-5.29 -4.3,-9.59 -9.59,-9.59l0 9.59z"/>
   <line class="fil2 str6" x1="35411.25" y1="12035.44" x2="35813.24" y2= "11633.46" />
   <path class="fil0 str9" d="M35928.09 11518.6l0 -9.58c-5.29,0 -9.58,4.29 -9.58,9.58 0,5.29 4.29,9.59 9.58,9.59 5.29,0 9.59,-4.3 9.59,-9.59 0,-5.29 -4.3,-9.58 -9.59,-9.58l0 9.58z"/>
   <line class="fil2 str6" x1="36062.07" y1="11403.75" x2="36138.67" y2= "11308.02" />
   <line class="fil2 str6" x1="35870.67" y1="12073.74" x2="36138.67" y2= "11805.74" />
   <polygon class="fil0 str6" points="6908.45,14677.07 6181.08,14677.07 6181.08,12839.42 6908.45,12839.42 "/>
   <line class="fil2 str6" x1="6181.08" y1="13126.55" x2="6257.63" y2= "13030.82" />
   <path class="fil0 str9" d="M6391.61 12915.97l0 -9.59c-5.29,0 -9.59,4.3 -9.59,9.59 0,5.29 4.3,9.59 9.59,9.59 5.29,0 9.59,-4.3 9.59,-9.59 0,-5.29 -4.3,-9.59 -9.59,-9.59l0 9.59z"/>
   <path class="fil0 str9" d="M6200.2 13585.96l0 -9.58c-5.29,0 -9.58,4.29 -9.58,9.58 0,5.29 4.29,9.59 9.58,9.59 5.29,0 9.59,-4.3 9.59,-9.59 0,-5.29 -4.3,-9.58 -9.59,-9.58l0 9.58z"/>
   <line class="fil2 str6" x1="6334.18" y1="13471.11" x2="6908.45" y2= "12877.72" />
   <line class="fil2 str6" x1="6181.08" y1="14102.8" x2="6755.34" y2= "13528.54" />
   <path class="fil0 str9" d="M6889.32 13394.56l0 -9.59c-5.29,0 -9.58,4.3 -9.58,9.59 0,5.29 4.29,9.58 9.58,9.58 5.29,0 9.59,-4.29 9.59,-9.58 0,-5.29 -4.3,-9.59 -9.59,-9.59l0 9.59z"/>
   <line class="fil2 str6" x1="6181.08" y1="14600.52" x2="6563.89" y2= "14198.53" />
   <path class="fil0 str9" d="M6697.92 14083.68l0 -9.59c-5.29,0 -9.59,4.3 -9.59,9.59 0,5.29 4.3,9.58 9.59,9.58 5.29,0 9.58,-4.29 9.58,-9.58 0,-5.29 -4.29,-9.59 -9.58,-9.59l0 9.59z"/>
   <line class="fil2 str6" x1="6812.77" y1="13949.65" x2="6908.45" y2= "13873.1" />
   <line class="fil2 str6" x1="6640.49" y1="14638.77" x2="6908.45" y2= "14370.81" />
   <polygon class="fil0 str6" points="6908.45,25626.44 6181.08,25626.44 6181.08,23807.91 6908.45,23807.91 "/>
   <line class="fil2 str6" x1="6181.08" y1="24095.04" x2="6257.63" y2= "23999.32" />
   <path class="fil0 str9" d="M6391.61 23865.34l0 -9.59c-5.29,0 -9.59,4.3 -9.59,9.59 0,5.29 4.3,9.58 9.59,9.58 5.29,0 9.59,-4.29 9.59,-9.58 0,-5.29 -4.3,-9.59 -9.59,-9.59l0 9.59z"/>
   <path class="fil0 str9" d="M6200.2 24554.46l0 -9.59c-5.29,0 -9.58,4.3 -9.58,9.59 0,5.29 4.29,9.58 9.58,9.58 5.29,0 9.59,-4.29 9.59,-9.58 0,-5.29 -4.3,-9.59 -9.59,-9.59l0 9.59z"/>
   <line class="fil2 str6" x1="6334.18" y1="24420.48" x2="6908.45" y2= "23846.21" />
   <line class="fil2 str6" x1="6181.08" y1="25071.3" x2="6755.34" y2= "24477.9" />
   <path class="fil0 str9" d="M6889.32 24363.05l0 -9.59c-5.29,0 -9.58,4.3 -9.58,9.59 0,5.29 4.29,9.59 9.58,9.59 5.29,0 9.59,-4.3 9.59,-9.59 0,-5.29 -4.3,-9.59 -9.59,-9.59l0 9.59z"/>
   <line class="fil2 str6" x1="6181.08" y1="25569.01" x2="6563.89" y2= "25167.02" />
   <path class="fil0 str9" d="M6697.92 25033l0 -9.59c-5.29,0 -9.59,4.3 -9.59,9.59 0,5.29 4.3,9.58 9.59,9.58 5.29,0 9.58,-4.29 9.58,-9.58 0,-5.29 -4.29,-9.59 -9.58,-9.59l0 9.59z"/>
   <line class="fil2 str6" x1="6812.77" y1="24918.14" x2="6908.45" y2= "24841.59" />
   <line class="fil2 str6" x1="6640.49" y1="25588.14" x2="6908.45" y2= "25320.13" />
   <polygon class="fil0 str6" points="21514,10274.34 21514,11020.89 19695.47,11020.89 19695.47,10274.34 "/>
   <line class="fil2 str6" x1="19714.6" y1="10293.52" x2="19733.77" y2= "10274.34" />
   <line class="fil2 str6" x1="19695.47" y1="10810.36" x2="20154.88" y2= "10350.94" />
   <path class="fil0 str9" d="M20097.46 10906.04l0 -9.59c-5.29,0 -9.59,4.3 -9.59,9.59 0,5.29 4.3,9.58 9.59,9.58 5.29,0 9.58,-4.29 9.58,-9.58 0,-5.29 -4.29,-9.59 -9.58,-9.59l0 9.59z"/>
   <line class="fil2 str6" x1="20212.31" y1="10791.18" x2="20710.02" y2= "10274.34" />
   <line class="fil2 str6" x1="20480.32" y1="11020.89" x2="20652.6" y2= "10848.61" />
   <path class="fil0 str9" d="M20767.45 10733.76l0 -9.59c-5.29,0 -9.59,4.3 -9.59,9.59 0,5.29 4.3,9.58 9.59,9.58 5.29,0 9.59,-4.29 9.59,-9.58 0,-5.29 -4.3,-9.59 -9.59,-9.59l0 9.59z"/>
   <line class="fil2 str6" x1="20882.3" y1="10599.78" x2="21207.69" y2= "10274.34" />
   <line class="fil2 str6" x1="20977.99" y1="11020.89" x2="21322.55" y2= "10676.33" />
   <path class="fil0 str9" d="M21437.4 10542.35l0 -9.59c-5.29,0 -9.59,4.3 -9.59,9.59 0,5.29 4.3,9.59 9.59,9.59 5.29,0 9.58,-4.3 9.58,-9.59 0,-5.29 -4.29,-9.59 -9.58,-9.59l0 9.59z"/>
   <line class="fil2 str6" x1="21456.57" y1="11020.89" x2="21514" y2= "10963.46" />
   <polygon class="fil0 str6" points="7999.56,10274.34 7999.56,11020.89 6181.08,11020.89 6181.08,10274.34 "/>
   <line class="fil2 str6" x1="6200.2" y1="10293.52" x2="6219.33" y2= "10274.34" />
   <line class="fil2 str6" x1="6181.08" y1="10810.36" x2="6621.32" y2= "10350.94" />
   <path class="fil0 str9" d="M6563.89 10906.04l0 -9.59c-5.29,0 -9.59,4.3 -9.59,9.59 0,5.29 4.3,9.58 9.59,9.58 5.29,0 9.59,-4.29 9.59,-9.58 0,-5.29 -4.3,-9.59 -9.59,-9.59l0 9.59z"/>
   <line class="fil2 str6" x1="6697.92" y1="10791.18" x2="7195.58" y2= "10274.34" />
   <line class="fil2 str6" x1="6965.88" y1="11020.89" x2="7119.03" y2= "10848.61" />
   <path class="fil0 str9" d="M7253.01 10733.76l0 -9.59c-5.29,0 -9.59,4.3 -9.59,9.59 0,5.29 4.3,9.58 9.59,9.58 5.29,0 9.59,-4.29 9.59,-9.58 0,-5.29 -4.3,-9.59 -9.59,-9.59l0 9.59z"/>
   <line class="fil2 str6" x1="7367.86" y1="10599.78" x2="7693.3" y2= "10274.34" />
   <line class="fil2 str6" x1="7444.46" y1="11020.89" x2="7789.02" y2= "10676.33" />
   <path class="fil0 str9" d="M7923 10542.35l0 -9.59c-5.29,0 -9.58,4.3 -9.58,9.59 0,5.29 4.29,9.59 9.58,9.59 5.29,0 9.59,-4.3 9.59,-9.59 0,-5.29 -4.3,-9.59 -9.59,-9.59l0 9.59z"/>
   <line class="fil2 str6" x1="7942.13" y1="11020.89" x2="7999.56" y2= "10963.46" />
  </g>
  <polygon class="fil0 str6" points="35411.25,12112 35411.25,14294.21 36138.67,14294.21 36138.67,12112 "/>
  <g id="_2286583555264">
   <polygon class="fil2 str4" points="24595.91,34393.55 24404.46,34393.55 24404.46,34029.86 24595.91,34029.86 "/>
   <polygon class="fil2 str4" points="28098.94,34393.55 27907.49,34393.55 27907.49,34029.86 28098.94,34029.86 "/>
  </g>
  <rect class="fil4 str10" x="6097.36" y="9208.09" width="2726.94" height="1066.25"/>
  <g id="_2286583548688">
   <path class="fil5 str11" d="M35406.14 18766.31l0 2338.39c0.01,87.12 -71.27,157.76 -159.16,157.76l-2390.53 -0.01c-87.88,0.01 -159.16,-70.63 -159.16,-157.74l-0.01 -2338.4c0.01,-87.1 71.29,-157.74 159.18,-157.74l2390.51 -0.01c87.9,0.01 159.18,70.65 159.18,157.76z"/>
   <rect class="fil5 str11" transform="matrix(7.35706E-14 0.917648 -0.925957 7.29104E-14 34941.8 18854)" width="2373.81" height="2106.33"/>
   <circle class="fil5 str12" transform="matrix(7.35706E-14 0.917648 -0.925957 7.29104E-14 34539.3 20449.4)" r="183.89"/>
  </g>
  <rect class="fil4 str10" x="32003.94" y="9208.09" width="4212.88" height="1066.25"/>
  <g id="_2286583542256">
   <line class="fil5 str13" x1="33785.81" y1="27748.72" x2="34117.81" y2= "27711.87" />
   <line class="fil5 str14" x1="33799.09" y1="26607.58" x2="34131" y2= "26644.52" />
   <path class="fil5 str14" d="M35300.09 28282.69c-263.04,0 -526.13,0.05 -789.18,0.05 -196.19,0.56 -338.1,-101.09 -396.46,-350.43 3.09,-443.63 6.18,-887.31 9.28,-1330.95 -18.13,-347.15 132.23,-491.51 387.18,-512.98l801.69 0"/>
   <path class="fil5 str14" d="M33122.46 26352.38c262.04,-42.9 489.28,16.26 663.82,230.51 33.03,86.62 58.91,171.64 77.88,255.08 73.81,324.62 43.12,625.78 -77.92,906.62 -155.15,188.82 -357.61,276.93 -612.69,253.15 -380.87,-37.11 -750.59,-174.4 -1102.15,-474.47 -213.25,-209.69 -230.72,-446.95 0,-719.1 306.14,-246.37 658.38,-392.85 1051.06,-451.79z"/>
  </g>
  <g id="_2323026905248">
   <path class="fil5 str11" d="M35350.4 29256.83c-612.58,5.79 -1183.94,-181.23 -1262.93,568.69 -20.14,244.23 -11.52,477.31 22.13,717.09 136.29,614.13 664.19,421.31 1249.8,431.59"/>
   <path class="fil5 str14" d="M34899.21 29351.7c80.82,-1.7 158.9,58.49 195.83,125.39 0,445.54 0,869.83 0,1315.38 -13.87,62.91 -57.46,77.04 -152,98.35 -860.46,32.21 -677.9,-556.61 -692.9,-1090.78 38.2,-386.71 315.66,-431.39 649.07,-448.34z"/>
   <circle class="fil5 str14" transform="matrix(-2.46482E-14 0.930664 -0.930664 -2.46482E-14 34968.5 30132.4)" r="94.44"/>
   <path class="fil5 str14" d="M34938.63 29555.17c64.56,-1.2 126.92,41.77 156.41,89.54 0,318.11 0,621.06 0,939.18 -11.07,44.92 -45.89,55 -121.39,70.22 -678.51,56.27 -550.45,-338.72 -553.41,-778.81 5.36,-288.23 263.71,-320.13 518.39,-320.13z"/>
  </g>
  <g id="_2323026902512">
   <rect class="fil5 str14" transform="matrix(-0.000190686 1.0053 -1.02703 -0.000186652 35304.7 31035.2)" width="2611.41" height="5846.68"/>
   <path class="fil5 str14" d="M30400.2 31334.19c1318.87,-55.06 2622.23,-18.99 3933.34,-28.47 458.87,-6.39 693.1,10.22 685.57,485.66 -0.07,393.48 -0.15,786.93 -0.22,1180.4 4.17,334.12 -97.93,459.78 -669.24,434.15 -1316.6,-9.96 -2633.24,10.48 -3949.83,-29.86 -1045.64,-123.19 -1151.53,-1858.46 0.38,-2041.88z"/>
   <circle class="fil5 str14" transform="matrix(-0.000190686 1.0053 -1.02703 -0.000186652 34615.5 32369.3)" r="121.03"/>
  </g>
  <path class="fil5 str15" d="M24595.92 34107.43c55.23,1807.55 1063.21,3298.28 3287.24,3815.2 0,-1140.24 30.34,-2543.93 30.34,-3684.18"/>
  <path class="fil5 str15" d="M25342.07 25622.42c43.02,-1351.84 828,-2466.74 2560.03,-2853.33 0,852.76 23.63,1902.56 23.63,2755.34"/>
  <path class="fil5 str15" d="M28425.86 25914.39c-1351.84,42.42 -2466.74,816.61 -2853.33,2524.82 852.76,0 1902.56,23.3 2755.34,23.3"/>
  <path class="fil5 str15" d="M28425.86 32336.65c-1351.84,-42.42 -2466.74,-816.61 -2853.33,-2524.82 852.76,0 1902.56,-23.3 2755.34,-23.3"/>
  <polygon class="fil2 str16" points="24229.66,25262.7 24421.06,25262.7 24421.06,25626.44 24229.66,25626.44 "/>
  <path class="fil5 str15" d="M24216.5 25567.1c-43.02,-1351.84 -695.45,-2411.42 -2427.48,-2798.01 0,852.76 -23.63,1902.56 -23.63,2755.34"/>
  <path class="fil5 str15" d="M16986.03 27991.95c-1351.84,42.42 -2466.74,816.61 -2853.33,2524.82 852.76,0 1902.56,23.3 2755.34,23.3"/>
  <path class="fil5 str15" d="M18059.78 31357.43c36.89,-1351.84 710.18,-2466.74 2195.73,-2853.33 0,852.76 20.27,1902.56 20.27,2755.34"/>
  <g id="_2323026919168">
   <rect class="fil4 str10" x="35871.61" y="4533.28" width="333.49" height="5352.78"/>
   <rect class="fil4 str10" transform="matrix(-8.70273E-15 1.36769 2.38587 -1.31811E-13 25830.5 4533.27)" width="444" height="4347.05"/>
   <rect class="fil4 str10" x="25812.85" y="4533.28" width="333.49" height="6216.01" rx="37.55" ry="71.5"/>
  </g>
  <polygon class="fil2 str17" points="27331.72,9323.83 27523.12,9323.83 27523.12,9687.57 27331.72,9687.57 "/>
  <polygon class="fil2 str18" points="29384.65,9323.83 29576.05,9323.83 29576.05,9687.57 29384.65,9687.57 "/>
  <path class="fil5 str15" d="M29384.64 9323.83c-34.85,1095.57 -442.22,1987.92 -1845.91,2301.23 0,-691.11 -19.15,-1541.9 -19.15,-2233.02"/>
  <g id="_2323026908848">
   <rect class="fil5 str19" transform="matrix(-4.11364E-14 0.840425 1.07802 9.6729E-15 29930.4 2438.14)" width="2496.64" height="5813.27"/>
   <line class="fil5 str19" x1="29922.24" y1="2434.76" x2="36189.08" y2= "4533" />
   <line class="fil5 str19" x1="29930.44" y1="4536.38" x2="36148.49" y2= "2489.64" />
  </g>
 </g>
</svg>
