<svg width="20" height="20" viewBox="0 0 20 20" fill="none" xmlns="http://www.w3.org/2000/svg">
<path d="M6.86185 10.9609L6.8693 10.9684L6.87706 10.9756L9.35954 13.2664C9.46379 13.3695 9.57965 13.4546 9.70306 13.5218C9.53302 13.4533 9.37886 13.3551 9.25253 13.2283L9.24508 13.2208L9.23732 13.2136L6.75611 10.924C6.14992 10.3079 6.15223 9.34458 6.76304 8.73119L7.63773 7.85281L7.98905 7.5L7.63773 7.14719L3.46616 2.958L3.11186 2.60221L2.76285 2.95269C2.93364 2.77978 3.06324 2.64937 3.11198 2.60038L8.07295 7.51497C8.07303 7.51505 8.07312 7.51514 8.07322 7.51525C8.07477 7.51696 8.07864 7.52241 8.07864 7.53378C8.07864 7.5459 8.07425 7.55129 8.07295 7.5526L6.86185 8.76881C6.26388 9.36931 6.26388 10.3604 6.86185 10.9609ZM12.8858 12.485L12.598 12.1959L12.5988 12.1951L17.2087 16.8245C17.1948 16.839 17.174 16.8606 17.1473 16.8886C16.8855 17.1627 16.0461 18.0415 15.3028 18.673L15.3004 18.6751C14.4878 19.3745 13.5518 19.5 12.868 19.5C12.5037 19.5 12.1362 19.454 11.8234 19.385C11.5007 19.3139 11.2762 19.2272 11.1756 19.1668C9.15844 17.938 6.93558 16.206 5.03657 14.3239C4.8161 14.1054 4.60051 13.8854 4.39053 13.6644C4.51392 13.7937 4.6394 13.9227 4.76683 14.0513C6.58055 15.8812 8.82398 17.6576 11.1723 19.0622C11.2209 19.0973 11.2649 19.119 11.2841 19.1284L11.2842 19.1284C11.3292 19.1505 11.3785 19.1707 11.4281 19.1889C11.5281 19.2255 11.6531 19.2627 11.7951 19.2959C12.0793 19.3625 12.4542 19.4189 12.868 19.4189C13.4978 19.4189 14.4587 19.3534 15.272 18.6295C15.8403 18.1982 16.4747 17.5621 16.8414 17.0466L17.0859 16.7028L16.7883 16.4039L12.8858 12.485ZM3.09398 2.58254L3.09588 2.58444L3.09398 2.58254ZM0.894996 8.62329L0.89531 8.62411C1.31691 9.7296 2.07382 10.9365 3.05794 12.1533C2.08477 10.955 1.3224 9.76438 0.885029 8.66633C0.576006 7.89051 0.454429 7.05553 0.515143 6.31626C0.547643 5.92054 0.630779 5.56652 0.755442 5.26726C0.643375 5.5873 0.577127 5.95423 0.552402 6.32668C0.506028 7.02523 0.598203 7.84091 0.894996 8.62329ZM16.3667 9.97297C16.3508 9.97297 16.3447 9.97006 16.3444 9.96993C16.3437 9.96959 16.3426 9.96905 16.3407 9.96697C16.3384 9.96447 16.3351 9.95975 16.3323 9.9526C16.3296 9.94536 16.3284 9.93817 16.3284 9.93243C16.3284 6.49114 13.5571 3.68667 10.1725 3.75673C10.1591 3.75657 10.1487 3.7556 10.1409 3.75446C10.1395 3.7454 10.1384 3.73283 10.1384 3.71622C10.1384 3.69944 10.1414 3.69254 10.1418 3.6916L10.1418 3.69159C10.1424 3.69025 10.1432 3.68898 10.1452 3.68712C10.1476 3.68489 10.152 3.68177 10.1586 3.67925C10.1653 3.67668 10.1717 3.67568 10.1766 3.67568C13.5991 3.67568 16.405 6.49037 16.405 9.93243C16.405 9.94904 16.4038 9.96161 16.4024 9.97067C16.3938 9.97193 16.382 9.97297 16.3667 9.97297ZM10.1766 6.45946C10.1607 6.45946 10.1547 6.45654 10.1544 6.45642C10.1536 6.45608 10.1526 6.45556 10.1508 6.45362C10.1722 6.44945 10.2025 6.44595 10.2439 6.44595C12.1188 6.44595 13.6463 7.97686 13.6463 9.86487C13.6463 9.88148 13.6452 9.89405 13.6438 9.90311C13.6352 9.90437 13.6234 9.90541 13.6081 9.90541C13.5925 9.90541 13.5864 9.90261 13.5859 9.90238L13.5858 9.90237C13.5851 9.90202 13.584 9.90148 13.5821 9.8994C13.5798 9.8969 13.5765 9.89218 13.5737 9.88503C13.571 9.8778 13.5698 9.87061 13.5698 9.86487C13.5698 7.96909 12.0695 6.45946 10.1766 6.45946ZM10.0711 0.540541C10.0711 0.52376 10.0741 0.516864 10.0745 0.515928L10.0745 0.515912C10.0751 0.514575 10.0759 0.513302 10.0779 0.511448C10.0803 0.509219 10.0848 0.506097 10.0913 0.503571C10.098 0.501007 10.1044 0.5 10.1093 0.5C15.2744 0.5 19.434 4.72732 19.5 9.93485C19.4999 9.95027 19.4988 9.96206 19.4974 9.97067C19.4888 9.97193 19.4771 9.97297 19.4617 9.97297C19.4458 9.97297 19.4398 9.97006 19.4395 9.96993C19.4387 9.96959 19.4376 9.96905 19.4357 9.96697C19.4334 9.96447 19.4301 9.95975 19.4274 9.9526C19.4246 9.94536 19.4235 9.93817 19.4235 9.93243C19.4235 4.79341 15.2319 0.581081 10.1093 0.581081C10.094 0.581081 10.0822 0.580043 10.0736 0.578787C10.0722 0.569727 10.0711 0.557151 10.0711 0.540541Z" fill="#A0A0A0" stroke="#A0A0A0"/>
</svg>
