<svg width="23" height="22" viewBox="0 0 23 22" fill="none" xmlns="http://www.w3.org/2000/svg">
<path d="M6.01555 10.9274C6.01555 11.6217 5.73575 12.2435 5.27979 12.6995C4.82383 13.1554 4.20207 13.4352 3.50777 13.4352C2.81347 13.4352 2.19171 13.1554 1.73575 12.6995C1.27979 12.2435 1 11.6217 1 10.9274C1 10.2331 1.27979 9.61139 1.73575 9.15543C2.19171 8.69947 2.81347 8.41968 3.50777 8.41968C4.20207 8.41968 4.82383 8.69947 5.27979 9.15543C5.73575 9.61139 6.01555 10.2331 6.01555 10.9274Z" stroke="#A0A0A0" stroke-miterlimit="10" stroke-linecap="round" stroke-linejoin="round"/>
<path d="M21.6321 3.50777C21.6321 4.20207 21.3523 4.82383 20.8964 5.27979C20.4404 5.73575 19.8186 6.01554 19.1243 6.01554C18.43 6.01554 17.8083 5.73575 17.3523 5.27979C16.8964 4.82383 16.6166 4.20207 16.6166 3.50777C16.6166 2.81347 16.8964 2.19171 17.3523 1.73575C17.8083 1.27979 18.43 1 19.1243 1C19.8186 1 20.4404 1.27979 20.8964 1.73575C21.3523 2.19171 21.6321 2.81347 21.6321 3.50777Z" stroke="#A0A0A0" stroke-miterlimit="10" stroke-linecap="round" stroke-linejoin="round"/>
<path d="M6.01555 11L16.6269 4.67874" stroke="#A0A0A0" stroke-miterlimit="10" stroke-linecap="round" stroke-linejoin="round"/>
<path d="M21.6321 18.4922C21.6321 17.7979 21.3523 17.1762 20.8964 16.7202C20.4404 16.2643 19.8186 15.9845 19.1243 15.9845C18.43 15.9845 17.8083 16.2643 17.3523 16.7202C16.8964 17.1762 16.6166 17.7979 16.6166 18.4922C16.6166 19.1865 16.8964 19.8083 17.3523 20.2643C17.8083 20.7202 18.43 21 19.1243 21C19.8186 21 20.4404 20.7202 20.8964 20.2643C21.3523 19.8083 21.6321 19.1865 21.6321 18.4922Z" stroke="#A0A0A0" stroke-miterlimit="10" stroke-linecap="round" stroke-linejoin="round"/>
<path d="M6.01555 11L16.6269 17.3212" stroke="#A0A0A0" stroke-miterlimit="10" stroke-linecap="round" stroke-linejoin="round"/>
</svg>
